G04 Generated by Ultiboard 14.2 *
%FSLAX46Y46*%
%MOIN*%

%ADD10C,0.000001*%
%ADD11C,0.005000*%
%ADD12C,0.010000*%
%ADD13C,0.020000*%
%ADD14C,0.015000*%
%ADD15C,0.007000*%
%ADD16C,0.050000*%
%ADD17C,0.030000*%
%ADD18C,0.000050*%
%ADD19C,0.015748*%
%ADD20C,0.011811*%
%ADD21C,0.033465*%
%ADD22R,0.039370X0.037402*%
%ADD23R,0.059055X0.013780*%
%ADD24C,0.003937*%
%ADD25R,0.025984X0.022835*%
%ADD26R,0.016535X0.018110*%
%ADD27R,0.022835X0.025984*%
%ADD28R,0.031496X0.011811*%
%ADD29R,0.106299X0.122047*%
%ADD30R,0.018110X0.016535*%
%ADD31R,0.074803X0.015748*%
%ADD32C,0.070866*%
%ADD33R,0.059055X0.039370*%
%ADD34R,0.003150X0.011811*%
%ADD35R,0.011811X0.011221*%
%ADD36R,0.011811X0.011220*%
%ADD37P,0.032293X4*%
%ADD38C,0.007874*%
%ADD39R,0.080709X0.037402*%
%ADD40C,0.009843*%
%ADD41R,0.037402X0.041339*%
%ADD42C,0.047244*%


G04 ColorRGB 008000 for the following layer *
%LNCopper Top*%
%LPD*%
G54D10*
G36*
X3064927Y-85000D02*
X3064927Y-85000D01*
X3064927Y378628D01*
X15073Y378628D01*
X15073Y5073D01*
X2849972Y5073D01*
G75*
D01*
G02X2855508Y4030I28J-15073*
G01*
G74*
D01*
G02X2860310Y994I5508J14030*
G01*
X2860310Y994D01*
X3055945Y-181778D01*
X3163827Y-181778D01*
X3359427Y10742D01*
G74*
D01*
G02X3366699Y14707I10573J10742*
G01*
G75*
D01*
G02X3370000Y15073I3301J-14707*
G01*
X3370000Y15073D01*
X3528235Y15073D01*
X3528235Y378628D01*
X3175073Y378628D01*
X3175073Y-85000D01*
G75*
D01*
G02X3160000Y-100073I-15073J0*
G01*
X3160000Y-100073D01*
X3080000Y-100073D01*
G75*
D01*
G02X3064927Y-85000I0J15073*
G01*
D02*
G37*
%LPC*%
G36*
X1303261Y47560D02*
G74*
D01*
G02X1299359Y48777I1739J12440*
G01*
X1299359Y48777D01*
X1284297Y56308D01*
G75*
D01*
G02X1271926Y69232I565J12924*
G01*
X1271926Y69232D01*
X1271926Y70871D01*
G74*
D01*
G02X1261371Y68046I12503J25585*
G01*
G74*
D01*
G02X1259423Y67920I1948J14946*
G01*
X1259423Y67920D01*
X1204388Y67920D01*
X1190306Y65781D01*
G74*
D01*
G02X1183268Y62904I7038J7172*
G01*
X1183268Y62904D01*
X1166732Y62904D01*
G75*
D01*
G02X1156684Y72953I0J10049*
G01*
X1156684Y72953D01*
X1156684Y91063D01*
G75*
D01*
G02X1166732Y101111I10048J0*
G01*
X1166732Y101111D01*
X1183268Y101111D01*
G74*
D01*
G02X1188784Y99462I0J10048*
G01*
G75*
D01*
G02X1186355Y107008I10507J7546*
G01*
X1186355Y107008D01*
X1186355Y132992D01*
G75*
D01*
G02X1199291Y145928I12936J0*
G01*
X1199291Y145928D01*
X1222126Y145928D01*
G74*
D01*
G02X1230000Y143256I0J12936*
G01*
G75*
D01*
G02X1237874Y145928I7874J-10264*
G01*
X1237874Y145928D01*
X1260709Y145928D01*
G74*
D01*
G02X1273639Y133389I0J12936*
G01*
X1273639Y133389D01*
X1278257Y131537D01*
G75*
D01*
G02X1284862Y133350I6605J-11124*
G01*
X1284862Y133350D01*
X1313264Y133350D01*
X1313264Y185374D01*
G75*
D01*
G02X1326201Y198310I12937J0*
G01*
X1326201Y198310D01*
X1432500Y198310D01*
G74*
D01*
G02X1443359Y192405I0J12936*
G01*
X1443359Y192405D01*
X1469903Y192405D01*
X1469903Y201676D01*
X1416676Y254903D01*
X1332317Y254903D01*
G74*
D01*
G02X1331667Y254893I650J20097*
G01*
G75*
D01*
G03X1266220Y227784I0J-92556*
G01*
G74*
D01*
G02X1265752Y227331I14218J14218*
G01*
X1265752Y227331D01*
X1143525Y105104D01*
G74*
D01*
G02X1133519Y99644I14234J14187*
G01*
G74*
D01*
G02X1135928Y92126I10527J7518*
G01*
X1135928Y92126D01*
X1135928Y69291D01*
G75*
D01*
G02X1122992Y56355I-12936J0*
G01*
X1122992Y56355D01*
X1097008Y56355D01*
G75*
D01*
G02X1084072Y69291I0J12936*
G01*
X1084072Y69291D01*
X1084072Y78452D01*
G74*
D01*
G02X1078701Y77186I5371J10761*
G01*
X1078701Y77186D01*
X1019646Y77186D01*
G75*
D01*
G02X1007619Y89213I0J12027*
G01*
X1007619Y89213D01*
X1007619Y102992D01*
G74*
D01*
G02X1009169Y108898I12027J0*
G01*
G75*
D01*
G02X1007619Y114803I10477J5905*
G01*
X1007619Y114803D01*
X1007619Y128583D01*
G74*
D01*
G02X1009169Y134488I12027J0*
G01*
G75*
D01*
G02X1007619Y140394I10477J5906*
G01*
X1007619Y140394D01*
X1007619Y154173D01*
G74*
D01*
G02X1009169Y160079I12027J0*
G01*
G75*
D01*
G02X1007619Y165984I10477J5905*
G01*
X1007619Y165984D01*
X1007619Y179764D01*
G74*
D01*
G02X1009169Y185669I12027J0*
G01*
G75*
D01*
G02X1007619Y191575I10477J5906*
G01*
X1007619Y191575D01*
X1007619Y205354D01*
G74*
D01*
G02X1009169Y211260I12027J0*
G01*
G75*
D01*
G02X1007619Y217165I10477J5905*
G01*
X1007619Y217165D01*
X1007619Y230945D01*
G74*
D01*
G02X1009169Y236850I12027J0*
G01*
G75*
D01*
G02X1007619Y242756I10477J5906*
G01*
X1007619Y242756D01*
X1007619Y256535D01*
G74*
D01*
G02X1009169Y262441I12027J0*
G01*
G75*
D01*
G02X1007619Y268346I10477J5905*
G01*
X1007619Y268346D01*
X1007619Y282126D01*
G74*
D01*
G02X1009169Y288031I12027J0*
G01*
G75*
D01*
G02X1007619Y293937I10477J5906*
G01*
X1007619Y293937D01*
X1007619Y307717D01*
G74*
D01*
G02X1009169Y313622I12027J0*
G01*
G75*
D01*
G02X1007619Y319528I10477J5906*
G01*
X1007619Y319528D01*
X1007619Y333307D01*
G75*
D01*
G02X1019646Y345333I12027J0*
G01*
X1019646Y345333D01*
X1078701Y345333D01*
G74*
D01*
G02X1085127Y343472I0J12026*
G01*
X1085127Y343472D01*
X1090273Y344748D01*
G75*
D01*
G02X1097953Y348316I7680J-6480*
G01*
X1097953Y348316D01*
X1116063Y348316D01*
G74*
D01*
G02X1120000Y347513I0J10048*
G01*
G75*
D01*
G02X1123937Y348316I3937J-9245*
G01*
X1123937Y348316D01*
X1142047Y348316D01*
G74*
D01*
G02X1152096Y338268I0J10048*
G01*
X1152096Y338268D01*
X1152096Y321732D01*
G75*
D01*
G02X1142047Y311684I-10049J0*
G01*
X1142047Y311684D01*
X1123937Y311684D01*
G75*
D01*
G02X1120000Y312487I0J10048*
G01*
G74*
D01*
G02X1116063Y311684I3937J9245*
G01*
X1116063Y311684D01*
X1107895Y311684D01*
G74*
D01*
G02X1107214Y311661I851J15048*
G01*
X1107214Y311661D01*
X1106455Y311652D01*
G74*
D01*
G02X1103425Y311345I3030J14765*
G01*
X1103425Y311345D01*
X1090167Y311345D01*
G74*
D01*
G02X1090727Y307717I11466J3628*
G01*
X1090727Y307717D01*
X1090727Y293937D01*
G75*
D01*
G02X1089177Y288031I-12026J0*
G01*
G74*
D01*
G02X1090727Y282126I10476J5905*
G01*
X1090727Y282126D01*
X1090727Y268346D01*
G75*
D01*
G02X1089177Y262441I-12026J0*
G01*
G74*
D01*
G02X1090727Y256535I10476J5906*
G01*
X1090727Y256535D01*
X1090727Y242756D01*
G75*
D01*
G02X1089177Y236850I-12026J0*
G01*
G74*
D01*
G02X1090727Y230945I10476J5905*
G01*
X1090727Y230945D01*
X1090727Y217165D01*
G75*
D01*
G02X1089177Y211260I-12026J0*
G01*
G74*
D01*
G02X1090727Y205354I10476J5906*
G01*
X1090727Y205354D01*
X1090727Y191575D01*
G75*
D01*
G02X1089177Y185669I-12026J0*
G01*
G74*
D01*
G02X1090727Y179764I10476J5905*
G01*
X1090727Y179764D01*
X1090727Y165984D01*
G75*
D01*
G02X1089177Y160079I-12026J0*
G01*
G74*
D01*
G02X1090727Y154173I10476J5906*
G01*
X1090727Y154173D01*
X1090727Y142018D01*
G75*
D01*
G02X1097008Y143645I6281J-11309*
G01*
X1097008Y143645D01*
X1122992Y143645D01*
G74*
D01*
G02X1125058Y143479I0J12936*
G01*
X1125058Y143479D01*
X1237332Y255753D01*
G74*
D01*
G02X1237784Y256220I14670J13751*
G01*
G75*
D01*
G02X1331667Y295107I93883J-93883*
G01*
G74*
D01*
G02X1332317Y295097I0J20107*
G01*
X1332317Y295097D01*
X1417340Y295097D01*
G74*
D01*
G02X1419909Y294932I0J20097*
G01*
G74*
D01*
G02X1442695Y285493I2569J38426*
G01*
G74*
D01*
G02X1444627Y283794I12278J15910*
G01*
X1444627Y283794D01*
X1497405Y231016D01*
G75*
D01*
G02X1510315Y243133I12910J-819*
G01*
X1510315Y243133D01*
X1549685Y243133D01*
G74*
D01*
G02X1562621Y230197I0J12936*
G01*
X1562621Y230197D01*
X1562621Y192795D01*
G75*
D01*
G02X1562482Y190903I-12936J0*
G01*
X1562482Y190903D01*
X1584903Y213324D01*
X1584903Y255417D01*
G74*
D01*
G02X1585146Y258528I20097J0*
G01*
G74*
D01*
G02X1592001Y275079I30919J3111*
G01*
G74*
D01*
G02X1594030Y277451I16240J11838*
G01*
X1594030Y277451D01*
X1644123Y327544D01*
G74*
D01*
G02X1644629Y328032I14210J14211*
G01*
G74*
D01*
G02X1722011Y360084I78083J79078*
G01*
G75*
D01*
G02X1722712Y360097I701J-20084*
G01*
X1722712Y360097D01*
X2686058Y360097D01*
G74*
D01*
G02X2688741Y359917I0J20097*
G01*
G74*
D01*
G02X2709880Y351161I2683J36372*
G01*
G74*
D01*
G02X2711904Y349391I12186J15981*
G01*
X2711904Y349391D01*
X2730109Y331186D01*
G74*
D01*
G02X2731760Y329316I14210J14211*
G01*
G74*
D01*
G02X2741733Y305245I30087J26567*
G01*
G74*
D01*
G02X2741758Y305222I8741J9536*
G01*
X2741758Y305222D01*
X2743057Y305422D01*
G75*
D01*
G02X2757756Y317159I14699J-3335*
G01*
X2757756Y317159D01*
X2795157Y317159D01*
G74*
D01*
G02X2805000Y313502I0J15072*
G01*
G75*
D01*
G02X2814843Y317159I9843J-11415*
G01*
X2814843Y317159D01*
X2852244Y317159D01*
G74*
D01*
G02X2867317Y302087I0J15072*
G01*
X2867317Y302087D01*
X2867317Y281716D01*
X2869072Y278909D01*
X2869072Y285709D01*
G75*
D01*
G02X2882008Y298645I12936J0*
G01*
X2882008Y298645D01*
X2907992Y298645D01*
G74*
D01*
G02X2920928Y285709I0J12936*
G01*
X2920928Y285709D01*
X2920928Y262874D01*
G75*
D01*
G02X2920627Y260097I-12936J0*
G01*
X2920627Y260097D01*
X2926116Y260097D01*
G75*
D01*
G02X2926129Y260097I7J-20097*
G01*
X2926129Y260097D01*
X2962008Y260097D01*
G74*
D01*
G02X2970278Y258316I0J20097*
G01*
X2970278Y258316D01*
X2971063Y258316D01*
G74*
D01*
G02X2975000Y257513I0J10048*
G01*
G75*
D01*
G02X2978937Y258316I3937J-9245*
G01*
X2978937Y258316D01*
X2997047Y258316D01*
G74*
D01*
G02X3007096Y248268I0J10048*
G01*
X3007096Y248268D01*
X3007096Y231732D01*
G75*
D01*
G02X3005554Y226384I-10049J0*
G01*
G74*
D01*
G02X3008645Y217992I9845J8392*
G01*
X3008645Y217992D01*
X3008645Y192008D01*
G75*
D01*
G02X2995709Y179072I-12936J0*
G01*
X2995709Y179072D01*
X2978299Y179072D01*
X2971991Y172763D01*
G74*
D01*
G02X2972645Y172677I1991J17763*
G01*
G75*
D01*
G02X2973602Y172715I957J-11988*
G01*
X2973602Y172715D01*
X2976752Y172715D01*
G74*
D01*
G02X2979018Y172500I0J12026*
G01*
X2979018Y172500D01*
X2983863Y172500D01*
G75*
D01*
G02X2989876Y172715I3637J-17500*
G01*
X2989876Y172715D01*
X2990531Y172715D01*
G74*
D01*
G02X3000815Y166924I0J12026*
G01*
G75*
D01*
G02X3001438Y143810I-13315J-11924*
G01*
G74*
D01*
G02X2990531Y136852I10907J5068*
G01*
X2990531Y136852D01*
X2987382Y136852D01*
G75*
D01*
G02X2983486Y137500I0J12026*
G01*
X2983486Y137500D01*
X2980648Y137500D01*
G74*
D01*
G02X2976752Y136852I3896J11378*
G01*
X2976752Y136852D01*
X2973602Y136852D01*
G75*
D01*
G02X2970937Y137151I0J12026*
G01*
G75*
D01*
G02X2966679Y137437I-937J17849*
G01*
G74*
D01*
G02X2962972Y136852I3707J11441*
G01*
X2962972Y136852D01*
X2959823Y136852D01*
G75*
D01*
G02X2954508Y138090I0J12026*
G01*
G74*
D01*
G02X2949193Y136852I5315J10788*
G01*
X2949193Y136852D01*
X2946043Y136852D01*
G75*
D01*
G02X2940728Y138090I0J12026*
G01*
G74*
D01*
G02X2935413Y136852I5315J10788*
G01*
X2935413Y136852D01*
X2932264Y136852D01*
G75*
D01*
G02X2926949Y138090I0J12026*
G01*
G74*
D01*
G02X2921634Y136852I5315J10788*
G01*
X2921634Y136852D01*
X2918484Y136852D01*
G75*
D01*
G02X2913169Y138090I0J12026*
G01*
G74*
D01*
G02X2907854Y136852I5315J10788*
G01*
X2907854Y136852D01*
X2904705Y136852D01*
G75*
D01*
G02X2892678Y148878I0J12026*
G01*
X2892678Y148878D01*
X2892678Y149744D01*
X2880951Y163411D01*
X2864795Y179568D01*
G74*
D01*
G02X2852244Y172841I12551J8345*
G01*
X2852244Y172841D01*
X2814843Y172841D01*
G75*
D01*
G02X2805000Y176498I0J15072*
G01*
G74*
D01*
G02X2795157Y172841I9843J11415*
G01*
X2795157Y172841D01*
X2757756Y172841D01*
G75*
D01*
G02X2742683Y187913I0J15072*
G01*
X2742683Y187913D01*
X2742683Y225722D01*
G74*
D01*
G02X2732992Y221355I9691J8569*
G01*
X2732992Y221355D01*
X2707008Y221355D01*
G75*
D01*
G02X2694072Y234291I0J12936*
G01*
X2694072Y234291D01*
X2694072Y257126D01*
G74*
D01*
G02X2696744Y265000I12936J0*
G01*
G75*
D01*
G02X2694072Y272874I10264J7874*
G01*
X2694072Y272874D01*
X2694072Y295709D01*
G74*
D01*
G02X2698770Y305683I12936J0*
G01*
X2698770Y305683D01*
X2684550Y319903D01*
X1722712Y319903D01*
G75*
D01*
G02X1722151Y319911I0J20097*
G01*
G74*
D01*
G03X1672934Y299524I561J70957*
G01*
G74*
D01*
G02X1672544Y299123I14601J13809*
G01*
X1672544Y299123D01*
X1625097Y251676D01*
X1625097Y209583D01*
G75*
D01*
G02X1624854Y206472I-20097J0*
G01*
G74*
D01*
G02X1617998Y189920I30919J3111*
G01*
G74*
D01*
G02X1615970Y187549I16239J11839*
G01*
X1615970Y187549D01*
X1579229Y150808D01*
G74*
D01*
G02X1579205Y150783I14223J14198*
G01*
X1579205Y150783D01*
X1562738Y134317D01*
G74*
D01*
G02X1562621Y134201I14234J14187*
G01*
X1562621Y134201D01*
X1562621Y129803D01*
G75*
D01*
G02X1549685Y116867I-12936J0*
G01*
X1549685Y116867D01*
X1530399Y116867D01*
G74*
D01*
G02X1538316Y107047I2131J9820*
G01*
X1538316Y107047D01*
X1538316Y90169D01*
X1538668Y90166D01*
X1552631Y91791D01*
G75*
D01*
G02X1557953Y93316I5322J-8523*
G01*
X1557953Y93316D01*
X1566365Y93316D01*
G75*
D01*
G02X1566895Y93316I265J-15070*
G01*
X1566895Y93316D01*
X1576063Y93316D01*
G74*
D01*
G02X1580000Y92513I0J10048*
G01*
G75*
D01*
G02X1583937Y93316I3937J-9245*
G01*
X1583937Y93316D01*
X1602047Y93316D01*
G74*
D01*
G02X1612096Y83268I0J10048*
G01*
X1612096Y83268D01*
X1612096Y80217D01*
G75*
D01*
G02X1612096Y69783I-17096J-5217*
G01*
X1612096Y69783D01*
X1612096Y66732D01*
G75*
D01*
G02X1602047Y56684I-10049J0*
G01*
X1602047Y56684D01*
X1583937Y56684D01*
G75*
D01*
G02X1580000Y57487I0J10048*
G01*
G74*
D01*
G02X1576063Y56684I3937J9245*
G01*
X1576063Y56684D01*
X1566895Y56684D01*
G75*
D01*
G02X1566486Y56682I-265J15070*
G01*
G74*
D01*
G02X1566365Y56684I144J15072*
G01*
X1566365Y56684D01*
X1557953Y56684D01*
G75*
D01*
G02X1552631Y58209I0J10048*
G01*
X1552631Y58209D01*
X1545731Y59012D01*
X1536272Y56878D01*
G74*
D01*
G02X1528268Y52904I8004J6075*
G01*
X1528268Y52904D01*
X1511732Y52904D01*
G75*
D01*
G02X1501734Y61950I0J10049*
G01*
X1501734Y61950D01*
X1487082Y76602D01*
G74*
D01*
G02X1486775Y76918I10658J10658*
G01*
X1486775Y76918D01*
X1486775Y69232D01*
G75*
D01*
G02X1473839Y56296I-12936J0*
G01*
X1473839Y56296D01*
X1470678Y56296D01*
X1455617Y48766D01*
G74*
D01*
G02X1451739Y47560I5617J11234*
G01*
X1451739Y47560D01*
X1614797Y47560D01*
X1632440Y65203D01*
X1632440Y226464D01*
G74*
D01*
G02X1632569Y228261I12560J0*
G01*
G74*
D01*
G02X1637439Y240019I20966J1797*
G01*
G74*
D01*
G02X1638618Y241382I10061J7519*
G01*
X1638618Y241382D01*
X1693618Y296382D01*
G74*
D01*
G02X1694981Y297561I8882J8882*
G01*
G74*
D01*
G02X1706739Y302431I13555J16096*
G01*
G75*
D01*
G02X1708536Y302560I1797J-12431*
G01*
X1708536Y302560D01*
X2176608Y302560D01*
G75*
D01*
G02X2177574Y302598I966J-12560*
G01*
G74*
D01*
G02X2258908Y268908I0J115024*
G01*
G74*
D01*
G02X2259564Y268199I8908J8908*
G01*
X2259564Y268199D01*
X2316525Y211239D01*
G74*
D01*
G02X2317728Y209845I8882J8882*
G01*
G74*
D01*
G02X2322100Y200741I15775J13178*
G01*
G75*
D01*
G02X2324291Y200928I2191J-12749*
G01*
X2324291Y200928D01*
X2347126Y200928D01*
G74*
D01*
G02X2355000Y198256I0J12936*
G01*
G75*
D01*
G02X2362874Y200928I7874J-10264*
G01*
X2362874Y200928D01*
X2385709Y200928D01*
G74*
D01*
G02X2398639Y188389I0J12936*
G01*
X2398639Y188389D01*
X2406462Y185251D01*
G75*
D01*
G02X2414862Y188350I8400J-9838*
G01*
X2414862Y188350D01*
X2443264Y188350D01*
X2443264Y240374D01*
G75*
D01*
G02X2456201Y253310I12937J0*
G01*
X2456201Y253310D01*
X2562500Y253310D01*
G74*
D01*
G02X2573359Y247405I0J12936*
G01*
X2573359Y247405D01*
X2585616Y247405D01*
X2587374Y249162D01*
G74*
D01*
G02X2594426Y253139I10657J10658*
G01*
G75*
D01*
G02X2598031Y253576I3605J-14635*
G01*
X2598031Y253576D01*
X2626240Y253576D01*
G75*
D01*
G02X2622379Y262795I9075J9219*
G01*
X2622379Y262795D01*
X2622379Y300197D01*
G75*
D01*
G02X2635315Y313133I12936J0*
G01*
X2635315Y313133D01*
X2674685Y313133D01*
G74*
D01*
G02X2687621Y300197I0J12936*
G01*
X2687621Y300197D01*
X2687621Y262795D01*
G75*
D01*
G02X2676590Y250000I-12936J0*
G01*
G74*
D01*
G02X2687621Y237205I1905J12795*
G01*
X2687621Y237205D01*
X2687621Y223900D01*
X2700397Y208024D01*
X2782616Y125805D01*
X2786174Y125805D01*
G75*
D01*
G02X2784072Y132874I10834J7069*
G01*
X2784072Y132874D01*
X2784072Y155709D01*
G75*
D01*
G02X2797008Y168645I12936J0*
G01*
X2797008Y168645D01*
X2822992Y168645D01*
G74*
D01*
G02X2835928Y155709I0J12936*
G01*
X2835928Y155709D01*
X2835928Y151646D01*
G75*
D01*
G02X2849980Y159039I14052J-9658*
G01*
X2849980Y159039D01*
X2861791Y159039D01*
G74*
D01*
G02X2878842Y141988I0J17051*
G01*
X2878842Y141988D01*
X2878842Y130768D01*
G75*
D01*
G02X2873470Y118345I-17051J0*
G01*
X2873470Y118345D01*
X2873470Y116419D01*
G74*
D01*
G02X2878765Y105616I11679J12423*
G01*
G74*
D01*
G02X2881136Y108899I11235J5616*
G01*
X2881136Y108899D01*
X2891118Y118882D01*
G75*
D01*
G02X2910716Y116553I8882J-8882*
G01*
G74*
D01*
G02X2912560Y110000I10716J6553*
G01*
X2912560Y110000D01*
X2912560Y105115D01*
G75*
D01*
G02X2913393Y99370I-15060J-5115*
G01*
X2913393Y99370D01*
X2915142Y97621D01*
G74*
D01*
G02X2915283Y97478I8862J8901*
G01*
G75*
D01*
G02X2918484Y97912I3201J-11592*
G01*
X2918484Y97912D01*
X2921634Y97912D01*
G74*
D01*
G02X2926949Y96674I0J12026*
G01*
G75*
D01*
G02X2932264Y97912I5315J-10788*
G01*
X2932264Y97912D01*
X2934325Y97912D01*
X2926118Y106118D01*
G75*
D01*
G02X2931969Y127189I8882J8882*
G01*
X2931969Y127189D01*
X2951954Y132185D01*
G75*
D01*
G02X2967278Y117352I3046J-12185*
G01*
G74*
D01*
G02X2976242Y110603I2278J12352*
G01*
X2976242Y110603D01*
X2981234Y100617D01*
G74*
D01*
G02X2982424Y96843I11234J5617*
G01*
G75*
D01*
G02X2987382Y97912I4958J-10957*
G01*
X2987382Y97912D01*
X2990532Y97912D01*
G74*
D01*
G02X3002558Y85886I0J12026*
G01*
X3002558Y85886D01*
X3002558Y80076D01*
G75*
D01*
G02X3002558Y79768I-12560J-154*
G01*
X3002558Y79768D01*
X3002558Y74075D01*
G75*
D01*
G02X3002055Y70635I-12026J0*
G01*
X3002055Y70635D01*
X3002042Y70401D01*
G75*
D01*
G02X3006478Y54899I-7042J-10401*
G01*
X3006478Y54899D01*
X3019254Y67675D01*
X3019254Y83324D01*
G75*
D01*
G02X3016394Y92776I14191J9452*
G01*
X3016394Y92776D01*
X3016394Y103996D01*
G74*
D01*
G02X3019254Y113448I17051J0*
G01*
X3019254Y113448D01*
X3019254Y121316D01*
G75*
D01*
G02X3016394Y130768I14191J9452*
G01*
X3016394Y130768D01*
X3016394Y141988D01*
G75*
D01*
G02X3033445Y159039I17051J0*
G01*
X3033445Y159039D01*
X3045256Y159039D01*
G74*
D01*
G02X3062306Y141988I0J17051*
G01*
X3062306Y141988D01*
X3062306Y130768D01*
G75*
D01*
G02X3059447Y121316I-17050J0*
G01*
X3059447Y121316D01*
X3059447Y113448D01*
G74*
D01*
G02X3062306Y103996I14191J9452*
G01*
X3062306Y103996D01*
X3062306Y92776D01*
G75*
D01*
G02X3059447Y83324I-17050J0*
G01*
X3059447Y83324D01*
X3059447Y63988D01*
G75*
D01*
G02X3059207Y60890I-20097J0*
G01*
G74*
D01*
G02X3052302Y44221I31052J3098*
G01*
G74*
D01*
G02X3050282Y41861I16231J11850*
G01*
X3050282Y41861D01*
X3017490Y9069D01*
G74*
D01*
G02X3015130Y7048I14211J14210*
G01*
G74*
D01*
G02X2998460Y143I19767J24148*
G01*
G74*
D01*
G02X2995363Y-97I3097J19857*
G01*
X2995363Y-97D01*
X2870024Y-97D01*
G75*
D01*
G02X2855789Y5789I-24J20097*
G01*
X2855789Y5789D01*
X2821676Y39903D01*
X2732060Y39903D01*
G74*
D01*
G02X2728478Y35057I17769J9388*
G01*
X2728478Y35057D01*
X2710641Y17220D01*
G75*
D01*
G02X2693779Y11509I-14211J14210*
G01*
G74*
D01*
G02X2685906Y9903I7873J18491*
G01*
X2685906Y9903D01*
X2275029Y9903D01*
G75*
D01*
G02X2260789Y15789I-29J20097*
G01*
X2260789Y15789D01*
X2254074Y22505D01*
X2237521Y36867D01*
X2225315Y36867D01*
G75*
D01*
G02X2212877Y46249I0J12936*
G01*
G74*
D01*
G02X2198661Y36187I14216J5011*
G01*
X2198661Y36187D01*
X2139606Y36187D01*
G75*
D01*
G02X2126741Y43407I0J15073*
G01*
X2126741Y43407D01*
X1815017Y43407D01*
X1804431Y32821D01*
G74*
D01*
G02X1790197Y26911I14234J14187*
G01*
X1790197Y26911D01*
X1780000Y26911D01*
G75*
D01*
G02X1773760Y27904I0J20097*
G01*
X1773760Y27904D01*
X1766732Y27904D01*
G75*
D01*
G02X1756734Y36950I0J10049*
G01*
X1756734Y36950D01*
X1742006Y51678D01*
G74*
D01*
G02X1740997Y52794I10658J10658*
G01*
G74*
D01*
G02X1732026Y68004I30170J28045*
G01*
G74*
D01*
G02X1727047Y66684I4979J8728*
G01*
X1727047Y66684D01*
X1720431Y66684D01*
X1667449Y13702D01*
G74*
D01*
G02X1666106Y12536I8881J8882*
G01*
G74*
D01*
G02X1654105Y7566I13776J16285*
G01*
G74*
D01*
G02X1652330Y7440I1775J12434*
G01*
X1652330Y7440D01*
X380053Y7440D01*
G74*
D01*
G02X378433Y7336I1620J12560*
G01*
G75*
D01*
G02X247278Y61662I0J185480*
G01*
G74*
D01*
G02X246207Y62880I8956J8955*
G01*
X246207Y62880D01*
X173883Y135204D01*
X160617Y140619D01*
G75*
D01*
G02X130000Y152307I-5617J31231*
G01*
G75*
D01*
G02X80000Y152307I-25000J19543*
G01*
G75*
D01*
G02X35457Y196850I-25000J19543*
G01*
G75*
D01*
G02X80000Y241394I19543J25000*
G01*
G75*
D01*
G02X130000Y241394I25000J-19544*
G01*
G75*
D01*
G02X180000Y241394I25000J-19544*
G01*
G75*
D01*
G02X230000Y241394I25000J-19544*
G01*
G75*
D01*
G02X280000Y241394I25000J-19544*
G01*
G75*
D01*
G02X330000Y241394I25000J-19544*
G01*
G75*
D01*
G02X374543Y196850I25000J-19544*
G01*
G74*
D01*
G02X380000Y191394I19543J25000*
G01*
G75*
D01*
G02X430000Y191394I25000J-19544*
G01*
G75*
D01*
G02X480000Y191394I25000J-19544*
G01*
G75*
D01*
G02X480000Y152307I25000J-19544*
G01*
G75*
D01*
G02X430000Y152307I-25000J19543*
G01*
G75*
D01*
G02X380000Y152307I-25000J19543*
G01*
G75*
D01*
G02X330000Y152307I-25000J19543*
G01*
G75*
D01*
G02X280000Y152307I-25000J19543*
G01*
G75*
D01*
G02X254491Y140122I-25000J19543*
G01*
X254491Y140122D01*
X304063Y90550D01*
G74*
D01*
G02X305177Y89560I7829J9933*
G01*
G75*
D01*
G03X406362Y47648I101185J101185*
G01*
G74*
D01*
G02X407850Y47560I0J12648*
G01*
X407850Y47560D01*
X1303261Y47560D01*
D02*
G37*
G36*
X2344072Y237126D02*
G75*
D01*
G02X2357008Y250062I12936J0*
G01*
X2357008Y250062D01*
X2382992Y250062D01*
G74*
D01*
G02X2395928Y237126I0J12936*
G01*
X2395928Y237126D01*
X2395928Y214291D01*
G75*
D01*
G02X2382992Y201355I-12936J0*
G01*
X2382992Y201355D01*
X2357008Y201355D01*
G75*
D01*
G02X2344072Y214291I0J12936*
G01*
X2344072Y214291D01*
X2344072Y237126D01*
D02*
G37*
G36*
X1327874Y199072D02*
G75*
D01*
G02X1314938Y212008I0J12936*
G01*
X1314938Y212008D01*
X1314938Y237992D01*
G75*
D01*
G02X1327874Y250928I12936J0*
G01*
X1327874Y250928D01*
X1350709Y250928D01*
G74*
D01*
G02X1363645Y237992I0J12936*
G01*
X1363645Y237992D01*
X1363645Y212008D01*
G75*
D01*
G02X1350709Y199072I-12936J0*
G01*
X1350709Y199072D01*
X1327874Y199072D01*
D02*
G37*
G36*
X798703Y345333D02*
X798703Y345333D01*
X818797Y345333D01*
G75*
D01*
G02X821203Y345333I1203J-17833*
G01*
X821203Y345333D01*
X841297Y345333D01*
G75*
D01*
G02X843703Y345333I1203J-17833*
G01*
X843703Y345333D01*
X850354Y345333D01*
G74*
D01*
G02X862381Y333307I0J12026*
G01*
X862381Y333307D01*
X862381Y319528D01*
G75*
D01*
G02X860831Y313622I-12027J0*
G01*
G74*
D01*
G02X862381Y307717I10477J5905*
G01*
X862381Y307717D01*
X862381Y293937D01*
G75*
D01*
G02X860831Y288031I-12027J0*
G01*
G74*
D01*
G02X862381Y282126I10477J5905*
G01*
X862381Y282126D01*
X862381Y268346D01*
G75*
D01*
G02X860831Y262441I-12027J0*
G01*
G74*
D01*
G02X862381Y256535I10477J5906*
G01*
X862381Y256535D01*
X862381Y242756D01*
G75*
D01*
G02X860831Y236850I-12027J0*
G01*
G74*
D01*
G02X862381Y230945I10477J5905*
G01*
X862381Y230945D01*
X862381Y217165D01*
G75*
D01*
G02X860831Y211260I-12027J0*
G01*
G74*
D01*
G02X862381Y205354I10477J5906*
G01*
X862381Y205354D01*
X862381Y191575D01*
G75*
D01*
G02X860831Y185669I-12027J0*
G01*
G74*
D01*
G02X862381Y179764I10477J5905*
G01*
X862381Y179764D01*
X862381Y165984D01*
G75*
D01*
G02X860831Y160079I-12027J0*
G01*
G74*
D01*
G02X862381Y154173I10477J5906*
G01*
X862381Y154173D01*
X862381Y140394D01*
G75*
D01*
G02X850354Y128367I-12027J0*
G01*
X850354Y128367D01*
X791299Y128367D01*
G75*
D01*
G02X779273Y140394I0J12027*
G01*
X779273Y140394D01*
X779273Y154173D01*
G74*
D01*
G02X780823Y160079I12026J0*
G01*
G75*
D01*
G02X779273Y165984I10476J5905*
G01*
X779273Y165984D01*
X779273Y179764D01*
G74*
D01*
G02X780823Y185669I12026J0*
G01*
G75*
D01*
G02X779273Y191575I10476J5906*
G01*
X779273Y191575D01*
X779273Y205354D01*
G74*
D01*
G02X780823Y211260I12026J0*
G01*
G75*
D01*
G02X779273Y217165I10476J5905*
G01*
X779273Y217165D01*
X779273Y230945D01*
G74*
D01*
G02X780823Y236850I12026J0*
G01*
G75*
D01*
G02X779273Y242756I10476J5906*
G01*
X779273Y242756D01*
X779273Y256535D01*
G74*
D01*
G02X780823Y262441I12026J0*
G01*
G75*
D01*
G02X779273Y268346I10476J5905*
G01*
X779273Y268346D01*
X779273Y282126D01*
G74*
D01*
G02X780823Y288031I12026J0*
G01*
G75*
D01*
G02X779273Y293937I10476J5906*
G01*
X779273Y293937D01*
X779273Y307717D01*
G74*
D01*
G02X780823Y313622I12026J0*
G01*
G75*
D01*
G02X779273Y319528I10476J5906*
G01*
X779273Y319528D01*
X779273Y333307D01*
G75*
D01*
G02X791299Y345333I12026J0*
G01*
X791299Y345333D01*
X796297Y345333D01*
G75*
D01*
G02X798703Y345333I1203J-17833*
G01*
D02*
G37*
G36*
X747766Y178902D02*
G75*
D01*
G02X747766Y160607I-9147J-9147*
G01*
X747766Y160607D01*
X729393Y142234D01*
G75*
D01*
G02X711098Y142234I-9148J9147*
G01*
X711098Y142234D01*
X694952Y158380D01*
G75*
D01*
G02X694952Y176675I9147J9147*
G01*
X694952Y176675D01*
X713325Y195048D01*
G75*
D01*
G02X731620Y195048I9148J-9147*
G01*
X731620Y195048D01*
X747766Y178902D01*
D02*
G37*
G36*
X622621Y139803D02*
G75*
D01*
G02X609685Y126867I-12936J0*
G01*
X609685Y126867D01*
X570315Y126867D01*
G75*
D01*
G02X557379Y139803I0J12936*
G01*
X557379Y139803D01*
X557379Y177205D01*
G75*
D01*
G02X570315Y190141I12936J0*
G01*
X570315Y190141D01*
X609685Y190141D01*
G74*
D01*
G02X622621Y177205I0J12936*
G01*
X622621Y177205D01*
X622621Y139803D01*
D02*
G37*
G36*
X779273Y102992D02*
G75*
D01*
G02X791299Y115019I12026J0*
G01*
X791299Y115019D01*
X850354Y115019D01*
G74*
D01*
G02X862381Y102992I0J12027*
G01*
X862381Y102992D01*
X862381Y89213D01*
G75*
D01*
G02X850354Y77186I-12027J0*
G01*
X850354Y77186D01*
X791299Y77186D01*
G75*
D01*
G02X779273Y89213I0J12027*
G01*
X779273Y89213D01*
X779273Y102992D01*
D02*
G37*
G36*
X3375372Y301210D02*
G75*
D01*
G02X3375372Y301210I38622J0*
G01*
D02*
G37*
G36*
X3437588Y238994D02*
G75*
D01*
G02X3437588Y238994I38622J0*
G01*
D02*
G37*
G36*
X3287384Y88790D02*
G75*
D01*
G02X3287384Y88790I38622J0*
G01*
D02*
G37*
%LPD*%
G36*
X1955354Y154482D02*
X1955354Y154482D01*
X1920260Y154482D01*
X1890292Y163916D01*
X1874691Y179517D01*
X1874691Y179517D01*
X1865810Y188398D01*
G75*
D01*
G03X1874646Y185518I8836J12114*
G01*
X1874646Y185518D01*
X1955354Y185518D01*
G75*
D01*
G03X1970348Y200512I0J14994*
G01*
X1970348Y200512D01*
X1970348Y204031D01*
G75*
D01*
G03X1970348Y205969I-17848J969*
G01*
X1970348Y205969D01*
X1970348Y234031D01*
G75*
D01*
G03X1970348Y235969I-17848J969*
G01*
X1970348Y235969D01*
X1970348Y237913D01*
G74*
D01*
G03X1955354Y252907I14994J0*
G01*
X1955354Y252907D01*
X1874646Y252907D01*
G75*
D01*
G03X1859652Y237913I0J-14994*
G01*
X1859652Y237913D01*
X1859652Y235969D01*
G75*
D01*
G03X1859652Y234031I17848J-969*
G01*
X1859652Y234031D01*
X1859652Y205969D01*
G75*
D01*
G03X1859652Y204031I17848J-969*
G01*
X1859652Y204031D01*
X1859652Y200512D01*
G75*
D01*
G03X1862532Y191676I14994J0*
G01*
X1862532Y191676D01*
X1837480Y216729D01*
G74*
D01*
G03X1835460Y218495I14211J14211*
G01*
G74*
D01*
G03X1814252Y227280I23885J27671*
G01*
G74*
D01*
G03X1811575Y227459I2677J19918*
G01*
X1811575Y227459D01*
X1802588Y227459D01*
G75*
D01*
G03X1783480Y213589I0J-20097*
G01*
G74*
D01*
G03X1771095Y198394I4394J16227*
G01*
G74*
D01*
G03X1764646Y196669I1031J16780*
G01*
G74*
D01*
G03X1763046Y197185I4646J11669*
G01*
X1763046Y197185D01*
X1743072Y202179D01*
G75*
D01*
G03X1727814Y186954I-3072J-12179*
G01*
X1727814Y186954D01*
X1732716Y167346D01*
G74*
D01*
G03X1724685Y170141I8031J10141*
G01*
X1724685Y170141D01*
X1685315Y170141D01*
G75*
D01*
G03X1672379Y157205I0J-12936*
G01*
X1672379Y157205D01*
X1672379Y119803D01*
G75*
D01*
G03X1685315Y106867I12936J0*
G01*
X1685315Y106867D01*
X1724685Y106867D01*
G74*
D01*
G03X1729927Y107977I0J12936*
G01*
X1729927Y107977D01*
X1729927Y102894D01*
G74*
D01*
G03X1727047Y103316I2880J9626*
G01*
X1727047Y103316D01*
X1708937Y103316D01*
G75*
D01*
G03X1698889Y93268I0J-10048*
G01*
X1698889Y93268D01*
X1698889Y80668D01*
X1650781Y32560D01*
X1635324Y32560D01*
X1651798Y49035D01*
G74*
D01*
G03X1653054Y50500I8881J8882*
G01*
G74*
D01*
G03X1657412Y61022I15167J12446*
G01*
G75*
D01*
G03X1657560Y62946I-12412J1924*
G01*
X1657560Y62946D01*
X1657560Y224797D01*
X1710203Y277440D01*
X2176608Y277440D01*
G75*
D01*
G03X2177574Y277402I966J12560*
G01*
G74*
D01*
G02X2241092Y251092I0J89828*
G01*
G74*
D01*
G03X2241801Y250436I8908J8908*
G01*
X2241801Y250436D01*
X2297440Y194797D01*
X2297440Y167071D01*
G75*
D01*
G03X2297516Y165685I12560J0*
G01*
G74*
D01*
G03X2305192Y147153I29555J1386*
G01*
G74*
D01*
G03X2306118Y146118I9808J7847*
G01*
X2306118Y146118D01*
X2311118Y141118D01*
G74*
D01*
G03X2312153Y140192I8882J8882*
G01*
G74*
D01*
G03X2330685Y132516I19918J21879*
G01*
G75*
D01*
G03X2332071Y132440I1386J12484*
G01*
X2332071Y132440D01*
X2345055Y132440D01*
X2358141Y128725D01*
G75*
D01*
G03X2366732Y123889I8591J5212*
G01*
X2366732Y123889D01*
X2383268Y123889D01*
G74*
D01*
G03X2392485Y129935I0J10048*
G01*
G74*
D01*
G03X2395368Y130307I477J15065*
G01*
G74*
D01*
G03X2401926Y133650I3360J14693*
G01*
X2401926Y133650D01*
X2401926Y124232D01*
G75*
D01*
G03X2414862Y111296I12936J0*
G01*
X2414862Y111296D01*
X2415941Y111296D01*
X2421098Y106139D01*
G75*
D01*
G03X2438881Y106118I8902J8861*
G01*
X2438881Y106118D01*
X2444059Y111296D01*
X2445342Y111296D01*
G75*
D01*
G03X2456201Y105390I10859J7031*
G01*
X2456201Y105390D01*
X2562500Y105390D01*
G74*
D01*
G03X2569811Y107655I0J12937*
G01*
G74*
D01*
G03X2574389Y103763I10189J7345*
G01*
G75*
D01*
G03X2587536Y104952I5611J11237*
G01*
X2587536Y104952D01*
X2592870Y108952D01*
G74*
D01*
G03X2596475Y111296I7870J16048*
G01*
X2596475Y111296D01*
X2603839Y111296D01*
G75*
D01*
G03X2616775Y124232I0J12936*
G01*
X2616775Y124232D01*
X2616775Y134750D01*
X2631831Y134750D01*
G74*
D01*
G03X2639217Y136684I0J15073*
G01*
X2639217Y136684D01*
X2646063Y136684D01*
G74*
D01*
G03X2650000Y137487I0J10048*
G01*
G75*
D01*
G03X2653937Y136684I3937J9245*
G01*
X2653937Y136684D01*
X2672047Y136684D01*
G75*
D01*
G03X2682096Y146732I0J10048*
G01*
X2682096Y146732D01*
X2682096Y163268D01*
G74*
D01*
G03X2672047Y173316I10049J0*
G01*
X2672047Y173316D01*
X2653937Y173316D01*
G75*
D01*
G03X2650000Y172513I0J-10048*
G01*
G74*
D01*
G03X2646063Y173316I3937J9245*
G01*
X2646063Y173316D01*
X2642090Y173316D01*
X2636546Y176613D01*
G74*
D01*
G03X2631445Y180288I20885J23616*
G01*
G74*
D01*
G03X2636168Y183674I21622J35138*
G01*
X2636168Y183674D01*
X2648091Y186867D01*
X2654602Y186867D01*
X2673691Y177888D01*
X2755704Y95875D01*
G74*
D01*
G03X2757807Y94045I14211J14210*
G01*
G74*
D01*
G03X2777701Y85805I22674J26606*
G01*
G75*
D01*
G03X2780481Y85612I2780J19904*
G01*
X2780481Y85612D01*
X2787415Y85612D01*
G75*
D01*
G03X2797008Y81355I9593J8679*
G01*
X2797008Y81355D01*
X2822992Y81355D01*
G74*
D01*
G03X2832169Y85174I0J12936*
G01*
X2832169Y85174D01*
X2834663Y85286D01*
G75*
D01*
G03X2849980Y75725I15317J7490*
G01*
X2849980Y75725D01*
X2861791Y75725D01*
G75*
D01*
G03X2878842Y92776I0J17051*
G01*
X2878842Y92776D01*
X2878842Y94232D01*
G74*
D01*
G03X2884383Y88766I11158J5768*
G01*
X2884383Y88766D01*
X2892560Y84677D01*
X2892678Y84558D01*
X2892678Y74075D01*
G75*
D01*
G03X2894773Y67292I12027J0*
G01*
G75*
D01*
G03X2901028Y48084I10227J-7292*
G01*
X2901028Y48084D01*
X2907747Y45844D01*
G74*
D01*
G03X2912309Y44324I7253J14156*
G01*
X2912309Y44324D01*
X2916028Y43084D01*
G74*
D01*
G03X2918444Y42536I3972J11916*
G01*
G75*
D01*
G03X2925000Y43478I1556J12464*
G01*
G74*
D01*
G03X2926065Y43072I5000J11522*
G01*
G75*
D01*
G03X2930000Y42440I3935J11928*
G01*
X2930000Y42440D01*
X2932385Y42440D01*
G75*
D01*
G03X2942615Y42440I5115J15060*
G01*
X2942615Y42440D01*
X2944975Y42440D01*
G75*
D01*
G03X2955716Y48447I25J12560*
G01*
G75*
D01*
G03X2954460Y63263I-10716J6553*
G01*
G74*
D01*
G03X2954508Y63287I5267J10812*
G01*
G75*
D01*
G03X2959823Y62048I5315J10788*
G01*
X2959823Y62048D01*
X2962972Y62048D01*
G74*
D01*
G03X2968287Y63287I0J12027*
G01*
G74*
D01*
G03X2970880Y62361I5315J10788*
G01*
X2970880Y62361D01*
X2968089Y53988D01*
G75*
D01*
G03X2972274Y40097I11911J-3988*
G01*
X2972274Y40097D01*
X2878324Y40097D01*
X2844234Y74187D01*
G74*
D01*
G03X2830000Y80097I14234J14187*
G01*
X2830000Y80097D01*
X2738473Y80097D01*
G74*
D01*
G03X2725709Y90928I12764J2105*
G01*
X2725709Y90928D01*
X2702874Y90928D01*
G75*
D01*
G03X2695000Y88256I0J-12936*
G01*
G74*
D01*
G03X2687126Y90928I7874J10264*
G01*
X2687126Y90928D01*
X2664291Y90928D01*
G75*
D01*
G03X2651355Y77992I0J-12936*
G01*
X2651355Y77992D01*
X2651355Y52008D01*
G75*
D01*
G03X2651497Y50097I12936J0*
G01*
X2651497Y50097D01*
X2284140Y50097D01*
X2277621Y65402D01*
X2277621Y87205D01*
G74*
D01*
G03X2266590Y100000I12936J0*
G01*
G75*
D01*
G03X2277621Y112795I-1905J12795*
G01*
X2277621Y112795D01*
X2277621Y150197D01*
G74*
D01*
G03X2264685Y163133I12936J0*
G01*
X2264685Y163133D01*
X2225315Y163133D01*
G75*
D01*
G03X2213028Y154244I0J-12936*
G01*
G74*
D01*
G03X2210077Y159528I14367J4559*
G01*
G75*
D01*
G03X2213734Y169370I-11416J9842*
G01*
X2213734Y169370D01*
X2213734Y208740D01*
G74*
D01*
G03X2198661Y223813I15073J0*
G01*
X2198661Y223813D01*
X2139606Y223813D01*
G75*
D01*
G03X2124534Y208740I0J-15073*
G01*
X2124534Y208740D01*
X2124534Y181213D01*
G74*
D01*
G03X2098268Y188551I26266J43339*
G01*
X2098268Y188551D01*
X2023465Y188551D01*
G75*
D01*
G03X1974505Y150957I0J-50677*
G01*
X1974505Y150957D01*
X1965012Y150957D01*
G74*
D01*
G03X1955354Y154482I9658J11469*
G01*
D02*
G37*
G36*
X2960000Y155000D02*
G75*
D01*
G03X2965000Y150000I5000J0*
G01*
X2965000Y150000D01*
X2985000Y150000D01*
G75*
D01*
G03X2990000Y155000I0J5000*
G01*
G74*
D01*
G03X2985000Y160000I5000J0*
G01*
X2985000Y160000D01*
X2965000Y160000D01*
G75*
D01*
G03X2960000Y155000I0J-5000*
G01*
D02*
G37*
G36*
X1737298Y160078D02*
G74*
D01*
G02X1737593Y158067I12613J2873*
G01*
G74*
D01*
G02X1739194Y158862I7461J13013*
G01*
G74*
D01*
G02X1737298Y160078I5806J11138*
G01*
D02*
G37*
G54D11*
X2960000Y155000D02*
G75*
D01*
G03X2965000Y150000I5000J0*
G01*
X2985000Y150000D01*
G75*
D01*
G03X2990000Y155000I0J5000*
G01*
G74*
D01*
G03X2985000Y160000I5000J0*
G01*
X2965000Y160000D01*
G75*
D01*
G03X2960000Y155000I0J-5000*
G01*
X296234Y80617D02*
X306251Y71437D01*
X317030Y63166D01*
X328490Y55866D01*
X340541Y49592D01*
X353094Y44393D01*
X366052Y40307D01*
X379317Y37366D01*
X392788Y35593D01*
X406362Y35000D01*
G36*
X180974Y145877D02*
X180974Y145877D01*
X149622Y158673D01*
X168177Y177229D01*
X180974Y145877D01*
D02*
G37*
X149622Y158673D01*
X168177Y177229D01*
X180974Y145877D01*
G36*
X230974Y145877D02*
X230974Y145877D01*
X199622Y158673D01*
X218177Y177229D01*
X230974Y145877D01*
D02*
G37*
X199622Y158673D01*
X218177Y177229D01*
X230974Y145877D01*
G36*
X1772126Y77199D02*
X1772126Y77199D01*
X1761668Y102820D01*
X1772774Y104865D01*
X1772126Y77199D01*
D02*
G37*
X1761668Y102820D01*
X1772774Y104865D01*
X1772126Y77199D01*
G36*
X1772126Y101113D02*
X1772126Y101113D01*
X1780497Y74737D01*
X1769263Y73589D01*
X1772126Y101113D01*
D02*
G37*
X1780497Y74737D01*
X1769263Y73589D01*
X1772126Y101113D01*
G36*
X2906280Y88524D02*
X2906280Y88524D01*
X2907315Y80108D01*
X2905244Y80108D01*
X2906280Y88524D01*
D02*
G37*
X2907315Y80108D01*
X2905244Y80108D01*
X2906280Y88524D01*
G36*
X2961398Y93524D02*
X2961398Y93524D01*
X2962438Y80061D01*
X2960357Y80061D01*
X2961398Y93524D01*
D02*
G37*
X2962438Y80061D01*
X2960357Y80061D01*
X2961398Y93524D01*
G36*
X2947618Y103524D02*
X2947618Y103524D01*
X2948660Y80027D01*
X2946576Y80027D01*
X2947618Y103524D01*
D02*
G37*
X2948660Y80027D01*
X2946576Y80027D01*
X2947618Y103524D01*
G36*
X2933839Y58937D02*
X2933839Y58937D01*
X2932797Y79929D01*
X2934881Y79929D01*
X2933839Y58937D01*
D02*
G37*
X2932797Y79929D01*
X2934881Y79929D01*
X2933839Y58937D01*
G36*
X2920059Y61437D02*
X2920059Y61437D01*
X2919017Y79922D01*
X2921101Y79922D01*
X2920059Y61437D01*
D02*
G37*
X2919017Y79922D01*
X2921101Y79922D01*
X2920059Y61437D01*
G36*
X2988957Y61437D02*
X2988957Y61437D01*
X2987915Y79922D01*
X2989998Y79922D01*
X2988957Y61437D01*
D02*
G37*
X2987915Y79922D01*
X2989998Y79922D01*
X2988957Y61437D01*
G36*
X1772126Y126181D02*
X1772126Y126181D01*
X1770692Y150032D01*
X1773560Y150032D01*
X1772126Y126181D01*
D02*
G37*
X1770692Y150032D01*
X1773560Y150032D01*
X1772126Y126181D01*
G36*
X1792992Y133268D02*
X1792992Y133268D01*
X1798639Y106177D01*
X1787346Y106177D01*
X1792992Y133268D01*
D02*
G37*
X1798639Y106177D01*
X1787346Y106177D01*
X1792992Y133268D01*
G36*
X1772126Y132801D02*
X1772126Y132801D01*
X1772774Y105135D01*
X1761668Y107180D01*
X1772126Y132801D01*
D02*
G37*
X1772774Y105135D01*
X1761668Y107180D01*
X1772126Y132801D01*
G36*
X2346804Y145000D02*
X2346804Y145000D01*
X2374227Y148708D01*
X2373425Y137444D01*
X2346804Y145000D01*
D02*
G37*
X2374227Y148708D01*
X2373425Y137444D01*
X2346804Y145000D01*
G36*
X2890172Y171954D02*
X2890172Y171954D01*
X2907008Y155530D01*
X2905488Y154104D01*
X2890172Y171954D01*
D02*
G37*
X2907008Y155530D01*
X2905488Y154104D01*
X2890172Y171954D01*
G36*
X2947618Y161327D02*
X2947618Y161327D01*
X2948648Y154950D01*
X2946588Y154950D01*
X2947618Y161327D01*
D02*
G37*
X2948648Y154950D01*
X2946588Y154950D01*
X2947618Y161327D01*
G36*
X2933839Y168327D02*
X2933839Y168327D01*
X2934879Y154864D01*
X2932798Y154864D01*
X2933839Y168327D01*
D02*
G37*
X2934879Y154864D01*
X2932798Y154864D01*
X2933839Y168327D01*
G36*
X2920059Y165827D02*
X2920059Y165827D01*
X2921098Y154882D01*
X2919020Y154882D01*
X2920059Y165827D01*
D02*
G37*
X2921098Y154882D01*
X2919020Y154882D01*
X2920059Y165827D01*
G36*
X1794193Y203682D02*
X1794193Y203682D01*
X1789040Y196523D01*
X1787034Y198529D01*
X1794193Y203682D01*
D02*
G37*
X1789040Y196523D01*
X1787034Y198529D01*
X1794193Y203682D01*
G36*
X2869016Y193110D02*
X2869016Y193110D01*
X2833877Y192385D01*
X2845642Y219357D01*
X2869016Y193110D01*
D02*
G37*
X2833877Y192385D01*
X2845642Y219357D01*
X2869016Y193110D01*
G36*
X2984291Y211976D02*
X2984291Y211976D01*
X2982240Y239573D01*
X2993436Y238094D01*
X2984291Y211976D01*
D02*
G37*
X2982240Y239573D01*
X2993436Y238094D01*
X2984291Y211976D01*
G36*
X2984291Y233917D02*
X2984291Y233917D01*
X2992774Y207750D01*
X2975809Y207750D01*
X2984291Y233917D01*
D02*
G37*
X2992774Y207750D01*
X2975809Y207750D01*
X2984291Y233917D01*
X1642917Y57917D02*
X1643336Y58374D01*
X1643714Y58866D01*
X1644047Y59390D01*
X1644334Y59940D01*
X1644571Y60514D01*
X1644758Y61105D01*
X1644892Y61711D01*
X1644973Y62326D01*
X1645000Y62946D01*
X1645000Y62946D01*
X1617054Y35000D02*
X1617674Y35027D01*
X1618289Y35108D01*
X1618895Y35242D01*
X1619486Y35429D01*
X1620060Y35666D01*
X1620610Y35953D01*
X1621134Y36286D01*
X1621626Y36664D01*
X1622083Y37083D01*
X1652330Y20000D02*
X1653099Y20034D01*
X1653862Y20134D01*
X1654613Y20301D01*
X1655347Y20532D01*
X1656058Y20826D01*
X1656741Y21182D01*
X1657390Y21595D01*
X1658000Y22064D01*
X1658568Y22584D01*
X1796785Y161955D02*
X1797214Y161562D01*
X1797676Y161207D01*
X1798167Y160894D01*
X1798684Y160625D01*
X1799222Y160403D01*
X1799778Y160227D01*
X1800346Y160101D01*
X1800924Y160025D01*
X1801505Y160000D01*
X1792992Y142587D02*
X1792970Y143095D01*
X1792904Y143599D01*
X1792794Y144095D01*
X1792641Y144579D01*
X1792446Y145049D01*
X1792212Y145500D01*
X1791939Y145928D01*
X1791629Y146331D01*
X1791286Y146706D01*
X2320000Y150000D02*
X2321098Y148994D01*
X2322279Y148087D01*
X2323536Y147287D01*
X2324857Y146599D01*
X2326232Y146030D01*
X2327653Y145582D01*
X2329107Y145259D01*
X2330583Y145065D01*
X2332071Y145000D01*
X2310000Y167071D02*
X2310065Y165583D01*
X2310259Y164107D01*
X2310582Y162653D01*
X2311029Y161232D01*
X2311599Y159856D01*
X2312287Y158536D01*
X2313087Y157279D01*
X2313994Y156098D01*
X2315000Y155000D01*
X2950298Y168833D02*
X2949759Y168245D01*
X2949273Y167612D01*
X2948844Y166938D01*
X2948475Y166230D01*
X2948170Y165493D01*
X2947930Y164732D01*
X2947757Y163952D01*
X2947653Y163161D01*
X2947618Y162364D01*
X1647500Y232500D02*
X1646997Y231951D01*
X1646544Y231360D01*
X1646144Y230732D01*
X1645800Y230072D01*
X1645515Y229384D01*
X1645291Y228674D01*
X1645130Y227947D01*
X1645032Y227208D01*
X1645000Y226464D01*
X1802588Y207362D02*
X1801596Y207319D01*
X1800612Y207189D01*
X1799642Y206974D01*
X1798696Y206676D01*
X1797778Y206296D01*
X1796898Y205837D01*
X1796060Y205304D01*
X1795273Y204700D01*
X1794541Y204029D01*
X2310000Y196667D02*
X2309969Y197368D01*
X2309878Y198064D01*
X2309726Y198749D01*
X2309515Y199419D01*
X2309246Y200068D01*
X2308922Y200690D01*
X2308545Y201282D01*
X2308117Y201839D01*
X2307643Y202357D01*
X2895000Y221903D02*
X2895063Y220450D01*
X2895253Y219009D01*
X2895568Y217590D01*
X2896005Y216203D01*
X2896561Y214860D01*
X2897233Y213570D01*
X2898014Y212344D01*
X2898899Y211191D01*
X2899881Y210119D01*
X2933839Y169035D02*
X2933773Y170535D01*
X2933577Y172023D01*
X2933252Y173488D01*
X2932801Y174919D01*
X2932227Y176306D01*
X2931534Y177637D01*
X2930727Y178903D01*
X2929814Y180094D01*
X2928800Y181200D01*
X2920059Y167556D02*
X2920037Y168058D01*
X2919972Y168556D01*
X2919863Y169046D01*
X2919712Y169525D01*
X2919520Y169989D01*
X2919288Y170435D01*
X2919018Y170858D01*
X2918712Y171257D01*
X2918373Y171627D01*
X1708536Y290000D02*
X1707792Y289968D01*
X1707053Y289870D01*
X1706326Y289709D01*
X1705616Y289485D01*
X1704928Y289200D01*
X1704268Y288856D01*
X1703640Y288456D01*
X1703049Y288003D01*
X1702500Y287500D01*
X2250000Y260000D02*
X2243412Y266037D01*
X2236323Y271476D01*
X2228787Y276277D01*
X2220861Y280403D01*
X2212605Y283823D01*
X2204084Y286510D01*
X2195360Y288444D01*
X2186501Y289610D01*
X2177574Y290000D01*
X2177574Y290000D01*
X256234Y70617D02*
X267349Y60431D01*
X279310Y51254D01*
X292025Y43153D01*
X305398Y36192D01*
X319327Y30422D01*
X333705Y25889D01*
X348424Y22625D01*
X363371Y20658D01*
X378433Y20000D01*
X296234Y80617D02*
X205000Y171850D01*
X256234Y70617D02*
X155000Y171850D01*
X1642917Y57917D02*
X1622083Y37083D01*
X1645000Y226464D02*
X1645000Y62946D01*
X1717992Y85000D02*
X1715000Y85000D01*
X1717992Y85000D02*
X1717992Y82008D01*
X1658568Y22584D01*
X1772126Y150118D02*
X1772126Y70866D01*
X1772126Y70866D02*
X1775000Y67992D01*
X2906280Y79980D02*
X2906280Y88720D01*
X2920059Y79980D02*
X2920059Y60059D01*
X2947618Y79980D02*
X2947618Y109882D01*
X2960000Y78583D02*
X2961398Y79980D01*
X2961398Y93898D01*
X2933839Y79980D02*
X2933839Y57500D01*
X2988957Y79980D02*
X2988957Y60000D01*
X1791286Y146706D02*
X1787874Y150118D01*
X1792874Y165866D02*
X1796785Y161955D01*
X1801505Y160000D02*
X1830000Y160000D01*
X1765866Y165866D02*
X1745054Y145054D01*
X1792992Y105000D02*
X1792992Y142587D01*
X2320000Y150000D02*
X2315000Y155000D01*
X2332071Y145000D02*
X2375000Y145000D01*
X2906280Y155846D02*
X2853543Y208583D01*
X2906280Y88720D02*
X2895000Y100000D01*
X2906280Y155846D02*
X2906280Y154783D01*
X2933839Y154783D02*
X2933839Y169035D01*
X2947618Y154783D02*
X2947618Y162364D01*
X2920059Y154783D02*
X2920059Y167556D01*
X2961398Y93898D02*
X2962500Y95000D01*
X1702500Y287500D02*
X1647500Y232500D01*
X1794541Y204029D02*
X1787874Y197362D01*
X1772126Y165866D02*
X1765866Y165866D01*
X2307643Y202357D02*
X2250000Y260000D01*
X2310000Y167071D02*
X2310000Y196667D01*
X2928800Y181200D02*
X2899881Y210119D01*
X2895000Y221903D02*
X2895000Y235709D01*
X2853543Y208583D02*
X2833543Y208583D01*
X2982618Y234626D02*
X2984291Y236299D01*
X2984291Y202827D02*
X2950298Y168833D01*
X2918373Y171627D02*
X2915000Y175000D01*
X2984291Y202827D02*
X2984291Y236299D01*
X2177574Y290000D02*
X1708536Y290000D01*
X1617054Y35000D02*
X406297Y35000D01*
X1652330Y20000D02*
X378370Y20000D01*
G36*
X1760000Y185000D02*
X1760000Y185000D01*
X1745000Y170000D01*
X1740000Y190000D01*
X1760000Y185000D01*
D02*
G37*
X1745000Y170000D01*
X1740000Y190000D01*
X1760000Y185000D01*
G36*
X1830000Y165000D02*
X1830000Y165000D01*
X1830000Y150000D01*
X1810000Y160000D01*
X1830000Y165000D01*
D02*
G37*
X1830000Y150000D01*
X1810000Y160000D01*
X1830000Y165000D01*
G36*
X1815000Y185000D02*
X1815000Y185000D01*
X1815000Y175000D01*
X1795000Y180000D01*
X1815000Y185000D01*
D02*
G37*
X1815000Y175000D01*
X1795000Y180000D01*
X1815000Y185000D01*
G36*
X1310000Y70000D02*
X1310000Y70000D01*
X1305000Y60000D01*
X1285000Y70000D01*
X1310000Y70000D01*
D02*
G37*
X1305000Y60000D01*
X1285000Y70000D01*
X1310000Y70000D01*
G36*
X1470000Y70000D02*
X1470000Y70000D01*
X1450000Y60000D01*
X1445000Y70000D01*
X1470000Y70000D01*
D02*
G37*
X1450000Y60000D01*
X1445000Y70000D01*
X1470000Y70000D01*
G36*
X2440000Y125000D02*
X2440000Y125000D01*
X2430000Y115000D01*
X2420000Y125000D01*
X2440000Y125000D01*
D02*
G37*
X2430000Y115000D01*
X2420000Y125000D01*
X2440000Y125000D01*
G36*
X2600000Y130000D02*
X2600000Y130000D01*
X2580000Y115000D01*
X2575000Y130000D01*
X2600000Y130000D01*
D02*
G37*
X2580000Y115000D01*
X2575000Y130000D01*
X2600000Y130000D01*
G36*
X2920000Y170000D02*
X2920000Y170000D01*
X2905000Y175000D01*
X2910000Y185000D01*
X2920000Y170000D01*
D02*
G37*
X2905000Y175000D01*
X2910000Y185000D01*
X2920000Y170000D01*
G36*
X2900000Y95000D02*
X2900000Y95000D01*
X2890000Y100000D01*
X2900000Y110000D01*
X2900000Y95000D01*
D02*
G37*
X2890000Y100000D01*
X2900000Y110000D01*
X2900000Y95000D01*
G36*
X2950000Y100000D02*
X2950000Y100000D01*
X2935000Y115000D01*
X2955000Y120000D01*
X2950000Y100000D01*
D02*
G37*
X2935000Y115000D01*
X2955000Y120000D01*
X2950000Y100000D01*
G36*
X2970000Y95000D02*
X2970000Y95000D01*
X2960000Y90000D01*
X2965000Y105000D01*
X2970000Y95000D01*
D02*
G37*
X2960000Y90000D01*
X2965000Y105000D01*
X2970000Y95000D01*
G36*
X2995000Y60000D02*
X2995000Y60000D01*
X2980000Y50000D01*
X2985000Y65000D01*
X2995000Y60000D01*
D02*
G37*
X2980000Y50000D01*
X2985000Y65000D01*
X2995000Y60000D01*
G36*
X2920000Y55000D02*
X2920000Y55000D01*
X2905000Y60000D01*
X2920000Y65000D01*
X2920000Y55000D01*
D02*
G37*
X2905000Y60000D01*
X2920000Y65000D01*
X2920000Y55000D01*
G36*
X2945000Y55000D02*
X2945000Y55000D01*
X2930000Y55000D01*
X2935000Y65000D01*
X2945000Y55000D01*
D02*
G37*
X2930000Y55000D01*
X2935000Y65000D01*
X2945000Y55000D01*
X-10000Y-206850D02*
X-10000Y-145795D01*
X-10000Y-206850D02*
X346331Y-206850D01*
X3553307Y-206850D02*
X3196976Y-206850D01*
X3553307Y-206850D02*
X3553307Y-145795D01*
X3553307Y403701D02*
X3553307Y342646D01*
X3553307Y403701D02*
X3196976Y403701D01*
X-10000Y403701D02*
X346331Y403701D01*
X-10000Y403701D02*
X-10000Y342646D01*
X-206850Y-206850D02*
X-600551Y-206850D01*
X-403701Y-403701D02*
X-403701Y-10000D01*
X-551339Y-206850D02*
G75*
D01*
G02X-551339Y-206850I147638J0*
G01*
X3750157Y-206850D02*
X4143858Y-206850D01*
X3947008Y-403701D02*
X3947008Y-10000D01*
X3799370Y-206850D02*
G75*
D01*
G02X3799370Y-206850I147638J0*
G01*
X3897795Y-206850D02*
G75*
D01*
G02X3897795Y-206850I49213J0*
G01*
X-206850Y403701D02*
X-600551Y403701D01*
X-403701Y206850D02*
X-403701Y600551D01*
X-551339Y403701D02*
G75*
D01*
G02X-551339Y403701I147638J0*
G01*
X-502126Y403701D02*
G75*
D01*
G02X-502126Y403701I98425J0*
G01*
X-452913Y403701D02*
G75*
D01*
G02X-452913Y403701I49212J0*
G01*
X-10000Y-206850D02*
X-10000Y-145795D01*
X-10000Y-206850D02*
X346331Y-206850D01*
X3553307Y-206850D02*
X3196976Y-206850D01*
X3553307Y-206850D02*
X3553307Y-145795D01*
X3553307Y403701D02*
X3553307Y342646D01*
X3553307Y403701D02*
X3196976Y403701D01*
X-10000Y403701D02*
X346331Y403701D01*
X-10000Y403701D02*
X-10000Y342646D01*
X-206850Y-206850D02*
X-600551Y-206850D01*
X-403701Y-403701D02*
X-403701Y-10000D01*
X-551339Y-206850D02*
G75*
D01*
G02X-551339Y-206850I147638J0*
G01*
X3750157Y-206850D02*
X4143858Y-206850D01*
X3947008Y-403701D02*
X3947008Y-10000D01*
X3799370Y-206850D02*
G75*
D01*
G02X3799370Y-206850I147638J0*
G01*
X3897795Y-206850D02*
G75*
D01*
G02X3897795Y-206850I49213J0*
G01*
X-206850Y403701D02*
X-600551Y403701D01*
X-403701Y206850D02*
X-403701Y600551D01*
X-551339Y403701D02*
G75*
D01*
G02X-551339Y403701I147638J0*
G01*
X-502126Y403701D02*
G75*
D01*
G02X-502126Y403701I98425J0*
G01*
X-452913Y403701D02*
G75*
D01*
G02X-452913Y403701I49212J0*
G01*
G54D12*
X1303261Y47560D02*
G74*
D01*
G02X1299359Y48777I1739J12440*
G01*
X1284297Y56308D01*
G75*
D01*
G02X1271926Y69232I565J12924*
G01*
X1271926Y70871D01*
G74*
D01*
G02X1261371Y68046I12503J25585*
G01*
G74*
D01*
G02X1259423Y67920I1948J14946*
G01*
X1204388Y67920D01*
X1190306Y65781D01*
G74*
D01*
G02X1183268Y62904I7038J7172*
G01*
X1166732Y62904D01*
G75*
D01*
G02X1156684Y72953I0J10049*
G01*
X1156684Y91063D01*
G75*
D01*
G02X1166732Y101111I10048J0*
G01*
X1183268Y101111D01*
G74*
D01*
G02X1188784Y99462I0J10048*
G01*
G75*
D01*
G02X1186355Y107008I10507J7546*
G01*
X1186355Y132992D01*
G75*
D01*
G02X1199291Y145928I12936J0*
G01*
X1222126Y145928D01*
G74*
D01*
G02X1230000Y143256I0J12936*
G01*
G75*
D01*
G02X1237874Y145928I7874J-10264*
G01*
X1260709Y145928D01*
G74*
D01*
G02X1273639Y133389I0J12936*
G01*
X1278257Y131537D01*
G75*
D01*
G02X1284862Y133350I6605J-11124*
G01*
X1313264Y133350D01*
X1313264Y185374D01*
G75*
D01*
G02X1326201Y198310I12937J0*
G01*
X1432500Y198310D01*
G74*
D01*
G02X1443359Y192405I0J12936*
G01*
X1469903Y192405D01*
X1469903Y201676D01*
X1416676Y254903D01*
X1332317Y254903D01*
G74*
D01*
G02X1331667Y254893I650J20097*
G01*
G75*
D01*
G03X1266220Y227784I0J-92556*
G01*
G74*
D01*
G02X1265752Y227331I14218J14218*
G01*
X1143525Y105104D01*
G74*
D01*
G02X1133519Y99644I14234J14187*
G01*
G74*
D01*
G02X1135928Y92126I10527J7518*
G01*
X1135928Y69291D01*
G75*
D01*
G02X1122992Y56355I-12936J0*
G01*
X1097008Y56355D01*
G75*
D01*
G02X1084072Y69291I0J12936*
G01*
X1084072Y78452D01*
G74*
D01*
G02X1078701Y77186I5371J10761*
G01*
X1019646Y77186D01*
G75*
D01*
G02X1007619Y89213I0J12027*
G01*
X1007619Y102992D01*
G74*
D01*
G02X1009169Y108898I12027J0*
G01*
G75*
D01*
G02X1007619Y114803I10477J5905*
G01*
X1007619Y128583D01*
G74*
D01*
G02X1009169Y134488I12027J0*
G01*
G75*
D01*
G02X1007619Y140394I10477J5906*
G01*
X1007619Y154173D01*
G74*
D01*
G02X1009169Y160079I12027J0*
G01*
G75*
D01*
G02X1007619Y165984I10477J5905*
G01*
X1007619Y179764D01*
G74*
D01*
G02X1009169Y185669I12027J0*
G01*
G75*
D01*
G02X1007619Y191575I10477J5906*
G01*
X1007619Y205354D01*
G74*
D01*
G02X1009169Y211260I12027J0*
G01*
G75*
D01*
G02X1007619Y217165I10477J5905*
G01*
X1007619Y230945D01*
G74*
D01*
G02X1009169Y236850I12027J0*
G01*
G75*
D01*
G02X1007619Y242756I10477J5906*
G01*
X1007619Y256535D01*
G74*
D01*
G02X1009169Y262441I12027J0*
G01*
G75*
D01*
G02X1007619Y268346I10477J5905*
G01*
X1007619Y282126D01*
G74*
D01*
G02X1009169Y288031I12027J0*
G01*
G75*
D01*
G02X1007619Y293937I10477J5906*
G01*
X1007619Y307717D01*
G74*
D01*
G02X1009169Y313622I12027J0*
G01*
G75*
D01*
G02X1007619Y319528I10477J5906*
G01*
X1007619Y333307D01*
G75*
D01*
G02X1019646Y345333I12027J0*
G01*
X1078701Y345333D01*
G74*
D01*
G02X1085127Y343472I0J12026*
G01*
X1090273Y344748D01*
G75*
D01*
G02X1097953Y348316I7680J-6480*
G01*
X1116063Y348316D01*
G74*
D01*
G02X1120000Y347513I0J10048*
G01*
G75*
D01*
G02X1123937Y348316I3937J-9245*
G01*
X1142047Y348316D01*
G74*
D01*
G02X1152096Y338268I0J10048*
G01*
X1152096Y321732D01*
G75*
D01*
G02X1142047Y311684I-10049J0*
G01*
X1123937Y311684D01*
G75*
D01*
G02X1120000Y312487I0J10048*
G01*
G74*
D01*
G02X1116063Y311684I3937J9245*
G01*
X1107895Y311684D01*
G74*
D01*
G02X1107214Y311661I851J15048*
G01*
X1106455Y311652D01*
G74*
D01*
G02X1103425Y311345I3030J14765*
G01*
X1090167Y311345D01*
G74*
D01*
G02X1090727Y307717I11466J3628*
G01*
X1090727Y293937D01*
G75*
D01*
G02X1089177Y288031I-12026J0*
G01*
G74*
D01*
G02X1090727Y282126I10476J5905*
G01*
X1090727Y268346D01*
G75*
D01*
G02X1089177Y262441I-12026J0*
G01*
G74*
D01*
G02X1090727Y256535I10476J5906*
G01*
X1090727Y242756D01*
G75*
D01*
G02X1089177Y236850I-12026J0*
G01*
G74*
D01*
G02X1090727Y230945I10476J5905*
G01*
X1090727Y217165D01*
G75*
D01*
G02X1089177Y211260I-12026J0*
G01*
G74*
D01*
G02X1090727Y205354I10476J5906*
G01*
X1090727Y191575D01*
G75*
D01*
G02X1089177Y185669I-12026J0*
G01*
G74*
D01*
G02X1090727Y179764I10476J5905*
G01*
X1090727Y165984D01*
G75*
D01*
G02X1089177Y160079I-12026J0*
G01*
G74*
D01*
G02X1090727Y154173I10476J5906*
G01*
X1090727Y142018D01*
G75*
D01*
G02X1097008Y143645I6281J-11309*
G01*
X1122992Y143645D01*
G74*
D01*
G02X1125058Y143479I0J12936*
G01*
X1237332Y255753D01*
G74*
D01*
G02X1237784Y256220I14670J13751*
G01*
G75*
D01*
G02X1331667Y295107I93883J-93883*
G01*
G74*
D01*
G02X1332317Y295097I0J20107*
G01*
X1417340Y295097D01*
G74*
D01*
G02X1419909Y294932I0J20097*
G01*
G74*
D01*
G02X1442695Y285493I2569J38426*
G01*
G74*
D01*
G02X1444627Y283794I12278J15910*
G01*
X1497405Y231016D01*
G75*
D01*
G02X1510315Y243133I12910J-819*
G01*
X1549685Y243133D01*
G74*
D01*
G02X1562621Y230197I0J12936*
G01*
X1562621Y192795D01*
G75*
D01*
G02X1562482Y190903I-12936J0*
G01*
X1584903Y213324D01*
X1584903Y255417D01*
G74*
D01*
G02X1585146Y258528I20097J0*
G01*
G74*
D01*
G02X1592001Y275079I30919J3111*
G01*
G74*
D01*
G02X1594030Y277451I16240J11838*
G01*
X1644123Y327544D01*
G74*
D01*
G02X1644629Y328032I14210J14211*
G01*
G74*
D01*
G02X1722011Y360084I78083J79078*
G01*
G75*
D01*
G02X1722712Y360097I701J-20084*
G01*
X2686058Y360097D01*
G74*
D01*
G02X2688741Y359917I0J20097*
G01*
G74*
D01*
G02X2709880Y351161I2683J36372*
G01*
G74*
D01*
G02X2711904Y349391I12186J15981*
G01*
X2730109Y331186D01*
G74*
D01*
G02X2731760Y329316I14210J14211*
G01*
G74*
D01*
G02X2741733Y305245I30087J26567*
G01*
G74*
D01*
G02X2741758Y305222I8741J9536*
G01*
X2743057Y305422D01*
G75*
D01*
G02X2757756Y317159I14699J-3335*
G01*
X2795157Y317159D01*
G74*
D01*
G02X2805000Y313502I0J15072*
G01*
G75*
D01*
G02X2814843Y317159I9843J-11415*
G01*
X2852244Y317159D01*
G74*
D01*
G02X2867317Y302087I0J15072*
G01*
X2867317Y281716D01*
X2869072Y278909D01*
X2869072Y285709D01*
G75*
D01*
G02X2882008Y298645I12936J0*
G01*
X2907992Y298645D01*
G74*
D01*
G02X2920928Y285709I0J12936*
G01*
X2920928Y262874D01*
G75*
D01*
G02X2920627Y260097I-12936J0*
G01*
X2926116Y260097D01*
G75*
D01*
G02X2926129Y260097I7J-20097*
G01*
X2962008Y260097D01*
G74*
D01*
G02X2970278Y258316I0J20097*
G01*
X2971063Y258316D01*
G74*
D01*
G02X2975000Y257513I0J10048*
G01*
G75*
D01*
G02X2978937Y258316I3937J-9245*
G01*
X2997047Y258316D01*
G74*
D01*
G02X3007096Y248268I0J10048*
G01*
X3007096Y231732D01*
G75*
D01*
G02X3005554Y226384I-10049J0*
G01*
G74*
D01*
G02X3008645Y217992I9845J8392*
G01*
X3008645Y192008D01*
G75*
D01*
G02X2995709Y179072I-12936J0*
G01*
X2978299Y179072D01*
X2971991Y172763D01*
G74*
D01*
G02X2972645Y172677I1991J17763*
G01*
G75*
D01*
G02X2973602Y172715I957J-11988*
G01*
X2976752Y172715D01*
G74*
D01*
G02X2979018Y172500I0J12026*
G01*
X2983863Y172500D01*
G75*
D01*
G02X2989876Y172715I3637J-17500*
G01*
X2990531Y172715D01*
G74*
D01*
G02X3000815Y166924I0J12026*
G01*
G75*
D01*
G02X3001438Y143810I-13315J-11924*
G01*
G74*
D01*
G02X2990531Y136852I10907J5068*
G01*
X2987382Y136852D01*
G75*
D01*
G02X2983486Y137500I0J12026*
G01*
X2980648Y137500D01*
G74*
D01*
G02X2976752Y136852I3896J11378*
G01*
X2973602Y136852D01*
G75*
D01*
G02X2970937Y137151I0J12026*
G01*
G75*
D01*
G02X2966679Y137437I-937J17849*
G01*
G74*
D01*
G02X2962972Y136852I3707J11441*
G01*
X2959823Y136852D01*
G75*
D01*
G02X2954508Y138090I0J12026*
G01*
G74*
D01*
G02X2949193Y136852I5315J10788*
G01*
X2946043Y136852D01*
G75*
D01*
G02X2940728Y138090I0J12026*
G01*
G74*
D01*
G02X2935413Y136852I5315J10788*
G01*
X2932264Y136852D01*
G75*
D01*
G02X2926949Y138090I0J12026*
G01*
G74*
D01*
G02X2921634Y136852I5315J10788*
G01*
X2918484Y136852D01*
G75*
D01*
G02X2913169Y138090I0J12026*
G01*
G74*
D01*
G02X2907854Y136852I5315J10788*
G01*
X2904705Y136852D01*
G75*
D01*
G02X2892678Y148878I0J12026*
G01*
X2892678Y149744D01*
X2880951Y163411D01*
X2864795Y179568D01*
G74*
D01*
G02X2852244Y172841I12551J8345*
G01*
X2814843Y172841D01*
G75*
D01*
G02X2805000Y176498I0J15072*
G01*
G74*
D01*
G02X2795157Y172841I9843J11415*
G01*
X2757756Y172841D01*
G75*
D01*
G02X2742683Y187913I0J15072*
G01*
X2742683Y225722D01*
G74*
D01*
G02X2732992Y221355I9691J8569*
G01*
X2707008Y221355D01*
G75*
D01*
G02X2694072Y234291I0J12936*
G01*
X2694072Y257126D01*
G74*
D01*
G02X2696744Y265000I12936J0*
G01*
G75*
D01*
G02X2694072Y272874I10264J7874*
G01*
X2694072Y295709D01*
G74*
D01*
G02X2698770Y305683I12936J0*
G01*
X2684550Y319903D01*
X1722712Y319903D01*
G75*
D01*
G02X1722151Y319911I0J20097*
G01*
G74*
D01*
G03X1672934Y299524I561J70957*
G01*
G74*
D01*
G02X1672544Y299123I14601J13809*
G01*
X1625097Y251676D01*
X1625097Y209583D01*
G75*
D01*
G02X1624854Y206472I-20097J0*
G01*
G74*
D01*
G02X1617998Y189920I30919J3111*
G01*
G74*
D01*
G02X1615970Y187549I16239J11839*
G01*
X1579229Y150808D01*
G74*
D01*
G02X1579205Y150783I14223J14198*
G01*
X1562738Y134317D01*
G74*
D01*
G02X1562621Y134201I14234J14187*
G01*
X1562621Y129803D01*
G75*
D01*
G02X1549685Y116867I-12936J0*
G01*
X1530399Y116867D01*
G74*
D01*
G02X1538316Y107047I2131J9820*
G01*
X1538316Y90169D01*
X1538668Y90166D01*
X1552631Y91791D01*
G75*
D01*
G02X1557953Y93316I5322J-8523*
G01*
X1566365Y93316D01*
G75*
D01*
G02X1566895Y93316I265J-15070*
G01*
X1576063Y93316D01*
G74*
D01*
G02X1580000Y92513I0J10048*
G01*
G75*
D01*
G02X1583937Y93316I3937J-9245*
G01*
X1602047Y93316D01*
G74*
D01*
G02X1612096Y83268I0J10048*
G01*
X1612096Y80217D01*
G75*
D01*
G02X1612096Y69783I-17096J-5217*
G01*
X1612096Y66732D01*
G75*
D01*
G02X1602047Y56684I-10049J0*
G01*
X1583937Y56684D01*
G75*
D01*
G02X1580000Y57487I0J10048*
G01*
G74*
D01*
G02X1576063Y56684I3937J9245*
G01*
X1566895Y56684D01*
G75*
D01*
G02X1566486Y56682I-265J15070*
G01*
G74*
D01*
G02X1566365Y56684I144J15072*
G01*
X1557953Y56684D01*
G75*
D01*
G02X1552631Y58209I0J10048*
G01*
X1545731Y59012D01*
X1536272Y56878D01*
G74*
D01*
G02X1528268Y52904I8004J6075*
G01*
X1511732Y52904D01*
G75*
D01*
G02X1501734Y61950I0J10049*
G01*
X1487082Y76602D01*
G74*
D01*
G02X1486775Y76918I10658J10658*
G01*
X1486775Y69232D01*
G75*
D01*
G02X1473839Y56296I-12936J0*
G01*
X1470678Y56296D01*
X1455617Y48766D01*
G74*
D01*
G02X1451739Y47560I5617J11234*
G01*
X1614797Y47560D01*
X1632440Y65203D01*
X1632440Y226464D01*
G74*
D01*
G02X1632569Y228261I12560J0*
G01*
G74*
D01*
G02X1637439Y240019I20966J1797*
G01*
G74*
D01*
G02X1638618Y241382I10061J7519*
G01*
X1693618Y296382D01*
G74*
D01*
G02X1694981Y297561I8882J8882*
G01*
G74*
D01*
G02X1706739Y302431I13555J16096*
G01*
G75*
D01*
G02X1708536Y302560I1797J-12431*
G01*
X2176608Y302560D01*
G75*
D01*
G02X2177574Y302598I966J-12560*
G01*
G74*
D01*
G02X2258908Y268908I0J115024*
G01*
G74*
D01*
G02X2259564Y268199I8908J8908*
G01*
X2316525Y211239D01*
G74*
D01*
G02X2317728Y209845I8882J8882*
G01*
G74*
D01*
G02X2322100Y200741I15775J13178*
G01*
G75*
D01*
G02X2324291Y200928I2191J-12749*
G01*
X2347126Y200928D01*
G74*
D01*
G02X2355000Y198256I0J12936*
G01*
G75*
D01*
G02X2362874Y200928I7874J-10264*
G01*
X2385709Y200928D01*
G74*
D01*
G02X2398639Y188389I0J12936*
G01*
X2406462Y185251D01*
G75*
D01*
G02X2414862Y188350I8400J-9838*
G01*
X2443264Y188350D01*
X2443264Y240374D01*
G75*
D01*
G02X2456201Y253310I12937J0*
G01*
X2562500Y253310D01*
G74*
D01*
G02X2573359Y247405I0J12936*
G01*
X2585616Y247405D01*
X2587374Y249162D01*
G74*
D01*
G02X2594426Y253139I10657J10658*
G01*
G75*
D01*
G02X2598031Y253576I3605J-14635*
G01*
X2626240Y253576D01*
G75*
D01*
G02X2622379Y262795I9075J9219*
G01*
X2622379Y300197D01*
G75*
D01*
G02X2635315Y313133I12936J0*
G01*
X2674685Y313133D01*
G74*
D01*
G02X2687621Y300197I0J12936*
G01*
X2687621Y262795D01*
G75*
D01*
G02X2676590Y250000I-12936J0*
G01*
G74*
D01*
G02X2687621Y237205I1905J12795*
G01*
X2687621Y223900D01*
X2700397Y208024D01*
X2782616Y125805D01*
X2786174Y125805D01*
G75*
D01*
G02X2784072Y132874I10834J7069*
G01*
X2784072Y155709D01*
G75*
D01*
G02X2797008Y168645I12936J0*
G01*
X2822992Y168645D01*
G74*
D01*
G02X2835928Y155709I0J12936*
G01*
X2835928Y151646D01*
G75*
D01*
G02X2849980Y159039I14052J-9658*
G01*
X2861791Y159039D01*
G74*
D01*
G02X2878842Y141988I0J17051*
G01*
X2878842Y130768D01*
G75*
D01*
G02X2873470Y118345I-17051J0*
G01*
X2873470Y116419D01*
G74*
D01*
G02X2878765Y105616I11679J12423*
G01*
G74*
D01*
G02X2881136Y108899I11235J5616*
G01*
X2891118Y118882D01*
G75*
D01*
G02X2910716Y116553I8882J-8882*
G01*
G74*
D01*
G02X2912560Y110000I10716J6553*
G01*
X2912560Y105115D01*
G75*
D01*
G02X2913393Y99370I-15060J-5115*
G01*
X2915142Y97621D01*
G74*
D01*
G02X2915283Y97478I8862J8901*
G01*
G75*
D01*
G02X2918484Y97912I3201J-11592*
G01*
X2921634Y97912D01*
G74*
D01*
G02X2926949Y96674I0J12026*
G01*
G75*
D01*
G02X2932264Y97912I5315J-10788*
G01*
X2934325Y97912D01*
X2926118Y106118D01*
G75*
D01*
G02X2931969Y127189I8882J8882*
G01*
X2951954Y132185D01*
G75*
D01*
G02X2967278Y117352I3046J-12185*
G01*
G74*
D01*
G02X2976242Y110603I2278J12352*
G01*
X2981234Y100617D01*
G74*
D01*
G02X2982424Y96843I11234J5617*
G01*
G75*
D01*
G02X2987382Y97912I4958J-10957*
G01*
X2990532Y97912D01*
G74*
D01*
G02X3002558Y85886I0J12026*
G01*
X3002558Y80076D01*
G75*
D01*
G02X3002558Y79768I-12560J-154*
G01*
X3002558Y74075D01*
G75*
D01*
G02X3002055Y70635I-12026J0*
G01*
X3002042Y70401D01*
G75*
D01*
G02X3006478Y54899I-7042J-10401*
G01*
X3019254Y67675D01*
X3019254Y83324D01*
G75*
D01*
G02X3016394Y92776I14191J9452*
G01*
X3016394Y103996D01*
G74*
D01*
G02X3019254Y113448I17051J0*
G01*
X3019254Y121316D01*
G75*
D01*
G02X3016394Y130768I14191J9452*
G01*
X3016394Y141988D01*
G75*
D01*
G02X3033445Y159039I17051J0*
G01*
X3045256Y159039D01*
G74*
D01*
G02X3062306Y141988I0J17051*
G01*
X3062306Y130768D01*
G75*
D01*
G02X3059447Y121316I-17050J0*
G01*
X3059447Y113448D01*
G74*
D01*
G02X3062306Y103996I14191J9452*
G01*
X3062306Y92776D01*
G75*
D01*
G02X3059447Y83324I-17050J0*
G01*
X3059447Y63988D01*
G75*
D01*
G02X3059207Y60890I-20097J0*
G01*
G74*
D01*
G02X3052302Y44221I31052J3098*
G01*
G74*
D01*
G02X3050282Y41861I16231J11850*
G01*
X3017490Y9069D01*
G74*
D01*
G02X3015130Y7048I14211J14210*
G01*
G74*
D01*
G02X2998460Y143I19767J24148*
G01*
G74*
D01*
G02X2995363Y-97I3097J19857*
G01*
X2870024Y-97D01*
G75*
D01*
G02X2855789Y5789I-24J20097*
G01*
X2821676Y39903D01*
X2732060Y39903D01*
G74*
D01*
G02X2728478Y35057I17769J9388*
G01*
X2710641Y17220D01*
G75*
D01*
G02X2693779Y11509I-14211J14210*
G01*
G74*
D01*
G02X2685906Y9903I7873J18491*
G01*
X2275029Y9903D01*
G75*
D01*
G02X2260789Y15789I-29J20097*
G01*
X2254074Y22505D01*
X2237521Y36867D01*
X2225315Y36867D01*
G75*
D01*
G02X2212877Y46249I0J12936*
G01*
G74*
D01*
G02X2198661Y36187I14216J5011*
G01*
X2139606Y36187D01*
G75*
D01*
G02X2126741Y43407I0J15073*
G01*
X1815017Y43407D01*
X1804431Y32821D01*
G74*
D01*
G02X1790197Y26911I14234J14187*
G01*
X1780000Y26911D01*
G75*
D01*
G02X1773760Y27904I0J20097*
G01*
X1766732Y27904D01*
G75*
D01*
G02X1756734Y36950I0J10049*
G01*
X1742006Y51678D01*
G74*
D01*
G02X1740997Y52794I10658J10658*
G01*
G74*
D01*
G02X1732026Y68004I30170J28045*
G01*
G74*
D01*
G02X1727047Y66684I4979J8728*
G01*
X1720431Y66684D01*
X1667449Y13702D01*
G74*
D01*
G02X1666106Y12536I8881J8882*
G01*
G74*
D01*
G02X1654105Y7566I13776J16285*
G01*
G74*
D01*
G02X1652330Y7440I1775J12434*
G01*
X380053Y7440D01*
G74*
D01*
G02X378433Y7336I1620J12560*
G01*
G75*
D01*
G02X247278Y61662I0J185480*
G01*
G74*
D01*
G02X246207Y62880I8956J8955*
G01*
X173883Y135204D01*
X160617Y140619D01*
G75*
D01*
G02X130000Y152307I-5617J31231*
G01*
G75*
D01*
G02X80000Y152307I-25000J19543*
G01*
G75*
D01*
G02X35457Y196850I-25000J19543*
G01*
G75*
D01*
G02X80000Y241394I19543J25000*
G01*
G75*
D01*
G02X130000Y241394I25000J-19544*
G01*
G75*
D01*
G02X180000Y241394I25000J-19544*
G01*
G75*
D01*
G02X230000Y241394I25000J-19544*
G01*
G75*
D01*
G02X280000Y241394I25000J-19544*
G01*
G75*
D01*
G02X330000Y241394I25000J-19544*
G01*
G75*
D01*
G02X374543Y196850I25000J-19544*
G01*
G74*
D01*
G02X380000Y191394I19543J25000*
G01*
G75*
D01*
G02X430000Y191394I25000J-19544*
G01*
G75*
D01*
G02X480000Y191394I25000J-19544*
G01*
G75*
D01*
G02X480000Y152307I25000J-19544*
G01*
G75*
D01*
G02X430000Y152307I-25000J19543*
G01*
G75*
D01*
G02X380000Y152307I-25000J19543*
G01*
G75*
D01*
G02X330000Y152307I-25000J19543*
G01*
G75*
D01*
G02X280000Y152307I-25000J19543*
G01*
G75*
D01*
G02X254491Y140122I-25000J19543*
G01*
X304063Y90550D01*
G74*
D01*
G02X305177Y89560I7829J9933*
G01*
G75*
D01*
G03X406362Y47648I101185J101185*
G01*
G74*
D01*
G02X407850Y47560I0J12648*
G01*
X1303261Y47560D01*
X2344072Y237126D02*
G75*
D01*
G02X2357008Y250062I12936J0*
G01*
X2382992Y250062D01*
G74*
D01*
G02X2395928Y237126I0J12936*
G01*
X2395928Y214291D01*
G75*
D01*
G02X2382992Y201355I-12936J0*
G01*
X2357008Y201355D01*
G75*
D01*
G02X2344072Y214291I0J12936*
G01*
X2344072Y237126D01*
X1327874Y199072D02*
G75*
D01*
G02X1314938Y212008I0J12936*
G01*
X1314938Y237992D01*
G75*
D01*
G02X1327874Y250928I12936J0*
G01*
X1350709Y250928D01*
G74*
D01*
G02X1363645Y237992I0J12936*
G01*
X1363645Y212008D01*
G75*
D01*
G02X1350709Y199072I-12936J0*
G01*
X1327874Y199072D01*
X798703Y345333D02*
X818797Y345333D01*
G75*
D01*
G02X821203Y345333I1203J-17833*
G01*
X841297Y345333D01*
G75*
D01*
G02X843703Y345333I1203J-17833*
G01*
X850354Y345333D01*
G74*
D01*
G02X862381Y333307I0J12026*
G01*
X862381Y319528D01*
G75*
D01*
G02X860831Y313622I-12027J0*
G01*
G74*
D01*
G02X862381Y307717I10477J5905*
G01*
X862381Y293937D01*
G75*
D01*
G02X860831Y288031I-12027J0*
G01*
G74*
D01*
G02X862381Y282126I10477J5905*
G01*
X862381Y268346D01*
G75*
D01*
G02X860831Y262441I-12027J0*
G01*
G74*
D01*
G02X862381Y256535I10477J5906*
G01*
X862381Y242756D01*
G75*
D01*
G02X860831Y236850I-12027J0*
G01*
G74*
D01*
G02X862381Y230945I10477J5905*
G01*
X862381Y217165D01*
G75*
D01*
G02X860831Y211260I-12027J0*
G01*
G74*
D01*
G02X862381Y205354I10477J5906*
G01*
X862381Y191575D01*
G75*
D01*
G02X860831Y185669I-12027J0*
G01*
G74*
D01*
G02X862381Y179764I10477J5905*
G01*
X862381Y165984D01*
G75*
D01*
G02X860831Y160079I-12027J0*
G01*
G74*
D01*
G02X862381Y154173I10477J5906*
G01*
X862381Y140394D01*
G75*
D01*
G02X850354Y128367I-12027J0*
G01*
X791299Y128367D01*
G75*
D01*
G02X779273Y140394I0J12027*
G01*
X779273Y154173D01*
G74*
D01*
G02X780823Y160079I12026J0*
G01*
G75*
D01*
G02X779273Y165984I10476J5905*
G01*
X779273Y179764D01*
G74*
D01*
G02X780823Y185669I12026J0*
G01*
G75*
D01*
G02X779273Y191575I10476J5906*
G01*
X779273Y205354D01*
G74*
D01*
G02X780823Y211260I12026J0*
G01*
G75*
D01*
G02X779273Y217165I10476J5905*
G01*
X779273Y230945D01*
G74*
D01*
G02X780823Y236850I12026J0*
G01*
G75*
D01*
G02X779273Y242756I10476J5906*
G01*
X779273Y256535D01*
G74*
D01*
G02X780823Y262441I12026J0*
G01*
G75*
D01*
G02X779273Y268346I10476J5905*
G01*
X779273Y282126D01*
G74*
D01*
G02X780823Y288031I12026J0*
G01*
G75*
D01*
G02X779273Y293937I10476J5906*
G01*
X779273Y307717D01*
G74*
D01*
G02X780823Y313622I12026J0*
G01*
G75*
D01*
G02X779273Y319528I10476J5906*
G01*
X779273Y333307D01*
G75*
D01*
G02X791299Y345333I12026J0*
G01*
X796297Y345333D01*
G75*
D01*
G02X798703Y345333I1203J-17833*
G01*
X747766Y178902D02*
G75*
D01*
G02X747766Y160607I-9147J-9147*
G01*
X729393Y142234D01*
G75*
D01*
G02X711098Y142234I-9148J9147*
G01*
X694952Y158380D01*
G75*
D01*
G02X694952Y176675I9147J9147*
G01*
X713325Y195048D01*
G75*
D01*
G02X731620Y195048I9148J-9147*
G01*
X747766Y178902D01*
X622621Y139803D02*
G75*
D01*
G02X609685Y126867I-12936J0*
G01*
X570315Y126867D01*
G75*
D01*
G02X557379Y139803I0J12936*
G01*
X557379Y177205D01*
G75*
D01*
G02X570315Y190141I12936J0*
G01*
X609685Y190141D01*
G74*
D01*
G02X622621Y177205I0J12936*
G01*
X622621Y139803D01*
X779273Y102992D02*
G75*
D01*
G02X791299Y115019I12026J0*
G01*
X850354Y115019D01*
G74*
D01*
G02X862381Y102992I0J12027*
G01*
X862381Y89213D01*
G75*
D01*
G02X850354Y77186I-12027J0*
G01*
X791299Y77186D01*
G75*
D01*
G02X779273Y89213I0J12027*
G01*
X779273Y102992D01*
X3375372Y301210D02*
G75*
D01*
G02X3375372Y301210I38622J0*
G01*
X3437588Y238994D02*
G75*
D01*
G02X3437588Y238994I38622J0*
G01*
X3287384Y88790D02*
G75*
D01*
G02X3287384Y88790I38622J0*
G01*
X3064927Y-85000D02*
X3064927Y378628D01*
X15073Y378628D01*
X15073Y5073D01*
X2849972Y5073D01*
G75*
D01*
G02X2855508Y4030I28J-15073*
G01*
G74*
D01*
G02X2860310Y994I5508J14030*
G01*
X3055945Y-181778D01*
X3163827Y-181778D01*
X3359427Y10742D01*
G74*
D01*
G02X3366699Y14707I10573J10742*
G01*
G75*
D01*
G02X3370000Y15073I3301J-14707*
G01*
X3528235Y15073D01*
X3528235Y378628D01*
X3175073Y378628D01*
X3175073Y-85000D01*
G75*
D01*
G02X3160000Y-100073I-15073J0*
G01*
X3080000Y-100073D01*
G75*
D01*
G02X3064927Y-85000I0J15073*
G01*
X1955354Y154482D02*
X1920260Y154482D01*
X1890292Y163916D01*
X1874691Y179517D01*
X1874691Y179517D01*
X1865810Y188398D01*
G75*
D01*
G03X1874646Y185518I8836J12114*
G01*
X1955354Y185518D01*
G75*
D01*
G03X1970348Y200512I0J14994*
G01*
X1970348Y204031D01*
G75*
D01*
G03X1970348Y205969I-17848J969*
G01*
X1970348Y234031D01*
G75*
D01*
G03X1970348Y235969I-17848J969*
G01*
X1970348Y237913D01*
G74*
D01*
G03X1955354Y252907I14994J0*
G01*
X1874646Y252907D01*
G75*
D01*
G03X1859652Y237913I0J-14994*
G01*
X1859652Y235969D01*
G75*
D01*
G03X1859652Y234031I17848J-969*
G01*
X1859652Y205969D01*
G75*
D01*
G03X1859652Y204031I17848J-969*
G01*
X1859652Y200512D01*
G75*
D01*
G03X1862532Y191676I14994J0*
G01*
X1837480Y216729D01*
G74*
D01*
G03X1835460Y218495I14211J14211*
G01*
G74*
D01*
G03X1814252Y227280I23885J27671*
G01*
G74*
D01*
G03X1811575Y227459I2677J19918*
G01*
X1802588Y227459D01*
G75*
D01*
G03X1783480Y213589I0J-20097*
G01*
G74*
D01*
G03X1771095Y198394I4394J16227*
G01*
G74*
D01*
G03X1764646Y196669I1031J16780*
G01*
G74*
D01*
G03X1763046Y197185I4646J11669*
G01*
X1743072Y202179D01*
G75*
D01*
G03X1727814Y186954I-3072J-12179*
G01*
X1732716Y167346D01*
G74*
D01*
G03X1724685Y170141I8031J10141*
G01*
X1685315Y170141D01*
G75*
D01*
G03X1672379Y157205I0J-12936*
G01*
X1672379Y119803D01*
G75*
D01*
G03X1685315Y106867I12936J0*
G01*
X1724685Y106867D01*
G74*
D01*
G03X1729927Y107977I0J12936*
G01*
X1729927Y102894D01*
G74*
D01*
G03X1727047Y103316I2880J9626*
G01*
X1708937Y103316D01*
G75*
D01*
G03X1698889Y93268I0J-10048*
G01*
X1698889Y80668D01*
X1650781Y32560D01*
X1635324Y32560D01*
X1651798Y49035D01*
G74*
D01*
G03X1653054Y50500I8881J8882*
G01*
G74*
D01*
G03X1657412Y61022I15167J12446*
G01*
G75*
D01*
G03X1657560Y62946I-12412J1924*
G01*
X1657560Y224797D01*
X1710203Y277440D01*
X2176608Y277440D01*
G75*
D01*
G03X2177574Y277402I966J12560*
G01*
G74*
D01*
G02X2241092Y251092I0J89828*
G01*
G74*
D01*
G03X2241801Y250436I8908J8908*
G01*
X2297440Y194797D01*
X2297440Y167071D01*
G75*
D01*
G03X2297516Y165685I12560J0*
G01*
G74*
D01*
G03X2305192Y147153I29555J1386*
G01*
G74*
D01*
G03X2306118Y146118I9808J7847*
G01*
X2311118Y141118D01*
G74*
D01*
G03X2312153Y140192I8882J8882*
G01*
G74*
D01*
G03X2330685Y132516I19918J21879*
G01*
G75*
D01*
G03X2332071Y132440I1386J12484*
G01*
X2345055Y132440D01*
X2358141Y128725D01*
G75*
D01*
G03X2366732Y123889I8591J5212*
G01*
X2383268Y123889D01*
G74*
D01*
G03X2392485Y129935I0J10048*
G01*
G74*
D01*
G03X2395368Y130307I477J15065*
G01*
G74*
D01*
G03X2401926Y133650I3360J14693*
G01*
X2401926Y124232D01*
G75*
D01*
G03X2414862Y111296I12936J0*
G01*
X2415941Y111296D01*
X2421098Y106139D01*
G75*
D01*
G03X2438881Y106118I8902J8861*
G01*
X2444059Y111296D01*
X2445342Y111296D01*
G75*
D01*
G03X2456201Y105390I10859J7031*
G01*
X2562500Y105390D01*
G74*
D01*
G03X2569811Y107655I0J12937*
G01*
G74*
D01*
G03X2574389Y103763I10189J7345*
G01*
G75*
D01*
G03X2587536Y104952I5611J11237*
G01*
X2592870Y108952D01*
G74*
D01*
G03X2596475Y111296I7870J16048*
G01*
X2603839Y111296D01*
G75*
D01*
G03X2616775Y124232I0J12936*
G01*
X2616775Y134750D01*
X2631831Y134750D01*
G74*
D01*
G03X2639217Y136684I0J15073*
G01*
X2646063Y136684D01*
G74*
D01*
G03X2650000Y137487I0J10048*
G01*
G75*
D01*
G03X2653937Y136684I3937J9245*
G01*
X2672047Y136684D01*
G75*
D01*
G03X2682096Y146732I0J10048*
G01*
X2682096Y163268D01*
G74*
D01*
G03X2672047Y173316I10049J0*
G01*
X2653937Y173316D01*
G75*
D01*
G03X2650000Y172513I0J-10048*
G01*
G74*
D01*
G03X2646063Y173316I3937J9245*
G01*
X2642090Y173316D01*
X2636546Y176613D01*
G74*
D01*
G03X2631445Y180288I20885J23616*
G01*
G74*
D01*
G03X2636168Y183674I21622J35138*
G01*
X2648091Y186867D01*
X2654602Y186867D01*
X2673691Y177888D01*
X2755704Y95875D01*
G74*
D01*
G03X2757807Y94045I14211J14210*
G01*
G74*
D01*
G03X2777701Y85805I22674J26606*
G01*
G75*
D01*
G03X2780481Y85612I2780J19904*
G01*
X2787415Y85612D01*
G75*
D01*
G03X2797008Y81355I9593J8679*
G01*
X2822992Y81355D01*
G74*
D01*
G03X2832169Y85174I0J12936*
G01*
X2834663Y85286D01*
G75*
D01*
G03X2849980Y75725I15317J7490*
G01*
X2861791Y75725D01*
G75*
D01*
G03X2878842Y92776I0J17051*
G01*
X2878842Y94232D01*
G74*
D01*
G03X2884383Y88766I11158J5768*
G01*
X2892560Y84677D01*
X2892678Y84558D01*
X2892678Y74075D01*
G75*
D01*
G03X2894773Y67292I12027J0*
G01*
G75*
D01*
G03X2901028Y48084I10227J-7292*
G01*
X2907747Y45844D01*
G74*
D01*
G03X2912309Y44324I7253J14156*
G01*
X2916028Y43084D01*
G74*
D01*
G03X2918444Y42536I3972J11916*
G01*
G75*
D01*
G03X2925000Y43478I1556J12464*
G01*
G74*
D01*
G03X2926065Y43072I5000J11522*
G01*
G75*
D01*
G03X2930000Y42440I3935J11928*
G01*
X2932385Y42440D01*
G75*
D01*
G03X2942615Y42440I5115J15060*
G01*
X2944975Y42440D01*
G75*
D01*
G03X2955716Y48447I25J12560*
G01*
G75*
D01*
G03X2954460Y63263I-10716J6553*
G01*
G74*
D01*
G03X2954508Y63287I5267J10812*
G01*
G75*
D01*
G03X2959823Y62048I5315J10788*
G01*
X2962972Y62048D01*
G74*
D01*
G03X2968287Y63287I0J12027*
G01*
G74*
D01*
G03X2970880Y62361I5315J10788*
G01*
X2968089Y53988D01*
G75*
D01*
G03X2972274Y40097I11911J-3988*
G01*
X2878324Y40097D01*
X2844234Y74187D01*
G74*
D01*
G03X2830000Y80097I14234J14187*
G01*
X2738473Y80097D01*
G74*
D01*
G03X2725709Y90928I12764J2105*
G01*
X2702874Y90928D01*
G75*
D01*
G03X2695000Y88256I0J-12936*
G01*
G74*
D01*
G03X2687126Y90928I7874J10264*
G01*
X2664291Y90928D01*
G75*
D01*
G03X2651355Y77992I0J-12936*
G01*
X2651355Y52008D01*
G75*
D01*
G03X2651497Y50097I12936J0*
G01*
X2284140Y50097D01*
X2277621Y65402D01*
X2277621Y87205D01*
G74*
D01*
G03X2266590Y100000I12936J0*
G01*
G75*
D01*
G03X2277621Y112795I-1905J12795*
G01*
X2277621Y150197D01*
G74*
D01*
G03X2264685Y163133I12936J0*
G01*
X2225315Y163133D01*
G75*
D01*
G03X2213028Y154244I0J-12936*
G01*
G74*
D01*
G03X2210077Y159528I14367J4559*
G01*
G75*
D01*
G03X2213734Y169370I-11416J9842*
G01*
X2213734Y208740D01*
G74*
D01*
G03X2198661Y223813I15073J0*
G01*
X2139606Y223813D01*
G75*
D01*
G03X2124534Y208740I0J-15073*
G01*
X2124534Y181213D01*
G74*
D01*
G03X2098268Y188551I26266J43339*
G01*
X2023465Y188551D01*
G75*
D01*
G03X1974505Y150957I0J-50677*
G01*
X1965012Y150957D01*
G74*
D01*
G03X1955354Y154482I9658J11469*
G01*
X1737298Y160078D02*
G74*
D01*
G02X1737593Y158067I12613J2873*
G01*
G74*
D01*
G02X1739194Y158862I7461J13013*
G01*
G74*
D01*
G02X1737298Y160078I5806J11138*
G01*
G36*
X1203251Y82992D02*
X1203251Y82992D01*
X1175491Y78777D01*
X1175264Y85265D01*
X1203251Y82992D01*
D02*
G37*
X1175491Y78777D01*
X1175264Y85265D01*
X1203251Y82992D01*
G36*
X1538740Y75000D02*
X1538740Y75000D01*
X1566630Y78246D01*
X1566630Y71754D01*
X1538740Y75000D01*
D02*
G37*
X1566630Y78246D01*
X1566630Y71754D01*
X1538740Y75000D01*
G36*
X1548109Y75000D02*
X1548109Y75000D01*
X1520719Y68820D01*
X1520032Y75275D01*
X1548109Y75000D01*
D02*
G37*
X1520719Y68820D01*
X1520032Y75275D01*
X1548109Y75000D01*
G36*
X1280225Y114508D02*
X1280225Y114508D01*
X1249484Y113586D01*
X1251680Y125956D01*
X1280225Y114508D01*
D02*
G37*
X1249484Y113586D01*
X1251680Y125956D01*
X1280225Y114508D01*
G36*
X1274705Y114508D02*
X1274705Y114508D01*
X1300579Y115413D01*
X1300579Y113603D01*
X1274705Y114508D01*
D02*
G37*
X1300579Y115413D01*
X1300579Y113603D01*
X1274705Y114508D01*
G36*
X1284705Y94823D02*
X1284705Y94823D01*
X1300559Y95727D01*
X1300559Y93919D01*
X1284705Y94823D01*
D02*
G37*
X1300559Y95727D01*
X1300559Y93919D01*
X1284705Y94823D01*
G36*
X1483996Y134193D02*
X1483996Y134193D01*
X1458122Y133288D01*
X1458122Y135098D01*
X1483996Y134193D01*
D02*
G37*
X1458122Y133288D01*
X1458122Y135098D01*
X1483996Y134193D01*
G36*
X1483996Y114508D02*
X1483996Y114508D01*
X1458122Y113603D01*
X1458122Y115413D01*
X1483996Y114508D01*
D02*
G37*
X1458122Y113603D01*
X1458122Y115413D01*
X1483996Y114508D01*
G36*
X1483996Y153878D02*
X1483996Y153878D01*
X1458122Y152973D01*
X1458122Y154783D01*
X1483996Y153878D01*
D02*
G37*
X1458122Y152973D01*
X1458122Y154783D01*
X1483996Y153878D01*
G36*
X1478996Y94823D02*
X1478996Y94823D01*
X1458130Y93918D01*
X1458130Y95727D01*
X1478996Y94823D01*
D02*
G37*
X1458130Y93918D01*
X1458130Y95727D01*
X1478996Y94823D01*
G36*
X1491674Y153878D02*
X1491674Y153878D01*
X1526976Y161867D01*
X1523417Y136488D01*
X1491674Y153878D01*
D02*
G37*
X1526976Y161867D01*
X1523417Y136488D01*
X1491674Y153878D01*
G36*
X1494042Y134193D02*
X1494042Y134193D01*
X1520755Y158616D01*
X1530232Y134805D01*
X1494042Y134193D01*
D02*
G37*
X1520755Y158616D01*
X1530232Y134805D01*
X1494042Y134193D01*
G36*
X1510618Y107374D02*
X1510618Y107374D01*
X1521670Y100801D01*
X1517191Y96322D01*
X1510618Y107374D01*
D02*
G37*
X1521670Y100801D01*
X1517191Y96322D01*
X1510618Y107374D01*
G36*
X2404705Y149823D02*
X2404705Y149823D01*
X2430579Y150728D01*
X2430579Y148918D01*
X2404705Y149823D01*
D02*
G37*
X2430579Y150728D01*
X2430579Y148918D01*
X2404705Y149823D01*
G36*
X2388115Y145000D02*
X2388115Y145000D01*
X2376275Y139983D01*
X2375316Y146244D01*
X2388115Y145000D01*
D02*
G37*
X2376275Y139983D01*
X2375316Y146244D01*
X2388115Y145000D01*
G36*
X2613996Y149823D02*
X2613996Y149823D01*
X2588122Y148918D01*
X2588122Y150728D01*
X2613996Y149823D01*
D02*
G37*
X2588122Y148918D01*
X2588122Y150728D01*
X2613996Y149823D01*
G36*
X2609218Y149823D02*
X2609218Y149823D01*
X2636042Y158122D01*
X2637231Y151740D01*
X2609218Y149823D01*
D02*
G37*
X2636042Y158122D01*
X2637231Y151740D01*
X2609218Y149823D01*
G36*
X2627626Y164382D02*
X2627626Y164382D01*
X2638678Y157809D01*
X2634199Y153330D01*
X2627626Y164382D01*
D02*
G37*
X2638678Y157809D01*
X2634199Y153330D01*
X2627626Y164382D01*
G36*
X1483996Y173563D02*
X1483996Y173563D01*
X1458122Y172658D01*
X1458122Y174468D01*
X1483996Y173563D01*
D02*
G37*
X1458122Y172658D01*
X1458122Y174468D01*
X1483996Y173563D01*
G36*
X2404705Y169508D02*
X2404705Y169508D01*
X2430579Y170413D01*
X2430579Y168603D01*
X2404705Y169508D01*
D02*
G37*
X2430579Y170413D01*
X2430579Y168603D01*
X2404705Y169508D01*
G36*
X2405225Y169508D02*
X2405225Y169508D01*
X2374484Y168586D01*
X2376680Y180956D01*
X2405225Y169508D01*
D02*
G37*
X2374484Y168586D01*
X2376680Y180956D01*
X2405225Y169508D01*
G36*
X2613996Y169508D02*
X2613996Y169508D01*
X2588122Y168603D01*
X2588122Y170413D01*
X2613996Y169508D01*
D02*
G37*
X2588122Y168603D01*
X2588122Y170413D01*
X2613996Y169508D01*
G36*
X2598996Y208878D02*
X2598996Y208878D01*
X2588166Y207976D01*
X2588166Y209780D01*
X2598996Y208878D01*
D02*
G37*
X2588166Y207976D01*
X2588166Y209780D01*
X2598996Y208878D01*
G36*
X2595802Y236274D02*
X2595802Y236274D01*
X2588782Y227978D01*
X2587506Y229254D01*
X2595802Y236274D01*
D02*
G37*
X2588782Y227978D01*
X2587506Y229254D01*
X2595802Y236274D01*
G36*
X2608996Y189193D02*
X2608996Y189193D01*
X2588130Y188288D01*
X2588130Y190098D01*
X2608996Y189193D01*
D02*
G37*
X2588130Y188288D01*
X2588130Y190098D01*
X2608996Y189193D01*
G36*
X2631833Y223504D02*
X2631833Y223504D01*
X2649617Y231103D01*
X2644900Y209247D01*
X2631833Y223504D01*
D02*
G37*
X2649617Y231103D01*
X2644900Y209247D01*
X2631833Y223504D01*
G36*
X2628801Y197305D02*
X2628801Y197305D01*
X2642796Y224731D01*
X2658544Y205269D01*
X2628801Y197305D01*
D02*
G37*
X2642796Y224731D01*
X2658544Y205269D01*
X2628801Y197305D01*
G36*
X1078031Y326417D02*
X1078031Y326417D01*
X1049689Y322594D01*
X1049689Y330241D01*
X1078031Y326417D01*
D02*
G37*
X1049689Y322594D01*
X1049689Y330241D01*
X1078031Y326417D01*
G36*
X1078968Y326417D02*
X1078968Y326417D01*
X1106222Y333172D01*
X1107045Y326732D01*
X1078968Y326417D01*
D02*
G37*
X1106222Y333172D01*
X1107045Y326732D01*
X1078968Y326417D01*
X1259423Y82992D02*
X1260596Y83043D01*
X1261761Y83197D01*
X1262908Y83451D01*
X1264028Y83804D01*
X1265113Y84254D01*
X1266155Y84796D01*
X1267146Y85427D01*
X1268078Y86142D01*
X1268944Y86936D01*
X1497740Y87260D02*
X1496079Y88782D01*
X1494292Y90153D01*
X1492392Y91363D01*
X1490394Y92404D01*
X1488313Y93266D01*
X1486165Y93943D01*
X1483965Y94431D01*
X1481732Y94725D01*
X1479482Y94823D01*
X1745000Y80839D02*
X1745100Y78558D01*
X1745398Y76295D01*
X1745892Y74066D01*
X1746578Y71889D01*
X1747452Y69780D01*
X1748506Y67755D01*
X1749732Y65830D01*
X1751122Y64019D01*
X1752664Y62336D01*
X1282408Y94823D02*
X1281234Y94772D01*
X1280070Y94618D01*
X1278923Y94364D01*
X1277803Y94011D01*
X1276718Y93561D01*
X1275676Y93019D01*
X1274685Y92388D01*
X1273753Y91673D01*
X1272887Y90879D01*
X1508989Y109003D02*
X1507781Y110110D01*
X1506480Y111109D01*
X1505097Y111990D01*
X1503642Y112747D01*
X1502127Y113374D01*
X1500563Y113867D01*
X1498963Y114222D01*
X1497337Y114436D01*
X1495699Y114508D01*
X1745054Y145054D02*
X1745043Y145042D01*
X1745034Y145029D01*
X1745025Y145016D01*
X1745017Y145002D01*
X1745011Y144987D01*
X1745006Y144971D01*
X1745003Y144955D01*
X1745001Y144939D01*
X1745000Y144923D01*
X2627336Y164672D02*
X2626274Y165645D01*
X2625131Y166522D01*
X2623916Y167296D01*
X2622639Y167961D01*
X2621308Y168512D01*
X2619934Y168945D01*
X2618528Y169257D01*
X2617100Y169445D01*
X2615661Y169508D01*
X2601983Y208878D02*
X2603434Y208941D01*
X2604874Y209131D01*
X2606291Y209445D01*
X2607676Y209882D01*
X2609018Y210437D01*
X2610306Y211108D01*
X2611531Y211888D01*
X2612683Y212772D01*
X2613753Y213753D01*
X2630399Y223504D02*
X2628948Y223441D01*
X2627508Y223251D01*
X2626091Y222937D01*
X2624706Y222500D01*
X2623364Y221944D01*
X2622076Y221274D01*
X2620851Y220494D01*
X2619699Y219610D01*
X2618629Y218629D01*
X2609823Y189193D02*
X2612109Y189293D01*
X2614378Y189591D01*
X2616612Y190087D01*
X2618795Y190775D01*
X2620909Y191651D01*
X2622939Y192707D01*
X2624870Y193937D01*
X2626685Y195330D01*
X2628372Y196876D01*
X1175000Y82992D02*
X1259423Y82992D01*
X1272887Y90879D02*
X1268944Y86936D01*
X1497740Y87260D02*
X1512992Y72008D01*
X1567008Y75000D02*
X1522992Y75000D01*
X1520000Y72008D01*
X1512992Y72008D02*
X1520000Y72008D01*
X1745000Y144923D02*
X1745000Y80839D01*
X1752664Y62336D02*
X1767992Y47008D01*
X1117598Y121693D02*
X1120000Y119291D01*
X1254783Y114508D02*
X1249291Y120000D01*
X1300610Y114508D02*
X1254783Y114508D01*
X1300610Y94823D02*
X1282408Y94823D01*
X1458091Y134193D02*
X1515689Y134193D01*
X1458091Y114508D02*
X1495699Y114508D01*
X1458091Y94823D02*
X1479482Y94823D01*
X1458091Y153878D02*
X1500000Y153878D01*
X1515689Y134193D02*
X1535000Y153504D01*
X1508989Y109003D02*
X1520000Y97992D01*
X2396831Y149823D02*
X2430610Y149823D01*
X2396831Y149823D02*
X2392008Y145000D01*
X2375000Y145000D02*
X2392008Y145000D01*
X2588091Y149823D02*
X2631831Y149823D01*
X2637008Y155000D01*
X2627336Y164672D02*
X2637008Y155000D01*
X1458091Y173563D02*
X1495661Y173563D01*
X2430610Y169508D02*
X2379783Y169508D01*
X2374291Y175000D01*
X2598031Y238504D02*
X2588091Y228563D01*
X2601983Y208878D02*
X2588091Y208878D01*
X2588091Y189193D02*
X2609823Y189193D01*
X2588091Y169508D02*
X2615661Y169508D01*
X2665000Y238504D02*
X2598031Y238504D01*
X2655000Y223504D02*
X2630399Y223504D01*
X2628372Y196876D02*
X2655000Y223504D01*
X2618629Y218629D02*
X2613753Y213753D01*
X1049173Y326417D02*
X1103425Y326417D01*
X1107008Y330000D01*
G54D13*
G36*
X2130153Y63504D02*
X2130153Y63504D01*
X2165051Y79727D01*
X2168573Y61276D01*
X2130153Y63504D01*
D02*
G37*
X2165051Y79727D01*
X2168573Y61276D01*
X2130153Y63504D01*
G36*
X2208744Y68504D02*
X2208744Y68504D01*
X2170915Y61425D01*
X2172071Y80174D01*
X2208744Y68504D01*
D02*
G37*
X2170915Y61425D01*
X2172071Y80174D01*
X2208744Y68504D01*
G36*
X2206299Y68504D02*
X2206299Y68504D01*
X2243044Y76982D01*
X2243044Y60026D01*
X2206299Y68504D01*
D02*
G37*
X2243044Y76982D01*
X2243044Y60026D01*
X2206299Y68504D01*
G36*
X2267781Y37219D02*
X2267781Y37219D01*
X2239298Y61932D01*
X2253005Y71913D01*
X2267781Y37219D01*
D02*
G37*
X2239298Y61932D01*
X2253005Y71913D01*
X2267781Y37219D01*
G36*
X1565006Y165006D02*
X1565006Y165006D01*
X1535384Y141669D01*
X1528154Y157007D01*
X1565006Y165006D01*
D02*
G37*
X1535384Y141669D01*
X1528154Y157007D01*
X1565006Y165006D01*
G36*
X1879562Y146225D02*
X1879562Y146225D01*
X1919091Y133781D01*
X1903998Y112755D01*
X1879562Y146225D01*
D02*
G37*
X1919091Y133781D01*
X1903998Y112755D01*
X1879562Y146225D01*
G36*
X2841417Y105709D02*
X2841417Y105709D01*
X2810064Y104293D01*
X2810064Y107125D01*
X2841417Y105709D01*
D02*
G37*
X2810064Y104293D01*
X2810064Y107125D01*
X2841417Y105709D01*
G36*
X2841417Y105709D01*
X2810064Y104293D01*
X2810064Y107125D01*
X2841417Y105709D01*
D02*
G37*
X2810064Y104293D01*
X2810064Y107125D01*
X2841417Y105709D01*
G36*
X2685420Y194580D02*
X2685420Y194580D01*
X2651297Y210631D01*
X2661779Y223959D01*
X2685420Y194580D01*
D02*
G37*
X2651297Y210631D01*
X2661779Y223959D01*
X2685420Y194580D01*
G36*
X2880583Y235709D02*
X2880583Y235709D01*
X2894861Y237119D01*
X2894861Y234298D01*
X2880583Y235709D01*
D02*
G37*
X2894861Y237119D01*
X2894861Y234298D01*
X2880583Y235709D01*
G36*
X2926123Y240000D02*
X2926123Y240000D01*
X2895257Y234315D01*
X2894870Y237120D01*
X2926123Y240000D01*
D02*
G37*
X2895257Y234315D01*
X2894870Y237120D01*
X2926123Y240000D01*
G36*
X2737782Y280000D02*
X2737782Y280000D01*
X2774191Y289818D01*
X2774812Y272873D01*
X2737782Y280000D01*
D02*
G37*
X2774191Y289818D01*
X2774812Y272873D01*
X2737782Y280000D01*
G36*
X2737863Y284291D02*
X2737863Y284291D01*
X2775136Y290017D01*
X2773876Y273108D01*
X2737863Y284291D01*
D02*
G37*
X2775136Y290017D01*
X2773876Y273108D01*
X2737863Y284291D01*
G36*
X2751123Y280000D02*
X2751123Y280000D01*
X2719870Y282880D01*
X2720257Y285685D01*
X2751123Y280000D01*
D02*
G37*
X2719870Y282880D01*
X2720257Y285685D01*
X2751123Y280000D01*
G36*
X2751417Y284291D02*
X2751417Y284291D01*
X2720064Y282875D01*
X2720064Y285707D01*
X2751417Y284291D01*
D02*
G37*
X2720064Y282875D01*
X2720064Y285707D01*
X2751417Y284291D01*
G36*
X2721791Y298597D02*
X2721791Y298597D01*
X2721417Y284254D01*
X2718618Y284605D01*
X2721791Y298597D01*
D02*
G37*
X2721417Y284254D01*
X2718618Y284605D01*
X2721791Y298597D01*
G36*
X2815157Y281417D02*
X2815157Y281417D01*
X2778413Y272939D01*
X2778413Y289895D01*
X2815157Y281417D01*
D02*
G37*
X2778413Y272939D01*
X2778413Y289895D01*
X2815157Y281417D01*
G36*
X2794843Y281417D02*
X2794843Y281417D01*
X2831587Y289895D01*
X2831587Y272939D01*
X2794843Y281417D01*
D02*
G37*
X2831587Y289895D01*
X2831587Y272939D01*
X2794843Y281417D01*
G36*
X2860909Y254052D02*
X2860909Y254052D01*
X2828932Y274039D01*
X2840921Y286029D01*
X2860909Y254052D01*
D02*
G37*
X2828932Y274039D01*
X2840921Y286029D01*
X2860909Y254052D01*
X1814469Y63504D02*
X1812833Y63432D01*
X1811209Y63219D01*
X1809610Y62864D01*
X1808048Y62372D01*
X1806535Y61745D01*
X1805082Y60989D01*
X1803701Y60109D01*
X1802402Y59112D01*
X1801194Y58005D01*
X2769915Y110085D02*
X2770876Y109204D01*
X2771910Y108411D01*
X2773010Y107711D01*
X2774166Y107109D01*
X2775370Y106610D01*
X2776613Y106218D01*
X2777886Y105936D01*
X2779178Y105766D01*
X2780481Y105709D01*
X1601759Y201759D02*
X1602411Y202471D01*
X1602999Y203237D01*
X1603518Y204051D01*
X1603963Y204907D01*
X1604333Y205799D01*
X1604623Y206719D01*
X1604832Y207662D01*
X1604958Y208619D01*
X1605000Y209583D01*
X1823269Y202518D02*
X1822205Y203493D01*
X1821061Y204371D01*
X1819844Y205146D01*
X1818564Y205813D01*
X1817231Y206365D01*
X1815855Y206799D01*
X1814447Y207111D01*
X1813016Y207299D01*
X1811575Y207362D01*
X1608241Y263241D02*
X1607589Y262529D01*
X1607001Y261763D01*
X1606482Y260949D01*
X1606037Y260093D01*
X1605667Y259201D01*
X1605377Y258280D01*
X1605168Y257338D01*
X1605042Y256381D01*
X1605000Y255417D01*
X1722712Y340000D02*
X1714777Y339654D01*
X1706902Y338617D01*
X1699148Y336898D01*
X1691573Y334509D01*
X1684235Y331470D01*
X1677190Y327802D01*
X1670491Y323535D01*
X1664189Y318699D01*
X1658333Y313333D01*
X2721791Y302749D02*
X2721715Y304503D01*
X2721486Y306243D01*
X2721106Y307956D01*
X2720578Y309630D01*
X2719906Y311252D01*
X2719096Y312809D01*
X2718153Y314289D01*
X2717085Y315681D01*
X2715899Y316975D01*
X2697694Y335180D02*
X2696635Y336150D01*
X2695496Y337024D01*
X2694286Y337795D01*
X2693012Y338458D01*
X2691686Y339008D01*
X2690317Y339439D01*
X2688916Y339750D01*
X2687492Y339937D01*
X2686058Y340000D01*
X1780000Y47008D02*
X1790197Y47008D01*
X1801194Y58005D01*
X2164134Y63504D02*
X1814469Y63504D01*
X2235000Y68504D02*
X2169134Y68504D01*
X2164134Y63504D02*
X2169134Y68504D01*
X1110000Y119291D02*
X1129291Y119291D01*
X1490000Y163878D02*
X1500000Y153878D01*
X1540000Y148504D02*
X1535000Y153504D01*
X1530000Y148504D02*
X1548504Y148504D01*
X1601759Y201759D01*
X1500000Y153878D02*
X1524626Y153878D01*
X1530000Y148504D01*
X1915000Y110787D02*
X1823269Y202518D01*
X2656496Y223504D02*
X2769915Y110085D01*
X2780481Y105709D02*
X2848563Y105709D01*
X2848563Y105709D02*
X2855886Y98386D01*
X1605000Y209583D02*
X1605000Y255417D01*
X1802588Y207362D02*
X1811575Y207362D01*
X2833543Y281417D02*
X2879252Y235709D01*
X2895000Y235709D01*
X2962008Y240000D02*
X2899291Y240000D01*
X2895000Y235709D01*
X1608241Y263241D02*
X1658333Y313333D01*
X2769291Y280000D02*
X2720000Y280000D01*
X2723583Y284291D02*
X2773583Y284291D01*
X2721791Y302749D02*
X2721791Y286083D01*
X2697694Y335180D02*
X2715899Y316975D01*
X2721791Y286083D02*
X2723583Y284291D01*
X2776457Y281417D02*
X2833543Y281417D01*
X2769291Y280000D02*
X2773583Y284291D01*
X2776457Y281417D01*
X1722712Y340000D02*
X2686058Y340000D01*
X1331667Y275000D02*
X1321847Y274571D01*
X1312103Y273288D01*
X1302507Y271161D01*
X1293134Y268206D01*
X1284053Y264444D01*
X1275335Y259906D01*
X1267046Y254625D01*
X1259248Y248642D01*
X1252002Y242002D01*
X1490000Y202313D02*
X1489929Y203930D01*
X1489718Y205536D01*
X1489368Y207116D01*
X1488881Y208660D01*
X1488261Y210156D01*
X1487514Y211592D01*
X1486644Y212957D01*
X1485658Y214242D01*
X1484564Y215435D01*
X1430417Y269583D02*
X1429227Y270673D01*
X1427947Y271655D01*
X1426586Y272522D01*
X1425155Y273267D01*
X1423665Y273885D01*
X1422126Y274370D01*
X1420551Y274719D01*
X1418951Y274930D01*
X1417340Y275000D01*
X2995363Y20000D02*
X2996338Y20043D01*
X2997307Y20170D01*
X2998260Y20381D01*
X2999192Y20675D01*
X3000094Y21049D01*
X3000960Y21500D01*
X3001784Y22025D01*
X3002559Y22619D01*
X3003279Y23279D01*
X3036071Y56071D02*
X3036731Y56791D01*
X3037326Y57566D01*
X3037850Y58390D01*
X3038301Y59256D01*
X3038675Y60159D01*
X3038969Y61090D01*
X3039180Y62044D01*
X3039308Y63012D01*
X3039350Y63988D01*
X1129291Y119291D02*
X1252002Y242002D01*
X1490000Y163878D02*
X1490000Y202313D01*
X1430417Y269583D02*
X1484564Y215436D01*
X1331667Y275000D02*
X1417340Y275000D01*
X3003279Y23279D02*
X3036071Y56071D01*
X3039350Y63988D02*
X3039350Y136378D01*
X2299714Y30000D02*
X2685906Y30000D01*
X2275000Y30000D02*
X2299714Y30000D01*
X2696430Y31430D02*
X2714291Y49291D01*
X2714291Y65000D01*
X2245000Y60000D02*
X2267781Y37219D01*
X2275000Y30000D01*
X2719291Y60000D02*
X2714291Y65000D01*
X2830000Y60000D02*
X2870000Y20000D01*
X2995363Y20000D01*
X2719291Y60000D02*
X2830000Y60000D01*
G54D14*
G36*
X1078675Y121693D02*
X1078675Y121693D01*
X1109810Y123204D01*
X1109216Y115453D01*
X1078675Y121693D01*
D02*
G37*
X1109810Y123204D01*
X1109216Y115453D01*
X1078675Y121693D01*
G36*
X1078031Y121693D02*
X1078031Y121693D01*
X1049237Y120336D01*
X1049237Y123050D01*
X1078031Y121693D01*
D02*
G37*
X1049237Y120336D01*
X1049237Y123050D01*
X1078031Y121693D01*
X1049173Y121693D02*
X1117598Y121693D01*
X2855886Y136378D02*
X2855886Y98386D01*
G54D15*
G36*
X1763937Y181500D02*
X1763937Y181500D01*
X1787868Y182051D01*
X1787868Y181177D01*
X1763937Y181500D01*
D02*
G37*
X1787868Y182051D01*
X1787868Y181177D01*
X1763937Y181500D01*
G36*
X1763937Y181500D01*
X1787868Y182051D01*
X1787868Y181177D01*
X1763937Y181500D01*
D02*
G37*
X1787868Y182051D01*
X1787868Y181177D01*
X1763937Y181500D01*
G36*
X1796063Y181500D02*
X1796063Y181500D01*
X1772136Y181177D01*
X1772136Y182051D01*
X1796063Y181500D01*
D02*
G37*
X1772136Y181177D01*
X1772136Y182051D01*
X1796063Y181500D01*
G36*
X1796063Y181500D01*
X1772136Y181177D01*
X1772136Y182051D01*
X1796063Y181500D01*
D02*
G37*
X1772136Y181177D01*
X1772136Y182051D01*
X1796063Y181500D01*
X1750000Y181500D02*
X1808500Y181500D01*
G54D16*
X1890000Y115787D02*
X2016654Y115787D01*
X2016654Y115787D02*
X2030866Y130000D01*
G54D17*
X2030866Y130000D02*
X2139134Y130000D01*
G54D18*
X3080000Y393701D02*
X3080000Y-85000D01*
X3160000Y-85000D01*
X3160000Y393701D01*
X3543307Y393701D01*
X3543307Y0D01*
X3370000Y0D01*
X3170000Y-196850D01*
X3050000Y-196850D01*
X2850000Y-10000D01*
X0Y-10000D01*
X0Y393701D01*
X3080000Y393701D01*
G54D19*
X837500Y-170000D03*
X877500Y-170000D03*
X857500Y-190000D03*
X897500Y-190000D03*
X877500Y-130000D03*
X857500Y-150000D03*
X837500Y-130000D03*
X897500Y-150000D03*
X1750000Y181500D03*
X1810000Y181500D03*
X1617500Y162500D03*
X1570000Y205000D03*
X1667500Y205000D03*
X1110000Y120000D03*
X1175000Y82500D03*
X1825000Y157500D03*
X1717500Y85000D03*
X3245000Y100000D03*
X3337500Y300000D03*
X3395000Y237500D03*
X797500Y327500D03*
X842500Y327500D03*
X820000Y327500D03*
X2432500Y125000D03*
X2585000Y125000D03*
X2470000Y150000D03*
X2510000Y150000D03*
X2530000Y130000D03*
X2490000Y130000D03*
X2550000Y150000D03*
X2530000Y170000D03*
X2470000Y230000D03*
X2510000Y230000D03*
X2510000Y190000D03*
X2530000Y210000D03*
X2490000Y170000D03*
X2470000Y190000D03*
X2490000Y210000D03*
X2550000Y230000D03*
X2550000Y190000D03*
X2370000Y225000D03*
X2335000Y175000D03*
X2665000Y272500D03*
X2645000Y292500D03*
X2662500Y155000D03*
X1110000Y80000D03*
X2720000Y245000D03*
X2895000Y275000D03*
X720000Y170000D03*
X2945000Y205000D03*
X2675000Y65000D03*
X1302500Y70000D03*
X1455000Y70000D03*
X1360000Y75000D03*
X1400000Y75000D03*
X1340000Y95000D03*
X1340000Y135000D03*
X1360000Y155000D03*
X1400000Y155000D03*
X1420000Y95000D03*
X1420000Y135000D03*
X1400000Y115000D03*
X1380000Y95000D03*
X1380000Y135000D03*
X1360000Y115000D03*
X1340000Y175000D03*
X1420000Y175000D03*
X1380000Y175000D03*
X1340000Y225000D03*
X1210000Y120000D03*
X1540000Y202500D03*
X1520000Y222500D03*
X1595000Y75000D03*
X2767500Y220000D03*
X2767500Y202500D03*
X2785000Y197500D03*
X2785000Y215000D03*
X1695000Y147500D03*
X1715000Y130000D03*
X2255000Y122500D03*
X2235000Y140000D03*
X2987500Y155000D03*
X2970000Y155000D03*
X1132500Y330000D03*
X580000Y167500D03*
X600000Y150000D03*
X1877500Y235000D03*
X1895000Y220000D03*
X1877500Y205000D03*
X1915000Y235000D03*
X1952500Y235000D03*
X1952500Y205000D03*
X1915000Y205000D03*
X1935000Y220000D03*
X2810000Y145000D03*
G54D20*
X947500Y-132500D03*
X817500Y300000D03*
X817500Y275000D03*
X817500Y250000D03*
X817500Y225000D03*
X817500Y200000D03*
X817500Y172500D03*
X817500Y147500D03*
X1047500Y327500D03*
X1052500Y275000D03*
X2912500Y175000D03*
X1052500Y197500D03*
X2897500Y100000D03*
X1052500Y225000D03*
X2987500Y60000D03*
X1052500Y250000D03*
X2962500Y95000D03*
X1052500Y302500D03*
X2947500Y110000D03*
X1052500Y147500D03*
X2915000Y60000D03*
X1052500Y172500D03*
X2937500Y57500D03*
G54D21*
X305000Y171850D03*
X255000Y171850D03*
X355000Y171850D03*
X155000Y171850D03*
X55000Y171850D03*
X105000Y171850D03*
X355000Y221850D03*
X305000Y221850D03*
X255000Y221850D03*
X205000Y221850D03*
X155000Y221850D03*
X105000Y221850D03*
X55000Y221850D03*
X205000Y171850D03*
X505000Y221850D03*
X455000Y221850D03*
X405000Y221850D03*
X405000Y171850D03*
X455000Y171850D03*
X505000Y171850D03*
G54D22*
X590000Y158504D03*
X590000Y221496D03*
X2245000Y68504D03*
X2245000Y131496D03*
X1530000Y148504D03*
X1530000Y211496D03*
X1705000Y138504D03*
X1705000Y201496D03*
X2655000Y218504D03*
X2655000Y281496D03*
G54D23*
X820827Y147283D03*
X820827Y121693D03*
X820827Y96102D03*
X1049173Y96102D03*
X1049173Y121693D03*
X1049173Y147283D03*
X820827Y249646D03*
X820827Y224055D03*
X820827Y172874D03*
X820827Y198465D03*
X1049173Y172874D03*
X1049173Y198465D03*
X1049173Y249646D03*
X1049173Y224055D03*
X820827Y326417D03*
X820827Y275236D03*
X820827Y300827D03*
X1049173Y326417D03*
X1049173Y275236D03*
X1049173Y300827D03*
G54D24*
X791300Y140393D02*
X850354Y140393D01*
X850354Y154173D01*
X791300Y154173D01*
X791300Y140393D01*D02*
X791300Y114803D02*
X850354Y114803D01*
X850354Y128583D01*
X791300Y128583D01*
X791300Y114803D01*D02*
X791300Y89212D02*
X850354Y89212D01*
X850354Y102992D01*
X791300Y102992D01*
X791300Y89212D01*D02*
X1019646Y89212D02*
X1078700Y89212D01*
X1078700Y102992D01*
X1019646Y102992D01*
X1019646Y89212D01*D02*
X1019646Y114803D02*
X1078700Y114803D01*
X1078700Y128583D01*
X1019646Y128583D01*
X1019646Y114803D01*D02*
X1019646Y140393D02*
X1078700Y140393D01*
X1078700Y154173D01*
X1019646Y154173D01*
X1019646Y140393D01*D02*
X791300Y242756D02*
X850354Y242756D01*
X850354Y256536D01*
X791300Y256536D01*
X791300Y242756D01*D02*
X791300Y217165D02*
X850354Y217165D01*
X850354Y230945D01*
X791300Y230945D01*
X791300Y217165D01*D02*
X791300Y165984D02*
X850354Y165984D01*
X850354Y179764D01*
X791300Y179764D01*
X791300Y165984D01*D02*
X791300Y191575D02*
X850354Y191575D01*
X850354Y205355D01*
X791300Y205355D01*
X791300Y191575D01*D02*
X1019646Y165984D02*
X1078700Y165984D01*
X1078700Y179764D01*
X1019646Y179764D01*
X1019646Y165984D01*D02*
X1019646Y191575D02*
X1078700Y191575D01*
X1078700Y205355D01*
X1019646Y205355D01*
X1019646Y191575D01*D02*
X1019646Y242756D02*
X1078700Y242756D01*
X1078700Y256536D01*
X1019646Y256536D01*
X1019646Y242756D01*D02*
X1019646Y217165D02*
X1078700Y217165D01*
X1078700Y230945D01*
X1019646Y230945D01*
X1019646Y217165D01*D02*
X791300Y319527D02*
X850354Y319527D01*
X850354Y333307D01*
X791300Y333307D01*
X791300Y319527D01*D02*
X791300Y268346D02*
X850354Y268346D01*
X850354Y282126D01*
X791300Y282126D01*
X791300Y268346D01*D02*
X791300Y293937D02*
X850354Y293937D01*
X850354Y307717D01*
X791300Y307717D01*
X791300Y293937D01*D02*
X1019646Y319527D02*
X1078700Y319527D01*
X1078700Y333307D01*
X1019646Y333307D01*
X1019646Y319527D01*D02*
X1019646Y268346D02*
X1078700Y268346D01*
X1078700Y282126D01*
X1019646Y282126D01*
X1019646Y268346D01*D02*
X1019646Y293937D02*
X1078700Y293937D01*
X1078700Y307717D01*
X1019646Y307717D01*
X1019646Y293937D01*D02*
X2904705Y74075D02*
X2907855Y74075D01*
X2907855Y85885D01*
X2904705Y85885D01*
X2904705Y74075D01*D02*
X2918484Y74075D02*
X2921634Y74075D01*
X2921634Y85885D01*
X2918484Y85885D01*
X2918484Y74075D01*D02*
X2932264Y74075D02*
X2935414Y74075D01*
X2935414Y85885D01*
X2932264Y85885D01*
X2932264Y74075D01*D02*
X2946043Y74075D02*
X2949193Y74075D01*
X2949193Y85885D01*
X2946043Y85885D01*
X2946043Y74075D01*D02*
X2959823Y74075D02*
X2962973Y74075D01*
X2962973Y85885D01*
X2959823Y85885D01*
X2959823Y74075D01*D02*
X2973602Y74075D02*
X2976752Y74075D01*
X2976752Y85885D01*
X2973602Y85885D01*
X2973602Y74075D01*D02*
X2987382Y74075D02*
X2990532Y74075D01*
X2990532Y85885D01*
X2987382Y85885D01*
X2987382Y74075D01*D02*
X2904705Y148878D02*
X2907855Y148878D01*
X2907855Y160688D01*
X2904705Y160688D01*
X2904705Y148878D01*D02*
X2849981Y130768D02*
X2861791Y130768D01*
X2861791Y141988D01*
X2849981Y141988D01*
X2849981Y130768D01*D02*
X2849981Y92776D02*
X2861791Y92776D01*
X2861791Y103996D01*
X2849981Y103996D01*
X2849981Y92776D01*D02*
X2918484Y148878D02*
X2921634Y148878D01*
X2921634Y160688D01*
X2918484Y160688D01*
X2918484Y148878D01*D02*
X2932264Y148878D02*
X2935414Y148878D01*
X2935414Y160688D01*
X2932264Y160688D01*
X2932264Y148878D01*D02*
X2946043Y148878D02*
X2949193Y148878D01*
X2949193Y160688D01*
X2946043Y160688D01*
X2946043Y148878D01*D02*
X2959823Y148878D02*
X2962973Y148878D01*
X2962973Y160688D01*
X2959823Y160688D01*
X2959823Y148878D01*D02*
X2973602Y148878D02*
X2976752Y148878D01*
X2976752Y160688D01*
X2973602Y160688D01*
X2973602Y148878D01*D02*
X2987382Y148878D02*
X2990532Y148878D01*
X2990532Y160688D01*
X2987382Y160688D01*
X2987382Y148878D01*D02*
X3033445Y130768D02*
X3045255Y130768D01*
X3045255Y141988D01*
X3033445Y141988D01*
X3033445Y130768D01*D02*
X3033445Y92776D02*
X3045255Y92776D01*
X3045255Y103996D01*
X3033445Y103996D01*
X3033445Y92776D01*D02*
G54D25*
X1110000Y80709D03*
X1110000Y119291D03*
X2810000Y144291D03*
X2810000Y105709D03*
X2370000Y225709D03*
X2370000Y264291D03*
X2720000Y245709D03*
X2720000Y284291D03*
X2895000Y235709D03*
X2895000Y274291D03*
G54D26*
X1175000Y82008D03*
X1175000Y107992D03*
X1520000Y72008D03*
X1520000Y97992D03*
X1775000Y72992D03*
X1775000Y47008D03*
X2375000Y117008D03*
X2375000Y142992D03*
G54D27*
X1249291Y120000D03*
X1210709Y120000D03*
X2335709Y175000D03*
X2374291Y175000D03*
X1300709Y225000D03*
X1339291Y225000D03*
X2984291Y205000D03*
X2945709Y205000D03*
X2675709Y65000D03*
X2714291Y65000D03*
G54D28*
X1300610Y75138D03*
X1458091Y75138D03*
X1300610Y153878D03*
X1300610Y134193D03*
X1300610Y94823D03*
X1300610Y114508D03*
X1458091Y153878D03*
X1458091Y94823D03*
X1458091Y114508D03*
X1458091Y134193D03*
X1300610Y173563D03*
X1458091Y173563D03*
X2430610Y130138D03*
X2430610Y149823D03*
X2430610Y169508D03*
X2588091Y130138D03*
X2588091Y149823D03*
X2588091Y169508D03*
X2430610Y208878D03*
X2430610Y228563D03*
X2430610Y189193D03*
X2588091Y208878D03*
X2588091Y228563D03*
X2588091Y189193D03*
G54D29*
X1379350Y124350D03*
X2509350Y179350D03*
G54D30*
X1567008Y75000D03*
X1592992Y75000D03*
X1692008Y85000D03*
X1717992Y85000D03*
X1792992Y105000D03*
X1767008Y105000D03*
X2637008Y155000D03*
X2662992Y155000D03*
X1107008Y330000D03*
X1132992Y330000D03*
X2962008Y240000D03*
X2987992Y240000D03*
G54D31*
X2060866Y130000D03*
G54D32*
X2023465Y122126D02*
X2098267Y122126D01*
X2098267Y137874D01*
X2023465Y137874D01*
X2023465Y122126D01*D02*
G54D33*
X2169134Y70945D03*
X2169134Y130000D03*
X2169134Y189055D03*
G54D34*
X2906280Y79980D03*
X2920059Y79980D03*
X2933839Y79980D03*
X2947618Y79980D03*
X2961398Y79980D03*
X2975177Y79980D03*
X2988957Y79980D03*
X2906280Y154783D03*
X2920059Y154783D03*
X2933839Y154783D03*
X2947618Y154783D03*
X2961398Y154783D03*
X2975177Y154783D03*
X2988957Y154783D03*
G54D35*
X2855886Y136378D03*
X3039350Y136378D03*
X3039350Y98386D03*
G54D36*
X2855886Y98386D03*
G54D37*
X722473Y169755D03*
X720245Y167527D03*
X749755Y142473D03*
X747527Y140245D03*
G54D38*
X1772126Y165866D03*
X1787874Y165866D03*
X1787874Y150118D03*
X1772126Y150118D03*
X1772126Y197362D03*
X1772126Y181614D03*
X1787874Y181614D03*
X1787874Y197362D03*
G54D39*
X1915000Y120787D03*
X1915000Y219213D03*
G54D40*
X1874646Y102086D02*
X1955354Y102086D01*
X1955354Y139488D01*
X1874646Y139488D01*
X1874646Y102086D01*D02*
X1874646Y200512D02*
X1955354Y200512D01*
X1955354Y237914D01*
X1874646Y237914D01*
X1874646Y200512D01*D02*
G54D41*
X2776457Y208583D03*
X2833543Y208583D03*
X2776457Y281417D03*
X2833543Y281417D03*
G54D42*
X3476210Y238994D03*
X3413994Y301210D03*
X3263790Y151006D03*
X3326006Y88790D03*

M02*
