G04 Generated by Ultiboard 14.2 *
%FSLAX46Y46*%
%MOIN*%

%ADD10C,0.000001*%
%ADD11C,0.005000*%
%ADD12C,0.010000*%
%ADD13C,0.020000*%
%ADD14C,0.015000*%
%ADD15C,0.050000*%
%ADD16C,0.030000*%
%ADD17C,0.007000*%
%ADD18C,0.000039*%
%ADD19C,0.015748*%
%ADD20C,0.011811*%
%ADD21R,0.037402X0.041339*%
%ADD22C,0.033465*%
%ADD23R,0.039370X0.037402*%
%ADD24R,0.016535X0.018110*%
%ADD25R,0.022835X0.025984*%
%ADD26R,0.031496X0.011811*%
%ADD27R,0.106299X0.122047*%
%ADD28R,0.018110X0.016535*%
%ADD29R,0.025984X0.022835*%
%ADD30R,0.074803X0.015748*%
%ADD31C,0.070866*%
%ADD32R,0.059055X0.039370*%
%ADD33R,0.080709X0.037402*%
%ADD34C,0.009843*%
%ADD35C,0.007874*%
%ADD36R,0.003150X0.011811*%
%ADD37C,0.003937*%
%ADD38R,0.011811X0.011221*%
%ADD39R,0.011811X0.011220*%
%ADD40C,0.047244*%
%ADD41R,0.059055X0.013780*%
%ADD42P,0.032293X4*%


G04 ColorRGB 008000 for the following layer *
%LNCopper Top*%
%LPD*%
G54D10*
G36*
X3489615Y41194D02*
X3489615Y41194D01*
X3463494Y15073D01*
X3921935Y15073D01*
X3921935Y378628D01*
X15073Y378628D01*
X15073Y15073D01*
X325421Y15073D01*
G74*
D01*
G02X247278Y61662I53012J177743*
G01*
G74*
D01*
G02X246207Y62880I8956J8955*
G01*
X246207Y62880D01*
X173883Y135204D01*
X160617Y140619D01*
G75*
D01*
G02X130000Y152307I-5617J31231*
G01*
G75*
D01*
G02X80000Y152307I-25000J19543*
G01*
G75*
D01*
G02X35457Y196850I-25000J19543*
G01*
G75*
D01*
G02X80000Y241394I19543J25000*
G01*
G75*
D01*
G02X130000Y241394I25000J-19544*
G01*
G75*
D01*
G02X180000Y241394I25000J-19544*
G01*
G75*
D01*
G02X230000Y241394I25000J-19544*
G01*
G75*
D01*
G02X280000Y241394I25000J-19544*
G01*
G75*
D01*
G02X330000Y241394I25000J-19544*
G01*
G75*
D01*
G02X374543Y196850I25000J-19544*
G01*
G74*
D01*
G02X380000Y191394I19543J25000*
G01*
G75*
D01*
G02X430000Y191394I25000J-19544*
G01*
G75*
D01*
G02X480000Y191394I25000J-19544*
G01*
G75*
D01*
G02X480000Y152307I25000J-19544*
G01*
G75*
D01*
G02X430000Y152307I-25000J19543*
G01*
G75*
D01*
G02X380000Y152307I-25000J19543*
G01*
G75*
D01*
G02X330000Y152307I-25000J19543*
G01*
G75*
D01*
G02X280000Y152307I-25000J19543*
G01*
G75*
D01*
G02X254491Y140122I-25000J19543*
G01*
X254491Y140122D01*
X304063Y90550D01*
G74*
D01*
G02X305177Y89560I7829J9933*
G01*
G75*
D01*
G03X406362Y47648I101185J101185*
G01*
G74*
D01*
G02X407850Y47560I0J12648*
G01*
X407850Y47560D01*
X2014797Y47560D01*
X2032440Y65203D01*
X2032440Y226464D01*
G74*
D01*
G02X2032569Y228261I12560J0*
G01*
G74*
D01*
G02X2037439Y240019I20966J1797*
G01*
G74*
D01*
G02X2038618Y241382I10061J7519*
G01*
X2038618Y241382D01*
X2093618Y296382D01*
G74*
D01*
G02X2094981Y297561I8882J8882*
G01*
G74*
D01*
G02X2106739Y302431I13555J16096*
G01*
G75*
D01*
G02X2108536Y302560I1797J-12431*
G01*
X2108536Y302560D01*
X2576608Y302560D01*
G75*
D01*
G02X2577574Y302598I966J-12560*
G01*
G74*
D01*
G02X2658908Y268908I0J115024*
G01*
G74*
D01*
G02X2659564Y268199I8908J8908*
G01*
X2659564Y268199D01*
X2716525Y211239D01*
G74*
D01*
G02X2717728Y209845I8882J8882*
G01*
G74*
D01*
G02X2722100Y200741I15775J13178*
G01*
G75*
D01*
G02X2724291Y200928I2191J-12749*
G01*
X2724291Y200928D01*
X2747126Y200928D01*
G74*
D01*
G02X2755000Y198256I0J12936*
G01*
G75*
D01*
G02X2762874Y200928I7874J-10264*
G01*
X2762874Y200928D01*
X2785709Y200928D01*
G74*
D01*
G02X2798639Y188389I0J12936*
G01*
X2798639Y188389D01*
X2806462Y185251D01*
G75*
D01*
G02X2814862Y188350I8400J-9838*
G01*
X2814862Y188350D01*
X2843264Y188350D01*
X2843264Y240374D01*
G75*
D01*
G02X2856201Y253310I12937J0*
G01*
X2856201Y253310D01*
X2962500Y253310D01*
G74*
D01*
G02X2973359Y247405I0J12936*
G01*
X2973359Y247405D01*
X2985616Y247405D01*
X2987374Y249162D01*
G74*
D01*
G02X2994426Y253139I10657J10658*
G01*
G75*
D01*
G02X2998031Y253576I3605J-14635*
G01*
X2998031Y253576D01*
X3026240Y253576D01*
G75*
D01*
G02X3022379Y262795I9075J9219*
G01*
X3022379Y262795D01*
X3022379Y300197D01*
G75*
D01*
G02X3035315Y313133I12936J0*
G01*
X3035315Y313133D01*
X3074685Y313133D01*
G74*
D01*
G02X3087621Y300197I0J12936*
G01*
X3087621Y300197D01*
X3087621Y262795D01*
G75*
D01*
G02X3076590Y250000I-12936J0*
G01*
G74*
D01*
G02X3087621Y237205I1905J12795*
G01*
X3087621Y237205D01*
X3087621Y223900D01*
X3100397Y208024D01*
X3182616Y125805D01*
X3186174Y125805D01*
G75*
D01*
G02X3184072Y132874I10834J7069*
G01*
X3184072Y132874D01*
X3184072Y155709D01*
G75*
D01*
G02X3197008Y168645I12936J0*
G01*
X3197008Y168645D01*
X3222992Y168645D01*
G74*
D01*
G02X3235928Y155709I0J12936*
G01*
X3235928Y155709D01*
X3235928Y151646D01*
G75*
D01*
G02X3249980Y159039I14052J-9658*
G01*
X3249980Y159039D01*
X3261791Y159039D01*
G74*
D01*
G02X3278842Y141988I0J17051*
G01*
X3278842Y141988D01*
X3278842Y130768D01*
G75*
D01*
G02X3273470Y118345I-17051J0*
G01*
X3273470Y118345D01*
X3273470Y116419D01*
G74*
D01*
G02X3278842Y103996I11679J12423*
G01*
X3278842Y103996D01*
X3278842Y92776D01*
G75*
D01*
G02X3261791Y75725I-17051J0*
G01*
X3261791Y75725D01*
X3249980Y75725D01*
G75*
D01*
G02X3234663Y85286I0J17051*
G01*
X3234663Y85286D01*
X3232169Y85174D01*
G74*
D01*
G02X3222992Y81355I9177J9117*
G01*
X3222992Y81355D01*
X3197008Y81355D01*
G75*
D01*
G02X3187415Y85612I0J12936*
G01*
X3187415Y85612D01*
X3180481Y85612D01*
G75*
D01*
G02X3177701Y85805I0J20097*
G01*
G74*
D01*
G02X3157807Y94045I2780J34846*
G01*
G74*
D01*
G02X3155704Y95875I12108J16040*
G01*
X3155704Y95875D01*
X3073691Y177888D01*
X3054602Y186867D01*
X3048091Y186867D01*
X3036168Y183674D01*
G74*
D01*
G02X3031445Y180288I26345J31752*
G01*
G74*
D01*
G02X3036546Y176613I15784J27291*
G01*
X3036546Y176613D01*
X3042090Y173316D01*
X3046063Y173316D01*
G74*
D01*
G02X3050000Y172513I0J10048*
G01*
G75*
D01*
G02X3053937Y173316I3937J-9245*
G01*
X3053937Y173316D01*
X3072047Y173316D01*
G74*
D01*
G02X3082096Y163268I0J10048*
G01*
X3082096Y163268D01*
X3082096Y146732D01*
G75*
D01*
G02X3072047Y136684I-10049J0*
G01*
X3072047Y136684D01*
X3053937Y136684D01*
G75*
D01*
G02X3050000Y137487I0J10048*
G01*
G74*
D01*
G02X3046063Y136684I3937J9245*
G01*
X3046063Y136684D01*
X3039217Y136684D01*
G74*
D01*
G02X3031831Y134750I7386J13139*
G01*
X3031831Y134750D01*
X3016775Y134750D01*
X3016775Y124232D01*
G75*
D01*
G02X3003839Y111296I-12936J0*
G01*
X3003839Y111296D01*
X2996475Y111296D01*
G75*
D01*
G02X2973525Y111296I-11475J13704*
G01*
X2973525Y111296D01*
X2973359Y111296D01*
G74*
D01*
G02X2962500Y105390I10859J7031*
G01*
X2962500Y105390D01*
X2856201Y105390D01*
G75*
D01*
G02X2845342Y111296I0J12937*
G01*
X2845342Y111296D01*
X2843975Y111296D01*
G75*
D01*
G02X2821025Y111296I-11475J13704*
G01*
X2821025Y111296D01*
X2814862Y111296D01*
G75*
D01*
G02X2801926Y124232I0J12936*
G01*
X2801926Y124232D01*
X2801926Y133650D01*
G74*
D01*
G02X2795368Y130307I9918J11350*
G01*
G74*
D01*
G02X2792485Y129935I3360J14693*
G01*
G74*
D01*
G02X2783268Y123889I9217J4002*
G01*
X2783268Y123889D01*
X2766732Y123889D01*
G75*
D01*
G02X2758141Y128725I0J10048*
G01*
X2758141Y128725D01*
X2745055Y132440D01*
X2732071Y132440D01*
G75*
D01*
G02X2730685Y132516I0J12560*
G01*
G74*
D01*
G02X2712153Y140192I1386J29555*
G01*
G74*
D01*
G02X2711118Y141118I7847J9808*
G01*
X2711118Y141118D01*
X2706118Y146118D01*
G74*
D01*
G02X2705192Y147153I8882J8882*
G01*
G74*
D01*
G02X2697516Y165685I21879J19918*
G01*
G75*
D01*
G02X2697440Y167071I12484J1386*
G01*
X2697440Y167071D01*
X2697440Y194797D01*
X2641801Y250436D01*
G74*
D01*
G02X2641092Y251092I8199J9564*
G01*
G74*
D01*
G03X2577574Y277402I63518J63518*
G01*
G75*
D01*
G02X2576608Y277440I0J12598*
G01*
X2576608Y277440D01*
X2110203Y277440D01*
X2057560Y224797D01*
X2057560Y62946D01*
G75*
D01*
G02X2057412Y61022I-12560J0*
G01*
G74*
D01*
G02X2053054Y50500I19525J1924*
G01*
G74*
D01*
G02X2051798Y49035I10137J7417*
G01*
X2051798Y49035D01*
X2035324Y32560D01*
X2050781Y32560D01*
X2098889Y80668D01*
X2098889Y93268D01*
G75*
D01*
G02X2108937Y103316I10048J0*
G01*
X2108937Y103316D01*
X2127047Y103316D01*
G74*
D01*
G02X2129927Y102894I0J10048*
G01*
X2129927Y102894D01*
X2129927Y107977D01*
G74*
D01*
G02X2124685Y106867I5242J11826*
G01*
X2124685Y106867D01*
X2085315Y106867D01*
G75*
D01*
G02X2072379Y119803I0J12936*
G01*
X2072379Y119803D01*
X2072379Y157205D01*
G75*
D01*
G02X2085315Y170141I12936J0*
G01*
X2085315Y170141D01*
X2124685Y170141D01*
G74*
D01*
G02X2137593Y158067I0J12936*
G01*
G74*
D01*
G02X2141971Y159734I7461J13013*
G01*
X2141971Y159734D01*
X2146259Y164022D01*
G75*
D01*
G02X2161639Y195065I3741J17478*
G01*
X2161639Y195065D01*
X2162042Y195065D01*
G74*
D01*
G02X2171095Y198394I10084J13451*
G01*
G74*
D01*
G02X2183480Y213589I16779J1032*
G01*
G75*
D01*
G02X2202588Y227459I19108J-6227*
G01*
X2202588Y227459D01*
X2211575Y227459D01*
G74*
D01*
G02X2214252Y227280I0J20097*
G01*
G74*
D01*
G02X2235460Y218495I2677J36456*
G01*
G74*
D01*
G02X2237480Y216729I12191J15977*
G01*
X2237480Y216729D01*
X2262532Y191676D01*
G75*
D01*
G02X2259652Y200512I12114J8836*
G01*
X2259652Y200512D01*
X2259652Y204031D01*
G75*
D01*
G02X2259652Y205969I17848J969*
G01*
X2259652Y205969D01*
X2259652Y234031D01*
G75*
D01*
G02X2259652Y235969I17848J969*
G01*
X2259652Y235969D01*
X2259652Y237913D01*
G75*
D01*
G02X2274646Y252907I14994J0*
G01*
X2274646Y252907D01*
X2355354Y252907D01*
G74*
D01*
G02X2370348Y237913I0J14994*
G01*
X2370348Y237913D01*
X2370348Y235969D01*
G75*
D01*
G02X2370348Y234031I-17848J-969*
G01*
X2370348Y234031D01*
X2370348Y205969D01*
G75*
D01*
G02X2370348Y204031I-17848J-969*
G01*
X2370348Y204031D01*
X2370348Y200512D01*
G75*
D01*
G02X2355354Y185518I-14994J0*
G01*
X2355354Y185518D01*
X2274646Y185518D01*
G75*
D01*
G02X2265810Y188398I0J14994*
G01*
X2265810Y188398D01*
X2290292Y163916D01*
X2320260Y154482D01*
X2355354Y154482D01*
G74*
D01*
G02X2365012Y150957I0J14994*
G01*
X2365012Y150957D01*
X2374505Y150957D01*
G75*
D01*
G02X2423465Y188551I48960J-13083*
G01*
X2423465Y188551D01*
X2498268Y188551D01*
G74*
D01*
G02X2524534Y181213I0J50677*
G01*
X2524534Y181213D01*
X2524534Y208740D01*
G75*
D01*
G02X2539606Y223813I15072J0*
G01*
X2539606Y223813D01*
X2598661Y223813D01*
G74*
D01*
G02X2613734Y208740I0J15073*
G01*
X2613734Y208740D01*
X2613734Y169370D01*
G75*
D01*
G02X2610077Y159528I-15073J0*
G01*
G74*
D01*
G02X2613028Y154244I11416J9843*
G01*
G75*
D01*
G02X2625315Y163133I12287J-4047*
G01*
X2625315Y163133D01*
X2664685Y163133D01*
G74*
D01*
G02X2677621Y150197I0J12936*
G01*
X2677621Y150197D01*
X2677621Y112795D01*
G75*
D01*
G02X2666590Y100000I-12936J0*
G01*
G74*
D01*
G02X2677621Y87205I1905J12795*
G01*
X2677621Y87205D01*
X2677621Y65402D01*
X2684745Y48676D01*
X2693324Y40097D01*
X3431676Y40097D01*
X3461194Y69615D01*
G74*
D01*
G02X3461927Y70312I14211J14210*
G01*
G74*
D01*
G03X3464929Y77559I9687J8258*
G01*
G74*
D01*
G02X3464905Y78289I20071J1011*
G01*
X3464905Y78289D01*
X3454476Y78289D01*
G75*
D01*
G02X3454420Y78289I-28J20097*
G01*
X3454420Y78289D01*
X3454248Y78289D01*
G74*
D01*
G02X3445256Y75725I8992J14487*
G01*
X3445256Y75725D01*
X3433445Y75725D01*
G75*
D01*
G02X3416394Y92776I0J17051*
G01*
X3416394Y92776D01*
X3416394Y103996D01*
G74*
D01*
G02X3419254Y113448I17051J0*
G01*
X3419254Y113448D01*
X3419254Y121316D01*
G75*
D01*
G02X3416394Y130768I14191J9452*
G01*
X3416394Y130768D01*
X3416394Y141988D01*
G75*
D01*
G02X3433445Y159039I17051J0*
G01*
X3433445Y159039D01*
X3445256Y159039D01*
G74*
D01*
G02X3459072Y151981I0J17051*
G01*
X3459072Y151981D01*
X3459072Y155709D01*
G75*
D01*
G02X3472008Y168645I12936J0*
G01*
X3472008Y168645D01*
X3497992Y168645D01*
G74*
D01*
G02X3510928Y155709I0J12936*
G01*
X3510928Y155709D01*
X3510928Y132874D01*
G75*
D01*
G02X3508256Y125000I-12936J0*
G01*
G74*
D01*
G02X3510928Y117126I10264J7874*
G01*
X3510928Y117126D01*
X3510928Y94291D01*
G75*
D01*
G02X3505097Y83481I-12936J0*
G01*
X3505097Y83481D01*
X3505097Y78570D01*
G75*
D01*
G02X3504991Y76511I-20097J0*
G01*
G74*
D01*
G02X3490996Y42724I52751J2059*
G01*
G74*
D01*
G02X3489615Y41194I15591J12681*
G01*
D02*
G37*
%LPC*%
G36*
X938150Y213960D02*
G74*
D01*
G02X949009Y208054I0J12936*
G01*
X949009Y208054D01*
X979488Y208054D01*
G74*
D01*
G02X988568Y204332I0J12936*
G01*
X988568Y204332D01*
X989909Y204285D01*
X995012Y204285D01*
G74*
D01*
G02X996616Y204200I0J15072*
G01*
G74*
D01*
G02X1007379Y202132I1604J37390*
G01*
X1007379Y202132D01*
X1007379Y235197D01*
G75*
D01*
G02X1020315Y248133I12936J0*
G01*
X1020315Y248133D01*
X1059685Y248133D01*
G74*
D01*
G02X1072621Y235197I0J12936*
G01*
X1072621Y235197D01*
X1072621Y197795D01*
G75*
D01*
G02X1061590Y185000I-12936J0*
G01*
G74*
D01*
G02X1072621Y172205I1905J12795*
G01*
X1072621Y172205D01*
X1072621Y134803D01*
G75*
D01*
G02X1059685Y121867I-12936J0*
G01*
X1059685Y121867D01*
X1037085Y121867D01*
G74*
D01*
G02X1038316Y117047I8817J4820*
G01*
X1038316Y117047D01*
X1038316Y98937D01*
G75*
D01*
G02X1038297Y98316I-10048J0*
G01*
X1038297Y98316D01*
X1056063Y98316D01*
G74*
D01*
G02X1060000Y97513I0J10048*
G01*
G75*
D01*
G02X1063937Y98316I3937J-9245*
G01*
X1063937Y98316D01*
X1082047Y98316D01*
G74*
D01*
G02X1092096Y88268I0J10048*
G01*
X1092096Y88268D01*
X1092096Y71732D01*
G75*
D01*
G02X1082047Y61684I-10049J0*
G01*
X1082047Y61684D01*
X1063937Y61684D01*
G75*
D01*
G02X1060000Y62487I0J10048*
G01*
G74*
D01*
G02X1056063Y61684I3937J9245*
G01*
X1056063Y61684D01*
X1037953Y61684D01*
G75*
D01*
G02X1032054Y63597I0J10048*
G01*
X1032054Y63597D01*
X1031966Y63610D01*
G74*
D01*
G02X1028268Y62904I3698J9343*
G01*
X1028268Y62904D01*
X1011732Y62904D01*
G75*
D01*
G02X1001734Y71950I0J10049*
G01*
X1001734Y71950D01*
X992018Y81666D01*
G74*
D01*
G02X979488Y71946I12530J3216*
G01*
X979488Y71946D01*
X974709Y71946D01*
G75*
D01*
G02X950291Y71946I-12209J13054*
G01*
X950291Y71946D01*
X949009Y71946D01*
G74*
D01*
G02X938150Y66040I10859J7030*
G01*
X938150Y66040D01*
X831850Y66040D01*
G75*
D01*
G02X820991Y71946I0J12936*
G01*
X820991Y71946D01*
X819709Y71946D01*
G75*
D01*
G02X795291Y71946I-12209J13054*
G01*
X795291Y71946D01*
X790512Y71946D01*
G75*
D01*
G02X777576Y84882I0J12936*
G01*
X777576Y84882D01*
X777576Y89548D01*
G74*
D01*
G02X761027Y83041I18459J22648*
G01*
G74*
D01*
G02X759117Y82920I1910J14951*
G01*
X759117Y82920D01*
X704388Y82920D01*
X690306Y80781D01*
G74*
D01*
G02X683268Y77904I7038J7172*
G01*
X683268Y77904D01*
X666732Y77904D01*
G75*
D01*
G02X656684Y87953I0J10049*
G01*
X656684Y87953D01*
X656684Y106063D01*
G75*
D01*
G02X666732Y116111I10048J0*
G01*
X666732Y116111D01*
X682777Y116111D01*
G75*
D01*
G02X681355Y122008I11514J5897*
G01*
X681355Y122008D01*
X681355Y147992D01*
G75*
D01*
G02X694291Y160928I12936J0*
G01*
X694291Y160928D01*
X717126Y160928D01*
G74*
D01*
G02X725000Y158256I0J12936*
G01*
G75*
D01*
G02X732874Y160928I7874J-10264*
G01*
X732874Y160928D01*
X755709Y160928D01*
G74*
D01*
G02X768620Y148796I0J12936*
G01*
X768620Y148796D01*
X778079Y145230D01*
X780091Y145230D01*
X781432Y145277D01*
G75*
D01*
G02X790512Y148999I9080J-9214*
G01*
X790512Y148999D01*
X818914Y148999D01*
X818914Y201024D01*
G75*
D01*
G02X831850Y213960I12936J0*
G01*
X831850Y213960D01*
X938150Y213960D01*
D02*
G37*
G36*
X1886775Y69232D02*
G75*
D01*
G02X1873839Y56296I-12936J0*
G01*
X1873839Y56296D01*
X1866475Y56296D01*
G75*
D01*
G02X1843525Y56296I-11475J13704*
G01*
X1843525Y56296D01*
X1843359Y56296D01*
G74*
D01*
G02X1832500Y50390I10859J7031*
G01*
X1832500Y50390D01*
X1726201Y50390D01*
G75*
D01*
G02X1715342Y56296I0J12937*
G01*
X1715342Y56296D01*
X1713975Y56296D01*
G75*
D01*
G02X1691025Y56296I-11475J13704*
G01*
X1691025Y56296D01*
X1684862Y56296D01*
G75*
D01*
G02X1671926Y69232I0J12936*
G01*
X1671926Y69232D01*
X1671926Y70871D01*
G74*
D01*
G02X1661371Y68046I12503J25585*
G01*
G74*
D01*
G02X1659423Y67920I1948J14946*
G01*
X1659423Y67920D01*
X1604388Y67920D01*
X1590306Y65781D01*
G74*
D01*
G02X1583268Y62904I7038J7172*
G01*
X1583268Y62904D01*
X1566732Y62904D01*
G75*
D01*
G02X1556684Y72953I0J10049*
G01*
X1556684Y72953D01*
X1556684Y91063D01*
G75*
D01*
G02X1566732Y101111I10048J0*
G01*
X1566732Y101111D01*
X1583268Y101111D01*
G74*
D01*
G02X1588784Y99462I0J10048*
G01*
G75*
D01*
G02X1586355Y107008I10507J7546*
G01*
X1586355Y107008D01*
X1586355Y132992D01*
G75*
D01*
G02X1599291Y145928I12936J0*
G01*
X1599291Y145928D01*
X1622126Y145928D01*
G74*
D01*
G02X1630000Y143256I0J12936*
G01*
G75*
D01*
G02X1637874Y145928I7874J-10264*
G01*
X1637874Y145928D01*
X1660709Y145928D01*
G74*
D01*
G02X1673639Y133389I0J12936*
G01*
X1673639Y133389D01*
X1678257Y131537D01*
G75*
D01*
G02X1684862Y133350I6605J-11124*
G01*
X1684862Y133350D01*
X1713264Y133350D01*
X1713264Y185374D01*
G75*
D01*
G02X1726201Y198310I12937J0*
G01*
X1726201Y198310D01*
X1832500Y198310D01*
G74*
D01*
G02X1843359Y192405I0J12936*
G01*
X1843359Y192405D01*
X1873839Y192405D01*
G74*
D01*
G02X1882919Y188682I0J12936*
G01*
X1882919Y188682D01*
X1884260Y188636D01*
X1895661Y188636D01*
G74*
D01*
G02X1897266Y188550I0J15073*
G01*
G74*
D01*
G02X1898111Y188504I1605J37390*
G01*
G75*
D01*
G02X1897379Y192795I12204J4291*
G01*
X1897379Y192795D01*
X1897379Y230197D01*
G75*
D01*
G02X1910315Y243133I12936J0*
G01*
X1910315Y243133D01*
X1949685Y243133D01*
G74*
D01*
G02X1962621Y230197I0J12936*
G01*
X1962621Y230197D01*
X1962621Y192795D01*
G75*
D01*
G02X1962482Y190903I-12936J0*
G01*
X1962482Y190903D01*
X1984903Y213324D01*
X1984903Y255417D01*
G74*
D01*
G02X1985146Y258528I20097J0*
G01*
G74*
D01*
G02X1992001Y275079I30919J3111*
G01*
G74*
D01*
G02X1994030Y277451I16240J11838*
G01*
X1994030Y277451D01*
X2044123Y327544D01*
G74*
D01*
G02X2044629Y328032I14210J14211*
G01*
G74*
D01*
G02X2122011Y360084I78083J79078*
G01*
G75*
D01*
G02X2122712Y360097I701J-20084*
G01*
X2122712Y360097D01*
X3086058Y360097D01*
G74*
D01*
G02X3088741Y359917I0J20097*
G01*
G74*
D01*
G02X3109880Y351161I2683J36372*
G01*
G74*
D01*
G02X3111904Y349391I12186J15981*
G01*
X3111904Y349391D01*
X3130109Y331186D01*
G74*
D01*
G02X3131760Y329316I14210J14211*
G01*
G74*
D01*
G02X3141733Y305245I30087J26567*
G01*
G74*
D01*
G02X3141758Y305222I8741J9536*
G01*
X3141758Y305222D01*
X3143057Y305422D01*
G75*
D01*
G02X3157756Y317159I14699J-3335*
G01*
X3157756Y317159D01*
X3195157Y317159D01*
G74*
D01*
G02X3205000Y313502I0J15072*
G01*
G75*
D01*
G02X3214843Y317159I9843J-11415*
G01*
X3214843Y317159D01*
X3252244Y317159D01*
G74*
D01*
G02X3267317Y302087I0J15072*
G01*
X3267317Y302087D01*
X3267317Y281716D01*
X3269072Y278909D01*
X3269072Y285709D01*
G75*
D01*
G02X3282008Y298645I12936J0*
G01*
X3282008Y298645D01*
X3307992Y298645D01*
G74*
D01*
G02X3320928Y285709I0J12936*
G01*
X3320928Y285709D01*
X3320928Y262874D01*
G75*
D01*
G02X3320627Y260097I-12936J0*
G01*
X3320627Y260097D01*
X3326116Y260097D01*
G75*
D01*
G02X3326129Y260097I7J-20097*
G01*
X3326129Y260097D01*
X3362008Y260097D01*
G74*
D01*
G02X3370278Y258316I0J20097*
G01*
X3370278Y258316D01*
X3371063Y258316D01*
G74*
D01*
G02X3375000Y257513I0J10048*
G01*
G75*
D01*
G02X3378937Y258316I3937J-9245*
G01*
X3378937Y258316D01*
X3397047Y258316D01*
G74*
D01*
G02X3407096Y248268I0J10048*
G01*
X3407096Y248268D01*
X3407096Y231732D01*
G75*
D01*
G02X3405554Y226384I-10049J0*
G01*
G74*
D01*
G02X3408645Y217992I9845J8392*
G01*
X3408645Y217992D01*
X3408645Y192008D01*
G75*
D01*
G02X3395709Y179072I-12936J0*
G01*
X3395709Y179072D01*
X3378299Y179072D01*
X3371991Y172763D01*
G74*
D01*
G02X3372645Y172677I1991J17763*
G01*
G75*
D01*
G02X3373602Y172715I957J-11988*
G01*
X3373602Y172715D01*
X3376752Y172715D01*
G74*
D01*
G02X3379018Y172500I0J12026*
G01*
X3379018Y172500D01*
X3383863Y172500D01*
G75*
D01*
G02X3389876Y172715I3637J-17500*
G01*
X3389876Y172715D01*
X3390531Y172715D01*
G74*
D01*
G02X3400815Y166924I0J12026*
G01*
G75*
D01*
G02X3401438Y143810I-13315J-11924*
G01*
G74*
D01*
G02X3390531Y136852I10907J5068*
G01*
X3390531Y136852D01*
X3387382Y136852D01*
G75*
D01*
G02X3383486Y137500I0J12026*
G01*
X3383486Y137500D01*
X3380648Y137500D01*
G74*
D01*
G02X3376752Y136852I3896J11378*
G01*
X3376752Y136852D01*
X3373602Y136852D01*
G75*
D01*
G02X3370937Y137151I0J12026*
G01*
G75*
D01*
G02X3366679Y137437I-937J17849*
G01*
G74*
D01*
G02X3362972Y136852I3707J11441*
G01*
X3362972Y136852D01*
X3359823Y136852D01*
G75*
D01*
G02X3354508Y138090I0J12026*
G01*
G74*
D01*
G02X3349193Y136852I5315J10788*
G01*
X3349193Y136852D01*
X3346043Y136852D01*
G75*
D01*
G02X3340728Y138090I0J12026*
G01*
G74*
D01*
G02X3335413Y136852I5315J10788*
G01*
X3335413Y136852D01*
X3332264Y136852D01*
G75*
D01*
G02X3326949Y138090I0J12026*
G01*
G74*
D01*
G02X3321634Y136852I5315J10788*
G01*
X3321634Y136852D01*
X3318484Y136852D01*
G75*
D01*
G02X3313169Y138090I0J12026*
G01*
G74*
D01*
G02X3307854Y136852I5315J10788*
G01*
X3307854Y136852D01*
X3304705Y136852D01*
G75*
D01*
G02X3292678Y148878I0J12026*
G01*
X3292678Y148878D01*
X3292678Y149744D01*
X3280951Y163411D01*
X3264795Y179568D01*
G74*
D01*
G02X3252244Y172841I12551J8345*
G01*
X3252244Y172841D01*
X3214843Y172841D01*
G75*
D01*
G02X3205000Y176498I0J15072*
G01*
G74*
D01*
G02X3195157Y172841I9843J11415*
G01*
X3195157Y172841D01*
X3157756Y172841D01*
G75*
D01*
G02X3142683Y187913I0J15072*
G01*
X3142683Y187913D01*
X3142683Y225722D01*
G74*
D01*
G02X3132992Y221355I9691J8569*
G01*
X3132992Y221355D01*
X3107008Y221355D01*
G75*
D01*
G02X3094072Y234291I0J12936*
G01*
X3094072Y234291D01*
X3094072Y257126D01*
G74*
D01*
G02X3096744Y265000I12936J0*
G01*
G75*
D01*
G02X3094072Y272874I10264J7874*
G01*
X3094072Y272874D01*
X3094072Y295709D01*
G74*
D01*
G02X3098770Y305683I12936J0*
G01*
X3098770Y305683D01*
X3084550Y319903D01*
X2122712Y319903D01*
G75*
D01*
G02X2122151Y319911I0J20097*
G01*
G74*
D01*
G03X2072934Y299524I561J70957*
G01*
G74*
D01*
G02X2072544Y299123I14601J13809*
G01*
X2072544Y299123D01*
X2025097Y251676D01*
X2025097Y209583D01*
G75*
D01*
G02X2024854Y206472I-20097J0*
G01*
G74*
D01*
G02X2017998Y189920I30919J3111*
G01*
G74*
D01*
G02X2015970Y187549I16239J11839*
G01*
X2015970Y187549D01*
X1979229Y150808D01*
G74*
D01*
G02X1979205Y150783I14223J14198*
G01*
X1979205Y150783D01*
X1962738Y134317D01*
G74*
D01*
G02X1962621Y134201I14234J14187*
G01*
X1962621Y134201D01*
X1962621Y129803D01*
G75*
D01*
G02X1949685Y116867I-12936J0*
G01*
X1949685Y116867D01*
X1930399Y116867D01*
G74*
D01*
G02X1938316Y107047I2131J9820*
G01*
X1938316Y107047D01*
X1938316Y90169D01*
X1938668Y90166D01*
X1952631Y91791D01*
G75*
D01*
G02X1957953Y93316I5322J-8523*
G01*
X1957953Y93316D01*
X1966365Y93316D01*
G75*
D01*
G02X1966895Y93316I265J-15070*
G01*
X1966895Y93316D01*
X1976063Y93316D01*
G74*
D01*
G02X1980000Y92513I0J10048*
G01*
G75*
D01*
G02X1983937Y93316I3937J-9245*
G01*
X1983937Y93316D01*
X2002047Y93316D01*
G74*
D01*
G02X2012096Y83268I0J10048*
G01*
X2012096Y83268D01*
X2012096Y80217D01*
G75*
D01*
G02X2012096Y69783I-17096J-5217*
G01*
X2012096Y69783D01*
X2012096Y66732D01*
G75*
D01*
G02X2002047Y56684I-10049J0*
G01*
X2002047Y56684D01*
X1983937Y56684D01*
G75*
D01*
G02X1980000Y57487I0J10048*
G01*
G74*
D01*
G02X1976063Y56684I3937J9245*
G01*
X1976063Y56684D01*
X1966895Y56684D01*
G75*
D01*
G02X1966486Y56682I-265J15070*
G01*
G74*
D01*
G02X1966365Y56684I144J15072*
G01*
X1966365Y56684D01*
X1957953Y56684D01*
G75*
D01*
G02X1952631Y58209I0J10048*
G01*
X1952631Y58209D01*
X1945731Y59012D01*
X1936272Y56878D01*
G74*
D01*
G02X1928268Y52904I8004J6075*
G01*
X1928268Y52904D01*
X1911732Y52904D01*
G75*
D01*
G02X1901734Y61950I0J10049*
G01*
X1901734Y61950D01*
X1887082Y76602D01*
G74*
D01*
G02X1886775Y76918I10658J10658*
G01*
X1886775Y76918D01*
X1886775Y69232D01*
D02*
G37*
G36*
X3764455Y339564D02*
G75*
D01*
G02X3764455Y339564I4539J-38354*
G01*
D02*
G37*
G36*
X3792588Y238994D02*
G75*
D01*
G02X3792588Y238994I38622J0*
G01*
D02*
G37*
G36*
X2744072Y237126D02*
G75*
D01*
G02X2757008Y250062I12936J0*
G01*
X2757008Y250062D01*
X2782992Y250062D01*
G74*
D01*
G02X2795928Y237126I0J12936*
G01*
X2795928Y237126D01*
X2795928Y214291D01*
G75*
D01*
G02X2782992Y201355I-12936J0*
G01*
X2782992Y201355D01*
X2757008Y201355D01*
G75*
D01*
G02X2744072Y214291I0J12936*
G01*
X2744072Y214291D01*
X2744072Y237126D01*
D02*
G37*
G36*
X1484072Y78452D02*
G74*
D01*
G02X1478701Y77186I5371J10761*
G01*
X1478701Y77186D01*
X1419646Y77186D01*
G75*
D01*
G02X1407619Y89213I0J12027*
G01*
X1407619Y89213D01*
X1407619Y102992D01*
G74*
D01*
G02X1409169Y108898I12027J0*
G01*
G75*
D01*
G02X1407619Y114803I10477J5905*
G01*
X1407619Y114803D01*
X1407619Y128583D01*
G74*
D01*
G02X1409169Y134488I12027J0*
G01*
G75*
D01*
G02X1407619Y140394I10477J5906*
G01*
X1407619Y140394D01*
X1407619Y154173D01*
G74*
D01*
G02X1409169Y160079I12027J0*
G01*
G75*
D01*
G02X1407619Y165984I10477J5905*
G01*
X1407619Y165984D01*
X1407619Y179764D01*
G74*
D01*
G02X1409169Y185669I12027J0*
G01*
G75*
D01*
G02X1407619Y191575I10477J5906*
G01*
X1407619Y191575D01*
X1407619Y205354D01*
G74*
D01*
G02X1409169Y211260I12027J0*
G01*
G75*
D01*
G02X1407619Y217165I10477J5905*
G01*
X1407619Y217165D01*
X1407619Y230945D01*
G74*
D01*
G02X1409169Y236850I12027J0*
G01*
G75*
D01*
G02X1407619Y242756I10477J5906*
G01*
X1407619Y242756D01*
X1407619Y256535D01*
G74*
D01*
G02X1409169Y262441I12027J0*
G01*
G75*
D01*
G02X1407619Y268346I10477J5905*
G01*
X1407619Y268346D01*
X1407619Y282126D01*
G74*
D01*
G02X1409169Y288031I12027J0*
G01*
G75*
D01*
G02X1407619Y293937I10477J5906*
G01*
X1407619Y293937D01*
X1407619Y307717D01*
G74*
D01*
G02X1409169Y313622I12027J0*
G01*
G75*
D01*
G02X1407619Y319528I10477J5906*
G01*
X1407619Y319528D01*
X1407619Y333307D01*
G75*
D01*
G02X1419646Y345333I12027J0*
G01*
X1419646Y345333D01*
X1478701Y345333D01*
G74*
D01*
G02X1485127Y343472I0J12026*
G01*
X1485127Y343472D01*
X1490273Y344748D01*
G75*
D01*
G02X1497953Y348316I7680J-6480*
G01*
X1497953Y348316D01*
X1516063Y348316D01*
G74*
D01*
G02X1520000Y347513I0J10048*
G01*
G75*
D01*
G02X1523937Y348316I3937J-9245*
G01*
X1523937Y348316D01*
X1542047Y348316D01*
G74*
D01*
G02X1552096Y338268I0J10048*
G01*
X1552096Y338268D01*
X1552096Y321732D01*
G75*
D01*
G02X1542047Y311684I-10049J0*
G01*
X1542047Y311684D01*
X1523937Y311684D01*
G75*
D01*
G02X1520000Y312487I0J10048*
G01*
G74*
D01*
G02X1516063Y311684I3937J9245*
G01*
X1516063Y311684D01*
X1507895Y311684D01*
G74*
D01*
G02X1507214Y311661I851J15048*
G01*
X1507214Y311661D01*
X1506455Y311652D01*
G74*
D01*
G02X1503425Y311345I3030J14765*
G01*
X1503425Y311345D01*
X1490167Y311345D01*
G74*
D01*
G02X1490727Y307717I11466J3628*
G01*
X1490727Y307717D01*
X1490727Y293937D01*
G75*
D01*
G02X1489177Y288031I-12026J0*
G01*
G74*
D01*
G02X1490727Y282126I10476J5905*
G01*
X1490727Y282126D01*
X1490727Y268346D01*
G75*
D01*
G02X1489177Y262441I-12026J0*
G01*
G74*
D01*
G02X1490727Y256535I10476J5906*
G01*
X1490727Y256535D01*
X1490727Y242756D01*
G75*
D01*
G02X1489177Y236850I-12026J0*
G01*
G74*
D01*
G02X1490727Y230945I10476J5905*
G01*
X1490727Y230945D01*
X1490727Y217165D01*
G75*
D01*
G02X1489177Y211260I-12026J0*
G01*
G74*
D01*
G02X1490727Y205354I10476J5906*
G01*
X1490727Y205354D01*
X1490727Y191575D01*
G75*
D01*
G02X1489177Y185669I-12026J0*
G01*
G74*
D01*
G02X1490727Y179764I10476J5905*
G01*
X1490727Y179764D01*
X1490727Y165984D01*
G75*
D01*
G02X1489177Y160079I-12026J0*
G01*
G74*
D01*
G02X1490727Y154173I10476J5906*
G01*
X1490727Y154173D01*
X1490727Y142018D01*
G75*
D01*
G02X1497008Y143645I6281J-11309*
G01*
X1497008Y143645D01*
X1522992Y143645D01*
G74*
D01*
G02X1535928Y130709I0J12936*
G01*
X1535928Y130709D01*
X1535928Y107874D01*
G75*
D01*
G02X1533256Y100000I-12936J0*
G01*
G74*
D01*
G02X1535928Y92126I10264J7874*
G01*
X1535928Y92126D01*
X1535928Y69291D01*
G75*
D01*
G02X1522992Y56355I-12936J0*
G01*
X1522992Y56355D01*
X1497008Y56355D01*
G75*
D01*
G02X1484072Y69291I0J12936*
G01*
X1484072Y69291D01*
X1484072Y78452D01*
D02*
G37*
G36*
X1198703Y345333D02*
X1198703Y345333D01*
X1218797Y345333D01*
G75*
D01*
G02X1221203Y345333I1203J-17833*
G01*
X1221203Y345333D01*
X1241297Y345333D01*
G75*
D01*
G02X1243703Y345333I1203J-17833*
G01*
X1243703Y345333D01*
X1250354Y345333D01*
G74*
D01*
G02X1262381Y333307I0J12026*
G01*
X1262381Y333307D01*
X1262381Y319528D01*
G75*
D01*
G02X1260831Y313622I-12027J0*
G01*
G74*
D01*
G02X1262381Y307717I10477J5905*
G01*
X1262381Y307717D01*
X1262381Y293937D01*
G75*
D01*
G02X1260831Y288031I-12027J0*
G01*
G74*
D01*
G02X1262381Y282126I10477J5905*
G01*
X1262381Y282126D01*
X1262381Y268346D01*
G75*
D01*
G02X1260831Y262441I-12027J0*
G01*
G74*
D01*
G02X1262381Y256535I10477J5906*
G01*
X1262381Y256535D01*
X1262381Y242756D01*
G75*
D01*
G02X1260831Y236850I-12027J0*
G01*
G74*
D01*
G02X1262381Y230945I10477J5905*
G01*
X1262381Y230945D01*
X1262381Y217165D01*
G75*
D01*
G02X1260831Y211260I-12027J0*
G01*
G74*
D01*
G02X1262381Y205354I10477J5906*
G01*
X1262381Y205354D01*
X1262381Y191575D01*
G75*
D01*
G02X1260831Y185669I-12027J0*
G01*
G74*
D01*
G02X1262381Y179764I10477J5905*
G01*
X1262381Y179764D01*
X1262381Y165984D01*
G75*
D01*
G02X1260831Y160079I-12027J0*
G01*
G74*
D01*
G02X1262381Y154173I10477J5906*
G01*
X1262381Y154173D01*
X1262381Y140394D01*
G75*
D01*
G02X1250354Y128367I-12027J0*
G01*
X1250354Y128367D01*
X1191299Y128367D01*
G75*
D01*
G02X1179273Y140394I0J12027*
G01*
X1179273Y140394D01*
X1179273Y154173D01*
G74*
D01*
G02X1180823Y160079I12026J0*
G01*
G75*
D01*
G02X1179273Y165984I10476J5905*
G01*
X1179273Y165984D01*
X1179273Y179764D01*
G74*
D01*
G02X1180823Y185669I12026J0*
G01*
G75*
D01*
G02X1179273Y191575I10476J5906*
G01*
X1179273Y191575D01*
X1179273Y205354D01*
G74*
D01*
G02X1180823Y211260I12026J0*
G01*
G75*
D01*
G02X1179273Y217165I10476J5905*
G01*
X1179273Y217165D01*
X1179273Y230945D01*
G74*
D01*
G02X1180823Y236850I12026J0*
G01*
G75*
D01*
G02X1179273Y242756I10476J5906*
G01*
X1179273Y242756D01*
X1179273Y256535D01*
G74*
D01*
G02X1180823Y262441I12026J0*
G01*
G75*
D01*
G02X1179273Y268346I10476J5905*
G01*
X1179273Y268346D01*
X1179273Y282126D01*
G74*
D01*
G02X1180823Y288031I12026J0*
G01*
G75*
D01*
G02X1179273Y293937I10476J5906*
G01*
X1179273Y293937D01*
X1179273Y307717D01*
G74*
D01*
G02X1180823Y313622I12026J0*
G01*
G75*
D01*
G02X1179273Y319528I10476J5906*
G01*
X1179273Y319528D01*
X1179273Y333307D01*
G75*
D01*
G02X1191299Y345333I12026J0*
G01*
X1191299Y345333D01*
X1196297Y345333D01*
G75*
D01*
G02X1198703Y345333I1203J-17833*
G01*
D02*
G37*
G36*
X1727874Y199072D02*
G75*
D01*
G02X1714938Y212008I0J12936*
G01*
X1714938Y212008D01*
X1714938Y237992D01*
G75*
D01*
G02X1727874Y250928I12936J0*
G01*
X1727874Y250928D01*
X1750709Y250928D01*
G74*
D01*
G02X1763645Y237992I0J12936*
G01*
X1763645Y237992D01*
X1763645Y212008D01*
G75*
D01*
G02X1750709Y199072I-12936J0*
G01*
X1750709Y199072D01*
X1727874Y199072D01*
D02*
G37*
G36*
X1147766Y178902D02*
G75*
D01*
G02X1147766Y160607I-9147J-9147*
G01*
X1147766Y160607D01*
X1129393Y142234D01*
G75*
D01*
G02X1111098Y142234I-9148J9147*
G01*
X1111098Y142234D01*
X1094952Y158380D01*
G75*
D01*
G02X1094952Y176675I9147J9147*
G01*
X1094952Y176675D01*
X1113325Y195048D01*
G75*
D01*
G02X1131620Y195048I9148J-9147*
G01*
X1131620Y195048D01*
X1147766Y178902D01*
D02*
G37*
G36*
X1179273Y102992D02*
G75*
D01*
G02X1191299Y115019I12026J0*
G01*
X1191299Y115019D01*
X1250354Y115019D01*
G74*
D01*
G02X1262381Y102992I0J12027*
G01*
X1262381Y102992D01*
X1262381Y89213D01*
G75*
D01*
G02X1250354Y77186I-12027J0*
G01*
X1250354Y77186D01*
X1191299Y77186D01*
G75*
D01*
G02X1179273Y89213I0J12027*
G01*
X1179273Y89213D01*
X1179273Y102992D01*
D02*
G37*
G36*
X760928Y212874D02*
G75*
D01*
G02X747992Y199938I-12936J0*
G01*
X747992Y199938D01*
X722008Y199938D01*
G75*
D01*
G02X709072Y212874I0J12936*
G01*
X709072Y212874D01*
X709072Y235709D01*
G75*
D01*
G02X722008Y248645I12936J0*
G01*
X722008Y248645D01*
X747992Y248645D01*
G74*
D01*
G02X760928Y235709I0J12936*
G01*
X760928Y235709D01*
X760928Y212874D01*
D02*
G37*
G36*
X622621Y139803D02*
G75*
D01*
G02X609685Y126867I-12936J0*
G01*
X609685Y126867D01*
X570315Y126867D01*
G75*
D01*
G02X557379Y139803I0J12936*
G01*
X557379Y139803D01*
X557379Y177205D01*
G75*
D01*
G02X570315Y190141I12936J0*
G01*
X570315Y190141D01*
X609685Y190141D01*
G74*
D01*
G02X622621Y177205I0J12936*
G01*
X622621Y177205D01*
X622621Y139803D01*
D02*
G37*
G36*
X3325016Y47644D02*
G75*
D01*
G02X3299433Y63265I-10016J12356*
G01*
G75*
D01*
G02X3292678Y74075I5272J10810*
G01*
X3292678Y74075D01*
X3292678Y84558D01*
X3292251Y84985D01*
G75*
D01*
G02X3313393Y99370I5249J15015*
G01*
X3313393Y99370D01*
X3315142Y97621D01*
G74*
D01*
G02X3315283Y97478I8862J8901*
G01*
G75*
D01*
G02X3318484Y97912I3201J-11592*
G01*
X3318484Y97912D01*
X3321634Y97912D01*
G74*
D01*
G02X3326949Y96674I0J12026*
G01*
G75*
D01*
G02X3332264Y97912I5315J-10788*
G01*
X3332264Y97912D01*
X3334796Y97912D01*
X3334902Y100291D01*
G75*
D01*
G02X3363381Y110881I12598J9709*
G01*
G74*
D01*
G02X3378152Y97830I881J15881*
G01*
G74*
D01*
G02X3382067Y96674I1400J11944*
G01*
G75*
D01*
G02X3387382Y97912I5315J-10788*
G01*
X3387382Y97912D01*
X3390532Y97912D01*
G74*
D01*
G02X3402558Y85886I0J12026*
G01*
X3402558Y85886D01*
X3402558Y80076D01*
G75*
D01*
G02X3402558Y79768I-12560J-154*
G01*
X3402558Y79768D01*
X3402558Y74075D01*
G75*
D01*
G02X3402055Y70635I-12026J0*
G01*
X3402055Y70635D01*
X3401843Y66874D01*
G75*
D01*
G02X3371746Y62192I-14343J-6874*
G01*
G74*
D01*
G02X3368287Y63287I1856J11883*
G01*
G74*
D01*
G02X3362972Y62048I5315J10788*
G01*
X3362972Y62048D01*
X3359823Y62048D01*
G75*
D01*
G02X3354508Y63287I0J12027*
G01*
G74*
D01*
G02X3352587Y62537I5315J10788*
G01*
G75*
D01*
G02X3325016Y47644I-15087J-5037*
G01*
D02*
G37*
G36*
X3642384Y88790D02*
G75*
D01*
G02X3642384Y88790I38622J0*
G01*
D02*
G37*
%LPD*%
G36*
X2204431Y32821D02*
G74*
D01*
G02X2190197Y26911I14234J14187*
G01*
X2190197Y26911D01*
X2180000Y26911D01*
G75*
D01*
G02X2173760Y27904I0J20097*
G01*
X2173760Y27904D01*
X2166732Y27904D01*
G75*
D01*
G02X2156734Y36950I0J10049*
G01*
X2156734Y36950D01*
X2142006Y51678D01*
G74*
D01*
G02X2140997Y52794I10658J10658*
G01*
G74*
D01*
G02X2132026Y68004I30170J28045*
G01*
G74*
D01*
G02X2127047Y66684I4979J8728*
G01*
X2127047Y66684D01*
X2120431Y66684D01*
X2068820Y15073D01*
X2661506Y15073D01*
X2654074Y22505D01*
X2637521Y36867D01*
X2625315Y36867D01*
G75*
D01*
G02X2612877Y46249I0J12936*
G01*
G74*
D01*
G02X2598661Y36187I14216J5011*
G01*
X2598661Y36187D01*
X2539606Y36187D01*
G75*
D01*
G02X2526741Y43407I0J15073*
G01*
X2526741Y43407D01*
X2215017Y43407D01*
X2204431Y32821D01*
D02*
G37*
G36*
X3360000Y155000D02*
G75*
D01*
G03X3365000Y150000I5000J0*
G01*
X3365000Y150000D01*
X3385000Y150000D01*
G75*
D01*
G03X3390000Y155000I0J5000*
G01*
G74*
D01*
G03X3385000Y160000I5000J0*
G01*
X3385000Y160000D01*
X3365000Y160000D01*
G75*
D01*
G03X3360000Y155000I0J-5000*
G01*
D02*
G37*
G54D11*
X3360000Y155000D02*
G75*
D01*
G03X3365000Y150000I5000J0*
G01*
X3385000Y150000D01*
G75*
D01*
G03X3390000Y155000I0J5000*
G01*
G74*
D01*
G03X3385000Y160000I5000J0*
G01*
X3365000Y160000D01*
G75*
D01*
G03X3360000Y155000I0J-5000*
G01*
X3384291Y202827D02*
X3384291Y236299D01*
X3382618Y234626D02*
X3384291Y236299D01*
X3306280Y155846D02*
X3253543Y208583D01*
X3306280Y155846D02*
X3306280Y154783D01*
X3253543Y208583D02*
X3233543Y208583D01*
X3320059Y79980D02*
X3320059Y60059D01*
X3347618Y79980D02*
X3347618Y109882D01*
X3360000Y78583D02*
X3361398Y79980D01*
X3361398Y93898D01*
X3362500Y95000D01*
X3388957Y79980D02*
X3388957Y60000D01*
X3333839Y79980D02*
X3333839Y57500D01*
X2172126Y150118D02*
X2172126Y70866D01*
X2175000Y67992D01*
X2117992Y85000D02*
X2115000Y85000D01*
X2117992Y85000D02*
X2117992Y82008D01*
X3306280Y79980D02*
X3306280Y88720D01*
X3295000Y100000D01*
X3333839Y169035D02*
X3333773Y170535D01*
X3333577Y172023D01*
X3333252Y173488D01*
X3332801Y174919D01*
X3332227Y176306D01*
X3331534Y177637D01*
X3330727Y178903D01*
X3329814Y180094D01*
X3328800Y181200D01*
X3295000Y221903D02*
X3295063Y220450D01*
X3295253Y219009D01*
X3295568Y217590D01*
X3296005Y216203D01*
X3296561Y214860D01*
X3297233Y213570D01*
X3298014Y212344D01*
X3298899Y211191D01*
X3299881Y210119D01*
X3350298Y168833D02*
X3349759Y168245D01*
X3349273Y167612D01*
X3348844Y166938D01*
X3348475Y166230D01*
X3348170Y165493D01*
X3347930Y164732D01*
X3347757Y163952D01*
X3347653Y163161D01*
X3347618Y162364D01*
X296234Y80617D02*
X306251Y71437D01*
X317030Y63166D01*
X328490Y55866D01*
X340541Y49592D01*
X353094Y44393D01*
X366052Y40307D01*
X379317Y37366D01*
X392788Y35593D01*
X406362Y35000D01*
X3320059Y167556D02*
X3320037Y168058D01*
X3319972Y168556D01*
X3319863Y169046D01*
X3319712Y169525D01*
X3319520Y169989D01*
X3319288Y170435D01*
X3319018Y170858D01*
X3318712Y171257D01*
X3318373Y171627D01*
X2192992Y142587D02*
X2192970Y143095D01*
X2192904Y143599D01*
X2192794Y144095D01*
X2192641Y144579D01*
X2192446Y145049D01*
X2192212Y145500D01*
X2191939Y145928D01*
X2191629Y146331D01*
X2191286Y146706D01*
X2196785Y161955D02*
X2197214Y161562D01*
X2197676Y161207D01*
X2198167Y160894D01*
X2198684Y160625D01*
X2199222Y160403D01*
X2199778Y160227D01*
X2200346Y160101D01*
X2200924Y160025D01*
X2201505Y160000D01*
X2202588Y207362D02*
X2201596Y207319D01*
X2200612Y207189D01*
X2199642Y206974D01*
X2198696Y206676D01*
X2197778Y206296D01*
X2196898Y205837D01*
X2196060Y205304D01*
X2195273Y204700D01*
X2194541Y204029D01*
X2017054Y35000D02*
X2017674Y35027D01*
X2018289Y35108D01*
X2018895Y35242D01*
X2019486Y35429D01*
X2020060Y35666D01*
X2020610Y35953D01*
X2021134Y36286D01*
X2021626Y36664D01*
X2022083Y37083D01*
X256234Y70617D02*
X267349Y60431D01*
X279310Y51254D01*
X292025Y43153D01*
X305398Y36192D01*
X319327Y30422D01*
X333705Y25889D01*
X348424Y22625D01*
X363371Y20658D01*
X378433Y20000D01*
X2052330Y20000D02*
X2053099Y20034D01*
X2053862Y20134D01*
X2054613Y20301D01*
X2055347Y20532D01*
X2056058Y20826D01*
X2056741Y21182D01*
X2057390Y21595D01*
X2058000Y22064D01*
X2058568Y22584D01*
X2047500Y232500D02*
X2046997Y231951D01*
X2046544Y231360D01*
X2046144Y230732D01*
X2045800Y230072D01*
X2045515Y229384D01*
X2045291Y228674D01*
X2045130Y227947D01*
X2045032Y227208D01*
X2045000Y226464D01*
X2042917Y57917D02*
X2043336Y58374D01*
X2043714Y58866D01*
X2044047Y59390D01*
X2044334Y59940D01*
X2044571Y60514D01*
X2044758Y61105D01*
X2044892Y61711D01*
X2044973Y62326D01*
X2045000Y62946D01*
X2045000Y62946D01*
X2720000Y150000D02*
X2721098Y148994D01*
X2722279Y148087D01*
X2723536Y147287D01*
X2724857Y146599D01*
X2726232Y146030D01*
X2727653Y145582D01*
X2729107Y145259D01*
X2730583Y145065D01*
X2732071Y145000D01*
X2710000Y167071D02*
X2710065Y165583D01*
X2710259Y164107D01*
X2710582Y162653D01*
X2711029Y161232D01*
X2711599Y159856D01*
X2712287Y158536D01*
X2713087Y157279D01*
X2713994Y156098D01*
X2715000Y155000D01*
X2710000Y196667D02*
X2709969Y197368D01*
X2709878Y198064D01*
X2709726Y198749D01*
X2709515Y199419D01*
X2709246Y200068D01*
X2708922Y200690D01*
X2708545Y201282D01*
X2708117Y201839D01*
X2707643Y202357D01*
X2650000Y260000D02*
X2643412Y266037D01*
X2636323Y271476D01*
X2628787Y276277D01*
X2620861Y280403D01*
X2612605Y283823D01*
X2604084Y286510D01*
X2595360Y288444D01*
X2586501Y289610D01*
X2577574Y290000D01*
X2577574Y290000D01*
X2108536Y290000D02*
X2107792Y289968D01*
X2107053Y289870D01*
X2106326Y289709D01*
X2105616Y289485D01*
X2104928Y289200D01*
X2104268Y288856D01*
X2103640Y288456D01*
X2103049Y288003D01*
X2102500Y287500D01*
X3328800Y181200D02*
X3299881Y210119D01*
X3295000Y221903D02*
X3295000Y235709D01*
X3333839Y154783D02*
X3333839Y169035D01*
X3384291Y202827D02*
X3350298Y168833D01*
X3347618Y154783D02*
X3347618Y162364D01*
X296234Y80617D02*
X205000Y171850D01*
X3320059Y154783D02*
X3320059Y167556D01*
X3318373Y171627D02*
X3315000Y175000D01*
X2191286Y146706D02*
X2187874Y150118D01*
X2192874Y165866D02*
X2196785Y161955D01*
X2201505Y160000D02*
X2230000Y160000D01*
X2192992Y105000D02*
X2192992Y142587D01*
X2194541Y204029D02*
X2187874Y197362D01*
X2017054Y35000D02*
X406362Y35000D01*
X256234Y70617D02*
X155000Y171850D01*
X2117992Y82008D02*
X2058568Y22584D01*
X2052330Y20000D02*
X378433Y20000D01*
X2045000Y226464D02*
X2045000Y62946D01*
X2042917Y57917D02*
X2022083Y37083D01*
X2720000Y150000D02*
X2715000Y155000D01*
X2710000Y167071D02*
X2710000Y196667D01*
X2732071Y145000D02*
X2775000Y145000D01*
X2577574Y290000D02*
X2108536Y290000D01*
X2102500Y287500D02*
X2047500Y232500D01*
X2707643Y202357D02*
X2650000Y260000D01*
G36*
X180974Y145877D02*
X180974Y145877D01*
X149622Y158673D01*
X168177Y177229D01*
X180974Y145877D01*
D02*
G37*
X149622Y158673D01*
X168177Y177229D01*
X180974Y145877D01*
G36*
X230974Y145877D02*
X230974Y145877D01*
X199622Y158673D01*
X218177Y177229D01*
X230974Y145877D01*
D02*
G37*
X199622Y158673D01*
X218177Y177229D01*
X230974Y145877D01*
G36*
X3269016Y193110D02*
X3269016Y193110D01*
X3233877Y192385D01*
X3245642Y219357D01*
X3269016Y193110D01*
D02*
G37*
X3233877Y192385D01*
X3245642Y219357D01*
X3269016Y193110D01*
G36*
X3384291Y211976D02*
X3384291Y211976D01*
X3382240Y239573D01*
X3393436Y238094D01*
X3384291Y211976D01*
D02*
G37*
X3382240Y239573D01*
X3393436Y238094D01*
X3384291Y211976D01*
G36*
X3384291Y233917D02*
X3384291Y233917D01*
X3392774Y207750D01*
X3375809Y207750D01*
X3384291Y233917D01*
D02*
G37*
X3392774Y207750D01*
X3375809Y207750D01*
X3384291Y233917D01*
G36*
X3347618Y161327D02*
X3347618Y161327D01*
X3348648Y154950D01*
X3346588Y154950D01*
X3347618Y161327D01*
D02*
G37*
X3348648Y154950D01*
X3346588Y154950D01*
X3347618Y161327D01*
G36*
X3333839Y168327D02*
X3333839Y168327D01*
X3334879Y154864D01*
X3332798Y154864D01*
X3333839Y168327D01*
D02*
G37*
X3334879Y154864D01*
X3332798Y154864D01*
X3333839Y168327D01*
G36*
X3320059Y165827D02*
X3320059Y165827D01*
X3321098Y154882D01*
X3319020Y154882D01*
X3320059Y165827D01*
D02*
G37*
X3321098Y154882D01*
X3319020Y154882D01*
X3320059Y165827D01*
G36*
X3290172Y171954D02*
X3290172Y171954D01*
X3307008Y155530D01*
X3305488Y154104D01*
X3290172Y171954D01*
D02*
G37*
X3307008Y155530D01*
X3305488Y154104D01*
X3290172Y171954D01*
G36*
X3388957Y61437D02*
X3388957Y61437D01*
X3387915Y79922D01*
X3389998Y79922D01*
X3388957Y61437D01*
D02*
G37*
X3387915Y79922D01*
X3389998Y79922D01*
X3388957Y61437D01*
G36*
X3361398Y93524D02*
X3361398Y93524D01*
X3362438Y80061D01*
X3360357Y80061D01*
X3361398Y93524D01*
D02*
G37*
X3362438Y80061D01*
X3360357Y80061D01*
X3361398Y93524D01*
G36*
X3347618Y103524D02*
X3347618Y103524D01*
X3348660Y80027D01*
X3346576Y80027D01*
X3347618Y103524D01*
D02*
G37*
X3348660Y80027D01*
X3346576Y80027D01*
X3347618Y103524D01*
G36*
X3333839Y58937D02*
X3333839Y58937D01*
X3332797Y79929D01*
X3334881Y79929D01*
X3333839Y58937D01*
D02*
G37*
X3332797Y79929D01*
X3334881Y79929D01*
X3333839Y58937D01*
G36*
X3320059Y61437D02*
X3320059Y61437D01*
X3319017Y79922D01*
X3321101Y79922D01*
X3320059Y61437D01*
D02*
G37*
X3319017Y79922D01*
X3321101Y79922D01*
X3320059Y61437D01*
G36*
X3306280Y88524D02*
X3306280Y88524D01*
X3307315Y80108D01*
X3305244Y80108D01*
X3306280Y88524D01*
D02*
G37*
X3307315Y80108D01*
X3305244Y80108D01*
X3306280Y88524D01*
G36*
X2746804Y145000D02*
X2746804Y145000D01*
X2774227Y148708D01*
X2773425Y137444D01*
X2746804Y145000D01*
D02*
G37*
X2774227Y148708D01*
X2773425Y137444D01*
X2746804Y145000D01*
G36*
X2194193Y203682D02*
X2194193Y203682D01*
X2189040Y196523D01*
X2187034Y198529D01*
X2194193Y203682D01*
D02*
G37*
X2189040Y196523D01*
X2187034Y198529D01*
X2194193Y203682D01*
G36*
X2172126Y126181D02*
X2172126Y126181D01*
X2170692Y150032D01*
X2173560Y150032D01*
X2172126Y126181D01*
D02*
G37*
X2170692Y150032D01*
X2173560Y150032D01*
X2172126Y126181D01*
G36*
X2172126Y132801D02*
X2172126Y132801D01*
X2172774Y105135D01*
X2161668Y107180D01*
X2172126Y132801D01*
D02*
G37*
X2172774Y105135D01*
X2161668Y107180D01*
X2172126Y132801D01*
G36*
X2172126Y77199D02*
X2172126Y77199D01*
X2161668Y102820D01*
X2172774Y104865D01*
X2172126Y77199D01*
D02*
G37*
X2161668Y102820D01*
X2172774Y104865D01*
X2172126Y77199D01*
G36*
X2192992Y133268D02*
X2192992Y133268D01*
X2198639Y106177D01*
X2187346Y106177D01*
X2192992Y133268D01*
D02*
G37*
X2198639Y106177D01*
X2187346Y106177D01*
X2192992Y133268D01*
G36*
X2172126Y101113D02*
X2172126Y101113D01*
X2180497Y74737D01*
X2169263Y73589D01*
X2172126Y101113D01*
D02*
G37*
X2180497Y74737D01*
X2169263Y73589D01*
X2172126Y101113D01*
X2172126Y165866D02*
X2165866Y165866D01*
X2165866Y165866D02*
X2145054Y145054D01*
X-10000Y-10000D02*
X-10000Y31370D01*
X-10000Y-10000D02*
X385701Y-10000D01*
X3947008Y-10000D02*
X3551307Y-10000D01*
X3947008Y-10000D02*
X3947008Y31370D01*
X3947008Y403701D02*
X3947008Y362331D01*
X3947008Y403701D02*
X3551307Y403701D01*
X-10000Y403701D02*
X385701Y403701D01*
X-10000Y403701D02*
X-10000Y362331D01*
X-206850Y-10000D02*
X-600551Y-10000D01*
X-403701Y-206850D02*
X-403701Y186850D01*
X-551339Y-10000D02*
G75*
D01*
G02X-551339Y-10000I147638J0*
G01*
X4143858Y-10000D02*
X4537559Y-10000D01*
X4340709Y-206850D02*
X4340709Y186850D01*
X4193071Y-10000D02*
G75*
D01*
G02X4193071Y-10000I147638J0*
G01*
X4291496Y-10000D02*
G75*
D01*
G02X4291496Y-10000I49213J0*
G01*
X-206850Y403701D02*
X-600551Y403701D01*
X-403701Y206850D02*
X-403701Y600551D01*
X-551339Y403701D02*
G75*
D01*
G02X-551339Y403701I147638J0*
G01*
X-502126Y403701D02*
G75*
D01*
G02X-502126Y403701I98425J0*
G01*
X-452913Y403701D02*
G75*
D01*
G02X-452913Y403701I49212J0*
G01*
X-10000Y-10000D02*
X-10000Y31370D01*
X-10000Y-10000D02*
X385701Y-10000D01*
X3947008Y-10000D02*
X3551307Y-10000D01*
X3947008Y-10000D02*
X3947008Y31370D01*
X3947008Y403701D02*
X3947008Y362331D01*
X3947008Y403701D02*
X3551307Y403701D01*
X-10000Y403701D02*
X385701Y403701D01*
X-10000Y403701D02*
X-10000Y362331D01*
X-206850Y-10000D02*
X-600551Y-10000D01*
X-403701Y-206850D02*
X-403701Y186850D01*
X-551339Y-10000D02*
G75*
D01*
G02X-551339Y-10000I147638J0*
G01*
X4143858Y-10000D02*
X4537559Y-10000D01*
X4340709Y-206850D02*
X4340709Y186850D01*
X4193071Y-10000D02*
G75*
D01*
G02X4193071Y-10000I147638J0*
G01*
X4291496Y-10000D02*
G75*
D01*
G02X4291496Y-10000I49213J0*
G01*
X-206850Y403701D02*
X-600551Y403701D01*
X-403701Y206850D02*
X-403701Y600551D01*
X-551339Y403701D02*
G75*
D01*
G02X-551339Y403701I147638J0*
G01*
X-502126Y403701D02*
G75*
D01*
G02X-502126Y403701I98425J0*
G01*
X-452913Y403701D02*
G75*
D01*
G02X-452913Y403701I49212J0*
G01*
G54D12*
X938150Y213960D02*
G74*
D01*
G02X949009Y208054I0J12936*
G01*
X979488Y208054D01*
G74*
D01*
G02X988568Y204332I0J12936*
G01*
X989909Y204285D01*
X995012Y204285D01*
G74*
D01*
G02X996616Y204200I0J15072*
G01*
G74*
D01*
G02X1007379Y202132I1604J37390*
G01*
X1007379Y235197D01*
G75*
D01*
G02X1020315Y248133I12936J0*
G01*
X1059685Y248133D01*
G74*
D01*
G02X1072621Y235197I0J12936*
G01*
X1072621Y197795D01*
G75*
D01*
G02X1061590Y185000I-12936J0*
G01*
G74*
D01*
G02X1072621Y172205I1905J12795*
G01*
X1072621Y134803D01*
G75*
D01*
G02X1059685Y121867I-12936J0*
G01*
X1037085Y121867D01*
G74*
D01*
G02X1038316Y117047I8817J4820*
G01*
X1038316Y98937D01*
G75*
D01*
G02X1038297Y98316I-10048J0*
G01*
X1056063Y98316D01*
G74*
D01*
G02X1060000Y97513I0J10048*
G01*
G75*
D01*
G02X1063937Y98316I3937J-9245*
G01*
X1082047Y98316D01*
G74*
D01*
G02X1092096Y88268I0J10048*
G01*
X1092096Y71732D01*
G75*
D01*
G02X1082047Y61684I-10049J0*
G01*
X1063937Y61684D01*
G75*
D01*
G02X1060000Y62487I0J10048*
G01*
G74*
D01*
G02X1056063Y61684I3937J9245*
G01*
X1037953Y61684D01*
G75*
D01*
G02X1032054Y63597I0J10048*
G01*
X1031966Y63610D01*
G74*
D01*
G02X1028268Y62904I3698J9343*
G01*
X1011732Y62904D01*
G75*
D01*
G02X1001734Y71950I0J10049*
G01*
X992018Y81666D01*
G74*
D01*
G02X979488Y71946I12530J3216*
G01*
X974709Y71946D01*
G75*
D01*
G02X950291Y71946I-12209J13054*
G01*
X949009Y71946D01*
G74*
D01*
G02X938150Y66040I10859J7030*
G01*
X831850Y66040D01*
G75*
D01*
G02X820991Y71946I0J12936*
G01*
X819709Y71946D01*
G75*
D01*
G02X795291Y71946I-12209J13054*
G01*
X790512Y71946D01*
G75*
D01*
G02X777576Y84882I0J12936*
G01*
X777576Y89548D01*
G74*
D01*
G02X761027Y83041I18459J22648*
G01*
G74*
D01*
G02X759117Y82920I1910J14951*
G01*
X704388Y82920D01*
X690306Y80781D01*
G74*
D01*
G02X683268Y77904I7038J7172*
G01*
X666732Y77904D01*
G75*
D01*
G02X656684Y87953I0J10049*
G01*
X656684Y106063D01*
G75*
D01*
G02X666732Y116111I10048J0*
G01*
X682777Y116111D01*
G75*
D01*
G02X681355Y122008I11514J5897*
G01*
X681355Y147992D01*
G75*
D01*
G02X694291Y160928I12936J0*
G01*
X717126Y160928D01*
G74*
D01*
G02X725000Y158256I0J12936*
G01*
G75*
D01*
G02X732874Y160928I7874J-10264*
G01*
X755709Y160928D01*
G74*
D01*
G02X768620Y148796I0J12936*
G01*
X778079Y145230D01*
X780091Y145230D01*
X781432Y145277D01*
G75*
D01*
G02X790512Y148999I9080J-9214*
G01*
X818914Y148999D01*
X818914Y201024D01*
G75*
D01*
G02X831850Y213960I12936J0*
G01*
X938150Y213960D01*
X1886775Y69232D02*
G75*
D01*
G02X1873839Y56296I-12936J0*
G01*
X1866475Y56296D01*
G75*
D01*
G02X1843525Y56296I-11475J13704*
G01*
X1843359Y56296D01*
G74*
D01*
G02X1832500Y50390I10859J7031*
G01*
X1726201Y50390D01*
G75*
D01*
G02X1715342Y56296I0J12937*
G01*
X1713975Y56296D01*
G75*
D01*
G02X1691025Y56296I-11475J13704*
G01*
X1684862Y56296D01*
G75*
D01*
G02X1671926Y69232I0J12936*
G01*
X1671926Y70871D01*
G74*
D01*
G02X1661371Y68046I12503J25585*
G01*
G74*
D01*
G02X1659423Y67920I1948J14946*
G01*
X1604388Y67920D01*
X1590306Y65781D01*
G74*
D01*
G02X1583268Y62904I7038J7172*
G01*
X1566732Y62904D01*
G75*
D01*
G02X1556684Y72953I0J10049*
G01*
X1556684Y91063D01*
G75*
D01*
G02X1566732Y101111I10048J0*
G01*
X1583268Y101111D01*
G74*
D01*
G02X1588784Y99462I0J10048*
G01*
G75*
D01*
G02X1586355Y107008I10507J7546*
G01*
X1586355Y132992D01*
G75*
D01*
G02X1599291Y145928I12936J0*
G01*
X1622126Y145928D01*
G74*
D01*
G02X1630000Y143256I0J12936*
G01*
G75*
D01*
G02X1637874Y145928I7874J-10264*
G01*
X1660709Y145928D01*
G74*
D01*
G02X1673639Y133389I0J12936*
G01*
X1678257Y131537D01*
G75*
D01*
G02X1684862Y133350I6605J-11124*
G01*
X1713264Y133350D01*
X1713264Y185374D01*
G75*
D01*
G02X1726201Y198310I12937J0*
G01*
X1832500Y198310D01*
G74*
D01*
G02X1843359Y192405I0J12936*
G01*
X1873839Y192405D01*
G74*
D01*
G02X1882919Y188682I0J12936*
G01*
X1884260Y188636D01*
X1895661Y188636D01*
G74*
D01*
G02X1897266Y188550I0J15073*
G01*
G74*
D01*
G02X1898111Y188504I1605J37390*
G01*
G75*
D01*
G02X1897379Y192795I12204J4291*
G01*
X1897379Y230197D01*
G75*
D01*
G02X1910315Y243133I12936J0*
G01*
X1949685Y243133D01*
G74*
D01*
G02X1962621Y230197I0J12936*
G01*
X1962621Y192795D01*
G75*
D01*
G02X1962482Y190903I-12936J0*
G01*
X1984903Y213324D01*
X1984903Y255417D01*
G74*
D01*
G02X1985146Y258528I20097J0*
G01*
G74*
D01*
G02X1992001Y275079I30919J3111*
G01*
G74*
D01*
G02X1994030Y277451I16240J11838*
G01*
X2044123Y327544D01*
G74*
D01*
G02X2044629Y328032I14210J14211*
G01*
G74*
D01*
G02X2122011Y360084I78083J79078*
G01*
G75*
D01*
G02X2122712Y360097I701J-20084*
G01*
X3086058Y360097D01*
G74*
D01*
G02X3088741Y359917I0J20097*
G01*
G74*
D01*
G02X3109880Y351161I2683J36372*
G01*
G74*
D01*
G02X3111904Y349391I12186J15981*
G01*
X3130109Y331186D01*
G74*
D01*
G02X3131760Y329316I14210J14211*
G01*
G74*
D01*
G02X3141733Y305245I30087J26567*
G01*
G74*
D01*
G02X3141758Y305222I8741J9536*
G01*
X3143057Y305422D01*
G75*
D01*
G02X3157756Y317159I14699J-3335*
G01*
X3195157Y317159D01*
G74*
D01*
G02X3205000Y313502I0J15072*
G01*
G75*
D01*
G02X3214843Y317159I9843J-11415*
G01*
X3252244Y317159D01*
G74*
D01*
G02X3267317Y302087I0J15072*
G01*
X3267317Y281716D01*
X3269072Y278909D01*
X3269072Y285709D01*
G75*
D01*
G02X3282008Y298645I12936J0*
G01*
X3307992Y298645D01*
G74*
D01*
G02X3320928Y285709I0J12936*
G01*
X3320928Y262874D01*
G75*
D01*
G02X3320627Y260097I-12936J0*
G01*
X3326116Y260097D01*
G75*
D01*
G02X3326129Y260097I7J-20097*
G01*
X3362008Y260097D01*
G74*
D01*
G02X3370278Y258316I0J20097*
G01*
X3371063Y258316D01*
G74*
D01*
G02X3375000Y257513I0J10048*
G01*
G75*
D01*
G02X3378937Y258316I3937J-9245*
G01*
X3397047Y258316D01*
G74*
D01*
G02X3407096Y248268I0J10048*
G01*
X3407096Y231732D01*
G75*
D01*
G02X3405554Y226384I-10049J0*
G01*
G74*
D01*
G02X3408645Y217992I9845J8392*
G01*
X3408645Y192008D01*
G75*
D01*
G02X3395709Y179072I-12936J0*
G01*
X3378299Y179072D01*
X3371991Y172763D01*
G74*
D01*
G02X3372645Y172677I1991J17763*
G01*
G75*
D01*
G02X3373602Y172715I957J-11988*
G01*
X3376752Y172715D01*
G74*
D01*
G02X3379018Y172500I0J12026*
G01*
X3383863Y172500D01*
G75*
D01*
G02X3389876Y172715I3637J-17500*
G01*
X3390531Y172715D01*
G74*
D01*
G02X3400815Y166924I0J12026*
G01*
G75*
D01*
G02X3401438Y143810I-13315J-11924*
G01*
G74*
D01*
G02X3390531Y136852I10907J5068*
G01*
X3387382Y136852D01*
G75*
D01*
G02X3383486Y137500I0J12026*
G01*
X3380648Y137500D01*
G74*
D01*
G02X3376752Y136852I3896J11378*
G01*
X3373602Y136852D01*
G75*
D01*
G02X3370937Y137151I0J12026*
G01*
G75*
D01*
G02X3366679Y137437I-937J17849*
G01*
G74*
D01*
G02X3362972Y136852I3707J11441*
G01*
X3359823Y136852D01*
G75*
D01*
G02X3354508Y138090I0J12026*
G01*
G74*
D01*
G02X3349193Y136852I5315J10788*
G01*
X3346043Y136852D01*
G75*
D01*
G02X3340728Y138090I0J12026*
G01*
G74*
D01*
G02X3335413Y136852I5315J10788*
G01*
X3332264Y136852D01*
G75*
D01*
G02X3326949Y138090I0J12026*
G01*
G74*
D01*
G02X3321634Y136852I5315J10788*
G01*
X3318484Y136852D01*
G75*
D01*
G02X3313169Y138090I0J12026*
G01*
G74*
D01*
G02X3307854Y136852I5315J10788*
G01*
X3304705Y136852D01*
G75*
D01*
G02X3292678Y148878I0J12026*
G01*
X3292678Y149744D01*
X3280951Y163411D01*
X3264795Y179568D01*
G74*
D01*
G02X3252244Y172841I12551J8345*
G01*
X3214843Y172841D01*
G75*
D01*
G02X3205000Y176498I0J15072*
G01*
G74*
D01*
G02X3195157Y172841I9843J11415*
G01*
X3157756Y172841D01*
G75*
D01*
G02X3142683Y187913I0J15072*
G01*
X3142683Y225722D01*
G74*
D01*
G02X3132992Y221355I9691J8569*
G01*
X3107008Y221355D01*
G75*
D01*
G02X3094072Y234291I0J12936*
G01*
X3094072Y257126D01*
G74*
D01*
G02X3096744Y265000I12936J0*
G01*
G75*
D01*
G02X3094072Y272874I10264J7874*
G01*
X3094072Y295709D01*
G74*
D01*
G02X3098770Y305683I12936J0*
G01*
X3084550Y319903D01*
X2122712Y319903D01*
G75*
D01*
G02X2122151Y319911I0J20097*
G01*
G74*
D01*
G03X2072934Y299524I561J70957*
G01*
G74*
D01*
G02X2072544Y299123I14601J13809*
G01*
X2025097Y251676D01*
X2025097Y209583D01*
G75*
D01*
G02X2024854Y206472I-20097J0*
G01*
G74*
D01*
G02X2017998Y189920I30919J3111*
G01*
G74*
D01*
G02X2015970Y187549I16239J11839*
G01*
X1979229Y150808D01*
G74*
D01*
G02X1979205Y150783I14223J14198*
G01*
X1962738Y134317D01*
G74*
D01*
G02X1962621Y134201I14234J14187*
G01*
X1962621Y129803D01*
G75*
D01*
G02X1949685Y116867I-12936J0*
G01*
X1930399Y116867D01*
G74*
D01*
G02X1938316Y107047I2131J9820*
G01*
X1938316Y90169D01*
X1938668Y90166D01*
X1952631Y91791D01*
G75*
D01*
G02X1957953Y93316I5322J-8523*
G01*
X1966365Y93316D01*
G75*
D01*
G02X1966895Y93316I265J-15070*
G01*
X1976063Y93316D01*
G74*
D01*
G02X1980000Y92513I0J10048*
G01*
G75*
D01*
G02X1983937Y93316I3937J-9245*
G01*
X2002047Y93316D01*
G74*
D01*
G02X2012096Y83268I0J10048*
G01*
X2012096Y80217D01*
G75*
D01*
G02X2012096Y69783I-17096J-5217*
G01*
X2012096Y66732D01*
G75*
D01*
G02X2002047Y56684I-10049J0*
G01*
X1983937Y56684D01*
G75*
D01*
G02X1980000Y57487I0J10048*
G01*
G74*
D01*
G02X1976063Y56684I3937J9245*
G01*
X1966895Y56684D01*
G75*
D01*
G02X1966486Y56682I-265J15070*
G01*
G74*
D01*
G02X1966365Y56684I144J15072*
G01*
X1957953Y56684D01*
G75*
D01*
G02X1952631Y58209I0J10048*
G01*
X1945731Y59012D01*
X1936272Y56878D01*
G74*
D01*
G02X1928268Y52904I8004J6075*
G01*
X1911732Y52904D01*
G75*
D01*
G02X1901734Y61950I0J10049*
G01*
X1887082Y76602D01*
G74*
D01*
G02X1886775Y76918I10658J10658*
G01*
X1886775Y69232D01*
X3764455Y339564D02*
G75*
D01*
G02X3764455Y339564I4539J-38354*
G01*
X3792588Y238994D02*
G75*
D01*
G02X3792588Y238994I38622J0*
G01*
X2744072Y237126D02*
G75*
D01*
G02X2757008Y250062I12936J0*
G01*
X2782992Y250062D01*
G74*
D01*
G02X2795928Y237126I0J12936*
G01*
X2795928Y214291D01*
G75*
D01*
G02X2782992Y201355I-12936J0*
G01*
X2757008Y201355D01*
G75*
D01*
G02X2744072Y214291I0J12936*
G01*
X2744072Y237126D01*
X1484072Y78452D02*
G74*
D01*
G02X1478701Y77186I5371J10761*
G01*
X1419646Y77186D01*
G75*
D01*
G02X1407619Y89213I0J12027*
G01*
X1407619Y102992D01*
G74*
D01*
G02X1409169Y108898I12027J0*
G01*
G75*
D01*
G02X1407619Y114803I10477J5905*
G01*
X1407619Y128583D01*
G74*
D01*
G02X1409169Y134488I12027J0*
G01*
G75*
D01*
G02X1407619Y140394I10477J5906*
G01*
X1407619Y154173D01*
G74*
D01*
G02X1409169Y160079I12027J0*
G01*
G75*
D01*
G02X1407619Y165984I10477J5905*
G01*
X1407619Y179764D01*
G74*
D01*
G02X1409169Y185669I12027J0*
G01*
G75*
D01*
G02X1407619Y191575I10477J5906*
G01*
X1407619Y205354D01*
G74*
D01*
G02X1409169Y211260I12027J0*
G01*
G75*
D01*
G02X1407619Y217165I10477J5905*
G01*
X1407619Y230945D01*
G74*
D01*
G02X1409169Y236850I12027J0*
G01*
G75*
D01*
G02X1407619Y242756I10477J5906*
G01*
X1407619Y256535D01*
G74*
D01*
G02X1409169Y262441I12027J0*
G01*
G75*
D01*
G02X1407619Y268346I10477J5905*
G01*
X1407619Y282126D01*
G74*
D01*
G02X1409169Y288031I12027J0*
G01*
G75*
D01*
G02X1407619Y293937I10477J5906*
G01*
X1407619Y307717D01*
G74*
D01*
G02X1409169Y313622I12027J0*
G01*
G75*
D01*
G02X1407619Y319528I10477J5906*
G01*
X1407619Y333307D01*
G75*
D01*
G02X1419646Y345333I12027J0*
G01*
X1478701Y345333D01*
G74*
D01*
G02X1485127Y343472I0J12026*
G01*
X1490273Y344748D01*
G75*
D01*
G02X1497953Y348316I7680J-6480*
G01*
X1516063Y348316D01*
G74*
D01*
G02X1520000Y347513I0J10048*
G01*
G75*
D01*
G02X1523937Y348316I3937J-9245*
G01*
X1542047Y348316D01*
G74*
D01*
G02X1552096Y338268I0J10048*
G01*
X1552096Y321732D01*
G75*
D01*
G02X1542047Y311684I-10049J0*
G01*
X1523937Y311684D01*
G75*
D01*
G02X1520000Y312487I0J10048*
G01*
G74*
D01*
G02X1516063Y311684I3937J9245*
G01*
X1507895Y311684D01*
G74*
D01*
G02X1507214Y311661I851J15048*
G01*
X1506455Y311652D01*
G74*
D01*
G02X1503425Y311345I3030J14765*
G01*
X1490167Y311345D01*
G74*
D01*
G02X1490727Y307717I11466J3628*
G01*
X1490727Y293937D01*
G75*
D01*
G02X1489177Y288031I-12026J0*
G01*
G74*
D01*
G02X1490727Y282126I10476J5905*
G01*
X1490727Y268346D01*
G75*
D01*
G02X1489177Y262441I-12026J0*
G01*
G74*
D01*
G02X1490727Y256535I10476J5906*
G01*
X1490727Y242756D01*
G75*
D01*
G02X1489177Y236850I-12026J0*
G01*
G74*
D01*
G02X1490727Y230945I10476J5905*
G01*
X1490727Y217165D01*
G75*
D01*
G02X1489177Y211260I-12026J0*
G01*
G74*
D01*
G02X1490727Y205354I10476J5906*
G01*
X1490727Y191575D01*
G75*
D01*
G02X1489177Y185669I-12026J0*
G01*
G74*
D01*
G02X1490727Y179764I10476J5905*
G01*
X1490727Y165984D01*
G75*
D01*
G02X1489177Y160079I-12026J0*
G01*
G74*
D01*
G02X1490727Y154173I10476J5906*
G01*
X1490727Y142018D01*
G75*
D01*
G02X1497008Y143645I6281J-11309*
G01*
X1522992Y143645D01*
G74*
D01*
G02X1535928Y130709I0J12936*
G01*
X1535928Y107874D01*
G75*
D01*
G02X1533256Y100000I-12936J0*
G01*
G74*
D01*
G02X1535928Y92126I10264J7874*
G01*
X1535928Y69291D01*
G75*
D01*
G02X1522992Y56355I-12936J0*
G01*
X1497008Y56355D01*
G75*
D01*
G02X1484072Y69291I0J12936*
G01*
X1484072Y78452D01*
X1198703Y345333D02*
X1218797Y345333D01*
G75*
D01*
G02X1221203Y345333I1203J-17833*
G01*
X1241297Y345333D01*
G75*
D01*
G02X1243703Y345333I1203J-17833*
G01*
X1250354Y345333D01*
G74*
D01*
G02X1262381Y333307I0J12026*
G01*
X1262381Y319528D01*
G75*
D01*
G02X1260831Y313622I-12027J0*
G01*
G74*
D01*
G02X1262381Y307717I10477J5905*
G01*
X1262381Y293937D01*
G75*
D01*
G02X1260831Y288031I-12027J0*
G01*
G74*
D01*
G02X1262381Y282126I10477J5905*
G01*
X1262381Y268346D01*
G75*
D01*
G02X1260831Y262441I-12027J0*
G01*
G74*
D01*
G02X1262381Y256535I10477J5906*
G01*
X1262381Y242756D01*
G75*
D01*
G02X1260831Y236850I-12027J0*
G01*
G74*
D01*
G02X1262381Y230945I10477J5905*
G01*
X1262381Y217165D01*
G75*
D01*
G02X1260831Y211260I-12027J0*
G01*
G74*
D01*
G02X1262381Y205354I10477J5906*
G01*
X1262381Y191575D01*
G75*
D01*
G02X1260831Y185669I-12027J0*
G01*
G74*
D01*
G02X1262381Y179764I10477J5905*
G01*
X1262381Y165984D01*
G75*
D01*
G02X1260831Y160079I-12027J0*
G01*
G74*
D01*
G02X1262381Y154173I10477J5906*
G01*
X1262381Y140394D01*
G75*
D01*
G02X1250354Y128367I-12027J0*
G01*
X1191299Y128367D01*
G75*
D01*
G02X1179273Y140394I0J12027*
G01*
X1179273Y154173D01*
G74*
D01*
G02X1180823Y160079I12026J0*
G01*
G75*
D01*
G02X1179273Y165984I10476J5905*
G01*
X1179273Y179764D01*
G74*
D01*
G02X1180823Y185669I12026J0*
G01*
G75*
D01*
G02X1179273Y191575I10476J5906*
G01*
X1179273Y205354D01*
G74*
D01*
G02X1180823Y211260I12026J0*
G01*
G75*
D01*
G02X1179273Y217165I10476J5905*
G01*
X1179273Y230945D01*
G74*
D01*
G02X1180823Y236850I12026J0*
G01*
G75*
D01*
G02X1179273Y242756I10476J5906*
G01*
X1179273Y256535D01*
G74*
D01*
G02X1180823Y262441I12026J0*
G01*
G75*
D01*
G02X1179273Y268346I10476J5905*
G01*
X1179273Y282126D01*
G74*
D01*
G02X1180823Y288031I12026J0*
G01*
G75*
D01*
G02X1179273Y293937I10476J5906*
G01*
X1179273Y307717D01*
G74*
D01*
G02X1180823Y313622I12026J0*
G01*
G75*
D01*
G02X1179273Y319528I10476J5906*
G01*
X1179273Y333307D01*
G75*
D01*
G02X1191299Y345333I12026J0*
G01*
X1196297Y345333D01*
G75*
D01*
G02X1198703Y345333I1203J-17833*
G01*
X1727874Y199072D02*
G75*
D01*
G02X1714938Y212008I0J12936*
G01*
X1714938Y237992D01*
G75*
D01*
G02X1727874Y250928I12936J0*
G01*
X1750709Y250928D01*
G74*
D01*
G02X1763645Y237992I0J12936*
G01*
X1763645Y212008D01*
G75*
D01*
G02X1750709Y199072I-12936J0*
G01*
X1727874Y199072D01*
X1147766Y178902D02*
G75*
D01*
G02X1147766Y160607I-9147J-9147*
G01*
X1129393Y142234D01*
G75*
D01*
G02X1111098Y142234I-9148J9147*
G01*
X1094952Y158380D01*
G75*
D01*
G02X1094952Y176675I9147J9147*
G01*
X1113325Y195048D01*
G75*
D01*
G02X1131620Y195048I9148J-9147*
G01*
X1147766Y178902D01*
X1179273Y102992D02*
G75*
D01*
G02X1191299Y115019I12026J0*
G01*
X1250354Y115019D01*
G74*
D01*
G02X1262381Y102992I0J12027*
G01*
X1262381Y89213D01*
G75*
D01*
G02X1250354Y77186I-12027J0*
G01*
X1191299Y77186D01*
G75*
D01*
G02X1179273Y89213I0J12027*
G01*
X1179273Y102992D01*
X760928Y212874D02*
G75*
D01*
G02X747992Y199938I-12936J0*
G01*
X722008Y199938D01*
G75*
D01*
G02X709072Y212874I0J12936*
G01*
X709072Y235709D01*
G75*
D01*
G02X722008Y248645I12936J0*
G01*
X747992Y248645D01*
G74*
D01*
G02X760928Y235709I0J12936*
G01*
X760928Y212874D01*
X622621Y139803D02*
G75*
D01*
G02X609685Y126867I-12936J0*
G01*
X570315Y126867D01*
G75*
D01*
G02X557379Y139803I0J12936*
G01*
X557379Y177205D01*
G75*
D01*
G02X570315Y190141I12936J0*
G01*
X609685Y190141D01*
G74*
D01*
G02X622621Y177205I0J12936*
G01*
X622621Y139803D01*
X3325016Y47644D02*
G75*
D01*
G02X3299433Y63265I-10016J12356*
G01*
G75*
D01*
G02X3292678Y74075I5272J10810*
G01*
X3292678Y84558D01*
X3292251Y84985D01*
G75*
D01*
G02X3313393Y99370I5249J15015*
G01*
X3315142Y97621D01*
G74*
D01*
G02X3315283Y97478I8862J8901*
G01*
G75*
D01*
G02X3318484Y97912I3201J-11592*
G01*
X3321634Y97912D01*
G74*
D01*
G02X3326949Y96674I0J12026*
G01*
G75*
D01*
G02X3332264Y97912I5315J-10788*
G01*
X3334796Y97912D01*
X3334902Y100291D01*
G75*
D01*
G02X3363381Y110881I12598J9709*
G01*
G74*
D01*
G02X3378152Y97830I881J15881*
G01*
G74*
D01*
G02X3382067Y96674I1400J11944*
G01*
G75*
D01*
G02X3387382Y97912I5315J-10788*
G01*
X3390532Y97912D01*
G74*
D01*
G02X3402558Y85886I0J12026*
G01*
X3402558Y80076D01*
G75*
D01*
G02X3402558Y79768I-12560J-154*
G01*
X3402558Y74075D01*
G75*
D01*
G02X3402055Y70635I-12026J0*
G01*
X3401843Y66874D01*
G75*
D01*
G02X3371746Y62192I-14343J-6874*
G01*
G74*
D01*
G02X3368287Y63287I1856J11883*
G01*
G74*
D01*
G02X3362972Y62048I5315J10788*
G01*
X3359823Y62048D01*
G75*
D01*
G02X3354508Y63287I0J12027*
G01*
G74*
D01*
G02X3352587Y62537I5315J10788*
G01*
G75*
D01*
G02X3325016Y47644I-15087J-5037*
G01*
X3642384Y88790D02*
G75*
D01*
G02X3642384Y88790I38622J0*
G01*
X3489615Y41194D02*
X3463494Y15073D01*
X3921935Y15073D01*
X3921935Y378628D01*
X15073Y378628D01*
X15073Y15073D01*
X325421Y15073D01*
G74*
D01*
G02X247278Y61662I53012J177743*
G01*
G74*
D01*
G02X246207Y62880I8956J8955*
G01*
X173883Y135204D01*
X160617Y140619D01*
G75*
D01*
G02X130000Y152307I-5617J31231*
G01*
G75*
D01*
G02X80000Y152307I-25000J19543*
G01*
G75*
D01*
G02X35457Y196850I-25000J19543*
G01*
G75*
D01*
G02X80000Y241394I19543J25000*
G01*
G75*
D01*
G02X130000Y241394I25000J-19544*
G01*
G75*
D01*
G02X180000Y241394I25000J-19544*
G01*
G75*
D01*
G02X230000Y241394I25000J-19544*
G01*
G75*
D01*
G02X280000Y241394I25000J-19544*
G01*
G75*
D01*
G02X330000Y241394I25000J-19544*
G01*
G75*
D01*
G02X374543Y196850I25000J-19544*
G01*
G74*
D01*
G02X380000Y191394I19543J25000*
G01*
G75*
D01*
G02X430000Y191394I25000J-19544*
G01*
G75*
D01*
G02X480000Y191394I25000J-19544*
G01*
G75*
D01*
G02X480000Y152307I25000J-19544*
G01*
G75*
D01*
G02X430000Y152307I-25000J19543*
G01*
G75*
D01*
G02X380000Y152307I-25000J19543*
G01*
G75*
D01*
G02X330000Y152307I-25000J19543*
G01*
G75*
D01*
G02X280000Y152307I-25000J19543*
G01*
G75*
D01*
G02X254491Y140122I-25000J19543*
G01*
X304063Y90550D01*
G74*
D01*
G02X305177Y89560I7829J9933*
G01*
G75*
D01*
G03X406362Y47648I101185J101185*
G01*
G74*
D01*
G02X407850Y47560I0J12648*
G01*
X2014797Y47560D01*
X2032440Y65203D01*
X2032440Y226464D01*
G74*
D01*
G02X2032569Y228261I12560J0*
G01*
G74*
D01*
G02X2037439Y240019I20966J1797*
G01*
G74*
D01*
G02X2038618Y241382I10061J7519*
G01*
X2093618Y296382D01*
G74*
D01*
G02X2094981Y297561I8882J8882*
G01*
G74*
D01*
G02X2106739Y302431I13555J16096*
G01*
G75*
D01*
G02X2108536Y302560I1797J-12431*
G01*
X2576608Y302560D01*
G75*
D01*
G02X2577574Y302598I966J-12560*
G01*
G74*
D01*
G02X2658908Y268908I0J115024*
G01*
G74*
D01*
G02X2659564Y268199I8908J8908*
G01*
X2716525Y211239D01*
G74*
D01*
G02X2717728Y209845I8882J8882*
G01*
G74*
D01*
G02X2722100Y200741I15775J13178*
G01*
G75*
D01*
G02X2724291Y200928I2191J-12749*
G01*
X2747126Y200928D01*
G74*
D01*
G02X2755000Y198256I0J12936*
G01*
G75*
D01*
G02X2762874Y200928I7874J-10264*
G01*
X2785709Y200928D01*
G74*
D01*
G02X2798639Y188389I0J12936*
G01*
X2806462Y185251D01*
G75*
D01*
G02X2814862Y188350I8400J-9838*
G01*
X2843264Y188350D01*
X2843264Y240374D01*
G75*
D01*
G02X2856201Y253310I12937J0*
G01*
X2962500Y253310D01*
G74*
D01*
G02X2973359Y247405I0J12936*
G01*
X2985616Y247405D01*
X2987374Y249162D01*
G74*
D01*
G02X2994426Y253139I10657J10658*
G01*
G75*
D01*
G02X2998031Y253576I3605J-14635*
G01*
X3026240Y253576D01*
G75*
D01*
G02X3022379Y262795I9075J9219*
G01*
X3022379Y300197D01*
G75*
D01*
G02X3035315Y313133I12936J0*
G01*
X3074685Y313133D01*
G74*
D01*
G02X3087621Y300197I0J12936*
G01*
X3087621Y262795D01*
G75*
D01*
G02X3076590Y250000I-12936J0*
G01*
G74*
D01*
G02X3087621Y237205I1905J12795*
G01*
X3087621Y223900D01*
X3100397Y208024D01*
X3182616Y125805D01*
X3186174Y125805D01*
G75*
D01*
G02X3184072Y132874I10834J7069*
G01*
X3184072Y155709D01*
G75*
D01*
G02X3197008Y168645I12936J0*
G01*
X3222992Y168645D01*
G74*
D01*
G02X3235928Y155709I0J12936*
G01*
X3235928Y151646D01*
G75*
D01*
G02X3249980Y159039I14052J-9658*
G01*
X3261791Y159039D01*
G74*
D01*
G02X3278842Y141988I0J17051*
G01*
X3278842Y130768D01*
G75*
D01*
G02X3273470Y118345I-17051J0*
G01*
X3273470Y116419D01*
G74*
D01*
G02X3278842Y103996I11679J12423*
G01*
X3278842Y92776D01*
G75*
D01*
G02X3261791Y75725I-17051J0*
G01*
X3249980Y75725D01*
G75*
D01*
G02X3234663Y85286I0J17051*
G01*
X3232169Y85174D01*
G74*
D01*
G02X3222992Y81355I9177J9117*
G01*
X3197008Y81355D01*
G75*
D01*
G02X3187415Y85612I0J12936*
G01*
X3180481Y85612D01*
G75*
D01*
G02X3177701Y85805I0J20097*
G01*
G74*
D01*
G02X3157807Y94045I2780J34846*
G01*
G74*
D01*
G02X3155704Y95875I12108J16040*
G01*
X3073691Y177888D01*
X3054602Y186867D01*
X3048091Y186867D01*
X3036168Y183674D01*
G74*
D01*
G02X3031445Y180288I26345J31752*
G01*
G74*
D01*
G02X3036546Y176613I15784J27291*
G01*
X3042090Y173316D01*
X3046063Y173316D01*
G74*
D01*
G02X3050000Y172513I0J10048*
G01*
G75*
D01*
G02X3053937Y173316I3937J-9245*
G01*
X3072047Y173316D01*
G74*
D01*
G02X3082096Y163268I0J10048*
G01*
X3082096Y146732D01*
G75*
D01*
G02X3072047Y136684I-10049J0*
G01*
X3053937Y136684D01*
G75*
D01*
G02X3050000Y137487I0J10048*
G01*
G74*
D01*
G02X3046063Y136684I3937J9245*
G01*
X3039217Y136684D01*
G74*
D01*
G02X3031831Y134750I7386J13139*
G01*
X3016775Y134750D01*
X3016775Y124232D01*
G75*
D01*
G02X3003839Y111296I-12936J0*
G01*
X2996475Y111296D01*
G75*
D01*
G02X2973525Y111296I-11475J13704*
G01*
X2973359Y111296D01*
G74*
D01*
G02X2962500Y105390I10859J7031*
G01*
X2856201Y105390D01*
G75*
D01*
G02X2845342Y111296I0J12937*
G01*
X2843975Y111296D01*
G75*
D01*
G02X2821025Y111296I-11475J13704*
G01*
X2814862Y111296D01*
G75*
D01*
G02X2801926Y124232I0J12936*
G01*
X2801926Y133650D01*
G74*
D01*
G02X2795368Y130307I9918J11350*
G01*
G74*
D01*
G02X2792485Y129935I3360J14693*
G01*
G74*
D01*
G02X2783268Y123889I9217J4002*
G01*
X2766732Y123889D01*
G75*
D01*
G02X2758141Y128725I0J10048*
G01*
X2745055Y132440D01*
X2732071Y132440D01*
G75*
D01*
G02X2730685Y132516I0J12560*
G01*
G74*
D01*
G02X2712153Y140192I1386J29555*
G01*
G74*
D01*
G02X2711118Y141118I7847J9808*
G01*
X2706118Y146118D01*
G74*
D01*
G02X2705192Y147153I8882J8882*
G01*
G74*
D01*
G02X2697516Y165685I21879J19918*
G01*
G75*
D01*
G02X2697440Y167071I12484J1386*
G01*
X2697440Y194797D01*
X2641801Y250436D01*
G74*
D01*
G02X2641092Y251092I8199J9564*
G01*
G74*
D01*
G03X2577574Y277402I63518J63518*
G01*
G75*
D01*
G02X2576608Y277440I0J12598*
G01*
X2110203Y277440D01*
X2057560Y224797D01*
X2057560Y62946D01*
G75*
D01*
G02X2057412Y61022I-12560J0*
G01*
G74*
D01*
G02X2053054Y50500I19525J1924*
G01*
G74*
D01*
G02X2051798Y49035I10137J7417*
G01*
X2035324Y32560D01*
X2050781Y32560D01*
X2098889Y80668D01*
X2098889Y93268D01*
G75*
D01*
G02X2108937Y103316I10048J0*
G01*
X2127047Y103316D01*
G74*
D01*
G02X2129927Y102894I0J10048*
G01*
X2129927Y107977D01*
G74*
D01*
G02X2124685Y106867I5242J11826*
G01*
X2085315Y106867D01*
G75*
D01*
G02X2072379Y119803I0J12936*
G01*
X2072379Y157205D01*
G75*
D01*
G02X2085315Y170141I12936J0*
G01*
X2124685Y170141D01*
G74*
D01*
G02X2137593Y158067I0J12936*
G01*
G74*
D01*
G02X2141971Y159734I7461J13013*
G01*
X2146259Y164022D01*
G75*
D01*
G02X2161639Y195065I3741J17478*
G01*
X2162042Y195065D01*
G74*
D01*
G02X2171095Y198394I10084J13451*
G01*
G74*
D01*
G02X2183480Y213589I16779J1032*
G01*
G75*
D01*
G02X2202588Y227459I19108J-6227*
G01*
X2211575Y227459D01*
G74*
D01*
G02X2214252Y227280I0J20097*
G01*
G74*
D01*
G02X2235460Y218495I2677J36456*
G01*
G74*
D01*
G02X2237480Y216729I12191J15977*
G01*
X2262532Y191676D01*
G75*
D01*
G02X2259652Y200512I12114J8836*
G01*
X2259652Y204031D01*
G75*
D01*
G02X2259652Y205969I17848J969*
G01*
X2259652Y234031D01*
G75*
D01*
G02X2259652Y235969I17848J969*
G01*
X2259652Y237913D01*
G75*
D01*
G02X2274646Y252907I14994J0*
G01*
X2355354Y252907D01*
G74*
D01*
G02X2370348Y237913I0J14994*
G01*
X2370348Y235969D01*
G75*
D01*
G02X2370348Y234031I-17848J-969*
G01*
X2370348Y205969D01*
G75*
D01*
G02X2370348Y204031I-17848J-969*
G01*
X2370348Y200512D01*
G75*
D01*
G02X2355354Y185518I-14994J0*
G01*
X2274646Y185518D01*
G75*
D01*
G02X2265810Y188398I0J14994*
G01*
X2290292Y163916D01*
X2320260Y154482D01*
X2355354Y154482D01*
G74*
D01*
G02X2365012Y150957I0J14994*
G01*
X2374505Y150957D01*
G75*
D01*
G02X2423465Y188551I48960J-13083*
G01*
X2498268Y188551D01*
G74*
D01*
G02X2524534Y181213I0J50677*
G01*
X2524534Y208740D01*
G75*
D01*
G02X2539606Y223813I15072J0*
G01*
X2598661Y223813D01*
G74*
D01*
G02X2613734Y208740I0J15073*
G01*
X2613734Y169370D01*
G75*
D01*
G02X2610077Y159528I-15073J0*
G01*
G74*
D01*
G02X2613028Y154244I11416J9843*
G01*
G75*
D01*
G02X2625315Y163133I12287J-4047*
G01*
X2664685Y163133D01*
G74*
D01*
G02X2677621Y150197I0J12936*
G01*
X2677621Y112795D01*
G75*
D01*
G02X2666590Y100000I-12936J0*
G01*
G74*
D01*
G02X2677621Y87205I1905J12795*
G01*
X2677621Y65402D01*
X2684745Y48676D01*
X2693324Y40097D01*
X3431676Y40097D01*
X3461194Y69615D01*
G74*
D01*
G02X3461927Y70312I14211J14210*
G01*
G74*
D01*
G03X3464929Y77559I9687J8258*
G01*
G74*
D01*
G02X3464905Y78289I20071J1011*
G01*
X3454476Y78289D01*
G75*
D01*
G02X3454420Y78289I-28J20097*
G01*
X3454248Y78289D01*
G74*
D01*
G02X3445256Y75725I8992J14487*
G01*
X3433445Y75725D01*
G75*
D01*
G02X3416394Y92776I0J17051*
G01*
X3416394Y103996D01*
G74*
D01*
G02X3419254Y113448I17051J0*
G01*
X3419254Y121316D01*
G75*
D01*
G02X3416394Y130768I14191J9452*
G01*
X3416394Y141988D01*
G75*
D01*
G02X3433445Y159039I17051J0*
G01*
X3445256Y159039D01*
G74*
D01*
G02X3459072Y151981I0J17051*
G01*
X3459072Y155709D01*
G75*
D01*
G02X3472008Y168645I12936J0*
G01*
X3497992Y168645D01*
G74*
D01*
G02X3510928Y155709I0J12936*
G01*
X3510928Y132874D01*
G75*
D01*
G02X3508256Y125000I-12936J0*
G01*
G74*
D01*
G02X3510928Y117126I10264J7874*
G01*
X3510928Y94291D01*
G75*
D01*
G02X3505097Y83481I-12936J0*
G01*
X3505097Y78570D01*
G75*
D01*
G02X3504991Y76511I-20097J0*
G01*
G74*
D01*
G02X3490996Y42724I52751J2059*
G01*
G74*
D01*
G02X3489615Y41194I15591J12681*
G01*
X2204431Y32821D02*
G74*
D01*
G02X2190197Y26911I14234J14187*
G01*
X2180000Y26911D01*
G75*
D01*
G02X2173760Y27904I0J20097*
G01*
X2166732Y27904D01*
G75*
D01*
G02X2156734Y36950I0J10049*
G01*
X2142006Y51678D01*
G74*
D01*
G02X2140997Y52794I10658J10658*
G01*
G74*
D01*
G02X2132026Y68004I30170J28045*
G01*
G74*
D01*
G02X2127047Y66684I4979J8728*
G01*
X2120431Y66684D01*
X2068820Y15073D01*
X2661506Y15073D01*
X2654074Y22505D01*
X2637521Y36867D01*
X2625315Y36867D01*
G75*
D01*
G02X2612877Y46249I0J12936*
G01*
G74*
D01*
G02X2598661Y36187I14216J5011*
G01*
X2539606Y36187D01*
G75*
D01*
G02X2526741Y43407I0J15073*
G01*
X2215017Y43407D01*
X2204431Y32821D01*
X1517598Y121693D02*
X1520000Y119291D01*
X806260Y130157D02*
X749134Y130157D01*
X744291Y135000D01*
X1017008Y80000D02*
X1015000Y82008D01*
X1012992Y82008D02*
X1015000Y82008D01*
X1047008Y80000D02*
X1020000Y80000D01*
X1017008Y80000D01*
X963740Y169528D02*
X1023976Y169528D01*
X963740Y149843D02*
X967402Y153504D01*
X1040000Y153504D01*
X1449173Y326417D02*
X1503425Y326417D01*
X1507008Y330000D01*
X1967008Y75000D02*
X1922992Y75000D01*
X1920000Y72008D01*
X1912992Y72008D02*
X1920000Y72008D01*
X1700610Y114508D02*
X1654783Y114508D01*
X1649291Y120000D01*
X1858091Y153878D02*
X1924626Y153878D01*
X1858091Y134193D02*
X1915689Y134193D01*
X1935000Y153504D01*
X2779783Y169508D02*
X2774291Y175000D01*
X2830610Y169508D02*
X2779783Y169508D01*
X3065000Y238504D02*
X2998031Y238504D01*
X2988091Y228563D01*
X2988091Y149823D02*
X3031831Y149823D01*
X3037008Y155000D01*
X2796831Y149823D02*
X2830610Y149823D01*
X2796831Y149823D02*
X2792008Y145000D01*
X2775000Y145000D02*
X2792008Y145000D01*
X783364Y110472D02*
X782126Y110418D01*
X780897Y110257D01*
X779687Y109988D01*
X778506Y109616D01*
X777361Y109142D01*
X776262Y108570D01*
X775217Y107904D01*
X774234Y107149D01*
X773320Y106312D01*
X759117Y97992D02*
X760355Y98046D01*
X761583Y98208D01*
X762793Y98476D01*
X763975Y98849D01*
X765119Y99323D01*
X766218Y99895D01*
X767263Y100561D01*
X768246Y101315D01*
X769160Y102152D01*
X1003556Y124436D02*
X1002300Y125587D01*
X1000948Y126625D01*
X999511Y127540D01*
X997999Y128327D01*
X996424Y128979D01*
X994799Y129492D01*
X993135Y129861D01*
X991445Y130083D01*
X989743Y130157D01*
X989427Y105573D02*
X988351Y106559D01*
X987193Y107447D01*
X985963Y108231D01*
X984668Y108905D01*
X983320Y109464D01*
X981928Y109902D01*
X980503Y110218D01*
X979056Y110409D01*
X977598Y110472D01*
X1010853Y182651D02*
X1009412Y183971D01*
X1007861Y185161D01*
X1006213Y186211D01*
X1004480Y187114D01*
X1002674Y187862D01*
X1000810Y188449D01*
X998902Y188872D01*
X996964Y189127D01*
X995012Y189213D01*
X1897740Y87260D02*
X1896079Y88782D01*
X1894292Y90153D01*
X1892392Y91363D01*
X1890394Y92404D01*
X1888313Y93266D01*
X1886165Y93943D01*
X1883965Y94431D01*
X1881732Y94725D01*
X1879482Y94823D01*
X1682408Y94823D02*
X1681234Y94772D01*
X1680070Y94618D01*
X1678923Y94364D01*
X1677803Y94011D01*
X1676718Y93561D01*
X1675676Y93019D01*
X1674685Y92388D01*
X1673753Y91673D01*
X1672887Y90879D01*
X1908989Y109003D02*
X1907781Y110110D01*
X1906480Y111109D01*
X1905097Y111990D01*
X1903642Y112747D01*
X1902127Y113374D01*
X1900563Y113867D01*
X1898963Y114222D01*
X1897337Y114436D01*
X1895699Y114508D01*
X1911503Y167001D02*
X1910062Y168322D01*
X1908511Y169511D01*
X1906863Y170562D01*
X1905129Y171464D01*
X1903324Y172212D01*
X1901460Y172800D01*
X1899552Y173223D01*
X1897614Y173478D01*
X1895661Y173563D01*
X2145000Y80839D02*
X2145100Y78558D01*
X2145398Y76295D01*
X2145892Y74066D01*
X2146578Y71889D01*
X2147452Y69780D01*
X2148506Y67755D01*
X2149732Y65830D01*
X2151122Y64019D01*
X2152664Y62336D01*
X3030399Y223504D02*
X3028948Y223441D01*
X3027508Y223251D01*
X3026091Y222937D01*
X3024706Y222500D01*
X3023364Y221944D01*
X3022076Y221274D01*
X3020851Y220494D01*
X3019699Y219610D01*
X3018629Y218629D01*
X3001983Y208878D02*
X3003434Y208941D01*
X3004874Y209131D01*
X3006291Y209445D01*
X3007676Y209882D01*
X3009018Y210437D01*
X3010306Y211108D01*
X3011531Y211888D01*
X3012683Y212772D01*
X3013753Y213753D01*
X3009823Y189193D02*
X3012109Y189293D01*
X3014378Y189591D01*
X3016612Y190087D01*
X3018795Y190775D01*
X3020909Y191651D01*
X3022939Y192707D01*
X3024870Y193937D01*
X3026685Y195330D01*
X3028372Y196876D01*
X3027336Y164672D02*
X3026274Y165645D01*
X3025131Y166522D01*
X3023916Y167296D01*
X3022639Y167961D01*
X3021308Y168512D01*
X3019934Y168945D01*
X3018528Y169257D01*
X3017100Y169445D01*
X3015661Y169508D01*
X1659423Y82992D02*
X1660596Y83043D01*
X1661761Y83197D01*
X1662908Y83451D01*
X1664028Y83804D01*
X1665113Y84254D01*
X1666155Y84796D01*
X1667146Y85427D01*
X1668078Y86142D01*
X1668944Y86936D01*
X773320Y106312D02*
X769160Y102152D01*
X806260Y110472D02*
X783364Y110472D01*
X1003556Y124436D02*
X1015000Y112992D01*
X963740Y130157D02*
X989743Y130157D01*
X989427Y105573D02*
X1012992Y82008D01*
X963740Y110472D02*
X977598Y110472D01*
X963740Y189213D02*
X995012Y189213D01*
X1010853Y182651D02*
X1023976Y169528D01*
X1897740Y87260D02*
X1912992Y72008D01*
X1700610Y94823D02*
X1682408Y94823D01*
X1858091Y114508D02*
X1895699Y114508D01*
X1858091Y94823D02*
X1879482Y94823D01*
X1911503Y167001D02*
X1924626Y153878D01*
X1908989Y109003D02*
X1920000Y97992D01*
X1858091Y173563D02*
X1895661Y173563D01*
X2152664Y62336D02*
X2167992Y47008D01*
X3055000Y223504D02*
X3030399Y223504D01*
X3018629Y218629D02*
X3013753Y213753D01*
X3001983Y208878D02*
X2988091Y208878D01*
X2988091Y189193D02*
X3009823Y189193D01*
X3028372Y196876D02*
X3055000Y223504D01*
X2988091Y169508D02*
X3015661Y169508D01*
X3027336Y164672D02*
X3037008Y155000D01*
X1575000Y82992D02*
X1659423Y82992D01*
X1672887Y90879D02*
X1668944Y86936D01*
X675000Y97992D02*
X759117Y97992D01*
G36*
X1023740Y80000D02*
X1023740Y80000D01*
X1046549Y83235D01*
X1046549Y76765D01*
X1023740Y80000D01*
D02*
G37*
X1046549Y83235D01*
X1046549Y76765D01*
X1023740Y80000D01*
G36*
X703251Y97992D02*
X703251Y97992D01*
X675491Y93777D01*
X675264Y100265D01*
X703251Y97992D01*
D02*
G37*
X675491Y93777D01*
X675264Y100265D01*
X703251Y97992D01*
G36*
X775333Y130157D02*
X775333Y130157D01*
X744618Y128591D01*
X746555Y141005D01*
X775333Y130157D01*
D02*
G37*
X744618Y128591D01*
X746555Y141005D01*
X775333Y130157D01*
G36*
X989646Y189213D02*
X989646Y189213D01*
X963772Y188308D01*
X963772Y190118D01*
X989646Y189213D01*
D02*
G37*
X963772Y188308D01*
X963772Y190118D01*
X989646Y189213D01*
G36*
X989646Y130157D02*
X989646Y130157D01*
X963772Y129253D01*
X963772Y131062D01*
X989646Y130157D01*
D02*
G37*
X963772Y129253D01*
X963772Y131062D01*
X989646Y130157D01*
G36*
X989386Y153504D02*
X989386Y153504D01*
X963899Y148951D01*
X963644Y150743D01*
X989386Y153504D01*
D02*
G37*
X963899Y148951D01*
X963644Y150743D01*
X989386Y153504D01*
G36*
X989646Y169528D02*
X989646Y169528D01*
X963772Y168623D01*
X963772Y170433D01*
X989646Y169528D01*
D02*
G37*
X963772Y168623D01*
X963772Y170433D01*
X989646Y169528D01*
G36*
X974646Y110472D02*
X974646Y110472D01*
X963815Y109570D01*
X963815Y111375D01*
X974646Y110472D01*
D02*
G37*
X963815Y109570D01*
X963815Y111375D01*
X974646Y110472D01*
G36*
X780354Y130157D02*
X780354Y130157D01*
X806228Y131062D01*
X806228Y129253D01*
X780354Y130157D01*
D02*
G37*
X806228Y131062D01*
X806228Y129253D01*
X780354Y130157D01*
G36*
X785354Y110472D02*
X785354Y110472D01*
X806221Y111377D01*
X806221Y109568D01*
X785354Y110472D01*
D02*
G37*
X806221Y111377D01*
X806221Y109568D01*
X785354Y110472D01*
G36*
X1007083Y120909D02*
X1007083Y120909D01*
X1021860Y110679D01*
X1017313Y106132D01*
X1007083Y120909D01*
D02*
G37*
X1021860Y110679D01*
X1017313Y106132D01*
X1007083Y120909D01*
G36*
X1043181Y80000D02*
X1043181Y80000D01*
X1020178Y78745D01*
X1020736Y85192D01*
X1043181Y80000D01*
D02*
G37*
X1020178Y78745D01*
X1020736Y85192D01*
X1043181Y80000D01*
G36*
X1001299Y153504D02*
X1001299Y153504D01*
X1035150Y166317D01*
X1035150Y140690D01*
X1001299Y153504D01*
D02*
G37*
X1035150Y166317D01*
X1035150Y140690D01*
X1001299Y153504D01*
G36*
X1478968Y326417D02*
X1478968Y326417D01*
X1506222Y333172D01*
X1507045Y326732D01*
X1478968Y326417D01*
D02*
G37*
X1506222Y333172D01*
X1507045Y326732D01*
X1478968Y326417D01*
G36*
X1891674Y153878D02*
X1891674Y153878D01*
X1926976Y161867D01*
X1923417Y136488D01*
X1891674Y153878D01*
D02*
G37*
X1926976Y161867D01*
X1923417Y136488D01*
X1891674Y153878D01*
G36*
X1894042Y134193D02*
X1894042Y134193D01*
X1920755Y158616D01*
X1930232Y134805D01*
X1894042Y134193D01*
D02*
G37*
X1920755Y158616D01*
X1930232Y134805D01*
X1894042Y134193D01*
G36*
X1913241Y165263D02*
X1913241Y165263D01*
X1932305Y162009D01*
X1916494Y146199D01*
X1913241Y165263D01*
D02*
G37*
X1932305Y162009D01*
X1916494Y146199D01*
X1913241Y165263D01*
G36*
X1938740Y75000D02*
X1938740Y75000D01*
X1966630Y78246D01*
X1966630Y71754D01*
X1938740Y75000D01*
D02*
G37*
X1966630Y78246D01*
X1966630Y71754D01*
X1938740Y75000D01*
G36*
X1910618Y107374D02*
X1910618Y107374D01*
X1921670Y100801D01*
X1917191Y96322D01*
X1910618Y107374D01*
D02*
G37*
X1921670Y100801D01*
X1917191Y96322D01*
X1910618Y107374D01*
G36*
X1948109Y75000D02*
X1948109Y75000D01*
X1920719Y68820D01*
X1920032Y75275D01*
X1948109Y75000D01*
D02*
G37*
X1920719Y68820D01*
X1920032Y75275D01*
X1948109Y75000D01*
G36*
X1883996Y173563D02*
X1883996Y173563D01*
X1858122Y172658D01*
X1858122Y174468D01*
X1883996Y173563D01*
D02*
G37*
X1858122Y172658D01*
X1858122Y174468D01*
X1883996Y173563D01*
G36*
X1883996Y134193D02*
X1883996Y134193D01*
X1858122Y133288D01*
X1858122Y135098D01*
X1883996Y134193D01*
D02*
G37*
X1858122Y133288D01*
X1858122Y135098D01*
X1883996Y134193D01*
G36*
X1883996Y114508D02*
X1883996Y114508D01*
X1858122Y113603D01*
X1858122Y115413D01*
X1883996Y114508D01*
D02*
G37*
X1858122Y113603D01*
X1858122Y115413D01*
X1883996Y114508D01*
G36*
X1878996Y94823D02*
X1878996Y94823D01*
X1858130Y93918D01*
X1858130Y95727D01*
X1878996Y94823D01*
D02*
G37*
X1858130Y93918D01*
X1858130Y95727D01*
X1878996Y94823D01*
G36*
X1883996Y153878D02*
X1883996Y153878D01*
X1858122Y152973D01*
X1858122Y154783D01*
X1883996Y153878D01*
D02*
G37*
X1858122Y152973D01*
X1858122Y154783D01*
X1883996Y153878D01*
G36*
X1674705Y114508D02*
X1674705Y114508D01*
X1700579Y115413D01*
X1700579Y113603D01*
X1674705Y114508D01*
D02*
G37*
X1700579Y115413D01*
X1700579Y113603D01*
X1674705Y114508D01*
G36*
X1684705Y94823D02*
X1684705Y94823D01*
X1700559Y95727D01*
X1700559Y93919D01*
X1684705Y94823D01*
D02*
G37*
X1700559Y95727D01*
X1700559Y93919D01*
X1684705Y94823D01*
G36*
X1680225Y114508D02*
X1680225Y114508D01*
X1649484Y113586D01*
X1651680Y125956D01*
X1680225Y114508D01*
D02*
G37*
X1649484Y113586D01*
X1651680Y125956D01*
X1680225Y114508D01*
G36*
X1603251Y82992D02*
X1603251Y82992D01*
X1575491Y78777D01*
X1575264Y85265D01*
X1603251Y82992D01*
D02*
G37*
X1575491Y78777D01*
X1575264Y85265D01*
X1603251Y82992D01*
G36*
X1478031Y326417D02*
X1478031Y326417D01*
X1449689Y322594D01*
X1449689Y330241D01*
X1478031Y326417D01*
D02*
G37*
X1449689Y322594D01*
X1449689Y330241D01*
X1478031Y326417D01*
G36*
X3031833Y223504D02*
X3031833Y223504D01*
X3049617Y231103D01*
X3044900Y209247D01*
X3031833Y223504D01*
D02*
G37*
X3049617Y231103D01*
X3044900Y209247D01*
X3031833Y223504D01*
G36*
X3028801Y197305D02*
X3028801Y197305D01*
X3042796Y224731D01*
X3058544Y205269D01*
X3028801Y197305D01*
D02*
G37*
X3042796Y224731D01*
X3058544Y205269D01*
X3028801Y197305D01*
G36*
X2804705Y149823D02*
X2804705Y149823D01*
X2830579Y150728D01*
X2830579Y148918D01*
X2804705Y149823D01*
D02*
G37*
X2830579Y150728D01*
X2830579Y148918D01*
X2804705Y149823D01*
G36*
X2804705Y169508D02*
X2804705Y169508D01*
X2830579Y170413D01*
X2830579Y168603D01*
X2804705Y169508D01*
D02*
G37*
X2830579Y170413D01*
X2830579Y168603D01*
X2804705Y169508D01*
G36*
X3013996Y149823D02*
X3013996Y149823D01*
X2988122Y148918D01*
X2988122Y150728D01*
X3013996Y149823D01*
D02*
G37*
X2988122Y148918D01*
X2988122Y150728D01*
X3013996Y149823D01*
G36*
X3013996Y169508D02*
X3013996Y169508D01*
X2988122Y168603D01*
X2988122Y170413D01*
X3013996Y169508D01*
D02*
G37*
X2988122Y168603D01*
X2988122Y170413D01*
X3013996Y169508D01*
G36*
X2998996Y208878D02*
X2998996Y208878D01*
X2988166Y207976D01*
X2988166Y209780D01*
X2998996Y208878D01*
D02*
G37*
X2988166Y207976D01*
X2988166Y209780D01*
X2998996Y208878D01*
G36*
X2995802Y236274D02*
X2995802Y236274D01*
X2988782Y227978D01*
X2987506Y229254D01*
X2995802Y236274D01*
D02*
G37*
X2988782Y227978D01*
X2987506Y229254D01*
X2995802Y236274D01*
G36*
X3008996Y189193D02*
X3008996Y189193D01*
X2988130Y188288D01*
X2988130Y190098D01*
X3008996Y189193D01*
D02*
G37*
X2988130Y188288D01*
X2988130Y190098D01*
X3008996Y189193D01*
G36*
X2805225Y169508D02*
X2805225Y169508D01*
X2774484Y168586D01*
X2776680Y180956D01*
X2805225Y169508D01*
D02*
G37*
X2774484Y168586D01*
X2776680Y180956D01*
X2805225Y169508D01*
G36*
X3009218Y149823D02*
X3009218Y149823D01*
X3036042Y158122D01*
X3037231Y151740D01*
X3009218Y149823D01*
D02*
G37*
X3036042Y158122D01*
X3037231Y151740D01*
X3009218Y149823D01*
G36*
X3027626Y164382D02*
X3027626Y164382D01*
X3038678Y157809D01*
X3034199Y153330D01*
X3027626Y164382D01*
D02*
G37*
X3038678Y157809D01*
X3034199Y153330D01*
X3027626Y164382D01*
G36*
X2788115Y145000D02*
X2788115Y145000D01*
X2776275Y139983D01*
X2775316Y146244D01*
X2788115Y145000D01*
D02*
G37*
X2776275Y139983D01*
X2775316Y146244D01*
X2788115Y145000D01*
X2145054Y145054D02*
X2145043Y145042D01*
X2145034Y145029D01*
X2145025Y145016D01*
X2145017Y145002D01*
X2145011Y144987D01*
X2145006Y144971D01*
X2145003Y144955D01*
X2145001Y144939D01*
X2145000Y144923D01*
X2145000Y144923D02*
X2145000Y80839D01*
G54D13*
X3439350Y136378D02*
X3439350Y98386D01*
X3477677Y98386D01*
X3485000Y105709D01*
X3176457Y281417D02*
X3233543Y281417D01*
X3279252Y235709D01*
X3295000Y235709D01*
X3362008Y240000D02*
X3299291Y240000D01*
X3295000Y235709D01*
X3169291Y280000D02*
X3173583Y284291D01*
X3169291Y280000D02*
X3120000Y280000D01*
X1940000Y148504D02*
X1935000Y153504D01*
X3248563Y105709D02*
X3255886Y98386D01*
X1930000Y148504D02*
X1948504Y148504D01*
X2635000Y68504D02*
X2569134Y68504D01*
X2564134Y63504D02*
X2569134Y68504D01*
X2180000Y47008D02*
X2190197Y47008D01*
X3173583Y284291D02*
X3176457Y281417D01*
X3123583Y284291D02*
X3173583Y284291D01*
X3121791Y286083D02*
X3123583Y284291D01*
X3475405Y55405D02*
X3477336Y57512D01*
X3479075Y59779D01*
X3480611Y62190D01*
X3481931Y64725D01*
X3483024Y67365D01*
X3483884Y70091D01*
X3484502Y72881D01*
X3484875Y75714D01*
X3485000Y78569D01*
X3169915Y110085D02*
X3170876Y109204D01*
X3171910Y108411D01*
X3173010Y107711D01*
X3174166Y107109D01*
X3175370Y106610D01*
X3176613Y106218D01*
X3177886Y105936D01*
X3179178Y105766D01*
X3180481Y105709D01*
X3434697Y20000D02*
X3435813Y20049D01*
X3436920Y20194D01*
X3438010Y20436D01*
X3439076Y20772D01*
X3440108Y21200D01*
X3441098Y21715D01*
X3442040Y22315D01*
X3442926Y22995D01*
X3443750Y23750D01*
X2223269Y202518D02*
X2222205Y203493D01*
X2221061Y204371D01*
X2219844Y205146D01*
X2218564Y205813D01*
X2217231Y206365D01*
X2215855Y206799D01*
X2214447Y207111D01*
X2213016Y207299D01*
X2211575Y207362D01*
X2214469Y63504D02*
X2212833Y63432D01*
X2211209Y63219D01*
X2209610Y62864D01*
X2208048Y62372D01*
X2206535Y61745D01*
X2205082Y60989D01*
X2203701Y60109D01*
X2202402Y59112D01*
X2201194Y58005D01*
X2001759Y201759D02*
X2002411Y202471D01*
X2002999Y203237D01*
X2003518Y204051D01*
X2003963Y204907D01*
X2004333Y205799D01*
X2004623Y206719D01*
X2004832Y207662D01*
X2004958Y208619D01*
X2005000Y209583D01*
X3121791Y302749D02*
X3121715Y304503D01*
X3121486Y306243D01*
X3121106Y307956D01*
X3120578Y309630D01*
X3119906Y311252D01*
X3119096Y312809D01*
X3118153Y314289D01*
X3117085Y315681D01*
X3115899Y316975D01*
X3097694Y335180D02*
X3096635Y336150D01*
X3095496Y337024D01*
X3094286Y337795D01*
X3093012Y338458D01*
X3091686Y339008D01*
X3090317Y339439D01*
X3088916Y339750D01*
X3087492Y339937D01*
X3086058Y340000D01*
X2008241Y263241D02*
X2007589Y262529D01*
X2007001Y261763D01*
X2006482Y260949D01*
X2006037Y260093D01*
X2005667Y259201D01*
X2005377Y258280D01*
X2005168Y257338D01*
X2005042Y256381D01*
X2005000Y255417D01*
X2122712Y340000D02*
X2114777Y339654D01*
X2106902Y338617D01*
X2099148Y336898D01*
X2091573Y334509D01*
X2084235Y331470D01*
X2077190Y327802D01*
X2070491Y323535D01*
X2064189Y318699D01*
X2058333Y313333D01*
X2681667Y23333D02*
X2682399Y22663D01*
X2683186Y22058D01*
X2684024Y21525D01*
X2684904Y21066D01*
X2685822Y20686D01*
X2686768Y20388D01*
X2687738Y20173D01*
X2688722Y20043D01*
X2689714Y20000D01*
X3485000Y105709D02*
X3485000Y78570D01*
X3056496Y223504D02*
X3169915Y110085D01*
X3180481Y105709D02*
X3248563Y105709D01*
X3475405Y55405D02*
X3443750Y23750D01*
X2315000Y110787D02*
X2223269Y202518D01*
X2202588Y207362D02*
X2211575Y207362D01*
X2190197Y47008D02*
X2201194Y58005D01*
X2564134Y63504D02*
X2214469Y63504D01*
X1948504Y148504D02*
X2001759Y201759D01*
X3121791Y302749D02*
X3121791Y286083D01*
X3097694Y335180D02*
X3115899Y316975D01*
X2008241Y263241D02*
X2058333Y313333D01*
X2122712Y340000D02*
X3086058Y340000D01*
X2005000Y209583D02*
X2005000Y255417D01*
X2645000Y60000D02*
X2681667Y23333D01*
X2689714Y20000D02*
X3434697Y20000D01*
G36*
X3215157Y281417D02*
X3215157Y281417D01*
X3178413Y272939D01*
X3178413Y289895D01*
X3215157Y281417D01*
D02*
G37*
X3178413Y272939D01*
X3178413Y289895D01*
X3215157Y281417D01*
G36*
X3137782Y280000D02*
X3137782Y280000D01*
X3174191Y289818D01*
X3174812Y272873D01*
X3137782Y280000D01*
D02*
G37*
X3174191Y289818D01*
X3174812Y272873D01*
X3137782Y280000D01*
G36*
X3137863Y284291D02*
X3137863Y284291D01*
X3175136Y290017D01*
X3173876Y273108D01*
X3137863Y284291D01*
D02*
G37*
X3175136Y290017D01*
X3173876Y273108D01*
X3137863Y284291D01*
G36*
X3194843Y281417D02*
X3194843Y281417D01*
X3231587Y289895D01*
X3231587Y272939D01*
X3194843Y281417D01*
D02*
G37*
X3231587Y289895D01*
X3231587Y272939D01*
X3194843Y281417D01*
G36*
X3260909Y254052D02*
X3260909Y254052D01*
X3228932Y274039D01*
X3240921Y286029D01*
X3260909Y254052D01*
D02*
G37*
X3228932Y274039D01*
X3240921Y286029D01*
X3260909Y254052D01*
G36*
X1965006Y165006D02*
X1965006Y165006D01*
X1935384Y141669D01*
X1928154Y157007D01*
X1965006Y165006D01*
D02*
G37*
X1935384Y141669D01*
X1928154Y157007D01*
X1965006Y165006D01*
G36*
X3151123Y280000D02*
X3151123Y280000D01*
X3119870Y282880D01*
X3120257Y285685D01*
X3151123Y280000D01*
D02*
G37*
X3119870Y282880D01*
X3120257Y285685D01*
X3151123Y280000D01*
G36*
X3151417Y284291D02*
X3151417Y284291D01*
X3120064Y282875D01*
X3120064Y285707D01*
X3151417Y284291D01*
D02*
G37*
X3120064Y282875D01*
X3120064Y285707D01*
X3151417Y284291D01*
G36*
X3121791Y298597D02*
X3121791Y298597D01*
X3121417Y284254D01*
X3118618Y284605D01*
X3121791Y298597D01*
D02*
G37*
X3121417Y284254D01*
X3118618Y284605D01*
X3121791Y298597D01*
G36*
X3280583Y235709D02*
X3280583Y235709D01*
X3294861Y237119D01*
X3294861Y234298D01*
X3280583Y235709D01*
D02*
G37*
X3294861Y237119D01*
X3294861Y234298D01*
X3280583Y235709D01*
G36*
X3326123Y240000D02*
X3326123Y240000D01*
X3295257Y234315D01*
X3294870Y237120D01*
X3326123Y240000D01*
D02*
G37*
X3295257Y234315D01*
X3294870Y237120D01*
X3326123Y240000D01*
G36*
X3085420Y194580D02*
X3085420Y194580D01*
X3051297Y210631D01*
X3061779Y223959D01*
X3085420Y194580D01*
D02*
G37*
X3051297Y210631D01*
X3061779Y223959D01*
X3085420Y194580D01*
G36*
X3454448Y98386D02*
X3454448Y98386D01*
X3484608Y107071D01*
X3485268Y104317D01*
X3454448Y98386D01*
D02*
G37*
X3484608Y107071D01*
X3485268Y104317D01*
X3454448Y98386D01*
G36*
X3485000Y84291D02*
X3485000Y84291D01*
X3483586Y105615D01*
X3486414Y105615D01*
X3485000Y84291D01*
D02*
G37*
X3483586Y105615D01*
X3486414Y105615D01*
X3485000Y84291D01*
G36*
X3241417Y105709D02*
X3241417Y105709D01*
X3210064Y104293D01*
X3210064Y107125D01*
X3241417Y105709D01*
D02*
G37*
X3210064Y104293D01*
X3210064Y107125D01*
X3241417Y105709D01*
G36*
X3241417Y105709D01*
X3210064Y104293D01*
X3210064Y107125D01*
X3241417Y105709D01*
D02*
G37*
X3210064Y104293D01*
X3210064Y107125D01*
X3241417Y105709D01*
G36*
X2606299Y68504D02*
X2606299Y68504D01*
X2643044Y76982D01*
X2643044Y60026D01*
X2606299Y68504D01*
D02*
G37*
X2643044Y76982D01*
X2643044Y60026D01*
X2606299Y68504D01*
G36*
X2667781Y37219D02*
X2667781Y37219D01*
X2639298Y61932D01*
X2653005Y71913D01*
X2667781Y37219D01*
D02*
G37*
X2639298Y61932D01*
X2653005Y71913D01*
X2667781Y37219D01*
G36*
X2279562Y146225D02*
X2279562Y146225D01*
X2319091Y133781D01*
X2303998Y112755D01*
X2279562Y146225D01*
D02*
G37*
X2319091Y133781D01*
X2303998Y112755D01*
X2279562Y146225D01*
G36*
X2608744Y68504D02*
X2608744Y68504D01*
X2570915Y61425D01*
X2572071Y80174D01*
X2608744Y68504D01*
D02*
G37*
X2570915Y61425D01*
X2572071Y80174D01*
X2608744Y68504D01*
G36*
X2530153Y63504D02*
X2530153Y63504D01*
X2565051Y79727D01*
X2568573Y61276D01*
X2530153Y63504D01*
D02*
G37*
X2565051Y79727D01*
X2568573Y61276D01*
X2530153Y63504D01*
G54D14*
X1449173Y121693D02*
X1517598Y121693D01*
X1046496Y158504D02*
X1040000Y158504D01*
X3255886Y136378D02*
X3255886Y98386D01*
G36*
X1478675Y121693D02*
X1478675Y121693D01*
X1509810Y123204D01*
X1509216Y115453D01*
X1478675Y121693D01*
D02*
G37*
X1509810Y123204D01*
X1509216Y115453D01*
X1478675Y121693D01*
G36*
X1478031Y121693D02*
X1478031Y121693D01*
X1449237Y120336D01*
X1449237Y123050D01*
X1478031Y121693D01*
D02*
G37*
X1449237Y120336D01*
X1449237Y123050D01*
X1478031Y121693D01*
G54D15*
X2290000Y115787D02*
X2416654Y115787D01*
X2430866Y130000D01*
G54D16*
X2430866Y130000D02*
X2539134Y130000D01*
G54D17*
X2150000Y181500D02*
X2208500Y181500D01*
G36*
X2163937Y181500D02*
X2163937Y181500D01*
X2187868Y182051D01*
X2187868Y181177D01*
X2163937Y181500D01*
D02*
G37*
X2187868Y182051D01*
X2187868Y181177D01*
X2163937Y181500D01*
G36*
X2163937Y181500D01*
X2187868Y182051D01*
X2187868Y181177D01*
X2163937Y181500D01*
D02*
G37*
X2187868Y182051D01*
X2187868Y181177D01*
X2163937Y181500D01*
G36*
X2196063Y181500D02*
X2196063Y181500D01*
X2172136Y181177D01*
X2172136Y182051D01*
X2196063Y181500D01*
D02*
G37*
X2172136Y181177D01*
X2172136Y182051D01*
X2196063Y181500D01*
G36*
X2196063Y181500D01*
X2172136Y181177D01*
X2172136Y182051D01*
X2196063Y181500D01*
D02*
G37*
X2172136Y181177D01*
X2172136Y182051D01*
X2196063Y181500D01*
G54D18*
X0Y0D02*
X3937008Y0D01*
X3937008Y393701D01*
X0Y393701D01*
X0Y0D01*
G54D19*
X837500Y-170000D03*
X877500Y-170000D03*
X857500Y-190000D03*
X897500Y-190000D03*
X877500Y-130000D03*
X857500Y-150000D03*
X837500Y-130000D03*
X897500Y-150000D03*
X2150000Y181500D03*
X2210000Y181500D03*
X2067500Y205000D03*
X1970000Y205000D03*
X2017500Y162500D03*
X675000Y97500D03*
X1575000Y82500D03*
X2225000Y157500D03*
X2117500Y85000D03*
X1510000Y120000D03*
X1040000Y152500D03*
X3692500Y300000D03*
X3750000Y237500D03*
X3600000Y100000D03*
X1197500Y327500D03*
X1242500Y327500D03*
X1220000Y327500D03*
X2832500Y125000D03*
X2985000Y125000D03*
X2870000Y150000D03*
X2910000Y150000D03*
X2890000Y130000D03*
X2950000Y150000D03*
X2930000Y130000D03*
X2870000Y230000D03*
X2910000Y230000D03*
X2910000Y190000D03*
X2890000Y170000D03*
X2870000Y190000D03*
X2890000Y210000D03*
X2950000Y230000D03*
X2930000Y170000D03*
X2930000Y210000D03*
X2950000Y190000D03*
X2770000Y225000D03*
X2735000Y175000D03*
X3065000Y272500D03*
X3045000Y292500D03*
X3062500Y155000D03*
X807500Y85000D03*
X962500Y85000D03*
X865000Y90000D03*
X905000Y90000D03*
X865000Y130000D03*
X845000Y150000D03*
X845000Y110000D03*
X925000Y150000D03*
X885000Y150000D03*
X905000Y130000D03*
X885000Y110000D03*
X925000Y110000D03*
X865000Y170000D03*
X845000Y190000D03*
X905000Y170000D03*
X885000Y190000D03*
X925000Y190000D03*
X735000Y225000D03*
X705000Y135000D03*
X1030000Y227500D03*
X1050000Y207500D03*
X1072500Y80000D03*
X1702500Y70000D03*
X1855000Y70000D03*
X1760000Y75000D03*
X1800000Y75000D03*
X1740000Y95000D03*
X1740000Y135000D03*
X1820000Y95000D03*
X1760000Y155000D03*
X1800000Y155000D03*
X1800000Y115000D03*
X1820000Y135000D03*
X1780000Y95000D03*
X1780000Y135000D03*
X1760000Y115000D03*
X1740000Y175000D03*
X1820000Y175000D03*
X1780000Y175000D03*
X1740000Y225000D03*
X1610000Y120000D03*
X1940000Y202500D03*
X1920000Y222500D03*
X1995000Y75000D03*
X3185000Y197500D03*
X3185000Y215000D03*
X3167500Y220000D03*
X3167500Y202500D03*
X2115000Y130000D03*
X2095000Y147500D03*
X2635000Y140000D03*
X2655000Y122500D03*
X3387500Y155000D03*
X1532500Y330000D03*
X580000Y167500D03*
X600000Y150000D03*
X2277500Y235000D03*
X2277500Y205000D03*
X2315000Y235000D03*
X2352500Y235000D03*
X2352500Y205000D03*
X2295000Y220000D03*
X2315000Y205000D03*
X2335000Y220000D03*
X3370000Y155000D03*
X3210000Y145000D03*
X3345000Y205000D03*
X3485000Y145000D03*
X3120000Y245000D03*
X3295000Y275000D03*
X1510000Y80000D03*
X1120000Y170000D03*
G54D20*
X947500Y-132500D03*
X1447500Y327500D03*
X1217500Y250000D03*
X1217500Y225000D03*
X1217500Y200000D03*
X1217500Y172500D03*
X1217500Y275000D03*
X1217500Y300000D03*
X1217500Y147500D03*
X1452500Y275000D03*
X3312500Y175000D03*
X1452500Y147500D03*
X3315000Y60000D03*
X1452500Y302500D03*
X3347500Y110000D03*
X1452500Y172500D03*
X3337500Y57500D03*
X1452500Y197500D03*
X3297500Y100000D03*
X1452500Y225000D03*
X3387500Y60000D03*
X1452500Y250000D03*
X3362500Y95000D03*
G54D21*
X3176457Y208583D03*
X3233543Y208583D03*
X3176457Y281417D03*
X3233543Y281417D03*
G54D22*
X305000Y171850D03*
X255000Y171850D03*
X355000Y171850D03*
X155000Y171850D03*
X55000Y171850D03*
X105000Y171850D03*
X355000Y221850D03*
X305000Y221850D03*
X255000Y221850D03*
X205000Y221850D03*
X155000Y221850D03*
X105000Y221850D03*
X55000Y221850D03*
X205000Y171850D03*
X505000Y221850D03*
X455000Y221850D03*
X405000Y221850D03*
X405000Y171850D03*
X455000Y171850D03*
X505000Y171850D03*
G54D23*
X590000Y158504D03*
X590000Y221496D03*
X1040000Y153504D03*
X1040000Y216496D03*
X3055000Y218504D03*
X3055000Y281496D03*
X2645000Y68504D03*
X2645000Y131496D03*
X2105000Y138504D03*
X2105000Y201496D03*
X1930000Y148504D03*
X1930000Y211496D03*
G54D24*
X675000Y122992D03*
X675000Y97008D03*
X1020000Y82008D03*
X1020000Y107992D03*
X2175000Y72992D03*
X2175000Y47008D03*
X2775000Y117008D03*
X2775000Y142992D03*
X1575000Y82008D03*
X1575000Y107992D03*
X1920000Y72008D03*
X1920000Y97992D03*
G54D25*
X705709Y135000D03*
X744291Y135000D03*
X2735709Y175000D03*
X2774291Y175000D03*
X3384291Y205000D03*
X3345709Y205000D03*
X1649291Y120000D03*
X1610709Y120000D03*
X1700709Y225000D03*
X1739291Y225000D03*
G54D26*
X806260Y90787D03*
X963740Y90787D03*
X806260Y169528D03*
X806260Y149843D03*
X806260Y110472D03*
X806260Y130157D03*
X963740Y110472D03*
X963740Y169528D03*
X963740Y149843D03*
X963740Y130157D03*
X806260Y189213D03*
X963740Y189213D03*
X2830610Y130138D03*
X2830610Y149823D03*
X2830610Y169508D03*
X2988091Y130138D03*
X2988091Y149823D03*
X2988091Y169508D03*
X2830610Y208878D03*
X2830610Y228563D03*
X2830610Y189193D03*
X2988091Y208878D03*
X2988091Y228563D03*
X2988091Y189193D03*
X1700610Y75138D03*
X1858091Y75138D03*
X1700610Y153878D03*
X1700610Y134193D03*
X1700610Y94823D03*
X1700610Y114508D03*
X1858091Y153878D03*
X1858091Y94823D03*
X1858091Y114508D03*
X1858091Y134193D03*
X1700610Y173563D03*
X1858091Y173563D03*
G54D27*
X885000Y140000D03*
X2909350Y179350D03*
X1779350Y124350D03*
G54D28*
X1072992Y80000D03*
X1047008Y80000D03*
X2092008Y85000D03*
X2117992Y85000D03*
X2192992Y105000D03*
X2167008Y105000D03*
X3037008Y155000D03*
X3062992Y155000D03*
X3362008Y240000D03*
X3387992Y240000D03*
X1967008Y75000D03*
X1992992Y75000D03*
X1507008Y330000D03*
X1532992Y330000D03*
G54D29*
X735000Y224291D03*
X735000Y185709D03*
X3120000Y245709D03*
X3120000Y284291D03*
X2770000Y225709D03*
X2770000Y264291D03*
X3210000Y144291D03*
X3210000Y105709D03*
X3485000Y105709D03*
X3485000Y144291D03*
X3295000Y235709D03*
X3295000Y274291D03*
X1510000Y80709D03*
X1510000Y119291D03*
G54D30*
X2460866Y130000D03*
G54D31*
X2423465Y122126D02*
X2498267Y122126D01*
X2498267Y137874D01*
X2423465Y137874D01*
X2423465Y122126D01*D02*
G54D32*
X2569134Y70945D03*
X2569134Y130000D03*
X2569134Y189055D03*
G54D33*
X2315000Y120787D03*
X2315000Y219213D03*
G54D34*
X2274646Y102086D02*
X2355354Y102086D01*
X2355354Y139488D01*
X2274646Y139488D01*
X2274646Y102086D01*D02*
X2274646Y200512D02*
X2355354Y200512D01*
X2355354Y237914D01*
X2274646Y237914D01*
X2274646Y200512D01*D02*
G54D35*
X2172126Y165866D03*
X2187874Y165866D03*
X2187874Y150118D03*
X2172126Y150118D03*
X2172126Y197362D03*
X2172126Y181614D03*
X2187874Y181614D03*
X2187874Y197362D03*
G54D36*
X3306280Y79980D03*
X3320059Y79980D03*
X3333839Y79980D03*
X3347618Y79980D03*
X3361398Y79980D03*
X3375177Y79980D03*
X3388957Y79980D03*
X3306280Y154783D03*
X3320059Y154783D03*
X3333839Y154783D03*
X3347618Y154783D03*
X3361398Y154783D03*
X3375177Y154783D03*
X3388957Y154783D03*
G54D37*
X3304705Y74075D02*
X3307855Y74075D01*
X3307855Y85885D01*
X3304705Y85885D01*
X3304705Y74075D01*D02*
X3318484Y74075D02*
X3321634Y74075D01*
X3321634Y85885D01*
X3318484Y85885D01*
X3318484Y74075D01*D02*
X3332264Y74075D02*
X3335414Y74075D01*
X3335414Y85885D01*
X3332264Y85885D01*
X3332264Y74075D01*D02*
X3346043Y74075D02*
X3349193Y74075D01*
X3349193Y85885D01*
X3346043Y85885D01*
X3346043Y74075D01*D02*
X3359823Y74075D02*
X3362973Y74075D01*
X3362973Y85885D01*
X3359823Y85885D01*
X3359823Y74075D01*D02*
X3373602Y74075D02*
X3376752Y74075D01*
X3376752Y85885D01*
X3373602Y85885D01*
X3373602Y74075D01*D02*
X3387382Y74075D02*
X3390532Y74075D01*
X3390532Y85885D01*
X3387382Y85885D01*
X3387382Y74075D01*D02*
X3304705Y148878D02*
X3307855Y148878D01*
X3307855Y160688D01*
X3304705Y160688D01*
X3304705Y148878D01*D02*
X3249981Y130768D02*
X3261791Y130768D01*
X3261791Y141988D01*
X3249981Y141988D01*
X3249981Y130768D01*D02*
X3249981Y92776D02*
X3261791Y92776D01*
X3261791Y103996D01*
X3249981Y103996D01*
X3249981Y92776D01*D02*
X3318484Y148878D02*
X3321634Y148878D01*
X3321634Y160688D01*
X3318484Y160688D01*
X3318484Y148878D01*D02*
X3332264Y148878D02*
X3335414Y148878D01*
X3335414Y160688D01*
X3332264Y160688D01*
X3332264Y148878D01*D02*
X3346043Y148878D02*
X3349193Y148878D01*
X3349193Y160688D01*
X3346043Y160688D01*
X3346043Y148878D01*D02*
X3359823Y148878D02*
X3362973Y148878D01*
X3362973Y160688D01*
X3359823Y160688D01*
X3359823Y148878D01*D02*
X3373602Y148878D02*
X3376752Y148878D01*
X3376752Y160688D01*
X3373602Y160688D01*
X3373602Y148878D01*D02*
X3387382Y148878D02*
X3390532Y148878D01*
X3390532Y160688D01*
X3387382Y160688D01*
X3387382Y148878D01*D02*
X3433445Y130768D02*
X3445255Y130768D01*
X3445255Y141988D01*
X3433445Y141988D01*
X3433445Y130768D01*D02*
X3433445Y92776D02*
X3445255Y92776D01*
X3445255Y103996D01*
X3433445Y103996D01*
X3433445Y92776D01*D02*
X1191300Y140393D02*
X1250354Y140393D01*
X1250354Y154173D01*
X1191300Y154173D01*
X1191300Y140393D01*D02*
X1191300Y114803D02*
X1250354Y114803D01*
X1250354Y128583D01*
X1191300Y128583D01*
X1191300Y114803D01*D02*
X1191300Y89212D02*
X1250354Y89212D01*
X1250354Y102992D01*
X1191300Y102992D01*
X1191300Y89212D01*D02*
X1419646Y89212D02*
X1478700Y89212D01*
X1478700Y102992D01*
X1419646Y102992D01*
X1419646Y89212D01*D02*
X1419646Y114803D02*
X1478700Y114803D01*
X1478700Y128583D01*
X1419646Y128583D01*
X1419646Y114803D01*D02*
X1419646Y140393D02*
X1478700Y140393D01*
X1478700Y154173D01*
X1419646Y154173D01*
X1419646Y140393D01*D02*
X1191300Y242756D02*
X1250354Y242756D01*
X1250354Y256536D01*
X1191300Y256536D01*
X1191300Y242756D01*D02*
X1191300Y217165D02*
X1250354Y217165D01*
X1250354Y230945D01*
X1191300Y230945D01*
X1191300Y217165D01*D02*
X1191300Y165984D02*
X1250354Y165984D01*
X1250354Y179764D01*
X1191300Y179764D01*
X1191300Y165984D01*D02*
X1191300Y191575D02*
X1250354Y191575D01*
X1250354Y205355D01*
X1191300Y205355D01*
X1191300Y191575D01*D02*
X1419646Y165984D02*
X1478700Y165984D01*
X1478700Y179764D01*
X1419646Y179764D01*
X1419646Y165984D01*D02*
X1419646Y191575D02*
X1478700Y191575D01*
X1478700Y205355D01*
X1419646Y205355D01*
X1419646Y191575D01*D02*
X1419646Y242756D02*
X1478700Y242756D01*
X1478700Y256536D01*
X1419646Y256536D01*
X1419646Y242756D01*D02*
X1419646Y217165D02*
X1478700Y217165D01*
X1478700Y230945D01*
X1419646Y230945D01*
X1419646Y217165D01*D02*
X1191300Y319527D02*
X1250354Y319527D01*
X1250354Y333307D01*
X1191300Y333307D01*
X1191300Y319527D01*D02*
X1191300Y268346D02*
X1250354Y268346D01*
X1250354Y282126D01*
X1191300Y282126D01*
X1191300Y268346D01*D02*
X1191300Y293937D02*
X1250354Y293937D01*
X1250354Y307717D01*
X1191300Y307717D01*
X1191300Y293937D01*D02*
X1419646Y319527D02*
X1478700Y319527D01*
X1478700Y333307D01*
X1419646Y333307D01*
X1419646Y319527D01*D02*
X1419646Y268346D02*
X1478700Y268346D01*
X1478700Y282126D01*
X1419646Y282126D01*
X1419646Y268346D01*D02*
X1419646Y293937D02*
X1478700Y293937D01*
X1478700Y307717D01*
X1419646Y307717D01*
X1419646Y293937D01*D02*
G54D38*
X3255886Y136378D03*
X3439350Y136378D03*
X3439350Y98386D03*
G54D39*
X3255886Y98386D03*
G54D40*
X3831210Y238994D03*
X3768994Y301210D03*
X3618790Y151006D03*
X3681006Y88790D03*
G54D41*
X1220827Y147283D03*
X1220827Y121693D03*
X1220827Y96102D03*
X1449173Y96102D03*
X1449173Y121693D03*
X1449173Y147283D03*
X1220827Y249646D03*
X1220827Y224055D03*
X1220827Y172874D03*
X1220827Y198465D03*
X1449173Y172874D03*
X1449173Y198465D03*
X1449173Y249646D03*
X1449173Y224055D03*
X1220827Y326417D03*
X1220827Y275236D03*
X1220827Y300827D03*
X1449173Y326417D03*
X1449173Y275236D03*
X1449173Y300827D03*
G54D42*
X1122473Y169755D03*
X1120245Y167527D03*
X1149755Y142473D03*
X1147527Y140245D03*

M02*
