G04 Generated by Ultiboard 14.2 *
%FSLAX46Y46*%
%MOIN*%

%ADD10C,0.000001*%
%ADD11C,0.005000*%
%ADD12C,0.000039*%


G04 ColorRGB FF00CC for the following layer *
%LN_uc780f65408524263a9819c98765c42*%
%LPD*%
G54D10*
G54D11*
X-10000Y-10000D02*
X-10000Y31370D01*
X-10000Y-10000D02*
X385701Y-10000D01*
X3947008Y-10000D02*
X3551307Y-10000D01*
X3947008Y-10000D02*
X3947008Y31370D01*
X3947008Y403701D02*
X3947008Y362331D01*
X3947008Y403701D02*
X3551307Y403701D01*
X-10000Y403701D02*
X385701Y403701D01*
X-10000Y403701D02*
X-10000Y362331D01*
X-206850Y-10000D02*
X-600551Y-10000D01*
X-403701Y-206850D02*
X-403701Y186850D01*
X-551339Y-10000D02*
G75*
D01*
G02X-551339Y-10000I147638J0*
G01*
X4143858Y-10000D02*
X4537559Y-10000D01*
X4340709Y-206850D02*
X4340709Y186850D01*
X4193071Y-10000D02*
G75*
D01*
G02X4193071Y-10000I147638J0*
G01*
X4291496Y-10000D02*
G75*
D01*
G02X4291496Y-10000I49213J0*
G01*
X-206850Y403701D02*
X-600551Y403701D01*
X-403701Y206850D02*
X-403701Y600551D01*
X-551339Y403701D02*
G75*
D01*
G02X-551339Y403701I147638J0*
G01*
X-502126Y403701D02*
G75*
D01*
G02X-502126Y403701I98425J0*
G01*
X-452913Y403701D02*
G75*
D01*
G02X-452913Y403701I49212J0*
G01*
X-10000Y-10000D02*
X-10000Y31370D01*
X-10000Y-10000D02*
X385701Y-10000D01*
X3947008Y-10000D02*
X3551307Y-10000D01*
X3947008Y-10000D02*
X3947008Y31370D01*
X3947008Y403701D02*
X3947008Y362331D01*
X3947008Y403701D02*
X3551307Y403701D01*
X-10000Y403701D02*
X385701Y403701D01*
X-10000Y403701D02*
X-10000Y362331D01*
X-206850Y-10000D02*
X-600551Y-10000D01*
X-403701Y-206850D02*
X-403701Y186850D01*
X-551339Y-10000D02*
G75*
D01*
G02X-551339Y-10000I147638J0*
G01*
X4143858Y-10000D02*
X4537559Y-10000D01*
X4340709Y-206850D02*
X4340709Y186850D01*
X4193071Y-10000D02*
G75*
D01*
G02X4193071Y-10000I147638J0*
G01*
X4291496Y-10000D02*
G75*
D01*
G02X4291496Y-10000I49213J0*
G01*
X-206850Y403701D02*
X-600551Y403701D01*
X-403701Y206850D02*
X-403701Y600551D01*
X-551339Y403701D02*
G75*
D01*
G02X-551339Y403701I147638J0*
G01*
X-502126Y403701D02*
G75*
D01*
G02X-502126Y403701I98425J0*
G01*
X-452913Y403701D02*
G75*
D01*
G02X-452913Y403701I49212J0*
G01*
G54D12*
X0Y0D02*
X3937008Y0D01*
X3937008Y393701D01*
X0Y393701D01*
X0Y0D01*

M02*
