M48
INCH,TZ
VER,1
FMAT,2
DETECT,ON
ATC,ON
T1C0.007874
T2C0.023622
T3C0.027559
%
T1
X837500Y-170000
X877500
X857500Y-190000
X897500
X877500Y-130000
X857500Y-150000
X837500Y-130000
X947500Y-132500
X897500Y-150000
X1617500Y162500
X1570000Y205000
X1667500
X1750000Y181500
X1810000
X1047500Y327500
X817500Y250000
Y225000
Y200000
Y172500
Y275000
Y300000
X1052500Y250000
X2962500Y95000
X1175000Y82500
X1825000Y157500
X1717500Y85000
X1052500Y225000
X2987500Y60000
X1052500Y197500
X2897500Y100000
X1052500Y172500
X2937500Y57500
X1052500Y275000
X2912500Y175000
X1052500Y147500
X2915000Y60000
X1052500Y302500
X2947500Y110000
X817500Y147500
X1110000Y120000
X3245000Y100000
X3337500Y300000
X3395000Y237500
X797500Y327500
X842500
X820000
X2432500Y125000
X2585000
X2470000Y150000
X2510000
X2530000Y130000
X2490000
X2550000Y150000
X2530000Y170000
X2470000Y230000
X2510000
Y190000
X2530000Y210000
X2490000Y170000
X2470000Y190000
X2490000Y210000
X2550000Y230000
Y190000
X2370000Y225000
X2335000Y175000
X2665000Y272500
X2645000Y292500
X2662500Y155000
X1110000Y80000
X2720000Y245000
X2895000Y275000
X720000Y170000
X2945000Y205000
X2675000Y65000
X1302500Y70000
X1455000
X1360000Y75000
X1400000
X1340000Y95000
Y135000
X1360000Y155000
X1400000
X1420000Y95000
Y135000
X1400000Y115000
X1380000Y95000
Y135000
X1360000Y115000
X1340000Y175000
X1420000
X1380000
X1340000Y225000
X1210000Y120000
X1540000Y202500
X1520000Y222500
X1595000Y75000
X2767500Y220000
Y202500
X2785000Y197500
Y215000
X1695000Y147500
X1715000Y130000
X2255000Y122500
X2235000Y140000
X2987500Y155000
X1132500Y330000
X580000Y167500
X600000Y150000
X1877500Y235000
X1895000Y220000
X1877500Y205000
X1915000Y235000
X1952500
Y205000
X1915000
X1935000Y220000
X2970000Y155000
X2810000Y145000
T2
X305000Y171850
X255000
X355000
X155000
X55000
X105000
X355000Y221850
X305000
X255000
X205000
X155000
X105000
X55000
X205000Y171850
X505000Y221850
X455000
X405000
Y171850
X455000
X505000
T3
X3476210Y238994
X3413994Y301210
X3263790Y151006
X3326006Y88790
M30
