M48
INCH,TZ
VER,1
FMAT,2
DETECT,ON
ATC,ON
T1C0.007874
T2C0.023622
T3C0.027559
%
T1
X837500Y-170000
X877500
X857500Y-190000
X897500
X877500Y-130000
X857500Y-150000
X837500Y-130000
X947500Y-132500
X897500Y-150000
X2150000Y181500
X2210000
X2067500Y205000
X1970000
X2017500Y162500
X1447500Y327500
X1217500Y250000
Y225000
Y200000
Y172500
Y275000
Y300000
Y147500
X675000Y97500
X1575000Y82500
X2225000Y157500
X2117500Y85000
X1452500Y275000
X3312500Y175000
X1452500Y147500
X3315000Y60000
X1452500Y302500
X3347500Y110000
X1510000Y120000
X1040000Y152500
X1452500Y172500
X3337500Y57500
X1452500Y197500
X3297500Y100000
X1452500Y225000
X3387500Y60000
X1452500Y250000
X3362500Y95000
X3692500Y300000
X3750000Y237500
X3600000Y100000
X1197500Y327500
X1242500
X1220000
X2832500Y125000
X2985000
X2870000Y150000
X2910000
X2890000Y130000
X2950000Y150000
X2930000Y130000
X2870000Y230000
X2910000
Y190000
X2890000Y170000
X2870000Y190000
X2890000Y210000
X2950000Y230000
X2930000Y170000
Y210000
X2950000Y190000
X2770000Y225000
X2735000Y175000
X3065000Y272500
X3045000Y292500
X3062500Y155000
X807500Y85000
X962500
X865000Y90000
X905000
X865000Y130000
X845000Y150000
Y110000
X925000Y150000
X885000
X905000Y130000
X885000Y110000
X925000
X865000Y170000
X845000Y190000
X905000Y170000
X885000Y190000
X925000
X735000Y225000
X705000Y135000
X1030000Y227500
X1050000Y207500
X1072500Y80000
X1702500Y70000
X1855000
X1760000Y75000
X1800000
X1740000Y95000
Y135000
X1820000Y95000
X1760000Y155000
X1800000
Y115000
X1820000Y135000
X1780000Y95000
Y135000
X1760000Y115000
X1740000Y175000
X1820000
X1780000
X1740000Y225000
X1610000Y120000
X1940000Y202500
X1920000Y222500
X1995000Y75000
X3185000Y197500
Y215000
X3167500Y220000
Y202500
X2115000Y130000
X2095000Y147500
X2635000Y140000
X2655000Y122500
X3387500Y155000
X1532500Y330000
X580000Y167500
X600000Y150000
X2277500Y235000
Y205000
X2315000Y235000
X2352500
Y205000
X2295000Y220000
X2315000Y205000
X2335000Y220000
X3370000Y155000
X3210000Y145000
X3345000Y205000
X3485000Y145000
X3120000Y245000
X3295000Y275000
X1510000Y80000
X1120000Y170000
T2
X305000Y171850
X255000
X355000
X155000
X55000
X105000
X355000Y221850
X305000
X255000
X205000
X155000
X105000
X55000
X205000Y171850
X505000Y221850
X455000
X405000
Y171850
X455000
X505000
T3
X3831210Y238994
X3768994Y301210
X3618790Y151006
X3681006Y88790
M30
