G04 Generated by Ultiboard 14.2 *
%FSLAX46Y46*%
%MOIN*%

%ADD10C,0.000001*%
%ADD11C,0.000039*%
%ADD12C,0.005000*%


G04 ColorRGB 00FF00 for the following layer *
%LN3D_uc44fe1606f5e955c42*%
%LPD*%
G54D10*
G54D11*
X3271960Y51337D02*
X3241337Y81960D01*
X3258040Y98663D02*
X3288663Y68040D01*
X3271960Y51337D01*
X3241337Y81960D02*
X3258040Y98663D01*
X3337598Y306496D02*
X3362402Y306496D01*
X3362402Y293504D02*
X3337598Y293504D01*
X3337598Y306496D01*
X3362402Y306496D02*
X3362402Y293504D01*
X3397598Y246496D02*
X3422402Y246496D01*
X3422402Y233504D02*
X3397598Y233504D01*
X3397598Y246496D01*
X3422402Y246496D02*
X3422402Y233504D01*
X3035000Y55000D02*
X2985000Y-85000D01*
X2982421Y-91219D01*
X2980393Y-97639D01*
X2978933Y-104212D01*
X2978052Y-110887D01*
X2977755Y-117613D01*
X2978046Y-124340D01*
X2978922Y-131015D01*
X2980376Y-137589D01*
X2982398Y-144011D01*
X2984972Y-150233D01*
X2988078Y-156206D01*
X2991693Y-161886D01*
X2995789Y-167229D01*
X3000336Y-172195D01*
X3005298Y-176746D01*
X3010637Y-180847D01*
X3016314Y-184467D01*
X3022285Y-187579D01*
X3028504Y-190158D01*
X3034924Y-192185D01*
X3041497Y-193645D01*
X3048172Y-194527D01*
X3054898Y-194824D01*
X3061625Y-194533D01*
X3068300Y-193657D01*
X3074874Y-192203D01*
X3081296Y-190181D01*
X3087518Y-187607D01*
X3093491Y-184501D01*
X3099171Y-180886D01*
X3104514Y-176789D01*
X3109480Y-172243D01*
X3114031Y-167281D01*
X3118132Y-161941D01*
X3121752Y-156264D01*
X3124864Y-150294D01*
X3125000Y-150000D01*
X0Y-10000D02*
X0Y393701D01*
X3125000Y393701D01*
X3035000Y55000D01*
X2570000Y-10000D02*
X2880000Y-320000D01*
X2570000Y-10000D02*
X0Y-10000D01*
X3543307Y50000D02*
X3543307Y393701D01*
X3173307Y-320000D02*
X3543307Y50000D01*
X2880000Y-320000D02*
X3173307Y-320000D01*
X3125000Y-150000D02*
X3235000Y185000D01*
X3350000Y393701D01*
X3543307Y393701D01*
G54D12*
X-10000Y-330000D02*
X-10000Y-256630D01*
X-10000Y-330000D02*
X346331Y-330000D01*
X3553307Y-330000D02*
X3196976Y-330000D01*
X3553307Y-330000D02*
X3553307Y-256630D01*
X3553307Y403701D02*
X3553307Y330331D01*
X3553307Y403701D02*
X3196976Y403701D01*
X-10000Y403701D02*
X346331Y403701D01*
X-10000Y403701D02*
X-10000Y330331D01*
X-206850Y-330000D02*
X-600551Y-330000D01*
X-403701Y-526850D02*
X-403701Y-133150D01*
X-551339Y-330000D02*
G75*
D01*
G02X-551339Y-330000I147638J0*
G01*
X3750157Y-330000D02*
X4143858Y-330000D01*
X3947008Y-526850D02*
X3947008Y-133150D01*
X3799370Y-330000D02*
G75*
D01*
G02X3799370Y-330000I147638J0*
G01*
X3897795Y-330000D02*
G75*
D01*
G02X3897795Y-330000I49213J0*
G01*
X-206850Y403701D02*
X-600551Y403701D01*
X-403701Y206850D02*
X-403701Y600551D01*
X-551339Y403701D02*
G75*
D01*
G02X-551339Y403701I147638J0*
G01*
X-502126Y403701D02*
G75*
D01*
G02X-502126Y403701I98425J0*
G01*
X-452913Y403701D02*
G75*
D01*
G02X-452913Y403701I49212J0*
G01*
X-10000Y-330000D02*
X-10000Y-256630D01*
X-10000Y-330000D02*
X346331Y-330000D01*
X3553307Y-330000D02*
X3196976Y-330000D01*
X3553307Y-330000D02*
X3553307Y-256630D01*
X3553307Y403701D02*
X3553307Y330331D01*
X3553307Y403701D02*
X3196976Y403701D01*
X-10000Y403701D02*
X346331Y403701D01*
X-10000Y403701D02*
X-10000Y330331D01*
X-206850Y-330000D02*
X-600551Y-330000D01*
X-403701Y-526850D02*
X-403701Y-133150D01*
X-551339Y-330000D02*
G75*
D01*
G02X-551339Y-330000I147638J0*
G01*
X3750157Y-330000D02*
X4143858Y-330000D01*
X3947008Y-526850D02*
X3947008Y-133150D01*
X3799370Y-330000D02*
G75*
D01*
G02X3799370Y-330000I147638J0*
G01*
X3897795Y-330000D02*
G75*
D01*
G02X3897795Y-330000I49213J0*
G01*
X-206850Y403701D02*
X-600551Y403701D01*
X-403701Y206850D02*
X-403701Y600551D01*
X-551339Y403701D02*
G75*
D01*
G02X-551339Y403701I147638J0*
G01*
X-502126Y403701D02*
G75*
D01*
G02X-502126Y403701I98425J0*
G01*
X-452913Y403701D02*
G75*
D01*
G02X-452913Y403701I49212J0*
G01*

M02*
