G04 Generated by Ultiboard 14.2 *
%FSLAX46Y46*%
%MOIN*%

%ADD10C,0.000001*%
%ADD11C,0.000039*%
%ADD12C,0.005000*%


G04 ColorRGB 00FF00 for the following layer *
%LN3D_uc44fe1606f5e955c42*%
%LPD*%
G54D10*
G54D11*
X3266960Y61337D02*
X3236337Y91960D01*
X3253040Y108663D02*
X3283663Y78040D01*
X3266960Y61337D01*
X3236337Y91960D02*
X3253040Y108663D01*
X3397598Y246496D02*
X3422402Y246496D01*
X3422402Y233504D02*
X3397598Y233504D01*
X3397598Y246496D01*
X3422402Y246496D02*
X3422402Y233504D01*
X3337598Y306496D02*
X3362402Y306496D01*
X3362402Y293504D02*
X3337598Y293504D01*
X3337598Y306496D01*
X3362402Y306496D02*
X3362402Y293504D01*
G54D12*
X-10000Y-206850D02*
X-10000Y-145795D01*
X-10000Y-206850D02*
X346331Y-206850D01*
X3553307Y-206850D02*
X3196976Y-206850D01*
X3553307Y-206850D02*
X3553307Y-145795D01*
X3553307Y403701D02*
X3553307Y342646D01*
X3553307Y403701D02*
X3196976Y403701D01*
X-10000Y403701D02*
X346331Y403701D01*
X-10000Y403701D02*
X-10000Y342646D01*
X-206850Y-206850D02*
X-600551Y-206850D01*
X-403701Y-403701D02*
X-403701Y-10000D01*
X-551339Y-206850D02*
G75*
D01*
G02X-551339Y-206850I147638J0*
G01*
X3750157Y-206850D02*
X4143858Y-206850D01*
X3947008Y-403701D02*
X3947008Y-10000D01*
X3799370Y-206850D02*
G75*
D01*
G02X3799370Y-206850I147638J0*
G01*
X3897795Y-206850D02*
G75*
D01*
G02X3897795Y-206850I49213J0*
G01*
X-206850Y403701D02*
X-600551Y403701D01*
X-403701Y206850D02*
X-403701Y600551D01*
X-551339Y403701D02*
G75*
D01*
G02X-551339Y403701I147638J0*
G01*
X-502126Y403701D02*
G75*
D01*
G02X-502126Y403701I98425J0*
G01*
X-452913Y403701D02*
G75*
D01*
G02X-452913Y403701I49212J0*
G01*

M02*
