G04 Generated by Ultiboard 14.2 *
%FSLAX46Y46*%
%MOIN*%

%ADD10C,0.000001*%
%ADD11C,0.006124*%
%ADD12C,0.005000*%
%ADD13C,0.000039*%


G04 ColorRGB FF14FF for the following layer *
%LN_uc54e1d53705c425e955c42*%
%LPD*%
G54D10*
G54D11*
X3731081Y216693D02*
X3731081Y256063D01*
X3715402Y256063D01*
X3707563Y248189D01*
X3707563Y244252D01*
X3715402Y236378D01*
X3731081Y236378D01*
X3727161Y236378D02*
X3707563Y216693D01*
X3691885Y248189D02*
X3684046Y256063D01*
X3684046Y216693D01*
X3695805Y216693D02*
X3672288Y216693D01*
X3660529Y248189D02*
X3652690Y256063D01*
X3644851Y256063D01*
X3637012Y248189D01*
X3637012Y224567D01*
X3644851Y216693D01*
X3652690Y216693D01*
X3660529Y224567D01*
X3660529Y248189D01*
X3637012Y248189D02*
X3660529Y224567D01*
X3671632Y281811D02*
X3671632Y321181D01*
X3655954Y321181D01*
X3648115Y313307D01*
X3648115Y309370D01*
X3655954Y301496D01*
X3671632Y301496D01*
X3667712Y301496D02*
X3648115Y281811D01*
X3636356Y289685D02*
X3628517Y281811D01*
X3620678Y281811D01*
X3612839Y289685D01*
X3612839Y305433D01*
X3612839Y313307D01*
X3620678Y321181D01*
X3628517Y321181D01*
X3636356Y313307D01*
X3636356Y305433D01*
X3628517Y297559D01*
X3620678Y297559D01*
X3612839Y305433D01*
X3732563Y129567D02*
X3740402Y121693D01*
X3748241Y121693D01*
X3756081Y129567D01*
X3756081Y153189D01*
X3748241Y161063D01*
X3740402Y161063D01*
X3732563Y153189D01*
X3716885Y153189D02*
X3709046Y161063D01*
X3709046Y121693D01*
X3720805Y121693D02*
X3697288Y121693D01*
X3662012Y137441D02*
X3685529Y137441D01*
X3665932Y161063D01*
X3665932Y121693D01*
X3669851Y121693D02*
X3662012Y121693D01*
G54D12*
X-10000Y-10000D02*
X-10000Y31370D01*
X-10000Y-10000D02*
X385701Y-10000D01*
X3947008Y-10000D02*
X3551307Y-10000D01*
X3947008Y-10000D02*
X3947008Y31370D01*
X3947008Y403701D02*
X3947008Y362331D01*
X3947008Y403701D02*
X3551307Y403701D01*
X-10000Y403701D02*
X385701Y403701D01*
X-10000Y403701D02*
X-10000Y362331D01*
X-206850Y-10000D02*
X-600551Y-10000D01*
X-403701Y-206850D02*
X-403701Y186850D01*
X-551339Y-10000D02*
G75*
D01*
G02X-551339Y-10000I147638J0*
G01*
X4143858Y-10000D02*
X4537559Y-10000D01*
X4340709Y-206850D02*
X4340709Y186850D01*
X4193071Y-10000D02*
G75*
D01*
G02X4193071Y-10000I147638J0*
G01*
X4291496Y-10000D02*
G75*
D01*
G02X4291496Y-10000I49213J0*
G01*
X-206850Y403701D02*
X-600551Y403701D01*
X-403701Y206850D02*
X-403701Y600551D01*
X-551339Y403701D02*
G75*
D01*
G02X-551339Y403701I147638J0*
G01*
X-502126Y403701D02*
G75*
D01*
G02X-502126Y403701I98425J0*
G01*
X-452913Y403701D02*
G75*
D01*
G02X-452913Y403701I49212J0*
G01*
X-10000Y-10000D02*
X-10000Y31370D01*
X-10000Y-10000D02*
X385701Y-10000D01*
X3947008Y-10000D02*
X3551307Y-10000D01*
X3947008Y-10000D02*
X3947008Y31370D01*
X3947008Y403701D02*
X3947008Y362331D01*
X3947008Y403701D02*
X3551307Y403701D01*
X-10000Y403701D02*
X385701Y403701D01*
X-10000Y403701D02*
X-10000Y362331D01*
X-206850Y-10000D02*
X-600551Y-10000D01*
X-403701Y-206850D02*
X-403701Y186850D01*
X-551339Y-10000D02*
G75*
D01*
G02X-551339Y-10000I147638J0*
G01*
X4143858Y-10000D02*
X4537559Y-10000D01*
X4340709Y-206850D02*
X4340709Y186850D01*
X4193071Y-10000D02*
G75*
D01*
G02X4193071Y-10000I147638J0*
G01*
X4291496Y-10000D02*
G75*
D01*
G02X4291496Y-10000I49213J0*
G01*
X-206850Y403701D02*
X-600551Y403701D01*
X-403701Y206850D02*
X-403701Y600551D01*
X-551339Y403701D02*
G75*
D01*
G02X-551339Y403701I147638J0*
G01*
X-502126Y403701D02*
G75*
D01*
G02X-502126Y403701I98425J0*
G01*
X-452913Y403701D02*
G75*
D01*
G02X-452913Y403701I49212J0*
G01*
G54D13*
X0Y0D02*
X3937008Y0D01*
X3937008Y393701D01*
X0Y393701D01*
X0Y0D01*

M02*
