G04 Generated by Ultiboard 14.2 *
%FSLAX46Y46*%
%MOIN*%

%ADD10C,0.000001*%
%ADD11C,0.005000*%
%ADD12C,0.000039*%
%ADD13R,0.037402X0.041339*%
%ADD14R,0.039370X0.037402*%
%ADD15R,0.016535X0.018110*%
%ADD16R,0.022835X0.025984*%
%ADD17R,0.031496X0.011811*%
%ADD18R,0.106299X0.122047*%
%ADD19R,0.018110X0.016535*%
%ADD20R,0.025984X0.022835*%
%ADD21R,0.074803X0.015748*%
%ADD22C,0.070866*%
%ADD23R,0.059055X0.039370*%
%ADD24R,0.080709X0.037402*%
%ADD25C,0.009843*%
%ADD26C,0.007874*%
%ADD27R,0.003150X0.011811*%
%ADD28C,0.003937*%
%ADD29R,0.011811X0.011221*%
%ADD30R,0.011811X0.011220*%
%ADD31R,0.059055X0.013780*%
%ADD32P,0.032293X4*%


G04 ColorRGB 006666 for the following layer *
%LN_uc552a9710a5c4298765c42*%
%LPD*%
G54D10*
G54D11*
X-10000Y-10000D02*
X-10000Y31370D01*
X-10000Y-10000D02*
X385701Y-10000D01*
X3947008Y-10000D02*
X3551307Y-10000D01*
X3947008Y-10000D02*
X3947008Y31370D01*
X3947008Y403701D02*
X3947008Y362331D01*
X3947008Y403701D02*
X3551307Y403701D01*
X-10000Y403701D02*
X385701Y403701D01*
X-10000Y403701D02*
X-10000Y362331D01*
X-206850Y-10000D02*
X-600551Y-10000D01*
X-403701Y-206850D02*
X-403701Y186850D01*
X-551339Y-10000D02*
G75*
D01*
G02X-551339Y-10000I147638J0*
G01*
X4143858Y-10000D02*
X4537559Y-10000D01*
X4340709Y-206850D02*
X4340709Y186850D01*
X4193071Y-10000D02*
G75*
D01*
G02X4193071Y-10000I147638J0*
G01*
X4291496Y-10000D02*
G75*
D01*
G02X4291496Y-10000I49213J0*
G01*
X-206850Y403701D02*
X-600551Y403701D01*
X-403701Y206850D02*
X-403701Y600551D01*
X-551339Y403701D02*
G75*
D01*
G02X-551339Y403701I147638J0*
G01*
X-502126Y403701D02*
G75*
D01*
G02X-502126Y403701I98425J0*
G01*
X-452913Y403701D02*
G75*
D01*
G02X-452913Y403701I49212J0*
G01*
X-10000Y-10000D02*
X-10000Y31370D01*
X-10000Y-10000D02*
X385701Y-10000D01*
X3947008Y-10000D02*
X3551307Y-10000D01*
X3947008Y-10000D02*
X3947008Y31370D01*
X3947008Y403701D02*
X3947008Y362331D01*
X3947008Y403701D02*
X3551307Y403701D01*
X-10000Y403701D02*
X385701Y403701D01*
X-10000Y403701D02*
X-10000Y362331D01*
X-206850Y-10000D02*
X-600551Y-10000D01*
X-403701Y-206850D02*
X-403701Y186850D01*
X-551339Y-10000D02*
G75*
D01*
G02X-551339Y-10000I147638J0*
G01*
X4143858Y-10000D02*
X4537559Y-10000D01*
X4340709Y-206850D02*
X4340709Y186850D01*
X4193071Y-10000D02*
G75*
D01*
G02X4193071Y-10000I147638J0*
G01*
X4291496Y-10000D02*
G75*
D01*
G02X4291496Y-10000I49213J0*
G01*
X-206850Y403701D02*
X-600551Y403701D01*
X-403701Y206850D02*
X-403701Y600551D01*
X-551339Y403701D02*
G75*
D01*
G02X-551339Y403701I147638J0*
G01*
X-502126Y403701D02*
G75*
D01*
G02X-502126Y403701I98425J0*
G01*
X-452913Y403701D02*
G75*
D01*
G02X-452913Y403701I49212J0*
G01*
G54D12*
X0Y0D02*
X3937008Y0D01*
X3937008Y393701D01*
X0Y393701D01*
X0Y0D01*
G54D13*
X3176457Y208583D03*
X3233543Y208583D03*
X3176457Y281417D03*
X3233543Y281417D03*
G54D14*
X590000Y158504D03*
X590000Y221496D03*
X1040000Y153504D03*
X1040000Y216496D03*
X3055000Y218504D03*
X3055000Y281496D03*
X2645000Y68504D03*
X2645000Y131496D03*
X2105000Y138504D03*
X2105000Y201496D03*
X1930000Y148504D03*
X1930000Y211496D03*
G54D15*
X675000Y122992D03*
X675000Y97008D03*
X1020000Y82008D03*
X1020000Y107992D03*
X2175000Y72992D03*
X2175000Y47008D03*
X2775000Y117008D03*
X2775000Y142992D03*
X1575000Y82008D03*
X1575000Y107992D03*
X1920000Y72008D03*
X1920000Y97992D03*
G54D16*
X705709Y135000D03*
X744291Y135000D03*
X2735709Y175000D03*
X2774291Y175000D03*
X3384291Y205000D03*
X3345709Y205000D03*
X1649291Y120000D03*
X1610709Y120000D03*
X1700709Y225000D03*
X1739291Y225000D03*
G54D17*
X806260Y90787D03*
X963740Y90787D03*
X806260Y169528D03*
X806260Y149843D03*
X806260Y110472D03*
X806260Y130157D03*
X963740Y110472D03*
X963740Y169528D03*
X963740Y149843D03*
X963740Y130157D03*
X806260Y189213D03*
X963740Y189213D03*
X2830610Y130138D03*
X2830610Y149823D03*
X2830610Y169508D03*
X2988091Y130138D03*
X2988091Y149823D03*
X2988091Y169508D03*
X2830610Y208878D03*
X2830610Y228563D03*
X2830610Y189193D03*
X2988091Y208878D03*
X2988091Y228563D03*
X2988091Y189193D03*
X1700610Y75138D03*
X1858091Y75138D03*
X1700610Y153878D03*
X1700610Y134193D03*
X1700610Y94823D03*
X1700610Y114508D03*
X1858091Y153878D03*
X1858091Y94823D03*
X1858091Y114508D03*
X1858091Y134193D03*
X1700610Y173563D03*
X1858091Y173563D03*
G54D18*
X885000Y140000D03*
X2909350Y179350D03*
X1779350Y124350D03*
G54D19*
X1072992Y80000D03*
X1047008Y80000D03*
X2092008Y85000D03*
X2117992Y85000D03*
X2192992Y105000D03*
X2167008Y105000D03*
X3037008Y155000D03*
X3062992Y155000D03*
X3362008Y240000D03*
X3387992Y240000D03*
X1967008Y75000D03*
X1992992Y75000D03*
X1507008Y330000D03*
X1532992Y330000D03*
G54D20*
X735000Y224291D03*
X735000Y185709D03*
X3120000Y245709D03*
X3120000Y284291D03*
X2770000Y225709D03*
X2770000Y264291D03*
X3210000Y144291D03*
X3210000Y105709D03*
X3485000Y105709D03*
X3485000Y144291D03*
X3295000Y235709D03*
X3295000Y274291D03*
X1510000Y80709D03*
X1510000Y119291D03*
G54D21*
X2460866Y130000D03*
G54D22*
X2423465Y122126D02*
X2498267Y122126D01*
X2498267Y137874D01*
X2423465Y137874D01*
X2423465Y122126D01*D02*
G54D23*
X2569134Y70945D03*
X2569134Y130000D03*
X2569134Y189055D03*
G54D24*
X2315000Y120787D03*
X2315000Y219213D03*
G54D25*
X2274646Y102086D02*
X2355354Y102086D01*
X2355354Y139488D01*
X2274646Y139488D01*
X2274646Y102086D01*D02*
X2274646Y200512D02*
X2355354Y200512D01*
X2355354Y237914D01*
X2274646Y237914D01*
X2274646Y200512D01*D02*
G54D26*
X2172126Y165866D03*
X2187874Y165866D03*
X2187874Y150118D03*
X2172126Y150118D03*
X2172126Y197362D03*
X2172126Y181614D03*
X2187874Y181614D03*
X2187874Y197362D03*
G54D27*
X3306280Y79980D03*
X3320059Y79980D03*
X3333839Y79980D03*
X3347618Y79980D03*
X3361398Y79980D03*
X3375177Y79980D03*
X3388957Y79980D03*
X3306280Y154783D03*
X3320059Y154783D03*
X3333839Y154783D03*
X3347618Y154783D03*
X3361398Y154783D03*
X3375177Y154783D03*
X3388957Y154783D03*
G54D28*
X3304705Y74075D02*
X3307855Y74075D01*
X3307855Y85885D01*
X3304705Y85885D01*
X3304705Y74075D01*D02*
X3318484Y74075D02*
X3321634Y74075D01*
X3321634Y85885D01*
X3318484Y85885D01*
X3318484Y74075D01*D02*
X3332264Y74075D02*
X3335414Y74075D01*
X3335414Y85885D01*
X3332264Y85885D01*
X3332264Y74075D01*D02*
X3346043Y74075D02*
X3349193Y74075D01*
X3349193Y85885D01*
X3346043Y85885D01*
X3346043Y74075D01*D02*
X3359823Y74075D02*
X3362973Y74075D01*
X3362973Y85885D01*
X3359823Y85885D01*
X3359823Y74075D01*D02*
X3373602Y74075D02*
X3376752Y74075D01*
X3376752Y85885D01*
X3373602Y85885D01*
X3373602Y74075D01*D02*
X3387382Y74075D02*
X3390532Y74075D01*
X3390532Y85885D01*
X3387382Y85885D01*
X3387382Y74075D01*D02*
X3304705Y148878D02*
X3307855Y148878D01*
X3307855Y160688D01*
X3304705Y160688D01*
X3304705Y148878D01*D02*
X3249981Y130768D02*
X3261791Y130768D01*
X3261791Y141988D01*
X3249981Y141988D01*
X3249981Y130768D01*D02*
X3249981Y92776D02*
X3261791Y92776D01*
X3261791Y103996D01*
X3249981Y103996D01*
X3249981Y92776D01*D02*
X3318484Y148878D02*
X3321634Y148878D01*
X3321634Y160688D01*
X3318484Y160688D01*
X3318484Y148878D01*D02*
X3332264Y148878D02*
X3335414Y148878D01*
X3335414Y160688D01*
X3332264Y160688D01*
X3332264Y148878D01*D02*
X3346043Y148878D02*
X3349193Y148878D01*
X3349193Y160688D01*
X3346043Y160688D01*
X3346043Y148878D01*D02*
X3359823Y148878D02*
X3362973Y148878D01*
X3362973Y160688D01*
X3359823Y160688D01*
X3359823Y148878D01*D02*
X3373602Y148878D02*
X3376752Y148878D01*
X3376752Y160688D01*
X3373602Y160688D01*
X3373602Y148878D01*D02*
X3387382Y148878D02*
X3390532Y148878D01*
X3390532Y160688D01*
X3387382Y160688D01*
X3387382Y148878D01*D02*
X3433445Y130768D02*
X3445255Y130768D01*
X3445255Y141988D01*
X3433445Y141988D01*
X3433445Y130768D01*D02*
X3433445Y92776D02*
X3445255Y92776D01*
X3445255Y103996D01*
X3433445Y103996D01*
X3433445Y92776D01*D02*
X1191300Y140393D02*
X1250354Y140393D01*
X1250354Y154173D01*
X1191300Y154173D01*
X1191300Y140393D01*D02*
X1191300Y114803D02*
X1250354Y114803D01*
X1250354Y128583D01*
X1191300Y128583D01*
X1191300Y114803D01*D02*
X1191300Y89212D02*
X1250354Y89212D01*
X1250354Y102992D01*
X1191300Y102992D01*
X1191300Y89212D01*D02*
X1419646Y89212D02*
X1478700Y89212D01*
X1478700Y102992D01*
X1419646Y102992D01*
X1419646Y89212D01*D02*
X1419646Y114803D02*
X1478700Y114803D01*
X1478700Y128583D01*
X1419646Y128583D01*
X1419646Y114803D01*D02*
X1419646Y140393D02*
X1478700Y140393D01*
X1478700Y154173D01*
X1419646Y154173D01*
X1419646Y140393D01*D02*
X1191300Y242756D02*
X1250354Y242756D01*
X1250354Y256536D01*
X1191300Y256536D01*
X1191300Y242756D01*D02*
X1191300Y217165D02*
X1250354Y217165D01*
X1250354Y230945D01*
X1191300Y230945D01*
X1191300Y217165D01*D02*
X1191300Y165984D02*
X1250354Y165984D01*
X1250354Y179764D01*
X1191300Y179764D01*
X1191300Y165984D01*D02*
X1191300Y191575D02*
X1250354Y191575D01*
X1250354Y205355D01*
X1191300Y205355D01*
X1191300Y191575D01*D02*
X1419646Y165984D02*
X1478700Y165984D01*
X1478700Y179764D01*
X1419646Y179764D01*
X1419646Y165984D01*D02*
X1419646Y191575D02*
X1478700Y191575D01*
X1478700Y205355D01*
X1419646Y205355D01*
X1419646Y191575D01*D02*
X1419646Y242756D02*
X1478700Y242756D01*
X1478700Y256536D01*
X1419646Y256536D01*
X1419646Y242756D01*D02*
X1419646Y217165D02*
X1478700Y217165D01*
X1478700Y230945D01*
X1419646Y230945D01*
X1419646Y217165D01*D02*
X1191300Y319527D02*
X1250354Y319527D01*
X1250354Y333307D01*
X1191300Y333307D01*
X1191300Y319527D01*D02*
X1191300Y268346D02*
X1250354Y268346D01*
X1250354Y282126D01*
X1191300Y282126D01*
X1191300Y268346D01*D02*
X1191300Y293937D02*
X1250354Y293937D01*
X1250354Y307717D01*
X1191300Y307717D01*
X1191300Y293937D01*D02*
X1419646Y319527D02*
X1478700Y319527D01*
X1478700Y333307D01*
X1419646Y333307D01*
X1419646Y319527D01*D02*
X1419646Y268346D02*
X1478700Y268346D01*
X1478700Y282126D01*
X1419646Y282126D01*
X1419646Y268346D01*D02*
X1419646Y293937D02*
X1478700Y293937D01*
X1478700Y307717D01*
X1419646Y307717D01*
X1419646Y293937D01*D02*
G54D29*
X3255886Y136378D03*
X3439350Y136378D03*
X3439350Y98386D03*
G54D30*
X3255886Y98386D03*
G54D31*
X1220827Y147283D03*
X1220827Y121693D03*
X1220827Y96102D03*
X1449173Y96102D03*
X1449173Y121693D03*
X1449173Y147283D03*
X1220827Y249646D03*
X1220827Y224055D03*
X1220827Y172874D03*
X1220827Y198465D03*
X1449173Y172874D03*
X1449173Y198465D03*
X1449173Y249646D03*
X1449173Y224055D03*
X1220827Y326417D03*
X1220827Y275236D03*
X1220827Y300827D03*
X1449173Y326417D03*
X1449173Y275236D03*
X1449173Y300827D03*
G54D32*
X1122473Y169755D03*
X1120245Y167527D03*
X1149755Y142473D03*
X1147527Y140245D03*

M02*
