M48
INCH,TZ
VER,1
FMAT,2
DETECT,ON
ATC,ON
T1C0.007874
T2C0.023622
T3C0.027559
%
T1
X857500Y-190000
X897500
X837500Y-170000
X817500Y-150000
X797500Y-170000
X857500Y-150000
X837500Y-130000
X797500
X907500Y-132500
X1675000Y181500
X1735000
X2982500Y147500
X1542500Y162500
X1495000Y205000
X1592500
X2645000Y-35000
Y105000
X972500Y327500
X742500Y250000
Y225000
Y200000
Y172500
Y275000
Y300000
Y147500
X977500Y250000
X2962500Y82500
X1100000
X1750000Y157500
X1642500Y85000
X977500Y225000
X2950000Y30000
X977500Y197500
X2852500Y35000
X977500Y172500
X2880000Y15000
X977500Y275000
X2905000Y210000
X977500Y147500
X2835000Y-5000
X977500Y302500
X2930000Y100000
X1445000Y157500
X1465000Y140000
X1035000Y120000
X2915000Y267500
X3250000Y90000
X3337500Y300000
X3395000Y237500
X745000Y327500
X722500
X767500
X2357500Y125000
X2510000
X2395000Y150000
X2435000
X2415000Y130000
X2475000Y150000
X2455000Y130000
X2395000Y230000
X2435000
Y190000
X2415000Y170000
X2395000Y190000
X2415000Y210000
X2475000Y230000
X2455000Y170000
X2475000Y190000
X2455000Y210000
X2295000Y225000
X2260000Y175000
X2590000Y272500
X2570000Y292500
X2587500Y155000
X1035000Y80000
X2645000Y295000
X2915000Y305000
X660000Y165000
X3012500Y260000
X2872500Y-37500
X1227500Y70000
X1380000
X1285000Y75000
X1325000
X1265000Y95000
Y135000
X1285000Y155000
X1325000
X1345000Y95000
Y135000
X1305000Y95000
Y135000
X1285000Y115000
X1325000
X1265000Y175000
X1345000
X1305000
X1265000Y225000
X1135000Y120000
X1465000Y202500
X1445000Y222500
X1520000Y75000
X1620000Y147500
X1640000Y130000
X2180000Y122500
X2160000Y140000
X1057500Y330000
X580000Y167500
X600000Y150000
X1802500Y235000
X1820000Y220000
X1802500Y205000
X1840000Y235000
X1877500
Y205000
X1860000Y220000
X1840000Y205000
X2750000Y-10000
T2
X305000Y171850
X255000
X355000
X155000
X55000
X105000
X355000Y221850
X305000
X255000
X205000
X155000
X105000
X55000
X205000Y171850
X505000Y221850
X455000
X405000
Y171850
X455000
X505000
T3
X3476210Y238994
X3413994Y301210
X3263790Y151006
X3326006Y88790
M30
