G04 Generated by Ultiboard 14.2 *
%FSLAX46Y46*%
%MOIN*%

%ADD10C,0.000001*%
%ADD11C,0.020000*%
%ADD12C,0.010000*%
%ADD13C,0.005000*%
%ADD14C,0.000039*%
%ADD15C,0.015748*%
%ADD16C,0.011811*%
%ADD17C,0.033465*%
%ADD18C,0.047244*%


G04 ColorRGB 999900 for the following layer *
%LN_uc451855c42657794dc1*%
%LPD*%
G54D10*
G36*
X3921935Y378628D02*
X3921935Y378628D01*
X3921935Y15073D01*
X15073Y15073D01*
X15073Y378628D01*
X3921935Y378628D01*
D02*
G37*
%LPC*%
G36*
X3764455Y226986D02*
G75*
D01*
G03X3764455Y226986I-14455J10514*
G01*
D02*
G37*
G36*
X3764455Y262855D02*
G75*
D01*
G03X3764455Y262855I4539J38355*
G01*
D02*
G37*
G36*
X932336Y126299D02*
G75*
D01*
G03X922729Y127729I-7336J-16299*
G01*
G75*
D01*
G03X922729Y132271I-17729J2271*
G01*
G75*
D01*
G03X932336Y133701I2271J17729*
G01*
X932336Y133701D01*
X929809Y136227D01*
X929809Y136227D01*
X925000Y141036D01*
X921299Y137336D01*
X917664Y133701D01*
X913964Y130000D01*
X917664Y126299D01*
X921299Y122664D01*
X925000Y118964D01*
X929809Y123773D01*
X929809Y123773D01*
X932336Y126299D01*
D02*
G37*
G36*
X932336Y166299D02*
G75*
D01*
G03X922729Y167729I-7336J-16299*
G01*
G75*
D01*
G03X922729Y172271I-17729J2271*
G01*
G75*
D01*
G03X932336Y173701I2271J17729*
G01*
X932336Y173701D01*
X929809Y176227D01*
X925000Y181036D01*
X921299Y177336D01*
X917664Y173701D01*
X913964Y170000D01*
X917664Y166299D01*
X921299Y162664D01*
X925000Y158964D01*
X929809Y163773D01*
X929809Y163773D01*
X932336Y166299D01*
D02*
G37*
G36*
X932336Y206299D02*
G75*
D01*
G03X917664Y206299I-7336J-16299*
G01*
X917664Y206299D01*
X925000Y198964D01*
X929809Y203773D01*
X932336Y206299D01*
D02*
G37*
G36*
X932336Y93701D02*
X932336Y93701D01*
X929809Y96227D01*
X929809Y96227D01*
X925000Y101036D01*
X921299Y97336D01*
X917664Y93701D01*
X913964Y90000D01*
X921299Y82664D01*
G75*
D01*
G03X922729Y92271I-16299J7336*
G01*
G75*
D01*
G03X932336Y93701I2271J17729*
G01*
D02*
G37*
G36*
X2816201Y117664D02*
X2816201Y117664D01*
X2819573Y121037D01*
X2819573Y121037D01*
X2823536Y125000D01*
X2819573Y128963D01*
X2819573Y128963D01*
X2816201Y132336D01*
G75*
D01*
G03X2816201Y117664I16299J-7336*
G01*
D02*
G37*
G36*
X3792588Y238994D02*
G75*
D01*
G03X3792588Y238994I38622J0*
G01*
D02*
G37*
G36*
X901063Y170000D02*
G75*
D01*
G03X901063Y170000I3937J0*
G01*
D02*
G37*
G36*
X877664Y206299D02*
X877664Y206299D01*
X885000Y198964D01*
X892336Y206299D01*
G75*
D01*
G03X877664Y206299I-7336J-16299*
G01*
D02*
G37*
G36*
X877664Y173701D02*
X877664Y173701D01*
X873964Y170000D01*
X877664Y166299D01*
X881299Y162664D01*
X885000Y158964D01*
X888701Y162664D01*
X892336Y166299D01*
X896036Y170000D01*
X892336Y173701D01*
X888701Y177336D01*
X885000Y181036D01*
X881299Y177336D01*
X877664Y173701D01*
D02*
G37*
G36*
X881063Y190000D02*
G75*
D01*
G03X881063Y190000I3937J0*
G01*
D02*
G37*
G36*
X901299Y197336D02*
X901299Y197336D01*
X893964Y190000D01*
X897664Y186299D01*
X901299Y182664D01*
X905000Y178964D01*
X916036Y190000D01*
X908701Y197336D01*
G75*
D01*
G03X907271Y187729I16299J-7336*
G01*
G75*
D01*
G03X902729Y187729I-2271J-17729*
G01*
G75*
D01*
G03X901299Y197336I-17729J2271*
G01*
D02*
G37*
G36*
X828701Y197336D02*
G75*
D01*
G03X828701Y182664I16299J-7336*
G01*
X828701Y182664D01*
X836036Y190000D01*
X828701Y197336D01*
D02*
G37*
G36*
X837664Y206299D02*
X837664Y206299D01*
X845000Y198964D01*
X852336Y206299D01*
G75*
D01*
G03X837664Y206299I-7336J-16299*
G01*
D02*
G37*
G36*
X837664Y166299D02*
X837664Y166299D01*
X845000Y158964D01*
X856036Y170000D01*
X852336Y173701D01*
X848701Y177336D01*
X845000Y181036D01*
X837664Y173701D01*
G75*
D01*
G03X847271Y172271I7336J16299*
G01*
G75*
D01*
G03X847271Y167729I17729J-2271*
G01*
G75*
D01*
G03X837664Y166299I-2271J-17729*
G01*
D02*
G37*
G36*
X841063Y190000D02*
G75*
D01*
G03X841063Y190000I3937J0*
G01*
D02*
G37*
G36*
X868701Y197336D02*
G75*
D01*
G03X867271Y187729I16299J-7336*
G01*
G75*
D01*
G03X862729Y187729I-2271J-17729*
G01*
G75*
D01*
G03X861299Y197336I-17729J2271*
G01*
X861299Y197336D01*
X853964Y190000D01*
X865000Y178964D01*
X868701Y182664D01*
X872336Y186299D01*
X876036Y190000D01*
X868701Y197336D01*
D02*
G37*
G36*
X861063Y170000D02*
G75*
D01*
G03X861063Y170000I3937J0*
G01*
D02*
G37*
G36*
X718701Y232336D02*
G75*
D01*
G03X718701Y217664I16299J-7336*
G01*
X718701Y217664D01*
X726036Y225000D01*
X718701Y232336D01*
D02*
G37*
G36*
X751299Y232336D02*
X751299Y232336D01*
X743964Y225000D01*
X751299Y217664D01*
G75*
D01*
G03X751299Y232336I-16299J7336*
G01*
D02*
G37*
G36*
X742336Y208701D02*
X742336Y208701D01*
X735000Y216036D01*
X727664Y208701D01*
G75*
D01*
G03X742336Y208701I7336J16299*
G01*
D02*
G37*
G36*
X731063Y225000D02*
G75*
D01*
G03X731063Y225000I3937J0*
G01*
D02*
G37*
G36*
X727664Y241299D02*
X727664Y241299D01*
X735000Y233964D01*
X742336Y241299D01*
G75*
D01*
G03X727664Y241299I-7336J-16299*
G01*
D02*
G37*
G36*
X563701Y174836D02*
G75*
D01*
G03X563701Y160164I16299J-7336*
G01*
X563701Y160164D01*
X571036Y167500D01*
X563701Y174836D01*
D02*
G37*
G36*
X572664Y183799D02*
X572664Y183799D01*
X580000Y176464D01*
X587336Y183799D01*
G75*
D01*
G03X572664Y183799I-7336J-16299*
G01*
D02*
G37*
G36*
X576063Y167500D02*
G75*
D01*
G03X576063Y167500I3937J0*
G01*
D02*
G37*
G36*
X596996Y161967D02*
X596996Y161967D01*
X600000Y158964D01*
X607336Y166299D01*
G75*
D01*
G03X597872Y167747I-7336J-16299*
G01*
G74*
D01*
G03X596299Y174836I17872J247*
G01*
X596299Y174836D01*
X588964Y167500D01*
X596299Y160164D01*
G74*
D01*
G03X596996Y161967I16299J7336*
G01*
D02*
G37*
G36*
X533937Y184874D02*
X533937Y184874D01*
X520913Y171850D01*
X533937Y158827D01*
G75*
D01*
G03X533937Y184874I-28937J13023*
G01*
D02*
G37*
G36*
X493189Y171850D02*
G75*
D01*
G03X493189Y171850I11811J0*
G01*
D02*
G37*
G36*
X433937Y184874D02*
X433937Y184874D01*
X430000Y180937D01*
X426063Y184874D01*
G74*
D01*
G03X423362Y174299I28937J13024*
G01*
X423362Y174299D01*
X420913Y171850D01*
X423362Y169401D01*
G74*
D01*
G03X426063Y158827I31638J2449*
G01*
X426063Y158827D01*
X430000Y162764D01*
X433937Y158827D01*
G74*
D01*
G03X436638Y169401I28937J13023*
G01*
X436638Y169401D01*
X439086Y171850D01*
X436638Y174299D01*
G74*
D01*
G03X433937Y184874I31638J2449*
G01*
D02*
G37*
G36*
X443189Y171850D02*
G75*
D01*
G03X443189Y171850I11811J0*
G01*
D02*
G37*
G36*
X476063Y184874D02*
G74*
D01*
G03X473362Y174299I28937J13024*
G01*
X473362Y174299D01*
X470913Y171850D01*
X473362Y169401D01*
G74*
D01*
G03X476063Y158827I31638J2449*
G01*
X476063Y158827D01*
X480000Y162764D01*
X483937Y158827D01*
G74*
D01*
G03X486638Y169401I28937J13023*
G01*
X486638Y169401D01*
X489086Y171850D01*
X486638Y174299D01*
G74*
D01*
G03X483937Y184874I31638J2449*
G01*
X483937Y184874D01*
X480000Y180937D01*
X476063Y184874D01*
D02*
G37*
G36*
X393189Y171850D02*
G75*
D01*
G03X393189Y171850I11811J0*
G01*
D02*
G37*
G36*
X901063Y90000D02*
G75*
D01*
G03X901063Y90000I3937J0*
G01*
D02*
G37*
G36*
X921063Y150000D02*
G75*
D01*
G03X921063Y150000I3937J0*
G01*
D02*
G37*
G36*
X881063Y150000D02*
G75*
D01*
G03X881063Y150000I3937J0*
G01*
D02*
G37*
G36*
X901063Y130000D02*
G75*
D01*
G03X901063Y130000I3937J0*
G01*
D02*
G37*
G36*
X892336Y126299D02*
X892336Y126299D01*
X896036Y130000D01*
X892336Y133701D01*
X888701Y137336D01*
X885000Y141036D01*
X881299Y137336D01*
X877664Y133701D01*
X873964Y130000D01*
X877664Y126299D01*
X881299Y122664D01*
X885000Y118964D01*
X888701Y122664D01*
X892336Y126299D01*
D02*
G37*
G36*
X888701Y82664D02*
X888701Y82664D01*
X896036Y90000D01*
X892336Y93701D01*
X888701Y97336D01*
X885000Y101036D01*
X881299Y97336D01*
X877664Y93701D01*
X873964Y90000D01*
X881299Y82664D01*
G75*
D01*
G03X882729Y92271I-16299J7336*
G01*
G75*
D01*
G03X887271Y92271I2271J17729*
G01*
G75*
D01*
G03X888701Y82664I17729J-2271*
G01*
D02*
G37*
G36*
X881063Y110000D02*
G75*
D01*
G03X881063Y110000I3937J0*
G01*
D02*
G37*
G36*
X908701Y117336D02*
X908701Y117336D01*
X905000Y121036D01*
X901299Y117336D01*
X897664Y113701D01*
X893964Y110000D01*
X897664Y106299D01*
X901299Y102664D01*
X905000Y98964D01*
X916036Y110000D01*
X912336Y113701D01*
X908701Y117336D01*
D02*
G37*
G36*
X921063Y110000D02*
G75*
D01*
G03X921063Y110000I3937J0*
G01*
D02*
G37*
G36*
X912336Y153701D02*
X912336Y153701D01*
X908701Y157336D01*
X905000Y161036D01*
X901299Y157336D01*
X897664Y153701D01*
X893964Y150000D01*
X897664Y146299D01*
X901299Y142664D01*
X905000Y138964D01*
X916036Y150000D01*
X912336Y153701D01*
D02*
G37*
G36*
X800164Y101299D02*
X800164Y101299D01*
X807500Y93964D01*
X814836Y101299D01*
G75*
D01*
G03X800164Y101299I-7336J-16299*
G01*
D02*
G37*
G36*
X803563Y85000D02*
G75*
D01*
G03X803563Y85000I3937J0*
G01*
D02*
G37*
G36*
X828701Y157336D02*
G75*
D01*
G03X828701Y142664I16299J-7336*
G01*
X828701Y142664D01*
X836036Y150000D01*
X828701Y157336D01*
D02*
G37*
G36*
X841063Y150000D02*
G75*
D01*
G03X841063Y150000I3937J0*
G01*
D02*
G37*
G36*
X828701Y117336D02*
G75*
D01*
G03X828701Y102664I16299J-7336*
G01*
X828701Y102664D01*
X836036Y110000D01*
X828701Y117336D01*
D02*
G37*
G36*
X837664Y126299D02*
X837664Y126299D01*
X845000Y118964D01*
X848701Y122664D01*
X852336Y126299D01*
X856036Y130000D01*
X852336Y133701D01*
X848701Y137336D01*
X845000Y141036D01*
X837664Y133701D01*
G75*
D01*
G03X847271Y132271I7336J16299*
G01*
G75*
D01*
G03X847271Y127729I17729J-2271*
G01*
G75*
D01*
G03X837664Y126299I-2271J-17729*
G01*
D02*
G37*
G36*
X837664Y93701D02*
G75*
D01*
G03X847271Y92271I7336J16299*
G01*
G75*
D01*
G03X848701Y82664I17729J-2271*
G01*
X848701Y82664D01*
X856036Y90000D01*
X852336Y93701D01*
X848701Y97336D01*
X845000Y101036D01*
X837664Y93701D01*
D02*
G37*
G36*
X841063Y110000D02*
G75*
D01*
G03X841063Y110000I3937J0*
G01*
D02*
G37*
G36*
X861063Y90000D02*
G75*
D01*
G03X861063Y90000I3937J0*
G01*
D02*
G37*
G36*
X872336Y113701D02*
X872336Y113701D01*
X868701Y117336D01*
X865000Y121036D01*
X853964Y110000D01*
X865000Y98964D01*
X868701Y102664D01*
X872336Y106299D01*
X876036Y110000D01*
X872336Y113701D01*
D02*
G37*
G36*
X861063Y130000D02*
G75*
D01*
G03X861063Y130000I3937J0*
G01*
D02*
G37*
G36*
X872336Y153701D02*
X872336Y153701D01*
X868701Y157336D01*
X865000Y161036D01*
X853964Y150000D01*
X865000Y138964D01*
X868701Y142664D01*
X872336Y146299D01*
X876036Y150000D01*
X872336Y153701D01*
D02*
G37*
G36*
X721299Y142336D02*
X721299Y142336D01*
X713964Y135000D01*
X721299Y127664D01*
G75*
D01*
G03X721299Y142336I-16299J7336*
G01*
D02*
G37*
G36*
X688701Y142336D02*
G75*
D01*
G03X688701Y127664I16299J-7336*
G01*
X688701Y127664D01*
X696036Y135000D01*
X688701Y142336D01*
D02*
G37*
G36*
X657126Y97500D02*
G75*
D01*
G03X657126Y97500I17874J0*
G01*
D02*
G37*
G36*
X697664Y151299D02*
X697664Y151299D01*
X705000Y143964D01*
X712336Y151299D01*
G75*
D01*
G03X697664Y151299I-7336J-16299*
G01*
D02*
G37*
G36*
X712336Y118701D02*
X712336Y118701D01*
X705000Y126036D01*
X697664Y118701D01*
G75*
D01*
G03X712336Y118701I7336J16299*
G01*
D02*
G37*
G36*
X701063Y135000D02*
G75*
D01*
G03X701063Y135000I3937J0*
G01*
D02*
G37*
G36*
X616299Y157336D02*
X616299Y157336D01*
X608964Y150000D01*
X616299Y142664D01*
G75*
D01*
G03X616299Y157336I-16299J7336*
G01*
D02*
G37*
G36*
X607336Y133701D02*
X607336Y133701D01*
X600000Y141036D01*
X592664Y133701D01*
G75*
D01*
G03X607336Y133701I7336J16299*
G01*
D02*
G37*
G36*
X596063Y150000D02*
G75*
D01*
G03X596063Y150000I3937J0*
G01*
D02*
G37*
G36*
X582128Y149753D02*
G74*
D01*
G03X583701Y142664I17872J247*
G01*
X583701Y142664D01*
X591036Y150000D01*
X583701Y157336D01*
G74*
D01*
G03X583004Y155533I16299J7336*
G01*
X583004Y155533D01*
X580000Y158536D01*
X572664Y151201D01*
G75*
D01*
G03X582128Y149753I7336J16299*
G01*
D02*
G37*
G36*
X518023Y142914D02*
X518023Y142914D01*
X505000Y155937D01*
X491977Y142914D01*
G75*
D01*
G03X518023Y142914I13023J28936*
G01*
D02*
G37*
G36*
X468023Y142914D02*
X468023Y142914D01*
X455000Y155937D01*
X441977Y142914D01*
G75*
D01*
G03X468023Y142914I13023J28936*
G01*
D02*
G37*
G36*
X418023Y142914D02*
X418023Y142914D01*
X405000Y155937D01*
X391977Y142914D01*
G75*
D01*
G03X418023Y142914I13023J28936*
G01*
D02*
G37*
G36*
X502551Y190213D02*
X502551Y190213D01*
X505000Y187764D01*
X507449Y190213D01*
G75*
D01*
G03X480000Y241394I-2449J31637*
G01*
G75*
D01*
G03X430000Y241394I-25000J-19544*
G01*
G75*
D01*
G03X380000Y241394I-25000J-19544*
G01*
G75*
D01*
G03X330000Y241394I-25000J-19544*
G01*
G75*
D01*
G03X280000Y241394I-25000J-19544*
G01*
G75*
D01*
G03X230000Y241394I-25000J-19544*
G01*
G75*
D01*
G03X180000Y241394I-25000J-19544*
G01*
G75*
D01*
G03X130000Y241394I-25000J-19544*
G01*
G75*
D01*
G03X80000Y241394I-25000J-19544*
G01*
G75*
D01*
G03X35457Y196850I-25000J-19544*
G01*
G75*
D01*
G03X80000Y152307I19543J-25000*
G01*
G75*
D01*
G03X130000Y152307I25000J19543*
G01*
G75*
D01*
G03X180000Y152307I25000J19543*
G01*
G75*
D01*
G03X230000Y152307I25000J19543*
G01*
G75*
D01*
G03X280000Y152307I25000J19543*
G01*
G75*
D01*
G03X330000Y152307I25000J19543*
G01*
G75*
D01*
G03X386638Y169401I25000J19543*
G01*
X386638Y169401D01*
X389086Y171850D01*
X386638Y174299D01*
G74*
D01*
G03X374543Y196850I31638J2449*
G01*
G74*
D01*
G03X380000Y202307I19543J25000*
G01*
G74*
D01*
G03X402551Y190213I25000J19543*
G01*
X402551Y190213D01*
X405000Y187764D01*
X407449Y190213D01*
G74*
D01*
G03X430000Y202307I2449J31637*
G01*
G74*
D01*
G03X452551Y190213I25000J19543*
G01*
X452551Y190213D01*
X455000Y187764D01*
X457449Y190213D01*
G74*
D01*
G03X480000Y202307I2449J31637*
G01*
G74*
D01*
G03X502551Y190213I25000J19543*
G01*
D02*
G37*
G36*
X912336Y73701D02*
X912336Y73701D01*
X905000Y81036D01*
X897664Y73701D01*
G75*
D01*
G03X912336Y73701I7336J16299*
G01*
D02*
G37*
G36*
X814836Y68701D02*
X814836Y68701D01*
X807500Y76036D01*
X800164Y68701D01*
G75*
D01*
G03X814836Y68701I7336J16299*
G01*
D02*
G37*
G36*
X791201Y92336D02*
G75*
D01*
G03X791201Y77664I16299J-7336*
G01*
X791201Y77664D01*
X798536Y85000D01*
X791201Y92336D01*
D02*
G37*
G36*
X823799Y92336D02*
X823799Y92336D01*
X816464Y85000D01*
X823799Y77664D01*
G75*
D01*
G03X823799Y92336I-16299J7336*
G01*
D02*
G37*
G36*
X872336Y73701D02*
X872336Y73701D01*
X865000Y81036D01*
X857664Y73701D01*
G75*
D01*
G03X872336Y73701I7336J16299*
G01*
D02*
G37*
G36*
X921063Y190000D02*
G75*
D01*
G03X921063Y190000I3937J0*
G01*
D02*
G37*
G36*
X3674626Y300000D02*
G75*
D01*
G03X3674626Y300000I17874J0*
G01*
D02*
G37*
G36*
X3291063Y275000D02*
G75*
D01*
G03X3291063Y275000I3937J0*
G01*
D02*
G37*
G36*
X3302336Y258701D02*
X3302336Y258701D01*
X3295000Y266036D01*
X3287664Y258701D01*
G75*
D01*
G03X3302336Y258701I7336J16299*
G01*
D02*
G37*
G36*
X3287664Y291299D02*
X3287664Y291299D01*
X3295000Y283964D01*
X3302336Y291299D01*
G75*
D01*
G03X3287664Y291299I-7336J-16299*
G01*
D02*
G37*
G36*
X3278701Y282336D02*
G75*
D01*
G03X3278701Y267664I16299J-7336*
G01*
X3278701Y267664D01*
X3286036Y275000D01*
X3278701Y282336D01*
D02*
G37*
G36*
X3311299Y282336D02*
X3311299Y282336D01*
X3303964Y275000D01*
X3311299Y267664D01*
G75*
D01*
G03X3311299Y282336I-16299J7336*
G01*
D02*
G37*
G36*
X3081299Y279836D02*
X3081299Y279836D01*
X3073964Y272500D01*
X3081299Y265164D01*
G75*
D01*
G03X3081299Y279836I-16299J7336*
G01*
D02*
G37*
G36*
X3116063Y245000D02*
G75*
D01*
G03X3116063Y245000I3937J0*
G01*
D02*
G37*
G36*
X3136299Y252336D02*
X3136299Y252336D01*
X3128964Y245000D01*
X3136299Y237664D01*
G75*
D01*
G03X3136299Y252336I-16299J7336*
G01*
D02*
G37*
G36*
X3112664Y261299D02*
X3112664Y261299D01*
X3120000Y253964D01*
X3127336Y261299D01*
G75*
D01*
G03X3112664Y261299I-7336J-16299*
G01*
D02*
G37*
G36*
X3103701Y252336D02*
G75*
D01*
G03X3103701Y237664I16299J-7336*
G01*
X3103701Y237664D01*
X3111036Y245000D01*
X3103701Y252336D01*
D02*
G37*
G36*
X3041063Y292500D02*
G75*
D01*
G03X3041063Y292500I3937J0*
G01*
D02*
G37*
G36*
X3037664Y276201D02*
G75*
D01*
G03X3047271Y274771I7336J16299*
G01*
G75*
D01*
G03X3048701Y265164I17729J-2271*
G01*
X3048701Y265164D01*
X3056036Y272500D01*
X3052336Y276201D01*
X3048701Y279836D01*
X3045000Y283536D01*
X3037664Y276201D01*
D02*
G37*
G36*
X3061299Y299836D02*
X3061299Y299836D01*
X3053964Y292500D01*
X3057664Y288799D01*
X3061299Y285164D01*
X3065000Y281464D01*
X3072336Y288799D01*
G75*
D01*
G03X3062729Y290229I-7336J-16299*
G01*
G75*
D01*
G03X3061299Y299836I-17729J2271*
G01*
D02*
G37*
G36*
X3037664Y308799D02*
X3037664Y308799D01*
X3045000Y301464D01*
X3052336Y308799D01*
G75*
D01*
G03X3037664Y308799I-7336J-16299*
G01*
D02*
G37*
G36*
X3028701Y299836D02*
G75*
D01*
G03X3028701Y285164I16299J-7336*
G01*
X3028701Y285164D01*
X3036036Y292500D01*
X3028701Y299836D01*
D02*
G37*
G36*
X3061063Y272500D02*
G75*
D01*
G03X3061063Y272500I3937J0*
G01*
D02*
G37*
G36*
X3072336Y256201D02*
X3072336Y256201D01*
X3065000Y263536D01*
X3057664Y256201D01*
G75*
D01*
G03X3072336Y256201I7336J16299*
G01*
D02*
G37*
G36*
X2942664Y246299D02*
X2942664Y246299D01*
X2950000Y238964D01*
X2957336Y246299D01*
G75*
D01*
G03X2942664Y246299I-7336J-16299*
G01*
D02*
G37*
G36*
X2862664Y246299D02*
X2862664Y246299D01*
X2870000Y238964D01*
X2877336Y246299D01*
G75*
D01*
G03X2862664Y246299I-7336J-16299*
G01*
D02*
G37*
G36*
X2902664Y246299D02*
X2902664Y246299D01*
X2910000Y238964D01*
X2917336Y246299D01*
G75*
D01*
G03X2902664Y246299I-7336J-16299*
G01*
D02*
G37*
G36*
X3341063Y205000D02*
G75*
D01*
G03X3341063Y205000I3937J0*
G01*
D02*
G37*
G36*
X3352336Y188701D02*
X3352336Y188701D01*
X3345000Y196036D01*
X3337664Y188701D01*
G75*
D01*
G03X3352336Y188701I7336J16299*
G01*
D02*
G37*
G36*
X3361299Y212336D02*
X3361299Y212336D01*
X3353964Y205000D01*
X3361299Y197664D01*
G75*
D01*
G03X3361299Y212336I-16299J7336*
G01*
D02*
G37*
G36*
X3337664Y221299D02*
X3337664Y221299D01*
X3345000Y213964D01*
X3352336Y221299D01*
G75*
D01*
G03X3337664Y221299I-7336J-16299*
G01*
D02*
G37*
G36*
X3328701Y212336D02*
G75*
D01*
G03X3328701Y197664I16299J-7336*
G01*
X3328701Y197664D01*
X3336036Y205000D01*
X3328701Y212336D01*
D02*
G37*
G36*
X3362664Y171299D02*
X3362664Y171299D01*
X3370000Y163964D01*
X3377336Y171299D01*
G75*
D01*
G03X3362664Y171299I-7336J-16299*
G01*
D02*
G37*
G36*
X3380164Y171299D02*
X3380164Y171299D01*
X3387500Y163964D01*
X3394836Y171299D01*
G75*
D01*
G03X3380164Y171299I-7336J-16299*
G01*
D02*
G37*
G36*
X3296594Y175000D02*
G75*
D01*
G03X3296594Y175000I15906J0*
G01*
D02*
G37*
G36*
X3163564Y219935D02*
G74*
D01*
G03X3160164Y218799I3936J17435*
G01*
X3160164Y218799D01*
X3167474Y211490D01*
G74*
D01*
G03X3167592Y210944I17526J3510*
G01*
X3167592Y210944D01*
X3167500Y211036D01*
X3160164Y203701D01*
G74*
D01*
G03X3163564Y202565I7336J16299*
G01*
G75*
D01*
G03X3167159Y198578I3936J-65*
G01*
G75*
D01*
G03X3167592Y193444I17841J-1078*
G01*
X3167592Y193444D01*
X3167500Y193536D01*
X3160164Y186201D01*
G75*
D01*
G03X3174836Y186201I7336J16299*
G01*
X3174836Y186201D01*
X3169786Y191250D01*
X3176036Y197500D01*
X3171418Y202118D01*
G75*
D01*
G03X3171436Y202565I-3918J382*
G01*
G74*
D01*
G03X3174836Y203701I3936J17435*
G01*
X3174836Y203701D01*
X3169786Y208750D01*
X3176036Y215000D01*
X3173536Y217500D01*
X3174836Y218799D01*
G74*
D01*
G03X3171436Y219935I7336J16299*
G01*
G75*
D01*
G03X3163564Y219935I-3936J65*
G01*
D02*
G37*
G36*
X3188936Y214935D02*
G75*
D01*
G03X3185341Y218922I-3936J65*
G01*
G75*
D01*
G03X3184908Y224056I-17841J1078*
G01*
X3184908Y224056D01*
X3185000Y223964D01*
X3192336Y231299D01*
G75*
D01*
G03X3177664Y231299I-7336J-16299*
G01*
X3177664Y231299D01*
X3182714Y226250D01*
X3176464Y220000D01*
X3181082Y215382D01*
G75*
D01*
G03X3181064Y214935I3918J-382*
G01*
G74*
D01*
G03X3177664Y213799I3936J17435*
G01*
X3177664Y213799D01*
X3182714Y208750D01*
X3176464Y202500D01*
X3178964Y200000D01*
X3177664Y198701D01*
G74*
D01*
G03X3181064Y197565I7336J16299*
G01*
G75*
D01*
G03X3188936Y197565I3936J-65*
G01*
G74*
D01*
G03X3192336Y198701I3936J17435*
G01*
X3192336Y198701D01*
X3185026Y206010D01*
G74*
D01*
G03X3184908Y206556I17526J3510*
G01*
X3184908Y206556D01*
X3185000Y206464D01*
X3192336Y213799D01*
G74*
D01*
G03X3188936Y214935I7336J16299*
G01*
D02*
G37*
G36*
X3151201Y209836D02*
G75*
D01*
G03X3151201Y195164I16299J-7336*
G01*
X3151201Y195164D01*
X3158536Y202500D01*
X3151201Y209836D01*
D02*
G37*
G36*
X3151201Y227336D02*
G75*
D01*
G03X3151201Y212664I16299J-7336*
G01*
X3151201Y212664D01*
X3158536Y220000D01*
X3151201Y227336D01*
D02*
G37*
G36*
X3201299Y222336D02*
X3201299Y222336D01*
X3193964Y215000D01*
X3201299Y207664D01*
G75*
D01*
G03X3201299Y222336I-16299J7336*
G01*
D02*
G37*
G36*
X3192336Y181201D02*
X3192336Y181201D01*
X3185000Y188536D01*
X3177664Y181201D01*
G75*
D01*
G03X3192336Y181201I7336J16299*
G01*
D02*
G37*
G36*
X3201299Y204836D02*
X3201299Y204836D01*
X3193964Y197500D01*
X3201299Y190164D01*
G75*
D01*
G03X3201299Y204836I-16299J7336*
G01*
D02*
G37*
G36*
X3160164Y236299D02*
X3160164Y236299D01*
X3167500Y228964D01*
X3174836Y236299D01*
G75*
D01*
G03X3160164Y236299I-7336J-16299*
G01*
D02*
G37*
G36*
X3127336Y228701D02*
X3127336Y228701D01*
X3120000Y236036D01*
X3112664Y228701D01*
G75*
D01*
G03X3127336Y228701I7336J16299*
G01*
D02*
G37*
G36*
X3055164Y171299D02*
X3055164Y171299D01*
X3062500Y163964D01*
X3069836Y171299D01*
G75*
D01*
G03X3055164Y171299I-7336J-16299*
G01*
D02*
G37*
G36*
X2946063Y190000D02*
G75*
D01*
G03X2946063Y190000I3937J0*
G01*
D02*
G37*
G36*
X2947729Y172271D02*
G75*
D01*
G03X2957336Y173701I2271J17729*
G01*
X2957336Y173701D01*
X2950000Y181036D01*
X2946299Y177336D01*
X2946299Y177336D01*
X2946299Y177336D01*
X2938964Y170000D01*
X2942664Y166299D01*
X2946299Y162664D01*
X2950000Y158964D01*
X2957336Y166299D01*
G75*
D01*
G03X2947729Y167729I-7336J-16299*
G01*
G75*
D01*
G03X2947729Y172271I-17729J2271*
G01*
D02*
G37*
G36*
X2966299Y197336D02*
X2966299Y197336D01*
X2958964Y190000D01*
X2966299Y182664D01*
G75*
D01*
G03X2966299Y197336I-16299J7336*
G01*
D02*
G37*
G36*
X2957336Y213701D02*
X2957336Y213701D01*
X2950000Y221036D01*
X2946299Y217336D01*
X2942664Y213701D01*
X2938964Y210000D01*
X2942664Y206299D01*
X2946299Y202664D01*
X2950000Y198964D01*
X2957336Y206299D01*
G75*
D01*
G03X2947729Y207729I-7336J-16299*
G01*
G75*
D01*
G03X2947729Y212271I-17729J2271*
G01*
G75*
D01*
G03X2957336Y213701I2271J17729*
G01*
D02*
G37*
G36*
X2933701Y197336D02*
X2933701Y197336D01*
X2930000Y201036D01*
X2926299Y197336D01*
X2922664Y193701D01*
X2918964Y190000D01*
X2922664Y186299D01*
X2926299Y182664D01*
X2930000Y178964D01*
X2933701Y182664D01*
X2937336Y186299D01*
X2941036Y190000D01*
X2937336Y193701D01*
X2933701Y197336D01*
D02*
G37*
G36*
X2926063Y210000D02*
G75*
D01*
G03X2926063Y210000I3937J0*
G01*
D02*
G37*
G36*
X2926299Y237336D02*
X2926299Y237336D01*
X2918964Y230000D01*
X2922664Y226299D01*
X2926299Y222664D01*
X2930000Y218964D01*
X2933701Y222664D01*
X2937336Y226299D01*
X2941036Y230000D01*
X2933701Y237336D01*
G75*
D01*
G03X2932271Y227729I16299J-7336*
G01*
G75*
D01*
G03X2927729Y227729I-2271J-17729*
G01*
G75*
D01*
G03X2926299Y237336I-17729J2271*
G01*
D02*
G37*
G36*
X2946063Y230000D02*
G75*
D01*
G03X2946063Y230000I3937J0*
G01*
D02*
G37*
G36*
X2926063Y170000D02*
G75*
D01*
G03X2926063Y170000I3937J0*
G01*
D02*
G37*
G36*
X2966299Y237336D02*
X2966299Y237336D01*
X2958964Y230000D01*
X2966299Y222664D01*
G75*
D01*
G03X2966299Y237336I-16299J7336*
G01*
D02*
G37*
G36*
X2886063Y210000D02*
G75*
D01*
G03X2886063Y210000I3937J0*
G01*
D02*
G37*
G36*
X2897336Y193701D02*
X2897336Y193701D01*
X2893701Y197336D01*
X2890000Y201036D01*
X2882664Y193701D01*
X2878964Y190000D01*
X2882664Y186299D01*
X2886299Y182664D01*
X2890000Y178964D01*
X2893701Y182664D01*
X2897336Y186299D01*
X2901036Y190000D01*
X2897336Y193701D01*
D02*
G37*
G36*
X2906140Y217176D02*
X2906140Y217176D01*
X2898964Y210000D01*
X2902664Y206299D01*
X2906299Y202664D01*
X2910000Y198964D01*
X2917336Y206299D01*
X2921036Y210000D01*
X2913860Y217176D01*
X2910000Y221036D01*
X2906140Y217176D01*
D02*
G37*
G36*
X2886299Y237336D02*
X2886299Y237336D01*
X2878964Y230000D01*
X2882664Y226299D01*
X2886299Y222664D01*
X2890000Y218964D01*
X2893701Y222664D01*
X2897336Y226299D01*
X2901036Y230000D01*
X2893701Y237336D01*
G75*
D01*
G03X2892271Y227729I16299J-7336*
G01*
G75*
D01*
G03X2887729Y227729I-2271J-17729*
G01*
G75*
D01*
G03X2886299Y237336I-17729J2271*
G01*
D02*
G37*
G36*
X2862664Y206299D02*
X2862664Y206299D01*
X2870000Y198964D01*
X2873701Y202664D01*
X2877336Y206299D01*
X2881036Y210000D01*
X2877336Y213701D01*
X2873701Y217336D01*
X2870000Y221036D01*
X2862664Y213701D01*
G75*
D01*
G03X2872271Y212271I7336J16299*
G01*
G75*
D01*
G03X2872271Y207729I17729J-2271*
G01*
G75*
D01*
G03X2862664Y206299I-2271J-17729*
G01*
D02*
G37*
G36*
X2866063Y190000D02*
G75*
D01*
G03X2866063Y190000I3937J0*
G01*
D02*
G37*
G36*
X2862664Y166299D02*
X2862664Y166299D01*
X2870000Y158964D01*
X2873701Y162664D01*
X2877336Y166299D01*
X2881036Y170000D01*
X2873827Y177209D01*
X2873701Y177336D01*
X2870000Y181036D01*
X2862664Y173701D01*
G75*
D01*
G03X2872271Y172271I7336J16299*
G01*
G75*
D01*
G03X2872271Y167729I17729J-2271*
G01*
G75*
D01*
G03X2862664Y166299I-2271J-17729*
G01*
D02*
G37*
G36*
X2853701Y197336D02*
G75*
D01*
G03X2853701Y182664I16299J-7336*
G01*
X2853701Y182664D01*
X2861036Y190000D01*
X2853701Y197336D01*
D02*
G37*
G36*
X2866063Y230000D02*
G75*
D01*
G03X2866063Y230000I3937J0*
G01*
D02*
G37*
G36*
X2886063Y170000D02*
G75*
D01*
G03X2886063Y170000I3937J0*
G01*
D02*
G37*
G36*
X2902664Y173701D02*
X2902664Y173701D01*
X2898964Y170000D01*
X2902664Y166299D01*
X2902664Y166299D01*
X2902664Y166299D01*
X2910000Y158964D01*
X2913701Y162664D01*
X2916290Y165253D01*
X2917336Y166299D01*
X2921036Y170000D01*
X2917336Y173701D01*
X2910000Y181036D01*
X2902664Y173701D01*
X2902664Y173701D01*
D02*
G37*
G36*
X2906063Y190000D02*
G75*
D01*
G03X2906063Y190000I3937J0*
G01*
D02*
G37*
G36*
X2906063Y230000D02*
G75*
D01*
G03X2906063Y230000I3937J0*
G01*
D02*
G37*
G36*
X2853701Y237336D02*
G75*
D01*
G03X2853701Y222664I16299J-7336*
G01*
X2853701Y222664D01*
X2861036Y230000D01*
X2853701Y237336D01*
D02*
G37*
G36*
X3665156Y124010D02*
X3665156Y124010D01*
X3681006Y108159D01*
X3696857Y124010D01*
G75*
D01*
G03X3665156Y124010I-15851J-35220*
G01*
D02*
G37*
G36*
X3612345Y112926D02*
G75*
D01*
G03X3598991Y117845I6445J38080*
G01*
G75*
D01*
G03X3612345Y112926I1009J-17845*
G01*
D02*
G37*
G36*
X3481063Y145000D02*
G75*
D01*
G03X3481063Y145000I3937J0*
G01*
D02*
G37*
G36*
X3492336Y128701D02*
X3492336Y128701D01*
X3485000Y136036D01*
X3477664Y128701D01*
G75*
D01*
G03X3492336Y128701I7336J16299*
G01*
D02*
G37*
G36*
X3501299Y152336D02*
X3501299Y152336D01*
X3493964Y145000D01*
X3501299Y137664D01*
G75*
D01*
G03X3501299Y152336I-16299J7336*
G01*
D02*
G37*
G36*
X3468701Y152336D02*
G75*
D01*
G03X3468701Y137664I16299J-7336*
G01*
X3468701Y137664D01*
X3476036Y145000D01*
X3468701Y152336D01*
D02*
G37*
G36*
X3477664Y161299D02*
X3477664Y161299D01*
X3485000Y153964D01*
X3492336Y161299D01*
G75*
D01*
G03X3477664Y161299I-7336J-16299*
G01*
D02*
G37*
G36*
X3403799Y162336D02*
X3403799Y162336D01*
X3396464Y155000D01*
X3403799Y147664D01*
G75*
D01*
G03X3403799Y162336I-16299J7336*
G01*
D02*
G37*
G36*
X3363381Y110881D02*
G75*
D01*
G03X3346619Y94119I-15881J-881*
G01*
G75*
D01*
G03X3363381Y110881I15881J881*
G01*
D02*
G37*
G36*
X3377336Y138701D02*
X3377336Y138701D01*
X3370000Y146036D01*
X3362664Y138701D01*
G75*
D01*
G03X3377336Y138701I7336J16299*
G01*
D02*
G37*
G36*
X3370065Y151064D02*
G74*
D01*
G03X3371201Y147664I17435J3936*
G01*
X3371201Y147664D01*
X3378536Y155000D01*
X3371201Y162336D01*
G74*
D01*
G03X3370065Y158936I16299J7336*
G01*
G75*
D01*
G03X3370065Y151064I-65J-3936*
G01*
D02*
G37*
G36*
X3387435Y158936D02*
G74*
D01*
G03X3386299Y162336I17435J3936*
G01*
X3386299Y162336D01*
X3378964Y155000D01*
X3386299Y147664D01*
G74*
D01*
G03X3387435Y151064I16299J7336*
G01*
G75*
D01*
G03X3387435Y158936I65J3936*
G01*
D02*
G37*
G36*
X3353701Y162336D02*
G75*
D01*
G03X3353701Y147664I16299J-7336*
G01*
X3353701Y147664D01*
X3361036Y155000D01*
X3353701Y162336D01*
D02*
G37*
G36*
X3394836Y138701D02*
X3394836Y138701D01*
X3387500Y146036D01*
X3380164Y138701D01*
G75*
D01*
G03X3394836Y138701I7336J16299*
G01*
D02*
G37*
G36*
X3281594Y100000D02*
G75*
D01*
G03X3281594Y100000I15906J0*
G01*
D02*
G37*
G36*
X3206063Y145000D02*
G75*
D01*
G03X3206063Y145000I3937J0*
G01*
D02*
G37*
G36*
X3217336Y128701D02*
X3217336Y128701D01*
X3210000Y136036D01*
X3202664Y128701D01*
G75*
D01*
G03X3217336Y128701I7336J16299*
G01*
D02*
G37*
G36*
X3226299Y152336D02*
X3226299Y152336D01*
X3218964Y145000D01*
X3226299Y137664D01*
G75*
D01*
G03X3226299Y152336I-16299J7336*
G01*
D02*
G37*
G36*
X3193701Y152336D02*
G75*
D01*
G03X3193701Y137664I16299J-7336*
G01*
X3193701Y137664D01*
X3201036Y145000D01*
X3193701Y152336D01*
D02*
G37*
G36*
X3202664Y161299D02*
X3202664Y161299D01*
X3210000Y153964D01*
X3217336Y161299D01*
G75*
D01*
G03X3202664Y161299I-7336J-16299*
G01*
D02*
G37*
G36*
X3078799Y162336D02*
X3078799Y162336D01*
X3071464Y155000D01*
X3078799Y147664D01*
G75*
D01*
G03X3078799Y162336I-16299J7336*
G01*
D02*
G37*
G36*
X3069836Y138701D02*
X3069836Y138701D01*
X3062500Y146036D01*
X3055164Y138701D01*
G75*
D01*
G03X3069836Y138701I7336J16299*
G01*
D02*
G37*
G36*
X3001299Y132336D02*
X3001299Y132336D01*
X2993964Y125000D01*
X3001299Y117664D01*
G75*
D01*
G03X3001299Y132336I-16299J7336*
G01*
D02*
G37*
G36*
X3058563Y155000D02*
G75*
D01*
G03X3058563Y155000I3937J0*
G01*
D02*
G37*
G36*
X3046201Y162336D02*
G75*
D01*
G03X3046201Y147664I16299J-7336*
G01*
X3046201Y147664D01*
X3053536Y155000D01*
X3046201Y162336D01*
D02*
G37*
G36*
X2926063Y130000D02*
G75*
D01*
G03X2926063Y130000I3937J0*
G01*
D02*
G37*
G36*
X2937336Y113701D02*
X2937336Y113701D01*
X2930000Y121036D01*
X2922664Y113701D01*
G75*
D01*
G03X2937336Y113701I7336J16299*
G01*
D02*
G37*
G36*
X2957336Y133701D02*
X2957336Y133701D01*
X2950000Y141036D01*
X2946299Y137336D01*
X2942664Y133701D01*
X2938964Y130000D01*
X2946299Y122664D01*
G75*
D01*
G03X2947729Y132271I-16299J7336*
G01*
G75*
D01*
G03X2957336Y133701I2271J17729*
G01*
D02*
G37*
G36*
X2937336Y153701D02*
X2937336Y153701D01*
X2937336Y153701D01*
X2930000Y161036D01*
X2926299Y157336D01*
X2926299Y157336D01*
X2926299Y157336D01*
X2918964Y150000D01*
X2922664Y146299D01*
X2926299Y142664D01*
X2930000Y138964D01*
X2933701Y142664D01*
X2937336Y146299D01*
X2941036Y150000D01*
X2937336Y153701D01*
D02*
G37*
G36*
X2946063Y150000D02*
G75*
D01*
G03X2946063Y150000I3937J0*
G01*
D02*
G37*
G36*
X2966299Y157336D02*
X2966299Y157336D01*
X2958964Y150000D01*
X2966299Y142664D01*
G75*
D01*
G03X2966299Y157336I-16299J7336*
G01*
D02*
G37*
G36*
X2981063Y125000D02*
G75*
D01*
G03X2981063Y125000I3937J0*
G01*
D02*
G37*
G36*
X2968701Y132336D02*
G75*
D01*
G03X2968701Y117664I16299J-7336*
G01*
X2968701Y117664D01*
X2976036Y125000D01*
X2968701Y132336D01*
D02*
G37*
G36*
X2992336Y108701D02*
X2992336Y108701D01*
X2985000Y116036D01*
X2977664Y108701D01*
G75*
D01*
G03X2992336Y108701I7336J16299*
G01*
D02*
G37*
G36*
X2977664Y141299D02*
X2977664Y141299D01*
X2985000Y133964D01*
X2992336Y141299D01*
G75*
D01*
G03X2977664Y141299I-7336J-16299*
G01*
D02*
G37*
G36*
X2886063Y130000D02*
G75*
D01*
G03X2886063Y130000I3937J0*
G01*
D02*
G37*
G36*
X2897336Y113701D02*
X2897336Y113701D01*
X2890000Y121036D01*
X2882664Y113701D01*
G75*
D01*
G03X2897336Y113701I7336J16299*
G01*
D02*
G37*
G36*
X2906299Y122664D02*
G75*
D01*
G03X2907729Y132271I-16299J7336*
G01*
G75*
D01*
G03X2912271Y132271I2271J17729*
G01*
G75*
D01*
G03X2913701Y122664I17729J-2271*
G01*
X2913701Y122664D01*
X2921036Y130000D01*
X2917336Y133701D01*
X2913701Y137336D01*
X2910000Y141036D01*
X2906299Y137336D01*
X2902664Y133701D01*
X2898964Y130000D01*
X2906299Y122664D01*
D02*
G37*
G36*
X2882664Y146299D02*
X2882664Y146299D01*
X2886299Y142664D01*
X2890000Y138964D01*
X2893701Y142664D01*
X2897336Y146299D01*
X2901036Y150000D01*
X2896775Y154261D01*
X2890000Y161036D01*
X2886299Y157336D01*
X2882664Y153701D01*
X2878964Y150000D01*
X2882664Y146299D01*
D02*
G37*
G36*
X2873701Y122664D02*
X2873701Y122664D01*
X2881036Y130000D01*
X2877336Y133701D01*
X2873701Y137336D01*
X2870000Y141036D01*
X2862664Y133701D01*
G75*
D01*
G03X2872271Y132271I7336J16299*
G01*
G75*
D01*
G03X2873701Y122664I17729J-2271*
G01*
D02*
G37*
G36*
X2866063Y150000D02*
G75*
D01*
G03X2866063Y150000I3937J0*
G01*
D02*
G37*
G36*
X2853701Y157336D02*
G75*
D01*
G03X2853701Y142664I16299J-7336*
G01*
X2853701Y142664D01*
X2861036Y150000D01*
X2853701Y157336D01*
D02*
G37*
G36*
X2848799Y132336D02*
X2848799Y132336D01*
X2841464Y125000D01*
X2848799Y117664D01*
G75*
D01*
G03X2848799Y132336I-16299J7336*
G01*
D02*
G37*
G36*
X2906063Y150000D02*
G75*
D01*
G03X2906063Y150000I3937J0*
G01*
D02*
G37*
G36*
X2828563Y125000D02*
G75*
D01*
G03X2828563Y125000I3937J0*
G01*
D02*
G37*
G36*
X2839836Y108701D02*
X2839836Y108701D01*
X2832500Y116036D01*
X2825164Y108701D01*
G75*
D01*
G03X2839836Y108701I7336J16299*
G01*
D02*
G37*
G36*
X2825164Y141299D02*
X2825164Y141299D01*
X2832500Y133964D01*
X2839836Y141299D01*
G75*
D01*
G03X2825164Y141299I-7336J-16299*
G01*
D02*
G37*
G36*
X3696857Y53571D02*
X3696857Y53571D01*
X3681006Y69422D01*
X3665156Y53571D01*
G75*
D01*
G03X3696857Y53571I15850J35219*
G01*
D02*
G37*
G36*
X3667227Y88790D02*
G75*
D01*
G03X3667227Y88790I13779J0*
G01*
D02*
G37*
G36*
X3716226Y104641D02*
X3716226Y104641D01*
X3700375Y88790D01*
X3716226Y72939D01*
G75*
D01*
G03X3716226Y104641I-35220J15851*
G01*
D02*
G37*
G36*
X3645787Y104641D02*
G75*
D01*
G03X3645787Y72939I35219J-15851*
G01*
X3645787Y72939D01*
X3661638Y88790D01*
X3645787Y104641D01*
D02*
G37*
G36*
X3327484Y69856D02*
G75*
D01*
G03X3325016Y47644I-12484J-9856*
G01*
G75*
D01*
G03X3327484Y69856I12484J9856*
G01*
D02*
G37*
G36*
X3371594Y60000D02*
G75*
D01*
G03X3371594Y60000I15906J0*
G01*
D02*
G37*
G36*
X1548799Y337336D02*
X1548799Y337336D01*
X1541464Y330000D01*
X1548799Y322664D01*
G75*
D01*
G03X1548799Y337336I-16299J7336*
G01*
D02*
G37*
G36*
X1525164Y346299D02*
X1525164Y346299D01*
X1532500Y338964D01*
X1539836Y346299D01*
G75*
D01*
G03X1525164Y346299I-7336J-16299*
G01*
D02*
G37*
G36*
X1516201Y337336D02*
G75*
D01*
G03X1516201Y322664I16299J-7336*
G01*
X1516201Y322664D01*
X1523536Y330000D01*
X1516201Y337336D01*
D02*
G37*
G36*
X1216063Y327500D02*
G75*
D01*
G03X1216063Y327500I3937J0*
G01*
D02*
G37*
G36*
X1226201Y334836D02*
G75*
D01*
G03X1226201Y320164I16299J-7336*
G01*
X1226201Y320164D01*
X1231250Y325214D01*
X1236299Y320164D01*
G75*
D01*
G03X1236299Y334836I-16299J7336*
G01*
X1236299Y334836D01*
X1231250Y329786D01*
X1226201Y334836D01*
D02*
G37*
G36*
X1212664Y343799D02*
X1212664Y343799D01*
X1220000Y336464D01*
X1227336Y343799D01*
G75*
D01*
G03X1212664Y343799I-7336J-16299*
G01*
D02*
G37*
G36*
X1213799Y334836D02*
X1213799Y334836D01*
X1208750Y329786D01*
X1203701Y334836D01*
G75*
D01*
G03X1203701Y320164I16299J-7336*
G01*
X1203701Y320164D01*
X1208750Y325214D01*
X1213799Y320164D01*
G75*
D01*
G03X1213799Y334836I-16299J7336*
G01*
D02*
G37*
G36*
X1238563Y327500D02*
G75*
D01*
G03X1238563Y327500I3937J0*
G01*
D02*
G37*
G36*
X1235164Y343799D02*
X1235164Y343799D01*
X1242500Y336464D01*
X1249836Y343799D01*
G75*
D01*
G03X1235164Y343799I-7336J-16299*
G01*
D02*
G37*
G36*
X1193563Y327500D02*
G75*
D01*
G03X1193563Y327500I3937J0*
G01*
D02*
G37*
G36*
X1190164Y343799D02*
X1190164Y343799D01*
X1197500Y336464D01*
X1204836Y343799D01*
G75*
D01*
G03X1190164Y343799I-7336J-16299*
G01*
D02*
G37*
G36*
X1258799Y334836D02*
X1258799Y334836D01*
X1251464Y327500D01*
X1258799Y320164D01*
G75*
D01*
G03X1258799Y334836I-16299J7336*
G01*
D02*
G37*
G36*
X1181201Y334836D02*
G75*
D01*
G03X1181201Y320164I16299J-7336*
G01*
X1181201Y320164D01*
X1188536Y327500D01*
X1181201Y334836D01*
D02*
G37*
G36*
X1539836Y313701D02*
X1539836Y313701D01*
X1532500Y321036D01*
X1525164Y313701D01*
G75*
D01*
G03X1539836Y313701I7336J16299*
G01*
D02*
G37*
G36*
X1440672Y313134D02*
G75*
D01*
G03X1444505Y288750I11828J-10634*
G01*
G75*
D01*
G03X1442665Y262500I7995J-13750*
G01*
G75*
D01*
G03X1442665Y237500I9835J-12500*
G01*
G75*
D01*
G03X1444505Y211250I9835J-12500*
G01*
G75*
D01*
G03X1442665Y185000I7995J-13750*
G01*
G75*
D01*
G03X1442665Y160000I9835J-12500*
G01*
G75*
D01*
G03X1462335Y160000I9835J-12500*
G01*
G75*
D01*
G03X1462335Y185000I-9835J12500*
G01*
G75*
D01*
G03X1460495Y211250I-9835J12500*
G01*
G75*
D01*
G03X1462335Y237500I-7995J13750*
G01*
G75*
D01*
G03X1462335Y262500I-9835J12500*
G01*
G75*
D01*
G03X1460495Y288750I-9835J12500*
G01*
G75*
D01*
G03X1459328Y316866I-7995J13750*
G01*
G75*
D01*
G03X1440672Y313134I-11828J10634*
G01*
D02*
G37*
G36*
X1217369Y315905D02*
G75*
D01*
G03X1207665Y287500I131J-15905*
G01*
G75*
D01*
G03X1207665Y262500I9835J-12500*
G01*
G75*
D01*
G03X1207665Y237500I9835J-12500*
G01*
G75*
D01*
G03X1207665Y212500I9835J-12500*
G01*
G75*
D01*
G03X1209505Y186250I9835J-12500*
G01*
G75*
D01*
G03X1207665Y160000I7995J-13750*
G01*
G75*
D01*
G03X1227335Y160000I9835J-12500*
G01*
G75*
D01*
G03X1225495Y186250I-9835J12500*
G01*
G75*
D01*
G03X1227335Y212500I-7995J13750*
G01*
G75*
D01*
G03X1227335Y237500I-9835J12500*
G01*
G75*
D01*
G03X1227335Y262500I-9835J12500*
G01*
G75*
D01*
G03X1227335Y287500I-9835J12500*
G01*
G75*
D01*
G03X1224036Y314501I-9835J12500*
G01*
X1224036Y314501D01*
X1220000Y318536D01*
X1217369Y315905D01*
D02*
G37*
G36*
X1204836Y311201D02*
X1204836Y311201D01*
X1197500Y318536D01*
X1190164Y311201D01*
G75*
D01*
G03X1204836Y311201I7336J16299*
G01*
D02*
G37*
G36*
X1249836Y311201D02*
X1249836Y311201D01*
X1242500Y318536D01*
X1235164Y311201D01*
G75*
D01*
G03X1249836Y311201I7336J16299*
G01*
D02*
G37*
G36*
X1022664Y243799D02*
X1022664Y243799D01*
X1030000Y236464D01*
X1037336Y243799D01*
G75*
D01*
G03X1022664Y243799I-7336J-16299*
G01*
D02*
G37*
G36*
X1816063Y175000D02*
G75*
D01*
G03X1816063Y175000I3937J0*
G01*
D02*
G37*
G36*
X1836299Y182336D02*
X1836299Y182336D01*
X1828964Y175000D01*
X1836299Y167664D01*
G75*
D01*
G03X1836299Y182336I-16299J7336*
G01*
D02*
G37*
G36*
X1812664Y191299D02*
X1812664Y191299D01*
X1820000Y183964D01*
X1827336Y191299D01*
G75*
D01*
G03X1812664Y191299I-7336J-16299*
G01*
D02*
G37*
G36*
X1776063Y175000D02*
G75*
D01*
G03X1776063Y175000I3937J0*
G01*
D02*
G37*
G36*
X1803701Y182336D02*
G75*
D01*
G03X1802271Y172729I16299J-7336*
G01*
G75*
D01*
G03X1797729Y172729I-2271J-17729*
G01*
G75*
D01*
G03X1796299Y182336I-17729J2271*
G01*
X1796299Y182336D01*
X1788964Y175000D01*
X1792664Y171299D01*
X1796299Y167664D01*
X1800000Y163964D01*
X1803701Y167664D01*
X1807336Y171299D01*
X1811036Y175000D01*
X1803701Y182336D01*
D02*
G37*
G36*
X1772664Y191299D02*
X1772664Y191299D01*
X1780000Y183964D01*
X1787336Y191299D01*
G75*
D01*
G03X1772664Y191299I-7336J-16299*
G01*
D02*
G37*
G36*
X1756299Y182336D02*
X1756299Y182336D01*
X1748964Y175000D01*
X1752664Y171299D01*
X1760000Y163964D01*
X1763701Y167664D01*
X1767336Y171299D01*
X1771036Y175000D01*
X1763701Y182336D01*
G75*
D01*
G03X1762271Y172729I16299J-7336*
G01*
G75*
D01*
G03X1757729Y172729I-2271J-17729*
G01*
G75*
D01*
G03X1756299Y182336I-17729J2271*
G01*
D02*
G37*
G36*
X1736063Y225000D02*
G75*
D01*
G03X1736063Y225000I3937J0*
G01*
D02*
G37*
G36*
X1747336Y208701D02*
X1747336Y208701D01*
X1740000Y216036D01*
X1732664Y208701D01*
G75*
D01*
G03X1747336Y208701I7336J16299*
G01*
D02*
G37*
G36*
X1756299Y232336D02*
X1756299Y232336D01*
X1748964Y225000D01*
X1756299Y217664D01*
G75*
D01*
G03X1756299Y232336I-16299J7336*
G01*
D02*
G37*
G36*
X1736063Y175000D02*
G75*
D01*
G03X1736063Y175000I3937J0*
G01*
D02*
G37*
G36*
X1732664Y191299D02*
X1732664Y191299D01*
X1740000Y183964D01*
X1747336Y191299D01*
G75*
D01*
G03X1732664Y191299I-7336J-16299*
G01*
D02*
G37*
G36*
X1732664Y241299D02*
X1732664Y241299D01*
X1740000Y233964D01*
X1747336Y241299D01*
G75*
D01*
G03X1732664Y241299I-7336J-16299*
G01*
D02*
G37*
G36*
X1723701Y232336D02*
G75*
D01*
G03X1723701Y217664I16299J-7336*
G01*
X1723701Y217664D01*
X1731036Y225000D01*
X1723701Y232336D01*
D02*
G37*
G36*
X1723701Y182336D02*
G75*
D01*
G03X1723701Y167664I16299J-7336*
G01*
X1723701Y167664D01*
X1731036Y175000D01*
X1723701Y182336D01*
D02*
G37*
G36*
X1116063Y170000D02*
G75*
D01*
G03X1116063Y170000I3937J0*
G01*
D02*
G37*
G36*
X1136299Y177336D02*
X1136299Y177336D01*
X1128964Y170000D01*
X1136299Y162664D01*
G75*
D01*
G03X1136299Y177336I-16299J7336*
G01*
D02*
G37*
G36*
X1112664Y186299D02*
X1112664Y186299D01*
X1120000Y178964D01*
X1127336Y186299D01*
G75*
D01*
G03X1112664Y186299I-7336J-16299*
G01*
D02*
G37*
G36*
X1046063Y207500D02*
G75*
D01*
G03X1046063Y207500I3937J0*
G01*
D02*
G37*
G36*
X1057336Y191201D02*
X1057336Y191201D01*
X1050000Y198536D01*
X1042664Y191201D01*
G75*
D01*
G03X1057336Y191201I7336J16299*
G01*
D02*
G37*
G36*
X1066299Y214836D02*
X1066299Y214836D01*
X1058964Y207500D01*
X1066299Y200164D01*
G75*
D01*
G03X1066299Y214836I-16299J7336*
G01*
D02*
G37*
G36*
X1046299Y234836D02*
X1046299Y234836D01*
X1038964Y227500D01*
X1042664Y223799D01*
X1046299Y220164D01*
X1050000Y216464D01*
X1057336Y223799D01*
G75*
D01*
G03X1047729Y225229I-7336J-16299*
G01*
G75*
D01*
G03X1046299Y234836I-17729J2271*
G01*
D02*
G37*
G36*
X1033701Y200164D02*
X1033701Y200164D01*
X1041036Y207500D01*
X1037336Y211201D01*
X1033701Y214836D01*
X1030000Y218536D01*
X1022664Y211201D01*
G75*
D01*
G03X1032271Y209771I7336J16299*
G01*
G75*
D01*
G03X1033701Y200164I17729J-2271*
G01*
D02*
G37*
G36*
X1026063Y227500D02*
G75*
D01*
G03X1026063Y227500I3937J0*
G01*
D02*
G37*
G36*
X1103701Y177336D02*
G75*
D01*
G03X1103701Y162664I16299J-7336*
G01*
X1103701Y162664D01*
X1111036Y170000D01*
X1103701Y177336D01*
D02*
G37*
G36*
X1013701Y234836D02*
G75*
D01*
G03X1013701Y220164I16299J-7336*
G01*
X1013701Y220164D01*
X1021036Y227500D01*
X1013701Y234836D01*
D02*
G37*
G36*
X941299Y197336D02*
X941299Y197336D01*
X933964Y190000D01*
X941299Y182664D01*
G75*
D01*
G03X941299Y197336I-16299J7336*
G01*
D02*
G37*
G36*
X1816063Y135000D02*
G75*
D01*
G03X1816063Y135000I3937J0*
G01*
D02*
G37*
G36*
X1827336Y118701D02*
X1827336Y118701D01*
X1820000Y126036D01*
X1816299Y122336D01*
X1812664Y118701D01*
X1808964Y115000D01*
X1812664Y111299D01*
X1816299Y107664D01*
X1820000Y103964D01*
X1827336Y111299D01*
G75*
D01*
G03X1817729Y112729I-7336J-16299*
G01*
G75*
D01*
G03X1817729Y117271I-17729J2271*
G01*
G75*
D01*
G03X1827336Y118701I2271J17729*
G01*
D02*
G37*
G36*
X1836299Y142336D02*
X1836299Y142336D01*
X1828964Y135000D01*
X1836299Y127664D01*
G75*
D01*
G03X1836299Y142336I-16299J7336*
G01*
D02*
G37*
G36*
X1827336Y158701D02*
X1827336Y158701D01*
X1820000Y166036D01*
X1816299Y162336D01*
X1812664Y158701D01*
X1808964Y155000D01*
X1812664Y151299D01*
X1816299Y147664D01*
X1820000Y143964D01*
X1827336Y151299D01*
G75*
D01*
G03X1817729Y152729I-7336J-16299*
G01*
G75*
D01*
G03X1817729Y157271I-17729J2271*
G01*
G75*
D01*
G03X1827336Y158701I2271J17729*
G01*
D02*
G37*
G36*
X1816063Y95000D02*
G75*
D01*
G03X1816063Y95000I3937J0*
G01*
D02*
G37*
G36*
X1836299Y102336D02*
X1836299Y102336D01*
X1828964Y95000D01*
X1836299Y87664D01*
G75*
D01*
G03X1836299Y102336I-16299J7336*
G01*
D02*
G37*
G36*
X1847664Y86299D02*
X1847664Y86299D01*
X1855000Y78964D01*
X1862336Y86299D01*
G75*
D01*
G03X1847664Y86299I-7336J-16299*
G01*
D02*
G37*
G36*
X1756063Y115000D02*
G75*
D01*
G03X1756063Y115000I3937J0*
G01*
D02*
G37*
G36*
X1752664Y98701D02*
X1752664Y98701D01*
X1748964Y95000D01*
X1752664Y91299D01*
X1756299Y87664D01*
X1760000Y83964D01*
X1763701Y87664D01*
X1767336Y91299D01*
X1771036Y95000D01*
X1767336Y98701D01*
X1763701Y102336D01*
X1760000Y106036D01*
X1756299Y102336D01*
X1752664Y98701D01*
D02*
G37*
G36*
X1776299Y107664D02*
X1776299Y107664D01*
X1780000Y103964D01*
X1783701Y107664D01*
X1787336Y111299D01*
X1791036Y115000D01*
X1787336Y118701D01*
X1783701Y122336D01*
X1780000Y126036D01*
X1776299Y122336D01*
X1772664Y118701D01*
X1768964Y115000D01*
X1772664Y111299D01*
X1776299Y107664D01*
D02*
G37*
G36*
X1767336Y131299D02*
X1767336Y131299D01*
X1771036Y135000D01*
X1767336Y138701D01*
X1763701Y142336D01*
X1760000Y146036D01*
X1756299Y142336D01*
X1752664Y138701D01*
X1748964Y135000D01*
X1752664Y131299D01*
X1756299Y127664D01*
X1760000Y123964D01*
X1763701Y127664D01*
X1767336Y131299D01*
D02*
G37*
G36*
X1732664Y111299D02*
X1732664Y111299D01*
X1740000Y103964D01*
X1743701Y107664D01*
X1747336Y111299D01*
X1751036Y115000D01*
X1747336Y118701D01*
X1743701Y122336D01*
X1740000Y126036D01*
X1732664Y118701D01*
G75*
D01*
G03X1742271Y117271I7336J16299*
G01*
G75*
D01*
G03X1742271Y112729I17729J-2271*
G01*
G75*
D01*
G03X1732664Y111299I-2271J-17729*
G01*
D02*
G37*
G36*
X1776063Y135000D02*
G75*
D01*
G03X1776063Y135000I3937J0*
G01*
D02*
G37*
G36*
X1796299Y142336D02*
X1796299Y142336D01*
X1792664Y138701D01*
X1788964Y135000D01*
X1792664Y131299D01*
X1796299Y127664D01*
X1800000Y123964D01*
X1803701Y127664D01*
X1807336Y131299D01*
X1811036Y135000D01*
X1804679Y141358D01*
X1800000Y146036D01*
X1796299Y142336D01*
D02*
G37*
G36*
X1787336Y151299D02*
X1787336Y151299D01*
X1791036Y155000D01*
X1787336Y158701D01*
X1783701Y162336D01*
X1780000Y166036D01*
X1776299Y162336D01*
X1772664Y158701D01*
X1768964Y155000D01*
X1772664Y151299D01*
X1776299Y147664D01*
X1780000Y143964D01*
X1783701Y147664D01*
X1787336Y151299D01*
D02*
G37*
G36*
X1776063Y95000D02*
G75*
D01*
G03X1776063Y95000I3937J0*
G01*
D02*
G37*
G36*
X1796299Y87664D02*
X1796299Y87664D01*
X1800000Y83964D01*
X1803701Y87664D01*
X1807336Y91299D01*
X1811036Y95000D01*
X1807336Y98701D01*
X1803701Y102336D01*
X1800000Y106036D01*
X1796299Y102336D01*
X1792664Y98701D01*
X1788964Y95000D01*
X1792664Y91299D01*
X1796299Y87664D01*
D02*
G37*
G36*
X1796063Y115000D02*
G75*
D01*
G03X1796063Y115000I3937J0*
G01*
D02*
G37*
G36*
X1736063Y135000D02*
G75*
D01*
G03X1736063Y135000I3937J0*
G01*
D02*
G37*
G36*
X1732664Y151299D02*
X1732664Y151299D01*
X1740000Y143964D01*
X1743701Y147664D01*
X1747336Y151299D01*
X1751036Y155000D01*
X1747336Y158701D01*
X1743701Y162336D01*
X1740000Y166036D01*
X1732664Y158701D01*
G75*
D01*
G03X1742271Y157271I7336J16299*
G01*
G75*
D01*
G03X1742271Y152729I17729J-2271*
G01*
G75*
D01*
G03X1732664Y151299I-2271J-17729*
G01*
D02*
G37*
G36*
X1736063Y95000D02*
G75*
D01*
G03X1736063Y95000I3937J0*
G01*
D02*
G37*
G36*
X1796063Y155000D02*
G75*
D01*
G03X1796063Y155000I3937J0*
G01*
D02*
G37*
G36*
X1756063Y155000D02*
G75*
D01*
G03X1756063Y155000I3937J0*
G01*
D02*
G37*
G36*
X1723701Y142336D02*
G75*
D01*
G03X1723701Y127664I16299J-7336*
G01*
X1723701Y127664D01*
X1731036Y135000D01*
X1723701Y142336D01*
D02*
G37*
G36*
X1723701Y102336D02*
G75*
D01*
G03X1723701Y87664I16299J-7336*
G01*
X1723701Y87664D01*
X1731036Y95000D01*
X1723701Y102336D01*
D02*
G37*
G36*
X1695164Y86299D02*
X1695164Y86299D01*
X1702500Y78964D01*
X1709836Y86299D01*
G75*
D01*
G03X1695164Y86299I-7336J-16299*
G01*
D02*
G37*
G36*
X1606063Y120000D02*
G75*
D01*
G03X1606063Y120000I3937J0*
G01*
D02*
G37*
G36*
X1617336Y103701D02*
X1617336Y103701D01*
X1610000Y111036D01*
X1602664Y103701D01*
G75*
D01*
G03X1617336Y103701I7336J16299*
G01*
D02*
G37*
G36*
X1626299Y127336D02*
X1626299Y127336D01*
X1618964Y120000D01*
X1626299Y112664D01*
G75*
D01*
G03X1626299Y127336I-16299J7336*
G01*
D02*
G37*
G36*
X1602664Y136299D02*
X1602664Y136299D01*
X1610000Y128964D01*
X1617336Y136299D01*
G75*
D01*
G03X1602664Y136299I-7336J-16299*
G01*
D02*
G37*
G36*
X1593701Y127336D02*
G75*
D01*
G03X1593701Y112664I16299J-7336*
G01*
X1593701Y112664D01*
X1601036Y120000D01*
X1593701Y127336D01*
D02*
G37*
G36*
X1502664Y96299D02*
X1502664Y96299D01*
X1510000Y88964D01*
X1517336Y96299D01*
G75*
D01*
G03X1502664Y96299I-7336J-16299*
G01*
D02*
G37*
G36*
X1492126Y120000D02*
G75*
D01*
G03X1492126Y120000I17874J0*
G01*
D02*
G37*
G36*
X1127336Y153701D02*
X1127336Y153701D01*
X1120000Y161036D01*
X1112664Y153701D01*
G75*
D01*
G03X1127336Y153701I7336J16299*
G01*
D02*
G37*
G36*
X1065164Y96299D02*
X1065164Y96299D01*
X1072500Y88964D01*
X1079836Y96299D01*
G75*
D01*
G03X1065164Y96299I-7336J-16299*
G01*
D02*
G37*
G36*
X958563Y85000D02*
G75*
D01*
G03X958563Y85000I3937J0*
G01*
D02*
G37*
G36*
X955164Y101299D02*
X955164Y101299D01*
X962500Y93964D01*
X969836Y101299D01*
G75*
D01*
G03X955164Y101299I-7336J-16299*
G01*
D02*
G37*
G36*
X1022126Y152500D02*
G75*
D01*
G03X1022126Y152500I17874J0*
G01*
D02*
G37*
G36*
X941299Y117336D02*
X941299Y117336D01*
X933964Y110000D01*
X941299Y102664D01*
G75*
D01*
G03X941299Y117336I-16299J7336*
G01*
D02*
G37*
G36*
X941299Y157336D02*
X941299Y157336D01*
X933964Y150000D01*
X941299Y142664D01*
G75*
D01*
G03X941299Y157336I-16299J7336*
G01*
D02*
G37*
G36*
X1851063Y70000D02*
G75*
D01*
G03X1851063Y70000I3937J0*
G01*
D02*
G37*
G36*
X1862336Y53701D02*
X1862336Y53701D01*
X1855000Y61036D01*
X1847664Y53701D01*
G75*
D01*
G03X1862336Y53701I7336J16299*
G01*
D02*
G37*
G36*
X1871299Y77336D02*
X1871299Y77336D01*
X1863964Y70000D01*
X1871299Y62664D01*
G75*
D01*
G03X1871299Y77336I-16299J7336*
G01*
D02*
G37*
G36*
X1838701Y77336D02*
G75*
D01*
G03X1838701Y62664I16299J-7336*
G01*
X1838701Y62664D01*
X1846036Y70000D01*
X1838701Y77336D01*
D02*
G37*
G36*
X1827336Y78701D02*
X1827336Y78701D01*
X1820000Y86036D01*
X1816299Y82336D01*
X1812664Y78701D01*
X1808964Y75000D01*
X1816299Y67664D01*
G75*
D01*
G03X1817729Y77271I-16299J7336*
G01*
G75*
D01*
G03X1827336Y78701I2271J17729*
G01*
D02*
G37*
G36*
X1807336Y58701D02*
X1807336Y58701D01*
X1800000Y66036D01*
X1792664Y58701D01*
G75*
D01*
G03X1807336Y58701I7336J16299*
G01*
D02*
G37*
G36*
X1767336Y58701D02*
X1767336Y58701D01*
X1760000Y66036D01*
X1752664Y58701D01*
G75*
D01*
G03X1767336Y58701I7336J16299*
G01*
D02*
G37*
G36*
X1783701Y67664D02*
X1783701Y67664D01*
X1791036Y75000D01*
X1787336Y78701D01*
X1783701Y82336D01*
X1780000Y86036D01*
X1776299Y82336D01*
X1772664Y78701D01*
X1768964Y75000D01*
X1776299Y67664D01*
G75*
D01*
G03X1777729Y77271I-16299J7336*
G01*
G75*
D01*
G03X1782271Y77271I2271J17729*
G01*
G75*
D01*
G03X1783701Y67664I17729J-2271*
G01*
D02*
G37*
G36*
X1732664Y78701D02*
G75*
D01*
G03X1742271Y77271I7336J16299*
G01*
G75*
D01*
G03X1743701Y67664I17729J-2271*
G01*
X1743701Y67664D01*
X1751036Y75000D01*
X1747336Y78701D01*
X1743701Y82336D01*
X1740000Y86036D01*
X1732664Y78701D01*
D02*
G37*
G36*
X1796063Y75000D02*
G75*
D01*
G03X1796063Y75000I3937J0*
G01*
D02*
G37*
G36*
X1756063Y75000D02*
G75*
D01*
G03X1756063Y75000I3937J0*
G01*
D02*
G37*
G36*
X1698563Y70000D02*
G75*
D01*
G03X1698563Y70000I3937J0*
G01*
D02*
G37*
G36*
X1709836Y53701D02*
X1709836Y53701D01*
X1702500Y61036D01*
X1695164Y53701D01*
G75*
D01*
G03X1709836Y53701I7336J16299*
G01*
D02*
G37*
G36*
X1718799Y77336D02*
X1718799Y77336D01*
X1711464Y70000D01*
X1718799Y62664D01*
G75*
D01*
G03X1718799Y77336I-16299J7336*
G01*
D02*
G37*
G36*
X1686201Y77336D02*
G75*
D01*
G03X1686201Y62664I16299J-7336*
G01*
X1686201Y62664D01*
X1693536Y70000D01*
X1686201Y77336D01*
D02*
G37*
G36*
X1517336Y63701D02*
X1517336Y63701D01*
X1510000Y71036D01*
X1502664Y63701D01*
G75*
D01*
G03X1517336Y63701I7336J16299*
G01*
D02*
G37*
G36*
X1506063Y80000D02*
G75*
D01*
G03X1506063Y80000I3937J0*
G01*
D02*
G37*
G36*
X1526299Y87336D02*
X1526299Y87336D01*
X1518964Y80000D01*
X1526299Y72664D01*
G75*
D01*
G03X1526299Y87336I-16299J7336*
G01*
D02*
G37*
G36*
X1557126Y82500D02*
G75*
D01*
G03X1557126Y82500I17874J0*
G01*
D02*
G37*
G36*
X1493701Y87336D02*
G75*
D01*
G03X1493701Y72664I16299J-7336*
G01*
X1493701Y72664D01*
X1501036Y80000D01*
X1493701Y87336D01*
D02*
G37*
G36*
X1079836Y63701D02*
X1079836Y63701D01*
X1072500Y71036D01*
X1065164Y63701D01*
G75*
D01*
G03X1079836Y63701I7336J16299*
G01*
D02*
G37*
G36*
X1068563Y80000D02*
G75*
D01*
G03X1068563Y80000I3937J0*
G01*
D02*
G37*
G36*
X1088799Y87336D02*
X1088799Y87336D01*
X1081464Y80000D01*
X1088799Y72664D01*
G75*
D01*
G03X1088799Y87336I-16299J7336*
G01*
D02*
G37*
G36*
X1056201Y87336D02*
G75*
D01*
G03X1056201Y72664I16299J-7336*
G01*
X1056201Y72664D01*
X1063536Y80000D01*
X1056201Y87336D01*
D02*
G37*
G36*
X969836Y68701D02*
X969836Y68701D01*
X962500Y76036D01*
X955164Y68701D01*
G75*
D01*
G03X969836Y68701I7336J16299*
G01*
D02*
G37*
G36*
X978799Y92336D02*
X978799Y92336D01*
X971464Y85000D01*
X978799Y77664D01*
G75*
D01*
G03X978799Y92336I-16299J7336*
G01*
D02*
G37*
G36*
X946201Y92336D02*
G75*
D01*
G03X946201Y77664I16299J-7336*
G01*
X946201Y77664D01*
X953536Y85000D01*
X946201Y92336D01*
D02*
G37*
G36*
X1528563Y330000D02*
G75*
D01*
G03X1528563Y330000I3937J0*
G01*
D02*
G37*
G36*
X2345164Y251299D02*
X2345164Y251299D01*
X2352500Y243964D01*
X2359836Y251299D01*
G75*
D01*
G03X2345164Y251299I-7336J-16299*
G01*
D02*
G37*
G36*
X2307664Y251299D02*
X2307664Y251299D01*
X2315000Y243964D01*
X2322336Y251299D01*
G75*
D01*
G03X2307664Y251299I-7336J-16299*
G01*
D02*
G37*
G36*
X2270164Y251299D02*
X2270164Y251299D01*
X2277500Y243964D01*
X2284836Y251299D01*
G75*
D01*
G03X2270164Y251299I-7336J-16299*
G01*
D02*
G37*
G36*
X2766063Y225000D02*
G75*
D01*
G03X2766063Y225000I3937J0*
G01*
D02*
G37*
G36*
X2777336Y208701D02*
X2777336Y208701D01*
X2770000Y216036D01*
X2762664Y208701D01*
G75*
D01*
G03X2777336Y208701I7336J16299*
G01*
D02*
G37*
G36*
X2786299Y232336D02*
X2786299Y232336D01*
X2778964Y225000D01*
X2786299Y217664D01*
G75*
D01*
G03X2786299Y232336I-16299J7336*
G01*
D02*
G37*
G36*
X2762664Y241299D02*
X2762664Y241299D01*
X2770000Y233964D01*
X2777336Y241299D01*
G75*
D01*
G03X2762664Y241299I-7336J-16299*
G01*
D02*
G37*
G36*
X2731063Y175000D02*
G75*
D01*
G03X2731063Y175000I3937J0*
G01*
D02*
G37*
G36*
X2751299Y182336D02*
X2751299Y182336D01*
X2743964Y175000D01*
X2751299Y167664D01*
G75*
D01*
G03X2751299Y182336I-16299J7336*
G01*
D02*
G37*
G36*
X2727664Y191299D02*
X2727664Y191299D01*
X2735000Y183964D01*
X2742336Y191299D01*
G75*
D01*
G03X2727664Y191299I-7336J-16299*
G01*
D02*
G37*
G36*
X2718701Y182336D02*
G75*
D01*
G03X2718701Y167664I16299J-7336*
G01*
X2718701Y167664D01*
X2726036Y175000D01*
X2718701Y182336D01*
D02*
G37*
G36*
X2753701Y232336D02*
G75*
D01*
G03X2753701Y217664I16299J-7336*
G01*
X2753701Y217664D01*
X2761036Y225000D01*
X2753701Y232336D01*
D02*
G37*
G36*
X2331063Y220000D02*
G75*
D01*
G03X2331063Y220000I3937J0*
G01*
D02*
G37*
G36*
X2332666Y202279D02*
G74*
D01*
G03X2334858Y202127I2334J17721*
G01*
G74*
D01*
G03X2336201Y197664I17642J2873*
G01*
X2336201Y197664D01*
X2342158Y203622D01*
G74*
D01*
G03X2342336Y203701I7158J16378*
G01*
X2342336Y203701D01*
X2342286Y203750D01*
X2343536Y205000D01*
X2336201Y212336D01*
G74*
D01*
G03X2335504Y210533I16299J7336*
G01*
X2335504Y210533D01*
X2335000Y211036D01*
X2332517Y208554D01*
G74*
D01*
G03X2331299Y212336I17517J3554*
G01*
X2331299Y212336D01*
X2323964Y205000D01*
X2331299Y197664D01*
G74*
D01*
G03X2332666Y202279I16299J7336*
G01*
D02*
G37*
G36*
X2351996Y225533D02*
G74*
D01*
G03X2351299Y227336I16996J5533*
G01*
X2351299Y227336D01*
X2345342Y221378D01*
G74*
D01*
G03X2345164Y221299I7158J16378*
G01*
X2345164Y221299D01*
X2345214Y221250D01*
X2343964Y220000D01*
X2345214Y218750D01*
X2345164Y218701D01*
G74*
D01*
G03X2345342Y218622I7336J16299*
G01*
X2345342Y218622D01*
X2351299Y212664D01*
G74*
D01*
G03X2351996Y214467I16299J7336*
G01*
X2351996Y214467D01*
X2352500Y213964D01*
X2356010Y217474D01*
G74*
D01*
G03X2359836Y218701I3510J17526*
G01*
X2359836Y218701D01*
X2358536Y220000D01*
X2359836Y221299D01*
G74*
D01*
G03X2356010Y222526I7336J16299*
G01*
X2356010Y222526D01*
X2352500Y226036D01*
X2351996Y225533D01*
D02*
G37*
G36*
X2317483Y216446D02*
G74*
D01*
G03X2318701Y212664I17517J3554*
G01*
X2318701Y212664D01*
X2326036Y220000D01*
X2318701Y227336D01*
G74*
D01*
G03X2317483Y223554I16299J7336*
G01*
X2317483Y223554D01*
X2315000Y226036D01*
X2312517Y223554D01*
G74*
D01*
G03X2311299Y227336I17517J3554*
G01*
X2311299Y227336D01*
X2303964Y220000D01*
X2311299Y212664D01*
G74*
D01*
G03X2312517Y216446I16299J7336*
G01*
X2312517Y216446D01*
X2315000Y213964D01*
X2317483Y216446D01*
D02*
G37*
G36*
X2311063Y205000D02*
G75*
D01*
G03X2311063Y205000I3937J0*
G01*
D02*
G37*
G36*
X2322336Y188701D02*
X2322336Y188701D01*
X2315000Y196036D01*
X2307664Y188701D01*
G75*
D01*
G03X2322336Y188701I7336J16299*
G01*
D02*
G37*
G36*
X2297334Y202279D02*
G74*
D01*
G03X2298701Y197664I17666J2721*
G01*
X2298701Y197664D01*
X2306036Y205000D01*
X2298701Y212336D01*
G74*
D01*
G03X2297483Y208554I16299J7336*
G01*
X2297483Y208554D01*
X2295000Y211036D01*
X2294496Y210533D01*
G74*
D01*
G03X2293799Y212336I16996J5533*
G01*
X2293799Y212336D01*
X2286464Y205000D01*
X2287714Y203750D01*
X2287664Y203701D01*
G74*
D01*
G03X2287842Y203622I7336J16299*
G01*
X2287842Y203622D01*
X2293799Y197664D01*
G74*
D01*
G03X2295141Y202127I16299J7336*
G01*
G74*
D01*
G03X2297334Y202279I141J17873*
G01*
D02*
G37*
G36*
X2348563Y205000D02*
G75*
D01*
G03X2348563Y205000I3937J0*
G01*
D02*
G37*
G36*
X2359836Y188701D02*
X2359836Y188701D01*
X2352500Y196036D01*
X2345164Y188701D01*
G75*
D01*
G03X2359836Y188701I7336J16299*
G01*
D02*
G37*
G36*
X2291063Y220000D02*
G75*
D01*
G03X2291063Y220000I3937J0*
G01*
D02*
G37*
G36*
X2335504Y229467D02*
G74*
D01*
G03X2336201Y227664I16996J5533*
G01*
X2336201Y227664D01*
X2343536Y235000D01*
X2342286Y236250D01*
X2342336Y236299D01*
G74*
D01*
G03X2342158Y236378I7336J16299*
G01*
X2342158Y236378D01*
X2336201Y242336D01*
G74*
D01*
G03X2334858Y237873I16299J7336*
G01*
G74*
D01*
G03X2332666Y237721I142J17873*
G01*
G74*
D01*
G03X2331299Y242336I17666J2721*
G01*
X2331299Y242336D01*
X2323964Y235000D01*
X2331299Y227664D01*
G74*
D01*
G03X2332517Y231446I16299J7336*
G01*
X2332517Y231446D01*
X2335000Y228964D01*
X2335504Y229467D01*
D02*
G37*
G36*
X2368799Y212336D02*
X2368799Y212336D01*
X2361464Y205000D01*
X2368799Y197664D01*
G75*
D01*
G03X2368799Y212336I-16299J7336*
G01*
D02*
G37*
G36*
X2348563Y235000D02*
G75*
D01*
G03X2348563Y235000I3937J0*
G01*
D02*
G37*
G36*
X2368799Y242336D02*
X2368799Y242336D01*
X2361464Y235000D01*
X2368799Y227664D01*
G75*
D01*
G03X2368799Y242336I-16299J7336*
G01*
D02*
G37*
G36*
X2311063Y235000D02*
G75*
D01*
G03X2311063Y235000I3937J0*
G01*
D02*
G37*
G36*
X2297483Y231446D02*
G74*
D01*
G03X2298701Y227664I17517J3554*
G01*
X2298701Y227664D01*
X2306036Y235000D01*
X2298701Y242336D01*
G74*
D01*
G03X2297334Y237721I16299J7336*
G01*
G74*
D01*
G03X2295141Y237873I2334J17721*
G01*
G74*
D01*
G03X2293799Y242336I17641J2873*
G01*
X2293799Y242336D01*
X2287842Y236378D01*
G74*
D01*
G03X2287664Y236299I7158J16378*
G01*
X2287664Y236299D01*
X2287714Y236250D01*
X2286464Y235000D01*
X2293799Y227664D01*
G74*
D01*
G03X2294496Y229467I16299J7336*
G01*
X2294496Y229467D01*
X2295000Y228964D01*
X2297483Y231446D01*
D02*
G37*
G36*
X2273563Y205000D02*
G75*
D01*
G03X2273563Y205000I3937J0*
G01*
D02*
G37*
G36*
X2261201Y212336D02*
G75*
D01*
G03X2261201Y197664I16299J-7336*
G01*
X2261201Y197664D01*
X2268536Y205000D01*
X2261201Y212336D01*
D02*
G37*
G36*
X2206063Y181500D02*
G75*
D01*
G03X2206063Y181500I3937J0*
G01*
D02*
G37*
G36*
X2225090Y175374D02*
G75*
D01*
G03X2212379Y170157I-90J-17874*
G01*
X2212379Y170157D01*
X2210000Y172536D01*
X2202664Y165201D01*
G74*
D01*
G03X2208240Y163713I7336J16299*
G01*
G75*
D01*
G03X2226759Y175287I16760J-6213*
G01*
G75*
D01*
G03X2226299Y188836I-16759J6213*
G01*
X2226299Y188836D01*
X2218964Y181500D01*
X2225090Y175374D01*
D02*
G37*
G36*
X2284836Y218701D02*
X2284836Y218701D01*
X2284786Y218750D01*
X2286036Y220000D01*
X2284786Y221250D01*
X2284836Y221299D01*
G74*
D01*
G03X2284658Y221378I7336J16299*
G01*
X2284658Y221378D01*
X2278701Y227336D01*
G74*
D01*
G03X2278004Y225533I16299J7336*
G01*
X2278004Y225533D01*
X2277500Y226036D01*
X2273990Y222526D01*
G74*
D01*
G03X2270164Y221299I3510J17526*
G01*
X2270164Y221299D01*
X2271464Y220000D01*
X2270164Y218701D01*
G74*
D01*
G03X2273990Y217474I7336J16299*
G01*
X2273990Y217474D01*
X2277500Y213964D01*
X2278004Y214467D01*
G74*
D01*
G03X2278701Y212664I16996J5533*
G01*
X2278701Y212664D01*
X2284658Y218622D01*
G74*
D01*
G03X2284836Y218701I7158J16378*
G01*
D02*
G37*
G36*
X2284836Y188701D02*
X2284836Y188701D01*
X2277500Y196036D01*
X2270164Y188701D01*
G75*
D01*
G03X2284836Y188701I7336J16299*
G01*
D02*
G37*
G36*
X2273563Y235000D02*
G75*
D01*
G03X2273563Y235000I3937J0*
G01*
D02*
G37*
G36*
X2261201Y242336D02*
G75*
D01*
G03X2261201Y227664I16299J-7336*
G01*
X2261201Y227664D01*
X2268536Y235000D01*
X2261201Y242336D01*
D02*
G37*
G36*
X2146063Y181500D02*
G75*
D01*
G03X2146063Y181500I3937J0*
G01*
D02*
G37*
G36*
X2157336Y165201D02*
X2157336Y165201D01*
X2150000Y172536D01*
X2142664Y165201D01*
G75*
D01*
G03X2157336Y165201I7336J16299*
G01*
D02*
G37*
G36*
X2166299Y188836D02*
X2166299Y188836D01*
X2158964Y181500D01*
X2166299Y174164D01*
G75*
D01*
G03X2166299Y188836I-16299J7336*
G01*
D02*
G37*
G36*
X2142664Y197799D02*
X2142664Y197799D01*
X2150000Y190464D01*
X2157336Y197799D01*
G75*
D01*
G03X2142664Y197799I-7336J-16299*
G01*
D02*
G37*
G36*
X2133701Y188836D02*
G75*
D01*
G03X2133701Y174164I16299J-7336*
G01*
X2133701Y174164D01*
X2141036Y181500D01*
X2133701Y188836D01*
D02*
G37*
G36*
X2193701Y188836D02*
G75*
D01*
G03X2193701Y174164I16299J-7336*
G01*
X2193701Y174164D01*
X2201036Y181500D01*
X2193701Y188836D01*
D02*
G37*
G36*
X2202664Y197799D02*
X2202664Y197799D01*
X2210000Y190464D01*
X2217336Y197799D01*
G75*
D01*
G03X2202664Y197799I-7336J-16299*
G01*
D02*
G37*
G36*
X1946586Y218049D02*
G75*
D01*
G03X1950130Y196481I18414J-8049*
G01*
X1950130Y196481D01*
X2000130Y141481D01*
G74*
D01*
G03X2010737Y135361I14870J13519*
G01*
G75*
D01*
G03X2015000Y134903I4263J19639*
G01*
X2015000Y134903D01*
X2019969Y134903D01*
G75*
D01*
G03X2026956Y136145I31J20097*
G01*
G74*
D01*
G03X2034234Y140813I6956J18855*
G01*
X2034234Y140813D01*
X2089187Y195766D01*
G75*
D01*
G03X2075000Y230097I-14187J14234*
G01*
X2075000Y230097D01*
X1965027Y230097D01*
G75*
D01*
G03X1947004Y218945I-27J-20097*
G01*
G75*
D01*
G03X1937729Y220229I-7004J-16445*
G01*
G75*
D01*
G03X1936299Y229836I-17729J2271*
G01*
X1936299Y229836D01*
X1928964Y222500D01*
X1932664Y218799D01*
X1936299Y215164D01*
X1940000Y211464D01*
X1946586Y218049D01*
D02*
G37*
G36*
X2087664Y163799D02*
X2087664Y163799D01*
X2095000Y156464D01*
X2102336Y163799D01*
G75*
D01*
G03X2087664Y163799I-7336J-16299*
G01*
D02*
G37*
G36*
X2091063Y147500D02*
G75*
D01*
G03X2091063Y147500I3937J0*
G01*
D02*
G37*
G36*
X2098004Y135533D02*
X2098004Y135533D01*
X2095000Y138536D01*
X2087664Y131201D01*
G75*
D01*
G03X2097128Y129753I7336J16299*
G01*
G74*
D01*
G03X2098701Y122664I17872J247*
G01*
X2098701Y122664D01*
X2106036Y130000D01*
X2098701Y137336D01*
G74*
D01*
G03X2098004Y135533I16299J7336*
G01*
D02*
G37*
G36*
X2078701Y154836D02*
G75*
D01*
G03X2078701Y140164I16299J-7336*
G01*
X2078701Y140164D01*
X2086036Y147500D01*
X2078701Y154836D01*
D02*
G37*
G36*
X1947336Y186201D02*
X1947336Y186201D01*
X1940000Y193536D01*
X1932664Y186201D01*
G75*
D01*
G03X1947336Y186201I7336J16299*
G01*
D02*
G37*
G36*
X1916063Y222500D02*
G75*
D01*
G03X1916063Y222500I3937J0*
G01*
D02*
G37*
G36*
X1912664Y206201D02*
G75*
D01*
G03X1922271Y204771I7336J16299*
G01*
G75*
D01*
G03X1923701Y195164I17729J-2271*
G01*
X1923701Y195164D01*
X1931036Y202500D01*
X1927336Y206201D01*
X1923701Y209836D01*
X1920000Y213536D01*
X1912664Y206201D01*
D02*
G37*
G36*
X1903701Y229836D02*
G75*
D01*
G03X1903701Y215164I16299J-7336*
G01*
X1903701Y215164D01*
X1911036Y222500D01*
X1903701Y229836D01*
D02*
G37*
G36*
X1936063Y202500D02*
G75*
D01*
G03X1936063Y202500I3937J0*
G01*
D02*
G37*
G36*
X1912664Y238799D02*
X1912664Y238799D01*
X1920000Y231464D01*
X1927336Y238799D01*
G75*
D01*
G03X1912664Y238799I-7336J-16299*
G01*
D02*
G37*
G36*
X2742336Y158701D02*
X2742336Y158701D01*
X2735000Y166036D01*
X2727664Y158701D01*
G75*
D01*
G03X2742336Y158701I7336J16299*
G01*
D02*
G37*
G36*
X2651063Y122500D02*
G75*
D01*
G03X2651063Y122500I3937J0*
G01*
D02*
G37*
G36*
X2662336Y106201D02*
X2662336Y106201D01*
X2655000Y113536D01*
X2647664Y106201D01*
G75*
D01*
G03X2662336Y106201I7336J16299*
G01*
D02*
G37*
G36*
X2671299Y129836D02*
X2671299Y129836D01*
X2663964Y122500D01*
X2671299Y115164D01*
G75*
D01*
G03X2671299Y129836I-16299J7336*
G01*
D02*
G37*
G36*
X2651996Y134467D02*
X2651996Y134467D01*
X2655000Y131464D01*
X2662336Y138799D01*
G75*
D01*
G03X2652872Y140247I-7336J-16299*
G01*
G74*
D01*
G03X2651299Y147336I17872J247*
G01*
X2651299Y147336D01*
X2643964Y140000D01*
X2651299Y132664D01*
G74*
D01*
G03X2651996Y134467I16299J7336*
G01*
D02*
G37*
G36*
X2638004Y128033D02*
X2638004Y128033D01*
X2635000Y131036D01*
X2627664Y123701D01*
G75*
D01*
G03X2637128Y122253I7336J16299*
G01*
G74*
D01*
G03X2638701Y115164I17872J247*
G01*
X2638701Y115164D01*
X2646036Y122500D01*
X2638701Y129836D01*
G74*
D01*
G03X2638004Y128033I16299J7336*
G01*
D02*
G37*
G36*
X2631063Y140000D02*
G75*
D01*
G03X2631063Y140000I3937J0*
G01*
D02*
G37*
G36*
X2618701Y147336D02*
G75*
D01*
G03X2618701Y132664I16299J-7336*
G01*
X2618701Y132664D01*
X2626036Y140000D01*
X2618701Y147336D01*
D02*
G37*
G36*
X2627664Y156299D02*
X2627664Y156299D01*
X2635000Y148964D01*
X2642336Y156299D01*
G75*
D01*
G03X2627664Y156299I-7336J-16299*
G01*
D02*
G37*
G36*
X2111996Y141967D02*
X2111996Y141967D01*
X2115000Y138964D01*
X2122336Y146299D01*
G75*
D01*
G03X2112872Y147747I-7336J-16299*
G01*
G74*
D01*
G03X2111299Y154836I17872J247*
G01*
X2111299Y154836D01*
X2103964Y147500D01*
X2111299Y140164D01*
G74*
D01*
G03X2111996Y141967I16299J7336*
G01*
D02*
G37*
G36*
X2111063Y130000D02*
G75*
D01*
G03X2111063Y130000I3937J0*
G01*
D02*
G37*
G36*
X2122336Y113701D02*
X2122336Y113701D01*
X2115000Y121036D01*
X2107664Y113701D01*
G75*
D01*
G03X2122336Y113701I7336J16299*
G01*
D02*
G37*
G36*
X2131299Y137336D02*
X2131299Y137336D01*
X2123964Y130000D01*
X2131299Y122664D01*
G75*
D01*
G03X2131299Y137336I-16299J7336*
G01*
D02*
G37*
G36*
X1987664Y91299D02*
X1987664Y91299D01*
X1995000Y83964D01*
X2002336Y91299D01*
G75*
D01*
G03X1987664Y91299I-7336J-16299*
G01*
D02*
G37*
G36*
X2099626Y85000D02*
G75*
D01*
G03X2099626Y85000I17874J0*
G01*
D02*
G37*
G36*
X2002336Y58701D02*
X2002336Y58701D01*
X1995000Y66036D01*
X1987664Y58701D01*
G75*
D01*
G03X2002336Y58701I7336J16299*
G01*
D02*
G37*
G36*
X1991063Y75000D02*
G75*
D01*
G03X1991063Y75000I3937J0*
G01*
D02*
G37*
G36*
X2011299Y82336D02*
X2011299Y82336D01*
X2003964Y75000D01*
X2011299Y67664D01*
G75*
D01*
G03X2011299Y82336I-16299J7336*
G01*
D02*
G37*
G36*
X1978701Y82336D02*
G75*
D01*
G03X1978701Y67664I16299J-7336*
G01*
X1978701Y67664D01*
X1986036Y75000D01*
X1978701Y82336D01*
D02*
G37*
%LPD*%
G36*
X2071237Y206237D02*
G75*
D01*
G03X2066263Y201263I-3737J-1237*
G01*
X2066263Y201263D01*
X2059389Y194389D01*
X2059389Y196889D01*
X2046112Y196889D01*
G74*
D01*
G03X2052624Y187624I21388J8111*
G01*
X2052624Y187624D01*
X2037882Y172882D01*
G74*
D01*
G03X2025611Y183888I20382J10382*
G01*
X2025611Y183888D01*
X2025611Y170611D01*
X2035611Y170611D01*
X2020000Y155000D01*
X2015000Y155000D01*
X2000808Y170611D01*
X2009389Y170611D01*
X2009389Y183888D01*
G74*
D01*
G03X1997727Y174000I8111J21388*
G01*
X1997727Y174000D01*
X1985136Y187850D01*
G74*
D01*
G03X1991388Y196889I15136J17150*
G01*
X1991388Y196889D01*
X1978111Y196889D01*
X1978111Y195578D01*
X1972390Y201871D01*
G75*
D01*
G03X1967112Y207676I-2390J3129*
G01*
X1967112Y207676D01*
X1965000Y210000D01*
X2075000Y210000D01*
X2071237Y206237D01*
D02*
G37*
%LPC*%
G36*
X2013563Y162500D02*
G75*
D01*
G03X2013563Y162500I3937J0*
G01*
D02*
G37*
%LPD*%
G36*
X330000Y202307D02*
G74*
D01*
G03X335457Y196850I25000J19543*
G01*
G74*
D01*
G03X330000Y191394I19543J25000*
G01*
G74*
D01*
G03X324543Y196850I25000J19544*
G01*
G74*
D01*
G03X330000Y202307I19543J25000*
G01*
D02*
G37*
G36*
X80000Y191394D02*
G74*
D01*
G03X74543Y196850I25000J19544*
G01*
G74*
D01*
G03X80000Y202307I19543J25000*
G01*
G74*
D01*
G03X85457Y196850I25000J19543*
G01*
G74*
D01*
G03X80000Y191394I19543J25000*
G01*
D02*
G37*
G36*
X124543Y196850D02*
G74*
D01*
G03X130000Y202307I19543J25000*
G01*
G74*
D01*
G03X135457Y196850I25000J19543*
G01*
G74*
D01*
G03X130000Y191394I19543J25000*
G01*
G74*
D01*
G03X124543Y196850I25000J19544*
G01*
D02*
G37*
G36*
X230000Y202307D02*
G74*
D01*
G03X235457Y196850I25000J19543*
G01*
G74*
D01*
G03X230000Y191394I19543J25000*
G01*
G74*
D01*
G03X224543Y196850I25000J19544*
G01*
G74*
D01*
G03X230000Y202307I19543J25000*
G01*
D02*
G37*
G36*
X185457Y196850D02*
G74*
D01*
G03X180000Y191394I19543J25000*
G01*
G74*
D01*
G03X174543Y196850I25000J19544*
G01*
G74*
D01*
G03X180000Y202307I19543J25000*
G01*
G74*
D01*
G03X185457Y196850I25000J19543*
G01*
D02*
G37*
G36*
X280000Y202307D02*
G74*
D01*
G03X285457Y196850I25000J19543*
G01*
G74*
D01*
G03X280000Y191394I19543J25000*
G01*
G74*
D01*
G03X274543Y196850I25000J19544*
G01*
G74*
D01*
G03X280000Y202307I19543J25000*
G01*
D02*
G37*
G36*
X2932271Y147729D02*
G75*
D01*
G02X2932271Y152271I17729J2271*
G01*
G75*
D01*
G02X2927729Y152271I-2271J17729*
G01*
G75*
D01*
G02X2927729Y147729I-17729J-2271*
G01*
G75*
D01*
G02X2932271Y147729I2271J-17729*
G01*
D02*
G37*
G36*
X2907729Y207729D02*
G75*
D01*
G03X2907729Y212271I-17729J2271*
G01*
G75*
D01*
G03X2912271Y212271I2271J17729*
G01*
G75*
D01*
G03X2912271Y207729I17729J-2271*
G01*
G75*
D01*
G03X2907729Y207729I-2271J-17729*
G01*
D02*
G37*
G36*
X2887729Y192271D02*
G75*
D01*
G02X2887729Y187729I-17729J-2271*
G01*
G75*
D01*
G02X2892271Y187729I2271J-17729*
G01*
G75*
D01*
G02X2892271Y192271I17729J2271*
G01*
G75*
D01*
G02X2887729Y192271I-2271J17729*
G01*
D02*
G37*
G36*
X2932271Y187729D02*
G75*
D01*
G03X2927729Y187729I-2271J-17729*
G01*
G75*
D01*
G03X2927729Y192271I-17729J2271*
G01*
G75*
D01*
G03X2932271Y192271I2271J17729*
G01*
G75*
D01*
G03X2932271Y187729I17729J-2271*
G01*
D02*
G37*
G36*
X2892271Y147729D02*
G75*
D01*
G02X2892271Y152271I17729J2271*
G01*
G75*
D01*
G02X2887729Y152271I-2271J17729*
G01*
G75*
D01*
G02X2887729Y147729I-17729J-2271*
G01*
G75*
D01*
G02X2892271Y147729I2271J-17729*
G01*
D02*
G37*
G36*
X887271Y172271D02*
G75*
D01*
G03X887271Y167729I17729J-2271*
G01*
G75*
D01*
G03X882729Y167729I-2271J-17729*
G01*
G75*
D01*
G03X882729Y172271I-17729J2271*
G01*
G75*
D01*
G03X887271Y172271I2271J17729*
G01*
D02*
G37*
G36*
X862729Y112271D02*
G75*
D01*
G02X862729Y107729I-17729J-2271*
G01*
G75*
D01*
G02X867271Y107729I2271J-17729*
G01*
G75*
D01*
G02X867271Y112271I17729J2271*
G01*
G75*
D01*
G02X862729Y112271I-2271J17729*
G01*
D02*
G37*
G36*
X862729Y152271D02*
G75*
D01*
G02X862729Y147729I-17729J-2271*
G01*
G75*
D01*
G02X867271Y147729I2271J-17729*
G01*
G75*
D01*
G02X867271Y152271I17729J2271*
G01*
G75*
D01*
G02X862729Y152271I-2271J17729*
G01*
D02*
G37*
G36*
X902729Y152271D02*
G75*
D01*
G02X902729Y147729I-17729J-2271*
G01*
G75*
D01*
G02X907271Y147729I2271J-17729*
G01*
G75*
D01*
G02X907271Y152271I17729J2271*
G01*
G75*
D01*
G02X902729Y152271I-2271J17729*
G01*
D02*
G37*
G36*
X882729Y127729D02*
G75*
D01*
G03X882729Y132271I-17729J2271*
G01*
G75*
D01*
G03X887271Y132271I2271J17729*
G01*
G75*
D01*
G03X887271Y127729I17729J-2271*
G01*
G75*
D01*
G03X882729Y127729I-2271J-17729*
G01*
D02*
G37*
G36*
X907271Y107729D02*
G75*
D01*
G03X902729Y107729I-2271J-17729*
G01*
G75*
D01*
G03X902729Y112271I-17729J2271*
G01*
G75*
D01*
G03X907271Y112271I2271J17729*
G01*
G75*
D01*
G03X907271Y107729I17729J-2271*
G01*
D02*
G37*
G36*
X1797729Y132729D02*
G75*
D01*
G02X1802271Y132729I2271J-17729*
G01*
G75*
D01*
G02X1802271Y137271I17729J2271*
G01*
G75*
D01*
G02X1797729Y137271I-2271J17729*
G01*
G75*
D01*
G02X1797729Y132729I-17729J-2271*
G01*
D02*
G37*
G36*
X1777729Y152729D02*
G75*
D01*
G03X1777729Y157271I-17729J2271*
G01*
G75*
D01*
G03X1782271Y157271I2271J17729*
G01*
G75*
D01*
G03X1782271Y152729I17729J-2271*
G01*
G75*
D01*
G03X1777729Y152729I-2271J-17729*
G01*
D02*
G37*
G36*
X1797729Y97271D02*
G75*
D01*
G03X1802271Y97271I2271J17729*
G01*
G75*
D01*
G03X1802271Y92729I17729J-2271*
G01*
G75*
D01*
G03X1797729Y92729I-2271J-17729*
G01*
G75*
D01*
G03X1797729Y97271I-17729J2271*
G01*
D02*
G37*
G36*
X1762271Y97271D02*
G75*
D01*
G03X1762271Y92729I17729J-2271*
G01*
G75*
D01*
G03X1757729Y92729I-2271J-17729*
G01*
G75*
D01*
G03X1757729Y97271I-17729J2271*
G01*
G75*
D01*
G03X1762271Y97271I2271J17729*
G01*
D02*
G37*
G36*
X1777729Y117271D02*
G75*
D01*
G03X1782271Y117271I2271J17729*
G01*
G75*
D01*
G03X1782271Y112729I17729J-2271*
G01*
G75*
D01*
G03X1777729Y112729I-2271J-17729*
G01*
G75*
D01*
G03X1777729Y117271I-17729J2271*
G01*
D02*
G37*
G36*
X1757729Y132729D02*
G75*
D01*
G03X1757729Y137271I-17729J2271*
G01*
G75*
D01*
G03X1762271Y137271I2271J17729*
G01*
G75*
D01*
G03X1762271Y132729I17729J-2271*
G01*
G75*
D01*
G03X1757729Y132729I-2271J-17729*
G01*
D02*
G37*
G36*
X2907729Y172271D02*
G75*
D01*
G03X2912271Y172271I2271J17729*
G01*
G75*
D01*
G03X2912271Y167729I17729J-2271*
G01*
G75*
D01*
G03X2907729Y167729I-2271J-17729*
G01*
G75*
D01*
G03X2907729Y172271I-17729J2271*
G01*
D02*
G37*
G54D11*
X2013563Y162500D02*
G75*
D01*
G03X2013563Y162500I3937J0*
G01*
X2071237Y206237D02*
G75*
D01*
G03X2066263Y201263I-3737J-1237*
G01*
X2059389Y194389D01*
X2059389Y196889D01*
X2046112Y196889D01*
G74*
D01*
G03X2052624Y187624I21388J8111*
G01*
X2037882Y172882D01*
G74*
D01*
G03X2025611Y183888I20382J10382*
G01*
X2025611Y170611D01*
X2035611Y170611D01*
X2020000Y155000D01*
X2015000Y155000D01*
X2000808Y170611D01*
X2009389Y170611D01*
X2009389Y183888D01*
G74*
D01*
G03X1997727Y174000I8111J21388*
G01*
X1985136Y187850D01*
G74*
D01*
G03X1991388Y196889I15136J17150*
G01*
X1978111Y196889D01*
X1978111Y195578D01*
X1972390Y201871D01*
G75*
D01*
G03X1967112Y207676I-2390J3129*
G01*
X1965000Y210000D01*
X2075000Y210000D01*
X2071237Y206237D01*
G54D12*
X3764455Y226986D02*
G75*
D01*
G03X3764455Y226986I-14455J10514*
G01*
X3764455Y262855D02*
G75*
D01*
G03X3764455Y262855I4539J38355*
G01*
X932336Y126299D02*
G75*
D01*
G03X922729Y127729I-7336J-16299*
G01*
G75*
D01*
G03X922729Y132271I-17729J2271*
G01*
G75*
D01*
G03X932336Y133701I2271J17729*
G01*
X929809Y136227D01*
X929809Y136227D01*
X925000Y141036D01*
X921299Y137336D01*
X917664Y133701D01*
X913964Y130000D01*
X917664Y126299D01*
X921299Y122664D01*
X925000Y118964D01*
X929809Y123773D01*
X929809Y123773D01*
X932336Y126299D01*
X932336Y166299D02*
G75*
D01*
G03X922729Y167729I-7336J-16299*
G01*
G75*
D01*
G03X922729Y172271I-17729J2271*
G01*
G75*
D01*
G03X932336Y173701I2271J17729*
G01*
X929809Y176227D01*
X925000Y181036D01*
X921299Y177336D01*
X917664Y173701D01*
X913964Y170000D01*
X917664Y166299D01*
X921299Y162664D01*
X925000Y158964D01*
X929809Y163773D01*
X929809Y163773D01*
X932336Y166299D01*
X932336Y206299D02*
G75*
D01*
G03X917664Y206299I-7336J-16299*
G01*
X925000Y198964D01*
X929809Y203773D01*
X932336Y206299D01*
X932336Y93701D02*
X929809Y96227D01*
X929809Y96227D01*
X925000Y101036D01*
X921299Y97336D01*
X917664Y93701D01*
X913964Y90000D01*
X921299Y82664D01*
G75*
D01*
G03X922729Y92271I-16299J7336*
G01*
G75*
D01*
G03X932336Y93701I2271J17729*
G01*
X2816201Y117664D02*
X2819573Y121037D01*
X2819573Y121037D01*
X2823536Y125000D01*
X2819573Y128963D01*
X2819573Y128963D01*
X2816201Y132336D01*
G75*
D01*
G03X2816201Y117664I16299J-7336*
G01*
X3792588Y238994D02*
G75*
D01*
G03X3792588Y238994I38622J0*
G01*
X901063Y170000D02*
G75*
D01*
G03X901063Y170000I3937J0*
G01*
X877664Y206299D02*
X885000Y198964D01*
X892336Y206299D01*
G75*
D01*
G03X877664Y206299I-7336J-16299*
G01*
X877664Y173701D02*
X873964Y170000D01*
X877664Y166299D01*
X881299Y162664D01*
X885000Y158964D01*
X888701Y162664D01*
X892336Y166299D01*
X896036Y170000D01*
X892336Y173701D01*
X888701Y177336D01*
X885000Y181036D01*
X881299Y177336D01*
X877664Y173701D01*
X881063Y190000D02*
G75*
D01*
G03X881063Y190000I3937J0*
G01*
X901299Y197336D02*
X893964Y190000D01*
X897664Y186299D01*
X901299Y182664D01*
X905000Y178964D01*
X916036Y190000D01*
X908701Y197336D01*
G75*
D01*
G03X907271Y187729I16299J-7336*
G01*
G75*
D01*
G03X902729Y187729I-2271J-17729*
G01*
G75*
D01*
G03X901299Y197336I-17729J2271*
G01*
X828701Y197336D02*
G75*
D01*
G03X828701Y182664I16299J-7336*
G01*
X836036Y190000D01*
X828701Y197336D01*
X837664Y206299D02*
X845000Y198964D01*
X852336Y206299D01*
G75*
D01*
G03X837664Y206299I-7336J-16299*
G01*
X837664Y166299D02*
X845000Y158964D01*
X856036Y170000D01*
X852336Y173701D01*
X848701Y177336D01*
X845000Y181036D01*
X837664Y173701D01*
G75*
D01*
G03X847271Y172271I7336J16299*
G01*
G75*
D01*
G03X847271Y167729I17729J-2271*
G01*
G75*
D01*
G03X837664Y166299I-2271J-17729*
G01*
X841063Y190000D02*
G75*
D01*
G03X841063Y190000I3937J0*
G01*
X868701Y197336D02*
G75*
D01*
G03X867271Y187729I16299J-7336*
G01*
G75*
D01*
G03X862729Y187729I-2271J-17729*
G01*
G75*
D01*
G03X861299Y197336I-17729J2271*
G01*
X853964Y190000D01*
X865000Y178964D01*
X868701Y182664D01*
X872336Y186299D01*
X876036Y190000D01*
X868701Y197336D01*
X861063Y170000D02*
G75*
D01*
G03X861063Y170000I3937J0*
G01*
X718701Y232336D02*
G75*
D01*
G03X718701Y217664I16299J-7336*
G01*
X726036Y225000D01*
X718701Y232336D01*
X751299Y232336D02*
X743964Y225000D01*
X751299Y217664D01*
G75*
D01*
G03X751299Y232336I-16299J7336*
G01*
X742336Y208701D02*
X735000Y216036D01*
X727664Y208701D01*
G75*
D01*
G03X742336Y208701I7336J16299*
G01*
X731063Y225000D02*
G75*
D01*
G03X731063Y225000I3937J0*
G01*
X727664Y241299D02*
X735000Y233964D01*
X742336Y241299D01*
G75*
D01*
G03X727664Y241299I-7336J-16299*
G01*
X563701Y174836D02*
G75*
D01*
G03X563701Y160164I16299J-7336*
G01*
X571036Y167500D01*
X563701Y174836D01*
X572664Y183799D02*
X580000Y176464D01*
X587336Y183799D01*
G75*
D01*
G03X572664Y183799I-7336J-16299*
G01*
X576063Y167500D02*
G75*
D01*
G03X576063Y167500I3937J0*
G01*
X596996Y161967D02*
X600000Y158964D01*
X607336Y166299D01*
G75*
D01*
G03X597872Y167747I-7336J-16299*
G01*
G74*
D01*
G03X596299Y174836I17872J247*
G01*
X588964Y167500D01*
X596299Y160164D01*
G74*
D01*
G03X596996Y161967I16299J7336*
G01*
X533937Y184874D02*
X520913Y171850D01*
X533937Y158827D01*
G75*
D01*
G03X533937Y184874I-28937J13023*
G01*
X493189Y171850D02*
G75*
D01*
G03X493189Y171850I11811J0*
G01*
X433937Y184874D02*
X430000Y180937D01*
X426063Y184874D01*
G74*
D01*
G03X423362Y174299I28937J13024*
G01*
X420913Y171850D01*
X423362Y169401D01*
G74*
D01*
G03X426063Y158827I31638J2449*
G01*
X430000Y162764D01*
X433937Y158827D01*
G74*
D01*
G03X436638Y169401I28937J13023*
G01*
X439086Y171850D01*
X436638Y174299D01*
G74*
D01*
G03X433937Y184874I31638J2449*
G01*
X443189Y171850D02*
G75*
D01*
G03X443189Y171850I11811J0*
G01*
X476063Y184874D02*
G74*
D01*
G03X473362Y174299I28937J13024*
G01*
X470913Y171850D01*
X473362Y169401D01*
G74*
D01*
G03X476063Y158827I31638J2449*
G01*
X480000Y162764D01*
X483937Y158827D01*
G74*
D01*
G03X486638Y169401I28937J13023*
G01*
X489086Y171850D01*
X486638Y174299D01*
G74*
D01*
G03X483937Y184874I31638J2449*
G01*
X480000Y180937D01*
X476063Y184874D01*
X393189Y171850D02*
G75*
D01*
G03X393189Y171850I11811J0*
G01*
X901063Y90000D02*
G75*
D01*
G03X901063Y90000I3937J0*
G01*
X921063Y150000D02*
G75*
D01*
G03X921063Y150000I3937J0*
G01*
X881063Y150000D02*
G75*
D01*
G03X881063Y150000I3937J0*
G01*
X901063Y130000D02*
G75*
D01*
G03X901063Y130000I3937J0*
G01*
X892336Y126299D02*
X896036Y130000D01*
X892336Y133701D01*
X888701Y137336D01*
X885000Y141036D01*
X881299Y137336D01*
X877664Y133701D01*
X873964Y130000D01*
X877664Y126299D01*
X881299Y122664D01*
X885000Y118964D01*
X888701Y122664D01*
X892336Y126299D01*
X888701Y82664D02*
X896036Y90000D01*
X892336Y93701D01*
X888701Y97336D01*
X885000Y101036D01*
X881299Y97336D01*
X877664Y93701D01*
X873964Y90000D01*
X881299Y82664D01*
G75*
D01*
G03X882729Y92271I-16299J7336*
G01*
G75*
D01*
G03X887271Y92271I2271J17729*
G01*
G75*
D01*
G03X888701Y82664I17729J-2271*
G01*
X881063Y110000D02*
G75*
D01*
G03X881063Y110000I3937J0*
G01*
X908701Y117336D02*
X905000Y121036D01*
X901299Y117336D01*
X897664Y113701D01*
X893964Y110000D01*
X897664Y106299D01*
X901299Y102664D01*
X905000Y98964D01*
X916036Y110000D01*
X912336Y113701D01*
X908701Y117336D01*
X921063Y110000D02*
G75*
D01*
G03X921063Y110000I3937J0*
G01*
X912336Y153701D02*
X908701Y157336D01*
X905000Y161036D01*
X901299Y157336D01*
X897664Y153701D01*
X893964Y150000D01*
X897664Y146299D01*
X901299Y142664D01*
X905000Y138964D01*
X916036Y150000D01*
X912336Y153701D01*
X800164Y101299D02*
X807500Y93964D01*
X814836Y101299D01*
G75*
D01*
G03X800164Y101299I-7336J-16299*
G01*
X803563Y85000D02*
G75*
D01*
G03X803563Y85000I3937J0*
G01*
X828701Y157336D02*
G75*
D01*
G03X828701Y142664I16299J-7336*
G01*
X836036Y150000D01*
X828701Y157336D01*
X841063Y150000D02*
G75*
D01*
G03X841063Y150000I3937J0*
G01*
X828701Y117336D02*
G75*
D01*
G03X828701Y102664I16299J-7336*
G01*
X836036Y110000D01*
X828701Y117336D01*
X837664Y126299D02*
X845000Y118964D01*
X848701Y122664D01*
X852336Y126299D01*
X856036Y130000D01*
X852336Y133701D01*
X848701Y137336D01*
X845000Y141036D01*
X837664Y133701D01*
G75*
D01*
G03X847271Y132271I7336J16299*
G01*
G75*
D01*
G03X847271Y127729I17729J-2271*
G01*
G75*
D01*
G03X837664Y126299I-2271J-17729*
G01*
X837664Y93701D02*
G75*
D01*
G03X847271Y92271I7336J16299*
G01*
G75*
D01*
G03X848701Y82664I17729J-2271*
G01*
X856036Y90000D01*
X852336Y93701D01*
X848701Y97336D01*
X845000Y101036D01*
X837664Y93701D01*
X841063Y110000D02*
G75*
D01*
G03X841063Y110000I3937J0*
G01*
X861063Y90000D02*
G75*
D01*
G03X861063Y90000I3937J0*
G01*
X872336Y113701D02*
X868701Y117336D01*
X865000Y121036D01*
X853964Y110000D01*
X865000Y98964D01*
X868701Y102664D01*
X872336Y106299D01*
X876036Y110000D01*
X872336Y113701D01*
X861063Y130000D02*
G75*
D01*
G03X861063Y130000I3937J0*
G01*
X872336Y153701D02*
X868701Y157336D01*
X865000Y161036D01*
X853964Y150000D01*
X865000Y138964D01*
X868701Y142664D01*
X872336Y146299D01*
X876036Y150000D01*
X872336Y153701D01*
X721299Y142336D02*
X713964Y135000D01*
X721299Y127664D01*
G75*
D01*
G03X721299Y142336I-16299J7336*
G01*
X688701Y142336D02*
G75*
D01*
G03X688701Y127664I16299J-7336*
G01*
X696036Y135000D01*
X688701Y142336D01*
X657126Y97500D02*
G75*
D01*
G03X657126Y97500I17874J0*
G01*
X697664Y151299D02*
X705000Y143964D01*
X712336Y151299D01*
G75*
D01*
G03X697664Y151299I-7336J-16299*
G01*
X712336Y118701D02*
X705000Y126036D01*
X697664Y118701D01*
G75*
D01*
G03X712336Y118701I7336J16299*
G01*
X701063Y135000D02*
G75*
D01*
G03X701063Y135000I3937J0*
G01*
X616299Y157336D02*
X608964Y150000D01*
X616299Y142664D01*
G75*
D01*
G03X616299Y157336I-16299J7336*
G01*
X607336Y133701D02*
X600000Y141036D01*
X592664Y133701D01*
G75*
D01*
G03X607336Y133701I7336J16299*
G01*
X596063Y150000D02*
G75*
D01*
G03X596063Y150000I3937J0*
G01*
X582128Y149753D02*
G74*
D01*
G03X583701Y142664I17872J247*
G01*
X591036Y150000D01*
X583701Y157336D01*
G74*
D01*
G03X583004Y155533I16299J7336*
G01*
X580000Y158536D01*
X572664Y151201D01*
G75*
D01*
G03X582128Y149753I7336J16299*
G01*
X518023Y142914D02*
X505000Y155937D01*
X491977Y142914D01*
G75*
D01*
G03X518023Y142914I13023J28936*
G01*
X468023Y142914D02*
X455000Y155937D01*
X441977Y142914D01*
G75*
D01*
G03X468023Y142914I13023J28936*
G01*
X418023Y142914D02*
X405000Y155937D01*
X391977Y142914D01*
G75*
D01*
G03X418023Y142914I13023J28936*
G01*
X502551Y190213D02*
X505000Y187764D01*
X507449Y190213D01*
G75*
D01*
G03X480000Y241394I-2449J31637*
G01*
G75*
D01*
G03X430000Y241394I-25000J-19544*
G01*
G75*
D01*
G03X380000Y241394I-25000J-19544*
G01*
G75*
D01*
G03X330000Y241394I-25000J-19544*
G01*
G75*
D01*
G03X280000Y241394I-25000J-19544*
G01*
G75*
D01*
G03X230000Y241394I-25000J-19544*
G01*
G75*
D01*
G03X180000Y241394I-25000J-19544*
G01*
G75*
D01*
G03X130000Y241394I-25000J-19544*
G01*
G75*
D01*
G03X80000Y241394I-25000J-19544*
G01*
G75*
D01*
G03X35457Y196850I-25000J-19544*
G01*
G75*
D01*
G03X80000Y152307I19543J-25000*
G01*
G75*
D01*
G03X130000Y152307I25000J19543*
G01*
G75*
D01*
G03X180000Y152307I25000J19543*
G01*
G75*
D01*
G03X230000Y152307I25000J19543*
G01*
G75*
D01*
G03X280000Y152307I25000J19543*
G01*
G75*
D01*
G03X330000Y152307I25000J19543*
G01*
G75*
D01*
G03X386638Y169401I25000J19543*
G01*
X389086Y171850D01*
X386638Y174299D01*
G74*
D01*
G03X374543Y196850I31638J2449*
G01*
G74*
D01*
G03X380000Y202307I19543J25000*
G01*
G74*
D01*
G03X402551Y190213I25000J19543*
G01*
X405000Y187764D01*
X407449Y190213D01*
G74*
D01*
G03X430000Y202307I2449J31637*
G01*
G74*
D01*
G03X452551Y190213I25000J19543*
G01*
X455000Y187764D01*
X457449Y190213D01*
G74*
D01*
G03X480000Y202307I2449J31637*
G01*
G74*
D01*
G03X502551Y190213I25000J19543*
G01*
X912336Y73701D02*
X905000Y81036D01*
X897664Y73701D01*
G75*
D01*
G03X912336Y73701I7336J16299*
G01*
X814836Y68701D02*
X807500Y76036D01*
X800164Y68701D01*
G75*
D01*
G03X814836Y68701I7336J16299*
G01*
X791201Y92336D02*
G75*
D01*
G03X791201Y77664I16299J-7336*
G01*
X798536Y85000D01*
X791201Y92336D01*
X823799Y92336D02*
X816464Y85000D01*
X823799Y77664D01*
G75*
D01*
G03X823799Y92336I-16299J7336*
G01*
X872336Y73701D02*
X865000Y81036D01*
X857664Y73701D01*
G75*
D01*
G03X872336Y73701I7336J16299*
G01*
X921063Y190000D02*
G75*
D01*
G03X921063Y190000I3937J0*
G01*
X3674626Y300000D02*
G75*
D01*
G03X3674626Y300000I17874J0*
G01*
X3291063Y275000D02*
G75*
D01*
G03X3291063Y275000I3937J0*
G01*
X3302336Y258701D02*
X3295000Y266036D01*
X3287664Y258701D01*
G75*
D01*
G03X3302336Y258701I7336J16299*
G01*
X3287664Y291299D02*
X3295000Y283964D01*
X3302336Y291299D01*
G75*
D01*
G03X3287664Y291299I-7336J-16299*
G01*
X3278701Y282336D02*
G75*
D01*
G03X3278701Y267664I16299J-7336*
G01*
X3286036Y275000D01*
X3278701Y282336D01*
X3311299Y282336D02*
X3303964Y275000D01*
X3311299Y267664D01*
G75*
D01*
G03X3311299Y282336I-16299J7336*
G01*
X3081299Y279836D02*
X3073964Y272500D01*
X3081299Y265164D01*
G75*
D01*
G03X3081299Y279836I-16299J7336*
G01*
X3116063Y245000D02*
G75*
D01*
G03X3116063Y245000I3937J0*
G01*
X3136299Y252336D02*
X3128964Y245000D01*
X3136299Y237664D01*
G75*
D01*
G03X3136299Y252336I-16299J7336*
G01*
X3112664Y261299D02*
X3120000Y253964D01*
X3127336Y261299D01*
G75*
D01*
G03X3112664Y261299I-7336J-16299*
G01*
X3103701Y252336D02*
G75*
D01*
G03X3103701Y237664I16299J-7336*
G01*
X3111036Y245000D01*
X3103701Y252336D01*
X3041063Y292500D02*
G75*
D01*
G03X3041063Y292500I3937J0*
G01*
X3037664Y276201D02*
G75*
D01*
G03X3047271Y274771I7336J16299*
G01*
G75*
D01*
G03X3048701Y265164I17729J-2271*
G01*
X3056036Y272500D01*
X3052336Y276201D01*
X3048701Y279836D01*
X3045000Y283536D01*
X3037664Y276201D01*
X3061299Y299836D02*
X3053964Y292500D01*
X3057664Y288799D01*
X3061299Y285164D01*
X3065000Y281464D01*
X3072336Y288799D01*
G75*
D01*
G03X3062729Y290229I-7336J-16299*
G01*
G75*
D01*
G03X3061299Y299836I-17729J2271*
G01*
X3037664Y308799D02*
X3045000Y301464D01*
X3052336Y308799D01*
G75*
D01*
G03X3037664Y308799I-7336J-16299*
G01*
X3028701Y299836D02*
G75*
D01*
G03X3028701Y285164I16299J-7336*
G01*
X3036036Y292500D01*
X3028701Y299836D01*
X3061063Y272500D02*
G75*
D01*
G03X3061063Y272500I3937J0*
G01*
X3072336Y256201D02*
X3065000Y263536D01*
X3057664Y256201D01*
G75*
D01*
G03X3072336Y256201I7336J16299*
G01*
X2942664Y246299D02*
X2950000Y238964D01*
X2957336Y246299D01*
G75*
D01*
G03X2942664Y246299I-7336J-16299*
G01*
X2862664Y246299D02*
X2870000Y238964D01*
X2877336Y246299D01*
G75*
D01*
G03X2862664Y246299I-7336J-16299*
G01*
X2902664Y246299D02*
X2910000Y238964D01*
X2917336Y246299D01*
G75*
D01*
G03X2902664Y246299I-7336J-16299*
G01*
X3341063Y205000D02*
G75*
D01*
G03X3341063Y205000I3937J0*
G01*
X3352336Y188701D02*
X3345000Y196036D01*
X3337664Y188701D01*
G75*
D01*
G03X3352336Y188701I7336J16299*
G01*
X3361299Y212336D02*
X3353964Y205000D01*
X3361299Y197664D01*
G75*
D01*
G03X3361299Y212336I-16299J7336*
G01*
X3337664Y221299D02*
X3345000Y213964D01*
X3352336Y221299D01*
G75*
D01*
G03X3337664Y221299I-7336J-16299*
G01*
X3328701Y212336D02*
G75*
D01*
G03X3328701Y197664I16299J-7336*
G01*
X3336036Y205000D01*
X3328701Y212336D01*
X3362664Y171299D02*
X3370000Y163964D01*
X3377336Y171299D01*
G75*
D01*
G03X3362664Y171299I-7336J-16299*
G01*
X3380164Y171299D02*
X3387500Y163964D01*
X3394836Y171299D01*
G75*
D01*
G03X3380164Y171299I-7336J-16299*
G01*
X3296594Y175000D02*
G75*
D01*
G03X3296594Y175000I15906J0*
G01*
X3163564Y219935D02*
G74*
D01*
G03X3160164Y218799I3936J17435*
G01*
X3167474Y211490D01*
G74*
D01*
G03X3167592Y210944I17526J3510*
G01*
X3167500Y211036D01*
X3160164Y203701D01*
G74*
D01*
G03X3163564Y202565I7336J16299*
G01*
G75*
D01*
G03X3167159Y198578I3936J-65*
G01*
G75*
D01*
G03X3167592Y193444I17841J-1078*
G01*
X3167500Y193536D01*
X3160164Y186201D01*
G75*
D01*
G03X3174836Y186201I7336J16299*
G01*
X3169786Y191250D01*
X3176036Y197500D01*
X3171418Y202118D01*
G75*
D01*
G03X3171436Y202565I-3918J382*
G01*
G74*
D01*
G03X3174836Y203701I3936J17435*
G01*
X3169786Y208750D01*
X3176036Y215000D01*
X3173536Y217500D01*
X3174836Y218799D01*
G74*
D01*
G03X3171436Y219935I7336J16299*
G01*
G75*
D01*
G03X3163564Y219935I-3936J65*
G01*
X3188936Y214935D02*
G75*
D01*
G03X3185341Y218922I-3936J65*
G01*
G75*
D01*
G03X3184908Y224056I-17841J1078*
G01*
X3185000Y223964D01*
X3192336Y231299D01*
G75*
D01*
G03X3177664Y231299I-7336J-16299*
G01*
X3182714Y226250D01*
X3176464Y220000D01*
X3181082Y215382D01*
G75*
D01*
G03X3181064Y214935I3918J-382*
G01*
G74*
D01*
G03X3177664Y213799I3936J17435*
G01*
X3182714Y208750D01*
X3176464Y202500D01*
X3178964Y200000D01*
X3177664Y198701D01*
G74*
D01*
G03X3181064Y197565I7336J16299*
G01*
G75*
D01*
G03X3188936Y197565I3936J-65*
G01*
G74*
D01*
G03X3192336Y198701I3936J17435*
G01*
X3185026Y206010D01*
G74*
D01*
G03X3184908Y206556I17526J3510*
G01*
X3185000Y206464D01*
X3192336Y213799D01*
G74*
D01*
G03X3188936Y214935I7336J16299*
G01*
X3151201Y209836D02*
G75*
D01*
G03X3151201Y195164I16299J-7336*
G01*
X3158536Y202500D01*
X3151201Y209836D01*
X3151201Y227336D02*
G75*
D01*
G03X3151201Y212664I16299J-7336*
G01*
X3158536Y220000D01*
X3151201Y227336D01*
X3201299Y222336D02*
X3193964Y215000D01*
X3201299Y207664D01*
G75*
D01*
G03X3201299Y222336I-16299J7336*
G01*
X3192336Y181201D02*
X3185000Y188536D01*
X3177664Y181201D01*
G75*
D01*
G03X3192336Y181201I7336J16299*
G01*
X3201299Y204836D02*
X3193964Y197500D01*
X3201299Y190164D01*
G75*
D01*
G03X3201299Y204836I-16299J7336*
G01*
X3160164Y236299D02*
X3167500Y228964D01*
X3174836Y236299D01*
G75*
D01*
G03X3160164Y236299I-7336J-16299*
G01*
X3127336Y228701D02*
X3120000Y236036D01*
X3112664Y228701D01*
G75*
D01*
G03X3127336Y228701I7336J16299*
G01*
X3055164Y171299D02*
X3062500Y163964D01*
X3069836Y171299D01*
G75*
D01*
G03X3055164Y171299I-7336J-16299*
G01*
X2946063Y190000D02*
G75*
D01*
G03X2946063Y190000I3937J0*
G01*
X2947729Y172271D02*
G75*
D01*
G03X2957336Y173701I2271J17729*
G01*
X2950000Y181036D01*
X2946299Y177336D01*
X2938964Y170000D01*
X2942664Y166299D01*
X2946299Y162664D01*
X2950000Y158964D01*
X2957336Y166299D01*
G75*
D01*
G03X2947729Y167729I-7336J-16299*
G01*
G75*
D01*
G03X2947729Y172271I-17729J2271*
G01*
X2966299Y197336D02*
X2958964Y190000D01*
X2966299Y182664D01*
G75*
D01*
G03X2966299Y197336I-16299J7336*
G01*
X2957336Y213701D02*
X2950000Y221036D01*
X2946299Y217336D01*
X2942664Y213701D01*
X2938964Y210000D01*
X2942664Y206299D01*
X2946299Y202664D01*
X2950000Y198964D01*
X2957336Y206299D01*
G75*
D01*
G03X2947729Y207729I-7336J-16299*
G01*
G75*
D01*
G03X2947729Y212271I-17729J2271*
G01*
G75*
D01*
G03X2957336Y213701I2271J17729*
G01*
X2933701Y197336D02*
X2930000Y201036D01*
X2926299Y197336D01*
X2922664Y193701D01*
X2918964Y190000D01*
X2922664Y186299D01*
X2926299Y182664D01*
X2930000Y178964D01*
X2933701Y182664D01*
X2937336Y186299D01*
X2941036Y190000D01*
X2937336Y193701D01*
X2933701Y197336D01*
X2926063Y210000D02*
G75*
D01*
G03X2926063Y210000I3937J0*
G01*
X2926299Y237336D02*
X2918964Y230000D01*
X2922664Y226299D01*
X2926299Y222664D01*
X2930000Y218964D01*
X2933701Y222664D01*
X2937336Y226299D01*
X2941036Y230000D01*
X2933701Y237336D01*
G75*
D01*
G03X2932271Y227729I16299J-7336*
G01*
G75*
D01*
G03X2927729Y227729I-2271J-17729*
G01*
G75*
D01*
G03X2926299Y237336I-17729J2271*
G01*
X2946063Y230000D02*
G75*
D01*
G03X2946063Y230000I3937J0*
G01*
X2926063Y170000D02*
G75*
D01*
G03X2926063Y170000I3937J0*
G01*
X2966299Y237336D02*
X2958964Y230000D01*
X2966299Y222664D01*
G75*
D01*
G03X2966299Y237336I-16299J7336*
G01*
X2886063Y210000D02*
G75*
D01*
G03X2886063Y210000I3937J0*
G01*
X2897336Y193701D02*
X2893701Y197336D01*
X2890000Y201036D01*
X2882664Y193701D01*
X2878964Y190000D01*
X2882664Y186299D01*
X2886299Y182664D01*
X2890000Y178964D01*
X2893701Y182664D01*
X2897336Y186299D01*
X2901036Y190000D01*
X2897336Y193701D01*
X2906140Y217176D02*
X2898964Y210000D01*
X2902664Y206299D01*
X2906299Y202664D01*
X2910000Y198964D01*
X2917336Y206299D01*
X2921036Y210000D01*
X2913860Y217176D01*
X2910000Y221036D01*
X2906140Y217176D01*
X2886299Y237336D02*
X2878964Y230000D01*
X2882664Y226299D01*
X2886299Y222664D01*
X2890000Y218964D01*
X2893701Y222664D01*
X2897336Y226299D01*
X2901036Y230000D01*
X2893701Y237336D01*
G75*
D01*
G03X2892271Y227729I16299J-7336*
G01*
G75*
D01*
G03X2887729Y227729I-2271J-17729*
G01*
G75*
D01*
G03X2886299Y237336I-17729J2271*
G01*
X2862664Y206299D02*
X2870000Y198964D01*
X2873701Y202664D01*
X2877336Y206299D01*
X2881036Y210000D01*
X2877336Y213701D01*
X2873701Y217336D01*
X2870000Y221036D01*
X2862664Y213701D01*
G75*
D01*
G03X2872271Y212271I7336J16299*
G01*
G75*
D01*
G03X2872271Y207729I17729J-2271*
G01*
G75*
D01*
G03X2862664Y206299I-2271J-17729*
G01*
X2866063Y190000D02*
G75*
D01*
G03X2866063Y190000I3937J0*
G01*
X2862664Y166299D02*
X2870000Y158964D01*
X2873701Y162664D01*
X2877336Y166299D01*
X2881036Y170000D01*
X2873827Y177209D01*
X2873701Y177336D01*
X2870000Y181036D01*
X2862664Y173701D01*
G75*
D01*
G03X2872271Y172271I7336J16299*
G01*
G75*
D01*
G03X2872271Y167729I17729J-2271*
G01*
G75*
D01*
G03X2862664Y166299I-2271J-17729*
G01*
X2853701Y197336D02*
G75*
D01*
G03X2853701Y182664I16299J-7336*
G01*
X2861036Y190000D01*
X2853701Y197336D01*
X2866063Y230000D02*
G75*
D01*
G03X2866063Y230000I3937J0*
G01*
X2886063Y170000D02*
G75*
D01*
G03X2886063Y170000I3937J0*
G01*
X2902664Y173701D02*
X2898964Y170000D01*
X2902664Y166299D01*
X2910000Y158964D01*
X2913701Y162664D01*
X2916290Y165253D01*
X2917336Y166299D01*
X2921036Y170000D01*
X2917336Y173701D01*
X2910000Y181036D01*
X2902664Y173701D01*
X2906063Y190000D02*
G75*
D01*
G03X2906063Y190000I3937J0*
G01*
X2906063Y230000D02*
G75*
D01*
G03X2906063Y230000I3937J0*
G01*
X2853701Y237336D02*
G75*
D01*
G03X2853701Y222664I16299J-7336*
G01*
X2861036Y230000D01*
X2853701Y237336D01*
X3665156Y124010D02*
X3681006Y108159D01*
X3696857Y124010D01*
G75*
D01*
G03X3665156Y124010I-15851J-35220*
G01*
X3612345Y112926D02*
G75*
D01*
G03X3598991Y117845I6445J38080*
G01*
G75*
D01*
G03X3612345Y112926I1009J-17845*
G01*
X3481063Y145000D02*
G75*
D01*
G03X3481063Y145000I3937J0*
G01*
X3492336Y128701D02*
X3485000Y136036D01*
X3477664Y128701D01*
G75*
D01*
G03X3492336Y128701I7336J16299*
G01*
X3501299Y152336D02*
X3493964Y145000D01*
X3501299Y137664D01*
G75*
D01*
G03X3501299Y152336I-16299J7336*
G01*
X3468701Y152336D02*
G75*
D01*
G03X3468701Y137664I16299J-7336*
G01*
X3476036Y145000D01*
X3468701Y152336D01*
X3477664Y161299D02*
X3485000Y153964D01*
X3492336Y161299D01*
G75*
D01*
G03X3477664Y161299I-7336J-16299*
G01*
X3403799Y162336D02*
X3396464Y155000D01*
X3403799Y147664D01*
G75*
D01*
G03X3403799Y162336I-16299J7336*
G01*
X3363381Y110881D02*
G75*
D01*
G03X3346619Y94119I-15881J-881*
G01*
G75*
D01*
G03X3363381Y110881I15881J881*
G01*
X3377336Y138701D02*
X3370000Y146036D01*
X3362664Y138701D01*
G75*
D01*
G03X3377336Y138701I7336J16299*
G01*
X3370065Y151064D02*
G74*
D01*
G03X3371201Y147664I17435J3936*
G01*
X3378536Y155000D01*
X3371201Y162336D01*
G74*
D01*
G03X3370065Y158936I16299J7336*
G01*
G75*
D01*
G03X3370065Y151064I-65J-3936*
G01*
X3387435Y158936D02*
G74*
D01*
G03X3386299Y162336I17435J3936*
G01*
X3378964Y155000D01*
X3386299Y147664D01*
G74*
D01*
G03X3387435Y151064I16299J7336*
G01*
G75*
D01*
G03X3387435Y158936I65J3936*
G01*
X3353701Y162336D02*
G75*
D01*
G03X3353701Y147664I16299J-7336*
G01*
X3361036Y155000D01*
X3353701Y162336D01*
X3394836Y138701D02*
X3387500Y146036D01*
X3380164Y138701D01*
G75*
D01*
G03X3394836Y138701I7336J16299*
G01*
X3281594Y100000D02*
G75*
D01*
G03X3281594Y100000I15906J0*
G01*
X3206063Y145000D02*
G75*
D01*
G03X3206063Y145000I3937J0*
G01*
X3217336Y128701D02*
X3210000Y136036D01*
X3202664Y128701D01*
G75*
D01*
G03X3217336Y128701I7336J16299*
G01*
X3226299Y152336D02*
X3218964Y145000D01*
X3226299Y137664D01*
G75*
D01*
G03X3226299Y152336I-16299J7336*
G01*
X3193701Y152336D02*
G75*
D01*
G03X3193701Y137664I16299J-7336*
G01*
X3201036Y145000D01*
X3193701Y152336D01*
X3202664Y161299D02*
X3210000Y153964D01*
X3217336Y161299D01*
G75*
D01*
G03X3202664Y161299I-7336J-16299*
G01*
X3078799Y162336D02*
X3071464Y155000D01*
X3078799Y147664D01*
G75*
D01*
G03X3078799Y162336I-16299J7336*
G01*
X3069836Y138701D02*
X3062500Y146036D01*
X3055164Y138701D01*
G75*
D01*
G03X3069836Y138701I7336J16299*
G01*
X3001299Y132336D02*
X2993964Y125000D01*
X3001299Y117664D01*
G75*
D01*
G03X3001299Y132336I-16299J7336*
G01*
X3058563Y155000D02*
G75*
D01*
G03X3058563Y155000I3937J0*
G01*
X3046201Y162336D02*
G75*
D01*
G03X3046201Y147664I16299J-7336*
G01*
X3053536Y155000D01*
X3046201Y162336D01*
X2926063Y130000D02*
G75*
D01*
G03X2926063Y130000I3937J0*
G01*
X2937336Y113701D02*
X2930000Y121036D01*
X2922664Y113701D01*
G75*
D01*
G03X2937336Y113701I7336J16299*
G01*
X2957336Y133701D02*
X2950000Y141036D01*
X2946299Y137336D01*
X2942664Y133701D01*
X2938964Y130000D01*
X2946299Y122664D01*
G75*
D01*
G03X2947729Y132271I-16299J7336*
G01*
G75*
D01*
G03X2957336Y133701I2271J17729*
G01*
X2937336Y153701D02*
X2930000Y161036D01*
X2926299Y157336D01*
X2918964Y150000D01*
X2922664Y146299D01*
X2926299Y142664D01*
X2930000Y138964D01*
X2933701Y142664D01*
X2937336Y146299D01*
X2941036Y150000D01*
X2937336Y153701D01*
X2946063Y150000D02*
G75*
D01*
G03X2946063Y150000I3937J0*
G01*
X2966299Y157336D02*
X2958964Y150000D01*
X2966299Y142664D01*
G75*
D01*
G03X2966299Y157336I-16299J7336*
G01*
X2981063Y125000D02*
G75*
D01*
G03X2981063Y125000I3937J0*
G01*
X2968701Y132336D02*
G75*
D01*
G03X2968701Y117664I16299J-7336*
G01*
X2976036Y125000D01*
X2968701Y132336D01*
X2992336Y108701D02*
X2985000Y116036D01*
X2977664Y108701D01*
G75*
D01*
G03X2992336Y108701I7336J16299*
G01*
X2977664Y141299D02*
X2985000Y133964D01*
X2992336Y141299D01*
G75*
D01*
G03X2977664Y141299I-7336J-16299*
G01*
X2886063Y130000D02*
G75*
D01*
G03X2886063Y130000I3937J0*
G01*
X2897336Y113701D02*
X2890000Y121036D01*
X2882664Y113701D01*
G75*
D01*
G03X2897336Y113701I7336J16299*
G01*
X2906299Y122664D02*
G75*
D01*
G03X2907729Y132271I-16299J7336*
G01*
G75*
D01*
G03X2912271Y132271I2271J17729*
G01*
G75*
D01*
G03X2913701Y122664I17729J-2271*
G01*
X2921036Y130000D01*
X2917336Y133701D01*
X2913701Y137336D01*
X2910000Y141036D01*
X2906299Y137336D01*
X2902664Y133701D01*
X2898964Y130000D01*
X2906299Y122664D01*
X2882664Y146299D02*
X2886299Y142664D01*
X2890000Y138964D01*
X2893701Y142664D01*
X2897336Y146299D01*
X2901036Y150000D01*
X2896775Y154261D01*
X2890000Y161036D01*
X2886299Y157336D01*
X2882664Y153701D01*
X2878964Y150000D01*
X2882664Y146299D01*
X2873701Y122664D02*
X2881036Y130000D01*
X2877336Y133701D01*
X2873701Y137336D01*
X2870000Y141036D01*
X2862664Y133701D01*
G75*
D01*
G03X2872271Y132271I7336J16299*
G01*
G75*
D01*
G03X2873701Y122664I17729J-2271*
G01*
X2866063Y150000D02*
G75*
D01*
G03X2866063Y150000I3937J0*
G01*
X2853701Y157336D02*
G75*
D01*
G03X2853701Y142664I16299J-7336*
G01*
X2861036Y150000D01*
X2853701Y157336D01*
X2848799Y132336D02*
X2841464Y125000D01*
X2848799Y117664D01*
G75*
D01*
G03X2848799Y132336I-16299J7336*
G01*
X2906063Y150000D02*
G75*
D01*
G03X2906063Y150000I3937J0*
G01*
X2828563Y125000D02*
G75*
D01*
G03X2828563Y125000I3937J0*
G01*
X2839836Y108701D02*
X2832500Y116036D01*
X2825164Y108701D01*
G75*
D01*
G03X2839836Y108701I7336J16299*
G01*
X2825164Y141299D02*
X2832500Y133964D01*
X2839836Y141299D01*
G75*
D01*
G03X2825164Y141299I-7336J-16299*
G01*
X3696857Y53571D02*
X3681006Y69422D01*
X3665156Y53571D01*
G75*
D01*
G03X3696857Y53571I15850J35219*
G01*
X3667227Y88790D02*
G75*
D01*
G03X3667227Y88790I13779J0*
G01*
X3716226Y104641D02*
X3700375Y88790D01*
X3716226Y72939D01*
G75*
D01*
G03X3716226Y104641I-35220J15851*
G01*
X3645787Y104641D02*
G75*
D01*
G03X3645787Y72939I35219J-15851*
G01*
X3661638Y88790D01*
X3645787Y104641D01*
X3327484Y69856D02*
G75*
D01*
G03X3325016Y47644I-12484J-9856*
G01*
G75*
D01*
G03X3327484Y69856I12484J9856*
G01*
X3371594Y60000D02*
G75*
D01*
G03X3371594Y60000I15906J0*
G01*
X1548799Y337336D02*
X1541464Y330000D01*
X1548799Y322664D01*
G75*
D01*
G03X1548799Y337336I-16299J7336*
G01*
X1525164Y346299D02*
X1532500Y338964D01*
X1539836Y346299D01*
G75*
D01*
G03X1525164Y346299I-7336J-16299*
G01*
X1516201Y337336D02*
G75*
D01*
G03X1516201Y322664I16299J-7336*
G01*
X1523536Y330000D01*
X1516201Y337336D01*
X1216063Y327500D02*
G75*
D01*
G03X1216063Y327500I3937J0*
G01*
X1226201Y334836D02*
G75*
D01*
G03X1226201Y320164I16299J-7336*
G01*
X1231250Y325214D01*
X1236299Y320164D01*
G75*
D01*
G03X1236299Y334836I-16299J7336*
G01*
X1231250Y329786D01*
X1226201Y334836D01*
X1212664Y343799D02*
X1220000Y336464D01*
X1227336Y343799D01*
G75*
D01*
G03X1212664Y343799I-7336J-16299*
G01*
X1213799Y334836D02*
X1208750Y329786D01*
X1203701Y334836D01*
G75*
D01*
G03X1203701Y320164I16299J-7336*
G01*
X1208750Y325214D01*
X1213799Y320164D01*
G75*
D01*
G03X1213799Y334836I-16299J7336*
G01*
X1238563Y327500D02*
G75*
D01*
G03X1238563Y327500I3937J0*
G01*
X1235164Y343799D02*
X1242500Y336464D01*
X1249836Y343799D01*
G75*
D01*
G03X1235164Y343799I-7336J-16299*
G01*
X1193563Y327500D02*
G75*
D01*
G03X1193563Y327500I3937J0*
G01*
X1190164Y343799D02*
X1197500Y336464D01*
X1204836Y343799D01*
G75*
D01*
G03X1190164Y343799I-7336J-16299*
G01*
X1258799Y334836D02*
X1251464Y327500D01*
X1258799Y320164D01*
G75*
D01*
G03X1258799Y334836I-16299J7336*
G01*
X1181201Y334836D02*
G75*
D01*
G03X1181201Y320164I16299J-7336*
G01*
X1188536Y327500D01*
X1181201Y334836D01*
X1539836Y313701D02*
X1532500Y321036D01*
X1525164Y313701D01*
G75*
D01*
G03X1539836Y313701I7336J16299*
G01*
X1440672Y313134D02*
G75*
D01*
G03X1444505Y288750I11828J-10634*
G01*
G75*
D01*
G03X1442665Y262500I7995J-13750*
G01*
G75*
D01*
G03X1442665Y237500I9835J-12500*
G01*
G75*
D01*
G03X1444505Y211250I9835J-12500*
G01*
G75*
D01*
G03X1442665Y185000I7995J-13750*
G01*
G75*
D01*
G03X1442665Y160000I9835J-12500*
G01*
G75*
D01*
G03X1462335Y160000I9835J-12500*
G01*
G75*
D01*
G03X1462335Y185000I-9835J12500*
G01*
G75*
D01*
G03X1460495Y211250I-9835J12500*
G01*
G75*
D01*
G03X1462335Y237500I-7995J13750*
G01*
G75*
D01*
G03X1462335Y262500I-9835J12500*
G01*
G75*
D01*
G03X1460495Y288750I-9835J12500*
G01*
G75*
D01*
G03X1459328Y316866I-7995J13750*
G01*
G75*
D01*
G03X1440672Y313134I-11828J10634*
G01*
X1217369Y315905D02*
G75*
D01*
G03X1207665Y287500I131J-15905*
G01*
G75*
D01*
G03X1207665Y262500I9835J-12500*
G01*
G75*
D01*
G03X1207665Y237500I9835J-12500*
G01*
G75*
D01*
G03X1207665Y212500I9835J-12500*
G01*
G75*
D01*
G03X1209505Y186250I9835J-12500*
G01*
G75*
D01*
G03X1207665Y160000I7995J-13750*
G01*
G75*
D01*
G03X1227335Y160000I9835J-12500*
G01*
G75*
D01*
G03X1225495Y186250I-9835J12500*
G01*
G75*
D01*
G03X1227335Y212500I-7995J13750*
G01*
G75*
D01*
G03X1227335Y237500I-9835J12500*
G01*
G75*
D01*
G03X1227335Y262500I-9835J12500*
G01*
G75*
D01*
G03X1227335Y287500I-9835J12500*
G01*
G75*
D01*
G03X1224036Y314501I-9835J12500*
G01*
X1220000Y318536D01*
X1217369Y315905D01*
X1204836Y311201D02*
X1197500Y318536D01*
X1190164Y311201D01*
G75*
D01*
G03X1204836Y311201I7336J16299*
G01*
X1249836Y311201D02*
X1242500Y318536D01*
X1235164Y311201D01*
G75*
D01*
G03X1249836Y311201I7336J16299*
G01*
X1022664Y243799D02*
X1030000Y236464D01*
X1037336Y243799D01*
G75*
D01*
G03X1022664Y243799I-7336J-16299*
G01*
X1816063Y175000D02*
G75*
D01*
G03X1816063Y175000I3937J0*
G01*
X1836299Y182336D02*
X1828964Y175000D01*
X1836299Y167664D01*
G75*
D01*
G03X1836299Y182336I-16299J7336*
G01*
X1812664Y191299D02*
X1820000Y183964D01*
X1827336Y191299D01*
G75*
D01*
G03X1812664Y191299I-7336J-16299*
G01*
X1776063Y175000D02*
G75*
D01*
G03X1776063Y175000I3937J0*
G01*
X1803701Y182336D02*
G75*
D01*
G03X1802271Y172729I16299J-7336*
G01*
G75*
D01*
G03X1797729Y172729I-2271J-17729*
G01*
G75*
D01*
G03X1796299Y182336I-17729J2271*
G01*
X1788964Y175000D01*
X1792664Y171299D01*
X1796299Y167664D01*
X1800000Y163964D01*
X1803701Y167664D01*
X1807336Y171299D01*
X1811036Y175000D01*
X1803701Y182336D01*
X1772664Y191299D02*
X1780000Y183964D01*
X1787336Y191299D01*
G75*
D01*
G03X1772664Y191299I-7336J-16299*
G01*
X1756299Y182336D02*
X1748964Y175000D01*
X1752664Y171299D01*
X1760000Y163964D01*
X1763701Y167664D01*
X1767336Y171299D01*
X1771036Y175000D01*
X1763701Y182336D01*
G75*
D01*
G03X1762271Y172729I16299J-7336*
G01*
G75*
D01*
G03X1757729Y172729I-2271J-17729*
G01*
G75*
D01*
G03X1756299Y182336I-17729J2271*
G01*
X1736063Y225000D02*
G75*
D01*
G03X1736063Y225000I3937J0*
G01*
X1747336Y208701D02*
X1740000Y216036D01*
X1732664Y208701D01*
G75*
D01*
G03X1747336Y208701I7336J16299*
G01*
X1756299Y232336D02*
X1748964Y225000D01*
X1756299Y217664D01*
G75*
D01*
G03X1756299Y232336I-16299J7336*
G01*
X1736063Y175000D02*
G75*
D01*
G03X1736063Y175000I3937J0*
G01*
X1732664Y191299D02*
X1740000Y183964D01*
X1747336Y191299D01*
G75*
D01*
G03X1732664Y191299I-7336J-16299*
G01*
X1732664Y241299D02*
X1740000Y233964D01*
X1747336Y241299D01*
G75*
D01*
G03X1732664Y241299I-7336J-16299*
G01*
X1723701Y232336D02*
G75*
D01*
G03X1723701Y217664I16299J-7336*
G01*
X1731036Y225000D01*
X1723701Y232336D01*
X1723701Y182336D02*
G75*
D01*
G03X1723701Y167664I16299J-7336*
G01*
X1731036Y175000D01*
X1723701Y182336D01*
X1116063Y170000D02*
G75*
D01*
G03X1116063Y170000I3937J0*
G01*
X1136299Y177336D02*
X1128964Y170000D01*
X1136299Y162664D01*
G75*
D01*
G03X1136299Y177336I-16299J7336*
G01*
X1112664Y186299D02*
X1120000Y178964D01*
X1127336Y186299D01*
G75*
D01*
G03X1112664Y186299I-7336J-16299*
G01*
X1046063Y207500D02*
G75*
D01*
G03X1046063Y207500I3937J0*
G01*
X1057336Y191201D02*
X1050000Y198536D01*
X1042664Y191201D01*
G75*
D01*
G03X1057336Y191201I7336J16299*
G01*
X1066299Y214836D02*
X1058964Y207500D01*
X1066299Y200164D01*
G75*
D01*
G03X1066299Y214836I-16299J7336*
G01*
X1046299Y234836D02*
X1038964Y227500D01*
X1042664Y223799D01*
X1046299Y220164D01*
X1050000Y216464D01*
X1057336Y223799D01*
G75*
D01*
G03X1047729Y225229I-7336J-16299*
G01*
G75*
D01*
G03X1046299Y234836I-17729J2271*
G01*
X1033701Y200164D02*
X1041036Y207500D01*
X1037336Y211201D01*
X1033701Y214836D01*
X1030000Y218536D01*
X1022664Y211201D01*
G75*
D01*
G03X1032271Y209771I7336J16299*
G01*
G75*
D01*
G03X1033701Y200164I17729J-2271*
G01*
X1026063Y227500D02*
G75*
D01*
G03X1026063Y227500I3937J0*
G01*
X1103701Y177336D02*
G75*
D01*
G03X1103701Y162664I16299J-7336*
G01*
X1111036Y170000D01*
X1103701Y177336D01*
X1013701Y234836D02*
G75*
D01*
G03X1013701Y220164I16299J-7336*
G01*
X1021036Y227500D01*
X1013701Y234836D01*
X941299Y197336D02*
X933964Y190000D01*
X941299Y182664D01*
G75*
D01*
G03X941299Y197336I-16299J7336*
G01*
X1816063Y135000D02*
G75*
D01*
G03X1816063Y135000I3937J0*
G01*
X1827336Y118701D02*
X1820000Y126036D01*
X1816299Y122336D01*
X1812664Y118701D01*
X1808964Y115000D01*
X1812664Y111299D01*
X1816299Y107664D01*
X1820000Y103964D01*
X1827336Y111299D01*
G75*
D01*
G03X1817729Y112729I-7336J-16299*
G01*
G75*
D01*
G03X1817729Y117271I-17729J2271*
G01*
G75*
D01*
G03X1827336Y118701I2271J17729*
G01*
X1836299Y142336D02*
X1828964Y135000D01*
X1836299Y127664D01*
G75*
D01*
G03X1836299Y142336I-16299J7336*
G01*
X1827336Y158701D02*
X1820000Y166036D01*
X1816299Y162336D01*
X1812664Y158701D01*
X1808964Y155000D01*
X1812664Y151299D01*
X1816299Y147664D01*
X1820000Y143964D01*
X1827336Y151299D01*
G75*
D01*
G03X1817729Y152729I-7336J-16299*
G01*
G75*
D01*
G03X1817729Y157271I-17729J2271*
G01*
G75*
D01*
G03X1827336Y158701I2271J17729*
G01*
X1816063Y95000D02*
G75*
D01*
G03X1816063Y95000I3937J0*
G01*
X1836299Y102336D02*
X1828964Y95000D01*
X1836299Y87664D01*
G75*
D01*
G03X1836299Y102336I-16299J7336*
G01*
X1847664Y86299D02*
X1855000Y78964D01*
X1862336Y86299D01*
G75*
D01*
G03X1847664Y86299I-7336J-16299*
G01*
X1756063Y115000D02*
G75*
D01*
G03X1756063Y115000I3937J0*
G01*
X1752664Y98701D02*
X1748964Y95000D01*
X1752664Y91299D01*
X1756299Y87664D01*
X1760000Y83964D01*
X1763701Y87664D01*
X1767336Y91299D01*
X1771036Y95000D01*
X1767336Y98701D01*
X1763701Y102336D01*
X1760000Y106036D01*
X1756299Y102336D01*
X1752664Y98701D01*
X1776299Y107664D02*
X1780000Y103964D01*
X1783701Y107664D01*
X1787336Y111299D01*
X1791036Y115000D01*
X1787336Y118701D01*
X1783701Y122336D01*
X1780000Y126036D01*
X1776299Y122336D01*
X1772664Y118701D01*
X1768964Y115000D01*
X1772664Y111299D01*
X1776299Y107664D01*
X1767336Y131299D02*
X1771036Y135000D01*
X1767336Y138701D01*
X1763701Y142336D01*
X1760000Y146036D01*
X1756299Y142336D01*
X1752664Y138701D01*
X1748964Y135000D01*
X1752664Y131299D01*
X1756299Y127664D01*
X1760000Y123964D01*
X1763701Y127664D01*
X1767336Y131299D01*
X1732664Y111299D02*
X1740000Y103964D01*
X1743701Y107664D01*
X1747336Y111299D01*
X1751036Y115000D01*
X1747336Y118701D01*
X1743701Y122336D01*
X1740000Y126036D01*
X1732664Y118701D01*
G75*
D01*
G03X1742271Y117271I7336J16299*
G01*
G75*
D01*
G03X1742271Y112729I17729J-2271*
G01*
G75*
D01*
G03X1732664Y111299I-2271J-17729*
G01*
X1776063Y135000D02*
G75*
D01*
G03X1776063Y135000I3937J0*
G01*
X1796299Y142336D02*
X1792664Y138701D01*
X1788964Y135000D01*
X1792664Y131299D01*
X1796299Y127664D01*
X1800000Y123964D01*
X1803701Y127664D01*
X1807336Y131299D01*
X1811036Y135000D01*
X1804679Y141358D01*
X1800000Y146036D01*
X1796299Y142336D01*
X1787336Y151299D02*
X1791036Y155000D01*
X1787336Y158701D01*
X1783701Y162336D01*
X1780000Y166036D01*
X1776299Y162336D01*
X1772664Y158701D01*
X1768964Y155000D01*
X1772664Y151299D01*
X1776299Y147664D01*
X1780000Y143964D01*
X1783701Y147664D01*
X1787336Y151299D01*
X1776063Y95000D02*
G75*
D01*
G03X1776063Y95000I3937J0*
G01*
X1796299Y87664D02*
X1800000Y83964D01*
X1803701Y87664D01*
X1807336Y91299D01*
X1811036Y95000D01*
X1807336Y98701D01*
X1803701Y102336D01*
X1800000Y106036D01*
X1796299Y102336D01*
X1792664Y98701D01*
X1788964Y95000D01*
X1792664Y91299D01*
X1796299Y87664D01*
X1796063Y115000D02*
G75*
D01*
G03X1796063Y115000I3937J0*
G01*
X1736063Y135000D02*
G75*
D01*
G03X1736063Y135000I3937J0*
G01*
X1732664Y151299D02*
X1740000Y143964D01*
X1743701Y147664D01*
X1747336Y151299D01*
X1751036Y155000D01*
X1747336Y158701D01*
X1743701Y162336D01*
X1740000Y166036D01*
X1732664Y158701D01*
G75*
D01*
G03X1742271Y157271I7336J16299*
G01*
G75*
D01*
G03X1742271Y152729I17729J-2271*
G01*
G75*
D01*
G03X1732664Y151299I-2271J-17729*
G01*
X1736063Y95000D02*
G75*
D01*
G03X1736063Y95000I3937J0*
G01*
X1796063Y155000D02*
G75*
D01*
G03X1796063Y155000I3937J0*
G01*
X1756063Y155000D02*
G75*
D01*
G03X1756063Y155000I3937J0*
G01*
X1723701Y142336D02*
G75*
D01*
G03X1723701Y127664I16299J-7336*
G01*
X1731036Y135000D01*
X1723701Y142336D01*
X1723701Y102336D02*
G75*
D01*
G03X1723701Y87664I16299J-7336*
G01*
X1731036Y95000D01*
X1723701Y102336D01*
X1695164Y86299D02*
X1702500Y78964D01*
X1709836Y86299D01*
G75*
D01*
G03X1695164Y86299I-7336J-16299*
G01*
X1606063Y120000D02*
G75*
D01*
G03X1606063Y120000I3937J0*
G01*
X1617336Y103701D02*
X1610000Y111036D01*
X1602664Y103701D01*
G75*
D01*
G03X1617336Y103701I7336J16299*
G01*
X1626299Y127336D02*
X1618964Y120000D01*
X1626299Y112664D01*
G75*
D01*
G03X1626299Y127336I-16299J7336*
G01*
X1602664Y136299D02*
X1610000Y128964D01*
X1617336Y136299D01*
G75*
D01*
G03X1602664Y136299I-7336J-16299*
G01*
X1593701Y127336D02*
G75*
D01*
G03X1593701Y112664I16299J-7336*
G01*
X1601036Y120000D01*
X1593701Y127336D01*
X1502664Y96299D02*
X1510000Y88964D01*
X1517336Y96299D01*
G75*
D01*
G03X1502664Y96299I-7336J-16299*
G01*
X1492126Y120000D02*
G75*
D01*
G03X1492126Y120000I17874J0*
G01*
X1127336Y153701D02*
X1120000Y161036D01*
X1112664Y153701D01*
G75*
D01*
G03X1127336Y153701I7336J16299*
G01*
X1065164Y96299D02*
X1072500Y88964D01*
X1079836Y96299D01*
G75*
D01*
G03X1065164Y96299I-7336J-16299*
G01*
X958563Y85000D02*
G75*
D01*
G03X958563Y85000I3937J0*
G01*
X955164Y101299D02*
X962500Y93964D01*
X969836Y101299D01*
G75*
D01*
G03X955164Y101299I-7336J-16299*
G01*
X1022126Y152500D02*
G75*
D01*
G03X1022126Y152500I17874J0*
G01*
X941299Y117336D02*
X933964Y110000D01*
X941299Y102664D01*
G75*
D01*
G03X941299Y117336I-16299J7336*
G01*
X941299Y157336D02*
X933964Y150000D01*
X941299Y142664D01*
G75*
D01*
G03X941299Y157336I-16299J7336*
G01*
X1851063Y70000D02*
G75*
D01*
G03X1851063Y70000I3937J0*
G01*
X1862336Y53701D02*
X1855000Y61036D01*
X1847664Y53701D01*
G75*
D01*
G03X1862336Y53701I7336J16299*
G01*
X1871299Y77336D02*
X1863964Y70000D01*
X1871299Y62664D01*
G75*
D01*
G03X1871299Y77336I-16299J7336*
G01*
X1838701Y77336D02*
G75*
D01*
G03X1838701Y62664I16299J-7336*
G01*
X1846036Y70000D01*
X1838701Y77336D01*
X1827336Y78701D02*
X1820000Y86036D01*
X1816299Y82336D01*
X1812664Y78701D01*
X1808964Y75000D01*
X1816299Y67664D01*
G75*
D01*
G03X1817729Y77271I-16299J7336*
G01*
G75*
D01*
G03X1827336Y78701I2271J17729*
G01*
X1807336Y58701D02*
X1800000Y66036D01*
X1792664Y58701D01*
G75*
D01*
G03X1807336Y58701I7336J16299*
G01*
X1767336Y58701D02*
X1760000Y66036D01*
X1752664Y58701D01*
G75*
D01*
G03X1767336Y58701I7336J16299*
G01*
X1783701Y67664D02*
X1791036Y75000D01*
X1787336Y78701D01*
X1783701Y82336D01*
X1780000Y86036D01*
X1776299Y82336D01*
X1772664Y78701D01*
X1768964Y75000D01*
X1776299Y67664D01*
G75*
D01*
G03X1777729Y77271I-16299J7336*
G01*
G75*
D01*
G03X1782271Y77271I2271J17729*
G01*
G75*
D01*
G03X1783701Y67664I17729J-2271*
G01*
X1732664Y78701D02*
G75*
D01*
G03X1742271Y77271I7336J16299*
G01*
G75*
D01*
G03X1743701Y67664I17729J-2271*
G01*
X1751036Y75000D01*
X1747336Y78701D01*
X1743701Y82336D01*
X1740000Y86036D01*
X1732664Y78701D01*
X1796063Y75000D02*
G75*
D01*
G03X1796063Y75000I3937J0*
G01*
X1756063Y75000D02*
G75*
D01*
G03X1756063Y75000I3937J0*
G01*
X1698563Y70000D02*
G75*
D01*
G03X1698563Y70000I3937J0*
G01*
X1709836Y53701D02*
X1702500Y61036D01*
X1695164Y53701D01*
G75*
D01*
G03X1709836Y53701I7336J16299*
G01*
X1718799Y77336D02*
X1711464Y70000D01*
X1718799Y62664D01*
G75*
D01*
G03X1718799Y77336I-16299J7336*
G01*
X1686201Y77336D02*
G75*
D01*
G03X1686201Y62664I16299J-7336*
G01*
X1693536Y70000D01*
X1686201Y77336D01*
X1517336Y63701D02*
X1510000Y71036D01*
X1502664Y63701D01*
G75*
D01*
G03X1517336Y63701I7336J16299*
G01*
X1506063Y80000D02*
G75*
D01*
G03X1506063Y80000I3937J0*
G01*
X1526299Y87336D02*
X1518964Y80000D01*
X1526299Y72664D01*
G75*
D01*
G03X1526299Y87336I-16299J7336*
G01*
X1557126Y82500D02*
G75*
D01*
G03X1557126Y82500I17874J0*
G01*
X1493701Y87336D02*
G75*
D01*
G03X1493701Y72664I16299J-7336*
G01*
X1501036Y80000D01*
X1493701Y87336D01*
X1079836Y63701D02*
X1072500Y71036D01*
X1065164Y63701D01*
G75*
D01*
G03X1079836Y63701I7336J16299*
G01*
X1068563Y80000D02*
G75*
D01*
G03X1068563Y80000I3937J0*
G01*
X1088799Y87336D02*
X1081464Y80000D01*
X1088799Y72664D01*
G75*
D01*
G03X1088799Y87336I-16299J7336*
G01*
X1056201Y87336D02*
G75*
D01*
G03X1056201Y72664I16299J-7336*
G01*
X1063536Y80000D01*
X1056201Y87336D01*
X969836Y68701D02*
X962500Y76036D01*
X955164Y68701D01*
G75*
D01*
G03X969836Y68701I7336J16299*
G01*
X978799Y92336D02*
X971464Y85000D01*
X978799Y77664D01*
G75*
D01*
G03X978799Y92336I-16299J7336*
G01*
X946201Y92336D02*
G75*
D01*
G03X946201Y77664I16299J-7336*
G01*
X953536Y85000D01*
X946201Y92336D01*
X1528563Y330000D02*
G75*
D01*
G03X1528563Y330000I3937J0*
G01*
X2345164Y251299D02*
X2352500Y243964D01*
X2359836Y251299D01*
G75*
D01*
G03X2345164Y251299I-7336J-16299*
G01*
X2307664Y251299D02*
X2315000Y243964D01*
X2322336Y251299D01*
G75*
D01*
G03X2307664Y251299I-7336J-16299*
G01*
X2270164Y251299D02*
X2277500Y243964D01*
X2284836Y251299D01*
G75*
D01*
G03X2270164Y251299I-7336J-16299*
G01*
X2766063Y225000D02*
G75*
D01*
G03X2766063Y225000I3937J0*
G01*
X2777336Y208701D02*
X2770000Y216036D01*
X2762664Y208701D01*
G75*
D01*
G03X2777336Y208701I7336J16299*
G01*
X2786299Y232336D02*
X2778964Y225000D01*
X2786299Y217664D01*
G75*
D01*
G03X2786299Y232336I-16299J7336*
G01*
X2762664Y241299D02*
X2770000Y233964D01*
X2777336Y241299D01*
G75*
D01*
G03X2762664Y241299I-7336J-16299*
G01*
X2731063Y175000D02*
G75*
D01*
G03X2731063Y175000I3937J0*
G01*
X2751299Y182336D02*
X2743964Y175000D01*
X2751299Y167664D01*
G75*
D01*
G03X2751299Y182336I-16299J7336*
G01*
X2727664Y191299D02*
X2735000Y183964D01*
X2742336Y191299D01*
G75*
D01*
G03X2727664Y191299I-7336J-16299*
G01*
X2718701Y182336D02*
G75*
D01*
G03X2718701Y167664I16299J-7336*
G01*
X2726036Y175000D01*
X2718701Y182336D01*
X2753701Y232336D02*
G75*
D01*
G03X2753701Y217664I16299J-7336*
G01*
X2761036Y225000D01*
X2753701Y232336D01*
X2331063Y220000D02*
G75*
D01*
G03X2331063Y220000I3937J0*
G01*
X2332666Y202279D02*
G74*
D01*
G03X2334858Y202127I2334J17721*
G01*
G74*
D01*
G03X2336201Y197664I17642J2873*
G01*
X2342158Y203622D01*
G74*
D01*
G03X2342336Y203701I7158J16378*
G01*
X2342286Y203750D01*
X2343536Y205000D01*
X2336201Y212336D01*
G74*
D01*
G03X2335504Y210533I16299J7336*
G01*
X2335000Y211036D01*
X2332517Y208554D01*
G74*
D01*
G03X2331299Y212336I17517J3554*
G01*
X2323964Y205000D01*
X2331299Y197664D01*
G74*
D01*
G03X2332666Y202279I16299J7336*
G01*
X2351996Y225533D02*
G74*
D01*
G03X2351299Y227336I16996J5533*
G01*
X2345342Y221378D01*
G74*
D01*
G03X2345164Y221299I7158J16378*
G01*
X2345214Y221250D01*
X2343964Y220000D01*
X2345214Y218750D01*
X2345164Y218701D01*
G74*
D01*
G03X2345342Y218622I7336J16299*
G01*
X2351299Y212664D01*
G74*
D01*
G03X2351996Y214467I16299J7336*
G01*
X2352500Y213964D01*
X2356010Y217474D01*
G74*
D01*
G03X2359836Y218701I3510J17526*
G01*
X2358536Y220000D01*
X2359836Y221299D01*
G74*
D01*
G03X2356010Y222526I7336J16299*
G01*
X2352500Y226036D01*
X2351996Y225533D01*
X2317483Y216446D02*
G74*
D01*
G03X2318701Y212664I17517J3554*
G01*
X2326036Y220000D01*
X2318701Y227336D01*
G74*
D01*
G03X2317483Y223554I16299J7336*
G01*
X2315000Y226036D01*
X2312517Y223554D01*
G74*
D01*
G03X2311299Y227336I17517J3554*
G01*
X2303964Y220000D01*
X2311299Y212664D01*
G74*
D01*
G03X2312517Y216446I16299J7336*
G01*
X2315000Y213964D01*
X2317483Y216446D01*
X2311063Y205000D02*
G75*
D01*
G03X2311063Y205000I3937J0*
G01*
X2322336Y188701D02*
X2315000Y196036D01*
X2307664Y188701D01*
G75*
D01*
G03X2322336Y188701I7336J16299*
G01*
X2297334Y202279D02*
G74*
D01*
G03X2298701Y197664I17666J2721*
G01*
X2306036Y205000D01*
X2298701Y212336D01*
G74*
D01*
G03X2297483Y208554I16299J7336*
G01*
X2295000Y211036D01*
X2294496Y210533D01*
G74*
D01*
G03X2293799Y212336I16996J5533*
G01*
X2286464Y205000D01*
X2287714Y203750D01*
X2287664Y203701D01*
G74*
D01*
G03X2287842Y203622I7336J16299*
G01*
X2293799Y197664D01*
G74*
D01*
G03X2295141Y202127I16299J7336*
G01*
G74*
D01*
G03X2297334Y202279I141J17873*
G01*
X2348563Y205000D02*
G75*
D01*
G03X2348563Y205000I3937J0*
G01*
X2359836Y188701D02*
X2352500Y196036D01*
X2345164Y188701D01*
G75*
D01*
G03X2359836Y188701I7336J16299*
G01*
X2291063Y220000D02*
G75*
D01*
G03X2291063Y220000I3937J0*
G01*
X2335504Y229467D02*
G74*
D01*
G03X2336201Y227664I16996J5533*
G01*
X2343536Y235000D01*
X2342286Y236250D01*
X2342336Y236299D01*
G74*
D01*
G03X2342158Y236378I7336J16299*
G01*
X2336201Y242336D01*
G74*
D01*
G03X2334858Y237873I16299J7336*
G01*
G74*
D01*
G03X2332666Y237721I142J17873*
G01*
G74*
D01*
G03X2331299Y242336I17666J2721*
G01*
X2323964Y235000D01*
X2331299Y227664D01*
G74*
D01*
G03X2332517Y231446I16299J7336*
G01*
X2335000Y228964D01*
X2335504Y229467D01*
X2368799Y212336D02*
X2361464Y205000D01*
X2368799Y197664D01*
G75*
D01*
G03X2368799Y212336I-16299J7336*
G01*
X2348563Y235000D02*
G75*
D01*
G03X2348563Y235000I3937J0*
G01*
X2368799Y242336D02*
X2361464Y235000D01*
X2368799Y227664D01*
G75*
D01*
G03X2368799Y242336I-16299J7336*
G01*
X2311063Y235000D02*
G75*
D01*
G03X2311063Y235000I3937J0*
G01*
X2297483Y231446D02*
G74*
D01*
G03X2298701Y227664I17517J3554*
G01*
X2306036Y235000D01*
X2298701Y242336D01*
G74*
D01*
G03X2297334Y237721I16299J7336*
G01*
G74*
D01*
G03X2295141Y237873I2334J17721*
G01*
G74*
D01*
G03X2293799Y242336I17641J2873*
G01*
X2287842Y236378D01*
G74*
D01*
G03X2287664Y236299I7158J16378*
G01*
X2287714Y236250D01*
X2286464Y235000D01*
X2293799Y227664D01*
G74*
D01*
G03X2294496Y229467I16299J7336*
G01*
X2295000Y228964D01*
X2297483Y231446D01*
X2273563Y205000D02*
G75*
D01*
G03X2273563Y205000I3937J0*
G01*
X2261201Y212336D02*
G75*
D01*
G03X2261201Y197664I16299J-7336*
G01*
X2268536Y205000D01*
X2261201Y212336D01*
X2206063Y181500D02*
G75*
D01*
G03X2206063Y181500I3937J0*
G01*
X2225090Y175374D02*
G75*
D01*
G03X2212379Y170157I-90J-17874*
G01*
X2210000Y172536D01*
X2202664Y165201D01*
G74*
D01*
G03X2208240Y163713I7336J16299*
G01*
G75*
D01*
G03X2226759Y175287I16760J-6213*
G01*
G75*
D01*
G03X2226299Y188836I-16759J6213*
G01*
X2218964Y181500D01*
X2225090Y175374D01*
X2284836Y218701D02*
X2284786Y218750D01*
X2286036Y220000D01*
X2284786Y221250D01*
X2284836Y221299D01*
G74*
D01*
G03X2284658Y221378I7336J16299*
G01*
X2278701Y227336D01*
G74*
D01*
G03X2278004Y225533I16299J7336*
G01*
X2277500Y226036D01*
X2273990Y222526D01*
G74*
D01*
G03X2270164Y221299I3510J17526*
G01*
X2271464Y220000D01*
X2270164Y218701D01*
G74*
D01*
G03X2273990Y217474I7336J16299*
G01*
X2277500Y213964D01*
X2278004Y214467D01*
G74*
D01*
G03X2278701Y212664I16996J5533*
G01*
X2284658Y218622D01*
G74*
D01*
G03X2284836Y218701I7158J16378*
G01*
X2284836Y188701D02*
X2277500Y196036D01*
X2270164Y188701D01*
G75*
D01*
G03X2284836Y188701I7336J16299*
G01*
X2273563Y235000D02*
G75*
D01*
G03X2273563Y235000I3937J0*
G01*
X2261201Y242336D02*
G75*
D01*
G03X2261201Y227664I16299J-7336*
G01*
X2268536Y235000D01*
X2261201Y242336D01*
X2146063Y181500D02*
G75*
D01*
G03X2146063Y181500I3937J0*
G01*
X2157336Y165201D02*
X2150000Y172536D01*
X2142664Y165201D01*
G75*
D01*
G03X2157336Y165201I7336J16299*
G01*
X2166299Y188836D02*
X2158964Y181500D01*
X2166299Y174164D01*
G75*
D01*
G03X2166299Y188836I-16299J7336*
G01*
X2142664Y197799D02*
X2150000Y190464D01*
X2157336Y197799D01*
G75*
D01*
G03X2142664Y197799I-7336J-16299*
G01*
X2133701Y188836D02*
G75*
D01*
G03X2133701Y174164I16299J-7336*
G01*
X2141036Y181500D01*
X2133701Y188836D01*
X2193701Y188836D02*
G75*
D01*
G03X2193701Y174164I16299J-7336*
G01*
X2201036Y181500D01*
X2193701Y188836D01*
X2202664Y197799D02*
X2210000Y190464D01*
X2217336Y197799D01*
G75*
D01*
G03X2202664Y197799I-7336J-16299*
G01*
X1946586Y218049D02*
G75*
D01*
G03X1950130Y196481I18414J-8049*
G01*
X2000130Y141481D01*
G74*
D01*
G03X2010737Y135361I14870J13519*
G01*
G75*
D01*
G03X2015000Y134903I4263J19639*
G01*
X2019969Y134903D01*
G75*
D01*
G03X2026956Y136145I31J20097*
G01*
G74*
D01*
G03X2034234Y140813I6956J18855*
G01*
X2089187Y195766D01*
G75*
D01*
G03X2075000Y230097I-14187J14234*
G01*
X1965027Y230097D01*
G75*
D01*
G03X1947004Y218945I-27J-20097*
G01*
G75*
D01*
G03X1937729Y220229I-7004J-16445*
G01*
G75*
D01*
G03X1936299Y229836I-17729J2271*
G01*
X1928964Y222500D01*
X1932664Y218799D01*
X1936299Y215164D01*
X1940000Y211464D01*
X1946586Y218049D01*
X2087664Y163799D02*
X2095000Y156464D01*
X2102336Y163799D01*
G75*
D01*
G03X2087664Y163799I-7336J-16299*
G01*
X2091063Y147500D02*
G75*
D01*
G03X2091063Y147500I3937J0*
G01*
X2098004Y135533D02*
X2095000Y138536D01*
X2087664Y131201D01*
G75*
D01*
G03X2097128Y129753I7336J16299*
G01*
G74*
D01*
G03X2098701Y122664I17872J247*
G01*
X2106036Y130000D01*
X2098701Y137336D01*
G74*
D01*
G03X2098004Y135533I16299J7336*
G01*
X2078701Y154836D02*
G75*
D01*
G03X2078701Y140164I16299J-7336*
G01*
X2086036Y147500D01*
X2078701Y154836D01*
X1947336Y186201D02*
X1940000Y193536D01*
X1932664Y186201D01*
G75*
D01*
G03X1947336Y186201I7336J16299*
G01*
X1916063Y222500D02*
G75*
D01*
G03X1916063Y222500I3937J0*
G01*
X1912664Y206201D02*
G75*
D01*
G03X1922271Y204771I7336J16299*
G01*
G75*
D01*
G03X1923701Y195164I17729J-2271*
G01*
X1931036Y202500D01*
X1927336Y206201D01*
X1923701Y209836D01*
X1920000Y213536D01*
X1912664Y206201D01*
X1903701Y229836D02*
G75*
D01*
G03X1903701Y215164I16299J-7336*
G01*
X1911036Y222500D01*
X1903701Y229836D01*
X1936063Y202500D02*
G75*
D01*
G03X1936063Y202500I3937J0*
G01*
X1912664Y238799D02*
X1920000Y231464D01*
X1927336Y238799D01*
G75*
D01*
G03X1912664Y238799I-7336J-16299*
G01*
X2742336Y158701D02*
X2735000Y166036D01*
X2727664Y158701D01*
G75*
D01*
G03X2742336Y158701I7336J16299*
G01*
X2651063Y122500D02*
G75*
D01*
G03X2651063Y122500I3937J0*
G01*
X2662336Y106201D02*
X2655000Y113536D01*
X2647664Y106201D01*
G75*
D01*
G03X2662336Y106201I7336J16299*
G01*
X2671299Y129836D02*
X2663964Y122500D01*
X2671299Y115164D01*
G75*
D01*
G03X2671299Y129836I-16299J7336*
G01*
X2651996Y134467D02*
X2655000Y131464D01*
X2662336Y138799D01*
G75*
D01*
G03X2652872Y140247I-7336J-16299*
G01*
G74*
D01*
G03X2651299Y147336I17872J247*
G01*
X2643964Y140000D01*
X2651299Y132664D01*
G74*
D01*
G03X2651996Y134467I16299J7336*
G01*
X2638004Y128033D02*
X2635000Y131036D01*
X2627664Y123701D01*
G75*
D01*
G03X2637128Y122253I7336J16299*
G01*
G74*
D01*
G03X2638701Y115164I17872J247*
G01*
X2646036Y122500D01*
X2638701Y129836D01*
G74*
D01*
G03X2638004Y128033I16299J7336*
G01*
X2631063Y140000D02*
G75*
D01*
G03X2631063Y140000I3937J0*
G01*
X2618701Y147336D02*
G75*
D01*
G03X2618701Y132664I16299J-7336*
G01*
X2626036Y140000D01*
X2618701Y147336D01*
X2627664Y156299D02*
X2635000Y148964D01*
X2642336Y156299D01*
G75*
D01*
G03X2627664Y156299I-7336J-16299*
G01*
X2111996Y141967D02*
X2115000Y138964D01*
X2122336Y146299D01*
G75*
D01*
G03X2112872Y147747I-7336J-16299*
G01*
G74*
D01*
G03X2111299Y154836I17872J247*
G01*
X2103964Y147500D01*
X2111299Y140164D01*
G74*
D01*
G03X2111996Y141967I16299J7336*
G01*
X2111063Y130000D02*
G75*
D01*
G03X2111063Y130000I3937J0*
G01*
X2122336Y113701D02*
X2115000Y121036D01*
X2107664Y113701D01*
G75*
D01*
G03X2122336Y113701I7336J16299*
G01*
X2131299Y137336D02*
X2123964Y130000D01*
X2131299Y122664D01*
G75*
D01*
G03X2131299Y137336I-16299J7336*
G01*
X1987664Y91299D02*
X1995000Y83964D01*
X2002336Y91299D01*
G75*
D01*
G03X1987664Y91299I-7336J-16299*
G01*
X2099626Y85000D02*
G75*
D01*
G03X2099626Y85000I17874J0*
G01*
X2002336Y58701D02*
X1995000Y66036D01*
X1987664Y58701D01*
G75*
D01*
G03X2002336Y58701I7336J16299*
G01*
X1991063Y75000D02*
G75*
D01*
G03X1991063Y75000I3937J0*
G01*
X2011299Y82336D02*
X2003964Y75000D01*
X2011299Y67664D01*
G75*
D01*
G03X2011299Y82336I-16299J7336*
G01*
X1978701Y82336D02*
G75*
D01*
G03X1978701Y67664I16299J-7336*
G01*
X1986036Y75000D01*
X1978701Y82336D01*
X3921935Y378628D02*
X3921935Y15073D01*
X15073Y15073D01*
X15073Y378628D01*
X3921935Y378628D01*
X862729Y112271D02*
G75*
D01*
G02X862729Y107729I-17729J-2271*
G01*
G75*
D01*
G02X867271Y107729I2271J-17729*
G01*
G75*
D01*
G02X867271Y112271I17729J2271*
G01*
G75*
D01*
G02X862729Y112271I-2271J17729*
G01*
X862729Y152271D02*
G75*
D01*
G02X862729Y147729I-17729J-2271*
G01*
G75*
D01*
G02X867271Y147729I2271J-17729*
G01*
G75*
D01*
G02X867271Y152271I17729J2271*
G01*
G75*
D01*
G02X862729Y152271I-2271J17729*
G01*
X902729Y152271D02*
G75*
D01*
G02X902729Y147729I-17729J-2271*
G01*
G75*
D01*
G02X907271Y147729I2271J-17729*
G01*
G75*
D01*
G02X907271Y152271I17729J2271*
G01*
G75*
D01*
G02X902729Y152271I-2271J17729*
G01*
X882729Y127729D02*
G75*
D01*
G03X882729Y132271I-17729J2271*
G01*
G75*
D01*
G03X887271Y132271I2271J17729*
G01*
G75*
D01*
G03X887271Y127729I17729J-2271*
G01*
G75*
D01*
G03X882729Y127729I-2271J-17729*
G01*
X907271Y107729D02*
G75*
D01*
G03X902729Y107729I-2271J-17729*
G01*
G75*
D01*
G03X902729Y112271I-17729J2271*
G01*
G75*
D01*
G03X907271Y112271I2271J17729*
G01*
G75*
D01*
G03X907271Y107729I17729J-2271*
G01*
X1797729Y132729D02*
G75*
D01*
G02X1802271Y132729I2271J-17729*
G01*
G75*
D01*
G02X1802271Y137271I17729J2271*
G01*
G75*
D01*
G02X1797729Y137271I-2271J17729*
G01*
G75*
D01*
G02X1797729Y132729I-17729J-2271*
G01*
X1777729Y152729D02*
G75*
D01*
G03X1777729Y157271I-17729J2271*
G01*
G75*
D01*
G03X1782271Y157271I2271J17729*
G01*
G75*
D01*
G03X1782271Y152729I17729J-2271*
G01*
G75*
D01*
G03X1777729Y152729I-2271J-17729*
G01*
X1797729Y97271D02*
G75*
D01*
G03X1802271Y97271I2271J17729*
G01*
G75*
D01*
G03X1802271Y92729I17729J-2271*
G01*
G75*
D01*
G03X1797729Y92729I-2271J-17729*
G01*
G75*
D01*
G03X1797729Y97271I-17729J2271*
G01*
X1762271Y97271D02*
G75*
D01*
G03X1762271Y92729I17729J-2271*
G01*
G75*
D01*
G03X1757729Y92729I-2271J-17729*
G01*
G75*
D01*
G03X1757729Y97271I-17729J2271*
G01*
G75*
D01*
G03X1762271Y97271I2271J17729*
G01*
X1777729Y117271D02*
G75*
D01*
G03X1782271Y117271I2271J17729*
G01*
G75*
D01*
G03X1782271Y112729I17729J-2271*
G01*
G75*
D01*
G03X1777729Y112729I-2271J-17729*
G01*
G75*
D01*
G03X1777729Y117271I-17729J2271*
G01*
X1757729Y132729D02*
G75*
D01*
G03X1757729Y137271I-17729J2271*
G01*
G75*
D01*
G03X1762271Y137271I2271J17729*
G01*
G75*
D01*
G03X1762271Y132729I17729J-2271*
G01*
G75*
D01*
G03X1757729Y132729I-2271J-17729*
G01*
X2892271Y147729D02*
G75*
D01*
G02X2892271Y152271I17729J2271*
G01*
G75*
D01*
G02X2887729Y152271I-2271J17729*
G01*
G75*
D01*
G02X2887729Y147729I-17729J-2271*
G01*
G75*
D01*
G02X2892271Y147729I2271J-17729*
G01*
X2932271Y147729D02*
G75*
D01*
G02X2932271Y152271I17729J2271*
G01*
G75*
D01*
G02X2927729Y152271I-2271J17729*
G01*
G75*
D01*
G02X2927729Y147729I-17729J-2271*
G01*
G75*
D01*
G02X2932271Y147729I2271J-17729*
G01*
X80000Y191394D02*
G74*
D01*
G03X74543Y196850I25000J19544*
G01*
G74*
D01*
G03X80000Y202307I19543J25000*
G01*
G74*
D01*
G03X85457Y196850I25000J19543*
G01*
G74*
D01*
G03X80000Y191394I19543J25000*
G01*
X124543Y196850D02*
G74*
D01*
G03X130000Y202307I19543J25000*
G01*
G74*
D01*
G03X135457Y196850I25000J19543*
G01*
G74*
D01*
G03X130000Y191394I19543J25000*
G01*
G74*
D01*
G03X124543Y196850I25000J19544*
G01*
X230000Y202307D02*
G74*
D01*
G03X235457Y196850I25000J19543*
G01*
G74*
D01*
G03X230000Y191394I19543J25000*
G01*
G74*
D01*
G03X224543Y196850I25000J19544*
G01*
G74*
D01*
G03X230000Y202307I19543J25000*
G01*
X185457Y196850D02*
G74*
D01*
G03X180000Y191394I19543J25000*
G01*
G74*
D01*
G03X174543Y196850I25000J19544*
G01*
G74*
D01*
G03X180000Y202307I19543J25000*
G01*
G74*
D01*
G03X185457Y196850I25000J19543*
G01*
X330000Y202307D02*
G74*
D01*
G03X335457Y196850I25000J19543*
G01*
G74*
D01*
G03X330000Y191394I19543J25000*
G01*
G74*
D01*
G03X324543Y196850I25000J19544*
G01*
G74*
D01*
G03X330000Y202307I19543J25000*
G01*
X280000Y202307D02*
G74*
D01*
G03X285457Y196850I25000J19543*
G01*
G74*
D01*
G03X280000Y191394I19543J25000*
G01*
G74*
D01*
G03X274543Y196850I25000J19544*
G01*
G74*
D01*
G03X280000Y202307I19543J25000*
G01*
X887271Y172271D02*
G75*
D01*
G03X887271Y167729I17729J-2271*
G01*
G75*
D01*
G03X882729Y167729I-2271J-17729*
G01*
G75*
D01*
G03X882729Y172271I-17729J2271*
G01*
G75*
D01*
G03X887271Y172271I2271J17729*
G01*
X2907729Y172271D02*
G75*
D01*
G03X2912271Y172271I2271J17729*
G01*
G75*
D01*
G03X2912271Y167729I17729J-2271*
G01*
G75*
D01*
G03X2907729Y167729I-2271J-17729*
G01*
G75*
D01*
G03X2907729Y172271I-17729J2271*
G01*
X2907729Y207729D02*
G75*
D01*
G03X2907729Y212271I-17729J2271*
G01*
G75*
D01*
G03X2912271Y212271I2271J17729*
G01*
G75*
D01*
G03X2912271Y207729I17729J-2271*
G01*
G75*
D01*
G03X2907729Y207729I-2271J-17729*
G01*
X2887729Y192271D02*
G75*
D01*
G02X2887729Y187729I-17729J-2271*
G01*
G75*
D01*
G02X2892271Y187729I2271J-17729*
G01*
G75*
D01*
G02X2892271Y192271I17729J2271*
G01*
G75*
D01*
G02X2887729Y192271I-2271J17729*
G01*
X2932271Y187729D02*
G75*
D01*
G03X2927729Y187729I-2271J-17729*
G01*
G75*
D01*
G03X2927729Y192271I-17729J2271*
G01*
G75*
D01*
G03X2932271Y192271I2271J17729*
G01*
G75*
D01*
G03X2932271Y187729I17729J-2271*
G01*
G54D13*
X-10000Y-10000D02*
X-10000Y31370D01*
X-10000Y-10000D02*
X385701Y-10000D01*
X3947008Y-10000D02*
X3551307Y-10000D01*
X3947008Y-10000D02*
X3947008Y31370D01*
X3947008Y403701D02*
X3947008Y362331D01*
X3947008Y403701D02*
X3551307Y403701D01*
X-10000Y403701D02*
X385701Y403701D01*
X-10000Y403701D02*
X-10000Y362331D01*
X-206850Y-10000D02*
X-600551Y-10000D01*
X-403701Y-206850D02*
X-403701Y186850D01*
X-551339Y-10000D02*
G75*
D01*
G02X-551339Y-10000I147638J0*
G01*
X4143858Y-10000D02*
X4537559Y-10000D01*
X4340709Y-206850D02*
X4340709Y186850D01*
X4193071Y-10000D02*
G75*
D01*
G02X4193071Y-10000I147638J0*
G01*
X4291496Y-10000D02*
G75*
D01*
G02X4291496Y-10000I49213J0*
G01*
X-206850Y403701D02*
X-600551Y403701D01*
X-403701Y206850D02*
X-403701Y600551D01*
X-551339Y403701D02*
G75*
D01*
G02X-551339Y403701I147638J0*
G01*
X-502126Y403701D02*
G75*
D01*
G02X-502126Y403701I98425J0*
G01*
X-452913Y403701D02*
G75*
D01*
G02X-452913Y403701I49212J0*
G01*
X-10000Y-10000D02*
X-10000Y31370D01*
X-10000Y-10000D02*
X385701Y-10000D01*
X3947008Y-10000D02*
X3551307Y-10000D01*
X3947008Y-10000D02*
X3947008Y31370D01*
X3947008Y403701D02*
X3947008Y362331D01*
X3947008Y403701D02*
X3551307Y403701D01*
X-10000Y403701D02*
X385701Y403701D01*
X-10000Y403701D02*
X-10000Y362331D01*
X-206850Y-10000D02*
X-600551Y-10000D01*
X-403701Y-206850D02*
X-403701Y186850D01*
X-551339Y-10000D02*
G75*
D01*
G02X-551339Y-10000I147638J0*
G01*
X4143858Y-10000D02*
X4537559Y-10000D01*
X4340709Y-206850D02*
X4340709Y186850D01*
X4193071Y-10000D02*
G75*
D01*
G02X4193071Y-10000I147638J0*
G01*
X4291496Y-10000D02*
G75*
D01*
G02X4291496Y-10000I49213J0*
G01*
X-206850Y403701D02*
X-600551Y403701D01*
X-403701Y206850D02*
X-403701Y600551D01*
X-551339Y403701D02*
G75*
D01*
G02X-551339Y403701I147638J0*
G01*
X-502126Y403701D02*
G75*
D01*
G02X-502126Y403701I98425J0*
G01*
X-452913Y403701D02*
G75*
D01*
G02X-452913Y403701I49212J0*
G01*
G54D14*
X0Y0D02*
X3937008Y0D01*
X3937008Y393701D01*
X0Y393701D01*
X0Y0D01*
G54D15*
X837500Y-170000D03*
X877500Y-170000D03*
X857500Y-190000D03*
X897500Y-190000D03*
X877500Y-130000D03*
X857500Y-150000D03*
X837500Y-130000D03*
X897500Y-150000D03*
X2150000Y181500D03*
X2210000Y181500D03*
X2067500Y205000D03*
X1970000Y205000D03*
X2017500Y162500D03*
X675000Y97500D03*
X1575000Y82500D03*
X2225000Y157500D03*
X2117500Y85000D03*
X1510000Y120000D03*
X1040000Y152500D03*
X3692500Y300000D03*
X3750000Y237500D03*
X3600000Y100000D03*
X1197500Y327500D03*
X1242500Y327500D03*
X1220000Y327500D03*
X2832500Y125000D03*
X2985000Y125000D03*
X2870000Y150000D03*
X2910000Y150000D03*
X2890000Y130000D03*
X2950000Y150000D03*
X2930000Y130000D03*
X2870000Y230000D03*
X2910000Y230000D03*
X2910000Y190000D03*
X2890000Y170000D03*
X2870000Y190000D03*
X2890000Y210000D03*
X2950000Y230000D03*
X2930000Y170000D03*
X2930000Y210000D03*
X2950000Y190000D03*
X2770000Y225000D03*
X2735000Y175000D03*
X3065000Y272500D03*
X3045000Y292500D03*
X3062500Y155000D03*
X807500Y85000D03*
X962500Y85000D03*
X865000Y90000D03*
X905000Y90000D03*
X865000Y130000D03*
X845000Y150000D03*
X845000Y110000D03*
X925000Y150000D03*
X885000Y150000D03*
X905000Y130000D03*
X885000Y110000D03*
X925000Y110000D03*
X865000Y170000D03*
X845000Y190000D03*
X905000Y170000D03*
X885000Y190000D03*
X925000Y190000D03*
X735000Y225000D03*
X705000Y135000D03*
X1030000Y227500D03*
X1050000Y207500D03*
X1072500Y80000D03*
X1702500Y70000D03*
X1855000Y70000D03*
X1760000Y75000D03*
X1800000Y75000D03*
X1740000Y95000D03*
X1740000Y135000D03*
X1820000Y95000D03*
X1760000Y155000D03*
X1800000Y155000D03*
X1800000Y115000D03*
X1820000Y135000D03*
X1780000Y95000D03*
X1780000Y135000D03*
X1760000Y115000D03*
X1740000Y175000D03*
X1820000Y175000D03*
X1780000Y175000D03*
X1740000Y225000D03*
X1610000Y120000D03*
X1940000Y202500D03*
X1920000Y222500D03*
X1995000Y75000D03*
X3185000Y197500D03*
X3185000Y215000D03*
X3167500Y220000D03*
X3167500Y202500D03*
X2115000Y130000D03*
X2095000Y147500D03*
X2635000Y140000D03*
X2655000Y122500D03*
X3387500Y155000D03*
X1532500Y330000D03*
X580000Y167500D03*
X600000Y150000D03*
X2277500Y235000D03*
X2277500Y205000D03*
X2315000Y235000D03*
X2352500Y235000D03*
X2352500Y205000D03*
X2295000Y220000D03*
X2315000Y205000D03*
X2335000Y220000D03*
X3370000Y155000D03*
X3210000Y145000D03*
X3345000Y205000D03*
X3485000Y145000D03*
X3120000Y245000D03*
X3295000Y275000D03*
X1510000Y80000D03*
X1120000Y170000D03*
G54D16*
X947500Y-132500D03*
X1447500Y327500D03*
X1217500Y250000D03*
X1217500Y225000D03*
X1217500Y200000D03*
X1217500Y172500D03*
X1217500Y275000D03*
X1217500Y300000D03*
X1217500Y147500D03*
X1452500Y275000D03*
X3312500Y175000D03*
X1452500Y147500D03*
X3315000Y60000D03*
X1452500Y302500D03*
X3347500Y110000D03*
X1452500Y172500D03*
X3337500Y57500D03*
X1452500Y197500D03*
X3297500Y100000D03*
X1452500Y225000D03*
X3387500Y60000D03*
X1452500Y250000D03*
X3362500Y95000D03*
G54D17*
X305000Y171850D03*
X255000Y171850D03*
X355000Y171850D03*
X155000Y171850D03*
X55000Y171850D03*
X105000Y171850D03*
X355000Y221850D03*
X305000Y221850D03*
X255000Y221850D03*
X205000Y221850D03*
X155000Y221850D03*
X105000Y221850D03*
X55000Y221850D03*
X205000Y171850D03*
X505000Y221850D03*
X455000Y221850D03*
X405000Y221850D03*
X405000Y171850D03*
X455000Y171850D03*
X505000Y171850D03*
G54D18*
X3831210Y238994D03*
X3768994Y301210D03*
X3618790Y151006D03*
X3681006Y88790D03*

M02*
