G04 Generated by Ultiboard 14.2 *
%FSLAX46Y46*%
%MOIN*%

%ADD10C,0.000001*%
%ADD11C,0.000050*%
%ADD12C,0.005000*%
%ADD13C,0.010000*%
%ADD14C,0.020000*%
%ADD15C,0.015000*%
%ADD16C,0.050000*%
%ADD17C,0.030000*%
%ADD18C,0.007000*%
%ADD19C,0.040000*%
%ADD20C,0.000039*%
%ADD21C,0.015748*%
%ADD22C,0.011811*%
%ADD23R,0.039370X0.037402*%
%ADD24C,0.033465*%
%ADD25C,0.047244*%
%ADD26R,0.018110X0.016535*%
%ADD27R,0.022835X0.025984*%
%ADD28R,0.025984X0.022835*%
%ADD29R,0.059055X0.013780*%
%ADD30C,0.003937*%
%ADD31R,0.016535X0.018110*%
%ADD32R,0.031496X0.011811*%
%ADD33R,0.106299X0.122047*%
%ADD34R,0.080709X0.037402*%
%ADD35C,0.009843*%
%ADD36R,0.074803X0.015748*%
%ADD37C,0.070866*%
%ADD38R,0.059055X0.039370*%
%ADD39C,0.007874*%
%ADD40R,0.037402X0.041339*%
%ADD41P,0.032293X4*%
%ADD42P,0.010022X4X30*%
%ADD43P,0.016703X4X30*%


G04 ColorRGB 008000 for the following layer *
%LNCopper Top*%
%LPD*%
G54D10*
G36*
X1880354Y185518D02*
X1880354Y185518D01*
X1799646Y185518D01*
G75*
D01*
G02X1790810Y188398I0J14994*
G01*
X1790810Y188398D01*
X1815292Y163916D01*
X1845260Y154482D01*
X1880354Y154482D01*
G74*
D01*
G02X1890012Y150957I0J14994*
G01*
X1890012Y150957D01*
X1899505Y150957D01*
G75*
D01*
G02X1948465Y188551I48960J-13083*
G01*
X1948465Y188551D01*
X2023268Y188551D01*
G74*
D01*
G02X2049534Y181213I0J50677*
G01*
X2049534Y181213D01*
X2049534Y208740D01*
G75*
D01*
G02X2064606Y223813I15072J0*
G01*
X2064606Y223813D01*
X2123661Y223813D01*
G74*
D01*
G02X2138734Y208740I0J15073*
G01*
X2138734Y208740D01*
X2138734Y169370D01*
G75*
D01*
G02X2135077Y159528I-15073J0*
G01*
G74*
D01*
G02X2138028Y154244I11416J9843*
G01*
G75*
D01*
G02X2150315Y163133I12287J-4047*
G01*
X2150315Y163133D01*
X2189685Y163133D01*
G74*
D01*
G02X2202621Y150197I0J12936*
G01*
X2202621Y150197D01*
X2202621Y112795D01*
G75*
D01*
G02X2191590Y100000I-12936J0*
G01*
G74*
D01*
G02X2202621Y87205I1905J12795*
G01*
X2202621Y87205D01*
X2202621Y85099D01*
X2218156Y80097D01*
X2598813Y80097D01*
G74*
D01*
G02X2601593Y79904I0J20097*
G01*
G74*
D01*
G02X2621484Y71664I2780J34841*
G01*
G74*
D01*
G02X2623585Y69836I12109J16039*
G01*
X2623585Y69836D01*
X2689194Y4227D01*
G74*
D01*
G02X2689210Y4211I14194J14227*
G01*
X2689210Y4211D01*
X2729202Y-35781D01*
G74*
D01*
G02X2729210Y-35789I14202J14219*
G01*
X2729210Y-35789D01*
X2735047Y-41626D01*
G74*
D01*
G02X2735223Y-41800I14035J14386*
G01*
G75*
D01*
G03X2794010Y-66150I58787J58787*
G01*
G74*
D01*
G02X2794258Y-66152I0J20098*
G01*
X2794258Y-66152D01*
X2867039Y-66152D01*
G74*
D01*
G02X2861098Y-62766I3206J12533*
G01*
X2861098Y-62766D01*
X2844951Y-46620D01*
G75*
D01*
G02X2844951Y-28325I9148J9147*
G01*
X2844951Y-28325D01*
X2863325Y-9952D01*
G75*
D01*
G02X2881620Y-9952I9147J-9147*
G01*
X2881620Y-9952D01*
X2897766Y-26098D01*
G74*
D01*
G02X2901186Y-32176I9147J9147*
G01*
X2901186Y-32176D01*
X2906967Y-26894D01*
X2946361Y12500D01*
G74*
D01*
G02X2936963Y17772I3639J17500*
G01*
X2936963Y17772D01*
X2936028Y18084D01*
G75*
D01*
G02X2934397Y41242I3972J11916*
G01*
X2934397Y41242D01*
X2937535Y42811D01*
G74*
D01*
G02X2938003Y43250I12465J12811*
G01*
X2938003Y43250D01*
X2937467Y43393D01*
G74*
D01*
G02X2932654Y45965I3113J11617*
G01*
G75*
D01*
G02X2927200Y46144I-2342J11796*
G01*
X2927200Y46144D01*
X2924603Y46840D01*
X2907371Y29608D01*
X2896046Y6989D01*
G74*
D01*
G02X2894854Y5057I11241J5605*
G01*
G75*
D01*
G02X2864299Y6459I-14854J9943*
G01*
X2864299Y6459D01*
X2849889Y-14999D01*
G74*
D01*
G02X2848473Y-16746I10428J7003*
G01*
G75*
D01*
G02X2823253Y8472I-13473J11746*
G01*
G74*
D01*
G02X2825014Y9897I8751J9011*
G01*
X2825014Y9897D01*
X2841461Y20942D01*
G75*
D01*
G02X2841631Y49189I11039J14058*
G01*
G74*
D01*
G02X2843488Y50506I8162J9547*
G01*
X2843488Y50506D01*
X2865688Y63452D01*
X2866325Y64089D01*
X2877882Y80445D01*
X2878780Y83797D01*
G75*
D01*
G02X2893510Y92301I11617J-3113*
G01*
X2893510Y92301D01*
X2896552Y91485D01*
G74*
D01*
G02X2901365Y88914I3113J11616*
G01*
G75*
D01*
G02X2906820Y88734I2342J-11796*
G01*
X2906820Y88734D01*
X2909862Y87919D01*
G74*
D01*
G02X2914675Y85347I3113J11617*
G01*
G74*
D01*
G02X2914732Y85358I2342J11796*
G01*
X2914732Y85358D01*
X2912443Y96341D01*
G74*
D01*
G02X2912183Y98576I12296J2562*
G01*
G75*
D01*
G02X2947845Y98984I17817J1424*
G01*
G74*
D01*
G02X2947635Y96735I12560J40*
G01*
X2947635Y96735D01*
X2946646Y91378D01*
X2948766Y95617D01*
G75*
D01*
G02X2968338Y99394I11234J-5617*
G01*
G74*
D01*
G02X2979394Y88338I5838J16894*
G01*
G75*
D01*
G02X2977331Y69801I-9394J-8338*
G01*
G75*
D01*
G02X2984916Y55358I-4032J-11331*
G01*
X2984916Y55358D01*
X2983341Y49480D01*
X2988071Y54211D01*
G74*
D01*
G02X2994761Y58637I14211J14211*
G01*
X2994761Y58637D01*
X3010126Y85524D01*
G75*
D01*
G02X3009897Y95129I16241J5192*
G01*
X3009897Y95129D01*
X3012801Y105967D01*
G75*
D01*
G02X3033684Y118024I16470J-4413*
G01*
X3033684Y118024D01*
X3035987Y117407D01*
X3105399Y378628D01*
X15073Y378628D01*
X15073Y5073D01*
X2570000Y5073D01*
G74*
D01*
G02X2580678Y637I0J15073*
G01*
X2580678Y637D01*
X2886243Y-304927D01*
X3167064Y-304927D01*
X3528235Y56243D01*
X3528235Y378628D01*
X3358904Y378628D01*
X3248881Y178959D01*
X3139373Y-154542D01*
G74*
D01*
G02X3138685Y-156319I14373J4542*
G01*
G75*
D01*
G02X2971036Y-79285I-83753J38672*
G01*
X2971036Y-79285D01*
X3004157Y13454D01*
X2935387Y-55316D01*
X2928837Y-62485D01*
G75*
D01*
G02X2925048Y-71675I-12936J-42*
G01*
X2925048Y-71675D01*
X2906675Y-90048D01*
G74*
D01*
G02X2900780Y-93422I9148J9147*
G01*
X2900780Y-93422D01*
X2899575Y-94627D01*
G74*
D01*
G02X2899541Y-94661I14228J14194*
G01*
X2899541Y-94661D01*
X2897219Y-96982D01*
G74*
D01*
G02X2894916Y-98961I14210J14210*
G01*
G74*
D01*
G02X2877648Y-106115I20300J24582*
G01*
G74*
D01*
G02X2874616Y-106345I3032J19867*
G01*
X2874616Y-106345D01*
X2794258Y-106345D01*
G74*
D01*
G02X2794010Y-106347I248J20097*
G01*
G75*
D01*
G02X2706800Y-70223I0J123334*
G01*
G74*
D01*
G02X2706626Y-70047I14212J14211*
G01*
X2706626Y-70047D01*
X2660806Y-24227D01*
G74*
D01*
G02X2660789Y-24211I14194J14227*
G01*
X2660789Y-24211D01*
X2596676Y39903D01*
X2215028Y39903D01*
G75*
D01*
G02X2214972Y39903I-28J20097*
G01*
X2214972Y39903D01*
X2198012Y39903D01*
G74*
D01*
G02X2189685Y36867I8327J9900*
G01*
X2189685Y36867D01*
X2150315Y36867D01*
G75*
D01*
G02X2137877Y46249I0J12936*
G01*
G74*
D01*
G02X2123661Y36187I14216J5011*
G01*
X2123661Y36187D01*
X2064606Y36187D01*
G75*
D01*
G02X2051741Y43407I0J15073*
G01*
X2051741Y43407D01*
X1740017Y43407D01*
X1729431Y32821D01*
G74*
D01*
G02X1715197Y26911I14234J14187*
G01*
X1715197Y26911D01*
X1705000Y26911D01*
G75*
D01*
G02X1698760Y27904I0J20097*
G01*
X1698760Y27904D01*
X1691732Y27904D01*
G75*
D01*
G02X1681734Y36950I0J10049*
G01*
X1681734Y36950D01*
X1667006Y51678D01*
G74*
D01*
G02X1665997Y52794I10658J10658*
G01*
G74*
D01*
G02X1657026Y68004I30170J28045*
G01*
G74*
D01*
G02X1652047Y66684I4979J8728*
G01*
X1652047Y66684D01*
X1645431Y66684D01*
X1592449Y13702D01*
G74*
D01*
G02X1591106Y12536I8881J8882*
G01*
G74*
D01*
G02X1579105Y7566I13776J16285*
G01*
G74*
D01*
G02X1577330Y7440I1775J12434*
G01*
X1577330Y7440D01*
X380053Y7440D01*
G74*
D01*
G02X378433Y7336I1620J12560*
G01*
G75*
D01*
G02X247278Y61662I0J185480*
G01*
G74*
D01*
G02X246207Y62880I8956J8955*
G01*
X246207Y62880D01*
X173883Y135204D01*
X160617Y140619D01*
G75*
D01*
G02X130000Y152307I-5617J31231*
G01*
G75*
D01*
G02X80000Y152307I-25000J19543*
G01*
G75*
D01*
G02X35457Y196850I-25000J19543*
G01*
G75*
D01*
G02X80000Y241394I19543J25000*
G01*
G75*
D01*
G02X130000Y241394I25000J-19544*
G01*
G75*
D01*
G02X180000Y241394I25000J-19544*
G01*
G75*
D01*
G02X230000Y241394I25000J-19544*
G01*
G75*
D01*
G02X280000Y241394I25000J-19544*
G01*
G75*
D01*
G02X330000Y241394I25000J-19544*
G01*
G75*
D01*
G02X374543Y196850I25000J-19544*
G01*
G74*
D01*
G02X380000Y191394I19543J25000*
G01*
G75*
D01*
G02X430000Y191394I25000J-19544*
G01*
G75*
D01*
G02X480000Y191394I25000J-19544*
G01*
G75*
D01*
G02X480000Y152307I25000J-19544*
G01*
G75*
D01*
G02X430000Y152307I-25000J19543*
G01*
G75*
D01*
G02X380000Y152307I-25000J19543*
G01*
G75*
D01*
G02X330000Y152307I-25000J19543*
G01*
G75*
D01*
G02X280000Y152307I-25000J19543*
G01*
G75*
D01*
G02X254491Y140122I-25000J19543*
G01*
X254491Y140122D01*
X304063Y90550D01*
G74*
D01*
G02X305177Y89560I7829J9933*
G01*
G75*
D01*
G03X406362Y47648I101185J101185*
G01*
G74*
D01*
G02X407850Y47560I0J12648*
G01*
X407850Y47560D01*
X1228261Y47560D01*
G74*
D01*
G02X1224359Y48777I1739J12440*
G01*
X1224359Y48777D01*
X1209297Y56308D01*
G75*
D01*
G02X1196926Y69232I565J12924*
G01*
X1196926Y69232D01*
X1196926Y70871D01*
G74*
D01*
G02X1186371Y68046I12503J25585*
G01*
G74*
D01*
G02X1184423Y67920I1948J14946*
G01*
X1184423Y67920D01*
X1129388Y67920D01*
X1115306Y65781D01*
G74*
D01*
G02X1108268Y62904I7038J7172*
G01*
X1108268Y62904D01*
X1091732Y62904D01*
G75*
D01*
G02X1081684Y72953I0J10049*
G01*
X1081684Y72953D01*
X1081684Y91063D01*
G75*
D01*
G02X1091732Y101111I10048J0*
G01*
X1091732Y101111D01*
X1108268Y101111D01*
G74*
D01*
G02X1113784Y99462I0J10048*
G01*
G75*
D01*
G02X1111355Y107008I10507J7546*
G01*
X1111355Y107008D01*
X1111355Y132992D01*
G75*
D01*
G02X1124291Y145928I12936J0*
G01*
X1124291Y145928D01*
X1147126Y145928D01*
G74*
D01*
G02X1155000Y143256I0J12936*
G01*
G75*
D01*
G02X1162874Y145928I7874J-10264*
G01*
X1162874Y145928D01*
X1185709Y145928D01*
G74*
D01*
G02X1198639Y133389I0J12936*
G01*
X1198639Y133389D01*
X1203257Y131537D01*
G75*
D01*
G02X1209862Y133350I6605J-11124*
G01*
X1209862Y133350D01*
X1238264Y133350D01*
X1238264Y185374D01*
G75*
D01*
G02X1251201Y198310I12937J0*
G01*
X1251201Y198310D01*
X1357500Y198310D01*
G74*
D01*
G02X1368359Y192405I0J12936*
G01*
X1368359Y192405D01*
X1394903Y192405D01*
X1394903Y201676D01*
X1341676Y254903D01*
X1257317Y254903D01*
G74*
D01*
G02X1256667Y254893I650J20097*
G01*
G75*
D01*
G03X1191220Y227784I0J-92556*
G01*
G74*
D01*
G02X1190752Y227331I14218J14218*
G01*
X1190752Y227331D01*
X1068525Y105104D01*
G74*
D01*
G02X1058519Y99644I14234J14187*
G01*
G74*
D01*
G02X1060928Y92126I10527J7518*
G01*
X1060928Y92126D01*
X1060928Y69291D01*
G75*
D01*
G02X1047992Y56355I-12936J0*
G01*
X1047992Y56355D01*
X1022008Y56355D01*
G75*
D01*
G02X1009072Y69291I0J12936*
G01*
X1009072Y69291D01*
X1009072Y78452D01*
G74*
D01*
G02X1003701Y77186I5371J10761*
G01*
X1003701Y77186D01*
X944646Y77186D01*
G75*
D01*
G02X932619Y89213I0J12027*
G01*
X932619Y89213D01*
X932619Y102992D01*
G74*
D01*
G02X934169Y108898I12027J0*
G01*
G75*
D01*
G02X932619Y114803I10477J5905*
G01*
X932619Y114803D01*
X932619Y128583D01*
G74*
D01*
G02X934169Y134488I12027J0*
G01*
G75*
D01*
G02X932619Y140394I10477J5906*
G01*
X932619Y140394D01*
X932619Y154173D01*
G74*
D01*
G02X934169Y160079I12027J0*
G01*
G75*
D01*
G02X932619Y165984I10477J5905*
G01*
X932619Y165984D01*
X932619Y179764D01*
G74*
D01*
G02X934169Y185669I12027J0*
G01*
G75*
D01*
G02X932619Y191575I10477J5906*
G01*
X932619Y191575D01*
X932619Y205354D01*
G74*
D01*
G02X934169Y211260I12027J0*
G01*
G75*
D01*
G02X932619Y217165I10477J5905*
G01*
X932619Y217165D01*
X932619Y230945D01*
G74*
D01*
G02X934169Y236850I12027J0*
G01*
G75*
D01*
G02X932619Y242756I10477J5906*
G01*
X932619Y242756D01*
X932619Y256535D01*
G74*
D01*
G02X934169Y262441I12027J0*
G01*
G75*
D01*
G02X932619Y268346I10477J5905*
G01*
X932619Y268346D01*
X932619Y282126D01*
G74*
D01*
G02X934169Y288031I12027J0*
G01*
G75*
D01*
G02X932619Y293937I10477J5906*
G01*
X932619Y293937D01*
X932619Y307717D01*
G74*
D01*
G02X934169Y313622I12027J0*
G01*
G75*
D01*
G02X932619Y319528I10477J5906*
G01*
X932619Y319528D01*
X932619Y333307D01*
G75*
D01*
G02X944646Y345333I12027J0*
G01*
X944646Y345333D01*
X1003701Y345333D01*
G74*
D01*
G02X1010127Y343472I0J12026*
G01*
X1010127Y343472D01*
X1015273Y344748D01*
G75*
D01*
G02X1022953Y348316I7680J-6480*
G01*
X1022953Y348316D01*
X1041063Y348316D01*
G74*
D01*
G02X1045000Y347513I0J10048*
G01*
G75*
D01*
G02X1048937Y348316I3937J-9245*
G01*
X1048937Y348316D01*
X1067047Y348316D01*
G74*
D01*
G02X1077096Y338268I0J10048*
G01*
X1077096Y338268D01*
X1077096Y321732D01*
G75*
D01*
G02X1067047Y311684I-10049J0*
G01*
X1067047Y311684D01*
X1048937Y311684D01*
G75*
D01*
G02X1045000Y312487I0J10048*
G01*
G74*
D01*
G02X1041063Y311684I3937J9245*
G01*
X1041063Y311684D01*
X1032895Y311684D01*
G74*
D01*
G02X1032214Y311661I851J15048*
G01*
X1032214Y311661D01*
X1031455Y311652D01*
G74*
D01*
G02X1028425Y311345I3030J14765*
G01*
X1028425Y311345D01*
X1015167Y311345D01*
G74*
D01*
G02X1015727Y307717I11466J3628*
G01*
X1015727Y307717D01*
X1015727Y293937D01*
G75*
D01*
G02X1014177Y288031I-12026J0*
G01*
G74*
D01*
G02X1015727Y282126I10476J5905*
G01*
X1015727Y282126D01*
X1015727Y268346D01*
G75*
D01*
G02X1014177Y262441I-12026J0*
G01*
G74*
D01*
G02X1015727Y256535I10476J5906*
G01*
X1015727Y256535D01*
X1015727Y242756D01*
G75*
D01*
G02X1014177Y236850I-12026J0*
G01*
G74*
D01*
G02X1015727Y230945I10476J5905*
G01*
X1015727Y230945D01*
X1015727Y217165D01*
G75*
D01*
G02X1014177Y211260I-12026J0*
G01*
G74*
D01*
G02X1015727Y205354I10476J5906*
G01*
X1015727Y205354D01*
X1015727Y191575D01*
G75*
D01*
G02X1014177Y185669I-12026J0*
G01*
G74*
D01*
G02X1015727Y179764I10476J5905*
G01*
X1015727Y179764D01*
X1015727Y165984D01*
G75*
D01*
G02X1014177Y160079I-12026J0*
G01*
G74*
D01*
G02X1015727Y154173I10476J5906*
G01*
X1015727Y154173D01*
X1015727Y142018D01*
G75*
D01*
G02X1022008Y143645I6281J-11309*
G01*
X1022008Y143645D01*
X1047992Y143645D01*
G74*
D01*
G02X1050058Y143479I0J12936*
G01*
X1050058Y143479D01*
X1162332Y255753D01*
G74*
D01*
G02X1162784Y256220I14670J13751*
G01*
G75*
D01*
G02X1256667Y295107I93883J-93883*
G01*
G74*
D01*
G02X1257317Y295097I0J20107*
G01*
X1257317Y295097D01*
X1342340Y295097D01*
G74*
D01*
G02X1344909Y294932I0J20097*
G01*
G74*
D01*
G02X1367695Y285493I2569J38426*
G01*
G74*
D01*
G02X1369627Y283794I12278J15910*
G01*
X1369627Y283794D01*
X1422405Y231016D01*
G75*
D01*
G02X1435315Y243133I12910J-819*
G01*
X1435315Y243133D01*
X1474685Y243133D01*
G74*
D01*
G02X1487621Y230197I0J12936*
G01*
X1487621Y230197D01*
X1487621Y192795D01*
G75*
D01*
G02X1487482Y190903I-12936J0*
G01*
X1487482Y190903D01*
X1509903Y213324D01*
X1509903Y255417D01*
G74*
D01*
G02X1510146Y258528I20097J0*
G01*
G74*
D01*
G02X1517001Y275079I30919J3111*
G01*
G74*
D01*
G02X1519030Y277451I16240J11838*
G01*
X1519030Y277451D01*
X1569123Y327544D01*
G74*
D01*
G02X1569629Y328032I14210J14211*
G01*
G74*
D01*
G02X1647011Y360084I78083J79078*
G01*
G75*
D01*
G02X1647712Y360097I701J-20084*
G01*
X1647712Y360097D01*
X2613365Y360097D01*
X2623352Y360322D01*
G75*
D01*
G02X2632008Y363645I8656J-9613*
G01*
X2632008Y363645D01*
X2657992Y363645D01*
G74*
D01*
G02X2667169Y359826I0J12936*
G01*
X2667169Y359826D01*
X2676870Y359388D01*
X2678346Y359388D01*
X2684647Y359526D01*
G75*
D01*
G02X2697756Y367159I13109J-7439*
G01*
X2697756Y367159D01*
X2735157Y367159D01*
G74*
D01*
G02X2745000Y363502I0J15072*
G01*
G75*
D01*
G02X2754843Y367159I9843J-11415*
G01*
X2754843Y367159D01*
X2792244Y367159D01*
G74*
D01*
G02X2807317Y352087I0J15072*
G01*
X2807317Y352087D01*
X2807317Y310748D01*
G75*
D01*
G02X2792244Y295675I-15073J0*
G01*
X2792244Y295675D01*
X2754843Y295675D01*
G75*
D01*
G02X2745000Y299333I0J15073*
G01*
G74*
D01*
G02X2735157Y295675I9843J11415*
G01*
X2735157Y295675D01*
X2697756Y295675D01*
G75*
D01*
G02X2682683Y310748I0J15073*
G01*
X2682683Y310748D01*
X2682683Y315268D01*
X2674401Y319083D01*
X2669049Y318841D01*
G74*
D01*
G02X2670928Y312126I11057J6715*
G01*
X2670928Y312126D01*
X2670928Y304224D01*
X2681746Y292384D01*
X2685756Y288373D01*
G75*
D01*
G02X2697756Y294325I12000J-9121*
G01*
X2697756Y294325D01*
X2735157Y294325D01*
G74*
D01*
G02X2745000Y290667I0J15073*
G01*
G75*
D01*
G02X2754843Y294325I9843J-11415*
G01*
X2754843Y294325D01*
X2792244Y294325D01*
G74*
D01*
G02X2807317Y279252I0J15073*
G01*
X2807317Y279252D01*
X2807317Y270259D01*
G74*
D01*
G02X2828449Y259251I8524J42155*
G01*
G74*
D01*
G02X2829226Y258537I8105J9595*
G01*
X2829226Y258537D01*
X2910500Y177263D01*
X2910500Y186214D01*
X2896112Y194422D01*
G74*
D01*
G02X2894265Y195709I6225J10910*
G01*
G75*
D01*
G02X2919292Y220734I10735J14291*
G01*
G74*
D01*
G02X2920597Y218854I9624J8071*
G01*
X2920597Y218854D01*
X2923810Y213222D01*
X2923810Y234264D01*
G74*
D01*
G02X2923828Y234938I12560J0*
G01*
G74*
D01*
G03X2921533Y241283I11779J674*
G01*
X2921533Y241283D01*
X2921294Y241355D01*
X2902008Y241355D01*
G75*
D01*
G02X2889072Y254291I0J12936*
G01*
X2889072Y254291D01*
X2889072Y277126D01*
G74*
D01*
G02X2891744Y285000I12936J0*
G01*
G75*
D01*
G02X2889072Y292874I10264J7874*
G01*
X2889072Y292874D01*
X2889072Y315709D01*
G75*
D01*
G02X2902008Y328645I12936J0*
G01*
X2902008Y328645D01*
X2927992Y328645D01*
G74*
D01*
G02X2940928Y315709I0J12936*
G01*
X2940928Y315709D01*
X2940928Y300236D01*
X2945744Y305052D01*
X2957904Y320416D01*
X2957904Y323268D01*
G75*
D01*
G02X2967953Y333316I10049J0*
G01*
X2967953Y333316D01*
X2986063Y333316D01*
G74*
D01*
G02X2990000Y332513I0J10048*
G01*
G75*
D01*
G02X2993937Y333316I3937J-9245*
G01*
X2993937Y333316D01*
X3012047Y333316D01*
G74*
D01*
G02X3022096Y323268I0J10048*
G01*
X3022096Y323268D01*
X3022096Y306732D01*
G75*
D01*
G02X3017978Y298621I-10049J0*
G01*
G74*
D01*
G02X3017860Y297762I14986J1615*
G01*
G74*
D01*
G02X3013167Y286431I21996J2474*
G01*
G74*
D01*
G02X3012791Y285928I12263J8765*
G01*
X3012791Y285928D01*
X3025709Y285928D01*
G74*
D01*
G02X3038645Y272992I0J12936*
G01*
X3038645Y272992D01*
X3038645Y247008D01*
G75*
D01*
G02X3025709Y234072I-12936J0*
G01*
X3025709Y234072D01*
X3002874Y234072D01*
G75*
D01*
G02X2995000Y236744I0J12936*
G01*
G74*
D01*
G02X2987126Y234072I7874J10264*
G01*
X2987126Y234072D01*
X2969670Y234072D01*
X2966085Y232542D01*
G74*
D01*
G03X2962222Y222385I13217J10840*
G01*
G74*
D01*
G02X2962241Y221702I12542J683*
G01*
X2962241Y221702D01*
X2962241Y159948D01*
X2962512Y153834D01*
X2967999Y157950D01*
G74*
D01*
G02X2976529Y164347I14501J10450*
G01*
X2976529Y164347D01*
X2977464Y165048D01*
G75*
D01*
G02X2997307Y157512I7536J-10048*
G01*
G75*
D01*
G02X3000019Y143953I-14807J-10012*
G01*
X3000019Y143953D01*
X3000915Y139470D01*
G75*
D01*
G02X3004276Y127612I-8255J-8745*
G01*
X3004276Y127612D01*
X3001219Y116203D01*
G75*
D01*
G02X2986490Y107699I-11616J3113*
G01*
X2986490Y107699D01*
X2983448Y108515D01*
G74*
D01*
G02X2978635Y111086I3113J11616*
G01*
G75*
D01*
G02X2973180Y111266I-2342J11796*
G01*
X2973180Y111266D01*
X2970138Y112081D01*
G74*
D01*
G02X2965325Y114653I3113J11617*
G01*
G75*
D01*
G02X2959870Y114832I-2342J11796*
G01*
X2959870Y114832D01*
X2956828Y115647D01*
G74*
D01*
G02X2952015Y118219I3113J11617*
G01*
G75*
D01*
G02X2946560Y118399I-2342J11796*
G01*
X2946560Y118399D01*
X2943518Y119214D01*
G74*
D01*
G02X2938705Y121785I3113J11616*
G01*
G75*
D01*
G02X2933250Y121965I-2342J11797*
G01*
X2933250Y121965D01*
X2930208Y122780D01*
G74*
D01*
G02X2925395Y125352I3113J11617*
G01*
G75*
D01*
G02X2919940Y125531I-2342J11796*
G01*
X2919940Y125531D01*
X2916898Y126347D01*
G74*
D01*
G02X2912085Y128918I3113J11616*
G01*
G75*
D01*
G02X2906630Y129098I-2342J11796*
G01*
X2906630Y129098D01*
X2903588Y129913D01*
G75*
D01*
G02X2895084Y144642I3113J11617*
G01*
X2895084Y144642D01*
X2896362Y149411D01*
X2897070Y155167D01*
X2819573Y232664D01*
X2811463Y240774D01*
G74*
D01*
G02X2810993Y241270I8881J8882*
G01*
G74*
D01*
G03X2807317Y243901I12200J13166*
G01*
X2807317Y243901D01*
X2807317Y237913D01*
G75*
D01*
G02X2792244Y222841I-15073J0*
G01*
X2792244Y222841D01*
X2754843Y222841D01*
G75*
D01*
G02X2745000Y226498I0J15072*
G01*
G74*
D01*
G02X2735157Y222841I9843J11415*
G01*
X2735157Y222841D01*
X2697756Y222841D01*
G75*
D01*
G02X2682683Y237913I0J15072*
G01*
X2682683Y237913D01*
X2682683Y240943D01*
G74*
D01*
G02X2667758Y249724I14220J41243*
G01*
G74*
D01*
G02X2666002Y251285I12455J15772*
G01*
X2666002Y251285D01*
X2653326Y263962D01*
X2639760Y276355D01*
X2632008Y276355D01*
G75*
D01*
G02X2619072Y289291I0J12936*
G01*
X2619072Y289291D01*
X2619072Y312126D01*
G74*
D01*
G02X2621268Y319337I12936J0*
G01*
X2621268Y319337D01*
X2612910Y319903D01*
X1647712Y319903D01*
G75*
D01*
G02X1647151Y319911I0J20097*
G01*
G74*
D01*
G03X1597934Y299524I561J70957*
G01*
G74*
D01*
G02X1597544Y299123I14601J13809*
G01*
X1597544Y299123D01*
X1550097Y251676D01*
X1550097Y209583D01*
G75*
D01*
G02X1549854Y206472I-20097J0*
G01*
G74*
D01*
G02X1542998Y189920I30919J3111*
G01*
G74*
D01*
G02X1540970Y187549I16239J11839*
G01*
X1540970Y187549D01*
X1504229Y150808D01*
G74*
D01*
G02X1504205Y150783I14223J14198*
G01*
X1504205Y150783D01*
X1487738Y134317D01*
G74*
D01*
G02X1487621Y134201I14234J14187*
G01*
X1487621Y134201D01*
X1487621Y129803D01*
G75*
D01*
G02X1474685Y116867I-12936J0*
G01*
X1474685Y116867D01*
X1455399Y116867D01*
G74*
D01*
G02X1463316Y107047I2131J9820*
G01*
X1463316Y107047D01*
X1463316Y90169D01*
X1463668Y90166D01*
X1477631Y91791D01*
G75*
D01*
G02X1482953Y93316I5322J-8523*
G01*
X1482953Y93316D01*
X1491365Y93316D01*
G75*
D01*
G02X1491895Y93316I265J-15070*
G01*
X1491895Y93316D01*
X1501063Y93316D01*
G74*
D01*
G02X1505000Y92513I0J10048*
G01*
G75*
D01*
G02X1508937Y93316I3937J-9245*
G01*
X1508937Y93316D01*
X1527047Y93316D01*
G74*
D01*
G02X1537096Y83268I0J10048*
G01*
X1537096Y83268D01*
X1537096Y80217D01*
G75*
D01*
G02X1537096Y69783I-17096J-5217*
G01*
X1537096Y69783D01*
X1537096Y66732D01*
G75*
D01*
G02X1527047Y56684I-10049J0*
G01*
X1527047Y56684D01*
X1508937Y56684D01*
G75*
D01*
G02X1505000Y57487I0J10048*
G01*
G74*
D01*
G02X1501063Y56684I3937J9245*
G01*
X1501063Y56684D01*
X1491895Y56684D01*
G75*
D01*
G02X1491486Y56682I-265J15070*
G01*
G74*
D01*
G02X1491365Y56684I144J15072*
G01*
X1491365Y56684D01*
X1482953Y56684D01*
G75*
D01*
G02X1477631Y58209I0J10048*
G01*
X1477631Y58209D01*
X1470731Y59012D01*
X1461272Y56878D01*
G74*
D01*
G02X1453268Y52904I8004J6075*
G01*
X1453268Y52904D01*
X1436732Y52904D01*
G75*
D01*
G02X1426734Y61950I0J10049*
G01*
X1426734Y61950D01*
X1412082Y76602D01*
G74*
D01*
G02X1411775Y76918I10658J10658*
G01*
X1411775Y76918D01*
X1411775Y69232D01*
G75*
D01*
G02X1398839Y56296I-12936J0*
G01*
X1398839Y56296D01*
X1395678Y56296D01*
X1380617Y48766D01*
G74*
D01*
G02X1376739Y47560I5617J11234*
G01*
X1376739Y47560D01*
X1539797Y47560D01*
X1557440Y65203D01*
X1557440Y226464D01*
G74*
D01*
G02X1557569Y228261I12560J0*
G01*
G74*
D01*
G02X1562439Y240019I20966J1797*
G01*
G74*
D01*
G02X1563618Y241382I10061J7519*
G01*
X1563618Y241382D01*
X1618618Y296382D01*
G74*
D01*
G02X1619981Y297561I8882J8882*
G01*
G74*
D01*
G02X1631739Y302431I13555J16096*
G01*
G75*
D01*
G02X1633536Y302560I1797J-12431*
G01*
X1633536Y302560D01*
X2101608Y302560D01*
G75*
D01*
G02X2102574Y302598I966J-12560*
G01*
G74*
D01*
G02X2183908Y268908I0J115024*
G01*
G74*
D01*
G02X2184564Y268199I8908J8908*
G01*
X2184564Y268199D01*
X2241525Y211239D01*
G74*
D01*
G02X2242728Y209845I8882J8882*
G01*
G74*
D01*
G02X2247100Y200741I15775J13178*
G01*
G75*
D01*
G02X2249291Y200928I2191J-12749*
G01*
X2249291Y200928D01*
X2272126Y200928D01*
G74*
D01*
G02X2280000Y198256I0J12936*
G01*
G75*
D01*
G02X2287874Y200928I7874J-10264*
G01*
X2287874Y200928D01*
X2310709Y200928D01*
G74*
D01*
G02X2323639Y188389I0J12936*
G01*
X2323639Y188389D01*
X2331462Y185251D01*
G75*
D01*
G02X2339862Y188350I8400J-9838*
G01*
X2339862Y188350D01*
X2368264Y188350D01*
X2368264Y240374D01*
G75*
D01*
G02X2381201Y253310I12937J0*
G01*
X2381201Y253310D01*
X2487500Y253310D01*
G74*
D01*
G02X2498359Y247405I0J12936*
G01*
X2498359Y247405D01*
X2510616Y247405D01*
X2512374Y249162D01*
G74*
D01*
G02X2519426Y253139I10657J10658*
G01*
G75*
D01*
G02X2523031Y253576I3605J-14635*
G01*
X2523031Y253576D01*
X2551240Y253576D01*
G75*
D01*
G02X2547379Y262795I9075J9219*
G01*
X2547379Y262795D01*
X2547379Y300197D01*
G75*
D01*
G02X2560315Y313133I12936J0*
G01*
X2560315Y313133D01*
X2599685Y313133D01*
G74*
D01*
G02X2612621Y300197I0J12936*
G01*
X2612621Y300197D01*
X2612621Y262795D01*
G75*
D01*
G02X2601590Y250000I-12936J0*
G01*
G74*
D01*
G02X2612621Y237205I1905J12795*
G01*
X2612621Y237205D01*
X2612621Y223900D01*
X2625397Y208024D01*
X2684675Y148746D01*
G74*
D01*
G02X2684749Y148671I14211J14210*
G01*
X2684749Y148671D01*
X2714476Y118945D01*
G74*
D01*
G02X2715906Y117354I14210J14211*
G01*
G74*
D01*
G02X2729025Y85683I36827J33807*
G01*
G74*
D01*
G02X2729138Y83547I19983J2136*
G01*
X2729138Y83547D01*
X2729138Y67050D01*
X2734791Y61397D01*
X2749758Y53645D01*
X2751979Y53645D01*
X2766648Y60069D01*
X2819573Y112994D01*
X2819573Y112994D01*
X2824894Y118315D01*
X2832378Y135153D01*
G75*
D01*
G02X2832684Y142613I16776J3047*
G01*
X2832684Y142613D01*
X2835588Y153451D01*
G75*
D01*
G02X2856471Y165508I16470J-4413*
G01*
X2856471Y165508D01*
X2867879Y162451D01*
G75*
D01*
G02X2879936Y141569I-4413J-16470*
G01*
X2879936Y141569D01*
X2877032Y130730D01*
G74*
D01*
G02X2867299Y119480I16470J4413*
G01*
G75*
D01*
G02X2870103Y104871I-13666J-10196*
G01*
X2870103Y104871D01*
X2867199Y94033D01*
G75*
D01*
G02X2846316Y81976I-16470J4413*
G01*
X2846316Y81976D01*
X2845591Y82170D01*
X2819573Y56152D01*
X2792403Y28982D01*
G74*
D01*
G02X2792379Y28958I14223J14198*
G01*
X2792379Y28958D01*
X2779234Y15813D01*
G74*
D01*
G02X2774717Y12409I14234J14187*
G01*
G74*
D01*
G02X2773256Y10000I11725J5465*
G01*
G74*
D01*
G02X2775928Y2126I10264J7874*
G01*
X2775928Y2126D01*
X2775928Y-20709D01*
G75*
D01*
G02X2762992Y-33645I-12936J0*
G01*
X2762992Y-33645D01*
X2737008Y-33645D01*
G75*
D01*
G02X2724072Y-20709I0J12936*
G01*
X2724072Y-20709D01*
X2724072Y2126D01*
G74*
D01*
G02X2726744Y10000I12936J0*
G01*
G74*
D01*
G02X2724395Y14998I10264J7874*
G01*
G74*
D01*
G02X2723557Y15789I13372J15002*
G01*
X2723557Y15789D01*
X2708591Y30755D01*
G74*
D01*
G02X2708554Y30793I14192J14229*
G01*
X2708554Y30793D01*
X2699219Y40127D01*
G74*
D01*
G02X2697391Y42228I14211J14211*
G01*
G74*
D01*
G02X2689138Y62154I26632J22703*
G01*
G75*
D01*
G02X2688945Y64931I19904J2777*
G01*
X2688945Y64931D01*
X2688945Y83547D01*
G74*
D01*
G02X2688968Y84499I20097J0*
G01*
G74*
D01*
G03X2686744Y89866I9889J952*
G01*
G74*
D01*
G02X2686055Y90523I13522J14868*
G01*
X2686055Y90523D01*
X2655789Y120789D01*
G74*
D01*
G02X2655715Y120864I14211J14211*
G01*
X2655715Y120864D01*
X2598691Y177888D01*
X2579602Y186867D01*
X2573091Y186867D01*
X2561168Y183674D01*
G74*
D01*
G02X2556445Y180288I26345J31752*
G01*
G74*
D01*
G02X2561546Y176613I15784J27291*
G01*
X2561546Y176613D01*
X2567090Y173316D01*
X2571063Y173316D01*
G74*
D01*
G02X2575000Y172513I0J10048*
G01*
G75*
D01*
G02X2578937Y173316I3937J-9245*
G01*
X2578937Y173316D01*
X2597047Y173316D01*
G74*
D01*
G02X2607096Y163268I0J10048*
G01*
X2607096Y163268D01*
X2607096Y146732D01*
G75*
D01*
G02X2597047Y136684I-10049J0*
G01*
X2597047Y136684D01*
X2578937Y136684D01*
G75*
D01*
G02X2575000Y137487I0J10048*
G01*
G74*
D01*
G02X2571063Y136684I3937J9245*
G01*
X2571063Y136684D01*
X2564217Y136684D01*
G74*
D01*
G02X2556831Y134750I7386J13139*
G01*
X2556831Y134750D01*
X2541775Y134750D01*
X2541775Y124232D01*
G75*
D01*
G02X2528839Y111296I-12936J0*
G01*
X2528839Y111296D01*
X2521475Y111296D01*
G74*
D01*
G02X2517870Y108952I11475J13704*
G01*
X2517870Y108952D01*
X2512536Y104952D01*
G75*
D01*
G02X2499389Y103763I-7536J10048*
G01*
G74*
D01*
G02X2494811Y107655I5611J11237*
G01*
G74*
D01*
G02X2487500Y105390I7311J10672*
G01*
X2487500Y105390D01*
X2381201Y105390D01*
G75*
D01*
G02X2370342Y111296I0J12937*
G01*
X2370342Y111296D01*
X2369059Y111296D01*
X2363881Y106118D01*
G75*
D01*
G02X2346098Y106139I-8881J8882*
G01*
X2346098Y106139D01*
X2340941Y111296D01*
X2339862Y111296D01*
G75*
D01*
G02X2326926Y124232I0J12936*
G01*
X2326926Y124232D01*
X2326926Y133650D01*
G74*
D01*
G02X2320368Y130307I9918J11350*
G01*
G74*
D01*
G02X2317485Y129935I3360J14693*
G01*
G74*
D01*
G02X2308268Y123889I9217J4002*
G01*
X2308268Y123889D01*
X2291732Y123889D01*
G75*
D01*
G02X2283141Y128725I0J10048*
G01*
X2283141Y128725D01*
X2270055Y132440D01*
X2257071Y132440D01*
G75*
D01*
G02X2255685Y132516I0J12560*
G01*
G74*
D01*
G02X2237153Y140192I1386J29555*
G01*
G74*
D01*
G02X2236118Y141118I7847J9808*
G01*
X2236118Y141118D01*
X2231118Y146118D01*
G74*
D01*
G02X2230192Y147153I8882J8882*
G01*
G74*
D01*
G02X2222516Y165685I21879J19918*
G01*
G75*
D01*
G02X2222440Y167071I12484J1386*
G01*
X2222440Y167071D01*
X2222440Y194797D01*
X2166801Y250436D01*
G74*
D01*
G02X2166092Y251092I8199J9564*
G01*
G74*
D01*
G03X2102574Y277402I63518J63518*
G01*
G75*
D01*
G02X2101608Y277440I0J12598*
G01*
X2101608Y277440D01*
X1635203Y277440D01*
X1582560Y224797D01*
X1582560Y62946D01*
G75*
D01*
G02X1582412Y61022I-12560J0*
G01*
G74*
D01*
G02X1578054Y50500I19525J1924*
G01*
G74*
D01*
G02X1576798Y49035I10137J7417*
G01*
X1576798Y49035D01*
X1560324Y32560D01*
X1575781Y32560D01*
X1623889Y80668D01*
X1623889Y93268D01*
G75*
D01*
G02X1633937Y103316I10048J0*
G01*
X1633937Y103316D01*
X1652047Y103316D01*
G74*
D01*
G02X1654927Y102894I0J10048*
G01*
X1654927Y102894D01*
X1654927Y107977D01*
G74*
D01*
G02X1649685Y106867I5242J11826*
G01*
X1649685Y106867D01*
X1610315Y106867D01*
G75*
D01*
G02X1597379Y119803I0J12936*
G01*
X1597379Y119803D01*
X1597379Y157205D01*
G75*
D01*
G02X1610315Y170141I12936J0*
G01*
X1610315Y170141D01*
X1649685Y170141D01*
G74*
D01*
G02X1657716Y167346I0J12936*
G01*
X1657716Y167346D01*
X1652814Y186954D01*
G75*
D01*
G02X1668072Y202179I12186J3046*
G01*
X1668072Y202179D01*
X1688046Y197185D01*
G74*
D01*
G02X1689646Y196669I3046J12185*
G01*
G74*
D01*
G02X1696095Y198394I7480J15055*
G01*
G74*
D01*
G02X1708480Y213589I16779J1032*
G01*
G75*
D01*
G02X1727588Y227459I19108J-6227*
G01*
X1727588Y227459D01*
X1736575Y227459D01*
G74*
D01*
G02X1739252Y227280I0J20097*
G01*
G74*
D01*
G02X1760460Y218495I2677J36456*
G01*
G74*
D01*
G02X1762480Y216729I12191J15977*
G01*
X1762480Y216729D01*
X1787532Y191676D01*
G75*
D01*
G02X1784652Y200512I12114J8836*
G01*
X1784652Y200512D01*
X1784652Y204031D01*
G75*
D01*
G02X1784652Y205969I17848J969*
G01*
X1784652Y205969D01*
X1784652Y234031D01*
G75*
D01*
G02X1784652Y235969I17848J969*
G01*
X1784652Y235969D01*
X1784652Y237913D01*
G75*
D01*
G02X1799646Y252907I14994J0*
G01*
X1799646Y252907D01*
X1880354Y252907D01*
G74*
D01*
G02X1895348Y237913I0J14994*
G01*
X1895348Y237913D01*
X1895348Y235969D01*
G75*
D01*
G02X1895348Y234031I-17848J-969*
G01*
X1895348Y234031D01*
X1895348Y205969D01*
G75*
D01*
G02X1895348Y204031I-17848J-969*
G01*
X1895348Y204031D01*
X1895348Y200512D01*
G75*
D01*
G02X1880354Y185518I-14994J0*
G01*
D02*
G37*
%LPC*%
G36*
X2269072Y237126D02*
G75*
D01*
G02X2282008Y250062I12936J0*
G01*
X2282008Y250062D01*
X2307992Y250062D01*
G74*
D01*
G02X2320928Y237126I0J12936*
G01*
X2320928Y237126D01*
X2320928Y214291D01*
G75*
D01*
G02X2307992Y201355I-12936J0*
G01*
X2307992Y201355D01*
X2282008Y201355D01*
G75*
D01*
G02X2269072Y214291I0J12936*
G01*
X2269072Y214291D01*
X2269072Y237126D01*
D02*
G37*
G36*
X1252874Y199072D02*
G75*
D01*
G02X1239938Y212008I0J12936*
G01*
X1239938Y212008D01*
X1239938Y237992D01*
G75*
D01*
G02X1252874Y250928I12936J0*
G01*
X1252874Y250928D01*
X1275709Y250928D01*
G74*
D01*
G02X1288645Y237992I0J12936*
G01*
X1288645Y237992D01*
X1288645Y212008D01*
G75*
D01*
G02X1275709Y199072I-12936J0*
G01*
X1275709Y199072D01*
X1252874Y199072D01*
D02*
G37*
G36*
X785831Y160079D02*
G74*
D01*
G02X787381Y154173I10477J5906*
G01*
X787381Y154173D01*
X787381Y140394D01*
G75*
D01*
G02X775354Y128367I-12027J0*
G01*
X775354Y128367D01*
X716299Y128367D01*
G75*
D01*
G02X704273Y140394I0J12027*
G01*
X704273Y140394D01*
X704273Y154173D01*
G74*
D01*
G02X705823Y160079I12026J0*
G01*
G75*
D01*
G02X704273Y165984I10476J5905*
G01*
X704273Y165984D01*
X704273Y179764D01*
G74*
D01*
G02X705823Y185669I12026J0*
G01*
G75*
D01*
G02X704273Y191575I10476J5906*
G01*
X704273Y191575D01*
X704273Y205354D01*
G74*
D01*
G02X705823Y211260I12026J0*
G01*
G75*
D01*
G02X704273Y217165I10476J5905*
G01*
X704273Y217165D01*
X704273Y230945D01*
G74*
D01*
G02X705823Y236850I12026J0*
G01*
G75*
D01*
G02X704273Y242756I10476J5906*
G01*
X704273Y242756D01*
X704273Y256535D01*
G74*
D01*
G02X705823Y262441I12026J0*
G01*
G75*
D01*
G02X704273Y268346I10476J5905*
G01*
X704273Y268346D01*
X704273Y282126D01*
G74*
D01*
G02X705823Y288031I12026J0*
G01*
G75*
D01*
G02X704273Y293937I10476J5906*
G01*
X704273Y293937D01*
X704273Y307717D01*
G74*
D01*
G02X705823Y313622I12026J0*
G01*
G75*
D01*
G02X704273Y319528I10476J5906*
G01*
X704273Y319528D01*
X704273Y333307D01*
G75*
D01*
G02X716299Y345333I12026J0*
G01*
X716299Y345333D01*
X721297Y345333D01*
G75*
D01*
G02X723703Y345333I1203J-17833*
G01*
X723703Y345333D01*
X743797Y345333D01*
G75*
D01*
G02X746203Y345333I1203J-17833*
G01*
X746203Y345333D01*
X766297Y345333D01*
G75*
D01*
G02X768703Y345333I1203J-17833*
G01*
X768703Y345333D01*
X775354Y345333D01*
G74*
D01*
G02X787381Y333307I0J12026*
G01*
X787381Y333307D01*
X787381Y319528D01*
G75*
D01*
G02X785831Y313622I-12027J0*
G01*
G74*
D01*
G02X787381Y307717I10477J5905*
G01*
X787381Y307717D01*
X787381Y293937D01*
G75*
D01*
G02X785831Y288031I-12027J0*
G01*
G74*
D01*
G02X787381Y282126I10477J5905*
G01*
X787381Y282126D01*
X787381Y268346D01*
G75*
D01*
G02X785831Y262441I-12027J0*
G01*
G74*
D01*
G02X787381Y256535I10477J5906*
G01*
X787381Y256535D01*
X787381Y242756D01*
G75*
D01*
G02X785831Y236850I-12027J0*
G01*
G74*
D01*
G02X787381Y230945I10477J5905*
G01*
X787381Y230945D01*
X787381Y217165D01*
G75*
D01*
G02X785831Y211260I-12027J0*
G01*
G74*
D01*
G02X787381Y205354I10477J5906*
G01*
X787381Y205354D01*
X787381Y191575D01*
G75*
D01*
G02X785831Y185669I-12027J0*
G01*
G74*
D01*
G02X787381Y179764I10477J5905*
G01*
X787381Y179764D01*
X787381Y165984D01*
G75*
D01*
G02X785831Y160079I-12027J0*
G01*
D02*
G37*
G36*
X685928Y152874D02*
G75*
D01*
G02X672992Y139938I-12936J0*
G01*
X672992Y139938D01*
X647008Y139938D01*
G75*
D01*
G02X634072Y152874I0J12936*
G01*
X634072Y152874D01*
X634072Y175709D01*
G75*
D01*
G02X647008Y188645I12936J0*
G01*
X647008Y188645D01*
X672992Y188645D01*
G74*
D01*
G02X685928Y175709I0J12936*
G01*
X685928Y175709D01*
X685928Y152874D01*
D02*
G37*
G36*
X622621Y139803D02*
G75*
D01*
G02X609685Y126867I-12936J0*
G01*
X609685Y126867D01*
X570315Y126867D01*
G75*
D01*
G02X557379Y139803I0J12936*
G01*
X557379Y139803D01*
X557379Y177205D01*
G75*
D01*
G02X570315Y190141I12936J0*
G01*
X570315Y190141D01*
X609685Y190141D01*
G74*
D01*
G02X622621Y177205I0J12936*
G01*
X622621Y177205D01*
X622621Y139803D01*
D02*
G37*
G36*
X704273Y102992D02*
G75*
D01*
G02X716299Y115019I12026J0*
G01*
X716299Y115019D01*
X775354Y115019D01*
G74*
D01*
G02X787381Y102992I0J12027*
G01*
X787381Y102992D01*
X787381Y89213D01*
G75*
D01*
G02X775354Y77186I-12027J0*
G01*
X775354Y77186D01*
X716299Y77186D01*
G75*
D01*
G02X704273Y89213I0J12027*
G01*
X704273Y89213D01*
X704273Y102992D01*
D02*
G37*
G36*
X3375372Y301210D02*
G75*
D01*
G02X3375372Y301210I38622J0*
G01*
D02*
G37*
G36*
X3437588Y238994D02*
G75*
D01*
G02X3437588Y238994I38622J0*
G01*
D02*
G37*
G36*
X3287384Y88790D02*
G75*
D01*
G02X3287384Y88790I38622J0*
G01*
D02*
G37*
%LPD*%
G36*
X3025372Y57993D02*
X3025372Y57993D01*
X3036534Y100000D01*
X3030000Y100000D01*
X2990000Y30000D01*
X3015000Y35000D01*
X3018361Y38361D01*
X3025372Y57993D01*
D02*
G37*
G36*
X2850000Y150000D02*
X2850000Y150000D01*
X2865000Y145000D01*
X2850000Y100000D01*
X2830000Y105000D01*
X2850000Y150000D01*
D02*
G37*
G36*
X1373261Y47560D02*
X1373261Y47560D01*
X1231739Y47560D01*
G74*
D01*
G03X1241234Y54383I1739J12440*
G01*
X1241234Y54383D01*
X1241454Y54821D01*
G75*
D01*
G03X1251201Y50390I9747J8506*
G01*
X1251201Y50390D01*
X1357500Y50390D01*
G74*
D01*
G03X1364811Y52655I0J12937*
G01*
G74*
D01*
G03X1373261Y47560I10189J7345*
G01*
D02*
G37*
G36*
X2965000Y140000D02*
X2965000Y140000D01*
X2985000Y155000D01*
X2990000Y130000D01*
X2965000Y140000D01*
D02*
G37*
G36*
X1662298Y160078D02*
G74*
D01*
G03X1664194Y158862I7702J9922*
G01*
G74*
D01*
G03X1662593Y158067I5860J13808*
G01*
G74*
D01*
G03X1662298Y160078I12908J862*
G01*
D02*
G37*
G54D11*
X2850000Y150000D02*
X2865000Y145000D01*
X2850000Y100000D01*
X2830000Y105000D01*
X2850000Y150000D01*
X3025372Y57993D02*
X3036534Y100000D01*
X3030000Y100000D01*
X2990000Y30000D01*
X3015000Y35000D01*
X3018361Y38361D01*
X3025372Y57993D01*
G54D12*
X2965000Y140000D02*
X2985000Y155000D01*
X2990000Y130000D01*
X2965000Y140000D01*
X296234Y80617D02*
X306251Y71437D01*
X317030Y63166D01*
X328490Y55866D01*
X340541Y49592D01*
X353094Y44393D01*
X366052Y40307D01*
X379317Y37366D01*
X392788Y35593D01*
X406362Y35000D01*
G36*
X180974Y145877D02*
X180974Y145877D01*
X149622Y158673D01*
X168177Y177229D01*
X180974Y145877D01*
D02*
G37*
X149622Y158673D01*
X168177Y177229D01*
X180974Y145877D01*
G36*
X230974Y145877D02*
X230974Y145877D01*
X199622Y158673D01*
X218177Y177229D01*
X230974Y145877D01*
D02*
G37*
X199622Y158673D01*
X218177Y177229D01*
X230974Y145877D01*
X2936370Y234264D02*
X2936278Y236384D01*
X2936001Y238488D01*
X2935541Y240559D01*
X2934904Y242583D01*
X2934092Y244543D01*
X2933112Y246425D01*
X2931972Y248214D01*
X2930680Y249897D01*
X2929247Y251462D01*
X2958356Y242648D02*
X2956610Y240742D01*
X2955037Y238692D01*
X2953649Y236513D01*
X2952456Y234221D01*
X2951467Y231833D01*
X2950690Y229368D01*
X2950130Y226846D01*
X2949793Y224283D01*
X2949680Y221702D01*
X2923060Y187683D02*
X2923021Y188579D01*
X2922904Y189467D01*
X2922710Y190343D01*
X2922440Y191198D01*
X2922097Y192026D01*
X2921683Y192821D01*
X2921202Y193577D01*
X2920656Y194289D01*
X2920050Y194950D01*
G36*
X2919407Y195593D02*
X2919407Y195593D01*
X2902337Y205332D01*
X2909668Y212663D01*
X2919407Y195593D01*
D02*
G37*
X2902337Y205332D01*
X2909668Y212663D01*
X2919407Y195593D01*
G36*
X2854710Y14710D02*
X2854710Y14710D01*
X2839461Y-7996D01*
X2832004Y-539D01*
X2854710Y14710D01*
D02*
G37*
X2839461Y-7996D01*
X2832004Y-539D01*
X2854710Y14710D01*
G36*
X2928483Y252226D02*
X2928483Y252226D01*
X2912052Y263007D01*
X2919824Y269868D01*
X2928483Y252226D01*
D02*
G37*
X2912052Y263007D01*
X2919824Y269868D01*
X2928483Y252226D01*
G36*
X2930320Y72128D02*
X2930320Y72128D01*
X2924739Y98903D01*
X2935285Y99024D01*
X2930320Y72128D01*
D02*
G37*
X2924739Y98903D01*
X2935285Y99024D01*
X2930320Y72128D01*
G36*
X2897051Y37051D02*
X2897051Y37051D01*
X2884805Y12594D01*
X2876462Y19045D01*
X2897051Y37051D01*
D02*
G37*
X2884805Y12594D01*
X2876462Y19045D01*
X2897051Y37051D01*
G36*
X2873420Y53420D02*
X2873420Y53420D01*
X2856762Y31727D01*
X2849793Y39642D01*
X2873420Y53420D01*
D02*
G37*
X2856762Y31727D01*
X2849793Y39642D01*
X2873420Y53420D01*
G36*
X2949680Y159670D02*
X2949680Y159670D01*
X2950723Y136173D01*
X2948638Y136173D01*
X2949680Y159670D01*
D02*
G37*
X2950723Y136173D01*
X2948638Y136173D01*
X2949680Y159670D01*
G36*
X2936370Y163237D02*
X2936370Y163237D01*
X2937413Y139740D01*
X2935328Y139740D01*
X2936370Y163237D01*
D02*
G37*
X2937413Y139740D01*
X2935328Y139740D01*
X2936370Y163237D01*
G36*
X2923060Y166803D02*
X2923060Y166803D01*
X2924103Y143306D01*
X2922018Y143306D01*
X2923060Y166803D01*
D02*
G37*
X2924103Y143306D01*
X2922018Y143306D01*
X2923060Y166803D01*
G36*
X2930320Y87416D02*
X2930320Y87416D01*
X2931362Y63919D01*
X2929277Y63919D01*
X2930320Y87416D01*
D02*
G37*
X2931362Y63919D01*
X2929277Y63919D01*
X2930320Y87416D01*
G36*
X2917010Y58896D02*
X2917010Y58896D01*
X2915974Y67312D01*
X2918045Y67312D01*
X2917010Y58896D01*
D02*
G37*
X2915974Y67312D01*
X2918045Y67312D01*
X2917010Y58896D01*
G36*
X2875965Y55965D02*
X2875965Y55965D01*
X2889538Y75174D01*
X2891185Y73897D01*
X2875965Y55965D01*
D02*
G37*
X2889538Y75174D01*
X2891185Y73897D01*
X2875965Y55965D01*
G36*
X2928377Y252332D02*
X2928377Y252332D01*
X2912411Y257175D01*
X2923533Y268297D01*
X2928377Y252332D01*
D02*
G37*
X2912411Y257175D01*
X2923533Y268297D01*
X2928377Y252332D01*
G36*
X2958797Y243088D02*
X2958797Y243088D01*
X2967507Y263500D01*
X2979209Y251798D01*
X2958797Y243088D01*
D02*
G37*
X2967507Y263500D01*
X2979209Y251798D01*
X2958797Y243088D01*
G36*
X2960000Y40000D02*
X2960000Y40000D01*
X2955000Y25000D01*
X2940000Y30000D01*
X2960000Y40000D01*
D02*
G37*
X2955000Y25000D01*
X2940000Y30000D01*
X2960000Y40000D01*
G36*
X2970000Y80000D02*
X2970000Y80000D01*
X2950000Y70000D01*
X2960000Y90000D01*
X2970000Y80000D01*
D02*
G37*
X2950000Y70000D01*
X2960000Y90000D01*
X2970000Y80000D01*
G36*
X1235000Y70000D02*
X1235000Y70000D01*
X1230000Y60000D01*
X1210000Y70000D01*
X1235000Y70000D01*
D02*
G37*
X1230000Y60000D01*
X1210000Y70000D01*
X1235000Y70000D01*
G36*
X1395000Y70000D02*
X1395000Y70000D01*
X1375000Y60000D01*
X1370000Y70000D01*
X1395000Y70000D01*
D02*
G37*
X1375000Y60000D01*
X1370000Y70000D01*
X1395000Y70000D01*
G36*
X1697126Y77199D02*
X1697126Y77199D01*
X1686668Y102820D01*
X1697774Y104865D01*
X1697126Y77199D01*
D02*
G37*
X1686668Y102820D01*
X1697774Y104865D01*
X1697126Y77199D01*
G36*
X1697126Y101113D02*
X1697126Y101113D01*
X1705497Y74737D01*
X1694263Y73589D01*
X1697126Y101113D01*
D02*
G37*
X1705497Y74737D01*
X1694263Y73589D01*
X1697126Y101113D01*
G36*
X1697126Y126181D02*
X1697126Y126181D01*
X1695692Y150032D01*
X1698560Y150032D01*
X1697126Y126181D01*
D02*
G37*
X1695692Y150032D01*
X1698560Y150032D01*
X1697126Y126181D01*
G36*
X1697126Y132801D02*
X1697126Y132801D01*
X1697774Y105135D01*
X1686668Y107180D01*
X1697126Y132801D01*
D02*
G37*
X1697774Y105135D01*
X1686668Y107180D01*
X1697126Y132801D01*
G36*
X1755000Y165000D02*
X1755000Y165000D01*
X1755000Y150000D01*
X1735000Y160000D01*
X1755000Y165000D01*
D02*
G37*
X1755000Y150000D01*
X1735000Y160000D01*
X1755000Y165000D01*
G36*
X1727263Y160000D02*
X1727263Y160000D01*
X1749316Y162830D01*
X1748174Y152446D01*
X1727263Y160000D01*
D02*
G37*
X1749316Y162830D01*
X1748174Y152446D01*
X1727263Y160000D01*
G36*
X1717992Y133268D02*
X1717992Y133268D01*
X1723639Y106177D01*
X1712346Y106177D01*
X1717992Y133268D01*
D02*
G37*
X1723639Y106177D01*
X1712346Y106177D01*
X1717992Y133268D01*
G36*
X2271804Y145000D02*
X2271804Y145000D01*
X2299227Y148708D01*
X2298425Y137444D01*
X2271804Y145000D01*
D02*
G37*
X2299227Y148708D01*
X2298425Y137444D01*
X2271804Y145000D01*
G36*
X2365000Y125000D02*
X2365000Y125000D01*
X2355000Y115000D01*
X2345000Y125000D01*
X2365000Y125000D01*
D02*
G37*
X2355000Y115000D01*
X2345000Y125000D01*
X2365000Y125000D01*
G36*
X2525000Y130000D02*
X2525000Y130000D01*
X2505000Y115000D01*
X2500000Y130000D01*
X2525000Y130000D01*
D02*
G37*
X2505000Y115000D01*
X2500000Y130000D01*
X2525000Y130000D01*
G36*
X1685000Y185000D02*
X1685000Y185000D01*
X1670000Y170000D01*
X1665000Y190000D01*
X1685000Y185000D01*
D02*
G37*
X1670000Y170000D01*
X1665000Y190000D01*
X1685000Y185000D01*
G36*
X1740000Y185000D02*
X1740000Y185000D01*
X1740000Y175000D01*
X1720000Y180000D01*
X1740000Y185000D01*
D02*
G37*
X1740000Y175000D01*
X1720000Y180000D01*
X1740000Y185000D01*
G36*
X1719193Y203682D02*
X1719193Y203682D01*
X1714040Y196523D01*
X1712034Y198529D01*
X1719193Y203682D01*
D02*
G37*
X1714040Y196523D01*
X1712034Y198529D01*
X1719193Y203682D01*
X1542054Y35000D02*
X1542674Y35027D01*
X1543289Y35108D01*
X1543895Y35242D01*
X1544486Y35429D01*
X1545060Y35666D01*
X1545610Y35953D01*
X1546134Y36286D01*
X1546626Y36664D01*
X1547083Y37083D01*
X1577330Y20000D02*
X1578099Y20034D01*
X1578862Y20134D01*
X1579613Y20301D01*
X1580347Y20532D01*
X1581058Y20826D01*
X1581741Y21182D01*
X1582390Y21595D01*
X1583000Y22064D01*
X1583568Y22584D01*
X1567917Y57917D02*
X1568336Y58374D01*
X1568714Y58866D01*
X1569047Y59390D01*
X1569334Y59940D01*
X1569571Y60514D01*
X1569758Y61105D01*
X1569892Y61711D01*
X1569973Y62326D01*
X1570000Y62946D01*
X1570000Y62946D01*
X1721785Y161955D02*
X1722214Y161562D01*
X1722676Y161207D01*
X1723167Y160894D01*
X1723684Y160625D01*
X1724222Y160403D01*
X1724778Y160227D01*
X1725346Y160101D01*
X1725924Y160025D01*
X1726505Y160000D01*
X1717992Y142587D02*
X1717970Y143095D01*
X1717904Y143599D01*
X1717794Y144095D01*
X1717641Y144579D01*
X1717446Y145049D01*
X1717212Y145500D01*
X1716939Y145928D01*
X1716629Y146331D01*
X1716286Y146706D01*
X2245000Y150000D02*
X2246098Y148994D01*
X2247279Y148087D01*
X2248536Y147287D01*
X2249857Y146599D01*
X2251232Y146030D01*
X2252653Y145582D01*
X2254107Y145259D01*
X2255583Y145065D01*
X2257071Y145000D01*
X2235000Y167071D02*
X2235065Y165583D01*
X2235259Y164107D01*
X2235582Y162653D01*
X2236029Y161232D01*
X2236599Y159856D01*
X2237287Y158536D01*
X2238087Y157279D01*
X2238994Y156098D01*
X2240000Y155000D01*
X1572500Y232500D02*
X1571997Y231951D01*
X1571544Y231360D01*
X1571144Y230732D01*
X1570800Y230072D01*
X1570515Y229384D01*
X1570291Y228674D01*
X1570130Y227947D01*
X1570032Y227208D01*
X1570000Y226464D01*
X1727588Y207362D02*
X1726596Y207319D01*
X1725612Y207189D01*
X1724642Y206974D01*
X1723696Y206676D01*
X1722778Y206296D01*
X1721898Y205837D01*
X1721060Y205304D01*
X1720273Y204700D01*
X1719541Y204029D01*
X2235000Y196667D02*
X2234969Y197368D01*
X2234878Y198064D01*
X2234726Y198749D01*
X2234515Y199419D01*
X2234246Y200068D01*
X2233922Y200690D01*
X2233545Y201282D01*
X2233117Y201839D01*
X2232643Y202357D01*
X1633536Y290000D02*
X1632792Y289968D01*
X1632053Y289870D01*
X1631326Y289709D01*
X1630616Y289485D01*
X1629928Y289200D01*
X1629268Y288856D01*
X1628640Y288456D01*
X1628049Y288003D01*
X1627500Y287500D01*
X2175000Y260000D02*
X2168412Y266037D01*
X2161323Y271476D01*
X2153787Y276277D01*
X2145861Y280403D01*
X2137605Y283823D01*
X2129084Y286510D01*
X2120360Y288444D01*
X2111501Y289610D01*
X2102574Y290000D01*
X2102574Y290000D01*
X296234Y80617D02*
X205000Y171850D01*
X256234Y70617D02*
X155000Y171850D01*
X2930320Y63873D02*
X2930320Y99680D01*
X2943630Y60306D02*
X2943630Y63630D01*
X2965000Y85000D01*
X2970250Y53174D02*
X2970250Y50250D01*
X2950000Y30000D01*
X2903700Y71006D02*
X2901006Y71006D01*
X2890390Y70390D02*
X2890390Y74572D01*
X2903700Y63700D02*
X2835000Y-5000D01*
X2903700Y71006D02*
X2903700Y63700D01*
X2917010Y57010D02*
X2875000Y15000D01*
X2917010Y67439D02*
X2917010Y57010D01*
X2890390Y70390D02*
X2853750Y33750D01*
X2936370Y139694D02*
X2936370Y234264D01*
X2929247Y251462D02*
X2915000Y265709D01*
X2949680Y136127D02*
X2949680Y221702D01*
X2958356Y242648D02*
X2975709Y260000D01*
X2923060Y143260D02*
X2923060Y187683D01*
X2920050Y194950D02*
X2905000Y210000D01*
X1567917Y57917D02*
X1547083Y37083D01*
X1570000Y226464D02*
X1570000Y62946D01*
X1642992Y82008D02*
X1583568Y22584D01*
X1642992Y85000D02*
X1640000Y85000D01*
X1642992Y85000D02*
X1642992Y82008D01*
X1697126Y150118D02*
X1697126Y70866D01*
X1697126Y70866D02*
X1700000Y67992D01*
X1690866Y165866D02*
X1670054Y145054D01*
X1716286Y146706D02*
X1712874Y150118D01*
X1717874Y165866D02*
X1721785Y161955D01*
X1726505Y160000D02*
X1755000Y160000D01*
X1717992Y105000D02*
X1717992Y142587D01*
X2245000Y150000D02*
X2240000Y155000D01*
X2257071Y145000D02*
X2300000Y145000D01*
X1627500Y287500D02*
X1572500Y232500D01*
X1697126Y165866D02*
X1690866Y165866D01*
X1719541Y204029D02*
X1712874Y197362D01*
X2232643Y202357D02*
X2175000Y260000D01*
X2235000Y167071D02*
X2235000Y196667D01*
X2102574Y290000D02*
X1633536Y290000D01*
X1542054Y35000D02*
X406297Y35000D01*
X256234Y70617D02*
X267349Y60431D01*
X279310Y51254D01*
X292025Y43153D01*
X305398Y36192D01*
X319327Y30422D01*
X333705Y25889D01*
X348424Y22625D01*
X363371Y20658D01*
X378433Y20000D01*
X1577330Y20000D02*
X378370Y20000D01*
X2909750Y155775D02*
X2909709Y156717D01*
X2909586Y157651D01*
X2909382Y158571D01*
X2909099Y159470D01*
X2908738Y160340D01*
X2908303Y161176D01*
X2907797Y161971D01*
X2907223Y162719D01*
X2906586Y163413D01*
X2820344Y249656D02*
X2818384Y251452D01*
X2816274Y253071D01*
X2814032Y254499D01*
X2811673Y255727D01*
X2809217Y256745D01*
X2806681Y257544D01*
X2804085Y258120D01*
X2801449Y258467D01*
X2798793Y258583D01*
X2906587Y163413D02*
X2820344Y249656D01*
X2909750Y155775D02*
X2909750Y146826D01*
G36*
X2909750Y155370D02*
X2909750Y155370D01*
X2910786Y146954D01*
X2908715Y146954D01*
X2909750Y155370D01*
D02*
G37*
X2910786Y146954D01*
X2908715Y146954D01*
X2909750Y155370D01*
X2798793Y258583D02*
X2773543Y258583D01*
G36*
X2800000Y260000D02*
X2800000Y260000D01*
X2784617Y246758D01*
X2784617Y270408D01*
X2800000Y260000D01*
D02*
G37*
X2784617Y246758D01*
X2784617Y270408D01*
X2800000Y260000D01*
X-10000Y-330000D02*
X-10000Y-256630D01*
X-10000Y-330000D02*
X346331Y-330000D01*
X3553307Y-330000D02*
X3196976Y-330000D01*
X3553307Y-330000D02*
X3553307Y-256630D01*
X3553307Y403701D02*
X3553307Y330331D01*
X3553307Y403701D02*
X3196976Y403701D01*
X-10000Y403701D02*
X346331Y403701D01*
X-10000Y403701D02*
X-10000Y330331D01*
X-206850Y-330000D02*
X-600551Y-330000D01*
X-403701Y-526850D02*
X-403701Y-133150D01*
X-551339Y-330000D02*
G75*
D01*
G02X-551339Y-330000I147638J0*
G01*
X3750157Y-330000D02*
X4143858Y-330000D01*
X3947008Y-526850D02*
X3947008Y-133150D01*
X3799370Y-330000D02*
G75*
D01*
G02X3799370Y-330000I147638J0*
G01*
X3897795Y-330000D02*
G75*
D01*
G02X3897795Y-330000I49213J0*
G01*
X-206850Y403701D02*
X-600551Y403701D01*
X-403701Y206850D02*
X-403701Y600551D01*
X-551339Y403701D02*
G75*
D01*
G02X-551339Y403701I147638J0*
G01*
X-502126Y403701D02*
G75*
D01*
G02X-502126Y403701I98425J0*
G01*
X-452913Y403701D02*
G75*
D01*
G02X-452913Y403701I49212J0*
G01*
X-10000Y-330000D02*
X-10000Y-256630D01*
X-10000Y-330000D02*
X346331Y-330000D01*
X3553307Y-330000D02*
X3196976Y-330000D01*
X3553307Y-330000D02*
X3553307Y-256630D01*
X3553307Y403701D02*
X3553307Y330331D01*
X3553307Y403701D02*
X3196976Y403701D01*
X-10000Y403701D02*
X346331Y403701D01*
X-10000Y403701D02*
X-10000Y330331D01*
X-206850Y-330000D02*
X-600551Y-330000D01*
X-403701Y-526850D02*
X-403701Y-133150D01*
X-551339Y-330000D02*
G75*
D01*
G02X-551339Y-330000I147638J0*
G01*
X3750157Y-330000D02*
X4143858Y-330000D01*
X3947008Y-526850D02*
X3947008Y-133150D01*
X3799370Y-330000D02*
G75*
D01*
G02X3799370Y-330000I147638J0*
G01*
X3897795Y-330000D02*
G75*
D01*
G02X3897795Y-330000I49213J0*
G01*
X-206850Y403701D02*
X-600551Y403701D01*
X-403701Y206850D02*
X-403701Y600551D01*
X-551339Y403701D02*
G75*
D01*
G02X-551339Y403701I147638J0*
G01*
X-502126Y403701D02*
G75*
D01*
G02X-502126Y403701I98425J0*
G01*
X-452913Y403701D02*
G75*
D01*
G02X-452913Y403701I49212J0*
G01*
G54D13*
X2269072Y237126D02*
G75*
D01*
G02X2282008Y250062I12936J0*
G01*
X2307992Y250062D01*
G74*
D01*
G02X2320928Y237126I0J12936*
G01*
X2320928Y214291D01*
G75*
D01*
G02X2307992Y201355I-12936J0*
G01*
X2282008Y201355D01*
G75*
D01*
G02X2269072Y214291I0J12936*
G01*
X2269072Y237126D01*
X1252874Y199072D02*
G75*
D01*
G02X1239938Y212008I0J12936*
G01*
X1239938Y237992D01*
G75*
D01*
G02X1252874Y250928I12936J0*
G01*
X1275709Y250928D01*
G74*
D01*
G02X1288645Y237992I0J12936*
G01*
X1288645Y212008D01*
G75*
D01*
G02X1275709Y199072I-12936J0*
G01*
X1252874Y199072D01*
X785831Y160079D02*
G74*
D01*
G02X787381Y154173I10477J5906*
G01*
X787381Y140394D01*
G75*
D01*
G02X775354Y128367I-12027J0*
G01*
X716299Y128367D01*
G75*
D01*
G02X704273Y140394I0J12027*
G01*
X704273Y154173D01*
G74*
D01*
G02X705823Y160079I12026J0*
G01*
G75*
D01*
G02X704273Y165984I10476J5905*
G01*
X704273Y179764D01*
G74*
D01*
G02X705823Y185669I12026J0*
G01*
G75*
D01*
G02X704273Y191575I10476J5906*
G01*
X704273Y205354D01*
G74*
D01*
G02X705823Y211260I12026J0*
G01*
G75*
D01*
G02X704273Y217165I10476J5905*
G01*
X704273Y230945D01*
G74*
D01*
G02X705823Y236850I12026J0*
G01*
G75*
D01*
G02X704273Y242756I10476J5906*
G01*
X704273Y256535D01*
G74*
D01*
G02X705823Y262441I12026J0*
G01*
G75*
D01*
G02X704273Y268346I10476J5905*
G01*
X704273Y282126D01*
G74*
D01*
G02X705823Y288031I12026J0*
G01*
G75*
D01*
G02X704273Y293937I10476J5906*
G01*
X704273Y307717D01*
G74*
D01*
G02X705823Y313622I12026J0*
G01*
G75*
D01*
G02X704273Y319528I10476J5906*
G01*
X704273Y333307D01*
G75*
D01*
G02X716299Y345333I12026J0*
G01*
X721297Y345333D01*
G75*
D01*
G02X723703Y345333I1203J-17833*
G01*
X743797Y345333D01*
G75*
D01*
G02X746203Y345333I1203J-17833*
G01*
X766297Y345333D01*
G75*
D01*
G02X768703Y345333I1203J-17833*
G01*
X775354Y345333D01*
G74*
D01*
G02X787381Y333307I0J12026*
G01*
X787381Y319528D01*
G75*
D01*
G02X785831Y313622I-12027J0*
G01*
G74*
D01*
G02X787381Y307717I10477J5905*
G01*
X787381Y293937D01*
G75*
D01*
G02X785831Y288031I-12027J0*
G01*
G74*
D01*
G02X787381Y282126I10477J5905*
G01*
X787381Y268346D01*
G75*
D01*
G02X785831Y262441I-12027J0*
G01*
G74*
D01*
G02X787381Y256535I10477J5906*
G01*
X787381Y242756D01*
G75*
D01*
G02X785831Y236850I-12027J0*
G01*
G74*
D01*
G02X787381Y230945I10477J5905*
G01*
X787381Y217165D01*
G75*
D01*
G02X785831Y211260I-12027J0*
G01*
G74*
D01*
G02X787381Y205354I10477J5906*
G01*
X787381Y191575D01*
G75*
D01*
G02X785831Y185669I-12027J0*
G01*
G74*
D01*
G02X787381Y179764I10477J5905*
G01*
X787381Y165984D01*
G75*
D01*
G02X785831Y160079I-12027J0*
G01*
X685928Y152874D02*
G75*
D01*
G02X672992Y139938I-12936J0*
G01*
X647008Y139938D01*
G75*
D01*
G02X634072Y152874I0J12936*
G01*
X634072Y175709D01*
G75*
D01*
G02X647008Y188645I12936J0*
G01*
X672992Y188645D01*
G74*
D01*
G02X685928Y175709I0J12936*
G01*
X685928Y152874D01*
X622621Y139803D02*
G75*
D01*
G02X609685Y126867I-12936J0*
G01*
X570315Y126867D01*
G75*
D01*
G02X557379Y139803I0J12936*
G01*
X557379Y177205D01*
G75*
D01*
G02X570315Y190141I12936J0*
G01*
X609685Y190141D01*
G74*
D01*
G02X622621Y177205I0J12936*
G01*
X622621Y139803D01*
X704273Y102992D02*
G75*
D01*
G02X716299Y115019I12026J0*
G01*
X775354Y115019D01*
G74*
D01*
G02X787381Y102992I0J12027*
G01*
X787381Y89213D01*
G75*
D01*
G02X775354Y77186I-12027J0*
G01*
X716299Y77186D01*
G75*
D01*
G02X704273Y89213I0J12027*
G01*
X704273Y102992D01*
X3375372Y301210D02*
G75*
D01*
G02X3375372Y301210I38622J0*
G01*
X3437588Y238994D02*
G75*
D01*
G02X3437588Y238994I38622J0*
G01*
X3287384Y88790D02*
G75*
D01*
G02X3287384Y88790I38622J0*
G01*
X1880354Y185518D02*
X1799646Y185518D01*
G75*
D01*
G02X1790810Y188398I0J14994*
G01*
X1815292Y163916D01*
X1845260Y154482D01*
X1880354Y154482D01*
G74*
D01*
G02X1890012Y150957I0J14994*
G01*
X1899505Y150957D01*
G75*
D01*
G02X1948465Y188551I48960J-13083*
G01*
X2023268Y188551D01*
G74*
D01*
G02X2049534Y181213I0J50677*
G01*
X2049534Y208740D01*
G75*
D01*
G02X2064606Y223813I15072J0*
G01*
X2123661Y223813D01*
G74*
D01*
G02X2138734Y208740I0J15073*
G01*
X2138734Y169370D01*
G75*
D01*
G02X2135077Y159528I-15073J0*
G01*
G74*
D01*
G02X2138028Y154244I11416J9843*
G01*
G75*
D01*
G02X2150315Y163133I12287J-4047*
G01*
X2189685Y163133D01*
G74*
D01*
G02X2202621Y150197I0J12936*
G01*
X2202621Y112795D01*
G75*
D01*
G02X2191590Y100000I-12936J0*
G01*
G74*
D01*
G02X2202621Y87205I1905J12795*
G01*
X2202621Y85099D01*
X2218156Y80097D01*
X2598813Y80097D01*
G74*
D01*
G02X2601593Y79904I0J20097*
G01*
G74*
D01*
G02X2621484Y71664I2780J34841*
G01*
G74*
D01*
G02X2623585Y69836I12109J16039*
G01*
X2689194Y4227D01*
G74*
D01*
G02X2689210Y4211I14194J14227*
G01*
X2729202Y-35781D01*
G74*
D01*
G02X2729210Y-35789I14202J14219*
G01*
X2735047Y-41626D01*
G74*
D01*
G02X2735223Y-41800I14035J14386*
G01*
G75*
D01*
G03X2794010Y-66150I58787J58787*
G01*
G74*
D01*
G02X2794258Y-66152I0J20098*
G01*
X2867039Y-66152D01*
G74*
D01*
G02X2861098Y-62766I3206J12533*
G01*
X2844951Y-46620D01*
G75*
D01*
G02X2844951Y-28325I9148J9147*
G01*
X2863325Y-9952D01*
G75*
D01*
G02X2881620Y-9952I9147J-9147*
G01*
X2897766Y-26098D01*
G74*
D01*
G02X2901186Y-32176I9147J9147*
G01*
X2906967Y-26894D01*
X2946361Y12500D01*
G74*
D01*
G02X2936963Y17772I3639J17500*
G01*
X2936028Y18084D01*
G75*
D01*
G02X2934397Y41242I3972J11916*
G01*
X2937535Y42811D01*
G74*
D01*
G02X2938003Y43250I12465J12811*
G01*
X2937467Y43393D01*
G74*
D01*
G02X2932654Y45965I3113J11617*
G01*
G75*
D01*
G02X2927200Y46144I-2342J11796*
G01*
X2924603Y46840D01*
X2907371Y29608D01*
X2896046Y6989D01*
G74*
D01*
G02X2894854Y5057I11241J5605*
G01*
G75*
D01*
G02X2864299Y6459I-14854J9943*
G01*
X2849889Y-14999D01*
G74*
D01*
G02X2848473Y-16746I10428J7003*
G01*
G75*
D01*
G02X2823253Y8472I-13473J11746*
G01*
G74*
D01*
G02X2825014Y9897I8751J9011*
G01*
X2841461Y20942D01*
G75*
D01*
G02X2841631Y49189I11039J14058*
G01*
G74*
D01*
G02X2843488Y50506I8162J9547*
G01*
X2865688Y63452D01*
X2866325Y64089D01*
X2877882Y80445D01*
X2878780Y83797D01*
G75*
D01*
G02X2893510Y92301I11617J-3113*
G01*
X2896552Y91485D01*
G74*
D01*
G02X2901365Y88914I3113J11616*
G01*
G75*
D01*
G02X2906820Y88734I2342J-11796*
G01*
X2909862Y87919D01*
G74*
D01*
G02X2914675Y85347I3113J11617*
G01*
G74*
D01*
G02X2914732Y85358I2342J11796*
G01*
X2912443Y96341D01*
G74*
D01*
G02X2912183Y98576I12296J2562*
G01*
G75*
D01*
G02X2947845Y98984I17817J1424*
G01*
G74*
D01*
G02X2947635Y96735I12560J40*
G01*
X2946646Y91378D01*
X2948766Y95617D01*
G75*
D01*
G02X2968338Y99394I11234J-5617*
G01*
G74*
D01*
G02X2979394Y88338I5838J16894*
G01*
G75*
D01*
G02X2977331Y69801I-9394J-8338*
G01*
G75*
D01*
G02X2984916Y55358I-4032J-11331*
G01*
X2983341Y49480D01*
X2988071Y54211D01*
G74*
D01*
G02X2994761Y58637I14211J14211*
G01*
X3010126Y85524D01*
G75*
D01*
G02X3009897Y95129I16241J5192*
G01*
X3012801Y105967D01*
G75*
D01*
G02X3033684Y118024I16470J-4413*
G01*
X3035987Y117407D01*
X3105399Y378628D01*
X15073Y378628D01*
X15073Y5073D01*
X2570000Y5073D01*
G74*
D01*
G02X2580678Y637I0J15073*
G01*
X2886243Y-304927D01*
X3167064Y-304927D01*
X3528235Y56243D01*
X3528235Y378628D01*
X3358904Y378628D01*
X3248881Y178959D01*
X3139373Y-154542D01*
G74*
D01*
G02X3138685Y-156319I14373J4542*
G01*
G75*
D01*
G02X2971036Y-79285I-83753J38672*
G01*
X3004157Y13454D01*
X2935387Y-55316D01*
X2928837Y-62485D01*
G75*
D01*
G02X2925048Y-71675I-12936J-42*
G01*
X2906675Y-90048D01*
G74*
D01*
G02X2900780Y-93422I9148J9147*
G01*
X2899575Y-94627D01*
G74*
D01*
G02X2899541Y-94661I14228J14194*
G01*
X2897219Y-96982D01*
G74*
D01*
G02X2894916Y-98961I14210J14210*
G01*
G74*
D01*
G02X2877648Y-106115I20300J24582*
G01*
G74*
D01*
G02X2874616Y-106345I3032J19867*
G01*
X2794258Y-106345D01*
G74*
D01*
G02X2794010Y-106347I248J20097*
G01*
G75*
D01*
G02X2706800Y-70223I0J123334*
G01*
G74*
D01*
G02X2706626Y-70047I14212J14211*
G01*
X2660806Y-24227D01*
G74*
D01*
G02X2660789Y-24211I14194J14227*
G01*
X2596676Y39903D01*
X2215028Y39903D01*
G75*
D01*
G02X2214972Y39903I-28J20097*
G01*
X2198012Y39903D01*
G74*
D01*
G02X2189685Y36867I8327J9900*
G01*
X2150315Y36867D01*
G75*
D01*
G02X2137877Y46249I0J12936*
G01*
G74*
D01*
G02X2123661Y36187I14216J5011*
G01*
X2064606Y36187D01*
G75*
D01*
G02X2051741Y43407I0J15073*
G01*
X1740017Y43407D01*
X1729431Y32821D01*
G74*
D01*
G02X1715197Y26911I14234J14187*
G01*
X1705000Y26911D01*
G75*
D01*
G02X1698760Y27904I0J20097*
G01*
X1691732Y27904D01*
G75*
D01*
G02X1681734Y36950I0J10049*
G01*
X1667006Y51678D01*
G74*
D01*
G02X1665997Y52794I10658J10658*
G01*
G74*
D01*
G02X1657026Y68004I30170J28045*
G01*
G74*
D01*
G02X1652047Y66684I4979J8728*
G01*
X1645431Y66684D01*
X1592449Y13702D01*
G74*
D01*
G02X1591106Y12536I8881J8882*
G01*
G74*
D01*
G02X1579105Y7566I13776J16285*
G01*
G74*
D01*
G02X1577330Y7440I1775J12434*
G01*
X380053Y7440D01*
G74*
D01*
G02X378433Y7336I1620J12560*
G01*
G75*
D01*
G02X247278Y61662I0J185480*
G01*
G74*
D01*
G02X246207Y62880I8956J8955*
G01*
X173883Y135204D01*
X160617Y140619D01*
G75*
D01*
G02X130000Y152307I-5617J31231*
G01*
G75*
D01*
G02X80000Y152307I-25000J19543*
G01*
G75*
D01*
G02X35457Y196850I-25000J19543*
G01*
G75*
D01*
G02X80000Y241394I19543J25000*
G01*
G75*
D01*
G02X130000Y241394I25000J-19544*
G01*
G75*
D01*
G02X180000Y241394I25000J-19544*
G01*
G75*
D01*
G02X230000Y241394I25000J-19544*
G01*
G75*
D01*
G02X280000Y241394I25000J-19544*
G01*
G75*
D01*
G02X330000Y241394I25000J-19544*
G01*
G75*
D01*
G02X374543Y196850I25000J-19544*
G01*
G74*
D01*
G02X380000Y191394I19543J25000*
G01*
G75*
D01*
G02X430000Y191394I25000J-19544*
G01*
G75*
D01*
G02X480000Y191394I25000J-19544*
G01*
G75*
D01*
G02X480000Y152307I25000J-19544*
G01*
G75*
D01*
G02X430000Y152307I-25000J19543*
G01*
G75*
D01*
G02X380000Y152307I-25000J19543*
G01*
G75*
D01*
G02X330000Y152307I-25000J19543*
G01*
G75*
D01*
G02X280000Y152307I-25000J19543*
G01*
G75*
D01*
G02X254491Y140122I-25000J19543*
G01*
X304063Y90550D01*
G74*
D01*
G02X305177Y89560I7829J9933*
G01*
G75*
D01*
G03X406362Y47648I101185J101185*
G01*
G74*
D01*
G02X407850Y47560I0J12648*
G01*
X1228261Y47560D01*
G74*
D01*
G02X1224359Y48777I1739J12440*
G01*
X1209297Y56308D01*
G75*
D01*
G02X1196926Y69232I565J12924*
G01*
X1196926Y70871D01*
G74*
D01*
G02X1186371Y68046I12503J25585*
G01*
G74*
D01*
G02X1184423Y67920I1948J14946*
G01*
X1129388Y67920D01*
X1115306Y65781D01*
G74*
D01*
G02X1108268Y62904I7038J7172*
G01*
X1091732Y62904D01*
G75*
D01*
G02X1081684Y72953I0J10049*
G01*
X1081684Y91063D01*
G75*
D01*
G02X1091732Y101111I10048J0*
G01*
X1108268Y101111D01*
G74*
D01*
G02X1113784Y99462I0J10048*
G01*
G75*
D01*
G02X1111355Y107008I10507J7546*
G01*
X1111355Y132992D01*
G75*
D01*
G02X1124291Y145928I12936J0*
G01*
X1147126Y145928D01*
G74*
D01*
G02X1155000Y143256I0J12936*
G01*
G75*
D01*
G02X1162874Y145928I7874J-10264*
G01*
X1185709Y145928D01*
G74*
D01*
G02X1198639Y133389I0J12936*
G01*
X1203257Y131537D01*
G75*
D01*
G02X1209862Y133350I6605J-11124*
G01*
X1238264Y133350D01*
X1238264Y185374D01*
G75*
D01*
G02X1251201Y198310I12937J0*
G01*
X1357500Y198310D01*
G74*
D01*
G02X1368359Y192405I0J12936*
G01*
X1394903Y192405D01*
X1394903Y201676D01*
X1341676Y254903D01*
X1257317Y254903D01*
G74*
D01*
G02X1256667Y254893I650J20097*
G01*
G75*
D01*
G03X1191220Y227784I0J-92556*
G01*
G74*
D01*
G02X1190752Y227331I14218J14218*
G01*
X1068525Y105104D01*
G74*
D01*
G02X1058519Y99644I14234J14187*
G01*
G74*
D01*
G02X1060928Y92126I10527J7518*
G01*
X1060928Y69291D01*
G75*
D01*
G02X1047992Y56355I-12936J0*
G01*
X1022008Y56355D01*
G75*
D01*
G02X1009072Y69291I0J12936*
G01*
X1009072Y78452D01*
G74*
D01*
G02X1003701Y77186I5371J10761*
G01*
X944646Y77186D01*
G75*
D01*
G02X932619Y89213I0J12027*
G01*
X932619Y102992D01*
G74*
D01*
G02X934169Y108898I12027J0*
G01*
G75*
D01*
G02X932619Y114803I10477J5905*
G01*
X932619Y128583D01*
G74*
D01*
G02X934169Y134488I12027J0*
G01*
G75*
D01*
G02X932619Y140394I10477J5906*
G01*
X932619Y154173D01*
G74*
D01*
G02X934169Y160079I12027J0*
G01*
G75*
D01*
G02X932619Y165984I10477J5905*
G01*
X932619Y179764D01*
G74*
D01*
G02X934169Y185669I12027J0*
G01*
G75*
D01*
G02X932619Y191575I10477J5906*
G01*
X932619Y205354D01*
G74*
D01*
G02X934169Y211260I12027J0*
G01*
G75*
D01*
G02X932619Y217165I10477J5905*
G01*
X932619Y230945D01*
G74*
D01*
G02X934169Y236850I12027J0*
G01*
G75*
D01*
G02X932619Y242756I10477J5906*
G01*
X932619Y256535D01*
G74*
D01*
G02X934169Y262441I12027J0*
G01*
G75*
D01*
G02X932619Y268346I10477J5905*
G01*
X932619Y282126D01*
G74*
D01*
G02X934169Y288031I12027J0*
G01*
G75*
D01*
G02X932619Y293937I10477J5906*
G01*
X932619Y307717D01*
G74*
D01*
G02X934169Y313622I12027J0*
G01*
G75*
D01*
G02X932619Y319528I10477J5906*
G01*
X932619Y333307D01*
G75*
D01*
G02X944646Y345333I12027J0*
G01*
X1003701Y345333D01*
G74*
D01*
G02X1010127Y343472I0J12026*
G01*
X1015273Y344748D01*
G75*
D01*
G02X1022953Y348316I7680J-6480*
G01*
X1041063Y348316D01*
G74*
D01*
G02X1045000Y347513I0J10048*
G01*
G75*
D01*
G02X1048937Y348316I3937J-9245*
G01*
X1067047Y348316D01*
G74*
D01*
G02X1077096Y338268I0J10048*
G01*
X1077096Y321732D01*
G75*
D01*
G02X1067047Y311684I-10049J0*
G01*
X1048937Y311684D01*
G75*
D01*
G02X1045000Y312487I0J10048*
G01*
G74*
D01*
G02X1041063Y311684I3937J9245*
G01*
X1032895Y311684D01*
G74*
D01*
G02X1032214Y311661I851J15048*
G01*
X1031455Y311652D01*
G74*
D01*
G02X1028425Y311345I3030J14765*
G01*
X1015167Y311345D01*
G74*
D01*
G02X1015727Y307717I11466J3628*
G01*
X1015727Y293937D01*
G75*
D01*
G02X1014177Y288031I-12026J0*
G01*
G74*
D01*
G02X1015727Y282126I10476J5905*
G01*
X1015727Y268346D01*
G75*
D01*
G02X1014177Y262441I-12026J0*
G01*
G74*
D01*
G02X1015727Y256535I10476J5906*
G01*
X1015727Y242756D01*
G75*
D01*
G02X1014177Y236850I-12026J0*
G01*
G74*
D01*
G02X1015727Y230945I10476J5905*
G01*
X1015727Y217165D01*
G75*
D01*
G02X1014177Y211260I-12026J0*
G01*
G74*
D01*
G02X1015727Y205354I10476J5906*
G01*
X1015727Y191575D01*
G75*
D01*
G02X1014177Y185669I-12026J0*
G01*
G74*
D01*
G02X1015727Y179764I10476J5905*
G01*
X1015727Y165984D01*
G75*
D01*
G02X1014177Y160079I-12026J0*
G01*
G74*
D01*
G02X1015727Y154173I10476J5906*
G01*
X1015727Y142018D01*
G75*
D01*
G02X1022008Y143645I6281J-11309*
G01*
X1047992Y143645D01*
G74*
D01*
G02X1050058Y143479I0J12936*
G01*
X1162332Y255753D01*
G74*
D01*
G02X1162784Y256220I14670J13751*
G01*
G75*
D01*
G02X1256667Y295107I93883J-93883*
G01*
G74*
D01*
G02X1257317Y295097I0J20107*
G01*
X1342340Y295097D01*
G74*
D01*
G02X1344909Y294932I0J20097*
G01*
G74*
D01*
G02X1367695Y285493I2569J38426*
G01*
G74*
D01*
G02X1369627Y283794I12278J15910*
G01*
X1422405Y231016D01*
G75*
D01*
G02X1435315Y243133I12910J-819*
G01*
X1474685Y243133D01*
G74*
D01*
G02X1487621Y230197I0J12936*
G01*
X1487621Y192795D01*
G75*
D01*
G02X1487482Y190903I-12936J0*
G01*
X1509903Y213324D01*
X1509903Y255417D01*
G74*
D01*
G02X1510146Y258528I20097J0*
G01*
G74*
D01*
G02X1517001Y275079I30919J3111*
G01*
G74*
D01*
G02X1519030Y277451I16240J11838*
G01*
X1569123Y327544D01*
G74*
D01*
G02X1569629Y328032I14210J14211*
G01*
G74*
D01*
G02X1647011Y360084I78083J79078*
G01*
G75*
D01*
G02X1647712Y360097I701J-20084*
G01*
X2613365Y360097D01*
X2623352Y360322D01*
G75*
D01*
G02X2632008Y363645I8656J-9613*
G01*
X2657992Y363645D01*
G74*
D01*
G02X2667169Y359826I0J12936*
G01*
X2676870Y359388D01*
X2678346Y359388D01*
X2684647Y359526D01*
G75*
D01*
G02X2697756Y367159I13109J-7439*
G01*
X2735157Y367159D01*
G74*
D01*
G02X2745000Y363502I0J15072*
G01*
G75*
D01*
G02X2754843Y367159I9843J-11415*
G01*
X2792244Y367159D01*
G74*
D01*
G02X2807317Y352087I0J15072*
G01*
X2807317Y310748D01*
G75*
D01*
G02X2792244Y295675I-15073J0*
G01*
X2754843Y295675D01*
G75*
D01*
G02X2745000Y299333I0J15073*
G01*
G74*
D01*
G02X2735157Y295675I9843J11415*
G01*
X2697756Y295675D01*
G75*
D01*
G02X2682683Y310748I0J15073*
G01*
X2682683Y315268D01*
X2674401Y319083D01*
X2669049Y318841D01*
G74*
D01*
G02X2670928Y312126I11057J6715*
G01*
X2670928Y304224D01*
X2681746Y292384D01*
X2685756Y288373D01*
G75*
D01*
G02X2697756Y294325I12000J-9121*
G01*
X2735157Y294325D01*
G74*
D01*
G02X2745000Y290667I0J15073*
G01*
G75*
D01*
G02X2754843Y294325I9843J-11415*
G01*
X2792244Y294325D01*
G74*
D01*
G02X2807317Y279252I0J15073*
G01*
X2807317Y270259D01*
G74*
D01*
G02X2828449Y259251I8524J42155*
G01*
G74*
D01*
G02X2829226Y258537I8105J9595*
G01*
X2910500Y177263D01*
X2910500Y186214D01*
X2896112Y194422D01*
G74*
D01*
G02X2894265Y195709I6225J10910*
G01*
G75*
D01*
G02X2919292Y220734I10735J14291*
G01*
G74*
D01*
G02X2920597Y218854I9624J8071*
G01*
X2923810Y213222D01*
X2923810Y234264D01*
G74*
D01*
G02X2923828Y234938I12560J0*
G01*
G74*
D01*
G03X2921533Y241283I11779J674*
G01*
X2921294Y241355D01*
X2902008Y241355D01*
G75*
D01*
G02X2889072Y254291I0J12936*
G01*
X2889072Y277126D01*
G74*
D01*
G02X2891744Y285000I12936J0*
G01*
G75*
D01*
G02X2889072Y292874I10264J7874*
G01*
X2889072Y315709D01*
G75*
D01*
G02X2902008Y328645I12936J0*
G01*
X2927992Y328645D01*
G74*
D01*
G02X2940928Y315709I0J12936*
G01*
X2940928Y300236D01*
X2945744Y305052D01*
X2957904Y320416D01*
X2957904Y323268D01*
G75*
D01*
G02X2967953Y333316I10049J0*
G01*
X2986063Y333316D01*
G74*
D01*
G02X2990000Y332513I0J10048*
G01*
G75*
D01*
G02X2993937Y333316I3937J-9245*
G01*
X3012047Y333316D01*
G74*
D01*
G02X3022096Y323268I0J10048*
G01*
X3022096Y306732D01*
G75*
D01*
G02X3017978Y298621I-10049J0*
G01*
G74*
D01*
G02X3017860Y297762I14986J1615*
G01*
G74*
D01*
G02X3013167Y286431I21996J2474*
G01*
G74*
D01*
G02X3012791Y285928I12263J8765*
G01*
X3025709Y285928D01*
G74*
D01*
G02X3038645Y272992I0J12936*
G01*
X3038645Y247008D01*
G75*
D01*
G02X3025709Y234072I-12936J0*
G01*
X3002874Y234072D01*
G75*
D01*
G02X2995000Y236744I0J12936*
G01*
G74*
D01*
G02X2987126Y234072I7874J10264*
G01*
X2969670Y234072D01*
X2966085Y232542D01*
G74*
D01*
G03X2962222Y222385I13217J10840*
G01*
G74*
D01*
G02X2962241Y221702I12542J683*
G01*
X2962241Y159948D01*
X2962512Y153834D01*
X2967999Y157950D01*
G74*
D01*
G02X2976529Y164347I14501J10450*
G01*
X2977464Y165048D01*
G75*
D01*
G02X2997307Y157512I7536J-10048*
G01*
G75*
D01*
G02X3000019Y143953I-14807J-10012*
G01*
X3000915Y139470D01*
G75*
D01*
G02X3004276Y127612I-8255J-8745*
G01*
X3001219Y116203D01*
G75*
D01*
G02X2986490Y107699I-11616J3113*
G01*
X2983448Y108515D01*
G74*
D01*
G02X2978635Y111086I3113J11616*
G01*
G75*
D01*
G02X2973180Y111266I-2342J11796*
G01*
X2970138Y112081D01*
G74*
D01*
G02X2965325Y114653I3113J11617*
G01*
G75*
D01*
G02X2959870Y114832I-2342J11796*
G01*
X2956828Y115647D01*
G74*
D01*
G02X2952015Y118219I3113J11617*
G01*
G75*
D01*
G02X2946560Y118399I-2342J11796*
G01*
X2943518Y119214D01*
G74*
D01*
G02X2938705Y121785I3113J11616*
G01*
G75*
D01*
G02X2933250Y121965I-2342J11797*
G01*
X2930208Y122780D01*
G74*
D01*
G02X2925395Y125352I3113J11617*
G01*
G75*
D01*
G02X2919940Y125531I-2342J11796*
G01*
X2916898Y126347D01*
G74*
D01*
G02X2912085Y128918I3113J11616*
G01*
G75*
D01*
G02X2906630Y129098I-2342J11796*
G01*
X2903588Y129913D01*
G75*
D01*
G02X2895084Y144642I3113J11617*
G01*
X2896362Y149411D01*
X2897070Y155167D01*
X2819573Y232664D01*
X2811463Y240774D01*
G74*
D01*
G02X2810993Y241270I8881J8882*
G01*
G74*
D01*
G03X2807317Y243901I12200J13166*
G01*
X2807317Y237913D01*
G75*
D01*
G02X2792244Y222841I-15073J0*
G01*
X2754843Y222841D01*
G75*
D01*
G02X2745000Y226498I0J15072*
G01*
G74*
D01*
G02X2735157Y222841I9843J11415*
G01*
X2697756Y222841D01*
G75*
D01*
G02X2682683Y237913I0J15072*
G01*
X2682683Y240943D01*
G74*
D01*
G02X2667758Y249724I14220J41243*
G01*
G74*
D01*
G02X2666002Y251285I12455J15772*
G01*
X2653326Y263962D01*
X2639760Y276355D01*
X2632008Y276355D01*
G75*
D01*
G02X2619072Y289291I0J12936*
G01*
X2619072Y312126D01*
G74*
D01*
G02X2621268Y319337I12936J0*
G01*
X2612910Y319903D01*
X1647712Y319903D01*
G75*
D01*
G02X1647151Y319911I0J20097*
G01*
G74*
D01*
G03X1597934Y299524I561J70957*
G01*
G74*
D01*
G02X1597544Y299123I14601J13809*
G01*
X1550097Y251676D01*
X1550097Y209583D01*
G75*
D01*
G02X1549854Y206472I-20097J0*
G01*
G74*
D01*
G02X1542998Y189920I30919J3111*
G01*
G74*
D01*
G02X1540970Y187549I16239J11839*
G01*
X1504229Y150808D01*
G74*
D01*
G02X1504205Y150783I14223J14198*
G01*
X1487738Y134317D01*
G74*
D01*
G02X1487621Y134201I14234J14187*
G01*
X1487621Y129803D01*
G75*
D01*
G02X1474685Y116867I-12936J0*
G01*
X1455399Y116867D01*
G74*
D01*
G02X1463316Y107047I2131J9820*
G01*
X1463316Y90169D01*
X1463668Y90166D01*
X1477631Y91791D01*
G75*
D01*
G02X1482953Y93316I5322J-8523*
G01*
X1491365Y93316D01*
G75*
D01*
G02X1491895Y93316I265J-15070*
G01*
X1501063Y93316D01*
G74*
D01*
G02X1505000Y92513I0J10048*
G01*
G75*
D01*
G02X1508937Y93316I3937J-9245*
G01*
X1527047Y93316D01*
G74*
D01*
G02X1537096Y83268I0J10048*
G01*
X1537096Y80217D01*
G75*
D01*
G02X1537096Y69783I-17096J-5217*
G01*
X1537096Y66732D01*
G75*
D01*
G02X1527047Y56684I-10049J0*
G01*
X1508937Y56684D01*
G75*
D01*
G02X1505000Y57487I0J10048*
G01*
G74*
D01*
G02X1501063Y56684I3937J9245*
G01*
X1491895Y56684D01*
G75*
D01*
G02X1491486Y56682I-265J15070*
G01*
G74*
D01*
G02X1491365Y56684I144J15072*
G01*
X1482953Y56684D01*
G75*
D01*
G02X1477631Y58209I0J10048*
G01*
X1470731Y59012D01*
X1461272Y56878D01*
G74*
D01*
G02X1453268Y52904I8004J6075*
G01*
X1436732Y52904D01*
G75*
D01*
G02X1426734Y61950I0J10049*
G01*
X1412082Y76602D01*
G74*
D01*
G02X1411775Y76918I10658J10658*
G01*
X1411775Y69232D01*
G75*
D01*
G02X1398839Y56296I-12936J0*
G01*
X1395678Y56296D01*
X1380617Y48766D01*
G74*
D01*
G02X1376739Y47560I5617J11234*
G01*
X1539797Y47560D01*
X1557440Y65203D01*
X1557440Y226464D01*
G74*
D01*
G02X1557569Y228261I12560J0*
G01*
G74*
D01*
G02X1562439Y240019I20966J1797*
G01*
G74*
D01*
G02X1563618Y241382I10061J7519*
G01*
X1618618Y296382D01*
G74*
D01*
G02X1619981Y297561I8882J8882*
G01*
G74*
D01*
G02X1631739Y302431I13555J16096*
G01*
G75*
D01*
G02X1633536Y302560I1797J-12431*
G01*
X2101608Y302560D01*
G75*
D01*
G02X2102574Y302598I966J-12560*
G01*
G74*
D01*
G02X2183908Y268908I0J115024*
G01*
G74*
D01*
G02X2184564Y268199I8908J8908*
G01*
X2241525Y211239D01*
G74*
D01*
G02X2242728Y209845I8882J8882*
G01*
G74*
D01*
G02X2247100Y200741I15775J13178*
G01*
G75*
D01*
G02X2249291Y200928I2191J-12749*
G01*
X2272126Y200928D01*
G74*
D01*
G02X2280000Y198256I0J12936*
G01*
G75*
D01*
G02X2287874Y200928I7874J-10264*
G01*
X2310709Y200928D01*
G74*
D01*
G02X2323639Y188389I0J12936*
G01*
X2331462Y185251D01*
G75*
D01*
G02X2339862Y188350I8400J-9838*
G01*
X2368264Y188350D01*
X2368264Y240374D01*
G75*
D01*
G02X2381201Y253310I12937J0*
G01*
X2487500Y253310D01*
G74*
D01*
G02X2498359Y247405I0J12936*
G01*
X2510616Y247405D01*
X2512374Y249162D01*
G74*
D01*
G02X2519426Y253139I10657J10658*
G01*
G75*
D01*
G02X2523031Y253576I3605J-14635*
G01*
X2551240Y253576D01*
G75*
D01*
G02X2547379Y262795I9075J9219*
G01*
X2547379Y300197D01*
G75*
D01*
G02X2560315Y313133I12936J0*
G01*
X2599685Y313133D01*
G74*
D01*
G02X2612621Y300197I0J12936*
G01*
X2612621Y262795D01*
G75*
D01*
G02X2601590Y250000I-12936J0*
G01*
G74*
D01*
G02X2612621Y237205I1905J12795*
G01*
X2612621Y223900D01*
X2625397Y208024D01*
X2684675Y148746D01*
G74*
D01*
G02X2684749Y148671I14211J14210*
G01*
X2714476Y118945D01*
G74*
D01*
G02X2715906Y117354I14210J14211*
G01*
G74*
D01*
G02X2729025Y85683I36827J33807*
G01*
G74*
D01*
G02X2729138Y83547I19983J2136*
G01*
X2729138Y67050D01*
X2734791Y61397D01*
X2749758Y53645D01*
X2751979Y53645D01*
X2766648Y60069D01*
X2819573Y112994D01*
X2819573Y112994D01*
X2824894Y118315D01*
X2832378Y135153D01*
G75*
D01*
G02X2832684Y142613I16776J3047*
G01*
X2835588Y153451D01*
G75*
D01*
G02X2856471Y165508I16470J-4413*
G01*
X2867879Y162451D01*
G75*
D01*
G02X2879936Y141569I-4413J-16470*
G01*
X2877032Y130730D01*
G74*
D01*
G02X2867299Y119480I16470J4413*
G01*
G75*
D01*
G02X2870103Y104871I-13666J-10196*
G01*
X2867199Y94033D01*
G75*
D01*
G02X2846316Y81976I-16470J4413*
G01*
X2845591Y82170D01*
X2819573Y56152D01*
X2792403Y28982D01*
G74*
D01*
G02X2792379Y28958I14223J14198*
G01*
X2779234Y15813D01*
G74*
D01*
G02X2774717Y12409I14234J14187*
G01*
G74*
D01*
G02X2773256Y10000I11725J5465*
G01*
G74*
D01*
G02X2775928Y2126I10264J7874*
G01*
X2775928Y-20709D01*
G75*
D01*
G02X2762992Y-33645I-12936J0*
G01*
X2737008Y-33645D01*
G75*
D01*
G02X2724072Y-20709I0J12936*
G01*
X2724072Y2126D01*
G74*
D01*
G02X2726744Y10000I12936J0*
G01*
G74*
D01*
G02X2724395Y14998I10264J7874*
G01*
G74*
D01*
G02X2723557Y15789I13372J15002*
G01*
X2708591Y30755D01*
G74*
D01*
G02X2708554Y30793I14192J14229*
G01*
X2699219Y40127D01*
G74*
D01*
G02X2697391Y42228I14211J14211*
G01*
G74*
D01*
G02X2689138Y62154I26632J22703*
G01*
G75*
D01*
G02X2688945Y64931I19904J2777*
G01*
X2688945Y83547D01*
G74*
D01*
G02X2688968Y84499I20097J0*
G01*
G74*
D01*
G03X2686744Y89866I9889J952*
G01*
G74*
D01*
G02X2686055Y90523I13522J14868*
G01*
X2655789Y120789D01*
G74*
D01*
G02X2655715Y120864I14211J14211*
G01*
X2598691Y177888D01*
X2579602Y186867D01*
X2573091Y186867D01*
X2561168Y183674D01*
G74*
D01*
G02X2556445Y180288I26345J31752*
G01*
G74*
D01*
G02X2561546Y176613I15784J27291*
G01*
X2567090Y173316D01*
X2571063Y173316D01*
G74*
D01*
G02X2575000Y172513I0J10048*
G01*
G75*
D01*
G02X2578937Y173316I3937J-9245*
G01*
X2597047Y173316D01*
G74*
D01*
G02X2607096Y163268I0J10048*
G01*
X2607096Y146732D01*
G75*
D01*
G02X2597047Y136684I-10049J0*
G01*
X2578937Y136684D01*
G75*
D01*
G02X2575000Y137487I0J10048*
G01*
G74*
D01*
G02X2571063Y136684I3937J9245*
G01*
X2564217Y136684D01*
G74*
D01*
G02X2556831Y134750I7386J13139*
G01*
X2541775Y134750D01*
X2541775Y124232D01*
G75*
D01*
G02X2528839Y111296I-12936J0*
G01*
X2521475Y111296D01*
G74*
D01*
G02X2517870Y108952I11475J13704*
G01*
X2512536Y104952D01*
G75*
D01*
G02X2499389Y103763I-7536J10048*
G01*
G74*
D01*
G02X2494811Y107655I5611J11237*
G01*
G74*
D01*
G02X2487500Y105390I7311J10672*
G01*
X2381201Y105390D01*
G75*
D01*
G02X2370342Y111296I0J12937*
G01*
X2369059Y111296D01*
X2363881Y106118D01*
G75*
D01*
G02X2346098Y106139I-8881J8882*
G01*
X2340941Y111296D01*
X2339862Y111296D01*
G75*
D01*
G02X2326926Y124232I0J12936*
G01*
X2326926Y133650D01*
G74*
D01*
G02X2320368Y130307I9918J11350*
G01*
G74*
D01*
G02X2317485Y129935I3360J14693*
G01*
G74*
D01*
G02X2308268Y123889I9217J4002*
G01*
X2291732Y123889D01*
G75*
D01*
G02X2283141Y128725I0J10048*
G01*
X2270055Y132440D01*
X2257071Y132440D01*
G75*
D01*
G02X2255685Y132516I0J12560*
G01*
G74*
D01*
G02X2237153Y140192I1386J29555*
G01*
G74*
D01*
G02X2236118Y141118I7847J9808*
G01*
X2231118Y146118D01*
G74*
D01*
G02X2230192Y147153I8882J8882*
G01*
G74*
D01*
G02X2222516Y165685I21879J19918*
G01*
G75*
D01*
G02X2222440Y167071I12484J1386*
G01*
X2222440Y194797D01*
X2166801Y250436D01*
G74*
D01*
G02X2166092Y251092I8199J9564*
G01*
G74*
D01*
G03X2102574Y277402I63518J63518*
G01*
G75*
D01*
G02X2101608Y277440I0J12598*
G01*
X1635203Y277440D01*
X1582560Y224797D01*
X1582560Y62946D01*
G75*
D01*
G02X1582412Y61022I-12560J0*
G01*
G74*
D01*
G02X1578054Y50500I19525J1924*
G01*
G74*
D01*
G02X1576798Y49035I10137J7417*
G01*
X1560324Y32560D01*
X1575781Y32560D01*
X1623889Y80668D01*
X1623889Y93268D01*
G75*
D01*
G02X1633937Y103316I10048J0*
G01*
X1652047Y103316D01*
G74*
D01*
G02X1654927Y102894I0J10048*
G01*
X1654927Y107977D01*
G74*
D01*
G02X1649685Y106867I5242J11826*
G01*
X1610315Y106867D01*
G75*
D01*
G02X1597379Y119803I0J12936*
G01*
X1597379Y157205D01*
G75*
D01*
G02X1610315Y170141I12936J0*
G01*
X1649685Y170141D01*
G74*
D01*
G02X1657716Y167346I0J12936*
G01*
X1652814Y186954D01*
G75*
D01*
G02X1668072Y202179I12186J3046*
G01*
X1688046Y197185D01*
G74*
D01*
G02X1689646Y196669I3046J12185*
G01*
G74*
D01*
G02X1696095Y198394I7480J15055*
G01*
G74*
D01*
G02X1708480Y213589I16779J1032*
G01*
G75*
D01*
G02X1727588Y227459I19108J-6227*
G01*
X1736575Y227459D01*
G74*
D01*
G02X1739252Y227280I0J20097*
G01*
G74*
D01*
G02X1760460Y218495I2677J36456*
G01*
G74*
D01*
G02X1762480Y216729I12191J15977*
G01*
X1787532Y191676D01*
G75*
D01*
G02X1784652Y200512I12114J8836*
G01*
X1784652Y204031D01*
G75*
D01*
G02X1784652Y205969I17848J969*
G01*
X1784652Y234031D01*
G75*
D01*
G02X1784652Y235969I17848J969*
G01*
X1784652Y237913D01*
G75*
D01*
G02X1799646Y252907I14994J0*
G01*
X1880354Y252907D01*
G74*
D01*
G02X1895348Y237913I0J14994*
G01*
X1895348Y235969D01*
G75*
D01*
G02X1895348Y234031I-17848J-969*
G01*
X1895348Y205969D01*
G75*
D01*
G02X1895348Y204031I-17848J-969*
G01*
X1895348Y200512D01*
G75*
D01*
G02X1880354Y185518I-14994J0*
G01*
X1373261Y47560D02*
X1231739Y47560D01*
G74*
D01*
G03X1241234Y54383I1739J12440*
G01*
X1241454Y54821D01*
G75*
D01*
G03X1251201Y50390I9747J8506*
G01*
X1357500Y50390D01*
G74*
D01*
G03X1364811Y52655I0J12937*
G01*
G74*
D01*
G03X1373261Y47560I10189J7345*
G01*
X1662298Y160078D02*
G74*
D01*
G03X1664194Y158862I7702J9922*
G01*
G74*
D01*
G03X1662593Y158067I5860J13808*
G01*
G74*
D01*
G03X1662298Y160078I12908J862*
G01*
X3000904Y295196D02*
X3001324Y295654D01*
X3001703Y296147D01*
X3002037Y296672D01*
X3002324Y297224D01*
X3002562Y297798D01*
X3002749Y298391D01*
X3002884Y298998D01*
X3002965Y299615D01*
X3002992Y300236D01*
G36*
X2940580Y278573D02*
X2940580Y278573D01*
X2916408Y264994D01*
X2914136Y270241D01*
X2940580Y278573D01*
D02*
G37*
X2916408Y264994D01*
X2914136Y270241D01*
X2940580Y278573D01*
G36*
X2942644Y280636D02*
X2942644Y280636D01*
X2919138Y260804D01*
X2913169Y271859D01*
X2942644Y280636D01*
D02*
G37*
X2919138Y260804D01*
X2913169Y271859D01*
X2942644Y280636D01*
G36*
X2992354Y286645D02*
X2992354Y286645D01*
X2981731Y257783D01*
X2971075Y264440D01*
X2992354Y286645D01*
D02*
G37*
X2981731Y257783D01*
X2971075Y264440D01*
X2992354Y286645D01*
G36*
X3002992Y301732D02*
X3002992Y301732D01*
X2999825Y314195D01*
X3006159Y314195D01*
X3002992Y301732D01*
D02*
G37*
X2999825Y314195D01*
X3006159Y314195D01*
X3002992Y301732D01*
G36*
X2957020Y295012D02*
X2957020Y295012D01*
X2974446Y317028D01*
X2979036Y312438D01*
X2957020Y295012D01*
D02*
G37*
X2974446Y317028D01*
X2979036Y312438D01*
X2957020Y295012D01*
G36*
X1128251Y82992D02*
X1128251Y82992D01*
X1100491Y78777D01*
X1100264Y85265D01*
X1128251Y82992D01*
D02*
G37*
X1100491Y78777D01*
X1100264Y85265D01*
X1128251Y82992D01*
G36*
X1127870Y82992D02*
X1127870Y82992D01*
X1100347Y79647D01*
X1100246Y85363D01*
X1127870Y82992D01*
D02*
G37*
X1100347Y79647D01*
X1100246Y85363D01*
X1127870Y82992D01*
G36*
X1463740Y75000D02*
X1463740Y75000D01*
X1491630Y78246D01*
X1491630Y71754D01*
X1463740Y75000D01*
D02*
G37*
X1491630Y78246D01*
X1491630Y71754D01*
X1463740Y75000D01*
G36*
X1473109Y75000D02*
X1473109Y75000D01*
X1445719Y68820D01*
X1445032Y75275D01*
X1473109Y75000D01*
D02*
G37*
X1445719Y68820D01*
X1445032Y75275D01*
X1473109Y75000D01*
G36*
X1199705Y114508D02*
X1199705Y114508D01*
X1225579Y115413D01*
X1225579Y113603D01*
X1199705Y114508D01*
D02*
G37*
X1225579Y115413D01*
X1225579Y113603D01*
X1199705Y114508D01*
G36*
X1209705Y94823D02*
X1209705Y94823D01*
X1225559Y95727D01*
X1225559Y93919D01*
X1209705Y94823D01*
D02*
G37*
X1225559Y95727D01*
X1225559Y93919D01*
X1209705Y94823D01*
G36*
X1205225Y114508D02*
X1205225Y114508D01*
X1174484Y113586D01*
X1176680Y125956D01*
X1205225Y114508D01*
D02*
G37*
X1174484Y113586D01*
X1176680Y125956D01*
X1205225Y114508D01*
G36*
X1408996Y153878D02*
X1408996Y153878D01*
X1383122Y152973D01*
X1383122Y154783D01*
X1408996Y153878D01*
D02*
G37*
X1383122Y152973D01*
X1383122Y154783D01*
X1408996Y153878D01*
G36*
X1408996Y134193D02*
X1408996Y134193D01*
X1383122Y133288D01*
X1383122Y135098D01*
X1408996Y134193D01*
D02*
G37*
X1383122Y133288D01*
X1383122Y135098D01*
X1408996Y134193D01*
G36*
X1408996Y114508D02*
X1408996Y114508D01*
X1383122Y113603D01*
X1383122Y115413D01*
X1408996Y114508D01*
D02*
G37*
X1383122Y113603D01*
X1383122Y115413D01*
X1408996Y114508D01*
G36*
X1403996Y94823D02*
X1403996Y94823D01*
X1383130Y93918D01*
X1383130Y95727D01*
X1403996Y94823D01*
D02*
G37*
X1383130Y93918D01*
X1383130Y95727D01*
X1403996Y94823D01*
G36*
X1416674Y153878D02*
X1416674Y153878D01*
X1451976Y161867D01*
X1448417Y136488D01*
X1416674Y153878D01*
D02*
G37*
X1451976Y161867D01*
X1448417Y136488D01*
X1416674Y153878D01*
G36*
X1419042Y134193D02*
X1419042Y134193D01*
X1445755Y158616D01*
X1455232Y134805D01*
X1419042Y134193D01*
D02*
G37*
X1445755Y158616D01*
X1455232Y134805D01*
X1419042Y134193D01*
G36*
X1435618Y107374D02*
X1435618Y107374D01*
X1446670Y100801D01*
X1442191Y96322D01*
X1435618Y107374D01*
D02*
G37*
X1446670Y100801D01*
X1442191Y96322D01*
X1435618Y107374D01*
G36*
X2329705Y149823D02*
X2329705Y149823D01*
X2355579Y150728D01*
X2355579Y148918D01*
X2329705Y149823D01*
D02*
G37*
X2355579Y150728D01*
X2355579Y148918D01*
X2329705Y149823D01*
G36*
X2313115Y145000D02*
X2313115Y145000D01*
X2301275Y139983D01*
X2300316Y146244D01*
X2313115Y145000D01*
D02*
G37*
X2301275Y139983D01*
X2300316Y146244D01*
X2313115Y145000D01*
G36*
X2538996Y149823D02*
X2538996Y149823D01*
X2513122Y148918D01*
X2513122Y150728D01*
X2538996Y149823D01*
D02*
G37*
X2513122Y148918D01*
X2513122Y150728D01*
X2538996Y149823D01*
G36*
X2534218Y149823D02*
X2534218Y149823D01*
X2561042Y158122D01*
X2562231Y151740D01*
X2534218Y149823D01*
D02*
G37*
X2561042Y158122D01*
X2562231Y151740D01*
X2534218Y149823D01*
G36*
X2552626Y164382D02*
X2552626Y164382D01*
X2563678Y157809D01*
X2559199Y153330D01*
X2552626Y164382D01*
D02*
G37*
X2563678Y157809D01*
X2559199Y153330D01*
X2552626Y164382D01*
G36*
X1408996Y173563D02*
X1408996Y173563D01*
X1383122Y172658D01*
X1383122Y174468D01*
X1408996Y173563D01*
D02*
G37*
X1383122Y172658D01*
X1383122Y174468D01*
X1408996Y173563D01*
G36*
X2329705Y169508D02*
X2329705Y169508D01*
X2355579Y170413D01*
X2355579Y168603D01*
X2329705Y169508D01*
D02*
G37*
X2355579Y170413D01*
X2355579Y168603D01*
X2329705Y169508D01*
G36*
X2330225Y169508D02*
X2330225Y169508D01*
X2299484Y168586D01*
X2301680Y180956D01*
X2330225Y169508D01*
D02*
G37*
X2299484Y168586D01*
X2301680Y180956D01*
X2330225Y169508D01*
G36*
X2520802Y236274D02*
X2520802Y236274D01*
X2513782Y227978D01*
X2512506Y229254D01*
X2520802Y236274D01*
D02*
G37*
X2513782Y227978D01*
X2512506Y229254D01*
X2520802Y236274D01*
G36*
X2556833Y223504D02*
X2556833Y223504D01*
X2574617Y231103D01*
X2569900Y209247D01*
X2556833Y223504D01*
D02*
G37*
X2574617Y231103D01*
X2569900Y209247D01*
X2556833Y223504D01*
G36*
X2553801Y197305D02*
X2553801Y197305D01*
X2567796Y224731D01*
X2583544Y205269D01*
X2553801Y197305D01*
D02*
G37*
X2567796Y224731D01*
X2583544Y205269D01*
X2553801Y197305D01*
G36*
X2538996Y169508D02*
X2538996Y169508D01*
X2513122Y168603D01*
X2513122Y170413D01*
X2538996Y169508D01*
D02*
G37*
X2513122Y168603D01*
X2513122Y170413D01*
X2538996Y169508D01*
G36*
X2523996Y208878D02*
X2523996Y208878D01*
X2513166Y207976D01*
X2513166Y209780D01*
X2523996Y208878D01*
D02*
G37*
X2513166Y207976D01*
X2513166Y209780D01*
X2523996Y208878D01*
G36*
X2533996Y189193D02*
X2533996Y189193D01*
X2513130Y188288D01*
X2513130Y190098D01*
X2533996Y189193D01*
D02*
G37*
X2513130Y188288D01*
X2513130Y190098D01*
X2533996Y189193D01*
G36*
X1003031Y326417D02*
X1003031Y326417D01*
X974689Y322594D01*
X974689Y330241D01*
X1003031Y326417D01*
D02*
G37*
X974689Y322594D01*
X974689Y330241D01*
X1003031Y326417D01*
G36*
X998383Y326417D02*
X998383Y326417D01*
X972494Y326595D01*
X972569Y328403D01*
X998383Y326417D01*
D02*
G37*
X972494Y326595D01*
X972569Y328403D01*
X998383Y326417D01*
G36*
X1003968Y326417D02*
X1003968Y326417D01*
X1031222Y333172D01*
X1032045Y326732D01*
X1003968Y326417D01*
D02*
G37*
X1031222Y333172D01*
X1032045Y326732D01*
X1003968Y326417D01*
X1184423Y82992D02*
X1185596Y83043D01*
X1186761Y83197D01*
X1187908Y83451D01*
X1189028Y83804D01*
X1190113Y84254D01*
X1191155Y84796D01*
X1192146Y85427D01*
X1193078Y86142D01*
X1193944Y86936D01*
X1422740Y87260D02*
X1421079Y88782D01*
X1419292Y90153D01*
X1417392Y91363D01*
X1415394Y92404D01*
X1413313Y93266D01*
X1411165Y93943D01*
X1408965Y94431D01*
X1406732Y94725D01*
X1404482Y94823D01*
X1670000Y80839D02*
X1670100Y78558D01*
X1670398Y76295D01*
X1670892Y74066D01*
X1671578Y71889D01*
X1672452Y69780D01*
X1673506Y67755D01*
X1674732Y65830D01*
X1676122Y64019D01*
X1677664Y62336D01*
X1207408Y94823D02*
X1206234Y94772D01*
X1205070Y94618D01*
X1203923Y94364D01*
X1202803Y94011D01*
X1201718Y93561D01*
X1200676Y93019D01*
X1199685Y92388D01*
X1198753Y91673D01*
X1197887Y90879D01*
X1433989Y109003D02*
X1432781Y110110D01*
X1431480Y111109D01*
X1430097Y111990D01*
X1428642Y112747D01*
X1427127Y113374D01*
X1425563Y113867D01*
X1423963Y114222D01*
X1422337Y114436D01*
X1420699Y114508D01*
X1670054Y145054D02*
X1670043Y145042D01*
X1670034Y145029D01*
X1670025Y145016D01*
X1670017Y145002D01*
X1670011Y144987D01*
X1670006Y144971D01*
X1670003Y144955D01*
X1670001Y144939D01*
X1670000Y144923D01*
X2552336Y164672D02*
X2551274Y165645D01*
X2550131Y166522D01*
X2548916Y167296D01*
X2547639Y167961D01*
X2546308Y168512D01*
X2544934Y168945D01*
X2543528Y169257D01*
X2542100Y169445D01*
X2540661Y169508D01*
X2555399Y223504D02*
X2553948Y223441D01*
X2552508Y223251D01*
X2551091Y222937D01*
X2549706Y222500D01*
X2548364Y221944D01*
X2547076Y221274D01*
X2545851Y220494D01*
X2544699Y219610D01*
X2543629Y218629D01*
X2526983Y208878D02*
X2528434Y208941D01*
X2529874Y209131D01*
X2531291Y209445D01*
X2532676Y209882D01*
X2534018Y210437D01*
X2535306Y211108D01*
X2536531Y211888D01*
X2537683Y212772D01*
X2538753Y213753D01*
X2534823Y189193D02*
X2537109Y189293D01*
X2539378Y189591D01*
X2541612Y190087D01*
X2543795Y190775D01*
X2545909Y191651D01*
X2547939Y192707D01*
X2549870Y193937D01*
X2551685Y195330D01*
X2553372Y196876D01*
X2915000Y265709D02*
X2927717Y265709D01*
X2977008Y315000D01*
X2975709Y270000D02*
X2975709Y260000D01*
X3000904Y295196D02*
X2975709Y270000D01*
X3002992Y315000D02*
X3002992Y300236D01*
X1100000Y82992D02*
X1184423Y82992D01*
X1197887Y90879D02*
X1193944Y86936D01*
X1422740Y87260D02*
X1437992Y72008D01*
X1492008Y75000D02*
X1447992Y75000D01*
X1445000Y72008D01*
X1437992Y72008D02*
X1445000Y72008D01*
X1670000Y144923D02*
X1670000Y80839D01*
X1677664Y62336D02*
X1692992Y47008D01*
X1042598Y121693D02*
X1045000Y119291D01*
X1225610Y114508D02*
X1179783Y114508D01*
X1225610Y94823D02*
X1207408Y94823D01*
X1179783Y114508D02*
X1174291Y120000D01*
X1383091Y134193D02*
X1440689Y134193D01*
X1383091Y114508D02*
X1420699Y114508D01*
X1383091Y153878D02*
X1425000Y153878D01*
X1383091Y94823D02*
X1404482Y94823D01*
X1440689Y134193D02*
X1460000Y153504D01*
X1433989Y109003D02*
X1445000Y97992D01*
X2321831Y149823D02*
X2355610Y149823D01*
X2321831Y149823D02*
X2317008Y145000D01*
X2300000Y145000D02*
X2317008Y145000D01*
X2513091Y149823D02*
X2556831Y149823D01*
X2562008Y155000D01*
X2552336Y164672D02*
X2562008Y155000D01*
X1383091Y173563D02*
X1420661Y173563D01*
X2355610Y169508D02*
X2304783Y169508D01*
X2299291Y175000D01*
X2523031Y238504D02*
X2513091Y228563D01*
X2590000Y238504D02*
X2523031Y238504D01*
X2580000Y223504D02*
X2555399Y223504D01*
X2553372Y196876D02*
X2580000Y223504D01*
X2526983Y208878D02*
X2513091Y208878D01*
X2513091Y189193D02*
X2534823Y189193D01*
X2513091Y169508D02*
X2540661Y169508D01*
X2543629Y218629D02*
X2538753Y213753D01*
X974173Y326417D02*
X1028425Y326417D01*
X1032008Y330000D01*
G54D14*
X2874616Y-86248D02*
X2875651Y-86203D01*
X2876677Y-86068D01*
X2877688Y-85844D01*
X2878676Y-85533D01*
X2879632Y-85136D01*
X2880551Y-84658D01*
X2881424Y-84102D01*
X2882246Y-83472D01*
X2883009Y-82772D01*
X2721012Y-56012D02*
X2727652Y-62096D01*
X2734797Y-67579D01*
X2742392Y-72418D01*
X2750381Y-76576D01*
X2758701Y-80023D01*
X2767291Y-82731D01*
X2776083Y-84680D01*
X2785012Y-85856D01*
X2794010Y-86248D01*
G36*
X2885348Y-80433D02*
X2885348Y-80433D01*
X2897474Y-62837D01*
X2899692Y-64592D01*
X2885348Y-80433D01*
D02*
G37*
X2897474Y-62837D01*
X2899692Y-64592D01*
X2885348Y-80433D01*
G36*
X2920856Y-41426D02*
X2920856Y-41426D01*
X2899687Y-64597D01*
X2897685Y-62595D01*
X2920856Y-41426D01*
D02*
G37*
X2899687Y-64597D01*
X2897685Y-62595D01*
X2920856Y-41426D01*
G36*
X2055153Y63504D02*
X2055153Y63504D01*
X2090051Y79727D01*
X2093573Y61276D01*
X2055153Y63504D01*
D02*
G37*
X2090051Y79727D01*
X2093573Y61276D01*
X2055153Y63504D01*
G36*
X2133744Y68504D02*
X2133744Y68504D01*
X2095915Y61425D01*
X2097071Y80174D01*
X2133744Y68504D01*
D02*
G37*
X2095915Y61425D01*
X2097071Y80174D01*
X2133744Y68504D01*
G36*
X2131299Y68504D02*
X2131299Y68504D01*
X2168044Y76982D01*
X2168044Y60026D01*
X2131299Y68504D01*
D02*
G37*
X2168044Y76982D01*
X2168044Y60026D01*
X2131299Y68504D01*
G36*
X2215000Y60000D02*
X2215000Y60000D01*
X2164298Y61932D01*
X2178005Y71913D01*
X2215000Y60000D01*
D02*
G37*
X2164298Y61932D01*
X2178005Y71913D01*
X2215000Y60000D01*
G36*
X1051417Y119291D02*
X1051417Y119291D01*
X1035122Y117879D01*
X1035122Y120703D01*
X1051417Y119291D01*
D02*
G37*
X1035122Y117879D01*
X1035122Y120703D01*
X1051417Y119291D01*
G36*
X1490006Y165006D02*
X1490006Y165006D01*
X1460384Y141669D01*
X1453154Y157007D01*
X1490006Y165006D01*
D02*
G37*
X1460384Y141669D01*
X1453154Y157007D01*
X1490006Y165006D01*
G36*
X1426807Y153878D02*
X1426807Y153878D01*
X1453961Y157143D01*
X1450856Y140853D01*
X1426807Y153878D01*
D02*
G37*
X1453961Y157143D01*
X1450856Y140853D01*
X1426807Y153878D01*
G36*
X1804562Y146225D02*
X1804562Y146225D01*
X1844091Y133781D01*
X1828998Y112755D01*
X1804562Y146225D01*
D02*
G37*
X1844091Y133781D01*
X1828998Y112755D01*
X1804562Y146225D01*
G36*
X2610420Y194580D02*
X2610420Y194580D01*
X2576297Y210631D01*
X2586779Y223959D01*
X2610420Y194580D01*
D02*
G37*
X2576297Y210631D01*
X2586779Y223959D01*
X2610420Y194580D01*
X1739469Y63504D02*
X1737833Y63432D01*
X1736209Y63219D01*
X1734610Y62864D01*
X1733048Y62372D01*
X1731535Y61745D01*
X1730082Y60989D01*
X1728701Y60109D01*
X1727402Y59112D01*
X1726194Y58005D01*
X1256667Y275000D02*
X1246847Y274571D01*
X1237103Y273288D01*
X1227507Y271161D01*
X1218134Y268206D01*
X1209053Y264444D01*
X1200335Y259906D01*
X1192046Y254625D01*
X1184248Y248642D01*
X1177002Y242002D01*
X1415000Y202313D02*
X1414929Y203930D01*
X1414718Y205536D01*
X1414368Y207116D01*
X1413881Y208660D01*
X1413261Y210156D01*
X1412514Y211592D01*
X1411644Y212957D01*
X1410658Y214242D01*
X1409564Y215435D01*
X1526759Y201759D02*
X1527411Y202471D01*
X1527999Y203237D01*
X1528518Y204051D01*
X1528963Y204907D01*
X1529333Y205799D01*
X1529623Y206719D01*
X1529832Y207662D01*
X1529958Y208619D01*
X1530000Y209583D01*
X1748269Y202518D02*
X1747205Y203493D01*
X1746061Y204371D01*
X1744844Y205146D01*
X1743564Y205813D01*
X1742231Y206365D01*
X1740855Y206799D01*
X1739447Y207111D01*
X1738016Y207299D01*
X1736575Y207362D01*
X1355417Y269583D02*
X1354227Y270673D01*
X1352947Y271655D01*
X1351586Y272522D01*
X1350155Y273267D01*
X1348665Y273885D01*
X1347126Y274370D01*
X1345551Y274719D01*
X1343951Y274930D01*
X1342340Y275000D01*
X1533241Y263241D02*
X1532589Y262529D01*
X1532001Y261763D01*
X1531482Y260949D01*
X1531037Y260093D01*
X1530667Y259201D01*
X1530377Y258280D01*
X1530168Y257338D01*
X1530042Y256381D01*
X1530000Y255417D01*
X1647712Y340000D02*
X1639777Y339654D01*
X1631902Y338617D01*
X1624148Y336898D01*
X1616573Y334509D01*
X1609235Y331470D01*
X1602190Y327802D01*
X1595491Y323535D01*
X1589189Y318699D01*
X1583333Y313333D01*
X2898641Y-63641D02*
X3002282Y40000D01*
X2900390Y-65390D02*
X2883009Y-82772D01*
X2794010Y-86248D02*
X2874616Y-86248D01*
X2846477Y105393D02*
X2840393Y105393D01*
X1705000Y47008D02*
X1715197Y47008D01*
X2089134Y63504D02*
X1739469Y63504D01*
X1715197Y47008D02*
X1726194Y58005D01*
X2089134Y63504D02*
X2094134Y68504D01*
X2160000Y68504D02*
X2094134Y68504D01*
X1035000Y119291D02*
X1054291Y119291D01*
X1177002Y242002D01*
X1415000Y163878D02*
X1425000Y153878D01*
X1449626Y153878D01*
X1415000Y163878D02*
X1415000Y202313D01*
X1465000Y148504D02*
X1460000Y153504D01*
X1455000Y148504D02*
X1473504Y148504D01*
X1526759Y201759D01*
X1449626Y153878D02*
X1455000Y148504D01*
X1840000Y110787D02*
X1748269Y202518D01*
X2670464Y134536D02*
X2581496Y223504D01*
X1355417Y269583D02*
X1409564Y215436D01*
X1530000Y209583D02*
X1530000Y255417D01*
X1727588Y207362D02*
X1736575Y207362D01*
X1256667Y275000D02*
X1342340Y275000D01*
X1533241Y263241D02*
X1583333Y313333D01*
X1647712Y340000D02*
X2654291Y340000D01*
X2840393Y105393D02*
X2765000Y30000D01*
X2737767Y30000D01*
X2721012Y-56012D02*
X2715000Y-50000D01*
X2645000Y339291D02*
X2708583Y339291D01*
X2716457Y331417D01*
X2709042Y83547D02*
X2708928Y86159D01*
X2708587Y88750D01*
X2708021Y91302D01*
X2707235Y93795D01*
X2706234Y96210D01*
X2705028Y98529D01*
X2703623Y100733D01*
X2702032Y102807D01*
X2700266Y104734D01*
X2709042Y64931D02*
X2709099Y63625D01*
X2709269Y62330D01*
X2709552Y61054D01*
X2709945Y59807D01*
X2710445Y58600D01*
X2711049Y57440D01*
X2711751Y56338D01*
X2712547Y55301D01*
X2713430Y54338D01*
X2609375Y55625D02*
X2608414Y56505D01*
X2607380Y57299D01*
X2606281Y57999D01*
X2605126Y58600D01*
X2603922Y59099D01*
X2602679Y59491D01*
X2601407Y59773D01*
X2600115Y59943D01*
X2598813Y60000D01*
X2680213Y265496D02*
X2681731Y264105D01*
X2683364Y262851D01*
X2685101Y261745D01*
X2686928Y260794D01*
X2688830Y260006D01*
X2690794Y259387D01*
X2692804Y258941D01*
X2694846Y258673D01*
X2696903Y258583D01*
X2670000Y135000D02*
X2700266Y104734D01*
X2709042Y64931D02*
X2709042Y83547D01*
X2170000Y60000D02*
X2598813Y60000D01*
X2675000Y-10000D02*
X2721012Y-56012D01*
X2716457Y258583D02*
X2696903Y258583D01*
X2680213Y265496D02*
X2645000Y300709D01*
X2609375Y55625D02*
X2675000Y-10000D01*
G36*
X2778180Y43180D02*
X2778180Y43180D01*
X2750683Y28050D01*
X2749431Y30590D01*
X2778180Y43180D01*
D02*
G37*
X2750683Y28050D01*
X2749431Y30590D01*
X2778180Y43180D01*
G36*
X2722783Y44984D02*
X2722783Y44984D01*
X2750652Y30550D01*
X2749237Y28097D01*
X2722783Y44984D01*
D02*
G37*
X2750652Y30550D01*
X2749237Y28097D01*
X2722783Y44984D01*
G36*
X2678565Y339291D02*
X2678565Y339291D01*
X2716266Y340116D01*
X2712817Y323515D01*
X2678565Y339291D01*
D02*
G37*
X2716266Y340116D01*
X2712817Y323515D01*
X2678565Y339291D01*
G36*
X2613591Y340000D02*
X2613591Y340000D01*
X2644968Y340708D01*
X2644904Y337877D01*
X2613591Y340000D01*
D02*
G37*
X2644968Y340708D01*
X2644904Y337877D01*
X2613591Y340000D01*
G36*
X2676417Y339291D02*
X2676417Y339291D01*
X2645064Y337875D01*
X2645064Y340707D01*
X2676417Y339291D01*
D02*
G37*
X2645064Y337875D01*
X2645064Y340707D01*
X2676417Y339291D01*
G36*
X2667215Y278493D02*
X2667215Y278493D01*
X2644044Y299662D01*
X2646046Y301665D01*
X2667215Y278493D01*
D02*
G37*
X2644044Y299662D01*
X2646046Y301665D01*
X2667215Y278493D01*
G36*
X2680749Y265777D02*
X2680749Y265777D01*
X2718450Y266601D01*
X2715000Y250000D01*
X2680749Y265777D01*
D02*
G37*
X2718450Y266601D01*
X2715000Y250000D01*
X2680749Y265777D01*
X2737767Y30000D02*
X2713430Y54338D01*
G54D15*
G36*
X1003031Y121693D02*
X1003031Y121693D01*
X974237Y120336D01*
X974237Y123050D01*
X1003031Y121693D01*
D02*
G37*
X974237Y120336D01*
X974237Y123050D01*
X1003031Y121693D01*
G36*
X1003675Y121693D02*
X1003675Y121693D01*
X1034810Y123204D01*
X1034216Y115453D01*
X1003675Y121693D01*
D02*
G37*
X1034810Y123204D01*
X1034216Y115453D01*
X1003675Y121693D01*
X974173Y121693D02*
X1042598Y121693D01*
G54D16*
G36*
X1924175Y115787D02*
X1924175Y115787D01*
X1976773Y145889D01*
X1984642Y111734D01*
X1924175Y115787D01*
D02*
G37*
X1976773Y145889D01*
X1984642Y111734D01*
X1924175Y115787D01*
X1815000Y115787D02*
X1941654Y115787D01*
X1955866Y130000D01*
G54D17*
G36*
X2049173Y130000D02*
X2049173Y130000D01*
X1998523Y104680D01*
X1998523Y155320D01*
X2049173Y130000D01*
D02*
G37*
X1998523Y104680D01*
X1998523Y155320D01*
X2049173Y130000D01*
X1955866Y130000D02*
X2064134Y130000D01*
G54D18*
G36*
X1688937Y181500D02*
X1688937Y181500D01*
X1712868Y182051D01*
X1712868Y181177D01*
X1688937Y181500D01*
D02*
G37*
X1712868Y182051D01*
X1712868Y181177D01*
X1688937Y181500D01*
G36*
X1688937Y181500D01*
X1712868Y182051D01*
X1712868Y181177D01*
X1688937Y181500D01*
D02*
G37*
X1712868Y182051D01*
X1712868Y181177D01*
X1688937Y181500D01*
G36*
X1721063Y181500D02*
X1721063Y181500D01*
X1697136Y181177D01*
X1697136Y182051D01*
X1721063Y181500D01*
D02*
G37*
X1697136Y181177D01*
X1697136Y182051D01*
X1721063Y181500D01*
G36*
X1721063Y181500D01*
X1697136Y181177D01*
X1697136Y182051D01*
X1721063Y181500D01*
D02*
G37*
X1697136Y181177D01*
X1697136Y182051D01*
X1721063Y181500D01*
X1675000Y181500D02*
X1733500Y181500D01*
G54D19*
X2716457Y331417D02*
X2773543Y331417D01*
G54D20*
X3035000Y55000D02*
X2985000Y-85000D01*
X2982421Y-91219D01*
X2980393Y-97639D01*
X2978933Y-104212D01*
X2978052Y-110887D01*
X2977755Y-117613D01*
X2978046Y-124340D01*
X2978922Y-131015D01*
X2980376Y-137589D01*
X2982398Y-144011D01*
X2984972Y-150233D01*
X2988078Y-156206D01*
X2991693Y-161886D01*
X2995789Y-167229D01*
X3000336Y-172195D01*
X3005298Y-176746D01*
X3010637Y-180847D01*
X3016314Y-184467D01*
X3022285Y-187579D01*
X3028504Y-190158D01*
X3034924Y-192185D01*
X3041497Y-193645D01*
X3048172Y-194527D01*
X3054898Y-194824D01*
X3061625Y-194533D01*
X3068300Y-193657D01*
X3074874Y-192203D01*
X3081296Y-190181D01*
X3087518Y-187607D01*
X3093491Y-184501D01*
X3099171Y-180886D01*
X3104514Y-176789D01*
X3109480Y-172243D01*
X3114031Y-167281D01*
X3118132Y-161941D01*
X3121752Y-156264D01*
X3124864Y-150294D01*
X3125000Y-150000D01*
X0Y-10000D02*
X0Y393701D01*
X3125000Y393701D01*
X3035000Y55000D01*
X2570000Y-10000D02*
X2880000Y-320000D01*
X2570000Y-10000D02*
X0Y-10000D01*
X3543307Y50000D02*
X3543307Y393701D01*
X3173307Y-320000D02*
X3543307Y50000D01*
X2880000Y-320000D02*
X3173307Y-320000D01*
X3125000Y-150000D02*
X3235000Y185000D01*
X3350000Y393701D01*
X3543307Y393701D01*
G54D21*
X857500Y-190000D03*
X897500Y-190000D03*
X837500Y-170000D03*
X817500Y-150000D03*
X797500Y-170000D03*
X857500Y-150000D03*
X837500Y-130000D03*
X797500Y-130000D03*
X1675000Y181500D03*
X1735000Y181500D03*
X2982500Y147500D03*
X1542500Y162500D03*
X1495000Y205000D03*
X1592500Y205000D03*
X2645000Y-35000D03*
X2645000Y105000D03*
X2962500Y82500D03*
X1100000Y82500D03*
X1750000Y157500D03*
X1642500Y85000D03*
X2950000Y30000D03*
X2852500Y35000D03*
X2880000Y15000D03*
X2905000Y210000D03*
X2835000Y-5000D03*
X2930000Y100000D03*
X1445000Y157500D03*
X1465000Y140000D03*
X1035000Y120000D03*
X2915000Y267500D03*
X3250000Y90000D03*
X3337500Y300000D03*
X3395000Y237500D03*
X745000Y327500D03*
X722500Y327500D03*
X767500Y327500D03*
X2357500Y125000D03*
X2510000Y125000D03*
X2395000Y150000D03*
X2435000Y150000D03*
X2415000Y130000D03*
X2475000Y150000D03*
X2455000Y130000D03*
X2395000Y230000D03*
X2435000Y230000D03*
X2435000Y190000D03*
X2415000Y170000D03*
X2395000Y190000D03*
X2415000Y210000D03*
X2475000Y230000D03*
X2455000Y170000D03*
X2475000Y190000D03*
X2455000Y210000D03*
X2295000Y225000D03*
X2260000Y175000D03*
X2590000Y272500D03*
X2570000Y292500D03*
X2587500Y155000D03*
X1035000Y80000D03*
X2645000Y295000D03*
X2915000Y305000D03*
X660000Y165000D03*
X3012500Y260000D03*
X2872500Y-37500D03*
X1227500Y70000D03*
X1380000Y70000D03*
X1285000Y75000D03*
X1325000Y75000D03*
X1265000Y95000D03*
X1265000Y135000D03*
X1285000Y155000D03*
X1325000Y155000D03*
X1345000Y95000D03*
X1345000Y135000D03*
X1305000Y95000D03*
X1305000Y135000D03*
X1285000Y115000D03*
X1325000Y115000D03*
X1265000Y175000D03*
X1345000Y175000D03*
X1305000Y175000D03*
X1265000Y225000D03*
X1135000Y120000D03*
X1465000Y202500D03*
X1445000Y222500D03*
X1520000Y75000D03*
X1620000Y147500D03*
X1640000Y130000D03*
X2180000Y122500D03*
X2160000Y140000D03*
X1057500Y330000D03*
X580000Y167500D03*
X600000Y150000D03*
X1802500Y235000D03*
X1820000Y220000D03*
X1802500Y205000D03*
X1840000Y235000D03*
X1877500Y235000D03*
X1877500Y205000D03*
X1860000Y220000D03*
X1840000Y205000D03*
X2750000Y-10000D03*
G54D22*
X907500Y-132500D03*
X972500Y327500D03*
X742500Y250000D03*
X742500Y225000D03*
X742500Y200000D03*
X742500Y172500D03*
X742500Y275000D03*
X742500Y300000D03*
X742500Y147500D03*
X977500Y250000D03*
X977500Y225000D03*
X977500Y197500D03*
X977500Y172500D03*
X977500Y275000D03*
X977500Y147500D03*
X977500Y302500D03*
G54D23*
X590000Y158504D03*
X590000Y221496D03*
X2170000Y68504D03*
X2170000Y131496D03*
X1455000Y148504D03*
X1455000Y211496D03*
X1630000Y138504D03*
X1630000Y201496D03*
X2580000Y218504D03*
X2580000Y281496D03*
G54D24*
X305000Y171850D03*
X255000Y171850D03*
X355000Y171850D03*
X155000Y171850D03*
X55000Y171850D03*
X105000Y171850D03*
X355000Y221850D03*
X305000Y221850D03*
X255000Y221850D03*
X205000Y221850D03*
X155000Y221850D03*
X105000Y221850D03*
X55000Y221850D03*
X205000Y171850D03*
X505000Y221850D03*
X455000Y221850D03*
X405000Y221850D03*
X405000Y171850D03*
X455000Y171850D03*
X505000Y171850D03*
G54D25*
X3476210Y238994D03*
X3413994Y301210D03*
X3263790Y151006D03*
X3326006Y88790D03*
G54D26*
X2977008Y315000D03*
X3002992Y315000D03*
X1492008Y75000D03*
X1517992Y75000D03*
X1617008Y85000D03*
X1642992Y85000D03*
X1717992Y105000D03*
X1692008Y105000D03*
X2562008Y155000D03*
X2587992Y155000D03*
X1032008Y330000D03*
X1057992Y330000D03*
G54D27*
X2975709Y260000D03*
X3014291Y260000D03*
X1174291Y120000D03*
X1135709Y120000D03*
X2260709Y175000D03*
X2299291Y175000D03*
X1225709Y225000D03*
X1264291Y225000D03*
G54D28*
X2915000Y265709D03*
X2915000Y304291D03*
X1035000Y80709D03*
X1035000Y119291D03*
X2295000Y225709D03*
X2295000Y264291D03*
X2645000Y300709D03*
X2645000Y339291D03*
X660000Y164291D03*
X660000Y125709D03*
X2750000Y-9291D03*
X2750000Y29291D03*
G54D29*
X745827Y147283D03*
X745827Y121693D03*
X745827Y96102D03*
X974173Y96102D03*
X974173Y121693D03*
X974173Y147283D03*
X745827Y249646D03*
X745827Y224055D03*
X745827Y172874D03*
X745827Y198465D03*
X974173Y172874D03*
X974173Y198465D03*
X974173Y249646D03*
X974173Y224055D03*
X745827Y326417D03*
X745827Y275236D03*
X745827Y300827D03*
X974173Y326417D03*
X974173Y275236D03*
X974173Y300827D03*
G54D30*
X716300Y140393D02*
X775354Y140393D01*
X775354Y154173D01*
X716300Y154173D01*
X716300Y140393D01*D02*
X716300Y114803D02*
X775354Y114803D01*
X775354Y128583D01*
X716300Y128583D01*
X716300Y114803D01*D02*
X716300Y89212D02*
X775354Y89212D01*
X775354Y102992D01*
X716300Y102992D01*
X716300Y89212D01*D02*
X944646Y89212D02*
X1003700Y89212D01*
X1003700Y102992D01*
X944646Y102992D01*
X944646Y89212D01*D02*
X944646Y114803D02*
X1003700Y114803D01*
X1003700Y128583D01*
X944646Y128583D01*
X944646Y114803D01*D02*
X944646Y140393D02*
X1003700Y140393D01*
X1003700Y154173D01*
X944646Y154173D01*
X944646Y140393D01*D02*
X716300Y242756D02*
X775354Y242756D01*
X775354Y256536D01*
X716300Y256536D01*
X716300Y242756D01*D02*
X716300Y217165D02*
X775354Y217165D01*
X775354Y230945D01*
X716300Y230945D01*
X716300Y217165D01*D02*
X716300Y165984D02*
X775354Y165984D01*
X775354Y179764D01*
X716300Y179764D01*
X716300Y165984D01*D02*
X716300Y191575D02*
X775354Y191575D01*
X775354Y205355D01*
X716300Y205355D01*
X716300Y191575D01*D02*
X944646Y165984D02*
X1003700Y165984D01*
X1003700Y179764D01*
X944646Y179764D01*
X944646Y165984D01*D02*
X944646Y191575D02*
X1003700Y191575D01*
X1003700Y205355D01*
X944646Y205355D01*
X944646Y191575D01*D02*
X944646Y242756D02*
X1003700Y242756D01*
X1003700Y256536D01*
X944646Y256536D01*
X944646Y242756D01*D02*
X944646Y217165D02*
X1003700Y217165D01*
X1003700Y230945D01*
X944646Y230945D01*
X944646Y217165D01*D02*
X716300Y319527D02*
X775354Y319527D01*
X775354Y333307D01*
X716300Y333307D01*
X716300Y319527D01*D02*
X716300Y268346D02*
X775354Y268346D01*
X775354Y282126D01*
X716300Y282126D01*
X716300Y268346D01*D02*
X716300Y293937D02*
X775354Y293937D01*
X775354Y307717D01*
X716300Y307717D01*
X716300Y293937D01*D02*
X944646Y319527D02*
X1003700Y319527D01*
X1003700Y333307D01*
X944646Y333307D01*
X944646Y319527D01*D02*
X944646Y268346D02*
X1003700Y268346D01*
X1003700Y282126D01*
X944646Y282126D01*
X944646Y268346D01*D02*
X944646Y293937D02*
X1003700Y293937D01*
X1003700Y307717D01*
X944646Y307717D01*
X944646Y293937D01*D02*
X2890382Y68460D02*
X2893439Y79869D01*
X2890397Y80684D01*
X2887340Y69275D01*
X2890382Y68460D01*D02*
X2903692Y64894D02*
X2906749Y76302D01*
X2903707Y77118D01*
X2900650Y65709D01*
X2903692Y64894D01*D02*
X2917002Y61327D02*
X2920059Y72736D01*
X2917017Y73551D01*
X2913960Y62143D01*
X2917002Y61327D01*D02*
X2930312Y57761D02*
X2933369Y69170D01*
X2930327Y69985D01*
X2927270Y58576D01*
X2930312Y57761D01*D02*
X2943622Y54195D02*
X2946679Y65603D01*
X2943637Y66418D01*
X2940580Y55010D01*
X2943622Y54195D01*D02*
X2956932Y50628D02*
X2959989Y62037D01*
X2956947Y62852D01*
X2953890Y51443D01*
X2956932Y50628D01*D02*
X2970242Y47062D02*
X2973299Y58470D01*
X2970257Y59286D01*
X2967200Y47877D01*
X2970242Y47062D01*D02*
X3030846Y61800D02*
X3019438Y64857D01*
X3016534Y54018D01*
X3027942Y50961D01*
X3030846Y61800D01*D02*
X3040680Y98497D02*
X3029271Y101554D01*
X3026367Y90716D01*
X3037775Y87659D01*
X3040680Y98497D01*D02*
X2839321Y101503D02*
X2850729Y98446D01*
X2853633Y109284D01*
X2842225Y112341D01*
X2839321Y101503D01*D02*
X2849154Y138200D02*
X2860562Y135143D01*
X2863466Y145982D01*
X2852058Y149039D01*
X2849154Y138200D01*D02*
X2909758Y152938D02*
X2906701Y141530D01*
X2909743Y140714D01*
X2912800Y152123D01*
X2909758Y152938D01*D02*
X2923068Y149372D02*
X2920011Y137963D01*
X2923053Y137148D01*
X2926110Y148557D01*
X2923068Y149372D01*D02*
X2989618Y131540D02*
X2986561Y120131D01*
X2989603Y119316D01*
X2992660Y130725D01*
X2989618Y131540D01*D02*
X2936378Y145805D02*
X2933321Y134397D01*
X2936363Y133582D01*
X2939420Y144990D01*
X2936378Y145805D01*D02*
X2949688Y142239D02*
X2946631Y130830D01*
X2949673Y130015D01*
X2952730Y141424D01*
X2949688Y142239D01*D02*
X2962998Y138673D02*
X2959941Y127264D01*
X2962983Y126449D01*
X2966040Y137857D01*
X2962998Y138673D01*D02*
X2976308Y135106D02*
X2973251Y123698D01*
X2976293Y122882D01*
X2979350Y134291D01*
X2976308Y135106D01*D02*
G54D31*
X1100000Y82008D03*
X1100000Y107992D03*
X1445000Y72008D03*
X1445000Y97992D03*
X1700000Y72992D03*
X1700000Y47008D03*
X2300000Y117008D03*
X2300000Y142992D03*
G54D32*
X1225610Y75138D03*
X1383091Y75138D03*
X1225610Y153878D03*
X1225610Y134193D03*
X1225610Y94823D03*
X1225610Y114508D03*
X1383091Y153878D03*
X1383091Y94823D03*
X1383091Y114508D03*
X1383091Y134193D03*
X1225610Y173563D03*
X1383091Y173563D03*
X2355610Y130138D03*
X2355610Y149823D03*
X2355610Y169508D03*
X2513091Y130138D03*
X2513091Y149823D03*
X2513091Y169508D03*
X2355610Y208878D03*
X2355610Y228563D03*
X2355610Y189193D03*
X2513091Y208878D03*
X2513091Y228563D03*
X2513091Y189193D03*
G54D33*
X1304350Y124350D03*
X2434350Y179350D03*
G54D34*
X1840000Y120787D03*
X1840000Y219213D03*
G54D35*
X1799646Y102086D02*
X1880354Y102086D01*
X1880354Y139488D01*
X1799646Y139488D01*
X1799646Y102086D01*D02*
X1799646Y200512D02*
X1880354Y200512D01*
X1880354Y237914D01*
X1799646Y237914D01*
X1799646Y200512D01*D02*
G54D36*
X1985866Y130000D03*
G54D37*
X1948465Y122126D02*
X2023267Y122126D01*
X2023267Y137874D01*
X1948465Y137874D01*
X1948465Y122126D01*D02*
G54D38*
X2094134Y70945D03*
X2094134Y130000D03*
X2094134Y189055D03*
G54D39*
X1697126Y165866D03*
X1712874Y165866D03*
X1712874Y150118D03*
X1697126Y150118D03*
X1697126Y197362D03*
X1697126Y181614D03*
X1712874Y181614D03*
X1712874Y197362D03*
G54D40*
X2716457Y258583D03*
X2773543Y258583D03*
X2716457Y331417D03*
X2773543Y331417D03*
G54D41*
X2899755Y-62527D03*
X2897528Y-64755D03*
X2872472Y-35245D03*
X2870245Y-37473D03*
G54D42*
X2890288Y74192D03*
X2890492Y74952D03*
X2903598Y70625D03*
X2903802Y71386D03*
X2916908Y67059D03*
X2917112Y67820D03*
X2930218Y63492D03*
X2930422Y64253D03*
X2943528Y59926D03*
X2943732Y60687D03*
X2956838Y56360D03*
X2957042Y57120D03*
X2970148Y52793D03*
X2970352Y53554D03*
X2909852Y147207D03*
X2909648Y146446D03*
X2923162Y143640D03*
X2922958Y142880D03*
X2989712Y125808D03*
X2989508Y125048D03*
X2936472Y140074D03*
X2936268Y139313D03*
X2949782Y136507D03*
X2949578Y135747D03*
X2963092Y132941D03*
X2962888Y132180D03*
X2976402Y129375D03*
X2976198Y128614D03*
G54D43*
X3025591Y57400D03*
X3035424Y94097D03*
X2844575Y105903D03*
X2854409Y142600D03*

M02*
