G04 Generated by Ultiboard 14.2 *
%FSLAX46Y46*%
%MOIN*%

%ADD10C,0.000001*%
%ADD11C,0.020000*%
%ADD12C,0.010000*%
%ADD13C,0.005000*%
%ADD14C,0.015748*%
%ADD15C,0.011811*%
%ADD16C,0.033465*%
%ADD17C,0.047244*%


G04 ColorRGB 999900 for the following layer *
%LN_uc451855c42657794dc1*%
%LPD*%
G54D10*
G36*
X3064927Y-85000D02*
X3064927Y-85000D01*
X3064927Y378628D01*
X15073Y378628D01*
X15073Y5073D01*
X2849972Y5073D01*
G75*
D01*
G02X2855508Y4030I28J-15073*
G01*
G74*
D01*
G02X2860310Y994I5508J14030*
G01*
X2860310Y994D01*
X3055945Y-181778D01*
X3163827Y-181778D01*
X3359427Y10742D01*
G74*
D01*
G02X3366699Y14707I10573J10742*
G01*
G75*
D01*
G02X3370000Y15073I3301J-14707*
G01*
X3370000Y15073D01*
X3528235Y15073D01*
X3528235Y378628D01*
X3175073Y378628D01*
X3175073Y-85000D01*
G75*
D01*
G02X3160000Y-100073I-15073J0*
G01*
X3160000Y-100073D01*
X3080000Y-100073D01*
G75*
D01*
G02X3064927Y-85000I0J15073*
G01*
D02*
G37*
%LPC*%
G36*
X1874691Y207759D02*
G75*
D01*
G02X1874691Y207759I2809J-2759*
G01*
D02*
G37*
G36*
X1878004Y225533D02*
G74*
D01*
G02X1878701Y227336I16996J5533*
G01*
X1878701Y227336D01*
X1884658Y221378D01*
G74*
D01*
G02X1884836Y221299I7158J16378*
G01*
X1884836Y221299D01*
X1884786Y221250D01*
X1886036Y220000D01*
X1884786Y218750D01*
X1884836Y218701D01*
G74*
D01*
G02X1884658Y218622I7336J16299*
G01*
X1884658Y218622D01*
X1878701Y212664D01*
G74*
D01*
G02X1878004Y214467I16299J7336*
G01*
X1878004Y214467D01*
X1877500Y213964D01*
X1874691Y216772D01*
X1874691Y216772D01*
X1873990Y217474D01*
G74*
D01*
G02X1870164Y218701I3510J17526*
G01*
X1870164Y218701D01*
X1871464Y220000D01*
X1870164Y221299D01*
G74*
D01*
G02X1873990Y222526I7336J16299*
G01*
X1873990Y222526D01*
X1874691Y223228D01*
X1874691Y223228D01*
X1877500Y226036D01*
X1878004Y225533D01*
D02*
G37*
G36*
X1874691Y237759D02*
G75*
D01*
G02X1874691Y237759I2809J-2759*
G01*
D02*
G37*
G36*
X1884836Y251299D02*
X1884836Y251299D01*
X1877500Y243964D01*
X1874691Y246772D01*
X1874691Y246772D01*
X1870164Y251299D01*
G75*
D01*
G02X1884836Y251299I7336J-16299*
G01*
D02*
G37*
G36*
X1884836Y188701D02*
G75*
D01*
G02X1870164Y188701I-7336J16299*
G01*
X1870164Y188701D01*
X1874691Y193228D01*
X1874691Y193228D01*
X1877500Y196036D01*
X1884836Y188701D01*
D02*
G37*
G36*
X2826299Y152336D02*
G75*
D01*
G02X2826299Y137664I-16299J-7336*
G01*
X2826299Y137664D01*
X2819573Y144391D01*
X2819573Y144391D01*
X2818964Y145000D01*
X2819573Y145609D01*
X2819573Y145609D01*
X2826299Y152336D01*
D02*
G37*
G36*
X816063Y327500D02*
G75*
D01*
G02X816063Y327500I3937J0*
G01*
D02*
G37*
G36*
X790164Y343799D02*
G75*
D01*
G02X804836Y343799I7336J-16299*
G01*
X804836Y343799D01*
X797500Y336464D01*
X790164Y343799D01*
D02*
G37*
G36*
X793563Y327500D02*
G75*
D01*
G02X793563Y327500I3937J0*
G01*
D02*
G37*
G36*
X826201Y334836D02*
X826201Y334836D01*
X831250Y329786D01*
X836299Y334836D01*
G75*
D01*
G02X836299Y320164I-16299J-7336*
G01*
X836299Y320164D01*
X831250Y325214D01*
X826201Y320164D01*
G75*
D01*
G02X826201Y334836I16299J7336*
G01*
D02*
G37*
G36*
X835164Y343799D02*
G75*
D01*
G02X849836Y343799I7336J-16299*
G01*
X849836Y343799D01*
X842500Y336464D01*
X835164Y343799D01*
D02*
G37*
G36*
X858799Y334836D02*
G75*
D01*
G02X858799Y320164I-16299J-7336*
G01*
X858799Y320164D01*
X851464Y327500D01*
X858799Y334836D01*
D02*
G37*
G36*
X838563Y327500D02*
G75*
D01*
G02X838563Y327500I3937J0*
G01*
D02*
G37*
G36*
X813799Y334836D02*
G75*
D01*
G02X813799Y320164I-16299J-7336*
G01*
X813799Y320164D01*
X808750Y325214D01*
X803701Y320164D01*
G75*
D01*
G02X803701Y334836I16299J7336*
G01*
X803701Y334836D01*
X808750Y329786D01*
X813799Y334836D01*
D02*
G37*
G36*
X812664Y343799D02*
G75*
D01*
G02X827336Y343799I7336J-16299*
G01*
X827336Y343799D01*
X820000Y336464D01*
X812664Y343799D01*
D02*
G37*
G36*
X781201Y334836D02*
X781201Y334836D01*
X788536Y327500D01*
X781201Y320164D01*
G75*
D01*
G02X781201Y334836I16299J7336*
G01*
D02*
G37*
G36*
X849836Y311201D02*
G75*
D01*
G02X835164Y311201I-7336J16299*
G01*
X835164Y311201D01*
X842500Y318536D01*
X849836Y311201D01*
D02*
G37*
G36*
X712664Y186299D02*
G75*
D01*
G02X727336Y186299I7336J-16299*
G01*
X727336Y186299D01*
X720000Y178964D01*
X712664Y186299D01*
D02*
G37*
G36*
X736299Y177336D02*
G75*
D01*
G02X736299Y162664I-16299J-7336*
G01*
X736299Y162664D01*
X728964Y170000D01*
X736299Y177336D01*
D02*
G37*
G36*
X716063Y170000D02*
G75*
D01*
G02X716063Y170000I3937J0*
G01*
D02*
G37*
G36*
X703701Y177336D02*
X703701Y177336D01*
X711036Y170000D01*
X703701Y162664D01*
G75*
D01*
G02X703701Y177336I16299J7336*
G01*
D02*
G37*
G36*
X563701Y174836D02*
X563701Y174836D01*
X571036Y167500D01*
X563701Y160164D01*
G75*
D01*
G02X563701Y174836I16299J7336*
G01*
D02*
G37*
G36*
X572664Y183799D02*
G75*
D01*
G02X587336Y183799I7336J-16299*
G01*
X587336Y183799D01*
X580000Y176464D01*
X572664Y183799D01*
D02*
G37*
G36*
X576063Y167500D02*
G75*
D01*
G02X576063Y167500I3937J0*
G01*
D02*
G37*
G36*
X596996Y161967D02*
G74*
D01*
G02X596299Y160164I16996J5533*
G01*
X596299Y160164D01*
X588964Y167500D01*
X596299Y174836D01*
G74*
D01*
G02X597872Y167747I16299J7336*
G01*
G75*
D01*
G02X607336Y166299I2128J-17747*
G01*
X607336Y166299D01*
X600000Y158964D01*
X596996Y161967D01*
D02*
G37*
G36*
X533937Y184874D02*
G75*
D01*
G02X533937Y158827I-28937J-13024*
G01*
X533937Y158827D01*
X520913Y171850D01*
X533937Y184874D01*
D02*
G37*
G36*
X493189Y171850D02*
G75*
D01*
G02X493189Y171850I11811J0*
G01*
D02*
G37*
G36*
X433937Y184874D02*
G74*
D01*
G02X436638Y174299I28937J13024*
G01*
X436638Y174299D01*
X439086Y171850D01*
X436638Y169401D01*
G74*
D01*
G02X433937Y158827I31638J2449*
G01*
X433937Y158827D01*
X430000Y162764D01*
X426063Y158827D01*
G74*
D01*
G02X423362Y169401I28937J13023*
G01*
X423362Y169401D01*
X420913Y171850D01*
X423362Y174299D01*
G74*
D01*
G02X426063Y184874I31638J2449*
G01*
X426063Y184874D01*
X430000Y180937D01*
X433937Y184874D01*
D02*
G37*
G36*
X443189Y171850D02*
G75*
D01*
G02X443189Y171850I11811J0*
G01*
D02*
G37*
G36*
X476063Y184874D02*
X476063Y184874D01*
X480000Y180937D01*
X483937Y184874D01*
G74*
D01*
G02X486638Y174299I28937J13024*
G01*
X486638Y174299D01*
X489086Y171850D01*
X486638Y169401D01*
G74*
D01*
G02X483937Y158827I31638J2449*
G01*
X483937Y158827D01*
X480000Y162764D01*
X476063Y158827D01*
G74*
D01*
G02X473362Y169401I28937J13023*
G01*
X473362Y169401D01*
X470913Y171850D01*
X473362Y174299D01*
G74*
D01*
G02X476063Y184874I31638J2449*
G01*
D02*
G37*
G36*
X393189Y171850D02*
G75*
D01*
G02X393189Y171850I11811J0*
G01*
D02*
G37*
G36*
X293189Y171850D02*
G75*
D01*
G02X293189Y171850I11811J0*
G01*
D02*
G37*
G36*
X804836Y311201D02*
G75*
D01*
G02X790164Y311201I-7336J16299*
G01*
X790164Y311201D01*
X797500Y318536D01*
X804836Y311201D01*
D02*
G37*
G36*
X827335Y160000D02*
G75*
D01*
G02X807665Y160000I-9835J-12500*
G01*
G75*
D01*
G02X809505Y186250I9835J12500*
G01*
G75*
D01*
G02X807665Y212500I7995J13750*
G01*
G75*
D01*
G02X807665Y237500I9835J12500*
G01*
G75*
D01*
G02X807665Y262500I9835J12500*
G01*
G75*
D01*
G02X807665Y287500I9835J12500*
G01*
G75*
D01*
G02X817369Y315905I9835J12500*
G01*
X817369Y315905D01*
X820000Y318536D01*
X824036Y314501D01*
G75*
D01*
G02X827335Y287500I-6536J-14501*
G01*
G75*
D01*
G02X827335Y262500I-9835J-12500*
G01*
G75*
D01*
G02X827335Y237500I-9835J-12500*
G01*
G75*
D01*
G02X827335Y212500I-9835J-12500*
G01*
G75*
D01*
G02X825495Y186250I-9835J-12500*
G01*
G75*
D01*
G02X827335Y160000I-7995J-13750*
G01*
D02*
G37*
G36*
X727336Y153701D02*
G75*
D01*
G02X712664Y153701I-7336J16299*
G01*
X712664Y153701D01*
X720000Y161036D01*
X727336Y153701D01*
D02*
G37*
G36*
X616299Y157336D02*
G75*
D01*
G02X616299Y142664I-16299J-7336*
G01*
X616299Y142664D01*
X608964Y150000D01*
X616299Y157336D01*
D02*
G37*
G36*
X607336Y133701D02*
G75*
D01*
G02X592664Y133701I-7336J16299*
G01*
X592664Y133701D01*
X600000Y141036D01*
X607336Y133701D01*
D02*
G37*
G36*
X596063Y150000D02*
G75*
D01*
G02X596063Y150000I3937J0*
G01*
D02*
G37*
G36*
X582128Y149753D02*
G75*
D01*
G02X572664Y151201I-2128J17747*
G01*
X572664Y151201D01*
X580000Y158536D01*
X583004Y155533D01*
G74*
D01*
G02X583701Y157336I16996J5533*
G01*
X583701Y157336D01*
X591036Y150000D01*
X583701Y142664D01*
G74*
D01*
G02X582128Y149753I16299J7336*
G01*
D02*
G37*
G36*
X518023Y142914D02*
G75*
D01*
G02X491977Y142914I-13023J28936*
G01*
X491977Y142914D01*
X505000Y155937D01*
X518023Y142914D01*
D02*
G37*
G36*
X468023Y142914D02*
G75*
D01*
G02X441977Y142914I-13023J28936*
G01*
X441977Y142914D01*
X455000Y155937D01*
X468023Y142914D01*
D02*
G37*
G36*
X418023Y142914D02*
G75*
D01*
G02X391977Y142914I-13023J28936*
G01*
X391977Y142914D01*
X405000Y155937D01*
X418023Y142914D01*
D02*
G37*
G36*
X318023Y142914D02*
G75*
D01*
G02X291977Y142914I-13023J28936*
G01*
X291977Y142914D01*
X305000Y155937D01*
X318023Y142914D01*
D02*
G37*
G36*
X507449Y190213D02*
X507449Y190213D01*
X505000Y187764D01*
X502551Y190213D01*
G74*
D01*
G02X480000Y202307I2449J31637*
G01*
G74*
D01*
G02X457449Y190213I25000J19543*
G01*
X457449Y190213D01*
X455000Y187764D01*
X452551Y190213D01*
G74*
D01*
G02X430000Y202307I2449J31637*
G01*
G74*
D01*
G02X407449Y190213I25000J19543*
G01*
X407449Y190213D01*
X405000Y187764D01*
X402551Y190213D01*
G74*
D01*
G02X380000Y202307I2449J31637*
G01*
G74*
D01*
G02X374543Y196850I25000J19543*
G01*
G74*
D01*
G02X386638Y174299I19543J25000*
G01*
X386638Y174299D01*
X389086Y171850D01*
X386638Y169401D01*
G75*
D01*
G02X323362Y169401I-31638J2449*
G01*
X323362Y169401D01*
X320913Y171850D01*
X323362Y174299D01*
G74*
D01*
G02X335457Y196850I31638J2449*
G01*
G74*
D01*
G02X330000Y202307I19543J25000*
G01*
G74*
D01*
G02X307449Y190213I25000J19543*
G01*
X307449Y190213D01*
X305000Y187764D01*
X302551Y190213D01*
G74*
D01*
G02X280000Y202307I2449J31637*
G01*
G74*
D01*
G02X274543Y196850I25000J19543*
G01*
G74*
D01*
G02X286638Y174299I19543J25000*
G01*
X286638Y174299D01*
X289086Y171850D01*
X286638Y169401D01*
G75*
D01*
G02X230000Y152307I-31638J2449*
G01*
G75*
D01*
G02X180000Y152307I-25000J19543*
G01*
G75*
D01*
G02X130000Y152307I-25000J19543*
G01*
G75*
D01*
G02X80000Y152307I-25000J19543*
G01*
G75*
D01*
G02X35457Y196850I-25000J19543*
G01*
G75*
D01*
G02X80000Y241394I19543J25000*
G01*
G75*
D01*
G02X130000Y241394I25000J-19544*
G01*
G75*
D01*
G02X180000Y241394I25000J-19544*
G01*
G75*
D01*
G02X230000Y241394I25000J-19544*
G01*
G75*
D01*
G02X280000Y241394I25000J-19544*
G01*
G75*
D01*
G02X330000Y241394I25000J-19544*
G01*
G75*
D01*
G02X380000Y241394I25000J-19544*
G01*
G75*
D01*
G02X430000Y241394I25000J-19544*
G01*
G75*
D01*
G02X480000Y241394I25000J-19544*
G01*
G75*
D01*
G02X507449Y190213I25000J-19544*
G01*
D02*
G37*
G36*
X1148799Y337336D02*
G75*
D01*
G02X1148799Y322664I-16299J-7336*
G01*
X1148799Y322664D01*
X1141464Y330000D01*
X1148799Y337336D01*
D02*
G37*
G36*
X1125164Y346299D02*
G75*
D01*
G02X1139836Y346299I7336J-16299*
G01*
X1139836Y346299D01*
X1132500Y338964D01*
X1125164Y346299D01*
D02*
G37*
G36*
X1116201Y337336D02*
X1116201Y337336D01*
X1123536Y330000D01*
X1116201Y322664D01*
G75*
D01*
G02X1116201Y337336I16299J7336*
G01*
D02*
G37*
G36*
X1139836Y313701D02*
G75*
D01*
G02X1125164Y313701I-7336J16299*
G01*
X1125164Y313701D01*
X1132500Y321036D01*
X1139836Y313701D01*
D02*
G37*
G36*
X1040672Y313134D02*
G75*
D01*
G02X1059328Y316866I6828J14366*
G01*
G75*
D01*
G02X1060495Y288750I-6828J-14366*
G01*
G75*
D01*
G02X1062335Y262500I-7995J-13750*
G01*
G75*
D01*
G02X1062335Y237500I-9835J-12500*
G01*
G75*
D01*
G02X1060495Y211250I-9835J-12500*
G01*
G75*
D01*
G02X1062335Y185000I-7995J-13750*
G01*
G75*
D01*
G02X1062335Y160000I-9835J-12500*
G01*
G75*
D01*
G02X1042665Y160000I-9835J-12500*
G01*
G75*
D01*
G02X1042665Y185000I9835J12500*
G01*
G75*
D01*
G02X1044505Y211250I9835J12500*
G01*
G75*
D01*
G02X1042665Y237500I7995J13750*
G01*
G75*
D01*
G02X1042665Y262500I9835J12500*
G01*
G75*
D01*
G02X1044505Y288750I9835J12500*
G01*
G75*
D01*
G02X1040672Y313134I7995J13750*
G01*
D02*
G37*
G36*
X1861201Y212336D02*
X1861201Y212336D01*
X1868536Y205000D01*
X1861201Y197664D01*
G75*
D01*
G02X1861201Y212336I16299J7336*
G01*
D02*
G37*
G36*
X1825090Y175374D02*
X1825090Y175374D01*
X1818964Y181500D01*
X1826299Y188836D01*
G75*
D01*
G02X1826759Y175287I-16299J-7336*
G01*
G75*
D01*
G02X1808240Y163713I-1759J-17787*
G01*
G74*
D01*
G02X1802664Y165201I1760J17787*
G01*
X1802664Y165201D01*
X1810000Y172536D01*
X1812379Y170157D01*
G75*
D01*
G02X1825090Y175374I12621J-12657*
G01*
D02*
G37*
G36*
X1861201Y242336D02*
X1861201Y242336D01*
X1868536Y235000D01*
X1861201Y227664D01*
G75*
D01*
G02X1861201Y242336I16299J7336*
G01*
D02*
G37*
G36*
X1746063Y181500D02*
G75*
D01*
G02X1746063Y181500I3937J0*
G01*
D02*
G37*
G36*
X1757336Y165201D02*
G75*
D01*
G02X1742664Y165201I-7336J16299*
G01*
X1742664Y165201D01*
X1750000Y172536D01*
X1757336Y165201D01*
D02*
G37*
G36*
X1766299Y188836D02*
G75*
D01*
G02X1766299Y174164I-16299J-7336*
G01*
X1766299Y174164D01*
X1758964Y181500D01*
X1766299Y188836D01*
D02*
G37*
G36*
X1742664Y197799D02*
G75*
D01*
G02X1757336Y197799I7336J-16299*
G01*
X1757336Y197799D01*
X1750000Y190464D01*
X1742664Y197799D01*
D02*
G37*
G36*
X1793701Y188836D02*
X1793701Y188836D01*
X1801036Y181500D01*
X1793701Y174164D01*
G75*
D01*
G02X1793701Y188836I16299J7336*
G01*
D02*
G37*
G36*
X1806063Y181500D02*
G75*
D01*
G02X1806063Y181500I3937J0*
G01*
D02*
G37*
G36*
X1802664Y197799D02*
G75*
D01*
G02X1817336Y197799I7336J-16299*
G01*
X1817336Y197799D01*
X1810000Y190464D01*
X1802664Y197799D01*
D02*
G37*
G36*
X1733701Y188836D02*
X1733701Y188836D01*
X1741036Y181500D01*
X1733701Y174164D01*
G75*
D01*
G02X1733701Y188836I16299J7336*
G01*
D02*
G37*
G36*
X1546586Y218049D02*
X1546586Y218049D01*
X1540000Y211464D01*
X1536299Y215164D01*
X1532664Y218799D01*
X1528964Y222500D01*
X1536299Y229836D01*
G75*
D01*
G02X1537729Y220229I-16299J-7336*
G01*
G75*
D01*
G02X1547004Y218945I2271J-17729*
G01*
G75*
D01*
G02X1565027Y230097I17996J-8945*
G01*
X1565027Y230097D01*
X1675000Y230097D01*
G75*
D01*
G02X1689187Y195766I0J-20097*
G01*
X1689187Y195766D01*
X1634234Y140813D01*
G74*
D01*
G02X1626956Y136145I14234J14187*
G01*
G75*
D01*
G02X1619969Y134903I-6956J18855*
G01*
X1619969Y134903D01*
X1615000Y134903D01*
G75*
D01*
G02X1610737Y135361I0J20097*
G01*
G74*
D01*
G02X1600130Y141481I4263J19639*
G01*
X1600130Y141481D01*
X1550130Y196481D01*
G75*
D01*
G02X1546586Y218049I14870J13519*
G01*
D02*
G37*
G36*
X1687664Y163799D02*
G75*
D01*
G02X1702336Y163799I7336J-16299*
G01*
X1702336Y163799D01*
X1695000Y156464D01*
X1687664Y163799D01*
D02*
G37*
G36*
X1691063Y147500D02*
G75*
D01*
G02X1691063Y147500I3937J0*
G01*
D02*
G37*
G36*
X1698004Y135533D02*
G74*
D01*
G02X1698701Y137336I16996J5533*
G01*
X1698701Y137336D01*
X1706036Y130000D01*
X1698701Y122664D01*
G74*
D01*
G02X1697128Y129753I16299J7336*
G01*
G75*
D01*
G02X1687664Y131201I-2128J17747*
G01*
X1687664Y131201D01*
X1695000Y138536D01*
X1698004Y135533D01*
D02*
G37*
G36*
X1678701Y154836D02*
X1678701Y154836D01*
X1686036Y147500D01*
X1678701Y140164D01*
G75*
D01*
G02X1678701Y154836I16299J7336*
G01*
D02*
G37*
G36*
X1547336Y186201D02*
G75*
D01*
G02X1532664Y186201I-7336J16299*
G01*
X1532664Y186201D01*
X1540000Y193536D01*
X1547336Y186201D01*
D02*
G37*
G36*
X1516063Y222500D02*
G75*
D01*
G02X1516063Y222500I3937J0*
G01*
D02*
G37*
G36*
X1512664Y206201D02*
X1512664Y206201D01*
X1520000Y213536D01*
X1523701Y209836D01*
X1527336Y206201D01*
X1531036Y202500D01*
X1523701Y195164D01*
G75*
D01*
G02X1522271Y204771I16299J7336*
G01*
G75*
D01*
G02X1512664Y206201I-2271J17729*
G01*
D02*
G37*
G36*
X1503701Y229836D02*
X1503701Y229836D01*
X1511036Y222500D01*
X1503701Y215164D01*
G75*
D01*
G02X1503701Y229836I16299J7336*
G01*
D02*
G37*
G36*
X1536063Y202500D02*
G75*
D01*
G02X1536063Y202500I3937J0*
G01*
D02*
G37*
G36*
X1512664Y238799D02*
G75*
D01*
G02X1527336Y238799I7336J-16299*
G01*
X1527336Y238799D01*
X1520000Y231464D01*
X1512664Y238799D01*
D02*
G37*
G36*
X1436299Y182336D02*
G75*
D01*
G02X1436299Y167664I-16299J-7336*
G01*
X1436299Y167664D01*
X1428964Y175000D01*
X1436299Y182336D01*
D02*
G37*
G36*
X1376063Y175000D02*
G75*
D01*
G02X1376063Y175000I3937J0*
G01*
D02*
G37*
G36*
X1403701Y182336D02*
X1403701Y182336D01*
X1411036Y175000D01*
X1407336Y171299D01*
X1406203Y170167D01*
X1403701Y167664D01*
X1400000Y163964D01*
X1396299Y167664D01*
X1392664Y171299D01*
X1388964Y175000D01*
X1396299Y182336D01*
G75*
D01*
G02X1397729Y172729I-16299J-7336*
G01*
G75*
D01*
G02X1402271Y172729I2271J-17729*
G01*
G75*
D01*
G02X1403701Y182336I17729J2271*
G01*
D02*
G37*
G36*
X1372664Y191299D02*
G75*
D01*
G02X1387336Y191299I7336J-16299*
G01*
X1387336Y191299D01*
X1380000Y183964D01*
X1372664Y191299D01*
D02*
G37*
G36*
X1356299Y182336D02*
G75*
D01*
G02X1357729Y172729I-16299J-7336*
G01*
G75*
D01*
G02X1362271Y172729I2271J-17729*
G01*
G75*
D01*
G02X1363701Y182336I17729J2271*
G01*
X1363701Y182336D01*
X1371036Y175000D01*
X1363701Y167664D01*
X1360000Y163964D01*
X1356299Y167664D01*
X1352664Y171299D01*
X1348964Y175000D01*
X1356299Y182336D01*
D02*
G37*
G36*
X1356299Y232336D02*
G75*
D01*
G02X1356299Y217664I-16299J-7336*
G01*
X1356299Y217664D01*
X1348964Y225000D01*
X1356299Y232336D01*
D02*
G37*
G36*
X1416063Y175000D02*
G75*
D01*
G02X1416063Y175000I3937J0*
G01*
D02*
G37*
G36*
X1412664Y191299D02*
G75*
D01*
G02X1427336Y191299I7336J-16299*
G01*
X1427336Y191299D01*
X1420000Y183964D01*
X1412664Y191299D01*
D02*
G37*
G36*
X1323701Y232336D02*
X1323701Y232336D01*
X1331036Y225000D01*
X1323701Y217664D01*
G75*
D01*
G02X1323701Y232336I16299J7336*
G01*
D02*
G37*
G36*
X1323701Y182336D02*
X1323701Y182336D01*
X1331036Y175000D01*
X1323701Y167664D01*
G75*
D01*
G02X1323701Y182336I16299J7336*
G01*
D02*
G37*
G36*
X1336063Y225000D02*
G75*
D01*
G02X1336063Y225000I3937J0*
G01*
D02*
G37*
G36*
X1347336Y208701D02*
G75*
D01*
G02X1332664Y208701I-7336J16299*
G01*
X1332664Y208701D01*
X1340000Y216036D01*
X1347336Y208701D01*
D02*
G37*
G36*
X1332664Y241299D02*
G75*
D01*
G02X1347336Y241299I7336J-16299*
G01*
X1347336Y241299D01*
X1340000Y233964D01*
X1332664Y241299D01*
D02*
G37*
G36*
X1336063Y175000D02*
G75*
D01*
G02X1336063Y175000I3937J0*
G01*
D02*
G37*
G36*
X1332664Y191299D02*
G75*
D01*
G02X1347336Y191299I7336J-16299*
G01*
X1347336Y191299D01*
X1340000Y183964D01*
X1332664Y191299D01*
D02*
G37*
G36*
X1711063Y130000D02*
G75*
D01*
G02X1711063Y130000I3937J0*
G01*
D02*
G37*
G36*
X1722336Y113701D02*
G75*
D01*
G02X1707664Y113701I-7336J16299*
G01*
X1707664Y113701D01*
X1715000Y121036D01*
X1722336Y113701D01*
D02*
G37*
G36*
X1711996Y141967D02*
G74*
D01*
G02X1711299Y140164I16996J5533*
G01*
X1711299Y140164D01*
X1703964Y147500D01*
X1711299Y154836D01*
G74*
D01*
G02X1712872Y147747I16299J7336*
G01*
G75*
D01*
G02X1722336Y146299I2128J-17747*
G01*
X1722336Y146299D01*
X1715000Y138964D01*
X1711996Y141967D01*
D02*
G37*
G36*
X1731299Y137336D02*
G75*
D01*
G02X1731299Y122664I-16299J-7336*
G01*
X1731299Y122664D01*
X1723964Y130000D01*
X1731299Y137336D01*
D02*
G37*
G36*
X1587664Y91299D02*
G75*
D01*
G02X1602336Y91299I7336J-16299*
G01*
X1602336Y91299D01*
X1595000Y83964D01*
X1587664Y91299D01*
D02*
G37*
G36*
X1436299Y142336D02*
G75*
D01*
G02X1436299Y127664I-16299J-7336*
G01*
X1436299Y127664D01*
X1428964Y135000D01*
X1436299Y142336D01*
D02*
G37*
G36*
X1436299Y102336D02*
G75*
D01*
G02X1436299Y87664I-16299J-7336*
G01*
X1436299Y87664D01*
X1428964Y95000D01*
X1436299Y102336D01*
D02*
G37*
G36*
X1447664Y86299D02*
G75*
D01*
G02X1462336Y86299I7336J-16299*
G01*
X1462336Y86299D01*
X1455000Y78964D01*
X1447664Y86299D01*
D02*
G37*
G36*
X1356063Y115000D02*
G75*
D01*
G02X1356063Y115000I3937J0*
G01*
D02*
G37*
G36*
X1352664Y98701D02*
X1352664Y98701D01*
X1356299Y102336D01*
X1360000Y106036D01*
X1363701Y102336D01*
X1367336Y98701D01*
X1371036Y95000D01*
X1367336Y91299D01*
X1363701Y87664D01*
X1360000Y83964D01*
X1356299Y87664D01*
X1352664Y91299D01*
X1348964Y95000D01*
X1352664Y98701D01*
D02*
G37*
G36*
X1372664Y118701D02*
X1372664Y118701D01*
X1372664Y118701D01*
X1380000Y126036D01*
X1383701Y122336D01*
X1387336Y118701D01*
X1391036Y115000D01*
X1387336Y111299D01*
X1383701Y107664D01*
X1380000Y103964D01*
X1372664Y111299D01*
X1372664Y111299D01*
X1372664Y111299D01*
X1368964Y115000D01*
X1372664Y118701D01*
D02*
G37*
G36*
X1367336Y131299D02*
X1367336Y131299D01*
X1363701Y127664D01*
X1360000Y123964D01*
X1356299Y127664D01*
X1352664Y131299D01*
X1348964Y135000D01*
X1352664Y138701D01*
X1356299Y142336D01*
X1360000Y146036D01*
X1363701Y142336D01*
X1367336Y138701D01*
X1371036Y135000D01*
X1367336Y131299D01*
D02*
G37*
G36*
X1332664Y111299D02*
G75*
D01*
G02X1342271Y112729I7336J-16299*
G01*
G75*
D01*
G02X1342271Y117271I17729J2271*
G01*
G75*
D01*
G02X1332664Y118701I-2271J17729*
G01*
X1332664Y118701D01*
X1340000Y126036D01*
X1343701Y122336D01*
X1347336Y118701D01*
X1351036Y115000D01*
X1347336Y111299D01*
X1343701Y107664D01*
X1340000Y103964D01*
X1332664Y111299D01*
D02*
G37*
G36*
X1376063Y135000D02*
G75*
D01*
G02X1376063Y135000I3937J0*
G01*
D02*
G37*
G36*
X1393306Y139343D02*
X1393306Y139343D01*
X1400000Y146036D01*
X1404679Y141358D01*
X1411036Y135000D01*
X1407336Y131299D01*
X1406749Y130712D01*
X1403701Y127664D01*
X1400000Y123964D01*
X1396299Y127664D01*
X1395321Y128642D01*
X1392664Y131299D01*
X1388964Y135000D01*
X1393306Y139343D01*
D02*
G37*
G36*
X1387336Y151299D02*
X1387336Y151299D01*
X1387336Y151299D01*
X1380000Y143964D01*
X1376299Y147664D01*
X1376299Y147664D01*
X1376299Y147664D01*
X1368964Y155000D01*
X1372664Y158701D01*
X1376299Y162336D01*
X1380000Y166036D01*
X1383701Y162336D01*
X1387336Y158701D01*
X1391036Y155000D01*
X1387336Y151299D01*
D02*
G37*
G36*
X1376063Y95000D02*
G75*
D01*
G02X1376063Y95000I3937J0*
G01*
D02*
G37*
G36*
X1392664Y98701D02*
X1392664Y98701D01*
X1392664Y98701D01*
X1400000Y106036D01*
X1403701Y102336D01*
X1407336Y98701D01*
X1411036Y95000D01*
X1407336Y91299D01*
X1406694Y90657D01*
X1403701Y87664D01*
X1400000Y83964D01*
X1392664Y91299D01*
X1392664Y91299D01*
X1392664Y91299D01*
X1388964Y95000D01*
X1392664Y98701D01*
D02*
G37*
G36*
X1396063Y115000D02*
G75*
D01*
G02X1396063Y115000I3937J0*
G01*
D02*
G37*
G36*
X1427336Y158701D02*
G75*
D01*
G02X1417729Y157271I-7336J16299*
G01*
G75*
D01*
G02X1417729Y152729I-17729J-2271*
G01*
G75*
D01*
G02X1427336Y151299I2271J-17729*
G01*
X1427336Y151299D01*
X1420000Y143964D01*
X1416299Y147664D01*
X1412664Y151299D01*
X1408964Y155000D01*
X1412664Y158701D01*
X1416299Y162336D01*
X1420000Y166036D01*
X1427336Y158701D01*
D02*
G37*
G36*
X1427336Y118701D02*
G75*
D01*
G02X1417729Y117271I-7336J16299*
G01*
G75*
D01*
G02X1417729Y112729I-17729J-2271*
G01*
G75*
D01*
G02X1427336Y111299I2271J-17729*
G01*
X1427336Y111299D01*
X1420000Y103964D01*
X1416299Y107664D01*
X1412664Y111299D01*
X1408964Y115000D01*
X1412664Y118701D01*
X1416299Y122336D01*
X1420000Y126036D01*
X1427336Y118701D01*
D02*
G37*
G36*
X1416063Y135000D02*
G75*
D01*
G02X1416063Y135000I3937J0*
G01*
D02*
G37*
G36*
X1416063Y95000D02*
G75*
D01*
G02X1416063Y95000I3937J0*
G01*
D02*
G37*
G36*
X1396063Y155000D02*
G75*
D01*
G02X1396063Y155000I3937J0*
G01*
D02*
G37*
G36*
X1356063Y155000D02*
G75*
D01*
G02X1356063Y155000I3937J0*
G01*
D02*
G37*
G36*
X1332664Y151299D02*
G75*
D01*
G02X1342271Y152729I7336J-16299*
G01*
G75*
D01*
G02X1342271Y157271I17729J2271*
G01*
G75*
D01*
G02X1332664Y158701I-2271J17729*
G01*
X1332664Y158701D01*
X1340000Y166036D01*
X1343701Y162336D01*
X1347336Y158701D01*
X1351036Y155000D01*
X1347336Y151299D01*
X1343701Y147664D01*
X1340000Y143964D01*
X1332664Y151299D01*
D02*
G37*
G36*
X1323701Y142336D02*
X1323701Y142336D01*
X1331036Y135000D01*
X1323701Y127664D01*
G75*
D01*
G02X1323701Y142336I16299J7336*
G01*
D02*
G37*
G36*
X1323701Y102336D02*
X1323701Y102336D01*
X1331036Y95000D01*
X1323701Y87664D01*
G75*
D01*
G02X1323701Y102336I16299J7336*
G01*
D02*
G37*
G36*
X1295164Y86299D02*
G75*
D01*
G02X1309836Y86299I7336J-16299*
G01*
X1309836Y86299D01*
X1302500Y78964D01*
X1295164Y86299D01*
D02*
G37*
G36*
X1336063Y135000D02*
G75*
D01*
G02X1336063Y135000I3937J0*
G01*
D02*
G37*
G36*
X1336063Y95000D02*
G75*
D01*
G02X1336063Y95000I3937J0*
G01*
D02*
G37*
G36*
X1206063Y120000D02*
G75*
D01*
G02X1206063Y120000I3937J0*
G01*
D02*
G37*
G36*
X1217336Y103701D02*
G75*
D01*
G02X1202664Y103701I-7336J16299*
G01*
X1202664Y103701D01*
X1210000Y111036D01*
X1217336Y103701D01*
D02*
G37*
G36*
X1226299Y127336D02*
G75*
D01*
G02X1226299Y112664I-16299J-7336*
G01*
X1226299Y112664D01*
X1218964Y120000D01*
X1226299Y127336D01*
D02*
G37*
G36*
X1202664Y136299D02*
G75*
D01*
G02X1217336Y136299I7336J-16299*
G01*
X1217336Y136299D01*
X1210000Y128964D01*
X1202664Y136299D01*
D02*
G37*
G36*
X1193701Y127336D02*
X1193701Y127336D01*
X1201036Y120000D01*
X1193701Y112664D01*
G75*
D01*
G02X1193701Y127336I16299J7336*
G01*
D02*
G37*
G36*
X1102664Y96299D02*
G75*
D01*
G02X1117336Y96299I7336J-16299*
G01*
X1117336Y96299D01*
X1110000Y88964D01*
X1102664Y96299D01*
D02*
G37*
G36*
X1092126Y120000D02*
G75*
D01*
G02X1092126Y120000I17874J0*
G01*
D02*
G37*
G36*
X1699626Y85000D02*
G75*
D01*
G02X1699626Y85000I17874J0*
G01*
D02*
G37*
G36*
X1602336Y58701D02*
G75*
D01*
G02X1587664Y58701I-7336J16299*
G01*
X1587664Y58701D01*
X1595000Y66036D01*
X1602336Y58701D01*
D02*
G37*
G36*
X1591063Y75000D02*
G75*
D01*
G02X1591063Y75000I3937J0*
G01*
D02*
G37*
G36*
X1611299Y82336D02*
G75*
D01*
G02X1611299Y67664I-16299J-7336*
G01*
X1611299Y67664D01*
X1603964Y75000D01*
X1611299Y82336D01*
D02*
G37*
G36*
X1578701Y82336D02*
X1578701Y82336D01*
X1586036Y75000D01*
X1578701Y67664D01*
G75*
D01*
G02X1578701Y82336I16299J7336*
G01*
D02*
G37*
G36*
X1451063Y70000D02*
G75*
D01*
G02X1451063Y70000I3937J0*
G01*
D02*
G37*
G36*
X1462336Y53701D02*
G75*
D01*
G02X1447664Y53701I-7336J16299*
G01*
X1447664Y53701D01*
X1455000Y61036D01*
X1462336Y53701D01*
D02*
G37*
G36*
X1471299Y77336D02*
G75*
D01*
G02X1471299Y62664I-16299J-7336*
G01*
X1471299Y62664D01*
X1463964Y70000D01*
X1471299Y77336D01*
D02*
G37*
G36*
X1438701Y77336D02*
X1438701Y77336D01*
X1446036Y70000D01*
X1438701Y62664D01*
G75*
D01*
G02X1438701Y77336I16299J7336*
G01*
D02*
G37*
G36*
X1407336Y58701D02*
G75*
D01*
G02X1392664Y58701I-7336J16299*
G01*
X1392664Y58701D01*
X1400000Y66036D01*
X1407336Y58701D01*
D02*
G37*
G36*
X1367336Y58701D02*
G75*
D01*
G02X1352664Y58701I-7336J16299*
G01*
X1352664Y58701D01*
X1360000Y66036D01*
X1367336Y58701D01*
D02*
G37*
G36*
X1383701Y67664D02*
G75*
D01*
G02X1382271Y77271I16299J7336*
G01*
G75*
D01*
G02X1377729Y77271I-2271J17729*
G01*
G75*
D01*
G02X1376299Y67664I-17729J-2271*
G01*
X1376299Y67664D01*
X1368964Y75000D01*
X1372664Y78701D01*
X1376299Y82336D01*
X1380000Y86036D01*
X1383701Y82336D01*
X1387336Y78701D01*
X1391036Y75000D01*
X1383701Y67664D01*
D02*
G37*
G36*
X1427336Y78701D02*
G75*
D01*
G02X1417729Y77271I-7336J16299*
G01*
G75*
D01*
G02X1416299Y67664I-17729J-2271*
G01*
X1416299Y67664D01*
X1408964Y75000D01*
X1412664Y78701D01*
X1416299Y82336D01*
X1420000Y86036D01*
X1427336Y78701D01*
D02*
G37*
G36*
X1396063Y75000D02*
G75*
D01*
G02X1396063Y75000I3937J0*
G01*
D02*
G37*
G36*
X1356063Y75000D02*
G75*
D01*
G02X1356063Y75000I3937J0*
G01*
D02*
G37*
G36*
X1343701Y67664D02*
G75*
D01*
G02X1342271Y77271I16299J7336*
G01*
G75*
D01*
G02X1332664Y78701I-2271J17729*
G01*
X1332664Y78701D01*
X1340000Y86036D01*
X1343701Y82336D01*
X1347336Y78701D01*
X1351036Y75000D01*
X1343701Y67664D01*
D02*
G37*
G36*
X1298563Y70000D02*
G75*
D01*
G02X1298563Y70000I3937J0*
G01*
D02*
G37*
G36*
X1309836Y53701D02*
G75*
D01*
G02X1295164Y53701I-7336J16299*
G01*
X1295164Y53701D01*
X1302500Y61036D01*
X1309836Y53701D01*
D02*
G37*
G36*
X1318799Y77336D02*
G75*
D01*
G02X1318799Y62664I-16299J-7336*
G01*
X1318799Y62664D01*
X1311464Y70000D01*
X1318799Y77336D01*
D02*
G37*
G36*
X1286201Y77336D02*
X1286201Y77336D01*
X1293536Y70000D01*
X1286201Y62664D01*
G75*
D01*
G02X1286201Y77336I16299J7336*
G01*
D02*
G37*
G36*
X1117336Y63701D02*
G75*
D01*
G02X1102664Y63701I-7336J16299*
G01*
X1102664Y63701D01*
X1110000Y71036D01*
X1117336Y63701D01*
D02*
G37*
G36*
X1157126Y82500D02*
G75*
D01*
G02X1157126Y82500I17874J0*
G01*
D02*
G37*
G36*
X1106063Y80000D02*
G75*
D01*
G02X1106063Y80000I3937J0*
G01*
D02*
G37*
G36*
X1126299Y87336D02*
G75*
D01*
G02X1126299Y72664I-16299J-7336*
G01*
X1126299Y72664D01*
X1118964Y80000D01*
X1126299Y87336D01*
D02*
G37*
G36*
X1093701Y87336D02*
X1093701Y87336D01*
X1101036Y80000D01*
X1093701Y72664D01*
G75*
D01*
G02X1093701Y87336I16299J7336*
G01*
D02*
G37*
G36*
X1128563Y330000D02*
G75*
D01*
G02X1128563Y330000I3937J0*
G01*
D02*
G37*
G36*
X2716063Y245000D02*
G75*
D01*
G02X2716063Y245000I3937J0*
G01*
D02*
G37*
G36*
X2736299Y252336D02*
G75*
D01*
G02X2736299Y237664I-16299J-7336*
G01*
X2736299Y237664D01*
X2728964Y245000D01*
X2736299Y252336D01*
D02*
G37*
G36*
X2712664Y261299D02*
G75*
D01*
G02X2727336Y261299I7336J-16299*
G01*
X2727336Y261299D01*
X2720000Y253964D01*
X2712664Y261299D01*
D02*
G37*
G36*
X2703701Y252336D02*
X2703701Y252336D01*
X2711036Y245000D01*
X2703701Y237664D01*
G75*
D01*
G02X2703701Y252336I16299J7336*
G01*
D02*
G37*
G36*
X2641063Y292500D02*
G75*
D01*
G02X2641063Y292500I3937J0*
G01*
D02*
G37*
G36*
X2637664Y276201D02*
X2637664Y276201D01*
X2645000Y283536D01*
X2648701Y279836D01*
X2652336Y276201D01*
X2656036Y272500D01*
X2648701Y265164D01*
G75*
D01*
G02X2647271Y274771I16299J7336*
G01*
G75*
D01*
G02X2637664Y276201I-2271J17729*
G01*
D02*
G37*
G36*
X2661299Y299836D02*
G75*
D01*
G02X2662729Y290229I-16299J-7336*
G01*
G75*
D01*
G02X2672336Y288799I2271J-17729*
G01*
X2672336Y288799D01*
X2665000Y281464D01*
X2661299Y285164D01*
X2657664Y288799D01*
X2653964Y292500D01*
X2661299Y299836D01*
D02*
G37*
G36*
X2637664Y308799D02*
G75*
D01*
G02X2652336Y308799I7336J-16299*
G01*
X2652336Y308799D01*
X2645000Y301464D01*
X2637664Y308799D01*
D02*
G37*
G36*
X2628701Y299836D02*
X2628701Y299836D01*
X2636036Y292500D01*
X2628701Y285164D01*
G75*
D01*
G02X2628701Y299836I16299J7336*
G01*
D02*
G37*
G36*
X2661063Y272500D02*
G75*
D01*
G02X2661063Y272500I3937J0*
G01*
D02*
G37*
G36*
X2672336Y256201D02*
G75*
D01*
G02X2657664Y256201I-7336J16299*
G01*
X2657664Y256201D01*
X2665000Y263536D01*
X2672336Y256201D01*
D02*
G37*
G36*
X2681299Y279836D02*
G75*
D01*
G02X2681299Y265164I-16299J-7336*
G01*
X2681299Y265164D01*
X2673964Y272500D01*
X2681299Y279836D01*
D02*
G37*
G36*
X2542664Y246299D02*
G75*
D01*
G02X2557336Y246299I7336J-16299*
G01*
X2557336Y246299D01*
X2550000Y238964D01*
X2542664Y246299D01*
D02*
G37*
G36*
X2502664Y246299D02*
G75*
D01*
G02X2517336Y246299I7336J-16299*
G01*
X2517336Y246299D01*
X2510000Y238964D01*
X2502664Y246299D01*
D02*
G37*
G36*
X2462664Y246299D02*
G75*
D01*
G02X2477336Y246299I7336J-16299*
G01*
X2477336Y246299D01*
X2470000Y238964D01*
X2462664Y246299D01*
D02*
G37*
G36*
X1945164Y251299D02*
G75*
D01*
G02X1959836Y251299I7336J-16299*
G01*
X1959836Y251299D01*
X1952500Y243964D01*
X1945164Y251299D01*
D02*
G37*
G36*
X1907664Y251299D02*
G75*
D01*
G02X1922336Y251299I7336J-16299*
G01*
X1922336Y251299D01*
X1915000Y243964D01*
X1907664Y251299D01*
D02*
G37*
G36*
X2788936Y197565D02*
G75*
D01*
G02X2781064Y197565I-3936J-65*
G01*
G74*
D01*
G02X2777664Y198701I3936J17435*
G01*
X2777664Y198701D01*
X2778964Y200000D01*
X2776464Y202500D01*
X2782714Y208750D01*
X2777664Y213799D01*
G74*
D01*
G02X2781064Y214935I7336J16299*
G01*
G75*
D01*
G02X2781082Y215382I3936J65*
G01*
X2781082Y215382D01*
X2776464Y220000D01*
X2782714Y226250D01*
X2777664Y231299D01*
G75*
D01*
G02X2792336Y231299I7336J-16299*
G01*
X2792336Y231299D01*
X2785000Y223964D01*
X2784908Y224056D01*
G75*
D01*
G02X2785341Y218922I-17408J-4056*
G01*
G75*
D01*
G02X2788936Y214935I-341J-3922*
G01*
G74*
D01*
G02X2792336Y213799I3936J17435*
G01*
X2792336Y213799D01*
X2785000Y206464D01*
X2784908Y206556D01*
G74*
D01*
G02X2785026Y206010I17408J4056*
G01*
X2785026Y206010D01*
X2792336Y198701D01*
G74*
D01*
G02X2788936Y197565I7336J16299*
G01*
D02*
G37*
G36*
X2801299Y222336D02*
G75*
D01*
G02X2801299Y207664I-16299J-7336*
G01*
X2801299Y207664D01*
X2793964Y215000D01*
X2801299Y222336D01*
D02*
G37*
G36*
X2763564Y202565D02*
G74*
D01*
G02X2760164Y203701I3936J17435*
G01*
X2760164Y203701D01*
X2767500Y211036D01*
X2767592Y210944D01*
G74*
D01*
G02X2767474Y211490I17408J4056*
G01*
X2767474Y211490D01*
X2760164Y218799D01*
G74*
D01*
G02X2763564Y219935I7336J16299*
G01*
G75*
D01*
G02X2771436Y219935I3936J65*
G01*
G74*
D01*
G02X2774836Y218799I3936J17435*
G01*
X2774836Y218799D01*
X2773536Y217500D01*
X2776036Y215000D01*
X2769786Y208750D01*
X2774836Y203701D01*
G74*
D01*
G02X2771436Y202565I7336J16299*
G01*
G75*
D01*
G02X2771418Y202118I-3936J-65*
G01*
X2771418Y202118D01*
X2776036Y197500D01*
X2769786Y191250D01*
X2774836Y186201D01*
G75*
D01*
G02X2760164Y186201I-7336J16299*
G01*
X2760164Y186201D01*
X2767500Y193536D01*
X2767592Y193444D01*
G75*
D01*
G02X2767159Y198578I17408J4056*
G01*
G75*
D01*
G02X2763564Y202565I341J3922*
G01*
D02*
G37*
G36*
X2792336Y181201D02*
G75*
D01*
G02X2777664Y181201I-7336J16299*
G01*
X2777664Y181201D01*
X2785000Y188536D01*
X2792336Y181201D01*
D02*
G37*
G36*
X2801299Y204836D02*
G75*
D01*
G02X2801299Y190164I-16299J-7336*
G01*
X2801299Y190164D01*
X2793964Y197500D01*
X2801299Y204836D01*
D02*
G37*
G36*
X2760164Y236299D02*
G75*
D01*
G02X2774836Y236299I7336J-16299*
G01*
X2774836Y236299D01*
X2767500Y228964D01*
X2760164Y236299D01*
D02*
G37*
G36*
X2727336Y228701D02*
G75*
D01*
G02X2712664Y228701I-7336J16299*
G01*
X2712664Y228701D01*
X2720000Y236036D01*
X2727336Y228701D01*
D02*
G37*
G36*
X2751201Y209836D02*
X2751201Y209836D01*
X2758536Y202500D01*
X2751201Y195164D01*
G75*
D01*
G02X2751201Y209836I16299J7336*
G01*
D02*
G37*
G36*
X2751201Y227336D02*
X2751201Y227336D01*
X2758536Y220000D01*
X2751201Y212664D01*
G75*
D01*
G02X2751201Y227336I16299J7336*
G01*
D02*
G37*
G36*
X2655164Y171299D02*
G75*
D01*
G02X2669836Y171299I7336J-16299*
G01*
X2669836Y171299D01*
X2662500Y163964D01*
X2655164Y171299D01*
D02*
G37*
G36*
X2546063Y190000D02*
G75*
D01*
G02X2546063Y190000I3937J0*
G01*
D02*
G37*
G36*
X2557336Y173701D02*
G75*
D01*
G02X2547729Y172271I-7336J16299*
G01*
G75*
D01*
G02X2547729Y167729I-17729J-2271*
G01*
G75*
D01*
G02X2557336Y166299I2271J-17729*
G01*
X2557336Y166299D01*
X2550000Y158964D01*
X2546299Y162664D01*
X2542664Y166299D01*
X2538964Y170000D01*
X2542664Y173701D01*
X2546299Y177336D01*
X2550000Y181036D01*
X2557336Y173701D01*
D02*
G37*
G36*
X2566299Y197336D02*
G75*
D01*
G02X2566299Y182664I-16299J-7336*
G01*
X2566299Y182664D01*
X2558964Y190000D01*
X2566299Y197336D01*
D02*
G37*
G36*
X2557336Y213701D02*
G75*
D01*
G02X2547729Y212271I-7336J16299*
G01*
G75*
D01*
G02X2547729Y207729I-17729J-2271*
G01*
G75*
D01*
G02X2557336Y206299I2271J-17729*
G01*
X2557336Y206299D01*
X2550000Y198964D01*
X2546299Y202664D01*
X2542664Y206299D01*
X2538964Y210000D01*
X2542664Y213701D01*
X2546299Y217336D01*
X2550000Y221036D01*
X2557336Y213701D01*
D02*
G37*
G36*
X2533701Y197336D02*
X2533701Y197336D01*
X2537336Y193701D01*
X2541036Y190000D01*
X2537336Y186299D01*
X2530000Y178964D01*
X2526299Y182664D01*
X2522664Y186299D01*
X2518964Y190000D01*
X2522664Y193701D01*
X2526299Y197336D01*
X2530000Y201036D01*
X2533701Y197336D01*
D02*
G37*
G36*
X2546063Y230000D02*
G75*
D01*
G02X2546063Y230000I3937J0*
G01*
D02*
G37*
G36*
X2526063Y210000D02*
G75*
D01*
G02X2526063Y210000I3937J0*
G01*
D02*
G37*
G36*
X2526299Y237336D02*
G75*
D01*
G02X2527729Y227729I-16299J-7336*
G01*
G75*
D01*
G02X2532271Y227729I2271J-17729*
G01*
G75*
D01*
G02X2533701Y237336I17729J2271*
G01*
X2533701Y237336D01*
X2541036Y230000D01*
X2537336Y226299D01*
X2533701Y222664D01*
X2530000Y218964D01*
X2526299Y222664D01*
X2522664Y226299D01*
X2518964Y230000D01*
X2526299Y237336D01*
D02*
G37*
G36*
X2526063Y170000D02*
G75*
D01*
G02X2526063Y170000I3937J0*
G01*
D02*
G37*
G36*
X2566299Y237336D02*
G75*
D01*
G02X2566299Y222664I-16299J-7336*
G01*
X2566299Y222664D01*
X2558964Y230000D01*
X2566299Y237336D01*
D02*
G37*
G36*
X2486063Y210000D02*
G75*
D01*
G02X2486063Y210000I3937J0*
G01*
D02*
G37*
G36*
X2497336Y193701D02*
X2497336Y193701D01*
X2501036Y190000D01*
X2497336Y186299D01*
X2493701Y182664D01*
X2490000Y178964D01*
X2486299Y182664D01*
X2482664Y186299D01*
X2478964Y190000D01*
X2482664Y193701D01*
X2486299Y197336D01*
X2490000Y201036D01*
X2493701Y197336D01*
X2497336Y193701D01*
D02*
G37*
G36*
X2506299Y202664D02*
X2506299Y202664D01*
X2502664Y206299D01*
X2498964Y210000D01*
X2502664Y213701D01*
X2506299Y217336D01*
X2510000Y221036D01*
X2513701Y217336D01*
X2517336Y213701D01*
X2521036Y210000D01*
X2517336Y206299D01*
X2513701Y202664D01*
X2510000Y198964D01*
X2506299Y202664D01*
D02*
G37*
G36*
X2486299Y237336D02*
G75*
D01*
G02X2487729Y227729I-16299J-7336*
G01*
G75*
D01*
G02X2492271Y227729I2271J-17729*
G01*
G75*
D01*
G02X2493701Y237336I17729J2271*
G01*
X2493701Y237336D01*
X2501036Y230000D01*
X2497336Y226299D01*
X2493701Y222664D01*
X2490000Y218964D01*
X2486299Y222664D01*
X2482664Y226299D01*
X2478964Y230000D01*
X2486299Y237336D01*
D02*
G37*
G36*
X2462664Y213701D02*
X2462664Y213701D01*
X2470000Y221036D01*
X2473860Y217176D01*
X2481036Y210000D01*
X2473701Y202664D01*
X2470000Y198964D01*
X2462664Y206299D01*
G75*
D01*
G02X2472271Y207729I7336J-16299*
G01*
G75*
D01*
G02X2472271Y212271I17729J2271*
G01*
G75*
D01*
G02X2462664Y213701I-2271J17729*
G01*
D02*
G37*
G36*
X2466063Y190000D02*
G75*
D01*
G02X2466063Y190000I3937J0*
G01*
D02*
G37*
G36*
X2462664Y166299D02*
G75*
D01*
G02X2472271Y167729I7336J-16299*
G01*
G75*
D01*
G02X2472271Y172271I17729J2271*
G01*
G75*
D01*
G02X2462664Y173701I-2271J17729*
G01*
X2462664Y173701D01*
X2470000Y181036D01*
X2473701Y177336D01*
X2477336Y173701D01*
X2481036Y170000D01*
X2477336Y166299D01*
X2476290Y165253D01*
X2473701Y162664D01*
X2470000Y158964D01*
X2462664Y166299D01*
D02*
G37*
G36*
X2453701Y197336D02*
X2453701Y197336D01*
X2461036Y190000D01*
X2453701Y182664D01*
G75*
D01*
G02X2453701Y197336I16299J7336*
G01*
D02*
G37*
G36*
X2506063Y190000D02*
G75*
D01*
G02X2506063Y190000I3937J0*
G01*
D02*
G37*
G36*
X2502664Y173701D02*
X2502664Y173701D01*
X2506299Y177336D01*
X2510000Y181036D01*
X2517336Y173701D01*
X2521036Y170000D01*
X2517336Y166299D01*
X2513701Y162664D01*
X2510000Y158964D01*
X2506299Y162664D01*
X2502664Y166299D01*
X2498964Y170000D01*
X2502664Y173701D01*
D02*
G37*
G36*
X2506063Y230000D02*
G75*
D01*
G02X2506063Y230000I3937J0*
G01*
D02*
G37*
G36*
X2466063Y230000D02*
G75*
D01*
G02X2466063Y230000I3937J0*
G01*
D02*
G37*
G36*
X2486063Y170000D02*
G75*
D01*
G02X2486063Y170000I3937J0*
G01*
D02*
G37*
G36*
X2453701Y237336D02*
X2453701Y237336D01*
X2461036Y230000D01*
X2453701Y222664D01*
G75*
D01*
G02X2453701Y237336I16299J7336*
G01*
D02*
G37*
G36*
X2366063Y225000D02*
G75*
D01*
G02X2366063Y225000I3937J0*
G01*
D02*
G37*
G36*
X2377336Y208701D02*
G75*
D01*
G02X2362664Y208701I-7336J16299*
G01*
X2362664Y208701D01*
X2370000Y216036D01*
X2377336Y208701D01*
D02*
G37*
G36*
X2386299Y232336D02*
G75*
D01*
G02X2386299Y217664I-16299J-7336*
G01*
X2386299Y217664D01*
X2378964Y225000D01*
X2386299Y232336D01*
D02*
G37*
G36*
X2362664Y241299D02*
G75*
D01*
G02X2377336Y241299I7336J-16299*
G01*
X2377336Y241299D01*
X2370000Y233964D01*
X2362664Y241299D01*
D02*
G37*
G36*
X2331063Y175000D02*
G75*
D01*
G02X2331063Y175000I3937J0*
G01*
D02*
G37*
G36*
X2351299Y182336D02*
G75*
D01*
G02X2351299Y167664I-16299J-7336*
G01*
X2351299Y167664D01*
X2343964Y175000D01*
X2351299Y182336D01*
D02*
G37*
G36*
X2327664Y191299D02*
G75*
D01*
G02X2342336Y191299I7336J-16299*
G01*
X2342336Y191299D01*
X2335000Y183964D01*
X2327664Y191299D01*
D02*
G37*
G36*
X2318701Y182336D02*
X2318701Y182336D01*
X2326036Y175000D01*
X2318701Y167664D01*
G75*
D01*
G02X2318701Y182336I16299J7336*
G01*
D02*
G37*
G36*
X2353701Y232336D02*
X2353701Y232336D01*
X2361036Y225000D01*
X2353701Y217664D01*
G75*
D01*
G02X2353701Y232336I16299J7336*
G01*
D02*
G37*
G36*
X1931063Y220000D02*
G75*
D01*
G02X1931063Y220000I3937J0*
G01*
D02*
G37*
G36*
X1932666Y202279D02*
G74*
D01*
G02X1931299Y197664I17666J2721*
G01*
X1931299Y197664D01*
X1923964Y205000D01*
X1931299Y212336D01*
G74*
D01*
G02X1932517Y208554I16299J7336*
G01*
X1932517Y208554D01*
X1935000Y211036D01*
X1935504Y210533D01*
G74*
D01*
G02X1936201Y212336I16996J5533*
G01*
X1936201Y212336D01*
X1943536Y205000D01*
X1942286Y203750D01*
X1942336Y203701D01*
G74*
D01*
G02X1942158Y203622I7336J16299*
G01*
X1942158Y203622D01*
X1936201Y197664D01*
G74*
D01*
G02X1934858Y202127I16299J7336*
G01*
G74*
D01*
G02X1932666Y202279I142J17873*
G01*
D02*
G37*
G36*
X1951996Y225533D02*
X1951996Y225533D01*
X1952500Y226036D01*
X1956010Y222526D01*
G74*
D01*
G02X1959836Y221299I3510J17526*
G01*
X1959836Y221299D01*
X1958536Y220000D01*
X1959836Y218701D01*
G74*
D01*
G02X1956010Y217474I7336J16299*
G01*
X1956010Y217474D01*
X1952500Y213964D01*
X1951996Y214467D01*
G74*
D01*
G02X1951299Y212664I16996J5533*
G01*
X1951299Y212664D01*
X1945342Y218622D01*
G74*
D01*
G02X1945164Y218701I7158J16378*
G01*
X1945164Y218701D01*
X1945214Y218750D01*
X1943964Y220000D01*
X1945214Y221250D01*
X1945164Y221299D01*
G74*
D01*
G02X1945342Y221378I7336J16299*
G01*
X1945342Y221378D01*
X1951299Y227336D01*
G74*
D01*
G02X1951996Y225533I16299J7336*
G01*
D02*
G37*
G36*
X1917483Y216446D02*
X1917483Y216446D01*
X1915000Y213964D01*
X1912517Y216446D01*
G74*
D01*
G02X1911299Y212664I17517J3554*
G01*
X1911299Y212664D01*
X1903964Y220000D01*
X1911299Y227336D01*
G74*
D01*
G02X1912517Y223554I16299J7336*
G01*
X1912517Y223554D01*
X1915000Y226036D01*
X1917483Y223554D01*
G74*
D01*
G02X1918701Y227336I17517J3554*
G01*
X1918701Y227336D01*
X1926036Y220000D01*
X1918701Y212664D01*
G74*
D01*
G02X1917483Y216446I16299J7336*
G01*
D02*
G37*
G36*
X1911063Y205000D02*
G75*
D01*
G02X1911063Y205000I3937J0*
G01*
D02*
G37*
G36*
X1922336Y188701D02*
G75*
D01*
G02X1907664Y188701I-7336J16299*
G01*
X1907664Y188701D01*
X1915000Y196036D01*
X1922336Y188701D01*
D02*
G37*
G36*
X1897334Y202279D02*
G74*
D01*
G02X1895141Y202127I2334J17721*
G01*
G74*
D01*
G02X1893799Y197664I17641J2873*
G01*
X1893799Y197664D01*
X1887842Y203622D01*
G74*
D01*
G02X1887664Y203701I7158J16378*
G01*
X1887664Y203701D01*
X1887714Y203750D01*
X1886464Y205000D01*
X1893799Y212336D01*
G74*
D01*
G02X1894496Y210533I16299J7336*
G01*
X1894496Y210533D01*
X1895000Y211036D01*
X1897483Y208554D01*
G74*
D01*
G02X1898701Y212336I17517J3554*
G01*
X1898701Y212336D01*
X1906036Y205000D01*
X1898701Y197664D01*
G74*
D01*
G02X1897334Y202279I16299J7336*
G01*
D02*
G37*
G36*
X1948563Y205000D02*
G75*
D01*
G02X1948563Y205000I3937J0*
G01*
D02*
G37*
G36*
X1959836Y188701D02*
G75*
D01*
G02X1945164Y188701I-7336J16299*
G01*
X1945164Y188701D01*
X1952500Y196036D01*
X1959836Y188701D01*
D02*
G37*
G36*
X1891063Y220000D02*
G75*
D01*
G02X1891063Y220000I3937J0*
G01*
D02*
G37*
G36*
X1935504Y229467D02*
X1935504Y229467D01*
X1935000Y228964D01*
X1932517Y231446D01*
G74*
D01*
G02X1931299Y227664I17517J3554*
G01*
X1931299Y227664D01*
X1923964Y235000D01*
X1931299Y242336D01*
G74*
D01*
G02X1932666Y237721I16299J7336*
G01*
G74*
D01*
G02X1934858Y237873I2334J17721*
G01*
G74*
D01*
G02X1936201Y242336I17642J2873*
G01*
X1936201Y242336D01*
X1942158Y236378D01*
G74*
D01*
G02X1942336Y236299I7158J16378*
G01*
X1942336Y236299D01*
X1942286Y236250D01*
X1943536Y235000D01*
X1936201Y227664D01*
G74*
D01*
G02X1935504Y229467I16299J7336*
G01*
D02*
G37*
G36*
X1968799Y212336D02*
G75*
D01*
G02X1968799Y197664I-16299J-7336*
G01*
X1968799Y197664D01*
X1961464Y205000D01*
X1968799Y212336D01*
D02*
G37*
G36*
X1948563Y235000D02*
G75*
D01*
G02X1948563Y235000I3937J0*
G01*
D02*
G37*
G36*
X1968799Y242336D02*
G75*
D01*
G02X1968799Y227664I-16299J-7336*
G01*
X1968799Y227664D01*
X1961464Y235000D01*
X1968799Y242336D01*
D02*
G37*
G36*
X1911063Y235000D02*
G75*
D01*
G02X1911063Y235000I3937J0*
G01*
D02*
G37*
G36*
X1897483Y231446D02*
X1897483Y231446D01*
X1895000Y228964D01*
X1894496Y229467D01*
G74*
D01*
G02X1893799Y227664I16996J5533*
G01*
X1893799Y227664D01*
X1886464Y235000D01*
X1887714Y236250D01*
X1887664Y236299D01*
G74*
D01*
G02X1887842Y236378I7336J16299*
G01*
X1887842Y236378D01*
X1893799Y242336D01*
G74*
D01*
G02X1895141Y237873I16299J7336*
G01*
G74*
D01*
G02X1897334Y237721I141J17873*
G01*
G74*
D01*
G02X1898701Y242336I17666J2721*
G01*
X1898701Y242336D01*
X1906036Y235000D01*
X1898701Y227664D01*
G74*
D01*
G02X1897483Y231446I16299J7336*
G01*
D02*
G37*
G36*
X2806063Y145000D02*
G75*
D01*
G02X2806063Y145000I3937J0*
G01*
D02*
G37*
G36*
X2817336Y128701D02*
G75*
D01*
G02X2802664Y128701I-7336J16299*
G01*
X2802664Y128701D01*
X2810000Y136036D01*
X2817336Y128701D01*
D02*
G37*
G36*
X2793701Y152336D02*
X2793701Y152336D01*
X2801036Y145000D01*
X2793701Y137664D01*
G75*
D01*
G02X2793701Y152336I16299J7336*
G01*
D02*
G37*
G36*
X2802664Y161299D02*
G75*
D01*
G02X2817336Y161299I7336J-16299*
G01*
X2817336Y161299D01*
X2810000Y153964D01*
X2802664Y161299D01*
D02*
G37*
G36*
X2669836Y138701D02*
G75*
D01*
G02X2655164Y138701I-7336J16299*
G01*
X2655164Y138701D01*
X2662500Y146036D01*
X2669836Y138701D01*
D02*
G37*
G36*
X2658563Y155000D02*
G75*
D01*
G02X2658563Y155000I3937J0*
G01*
D02*
G37*
G36*
X2678799Y162336D02*
G75*
D01*
G02X2678799Y147664I-16299J-7336*
G01*
X2678799Y147664D01*
X2671464Y155000D01*
X2678799Y162336D01*
D02*
G37*
G36*
X2646201Y162336D02*
X2646201Y162336D01*
X2653536Y155000D01*
X2646201Y147664D01*
G75*
D01*
G02X2646201Y162336I16299J7336*
G01*
D02*
G37*
G36*
X2581063Y125000D02*
G75*
D01*
G02X2581063Y125000I3937J0*
G01*
D02*
G37*
G36*
X2592336Y108701D02*
G75*
D01*
G02X2577664Y108701I-7336J16299*
G01*
X2577664Y108701D01*
X2585000Y116036D01*
X2592336Y108701D01*
D02*
G37*
G36*
X2577664Y141299D02*
G75*
D01*
G02X2592336Y141299I7336J-16299*
G01*
X2592336Y141299D01*
X2585000Y133964D01*
X2577664Y141299D01*
D02*
G37*
G36*
X2568701Y132336D02*
X2568701Y132336D01*
X2576036Y125000D01*
X2568701Y117664D01*
G75*
D01*
G02X2568701Y132336I16299J7336*
G01*
D02*
G37*
G36*
X2546063Y150000D02*
G75*
D01*
G02X2546063Y150000I3937J0*
G01*
D02*
G37*
G36*
X2557336Y133701D02*
G75*
D01*
G02X2547729Y132271I-7336J16299*
G01*
G75*
D01*
G02X2546299Y122664I-17729J-2271*
G01*
X2546299Y122664D01*
X2538964Y130000D01*
X2542664Y133701D01*
X2546299Y137336D01*
X2550000Y141036D01*
X2557336Y133701D01*
D02*
G37*
G36*
X2566299Y157336D02*
G75*
D01*
G02X2566299Y142664I-16299J-7336*
G01*
X2566299Y142664D01*
X2558964Y150000D01*
X2566299Y157336D01*
D02*
G37*
G36*
X2533701Y157336D02*
X2533701Y157336D01*
X2537336Y153701D01*
X2541036Y150000D01*
X2537336Y146299D01*
X2533701Y142664D01*
X2530000Y138964D01*
X2526299Y142664D01*
X2522664Y146299D01*
X2518964Y150000D01*
X2522664Y153701D01*
X2526299Y157336D01*
X2530000Y161036D01*
X2533701Y157336D01*
D02*
G37*
G36*
X2526063Y130000D02*
G75*
D01*
G02X2526063Y130000I3937J0*
G01*
D02*
G37*
G36*
X2537336Y113701D02*
G75*
D01*
G02X2522664Y113701I-7336J16299*
G01*
X2522664Y113701D01*
X2530000Y121036D01*
X2537336Y113701D01*
D02*
G37*
G36*
X2601299Y132336D02*
G75*
D01*
G02X2601299Y117664I-16299J-7336*
G01*
X2601299Y117664D01*
X2593964Y125000D01*
X2601299Y132336D01*
D02*
G37*
G36*
X2486063Y130000D02*
G75*
D01*
G02X2486063Y130000I3937J0*
G01*
D02*
G37*
G36*
X2497336Y113701D02*
G75*
D01*
G02X2482664Y113701I-7336J16299*
G01*
X2482664Y113701D01*
X2490000Y121036D01*
X2497336Y113701D01*
D02*
G37*
G36*
X2506299Y122664D02*
X2506299Y122664D01*
X2498964Y130000D01*
X2502664Y133701D01*
X2506299Y137336D01*
X2510000Y141036D01*
X2513701Y137336D01*
X2517336Y133701D01*
X2521036Y130000D01*
X2513701Y122664D01*
G75*
D01*
G02X2512271Y132271I16299J7336*
G01*
G75*
D01*
G02X2507729Y132271I-2271J17729*
G01*
G75*
D01*
G02X2506299Y122664I-17729J-2271*
G01*
D02*
G37*
G36*
X2497336Y146299D02*
X2497336Y146299D01*
X2493701Y142664D01*
X2490000Y138964D01*
X2486299Y142664D01*
X2482664Y146299D01*
X2478964Y150000D01*
X2482664Y153701D01*
X2486299Y157336D01*
X2490000Y161036D01*
X2493701Y157336D01*
X2497336Y153701D01*
X2501036Y150000D01*
X2497336Y146299D01*
D02*
G37*
G36*
X2473701Y122664D02*
G75*
D01*
G02X2472271Y132271I16299J7336*
G01*
G75*
D01*
G02X2462664Y133701I-2271J17729*
G01*
X2462664Y133701D01*
X2470000Y141036D01*
X2473701Y137336D01*
X2477336Y133701D01*
X2481036Y130000D01*
X2473701Y122664D01*
D02*
G37*
G36*
X2506063Y150000D02*
G75*
D01*
G02X2506063Y150000I3937J0*
G01*
D02*
G37*
G36*
X2466063Y150000D02*
G75*
D01*
G02X2466063Y150000I3937J0*
G01*
D02*
G37*
G36*
X2453701Y157336D02*
X2453701Y157336D01*
X2461036Y150000D01*
X2453701Y142664D01*
G75*
D01*
G02X2453701Y157336I16299J7336*
G01*
D02*
G37*
G36*
X2448799Y132336D02*
G75*
D01*
G02X2448799Y117664I-16299J-7336*
G01*
X2448799Y117664D01*
X2441464Y125000D01*
X2448799Y132336D01*
D02*
G37*
G36*
X2428563Y125000D02*
G75*
D01*
G02X2428563Y125000I3937J0*
G01*
D02*
G37*
G36*
X2439836Y108701D02*
G75*
D01*
G02X2425164Y108701I-7336J16299*
G01*
X2425164Y108701D01*
X2432500Y116036D01*
X2439836Y108701D01*
D02*
G37*
G36*
X2425164Y141299D02*
G75*
D01*
G02X2439836Y141299I7336J-16299*
G01*
X2439836Y141299D01*
X2432500Y133964D01*
X2425164Y141299D01*
D02*
G37*
G36*
X2416201Y132336D02*
X2416201Y132336D01*
X2423536Y125000D01*
X2416201Y117664D01*
G75*
D01*
G02X2416201Y132336I16299J7336*
G01*
D02*
G37*
G36*
X2342336Y158701D02*
G75*
D01*
G02X2327664Y158701I-7336J16299*
G01*
X2327664Y158701D01*
X2335000Y166036D01*
X2342336Y158701D01*
D02*
G37*
G36*
X2231063Y140000D02*
G75*
D01*
G02X2231063Y140000I3937J0*
G01*
D02*
G37*
G36*
X2237128Y122253D02*
G75*
D01*
G02X2227664Y123701I-2128J17747*
G01*
X2227664Y123701D01*
X2235000Y131036D01*
X2238004Y128033D01*
G74*
D01*
G02X2238701Y129836I16996J5533*
G01*
X2238701Y129836D01*
X2246036Y122500D01*
X2238701Y115164D01*
G74*
D01*
G02X2237128Y122253I16299J7336*
G01*
D02*
G37*
G36*
X2251996Y134467D02*
G74*
D01*
G02X2251299Y132664I16996J5533*
G01*
X2251299Y132664D01*
X2243964Y140000D01*
X2251299Y147336D01*
G74*
D01*
G02X2252872Y140247I16299J7336*
G01*
G75*
D01*
G02X2262336Y138799I2128J-17747*
G01*
X2262336Y138799D01*
X2255000Y131464D01*
X2251996Y134467D01*
D02*
G37*
G36*
X2218701Y147336D02*
X2218701Y147336D01*
X2226036Y140000D01*
X2218701Y132664D01*
G75*
D01*
G02X2218701Y147336I16299J7336*
G01*
D02*
G37*
G36*
X2251063Y122500D02*
G75*
D01*
G02X2251063Y122500I3937J0*
G01*
D02*
G37*
G36*
X2262336Y106201D02*
G75*
D01*
G02X2247664Y106201I-7336J16299*
G01*
X2247664Y106201D01*
X2255000Y113536D01*
X2262336Y106201D01*
D02*
G37*
G36*
X2271299Y129836D02*
G75*
D01*
G02X2271299Y115164I-16299J-7336*
G01*
X2271299Y115164D01*
X2263964Y122500D01*
X2271299Y129836D01*
D02*
G37*
G36*
X2227664Y156299D02*
G75*
D01*
G02X2242336Y156299I7336J-16299*
G01*
X2242336Y156299D01*
X2235000Y148964D01*
X2227664Y156299D01*
D02*
G37*
G36*
X2691299Y72336D02*
G75*
D01*
G02X2691299Y57664I-16299J-7336*
G01*
X2691299Y57664D01*
X2683964Y65000D01*
X2691299Y72336D01*
D02*
G37*
G36*
X2658701Y72336D02*
X2658701Y72336D01*
X2666036Y65000D01*
X2658701Y57664D01*
G75*
D01*
G02X2658701Y72336I16299J7336*
G01*
D02*
G37*
G36*
X2671063Y65000D02*
G75*
D01*
G02X2671063Y65000I3937J0*
G01*
D02*
G37*
G36*
X2682336Y48701D02*
G75*
D01*
G02X2667664Y48701I-7336J16299*
G01*
X2667664Y48701D01*
X2675000Y56036D01*
X2682336Y48701D01*
D02*
G37*
G36*
X2667664Y81299D02*
G75*
D01*
G02X2682336Y81299I7336J-16299*
G01*
X2682336Y81299D01*
X2675000Y73964D01*
X2667664Y81299D01*
D02*
G37*
G36*
X3319626Y300000D02*
G75*
D01*
G02X3319626Y300000I17874J0*
G01*
D02*
G37*
G36*
X2878701Y282336D02*
X2878701Y282336D01*
X2886036Y275000D01*
X2878701Y267664D01*
G75*
D01*
G02X2878701Y282336I16299J7336*
G01*
D02*
G37*
G36*
X2887664Y291299D02*
G75*
D01*
G02X2902336Y291299I7336J-16299*
G01*
X2902336Y291299D01*
X2895000Y283964D01*
X2887664Y291299D01*
D02*
G37*
G36*
X2911299Y282336D02*
G75*
D01*
G02X2911299Y267664I-16299J-7336*
G01*
X2911299Y267664D01*
X2903964Y275000D01*
X2911299Y282336D01*
D02*
G37*
G36*
X2902336Y258701D02*
G75*
D01*
G02X2887664Y258701I-7336J16299*
G01*
X2887664Y258701D01*
X2895000Y266036D01*
X2902336Y258701D01*
D02*
G37*
G36*
X2891063Y275000D02*
G75*
D01*
G02X2891063Y275000I3937J0*
G01*
D02*
G37*
G36*
X3375372Y301210D02*
G75*
D01*
G02X3375372Y301210I38622J0*
G01*
D02*
G37*
G36*
X3437588Y238994D02*
G75*
D01*
G02X3437588Y238994I38622J0*
G01*
D02*
G37*
G36*
X3377126Y237500D02*
G75*
D01*
G02X3377126Y237500I17874J0*
G01*
D02*
G37*
G36*
X2962664Y171299D02*
G75*
D01*
G02X2977336Y171299I7336J-16299*
G01*
X2977336Y171299D01*
X2970000Y163964D01*
X2962664Y171299D01*
D02*
G37*
G36*
X2928701Y212336D02*
X2928701Y212336D01*
X2936036Y205000D01*
X2928701Y197664D01*
G75*
D01*
G02X2928701Y212336I16299J7336*
G01*
D02*
G37*
G36*
X2937664Y221299D02*
G75*
D01*
G02X2952336Y221299I7336J-16299*
G01*
X2952336Y221299D01*
X2945000Y213964D01*
X2937664Y221299D01*
D02*
G37*
G36*
X2961299Y212336D02*
G75*
D01*
G02X2961299Y197664I-16299J-7336*
G01*
X2961299Y197664D01*
X2953964Y205000D01*
X2961299Y212336D01*
D02*
G37*
G36*
X2952336Y188701D02*
G75*
D01*
G02X2937664Y188701I-7336J16299*
G01*
X2937664Y188701D01*
X2945000Y196036D01*
X2952336Y188701D01*
D02*
G37*
G36*
X2941063Y205000D02*
G75*
D01*
G02X2941063Y205000I3937J0*
G01*
D02*
G37*
G36*
X2980164Y171299D02*
G75*
D01*
G02X2994836Y171299I7336J-16299*
G01*
X2994836Y171299D01*
X2987500Y163964D01*
X2980164Y171299D01*
D02*
G37*
G36*
X2896594Y175000D02*
G75*
D01*
G02X2896594Y175000I15906J0*
G01*
D02*
G37*
G36*
X3310156Y124010D02*
G75*
D01*
G02X3341857Y124010I15850J-35220*
G01*
X3341857Y124010D01*
X3326006Y108159D01*
X3310156Y124010D01*
D02*
G37*
G36*
X3257345Y112926D02*
G75*
D01*
G02X3243991Y117845I-12345J-12926*
G01*
G75*
D01*
G02X3257345Y112926I19799J33161*
G01*
D02*
G37*
G36*
X3003799Y162336D02*
G75*
D01*
G02X3003799Y147664I-16299J-7336*
G01*
X3003799Y147664D01*
X2996464Y155000D01*
X3003799Y162336D01*
D02*
G37*
G36*
X2977336Y138701D02*
G75*
D01*
G02X2962664Y138701I-7336J16299*
G01*
X2962664Y138701D01*
X2970000Y146036D01*
X2977336Y138701D01*
D02*
G37*
G36*
X2963381Y110881D02*
G75*
D01*
G02X2946619Y94119I-881J-15881*
G01*
G75*
D01*
G02X2963381Y110881I881J15881*
G01*
D02*
G37*
G36*
X2994836Y138701D02*
G75*
D01*
G02X2980164Y138701I-7336J16299*
G01*
X2980164Y138701D01*
X2987500Y146036D01*
X2994836Y138701D01*
D02*
G37*
G36*
X2953701Y162336D02*
X2953701Y162336D01*
X2961036Y155000D01*
X2953701Y147664D01*
G75*
D01*
G02X2953701Y162336I16299J7336*
G01*
D02*
G37*
G36*
X2987435Y158936D02*
G75*
D01*
G02X2987435Y151064I65J-3936*
G01*
G74*
D01*
G02X2986299Y147664I17435J3936*
G01*
X2986299Y147664D01*
X2978964Y155000D01*
X2986299Y162336D01*
G74*
D01*
G02X2987435Y158936I16299J7336*
G01*
D02*
G37*
G36*
X2970065Y151064D02*
G75*
D01*
G02X2970065Y158936I-65J3936*
G01*
G74*
D01*
G02X2971201Y162336I17435J3936*
G01*
X2971201Y162336D01*
X2978536Y155000D01*
X2971201Y147664D01*
G74*
D01*
G02X2970065Y151064I16299J7336*
G01*
D02*
G37*
G36*
X2881594Y100000D02*
G75*
D01*
G02X2881594Y100000I15906J0*
G01*
D02*
G37*
G36*
X3341857Y53571D02*
G75*
D01*
G02X3310156Y53571I-15851J35219*
G01*
X3310156Y53571D01*
X3326006Y69422D01*
X3341857Y53571D01*
D02*
G37*
G36*
X3361226Y104641D02*
G75*
D01*
G02X3361226Y72939I-35220J-15851*
G01*
X3361226Y72939D01*
X3345375Y88790D01*
X3361226Y104641D01*
D02*
G37*
G36*
X3312227Y88790D02*
G75*
D01*
G02X3312227Y88790I13779J0*
G01*
D02*
G37*
G36*
X3290787Y104641D02*
X3290787Y104641D01*
X3306638Y88790D01*
X3290787Y72939D01*
G75*
D01*
G02X3290787Y104641I35219J15851*
G01*
D02*
G37*
G36*
X2971594Y60000D02*
G75*
D01*
G02X2971594Y60000I15906J0*
G01*
D02*
G37*
G36*
X2927484Y69856D02*
G75*
D01*
G02X2925016Y47644I10016J-12356*
G01*
G75*
D01*
G02X2927484Y69856I-10016J12356*
G01*
D02*
G37*
%LPD*%
G36*
X1671237Y206237D02*
G75*
D01*
G03X1666263Y201263I-3737J-1237*
G01*
X1666263Y201263D01*
X1659389Y194389D01*
X1659389Y196889D01*
X1646112Y196889D01*
G74*
D01*
G03X1652624Y187624I21388J8111*
G01*
X1652624Y187624D01*
X1637882Y172882D01*
G74*
D01*
G03X1625611Y183888I20382J10382*
G01*
X1625611Y183888D01*
X1625611Y170611D01*
X1635611Y170611D01*
X1620000Y155000D01*
X1615000Y155000D01*
X1600808Y170611D01*
X1609389Y170611D01*
X1609389Y183888D01*
G74*
D01*
G03X1597727Y174000I8111J21388*
G01*
X1597727Y174000D01*
X1585136Y187850D01*
G74*
D01*
G03X1591388Y196889I15136J17150*
G01*
X1591388Y196889D01*
X1578111Y196889D01*
X1578111Y195578D01*
X1572390Y201871D01*
G75*
D01*
G03X1567112Y207676I-2390J3129*
G01*
X1567112Y207676D01*
X1565000Y210000D01*
X1675000Y210000D01*
X1671237Y206237D01*
D02*
G37*
%LPC*%
G36*
X1613563Y162500D02*
G75*
D01*
G03X1613563Y162500I3937J0*
G01*
D02*
G37*
%LPD*%
G36*
X80000Y191394D02*
G74*
D01*
G02X85457Y196850I25000J19544*
G01*
G74*
D01*
G02X80000Y202307I19543J25000*
G01*
G74*
D01*
G02X74543Y196850I25000J19543*
G01*
G74*
D01*
G02X80000Y191394I19543J25000*
G01*
D02*
G37*
G36*
X124543Y196850D02*
G74*
D01*
G02X130000Y191394I19543J25000*
G01*
G74*
D01*
G02X135457Y196850I25000J19544*
G01*
G74*
D01*
G02X130000Y202307I19543J25000*
G01*
G74*
D01*
G02X124543Y196850I25000J19543*
G01*
D02*
G37*
G36*
X230000Y202307D02*
G74*
D01*
G02X224543Y196850I25000J19543*
G01*
G74*
D01*
G02X230000Y191394I19543J25000*
G01*
G74*
D01*
G02X235457Y196850I25000J19544*
G01*
G74*
D01*
G02X230000Y202307I19543J25000*
G01*
D02*
G37*
G36*
X185457Y196850D02*
G74*
D01*
G02X180000Y202307I19543J25000*
G01*
G74*
D01*
G02X174543Y196850I25000J19543*
G01*
G74*
D01*
G02X180000Y191394I19543J25000*
G01*
G74*
D01*
G02X185457Y196850I25000J19544*
G01*
D02*
G37*
G36*
X1377729Y152729D02*
G75*
D01*
G02X1382271Y152729I2271J-17729*
G01*
G75*
D01*
G02X1382271Y157271I17729J2271*
G01*
G75*
D01*
G02X1377729Y157271I-2271J17729*
G01*
G75*
D01*
G02X1377729Y152729I-17729J-2271*
G01*
D02*
G37*
G36*
X2532271Y187729D02*
G75*
D01*
G03X2527729Y187729I-2271J-17729*
G01*
G75*
D01*
G03X2527729Y192271I-17729J2271*
G01*
G75*
D01*
G03X2532271Y192271I2271J17729*
G01*
G75*
D01*
G03X2532271Y187729I17729J-2271*
G01*
D02*
G37*
G36*
X2507729Y212271D02*
G75*
D01*
G03X2512271Y212271I2271J17729*
G01*
G75*
D01*
G03X2512271Y207729I17729J-2271*
G01*
G75*
D01*
G03X2507729Y207729I-2271J-17729*
G01*
G75*
D01*
G03X2507729Y212271I-17729J2271*
G01*
D02*
G37*
G36*
X2512271Y172271D02*
G75*
D01*
G03X2512271Y167729I17729J-2271*
G01*
G75*
D01*
G03X2507729Y167729I-2271J-17729*
G01*
G75*
D01*
G03X2507729Y172271I-17729J2271*
G01*
G75*
D01*
G03X2512271Y172271I2271J17729*
G01*
D02*
G37*
G36*
X2487729Y192271D02*
G75*
D01*
G02X2487729Y187729I-17729J-2271*
G01*
G75*
D01*
G02X2492271Y187729I2271J-17729*
G01*
G75*
D01*
G02X2492271Y192271I17729J2271*
G01*
G75*
D01*
G02X2487729Y192271I-2271J17729*
G01*
D02*
G37*
G36*
X1362271Y97271D02*
G75*
D01*
G03X1362271Y92729I17729J-2271*
G01*
G75*
D01*
G03X1357729Y92729I-2271J-17729*
G01*
G75*
D01*
G03X1357729Y97271I-17729J2271*
G01*
G75*
D01*
G03X1362271Y97271I2271J17729*
G01*
D02*
G37*
G36*
X1357729Y132729D02*
G75*
D01*
G03X1357729Y137271I-17729J2271*
G01*
G75*
D01*
G03X1362271Y137271I2271J17729*
G01*
G75*
D01*
G03X1362271Y132729I17729J-2271*
G01*
G75*
D01*
G03X1357729Y132729I-2271J-17729*
G01*
D02*
G37*
G36*
X1397729Y132729D02*
G75*
D01*
G03X1397729Y137271I-17729J2271*
G01*
G75*
D01*
G03X1402271Y137271I2271J17729*
G01*
G75*
D01*
G03X1402271Y132729I17729J-2271*
G01*
G75*
D01*
G03X1397729Y132729I-2271J-17729*
G01*
D02*
G37*
G36*
X2532271Y147729D02*
G75*
D01*
G03X2527729Y147729I-2271J-17729*
G01*
G75*
D01*
G03X2527729Y152271I-17729J2271*
G01*
G75*
D01*
G03X2532271Y152271I2271J17729*
G01*
G75*
D01*
G03X2532271Y147729I17729J-2271*
G01*
D02*
G37*
G36*
X2487729Y147729D02*
G75*
D01*
G03X2487729Y152271I-17729J2271*
G01*
G75*
D01*
G03X2492271Y152271I2271J17729*
G01*
G75*
D01*
G03X2492271Y147729I17729J-2271*
G01*
G75*
D01*
G03X2487729Y147729I-2271J-17729*
G01*
D02*
G37*
G36*
X1377729Y117271D02*
G75*
D01*
G03X1382271Y117271I2271J17729*
G01*
G75*
D01*
G03X1382271Y112729I17729J-2271*
G01*
G75*
D01*
G03X1377729Y112729I-2271J-17729*
G01*
G75*
D01*
G03X1377729Y117271I-17729J2271*
G01*
D02*
G37*
G36*
X1397729Y97271D02*
G75*
D01*
G03X1402271Y97271I2271J17729*
G01*
G75*
D01*
G03X1402271Y92729I17729J-2271*
G01*
G75*
D01*
G03X1397729Y92729I-2271J-17729*
G01*
G75*
D01*
G03X1397729Y97271I-17729J2271*
G01*
D02*
G37*
G54D11*
X1613563Y162500D02*
G75*
D01*
G03X1613563Y162500I3937J0*
G01*
X1671237Y206237D02*
G75*
D01*
G03X1666263Y201263I-3737J-1237*
G01*
X1659389Y194389D01*
X1659389Y196889D01*
X1646112Y196889D01*
G74*
D01*
G03X1652624Y187624I21388J8111*
G01*
X1637882Y172882D01*
G74*
D01*
G03X1625611Y183888I20382J10382*
G01*
X1625611Y170611D01*
X1635611Y170611D01*
X1620000Y155000D01*
X1615000Y155000D01*
X1600808Y170611D01*
X1609389Y170611D01*
X1609389Y183888D01*
G74*
D01*
G03X1597727Y174000I8111J21388*
G01*
X1585136Y187850D01*
G74*
D01*
G03X1591388Y196889I15136J17150*
G01*
X1578111Y196889D01*
X1578111Y195578D01*
X1572390Y201871D01*
G75*
D01*
G03X1567112Y207676I-2390J3129*
G01*
X1565000Y210000D01*
X1675000Y210000D01*
X1671237Y206237D01*
G54D12*
X1874691Y207759D02*
G75*
D01*
G02X1874691Y207759I2809J-2759*
G01*
X1878004Y225533D02*
G74*
D01*
G02X1878701Y227336I16996J5533*
G01*
X1884658Y221378D01*
G74*
D01*
G02X1884836Y221299I7158J16378*
G01*
X1884786Y221250D01*
X1886036Y220000D01*
X1884786Y218750D01*
X1884836Y218701D01*
G74*
D01*
G02X1884658Y218622I7336J16299*
G01*
X1878701Y212664D01*
G74*
D01*
G02X1878004Y214467I16299J7336*
G01*
X1877500Y213964D01*
X1874691Y216772D01*
X1874691Y216772D01*
X1873990Y217474D01*
G74*
D01*
G02X1870164Y218701I3510J17526*
G01*
X1871464Y220000D01*
X1870164Y221299D01*
G74*
D01*
G02X1873990Y222526I7336J16299*
G01*
X1874691Y223228D01*
X1874691Y223228D01*
X1877500Y226036D01*
X1878004Y225533D01*
X1874691Y237759D02*
G75*
D01*
G02X1874691Y237759I2809J-2759*
G01*
X1884836Y251299D02*
X1877500Y243964D01*
X1874691Y246772D01*
X1874691Y246772D01*
X1870164Y251299D01*
G75*
D01*
G02X1884836Y251299I7336J-16299*
G01*
X1884836Y188701D02*
G75*
D01*
G02X1870164Y188701I-7336J16299*
G01*
X1874691Y193228D01*
X1874691Y193228D01*
X1877500Y196036D01*
X1884836Y188701D01*
X2826299Y152336D02*
G75*
D01*
G02X2826299Y137664I-16299J-7336*
G01*
X2819573Y144391D01*
X2819573Y144391D01*
X2818964Y145000D01*
X2819573Y145609D01*
X2819573Y145609D01*
X2826299Y152336D01*
X816063Y327500D02*
G75*
D01*
G02X816063Y327500I3937J0*
G01*
X790164Y343799D02*
G75*
D01*
G02X804836Y343799I7336J-16299*
G01*
X797500Y336464D01*
X790164Y343799D01*
X793563Y327500D02*
G75*
D01*
G02X793563Y327500I3937J0*
G01*
X826201Y334836D02*
X831250Y329786D01*
X836299Y334836D01*
G75*
D01*
G02X836299Y320164I-16299J-7336*
G01*
X831250Y325214D01*
X826201Y320164D01*
G75*
D01*
G02X826201Y334836I16299J7336*
G01*
X835164Y343799D02*
G75*
D01*
G02X849836Y343799I7336J-16299*
G01*
X842500Y336464D01*
X835164Y343799D01*
X858799Y334836D02*
G75*
D01*
G02X858799Y320164I-16299J-7336*
G01*
X851464Y327500D01*
X858799Y334836D01*
X838563Y327500D02*
G75*
D01*
G02X838563Y327500I3937J0*
G01*
X813799Y334836D02*
G75*
D01*
G02X813799Y320164I-16299J-7336*
G01*
X808750Y325214D01*
X803701Y320164D01*
G75*
D01*
G02X803701Y334836I16299J7336*
G01*
X808750Y329786D01*
X813799Y334836D01*
X812664Y343799D02*
G75*
D01*
G02X827336Y343799I7336J-16299*
G01*
X820000Y336464D01*
X812664Y343799D01*
X781201Y334836D02*
X788536Y327500D01*
X781201Y320164D01*
G75*
D01*
G02X781201Y334836I16299J7336*
G01*
X849836Y311201D02*
G75*
D01*
G02X835164Y311201I-7336J16299*
G01*
X842500Y318536D01*
X849836Y311201D01*
X712664Y186299D02*
G75*
D01*
G02X727336Y186299I7336J-16299*
G01*
X720000Y178964D01*
X712664Y186299D01*
X736299Y177336D02*
G75*
D01*
G02X736299Y162664I-16299J-7336*
G01*
X728964Y170000D01*
X736299Y177336D01*
X716063Y170000D02*
G75*
D01*
G02X716063Y170000I3937J0*
G01*
X703701Y177336D02*
X711036Y170000D01*
X703701Y162664D01*
G75*
D01*
G02X703701Y177336I16299J7336*
G01*
X563701Y174836D02*
X571036Y167500D01*
X563701Y160164D01*
G75*
D01*
G02X563701Y174836I16299J7336*
G01*
X572664Y183799D02*
G75*
D01*
G02X587336Y183799I7336J-16299*
G01*
X580000Y176464D01*
X572664Y183799D01*
X576063Y167500D02*
G75*
D01*
G02X576063Y167500I3937J0*
G01*
X596996Y161967D02*
G74*
D01*
G02X596299Y160164I16996J5533*
G01*
X588964Y167500D01*
X596299Y174836D01*
G74*
D01*
G02X597872Y167747I16299J7336*
G01*
G75*
D01*
G02X607336Y166299I2128J-17747*
G01*
X600000Y158964D01*
X596996Y161967D01*
X533937Y184874D02*
G75*
D01*
G02X533937Y158827I-28937J-13024*
G01*
X520913Y171850D01*
X533937Y184874D01*
X493189Y171850D02*
G75*
D01*
G02X493189Y171850I11811J0*
G01*
X433937Y184874D02*
G74*
D01*
G02X436638Y174299I28937J13024*
G01*
X439086Y171850D01*
X436638Y169401D01*
G74*
D01*
G02X433937Y158827I31638J2449*
G01*
X430000Y162764D01*
X426063Y158827D01*
G74*
D01*
G02X423362Y169401I28937J13023*
G01*
X420913Y171850D01*
X423362Y174299D01*
G74*
D01*
G02X426063Y184874I31638J2449*
G01*
X430000Y180937D01*
X433937Y184874D01*
X443189Y171850D02*
G75*
D01*
G02X443189Y171850I11811J0*
G01*
X476063Y184874D02*
X480000Y180937D01*
X483937Y184874D01*
G74*
D01*
G02X486638Y174299I28937J13024*
G01*
X489086Y171850D01*
X486638Y169401D01*
G74*
D01*
G02X483937Y158827I31638J2449*
G01*
X480000Y162764D01*
X476063Y158827D01*
G74*
D01*
G02X473362Y169401I28937J13023*
G01*
X470913Y171850D01*
X473362Y174299D01*
G74*
D01*
G02X476063Y184874I31638J2449*
G01*
X393189Y171850D02*
G75*
D01*
G02X393189Y171850I11811J0*
G01*
X293189Y171850D02*
G75*
D01*
G02X293189Y171850I11811J0*
G01*
X804836Y311201D02*
G75*
D01*
G02X790164Y311201I-7336J16299*
G01*
X797500Y318536D01*
X804836Y311201D01*
X827335Y160000D02*
G75*
D01*
G02X807665Y160000I-9835J-12500*
G01*
G75*
D01*
G02X809505Y186250I9835J12500*
G01*
G75*
D01*
G02X807665Y212500I7995J13750*
G01*
G75*
D01*
G02X807665Y237500I9835J12500*
G01*
G75*
D01*
G02X807665Y262500I9835J12500*
G01*
G75*
D01*
G02X807665Y287500I9835J12500*
G01*
G75*
D01*
G02X817369Y315905I9835J12500*
G01*
X820000Y318536D01*
X824036Y314501D01*
G75*
D01*
G02X827335Y287500I-6536J-14501*
G01*
G75*
D01*
G02X827335Y262500I-9835J-12500*
G01*
G75*
D01*
G02X827335Y237500I-9835J-12500*
G01*
G75*
D01*
G02X827335Y212500I-9835J-12500*
G01*
G75*
D01*
G02X825495Y186250I-9835J-12500*
G01*
G75*
D01*
G02X827335Y160000I-7995J-13750*
G01*
X727336Y153701D02*
G75*
D01*
G02X712664Y153701I-7336J16299*
G01*
X720000Y161036D01*
X727336Y153701D01*
X616299Y157336D02*
G75*
D01*
G02X616299Y142664I-16299J-7336*
G01*
X608964Y150000D01*
X616299Y157336D01*
X607336Y133701D02*
G75*
D01*
G02X592664Y133701I-7336J16299*
G01*
X600000Y141036D01*
X607336Y133701D01*
X596063Y150000D02*
G75*
D01*
G02X596063Y150000I3937J0*
G01*
X582128Y149753D02*
G75*
D01*
G02X572664Y151201I-2128J17747*
G01*
X580000Y158536D01*
X583004Y155533D01*
G74*
D01*
G02X583701Y157336I16996J5533*
G01*
X591036Y150000D01*
X583701Y142664D01*
G74*
D01*
G02X582128Y149753I16299J7336*
G01*
X518023Y142914D02*
G75*
D01*
G02X491977Y142914I-13023J28936*
G01*
X505000Y155937D01*
X518023Y142914D01*
X468023Y142914D02*
G75*
D01*
G02X441977Y142914I-13023J28936*
G01*
X455000Y155937D01*
X468023Y142914D01*
X418023Y142914D02*
G75*
D01*
G02X391977Y142914I-13023J28936*
G01*
X405000Y155937D01*
X418023Y142914D01*
X318023Y142914D02*
G75*
D01*
G02X291977Y142914I-13023J28936*
G01*
X305000Y155937D01*
X318023Y142914D01*
X507449Y190213D02*
X505000Y187764D01*
X502551Y190213D01*
G74*
D01*
G02X480000Y202307I2449J31637*
G01*
G74*
D01*
G02X457449Y190213I25000J19543*
G01*
X455000Y187764D01*
X452551Y190213D01*
G74*
D01*
G02X430000Y202307I2449J31637*
G01*
G74*
D01*
G02X407449Y190213I25000J19543*
G01*
X405000Y187764D01*
X402551Y190213D01*
G74*
D01*
G02X380000Y202307I2449J31637*
G01*
G74*
D01*
G02X374543Y196850I25000J19543*
G01*
G74*
D01*
G02X386638Y174299I19543J25000*
G01*
X389086Y171850D01*
X386638Y169401D01*
G75*
D01*
G02X323362Y169401I-31638J2449*
G01*
X320913Y171850D01*
X323362Y174299D01*
G74*
D01*
G02X335457Y196850I31638J2449*
G01*
G74*
D01*
G02X330000Y202307I19543J25000*
G01*
G74*
D01*
G02X307449Y190213I25000J19543*
G01*
X305000Y187764D01*
X302551Y190213D01*
G74*
D01*
G02X280000Y202307I2449J31637*
G01*
G74*
D01*
G02X274543Y196850I25000J19543*
G01*
G74*
D01*
G02X286638Y174299I19543J25000*
G01*
X289086Y171850D01*
X286638Y169401D01*
G75*
D01*
G02X230000Y152307I-31638J2449*
G01*
G75*
D01*
G02X180000Y152307I-25000J19543*
G01*
G75*
D01*
G02X130000Y152307I-25000J19543*
G01*
G75*
D01*
G02X80000Y152307I-25000J19543*
G01*
G75*
D01*
G02X35457Y196850I-25000J19543*
G01*
G75*
D01*
G02X80000Y241394I19543J25000*
G01*
G75*
D01*
G02X130000Y241394I25000J-19544*
G01*
G75*
D01*
G02X180000Y241394I25000J-19544*
G01*
G75*
D01*
G02X230000Y241394I25000J-19544*
G01*
G75*
D01*
G02X280000Y241394I25000J-19544*
G01*
G75*
D01*
G02X330000Y241394I25000J-19544*
G01*
G75*
D01*
G02X380000Y241394I25000J-19544*
G01*
G75*
D01*
G02X430000Y241394I25000J-19544*
G01*
G75*
D01*
G02X480000Y241394I25000J-19544*
G01*
G75*
D01*
G02X507449Y190213I25000J-19544*
G01*
X1148799Y337336D02*
G75*
D01*
G02X1148799Y322664I-16299J-7336*
G01*
X1141464Y330000D01*
X1148799Y337336D01*
X1125164Y346299D02*
G75*
D01*
G02X1139836Y346299I7336J-16299*
G01*
X1132500Y338964D01*
X1125164Y346299D01*
X1116201Y337336D02*
X1123536Y330000D01*
X1116201Y322664D01*
G75*
D01*
G02X1116201Y337336I16299J7336*
G01*
X1139836Y313701D02*
G75*
D01*
G02X1125164Y313701I-7336J16299*
G01*
X1132500Y321036D01*
X1139836Y313701D01*
X1040672Y313134D02*
G75*
D01*
G02X1059328Y316866I6828J14366*
G01*
G75*
D01*
G02X1060495Y288750I-6828J-14366*
G01*
G75*
D01*
G02X1062335Y262500I-7995J-13750*
G01*
G75*
D01*
G02X1062335Y237500I-9835J-12500*
G01*
G75*
D01*
G02X1060495Y211250I-9835J-12500*
G01*
G75*
D01*
G02X1062335Y185000I-7995J-13750*
G01*
G75*
D01*
G02X1062335Y160000I-9835J-12500*
G01*
G75*
D01*
G02X1042665Y160000I-9835J-12500*
G01*
G75*
D01*
G02X1042665Y185000I9835J12500*
G01*
G75*
D01*
G02X1044505Y211250I9835J12500*
G01*
G75*
D01*
G02X1042665Y237500I7995J13750*
G01*
G75*
D01*
G02X1042665Y262500I9835J12500*
G01*
G75*
D01*
G02X1044505Y288750I9835J12500*
G01*
G75*
D01*
G02X1040672Y313134I7995J13750*
G01*
X1861201Y212336D02*
X1868536Y205000D01*
X1861201Y197664D01*
G75*
D01*
G02X1861201Y212336I16299J7336*
G01*
X1825090Y175374D02*
X1818964Y181500D01*
X1826299Y188836D01*
G75*
D01*
G02X1826759Y175287I-16299J-7336*
G01*
G75*
D01*
G02X1808240Y163713I-1759J-17787*
G01*
G74*
D01*
G02X1802664Y165201I1760J17787*
G01*
X1810000Y172536D01*
X1812379Y170157D01*
G75*
D01*
G02X1825090Y175374I12621J-12657*
G01*
X1861201Y242336D02*
X1868536Y235000D01*
X1861201Y227664D01*
G75*
D01*
G02X1861201Y242336I16299J7336*
G01*
X1746063Y181500D02*
G75*
D01*
G02X1746063Y181500I3937J0*
G01*
X1757336Y165201D02*
G75*
D01*
G02X1742664Y165201I-7336J16299*
G01*
X1750000Y172536D01*
X1757336Y165201D01*
X1766299Y188836D02*
G75*
D01*
G02X1766299Y174164I-16299J-7336*
G01*
X1758964Y181500D01*
X1766299Y188836D01*
X1742664Y197799D02*
G75*
D01*
G02X1757336Y197799I7336J-16299*
G01*
X1750000Y190464D01*
X1742664Y197799D01*
X1793701Y188836D02*
X1801036Y181500D01*
X1793701Y174164D01*
G75*
D01*
G02X1793701Y188836I16299J7336*
G01*
X1806063Y181500D02*
G75*
D01*
G02X1806063Y181500I3937J0*
G01*
X1802664Y197799D02*
G75*
D01*
G02X1817336Y197799I7336J-16299*
G01*
X1810000Y190464D01*
X1802664Y197799D01*
X1733701Y188836D02*
X1741036Y181500D01*
X1733701Y174164D01*
G75*
D01*
G02X1733701Y188836I16299J7336*
G01*
X1546586Y218049D02*
X1540000Y211464D01*
X1536299Y215164D01*
X1532664Y218799D01*
X1528964Y222500D01*
X1536299Y229836D01*
G75*
D01*
G02X1537729Y220229I-16299J-7336*
G01*
G75*
D01*
G02X1547004Y218945I2271J-17729*
G01*
G75*
D01*
G02X1565027Y230097I17996J-8945*
G01*
X1675000Y230097D01*
G75*
D01*
G02X1689187Y195766I0J-20097*
G01*
X1634234Y140813D01*
G74*
D01*
G02X1626956Y136145I14234J14187*
G01*
G75*
D01*
G02X1619969Y134903I-6956J18855*
G01*
X1615000Y134903D01*
G75*
D01*
G02X1610737Y135361I0J20097*
G01*
G74*
D01*
G02X1600130Y141481I4263J19639*
G01*
X1550130Y196481D01*
G75*
D01*
G02X1546586Y218049I14870J13519*
G01*
X1687664Y163799D02*
G75*
D01*
G02X1702336Y163799I7336J-16299*
G01*
X1695000Y156464D01*
X1687664Y163799D01*
X1691063Y147500D02*
G75*
D01*
G02X1691063Y147500I3937J0*
G01*
X1698004Y135533D02*
G74*
D01*
G02X1698701Y137336I16996J5533*
G01*
X1706036Y130000D01*
X1698701Y122664D01*
G74*
D01*
G02X1697128Y129753I16299J7336*
G01*
G75*
D01*
G02X1687664Y131201I-2128J17747*
G01*
X1695000Y138536D01*
X1698004Y135533D01*
X1678701Y154836D02*
X1686036Y147500D01*
X1678701Y140164D01*
G75*
D01*
G02X1678701Y154836I16299J7336*
G01*
X1547336Y186201D02*
G75*
D01*
G02X1532664Y186201I-7336J16299*
G01*
X1540000Y193536D01*
X1547336Y186201D01*
X1516063Y222500D02*
G75*
D01*
G02X1516063Y222500I3937J0*
G01*
X1512664Y206201D02*
X1520000Y213536D01*
X1523701Y209836D01*
X1527336Y206201D01*
X1531036Y202500D01*
X1523701Y195164D01*
G75*
D01*
G02X1522271Y204771I16299J7336*
G01*
G75*
D01*
G02X1512664Y206201I-2271J17729*
G01*
X1503701Y229836D02*
X1511036Y222500D01*
X1503701Y215164D01*
G75*
D01*
G02X1503701Y229836I16299J7336*
G01*
X1536063Y202500D02*
G75*
D01*
G02X1536063Y202500I3937J0*
G01*
X1512664Y238799D02*
G75*
D01*
G02X1527336Y238799I7336J-16299*
G01*
X1520000Y231464D01*
X1512664Y238799D01*
X1436299Y182336D02*
G75*
D01*
G02X1436299Y167664I-16299J-7336*
G01*
X1428964Y175000D01*
X1436299Y182336D01*
X1376063Y175000D02*
G75*
D01*
G02X1376063Y175000I3937J0*
G01*
X1403701Y182336D02*
X1411036Y175000D01*
X1407336Y171299D01*
X1406203Y170167D01*
X1403701Y167664D01*
X1400000Y163964D01*
X1396299Y167664D01*
X1392664Y171299D01*
X1388964Y175000D01*
X1396299Y182336D01*
G75*
D01*
G02X1397729Y172729I-16299J-7336*
G01*
G75*
D01*
G02X1402271Y172729I2271J-17729*
G01*
G75*
D01*
G02X1403701Y182336I17729J2271*
G01*
X1372664Y191299D02*
G75*
D01*
G02X1387336Y191299I7336J-16299*
G01*
X1380000Y183964D01*
X1372664Y191299D01*
X1356299Y182336D02*
G75*
D01*
G02X1357729Y172729I-16299J-7336*
G01*
G75*
D01*
G02X1362271Y172729I2271J-17729*
G01*
G75*
D01*
G02X1363701Y182336I17729J2271*
G01*
X1371036Y175000D01*
X1363701Y167664D01*
X1360000Y163964D01*
X1356299Y167664D01*
X1352664Y171299D01*
X1348964Y175000D01*
X1356299Y182336D01*
X1356299Y232336D02*
G75*
D01*
G02X1356299Y217664I-16299J-7336*
G01*
X1348964Y225000D01*
X1356299Y232336D01*
X1416063Y175000D02*
G75*
D01*
G02X1416063Y175000I3937J0*
G01*
X1412664Y191299D02*
G75*
D01*
G02X1427336Y191299I7336J-16299*
G01*
X1420000Y183964D01*
X1412664Y191299D01*
X1323701Y232336D02*
X1331036Y225000D01*
X1323701Y217664D01*
G75*
D01*
G02X1323701Y232336I16299J7336*
G01*
X1323701Y182336D02*
X1331036Y175000D01*
X1323701Y167664D01*
G75*
D01*
G02X1323701Y182336I16299J7336*
G01*
X1336063Y225000D02*
G75*
D01*
G02X1336063Y225000I3937J0*
G01*
X1347336Y208701D02*
G75*
D01*
G02X1332664Y208701I-7336J16299*
G01*
X1340000Y216036D01*
X1347336Y208701D01*
X1332664Y241299D02*
G75*
D01*
G02X1347336Y241299I7336J-16299*
G01*
X1340000Y233964D01*
X1332664Y241299D01*
X1336063Y175000D02*
G75*
D01*
G02X1336063Y175000I3937J0*
G01*
X1332664Y191299D02*
G75*
D01*
G02X1347336Y191299I7336J-16299*
G01*
X1340000Y183964D01*
X1332664Y191299D01*
X1711063Y130000D02*
G75*
D01*
G02X1711063Y130000I3937J0*
G01*
X1722336Y113701D02*
G75*
D01*
G02X1707664Y113701I-7336J16299*
G01*
X1715000Y121036D01*
X1722336Y113701D01*
X1711996Y141967D02*
G74*
D01*
G02X1711299Y140164I16996J5533*
G01*
X1703964Y147500D01*
X1711299Y154836D01*
G74*
D01*
G02X1712872Y147747I16299J7336*
G01*
G75*
D01*
G02X1722336Y146299I2128J-17747*
G01*
X1715000Y138964D01*
X1711996Y141967D01*
X1731299Y137336D02*
G75*
D01*
G02X1731299Y122664I-16299J-7336*
G01*
X1723964Y130000D01*
X1731299Y137336D01*
X1587664Y91299D02*
G75*
D01*
G02X1602336Y91299I7336J-16299*
G01*
X1595000Y83964D01*
X1587664Y91299D01*
X1436299Y142336D02*
G75*
D01*
G02X1436299Y127664I-16299J-7336*
G01*
X1428964Y135000D01*
X1436299Y142336D01*
X1436299Y102336D02*
G75*
D01*
G02X1436299Y87664I-16299J-7336*
G01*
X1428964Y95000D01*
X1436299Y102336D01*
X1447664Y86299D02*
G75*
D01*
G02X1462336Y86299I7336J-16299*
G01*
X1455000Y78964D01*
X1447664Y86299D01*
X1356063Y115000D02*
G75*
D01*
G02X1356063Y115000I3937J0*
G01*
X1352664Y98701D02*
X1356299Y102336D01*
X1360000Y106036D01*
X1363701Y102336D01*
X1367336Y98701D01*
X1371036Y95000D01*
X1367336Y91299D01*
X1363701Y87664D01*
X1360000Y83964D01*
X1356299Y87664D01*
X1352664Y91299D01*
X1348964Y95000D01*
X1352664Y98701D01*
X1372664Y118701D02*
X1380000Y126036D01*
X1383701Y122336D01*
X1387336Y118701D01*
X1391036Y115000D01*
X1387336Y111299D01*
X1383701Y107664D01*
X1380000Y103964D01*
X1372664Y111299D01*
X1368964Y115000D01*
X1372664Y118701D01*
X1367336Y131299D02*
X1363701Y127664D01*
X1360000Y123964D01*
X1356299Y127664D01*
X1352664Y131299D01*
X1348964Y135000D01*
X1352664Y138701D01*
X1356299Y142336D01*
X1360000Y146036D01*
X1363701Y142336D01*
X1367336Y138701D01*
X1371036Y135000D01*
X1367336Y131299D01*
X1332664Y111299D02*
G75*
D01*
G02X1342271Y112729I7336J-16299*
G01*
G75*
D01*
G02X1342271Y117271I17729J2271*
G01*
G75*
D01*
G02X1332664Y118701I-2271J17729*
G01*
X1340000Y126036D01*
X1343701Y122336D01*
X1347336Y118701D01*
X1351036Y115000D01*
X1347336Y111299D01*
X1343701Y107664D01*
X1340000Y103964D01*
X1332664Y111299D01*
X1376063Y135000D02*
G75*
D01*
G02X1376063Y135000I3937J0*
G01*
X1393306Y139343D02*
X1400000Y146036D01*
X1404679Y141358D01*
X1411036Y135000D01*
X1407336Y131299D01*
X1406749Y130712D01*
X1403701Y127664D01*
X1400000Y123964D01*
X1396299Y127664D01*
X1395321Y128642D01*
X1392664Y131299D01*
X1388964Y135000D01*
X1393306Y139343D01*
X1387336Y151299D02*
X1380000Y143964D01*
X1376299Y147664D01*
X1368964Y155000D01*
X1372664Y158701D01*
X1376299Y162336D01*
X1380000Y166036D01*
X1383701Y162336D01*
X1387336Y158701D01*
X1391036Y155000D01*
X1387336Y151299D01*
X1376063Y95000D02*
G75*
D01*
G02X1376063Y95000I3937J0*
G01*
X1392664Y98701D02*
X1400000Y106036D01*
X1403701Y102336D01*
X1407336Y98701D01*
X1411036Y95000D01*
X1407336Y91299D01*
X1406694Y90657D01*
X1403701Y87664D01*
X1400000Y83964D01*
X1392664Y91299D01*
X1388964Y95000D01*
X1392664Y98701D01*
X1396063Y115000D02*
G75*
D01*
G02X1396063Y115000I3937J0*
G01*
X1427336Y158701D02*
G75*
D01*
G02X1417729Y157271I-7336J16299*
G01*
G75*
D01*
G02X1417729Y152729I-17729J-2271*
G01*
G75*
D01*
G02X1427336Y151299I2271J-17729*
G01*
X1420000Y143964D01*
X1416299Y147664D01*
X1412664Y151299D01*
X1408964Y155000D01*
X1412664Y158701D01*
X1416299Y162336D01*
X1420000Y166036D01*
X1427336Y158701D01*
X1427336Y118701D02*
G75*
D01*
G02X1417729Y117271I-7336J16299*
G01*
G75*
D01*
G02X1417729Y112729I-17729J-2271*
G01*
G75*
D01*
G02X1427336Y111299I2271J-17729*
G01*
X1420000Y103964D01*
X1416299Y107664D01*
X1412664Y111299D01*
X1408964Y115000D01*
X1412664Y118701D01*
X1416299Y122336D01*
X1420000Y126036D01*
X1427336Y118701D01*
X1416063Y135000D02*
G75*
D01*
G02X1416063Y135000I3937J0*
G01*
X1416063Y95000D02*
G75*
D01*
G02X1416063Y95000I3937J0*
G01*
X1396063Y155000D02*
G75*
D01*
G02X1396063Y155000I3937J0*
G01*
X1356063Y155000D02*
G75*
D01*
G02X1356063Y155000I3937J0*
G01*
X1332664Y151299D02*
G75*
D01*
G02X1342271Y152729I7336J-16299*
G01*
G75*
D01*
G02X1342271Y157271I17729J2271*
G01*
G75*
D01*
G02X1332664Y158701I-2271J17729*
G01*
X1340000Y166036D01*
X1343701Y162336D01*
X1347336Y158701D01*
X1351036Y155000D01*
X1347336Y151299D01*
X1343701Y147664D01*
X1340000Y143964D01*
X1332664Y151299D01*
X1323701Y142336D02*
X1331036Y135000D01*
X1323701Y127664D01*
G75*
D01*
G02X1323701Y142336I16299J7336*
G01*
X1323701Y102336D02*
X1331036Y95000D01*
X1323701Y87664D01*
G75*
D01*
G02X1323701Y102336I16299J7336*
G01*
X1295164Y86299D02*
G75*
D01*
G02X1309836Y86299I7336J-16299*
G01*
X1302500Y78964D01*
X1295164Y86299D01*
X1336063Y135000D02*
G75*
D01*
G02X1336063Y135000I3937J0*
G01*
X1336063Y95000D02*
G75*
D01*
G02X1336063Y95000I3937J0*
G01*
X1206063Y120000D02*
G75*
D01*
G02X1206063Y120000I3937J0*
G01*
X1217336Y103701D02*
G75*
D01*
G02X1202664Y103701I-7336J16299*
G01*
X1210000Y111036D01*
X1217336Y103701D01*
X1226299Y127336D02*
G75*
D01*
G02X1226299Y112664I-16299J-7336*
G01*
X1218964Y120000D01*
X1226299Y127336D01*
X1202664Y136299D02*
G75*
D01*
G02X1217336Y136299I7336J-16299*
G01*
X1210000Y128964D01*
X1202664Y136299D01*
X1193701Y127336D02*
X1201036Y120000D01*
X1193701Y112664D01*
G75*
D01*
G02X1193701Y127336I16299J7336*
G01*
X1102664Y96299D02*
G75*
D01*
G02X1117336Y96299I7336J-16299*
G01*
X1110000Y88964D01*
X1102664Y96299D01*
X1092126Y120000D02*
G75*
D01*
G02X1092126Y120000I17874J0*
G01*
X1699626Y85000D02*
G75*
D01*
G02X1699626Y85000I17874J0*
G01*
X1602336Y58701D02*
G75*
D01*
G02X1587664Y58701I-7336J16299*
G01*
X1595000Y66036D01*
X1602336Y58701D01*
X1591063Y75000D02*
G75*
D01*
G02X1591063Y75000I3937J0*
G01*
X1611299Y82336D02*
G75*
D01*
G02X1611299Y67664I-16299J-7336*
G01*
X1603964Y75000D01*
X1611299Y82336D01*
X1578701Y82336D02*
X1586036Y75000D01*
X1578701Y67664D01*
G75*
D01*
G02X1578701Y82336I16299J7336*
G01*
X1451063Y70000D02*
G75*
D01*
G02X1451063Y70000I3937J0*
G01*
X1462336Y53701D02*
G75*
D01*
G02X1447664Y53701I-7336J16299*
G01*
X1455000Y61036D01*
X1462336Y53701D01*
X1471299Y77336D02*
G75*
D01*
G02X1471299Y62664I-16299J-7336*
G01*
X1463964Y70000D01*
X1471299Y77336D01*
X1438701Y77336D02*
X1446036Y70000D01*
X1438701Y62664D01*
G75*
D01*
G02X1438701Y77336I16299J7336*
G01*
X1407336Y58701D02*
G75*
D01*
G02X1392664Y58701I-7336J16299*
G01*
X1400000Y66036D01*
X1407336Y58701D01*
X1367336Y58701D02*
G75*
D01*
G02X1352664Y58701I-7336J16299*
G01*
X1360000Y66036D01*
X1367336Y58701D01*
X1383701Y67664D02*
G75*
D01*
G02X1382271Y77271I16299J7336*
G01*
G75*
D01*
G02X1377729Y77271I-2271J17729*
G01*
G75*
D01*
G02X1376299Y67664I-17729J-2271*
G01*
X1368964Y75000D01*
X1372664Y78701D01*
X1376299Y82336D01*
X1380000Y86036D01*
X1383701Y82336D01*
X1387336Y78701D01*
X1391036Y75000D01*
X1383701Y67664D01*
X1427336Y78701D02*
G75*
D01*
G02X1417729Y77271I-7336J16299*
G01*
G75*
D01*
G02X1416299Y67664I-17729J-2271*
G01*
X1408964Y75000D01*
X1412664Y78701D01*
X1416299Y82336D01*
X1420000Y86036D01*
X1427336Y78701D01*
X1396063Y75000D02*
G75*
D01*
G02X1396063Y75000I3937J0*
G01*
X1356063Y75000D02*
G75*
D01*
G02X1356063Y75000I3937J0*
G01*
X1343701Y67664D02*
G75*
D01*
G02X1342271Y77271I16299J7336*
G01*
G75*
D01*
G02X1332664Y78701I-2271J17729*
G01*
X1340000Y86036D01*
X1343701Y82336D01*
X1347336Y78701D01*
X1351036Y75000D01*
X1343701Y67664D01*
X1298563Y70000D02*
G75*
D01*
G02X1298563Y70000I3937J0*
G01*
X1309836Y53701D02*
G75*
D01*
G02X1295164Y53701I-7336J16299*
G01*
X1302500Y61036D01*
X1309836Y53701D01*
X1318799Y77336D02*
G75*
D01*
G02X1318799Y62664I-16299J-7336*
G01*
X1311464Y70000D01*
X1318799Y77336D01*
X1286201Y77336D02*
X1293536Y70000D01*
X1286201Y62664D01*
G75*
D01*
G02X1286201Y77336I16299J7336*
G01*
X1117336Y63701D02*
G75*
D01*
G02X1102664Y63701I-7336J16299*
G01*
X1110000Y71036D01*
X1117336Y63701D01*
X1157126Y82500D02*
G75*
D01*
G02X1157126Y82500I17874J0*
G01*
X1106063Y80000D02*
G75*
D01*
G02X1106063Y80000I3937J0*
G01*
X1126299Y87336D02*
G75*
D01*
G02X1126299Y72664I-16299J-7336*
G01*
X1118964Y80000D01*
X1126299Y87336D01*
X1093701Y87336D02*
X1101036Y80000D01*
X1093701Y72664D01*
G75*
D01*
G02X1093701Y87336I16299J7336*
G01*
X1128563Y330000D02*
G75*
D01*
G02X1128563Y330000I3937J0*
G01*
X2716063Y245000D02*
G75*
D01*
G02X2716063Y245000I3937J0*
G01*
X2736299Y252336D02*
G75*
D01*
G02X2736299Y237664I-16299J-7336*
G01*
X2728964Y245000D01*
X2736299Y252336D01*
X2712664Y261299D02*
G75*
D01*
G02X2727336Y261299I7336J-16299*
G01*
X2720000Y253964D01*
X2712664Y261299D01*
X2703701Y252336D02*
X2711036Y245000D01*
X2703701Y237664D01*
G75*
D01*
G02X2703701Y252336I16299J7336*
G01*
X2641063Y292500D02*
G75*
D01*
G02X2641063Y292500I3937J0*
G01*
X2637664Y276201D02*
X2645000Y283536D01*
X2648701Y279836D01*
X2652336Y276201D01*
X2656036Y272500D01*
X2648701Y265164D01*
G75*
D01*
G02X2647271Y274771I16299J7336*
G01*
G75*
D01*
G02X2637664Y276201I-2271J17729*
G01*
X2661299Y299836D02*
G75*
D01*
G02X2662729Y290229I-16299J-7336*
G01*
G75*
D01*
G02X2672336Y288799I2271J-17729*
G01*
X2665000Y281464D01*
X2661299Y285164D01*
X2657664Y288799D01*
X2653964Y292500D01*
X2661299Y299836D01*
X2637664Y308799D02*
G75*
D01*
G02X2652336Y308799I7336J-16299*
G01*
X2645000Y301464D01*
X2637664Y308799D01*
X2628701Y299836D02*
X2636036Y292500D01*
X2628701Y285164D01*
G75*
D01*
G02X2628701Y299836I16299J7336*
G01*
X2661063Y272500D02*
G75*
D01*
G02X2661063Y272500I3937J0*
G01*
X2672336Y256201D02*
G75*
D01*
G02X2657664Y256201I-7336J16299*
G01*
X2665000Y263536D01*
X2672336Y256201D01*
X2681299Y279836D02*
G75*
D01*
G02X2681299Y265164I-16299J-7336*
G01*
X2673964Y272500D01*
X2681299Y279836D01*
X2542664Y246299D02*
G75*
D01*
G02X2557336Y246299I7336J-16299*
G01*
X2550000Y238964D01*
X2542664Y246299D01*
X2502664Y246299D02*
G75*
D01*
G02X2517336Y246299I7336J-16299*
G01*
X2510000Y238964D01*
X2502664Y246299D01*
X2462664Y246299D02*
G75*
D01*
G02X2477336Y246299I7336J-16299*
G01*
X2470000Y238964D01*
X2462664Y246299D01*
X1945164Y251299D02*
G75*
D01*
G02X1959836Y251299I7336J-16299*
G01*
X1952500Y243964D01*
X1945164Y251299D01*
X1907664Y251299D02*
G75*
D01*
G02X1922336Y251299I7336J-16299*
G01*
X1915000Y243964D01*
X1907664Y251299D01*
X2788936Y197565D02*
G75*
D01*
G02X2781064Y197565I-3936J-65*
G01*
G74*
D01*
G02X2777664Y198701I3936J17435*
G01*
X2778964Y200000D01*
X2776464Y202500D01*
X2782714Y208750D01*
X2777664Y213799D01*
G74*
D01*
G02X2781064Y214935I7336J16299*
G01*
G75*
D01*
G02X2781082Y215382I3936J65*
G01*
X2776464Y220000D01*
X2782714Y226250D01*
X2777664Y231299D01*
G75*
D01*
G02X2792336Y231299I7336J-16299*
G01*
X2785000Y223964D01*
X2784908Y224056D01*
G75*
D01*
G02X2785341Y218922I-17408J-4056*
G01*
G75*
D01*
G02X2788936Y214935I-341J-3922*
G01*
G74*
D01*
G02X2792336Y213799I3936J17435*
G01*
X2785000Y206464D01*
X2784908Y206556D01*
G74*
D01*
G02X2785026Y206010I17408J4056*
G01*
X2792336Y198701D01*
G74*
D01*
G02X2788936Y197565I7336J16299*
G01*
X2801299Y222336D02*
G75*
D01*
G02X2801299Y207664I-16299J-7336*
G01*
X2793964Y215000D01*
X2801299Y222336D01*
X2763564Y202565D02*
G74*
D01*
G02X2760164Y203701I3936J17435*
G01*
X2767500Y211036D01*
X2767592Y210944D01*
G74*
D01*
G02X2767474Y211490I17408J4056*
G01*
X2760164Y218799D01*
G74*
D01*
G02X2763564Y219935I7336J16299*
G01*
G75*
D01*
G02X2771436Y219935I3936J65*
G01*
G74*
D01*
G02X2774836Y218799I3936J17435*
G01*
X2773536Y217500D01*
X2776036Y215000D01*
X2769786Y208750D01*
X2774836Y203701D01*
G74*
D01*
G02X2771436Y202565I7336J16299*
G01*
G75*
D01*
G02X2771418Y202118I-3936J-65*
G01*
X2776036Y197500D01*
X2769786Y191250D01*
X2774836Y186201D01*
G75*
D01*
G02X2760164Y186201I-7336J16299*
G01*
X2767500Y193536D01*
X2767592Y193444D01*
G75*
D01*
G02X2767159Y198578I17408J4056*
G01*
G75*
D01*
G02X2763564Y202565I341J3922*
G01*
X2792336Y181201D02*
G75*
D01*
G02X2777664Y181201I-7336J16299*
G01*
X2785000Y188536D01*
X2792336Y181201D01*
X2801299Y204836D02*
G75*
D01*
G02X2801299Y190164I-16299J-7336*
G01*
X2793964Y197500D01*
X2801299Y204836D01*
X2760164Y236299D02*
G75*
D01*
G02X2774836Y236299I7336J-16299*
G01*
X2767500Y228964D01*
X2760164Y236299D01*
X2727336Y228701D02*
G75*
D01*
G02X2712664Y228701I-7336J16299*
G01*
X2720000Y236036D01*
X2727336Y228701D01*
X2751201Y209836D02*
X2758536Y202500D01*
X2751201Y195164D01*
G75*
D01*
G02X2751201Y209836I16299J7336*
G01*
X2751201Y227336D02*
X2758536Y220000D01*
X2751201Y212664D01*
G75*
D01*
G02X2751201Y227336I16299J7336*
G01*
X2655164Y171299D02*
G75*
D01*
G02X2669836Y171299I7336J-16299*
G01*
X2662500Y163964D01*
X2655164Y171299D01*
X2546063Y190000D02*
G75*
D01*
G02X2546063Y190000I3937J0*
G01*
X2557336Y173701D02*
G75*
D01*
G02X2547729Y172271I-7336J16299*
G01*
G75*
D01*
G02X2547729Y167729I-17729J-2271*
G01*
G75*
D01*
G02X2557336Y166299I2271J-17729*
G01*
X2550000Y158964D01*
X2546299Y162664D01*
X2542664Y166299D01*
X2538964Y170000D01*
X2542664Y173701D01*
X2546299Y177336D01*
X2550000Y181036D01*
X2557336Y173701D01*
X2566299Y197336D02*
G75*
D01*
G02X2566299Y182664I-16299J-7336*
G01*
X2558964Y190000D01*
X2566299Y197336D01*
X2557336Y213701D02*
G75*
D01*
G02X2547729Y212271I-7336J16299*
G01*
G75*
D01*
G02X2547729Y207729I-17729J-2271*
G01*
G75*
D01*
G02X2557336Y206299I2271J-17729*
G01*
X2550000Y198964D01*
X2546299Y202664D01*
X2542664Y206299D01*
X2538964Y210000D01*
X2542664Y213701D01*
X2546299Y217336D01*
X2550000Y221036D01*
X2557336Y213701D01*
X2533701Y197336D02*
X2537336Y193701D01*
X2541036Y190000D01*
X2537336Y186299D01*
X2530000Y178964D01*
X2526299Y182664D01*
X2522664Y186299D01*
X2518964Y190000D01*
X2522664Y193701D01*
X2526299Y197336D01*
X2530000Y201036D01*
X2533701Y197336D01*
X2546063Y230000D02*
G75*
D01*
G02X2546063Y230000I3937J0*
G01*
X2526063Y210000D02*
G75*
D01*
G02X2526063Y210000I3937J0*
G01*
X2526299Y237336D02*
G75*
D01*
G02X2527729Y227729I-16299J-7336*
G01*
G75*
D01*
G02X2532271Y227729I2271J-17729*
G01*
G75*
D01*
G02X2533701Y237336I17729J2271*
G01*
X2541036Y230000D01*
X2537336Y226299D01*
X2533701Y222664D01*
X2530000Y218964D01*
X2526299Y222664D01*
X2522664Y226299D01*
X2518964Y230000D01*
X2526299Y237336D01*
X2526063Y170000D02*
G75*
D01*
G02X2526063Y170000I3937J0*
G01*
X2566299Y237336D02*
G75*
D01*
G02X2566299Y222664I-16299J-7336*
G01*
X2558964Y230000D01*
X2566299Y237336D01*
X2486063Y210000D02*
G75*
D01*
G02X2486063Y210000I3937J0*
G01*
X2497336Y193701D02*
X2501036Y190000D01*
X2497336Y186299D01*
X2493701Y182664D01*
X2490000Y178964D01*
X2486299Y182664D01*
X2482664Y186299D01*
X2478964Y190000D01*
X2482664Y193701D01*
X2486299Y197336D01*
X2490000Y201036D01*
X2493701Y197336D01*
X2497336Y193701D01*
X2506299Y202664D02*
X2502664Y206299D01*
X2498964Y210000D01*
X2502664Y213701D01*
X2506299Y217336D01*
X2510000Y221036D01*
X2513701Y217336D01*
X2517336Y213701D01*
X2521036Y210000D01*
X2517336Y206299D01*
X2513701Y202664D01*
X2510000Y198964D01*
X2506299Y202664D01*
X2486299Y237336D02*
G75*
D01*
G02X2487729Y227729I-16299J-7336*
G01*
G75*
D01*
G02X2492271Y227729I2271J-17729*
G01*
G75*
D01*
G02X2493701Y237336I17729J2271*
G01*
X2501036Y230000D01*
X2497336Y226299D01*
X2493701Y222664D01*
X2490000Y218964D01*
X2486299Y222664D01*
X2482664Y226299D01*
X2478964Y230000D01*
X2486299Y237336D01*
X2462664Y213701D02*
X2470000Y221036D01*
X2473860Y217176D01*
X2481036Y210000D01*
X2473701Y202664D01*
X2470000Y198964D01*
X2462664Y206299D01*
G75*
D01*
G02X2472271Y207729I7336J-16299*
G01*
G75*
D01*
G02X2472271Y212271I17729J2271*
G01*
G75*
D01*
G02X2462664Y213701I-2271J17729*
G01*
X2466063Y190000D02*
G75*
D01*
G02X2466063Y190000I3937J0*
G01*
X2462664Y166299D02*
G75*
D01*
G02X2472271Y167729I7336J-16299*
G01*
G75*
D01*
G02X2472271Y172271I17729J2271*
G01*
G75*
D01*
G02X2462664Y173701I-2271J17729*
G01*
X2470000Y181036D01*
X2473701Y177336D01*
X2477336Y173701D01*
X2481036Y170000D01*
X2477336Y166299D01*
X2476290Y165253D01*
X2473701Y162664D01*
X2470000Y158964D01*
X2462664Y166299D01*
X2453701Y197336D02*
X2461036Y190000D01*
X2453701Y182664D01*
G75*
D01*
G02X2453701Y197336I16299J7336*
G01*
X2506063Y190000D02*
G75*
D01*
G02X2506063Y190000I3937J0*
G01*
X2502664Y173701D02*
X2506299Y177336D01*
X2510000Y181036D01*
X2517336Y173701D01*
X2521036Y170000D01*
X2517336Y166299D01*
X2513701Y162664D01*
X2510000Y158964D01*
X2506299Y162664D01*
X2502664Y166299D01*
X2498964Y170000D01*
X2502664Y173701D01*
X2506063Y230000D02*
G75*
D01*
G02X2506063Y230000I3937J0*
G01*
X2466063Y230000D02*
G75*
D01*
G02X2466063Y230000I3937J0*
G01*
X2486063Y170000D02*
G75*
D01*
G02X2486063Y170000I3937J0*
G01*
X2453701Y237336D02*
X2461036Y230000D01*
X2453701Y222664D01*
G75*
D01*
G02X2453701Y237336I16299J7336*
G01*
X2366063Y225000D02*
G75*
D01*
G02X2366063Y225000I3937J0*
G01*
X2377336Y208701D02*
G75*
D01*
G02X2362664Y208701I-7336J16299*
G01*
X2370000Y216036D01*
X2377336Y208701D01*
X2386299Y232336D02*
G75*
D01*
G02X2386299Y217664I-16299J-7336*
G01*
X2378964Y225000D01*
X2386299Y232336D01*
X2362664Y241299D02*
G75*
D01*
G02X2377336Y241299I7336J-16299*
G01*
X2370000Y233964D01*
X2362664Y241299D01*
X2331063Y175000D02*
G75*
D01*
G02X2331063Y175000I3937J0*
G01*
X2351299Y182336D02*
G75*
D01*
G02X2351299Y167664I-16299J-7336*
G01*
X2343964Y175000D01*
X2351299Y182336D01*
X2327664Y191299D02*
G75*
D01*
G02X2342336Y191299I7336J-16299*
G01*
X2335000Y183964D01*
X2327664Y191299D01*
X2318701Y182336D02*
X2326036Y175000D01*
X2318701Y167664D01*
G75*
D01*
G02X2318701Y182336I16299J7336*
G01*
X2353701Y232336D02*
X2361036Y225000D01*
X2353701Y217664D01*
G75*
D01*
G02X2353701Y232336I16299J7336*
G01*
X1931063Y220000D02*
G75*
D01*
G02X1931063Y220000I3937J0*
G01*
X1932666Y202279D02*
G74*
D01*
G02X1931299Y197664I17666J2721*
G01*
X1923964Y205000D01*
X1931299Y212336D01*
G74*
D01*
G02X1932517Y208554I16299J7336*
G01*
X1935000Y211036D01*
X1935504Y210533D01*
G74*
D01*
G02X1936201Y212336I16996J5533*
G01*
X1943536Y205000D01*
X1942286Y203750D01*
X1942336Y203701D01*
G74*
D01*
G02X1942158Y203622I7336J16299*
G01*
X1936201Y197664D01*
G74*
D01*
G02X1934858Y202127I16299J7336*
G01*
G74*
D01*
G02X1932666Y202279I142J17873*
G01*
X1951996Y225533D02*
X1952500Y226036D01*
X1956010Y222526D01*
G74*
D01*
G02X1959836Y221299I3510J17526*
G01*
X1958536Y220000D01*
X1959836Y218701D01*
G74*
D01*
G02X1956010Y217474I7336J16299*
G01*
X1952500Y213964D01*
X1951996Y214467D01*
G74*
D01*
G02X1951299Y212664I16996J5533*
G01*
X1945342Y218622D01*
G74*
D01*
G02X1945164Y218701I7158J16378*
G01*
X1945214Y218750D01*
X1943964Y220000D01*
X1945214Y221250D01*
X1945164Y221299D01*
G74*
D01*
G02X1945342Y221378I7336J16299*
G01*
X1951299Y227336D01*
G74*
D01*
G02X1951996Y225533I16299J7336*
G01*
X1917483Y216446D02*
X1915000Y213964D01*
X1912517Y216446D01*
G74*
D01*
G02X1911299Y212664I17517J3554*
G01*
X1903964Y220000D01*
X1911299Y227336D01*
G74*
D01*
G02X1912517Y223554I16299J7336*
G01*
X1915000Y226036D01*
X1917483Y223554D01*
G74*
D01*
G02X1918701Y227336I17517J3554*
G01*
X1926036Y220000D01*
X1918701Y212664D01*
G74*
D01*
G02X1917483Y216446I16299J7336*
G01*
X1911063Y205000D02*
G75*
D01*
G02X1911063Y205000I3937J0*
G01*
X1922336Y188701D02*
G75*
D01*
G02X1907664Y188701I-7336J16299*
G01*
X1915000Y196036D01*
X1922336Y188701D01*
X1897334Y202279D02*
G74*
D01*
G02X1895141Y202127I2334J17721*
G01*
G74*
D01*
G02X1893799Y197664I17641J2873*
G01*
X1887842Y203622D01*
G74*
D01*
G02X1887664Y203701I7158J16378*
G01*
X1887714Y203750D01*
X1886464Y205000D01*
X1893799Y212336D01*
G74*
D01*
G02X1894496Y210533I16299J7336*
G01*
X1895000Y211036D01*
X1897483Y208554D01*
G74*
D01*
G02X1898701Y212336I17517J3554*
G01*
X1906036Y205000D01*
X1898701Y197664D01*
G74*
D01*
G02X1897334Y202279I16299J7336*
G01*
X1948563Y205000D02*
G75*
D01*
G02X1948563Y205000I3937J0*
G01*
X1959836Y188701D02*
G75*
D01*
G02X1945164Y188701I-7336J16299*
G01*
X1952500Y196036D01*
X1959836Y188701D01*
X1891063Y220000D02*
G75*
D01*
G02X1891063Y220000I3937J0*
G01*
X1935504Y229467D02*
X1935000Y228964D01*
X1932517Y231446D01*
G74*
D01*
G02X1931299Y227664I17517J3554*
G01*
X1923964Y235000D01*
X1931299Y242336D01*
G74*
D01*
G02X1932666Y237721I16299J7336*
G01*
G74*
D01*
G02X1934858Y237873I2334J17721*
G01*
G74*
D01*
G02X1936201Y242336I17642J2873*
G01*
X1942158Y236378D01*
G74*
D01*
G02X1942336Y236299I7158J16378*
G01*
X1942286Y236250D01*
X1943536Y235000D01*
X1936201Y227664D01*
G74*
D01*
G02X1935504Y229467I16299J7336*
G01*
X1968799Y212336D02*
G75*
D01*
G02X1968799Y197664I-16299J-7336*
G01*
X1961464Y205000D01*
X1968799Y212336D01*
X1948563Y235000D02*
G75*
D01*
G02X1948563Y235000I3937J0*
G01*
X1968799Y242336D02*
G75*
D01*
G02X1968799Y227664I-16299J-7336*
G01*
X1961464Y235000D01*
X1968799Y242336D01*
X1911063Y235000D02*
G75*
D01*
G02X1911063Y235000I3937J0*
G01*
X1897483Y231446D02*
X1895000Y228964D01*
X1894496Y229467D01*
G74*
D01*
G02X1893799Y227664I16996J5533*
G01*
X1886464Y235000D01*
X1887714Y236250D01*
X1887664Y236299D01*
G74*
D01*
G02X1887842Y236378I7336J16299*
G01*
X1893799Y242336D01*
G74*
D01*
G02X1895141Y237873I16299J7336*
G01*
G74*
D01*
G02X1897334Y237721I141J17873*
G01*
G74*
D01*
G02X1898701Y242336I17666J2721*
G01*
X1906036Y235000D01*
X1898701Y227664D01*
G74*
D01*
G02X1897483Y231446I16299J7336*
G01*
X2806063Y145000D02*
G75*
D01*
G02X2806063Y145000I3937J0*
G01*
X2817336Y128701D02*
G75*
D01*
G02X2802664Y128701I-7336J16299*
G01*
X2810000Y136036D01*
X2817336Y128701D01*
X2793701Y152336D02*
X2801036Y145000D01*
X2793701Y137664D01*
G75*
D01*
G02X2793701Y152336I16299J7336*
G01*
X2802664Y161299D02*
G75*
D01*
G02X2817336Y161299I7336J-16299*
G01*
X2810000Y153964D01*
X2802664Y161299D01*
X2669836Y138701D02*
G75*
D01*
G02X2655164Y138701I-7336J16299*
G01*
X2662500Y146036D01*
X2669836Y138701D01*
X2658563Y155000D02*
G75*
D01*
G02X2658563Y155000I3937J0*
G01*
X2678799Y162336D02*
G75*
D01*
G02X2678799Y147664I-16299J-7336*
G01*
X2671464Y155000D01*
X2678799Y162336D01*
X2646201Y162336D02*
X2653536Y155000D01*
X2646201Y147664D01*
G75*
D01*
G02X2646201Y162336I16299J7336*
G01*
X2581063Y125000D02*
G75*
D01*
G02X2581063Y125000I3937J0*
G01*
X2592336Y108701D02*
G75*
D01*
G02X2577664Y108701I-7336J16299*
G01*
X2585000Y116036D01*
X2592336Y108701D01*
X2577664Y141299D02*
G75*
D01*
G02X2592336Y141299I7336J-16299*
G01*
X2585000Y133964D01*
X2577664Y141299D01*
X2568701Y132336D02*
X2576036Y125000D01*
X2568701Y117664D01*
G75*
D01*
G02X2568701Y132336I16299J7336*
G01*
X2546063Y150000D02*
G75*
D01*
G02X2546063Y150000I3937J0*
G01*
X2557336Y133701D02*
G75*
D01*
G02X2547729Y132271I-7336J16299*
G01*
G75*
D01*
G02X2546299Y122664I-17729J-2271*
G01*
X2538964Y130000D01*
X2542664Y133701D01*
X2546299Y137336D01*
X2550000Y141036D01*
X2557336Y133701D01*
X2566299Y157336D02*
G75*
D01*
G02X2566299Y142664I-16299J-7336*
G01*
X2558964Y150000D01*
X2566299Y157336D01*
X2533701Y157336D02*
X2537336Y153701D01*
X2541036Y150000D01*
X2537336Y146299D01*
X2533701Y142664D01*
X2530000Y138964D01*
X2526299Y142664D01*
X2522664Y146299D01*
X2518964Y150000D01*
X2522664Y153701D01*
X2526299Y157336D01*
X2530000Y161036D01*
X2533701Y157336D01*
X2526063Y130000D02*
G75*
D01*
G02X2526063Y130000I3937J0*
G01*
X2537336Y113701D02*
G75*
D01*
G02X2522664Y113701I-7336J16299*
G01*
X2530000Y121036D01*
X2537336Y113701D01*
X2601299Y132336D02*
G75*
D01*
G02X2601299Y117664I-16299J-7336*
G01*
X2593964Y125000D01*
X2601299Y132336D01*
X2486063Y130000D02*
G75*
D01*
G02X2486063Y130000I3937J0*
G01*
X2497336Y113701D02*
G75*
D01*
G02X2482664Y113701I-7336J16299*
G01*
X2490000Y121036D01*
X2497336Y113701D01*
X2506299Y122664D02*
X2498964Y130000D01*
X2502664Y133701D01*
X2506299Y137336D01*
X2510000Y141036D01*
X2513701Y137336D01*
X2517336Y133701D01*
X2521036Y130000D01*
X2513701Y122664D01*
G75*
D01*
G02X2512271Y132271I16299J7336*
G01*
G75*
D01*
G02X2507729Y132271I-2271J17729*
G01*
G75*
D01*
G02X2506299Y122664I-17729J-2271*
G01*
X2497336Y146299D02*
X2493701Y142664D01*
X2490000Y138964D01*
X2486299Y142664D01*
X2482664Y146299D01*
X2478964Y150000D01*
X2482664Y153701D01*
X2486299Y157336D01*
X2490000Y161036D01*
X2493701Y157336D01*
X2497336Y153701D01*
X2501036Y150000D01*
X2497336Y146299D01*
X2473701Y122664D02*
G75*
D01*
G02X2472271Y132271I16299J7336*
G01*
G75*
D01*
G02X2462664Y133701I-2271J17729*
G01*
X2470000Y141036D01*
X2473701Y137336D01*
X2477336Y133701D01*
X2481036Y130000D01*
X2473701Y122664D01*
X2506063Y150000D02*
G75*
D01*
G02X2506063Y150000I3937J0*
G01*
X2466063Y150000D02*
G75*
D01*
G02X2466063Y150000I3937J0*
G01*
X2453701Y157336D02*
X2461036Y150000D01*
X2453701Y142664D01*
G75*
D01*
G02X2453701Y157336I16299J7336*
G01*
X2448799Y132336D02*
G75*
D01*
G02X2448799Y117664I-16299J-7336*
G01*
X2441464Y125000D01*
X2448799Y132336D01*
X2428563Y125000D02*
G75*
D01*
G02X2428563Y125000I3937J0*
G01*
X2439836Y108701D02*
G75*
D01*
G02X2425164Y108701I-7336J16299*
G01*
X2432500Y116036D01*
X2439836Y108701D01*
X2425164Y141299D02*
G75*
D01*
G02X2439836Y141299I7336J-16299*
G01*
X2432500Y133964D01*
X2425164Y141299D01*
X2416201Y132336D02*
X2423536Y125000D01*
X2416201Y117664D01*
G75*
D01*
G02X2416201Y132336I16299J7336*
G01*
X2342336Y158701D02*
G75*
D01*
G02X2327664Y158701I-7336J16299*
G01*
X2335000Y166036D01*
X2342336Y158701D01*
X2231063Y140000D02*
G75*
D01*
G02X2231063Y140000I3937J0*
G01*
X2237128Y122253D02*
G75*
D01*
G02X2227664Y123701I-2128J17747*
G01*
X2235000Y131036D01*
X2238004Y128033D01*
G74*
D01*
G02X2238701Y129836I16996J5533*
G01*
X2246036Y122500D01*
X2238701Y115164D01*
G74*
D01*
G02X2237128Y122253I16299J7336*
G01*
X2251996Y134467D02*
G74*
D01*
G02X2251299Y132664I16996J5533*
G01*
X2243964Y140000D01*
X2251299Y147336D01*
G74*
D01*
G02X2252872Y140247I16299J7336*
G01*
G75*
D01*
G02X2262336Y138799I2128J-17747*
G01*
X2255000Y131464D01*
X2251996Y134467D01*
X2218701Y147336D02*
X2226036Y140000D01*
X2218701Y132664D01*
G75*
D01*
G02X2218701Y147336I16299J7336*
G01*
X2251063Y122500D02*
G75*
D01*
G02X2251063Y122500I3937J0*
G01*
X2262336Y106201D02*
G75*
D01*
G02X2247664Y106201I-7336J16299*
G01*
X2255000Y113536D01*
X2262336Y106201D01*
X2271299Y129836D02*
G75*
D01*
G02X2271299Y115164I-16299J-7336*
G01*
X2263964Y122500D01*
X2271299Y129836D01*
X2227664Y156299D02*
G75*
D01*
G02X2242336Y156299I7336J-16299*
G01*
X2235000Y148964D01*
X2227664Y156299D01*
X2691299Y72336D02*
G75*
D01*
G02X2691299Y57664I-16299J-7336*
G01*
X2683964Y65000D01*
X2691299Y72336D01*
X2658701Y72336D02*
X2666036Y65000D01*
X2658701Y57664D01*
G75*
D01*
G02X2658701Y72336I16299J7336*
G01*
X2671063Y65000D02*
G75*
D01*
G02X2671063Y65000I3937J0*
G01*
X2682336Y48701D02*
G75*
D01*
G02X2667664Y48701I-7336J16299*
G01*
X2675000Y56036D01*
X2682336Y48701D01*
X2667664Y81299D02*
G75*
D01*
G02X2682336Y81299I7336J-16299*
G01*
X2675000Y73964D01*
X2667664Y81299D01*
X3319626Y300000D02*
G75*
D01*
G02X3319626Y300000I17874J0*
G01*
X2878701Y282336D02*
X2886036Y275000D01*
X2878701Y267664D01*
G75*
D01*
G02X2878701Y282336I16299J7336*
G01*
X2887664Y291299D02*
G75*
D01*
G02X2902336Y291299I7336J-16299*
G01*
X2895000Y283964D01*
X2887664Y291299D01*
X2911299Y282336D02*
G75*
D01*
G02X2911299Y267664I-16299J-7336*
G01*
X2903964Y275000D01*
X2911299Y282336D01*
X2902336Y258701D02*
G75*
D01*
G02X2887664Y258701I-7336J16299*
G01*
X2895000Y266036D01*
X2902336Y258701D01*
X2891063Y275000D02*
G75*
D01*
G02X2891063Y275000I3937J0*
G01*
X3375372Y301210D02*
G75*
D01*
G02X3375372Y301210I38622J0*
G01*
X3437588Y238994D02*
G75*
D01*
G02X3437588Y238994I38622J0*
G01*
X3377126Y237500D02*
G75*
D01*
G02X3377126Y237500I17874J0*
G01*
X2962664Y171299D02*
G75*
D01*
G02X2977336Y171299I7336J-16299*
G01*
X2970000Y163964D01*
X2962664Y171299D01*
X2928701Y212336D02*
X2936036Y205000D01*
X2928701Y197664D01*
G75*
D01*
G02X2928701Y212336I16299J7336*
G01*
X2937664Y221299D02*
G75*
D01*
G02X2952336Y221299I7336J-16299*
G01*
X2945000Y213964D01*
X2937664Y221299D01*
X2961299Y212336D02*
G75*
D01*
G02X2961299Y197664I-16299J-7336*
G01*
X2953964Y205000D01*
X2961299Y212336D01*
X2952336Y188701D02*
G75*
D01*
G02X2937664Y188701I-7336J16299*
G01*
X2945000Y196036D01*
X2952336Y188701D01*
X2941063Y205000D02*
G75*
D01*
G02X2941063Y205000I3937J0*
G01*
X2980164Y171299D02*
G75*
D01*
G02X2994836Y171299I7336J-16299*
G01*
X2987500Y163964D01*
X2980164Y171299D01*
X2896594Y175000D02*
G75*
D01*
G02X2896594Y175000I15906J0*
G01*
X3310156Y124010D02*
G75*
D01*
G02X3341857Y124010I15850J-35220*
G01*
X3326006Y108159D01*
X3310156Y124010D01*
X3257345Y112926D02*
G75*
D01*
G02X3243991Y117845I-12345J-12926*
G01*
G75*
D01*
G02X3257345Y112926I19799J33161*
G01*
X3003799Y162336D02*
G75*
D01*
G02X3003799Y147664I-16299J-7336*
G01*
X2996464Y155000D01*
X3003799Y162336D01*
X2977336Y138701D02*
G75*
D01*
G02X2962664Y138701I-7336J16299*
G01*
X2970000Y146036D01*
X2977336Y138701D01*
X2963381Y110881D02*
G75*
D01*
G02X2946619Y94119I-881J-15881*
G01*
G75*
D01*
G02X2963381Y110881I881J15881*
G01*
X2994836Y138701D02*
G75*
D01*
G02X2980164Y138701I-7336J16299*
G01*
X2987500Y146036D01*
X2994836Y138701D01*
X2953701Y162336D02*
X2961036Y155000D01*
X2953701Y147664D01*
G75*
D01*
G02X2953701Y162336I16299J7336*
G01*
X2987435Y158936D02*
G75*
D01*
G02X2987435Y151064I65J-3936*
G01*
G74*
D01*
G02X2986299Y147664I17435J3936*
G01*
X2978964Y155000D01*
X2986299Y162336D01*
G74*
D01*
G02X2987435Y158936I16299J7336*
G01*
X2970065Y151064D02*
G75*
D01*
G02X2970065Y158936I-65J3936*
G01*
G74*
D01*
G02X2971201Y162336I17435J3936*
G01*
X2978536Y155000D01*
X2971201Y147664D01*
G74*
D01*
G02X2970065Y151064I16299J7336*
G01*
X2881594Y100000D02*
G75*
D01*
G02X2881594Y100000I15906J0*
G01*
X3341857Y53571D02*
G75*
D01*
G02X3310156Y53571I-15851J35219*
G01*
X3326006Y69422D01*
X3341857Y53571D01*
X3361226Y104641D02*
G75*
D01*
G02X3361226Y72939I-35220J-15851*
G01*
X3345375Y88790D01*
X3361226Y104641D01*
X3312227Y88790D02*
G75*
D01*
G02X3312227Y88790I13779J0*
G01*
X3290787Y104641D02*
X3306638Y88790D01*
X3290787Y72939D01*
G75*
D01*
G02X3290787Y104641I35219J15851*
G01*
X2971594Y60000D02*
G75*
D01*
G02X2971594Y60000I15906J0*
G01*
X2927484Y69856D02*
G75*
D01*
G02X2925016Y47644I10016J-12356*
G01*
G75*
D01*
G02X2927484Y69856I-10016J12356*
G01*
X3064927Y-85000D02*
X3064927Y378628D01*
X15073Y378628D01*
X15073Y5073D01*
X2849972Y5073D01*
G75*
D01*
G02X2855508Y4030I28J-15073*
G01*
G74*
D01*
G02X2860310Y994I5508J14030*
G01*
X3055945Y-181778D01*
X3163827Y-181778D01*
X3359427Y10742D01*
G74*
D01*
G02X3366699Y14707I10573J10742*
G01*
G75*
D01*
G02X3370000Y15073I3301J-14707*
G01*
X3528235Y15073D01*
X3528235Y378628D01*
X3175073Y378628D01*
X3175073Y-85000D01*
G75*
D01*
G02X3160000Y-100073I-15073J0*
G01*
X3080000Y-100073D01*
G75*
D01*
G02X3064927Y-85000I0J15073*
G01*
X1377729Y152729D02*
G75*
D01*
G02X1382271Y152729I2271J-17729*
G01*
G75*
D01*
G02X1382271Y157271I17729J2271*
G01*
G75*
D01*
G02X1377729Y157271I-2271J17729*
G01*
G75*
D01*
G02X1377729Y152729I-17729J-2271*
G01*
X1377729Y117271D02*
G75*
D01*
G03X1382271Y117271I2271J17729*
G01*
G75*
D01*
G03X1382271Y112729I17729J-2271*
G01*
G75*
D01*
G03X1377729Y112729I-2271J-17729*
G01*
G75*
D01*
G03X1377729Y117271I-17729J2271*
G01*
X1397729Y97271D02*
G75*
D01*
G03X1402271Y97271I2271J17729*
G01*
G75*
D01*
G03X1402271Y92729I17729J-2271*
G01*
G75*
D01*
G03X1397729Y92729I-2271J-17729*
G01*
G75*
D01*
G03X1397729Y97271I-17729J2271*
G01*
X1362271Y97271D02*
G75*
D01*
G03X1362271Y92729I17729J-2271*
G01*
G75*
D01*
G03X1357729Y92729I-2271J-17729*
G01*
G75*
D01*
G03X1357729Y97271I-17729J2271*
G01*
G75*
D01*
G03X1362271Y97271I2271J17729*
G01*
X1357729Y132729D02*
G75*
D01*
G03X1357729Y137271I-17729J2271*
G01*
G75*
D01*
G03X1362271Y137271I2271J17729*
G01*
G75*
D01*
G03X1362271Y132729I17729J-2271*
G01*
G75*
D01*
G03X1357729Y132729I-2271J-17729*
G01*
X1397729Y132729D02*
G75*
D01*
G03X1397729Y137271I-17729J2271*
G01*
G75*
D01*
G03X1402271Y137271I2271J17729*
G01*
G75*
D01*
G03X1402271Y132729I17729J-2271*
G01*
G75*
D01*
G03X1397729Y132729I-2271J-17729*
G01*
X2532271Y147729D02*
G75*
D01*
G03X2527729Y147729I-2271J-17729*
G01*
G75*
D01*
G03X2527729Y152271I-17729J2271*
G01*
G75*
D01*
G03X2532271Y152271I2271J17729*
G01*
G75*
D01*
G03X2532271Y147729I17729J-2271*
G01*
X2487729Y147729D02*
G75*
D01*
G03X2487729Y152271I-17729J2271*
G01*
G75*
D01*
G03X2492271Y152271I2271J17729*
G01*
G75*
D01*
G03X2492271Y147729I17729J-2271*
G01*
G75*
D01*
G03X2487729Y147729I-2271J-17729*
G01*
X80000Y191394D02*
G74*
D01*
G02X85457Y196850I25000J19544*
G01*
G74*
D01*
G02X80000Y202307I19543J25000*
G01*
G74*
D01*
G02X74543Y196850I25000J19543*
G01*
G74*
D01*
G02X80000Y191394I19543J25000*
G01*
X124543Y196850D02*
G74*
D01*
G02X130000Y191394I19543J25000*
G01*
G74*
D01*
G02X135457Y196850I25000J19544*
G01*
G74*
D01*
G02X130000Y202307I19543J25000*
G01*
G74*
D01*
G02X124543Y196850I25000J19543*
G01*
X230000Y202307D02*
G74*
D01*
G02X224543Y196850I25000J19543*
G01*
G74*
D01*
G02X230000Y191394I19543J25000*
G01*
G74*
D01*
G02X235457Y196850I25000J19544*
G01*
G74*
D01*
G02X230000Y202307I19543J25000*
G01*
X185457Y196850D02*
G74*
D01*
G02X180000Y202307I19543J25000*
G01*
G74*
D01*
G02X174543Y196850I25000J19543*
G01*
G74*
D01*
G02X180000Y191394I19543J25000*
G01*
G74*
D01*
G02X185457Y196850I25000J19544*
G01*
X2532271Y187729D02*
G75*
D01*
G03X2527729Y187729I-2271J-17729*
G01*
G75*
D01*
G03X2527729Y192271I-17729J2271*
G01*
G75*
D01*
G03X2532271Y192271I2271J17729*
G01*
G75*
D01*
G03X2532271Y187729I17729J-2271*
G01*
X2507729Y212271D02*
G75*
D01*
G03X2512271Y212271I2271J17729*
G01*
G75*
D01*
G03X2512271Y207729I17729J-2271*
G01*
G75*
D01*
G03X2507729Y207729I-2271J-17729*
G01*
G75*
D01*
G03X2507729Y212271I-17729J2271*
G01*
X2512271Y172271D02*
G75*
D01*
G03X2512271Y167729I17729J-2271*
G01*
G75*
D01*
G03X2507729Y167729I-2271J-17729*
G01*
G75*
D01*
G03X2507729Y172271I-17729J2271*
G01*
G75*
D01*
G03X2512271Y172271I2271J17729*
G01*
X2487729Y192271D02*
G75*
D01*
G02X2487729Y187729I-17729J-2271*
G01*
G75*
D01*
G02X2492271Y187729I2271J-17729*
G01*
G75*
D01*
G02X2492271Y192271I17729J2271*
G01*
G75*
D01*
G02X2487729Y192271I-2271J17729*
G01*
G54D13*
X-10000Y-206850D02*
X-10000Y-145795D01*
X-10000Y-206850D02*
X346331Y-206850D01*
X3553307Y-206850D02*
X3196976Y-206850D01*
X3553307Y-206850D02*
X3553307Y-145795D01*
X3553307Y403701D02*
X3553307Y342646D01*
X3553307Y403701D02*
X3196976Y403701D01*
X-10000Y403701D02*
X346331Y403701D01*
X-10000Y403701D02*
X-10000Y342646D01*
X-206850Y-206850D02*
X-600551Y-206850D01*
X-403701Y-403701D02*
X-403701Y-10000D01*
X-551339Y-206850D02*
G75*
D01*
G02X-551339Y-206850I147638J0*
G01*
X3750157Y-206850D02*
X4143858Y-206850D01*
X3947008Y-403701D02*
X3947008Y-10000D01*
X3799370Y-206850D02*
G75*
D01*
G02X3799370Y-206850I147638J0*
G01*
X3897795Y-206850D02*
G75*
D01*
G02X3897795Y-206850I49213J0*
G01*
X-206850Y403701D02*
X-600551Y403701D01*
X-403701Y206850D02*
X-403701Y600551D01*
X-551339Y403701D02*
G75*
D01*
G02X-551339Y403701I147638J0*
G01*
X-502126Y403701D02*
G75*
D01*
G02X-502126Y403701I98425J0*
G01*
X-452913Y403701D02*
G75*
D01*
G02X-452913Y403701I49212J0*
G01*
G54D14*
X837500Y-170000D03*
X877500Y-170000D03*
X857500Y-190000D03*
X897500Y-190000D03*
X877500Y-130000D03*
X857500Y-150000D03*
X837500Y-130000D03*
X897500Y-150000D03*
X1617500Y162500D03*
X1570000Y205000D03*
X1667500Y205000D03*
X1750000Y181500D03*
X1810000Y181500D03*
X1175000Y82500D03*
X1825000Y157500D03*
X1717500Y85000D03*
X1110000Y120000D03*
X3245000Y100000D03*
X3337500Y300000D03*
X3395000Y237500D03*
X797500Y327500D03*
X842500Y327500D03*
X820000Y327500D03*
X2432500Y125000D03*
X2585000Y125000D03*
X2470000Y150000D03*
X2510000Y150000D03*
X2530000Y130000D03*
X2490000Y130000D03*
X2550000Y150000D03*
X2530000Y170000D03*
X2470000Y230000D03*
X2510000Y230000D03*
X2510000Y190000D03*
X2530000Y210000D03*
X2490000Y170000D03*
X2470000Y190000D03*
X2490000Y210000D03*
X2550000Y230000D03*
X2550000Y190000D03*
X2370000Y225000D03*
X2335000Y175000D03*
X2665000Y272500D03*
X2645000Y292500D03*
X2662500Y155000D03*
X1110000Y80000D03*
X2720000Y245000D03*
X2895000Y275000D03*
X720000Y170000D03*
X2945000Y205000D03*
X2675000Y65000D03*
X1302500Y70000D03*
X1455000Y70000D03*
X1360000Y75000D03*
X1400000Y75000D03*
X1340000Y95000D03*
X1340000Y135000D03*
X1360000Y155000D03*
X1400000Y155000D03*
X1420000Y95000D03*
X1420000Y135000D03*
X1400000Y115000D03*
X1380000Y95000D03*
X1380000Y135000D03*
X1360000Y115000D03*
X1340000Y175000D03*
X1420000Y175000D03*
X1380000Y175000D03*
X1340000Y225000D03*
X1210000Y120000D03*
X1540000Y202500D03*
X1520000Y222500D03*
X1595000Y75000D03*
X2767500Y220000D03*
X2767500Y202500D03*
X2785000Y197500D03*
X2785000Y215000D03*
X1695000Y147500D03*
X1715000Y130000D03*
X2255000Y122500D03*
X2235000Y140000D03*
X2987500Y155000D03*
X1132500Y330000D03*
X580000Y167500D03*
X600000Y150000D03*
X1877500Y235000D03*
X1895000Y220000D03*
X1877500Y205000D03*
X1915000Y235000D03*
X1952500Y235000D03*
X1952500Y205000D03*
X1915000Y205000D03*
X1935000Y220000D03*
X2970000Y155000D03*
X2810000Y145000D03*
G54D15*
X947500Y-132500D03*
X1047500Y327500D03*
X817500Y250000D03*
X817500Y225000D03*
X817500Y200000D03*
X817500Y172500D03*
X817500Y275000D03*
X817500Y300000D03*
X1052500Y250000D03*
X2962500Y95000D03*
X1052500Y225000D03*
X2987500Y60000D03*
X1052500Y197500D03*
X2897500Y100000D03*
X1052500Y172500D03*
X2937500Y57500D03*
X1052500Y275000D03*
X2912500Y175000D03*
X1052500Y147500D03*
X2915000Y60000D03*
X1052500Y302500D03*
X2947500Y110000D03*
X817500Y147500D03*
G54D16*
X305000Y171850D03*
X255000Y171850D03*
X355000Y171850D03*
X155000Y171850D03*
X55000Y171850D03*
X105000Y171850D03*
X355000Y221850D03*
X305000Y221850D03*
X255000Y221850D03*
X205000Y221850D03*
X155000Y221850D03*
X105000Y221850D03*
X55000Y221850D03*
X205000Y171850D03*
X505000Y221850D03*
X455000Y221850D03*
X405000Y221850D03*
X405000Y171850D03*
X455000Y171850D03*
X505000Y171850D03*
G54D17*
X3476210Y238994D03*
X3413994Y301210D03*
X3263790Y151006D03*
X3326006Y88790D03*

M02*
