G04 Generated by Ultiboard 14.2 *
%FSLAX46Y46*%
%MOIN*%

%ADD10C,0.000001*%
%ADD11C,0.007874*%
%ADD12C,0.023622*%
%ADD13C,0.027559*%


G04 ColorRGB 000000 for the following layer *
%LNDrill-Copper Top-Copper Bottom*%
%LPD*%
G54D11*
X837500Y-170000D03*
X877500Y-170000D03*
X857500Y-190000D03*
X897500Y-190000D03*
X877500Y-130000D03*
X857500Y-150000D03*
X837500Y-130000D03*
X947500Y-132500D03*
X897500Y-150000D03*
X2150000Y181500D03*
X2210000Y181500D03*
X2067500Y205000D03*
X1970000Y205000D03*
X2017500Y162500D03*
X1447500Y327500D03*
X1217500Y250000D03*
X1217500Y225000D03*
X1217500Y200000D03*
X1217500Y172500D03*
X1217500Y275000D03*
X1217500Y300000D03*
X1217500Y147500D03*
X675000Y97500D03*
X1575000Y82500D03*
X2225000Y157500D03*
X2117500Y85000D03*
X1452500Y275000D03*
X3312500Y175000D03*
X1452500Y147500D03*
X3315000Y60000D03*
X1452500Y302500D03*
X3347500Y110000D03*
X1510000Y120000D03*
X1040000Y152500D03*
X1452500Y172500D03*
X3337500Y57500D03*
X1452500Y197500D03*
X3297500Y100000D03*
X1452500Y225000D03*
X3387500Y60000D03*
X1452500Y250000D03*
X3362500Y95000D03*
X3692500Y300000D03*
X3750000Y237500D03*
X3600000Y100000D03*
X1197500Y327500D03*
X1242500Y327500D03*
X1220000Y327500D03*
X2832500Y125000D03*
X2985000Y125000D03*
X2870000Y150000D03*
X2910000Y150000D03*
X2890000Y130000D03*
X2950000Y150000D03*
X2930000Y130000D03*
X2870000Y230000D03*
X2910000Y230000D03*
X2910000Y190000D03*
X2890000Y170000D03*
X2870000Y190000D03*
X2890000Y210000D03*
X2950000Y230000D03*
X2930000Y170000D03*
X2930000Y210000D03*
X2950000Y190000D03*
X2770000Y225000D03*
X2735000Y175000D03*
X3065000Y272500D03*
X3045000Y292500D03*
X3062500Y155000D03*
X807500Y85000D03*
X962500Y85000D03*
X865000Y90000D03*
X905000Y90000D03*
X865000Y130000D03*
X845000Y150000D03*
X845000Y110000D03*
X925000Y150000D03*
X885000Y150000D03*
X905000Y130000D03*
X885000Y110000D03*
X925000Y110000D03*
X865000Y170000D03*
X845000Y190000D03*
X905000Y170000D03*
X885000Y190000D03*
X925000Y190000D03*
X735000Y225000D03*
X705000Y135000D03*
X1030000Y227500D03*
X1050000Y207500D03*
X1072500Y80000D03*
X1702500Y70000D03*
X1855000Y70000D03*
X1760000Y75000D03*
X1800000Y75000D03*
X1740000Y95000D03*
X1740000Y135000D03*
X1820000Y95000D03*
X1760000Y155000D03*
X1800000Y155000D03*
X1800000Y115000D03*
X1820000Y135000D03*
X1780000Y95000D03*
X1780000Y135000D03*
X1760000Y115000D03*
X1740000Y175000D03*
X1820000Y175000D03*
X1780000Y175000D03*
X1740000Y225000D03*
X1610000Y120000D03*
X1940000Y202500D03*
X1920000Y222500D03*
X1995000Y75000D03*
X3185000Y197500D03*
X3185000Y215000D03*
X3167500Y220000D03*
X3167500Y202500D03*
X2115000Y130000D03*
X2095000Y147500D03*
X2635000Y140000D03*
X2655000Y122500D03*
X3387500Y155000D03*
X1532500Y330000D03*
X580000Y167500D03*
X600000Y150000D03*
X2277500Y235000D03*
X2277500Y205000D03*
X2315000Y235000D03*
X2352500Y235000D03*
X2352500Y205000D03*
X2295000Y220000D03*
X2315000Y205000D03*
X2335000Y220000D03*
X3370000Y155000D03*
X3210000Y145000D03*
X3345000Y205000D03*
X3485000Y145000D03*
X3120000Y245000D03*
X3295000Y275000D03*
X1510000Y80000D03*
X1120000Y170000D03*
G54D12*
X305000Y171850D03*
X255000Y171850D03*
X355000Y171850D03*
X155000Y171850D03*
X55000Y171850D03*
X105000Y171850D03*
X355000Y221850D03*
X305000Y221850D03*
X255000Y221850D03*
X205000Y221850D03*
X155000Y221850D03*
X105000Y221850D03*
X55000Y221850D03*
X205000Y171850D03*
X505000Y221850D03*
X455000Y221850D03*
X405000Y221850D03*
X405000Y171850D03*
X455000Y171850D03*
X505000Y171850D03*
G54D13*
X3831210Y238994D03*
X3768994Y301210D03*
X3618790Y151006D03*
X3681006Y88790D03*

M02*
