G04 Generated by Ultiboard 14.2 *
%FSLAX46Y46*%
%MOIN*%

%ADD10C,0.000001*%
%ADD11C,0.008000*%
%ADD12C,0.000039*%
%ADD13C,0.005000*%


G04 ColorRGB 0000FF for the following layer *
%LN3D_uc44fe1606f98765c42*%
%LPD*%
G54D10*
G54D11*
X555591Y236220D02*
X555591Y118110D01*
X4409Y118110D01*
X4409Y275591D01*
X516220Y275591D01*
X555591Y236220D01*
X1064921Y81339D02*
X1064921Y341181D01*
X805079Y341181D01*
X805079Y81339D01*
X1024287Y109177D02*
G75*
D01*
G02X1024287Y109177I12795J0*
G01*
X805079Y81339D02*
X1064921Y81339D01*
X2164213Y41417D02*
X2164213Y218583D01*
X2065787Y218583D01*
X2065787Y41417D01*
X2164213Y41417D01*
X2851161Y78012D02*
X2851161Y156752D01*
X3044075Y156752D01*
X3044075Y78012D01*
X2851161Y78012D01*
X2896437Y149313D02*
G75*
D01*
G02X2896437Y149313I9843J0*
G01*
X1976024Y97165D02*
X1976024Y242835D01*
X1853976Y242835D01*
X1853976Y97165D01*
X1976024Y97165D01*
X2765630Y195787D02*
X2844370Y195787D01*
X2844370Y294213D01*
X2765630Y294213D01*
X2780382Y263470D02*
G75*
D01*
G02X2780382Y263470I9842J0*
G01*
X2765630Y294213D02*
X2765630Y195787D01*
X3370000Y-63901D02*
X3628901Y195000D01*
X3370000Y453901D01*
X3111099Y195000D01*
X3235032Y136028D02*
G75*
D01*
G02X3235032Y136028I13779J0*
G01*
X3251685Y54414D02*
X3252613Y55427D01*
X3253449Y56517D01*
X3254187Y57675D01*
X3254822Y58894D01*
X3255348Y60163D01*
X3255761Y61473D01*
X3256058Y62815D01*
X3256237Y64177D01*
X3256297Y65549D01*
X3256237Y66922D01*
X3256058Y68284D01*
X3255761Y69625D01*
X3255348Y70935D01*
X3254822Y72205D01*
X3254188Y73423D01*
X3253449Y74582D01*
X3252613Y75672D01*
X3251685Y76685D01*
X3250672Y77613D01*
X3249582Y78449D01*
X3248423Y79187D01*
X3247205Y79822D01*
X3245936Y80348D01*
X3244625Y80761D01*
X3243284Y81058D01*
X3241922Y81237D01*
X3240549Y81297D01*
X3239177Y81237D01*
X3237815Y81058D01*
X3236474Y80761D01*
X3235163Y80348D01*
X3233894Y79822D01*
X3232675Y79188D01*
X3231517Y78449D01*
X3230427Y77613D01*
X3229414Y76685D01*
X3229414Y76685D01*
X3111099Y195000D02*
X3229414Y76685D01*
X3251685Y54414D02*
X3370000Y-63901D01*
G54D12*
X608701Y155551D02*
X608701Y224449D01*
X571299Y224449D02*
X571299Y155551D01*
X608701Y155551D01*
X608701Y224449D02*
X571299Y224449D01*
X1098189Y121654D02*
X1098189Y78346D01*
X1121811Y78346D02*
X1121811Y121654D01*
X1098189Y121654D01*
X1098189Y78346D02*
X1121811Y78346D01*
X1181496Y82598D02*
X1181496Y107402D01*
X1168504Y107402D02*
X1168504Y82598D01*
X1181496Y82598D01*
X1181496Y107402D02*
X1168504Y107402D01*
X1251654Y131811D02*
X1208346Y131811D01*
X1208346Y108189D02*
X1251654Y108189D01*
X1251654Y131811D01*
X1208346Y131811D02*
X1208346Y108189D01*
X1298642Y205059D02*
X1460059Y205059D01*
X1460059Y43642D01*
X1298642Y43642D01*
X1298642Y205059D01*
X1513504Y97402D02*
X1513504Y72598D01*
X1526496Y72598D02*
X1526496Y97402D01*
X1513504Y97402D01*
X1513504Y72598D02*
X1526496Y72598D01*
X1567598Y68504D02*
X1592402Y68504D01*
X1592402Y81496D02*
X1567598Y81496D01*
X1567598Y68504D01*
X1592402Y68504D02*
X1592402Y81496D01*
X1717402Y91496D02*
X1692598Y91496D01*
X1692598Y78504D02*
X1717402Y78504D01*
X1717402Y91496D01*
X1692598Y91496D02*
X1692598Y78504D01*
X1781496Y47598D02*
X1781496Y72402D01*
X1768504Y72402D02*
X1768504Y47598D01*
X1781496Y47598D01*
X1781496Y72402D02*
X1768504Y72402D01*
X1767598Y98504D02*
X1792402Y98504D01*
X1792402Y111496D02*
X1767598Y111496D01*
X1767598Y98504D01*
X1792402Y98504D02*
X1792402Y111496D01*
X2263701Y65551D02*
X2263701Y134449D01*
X2226299Y134449D02*
X2226299Y65551D01*
X2263701Y65551D01*
X2263701Y134449D02*
X2226299Y134449D01*
X2368504Y142402D02*
X2368504Y117598D01*
X2381496Y117598D02*
X2381496Y142402D01*
X2368504Y142402D01*
X2368504Y117598D02*
X2381496Y117598D01*
X2637598Y148504D02*
X2662402Y148504D01*
X2662402Y161496D02*
X2637598Y161496D01*
X2637598Y148504D01*
X2662402Y148504D02*
X2662402Y161496D01*
X2821811Y103346D02*
X2821811Y146654D01*
X2798189Y146654D02*
X2798189Y103346D01*
X2821811Y103346D01*
X2821811Y146654D02*
X2798189Y146654D01*
X758663Y148040D02*
X728040Y178663D01*
X711337Y161960D02*
X741960Y131337D01*
X758663Y148040D01*
X728040Y178663D02*
X711337Y161960D01*
X1548701Y145551D02*
X1548701Y214449D01*
X1511299Y214449D02*
X1511299Y145551D01*
X1548701Y145551D01*
X1548701Y214449D02*
X1511299Y214449D01*
X1686299Y204449D02*
X1686299Y135551D01*
X1723701Y135551D02*
X1723701Y204449D01*
X1686299Y204449D01*
X1686299Y135551D02*
X1723701Y135551D01*
X1796831Y141457D02*
X1763169Y141457D01*
X1763169Y206024D01*
X1796831Y206024D01*
X1796831Y141457D01*
X2376654Y186811D02*
X2333346Y186811D01*
X2333346Y163189D02*
X2376654Y163189D01*
X2376654Y186811D01*
X2333346Y186811D02*
X2333346Y163189D01*
X2428642Y260059D02*
X2590059Y260059D01*
X2590059Y98642D01*
X2428642Y98642D01*
X2428642Y260059D01*
X1298346Y213189D02*
X1341654Y213189D01*
X1341654Y236811D02*
X1298346Y236811D01*
X1298346Y213189D01*
X1341654Y213189D02*
X1341654Y236811D01*
X2358189Y266654D02*
X2358189Y223346D01*
X2381811Y223346D02*
X2381811Y266654D01*
X2358189Y266654D01*
X2358189Y223346D02*
X2381811Y223346D01*
X2673701Y215551D02*
X2673701Y284449D01*
X2636299Y284449D02*
X2636299Y215551D01*
X2673701Y215551D01*
X2673701Y284449D02*
X2636299Y284449D01*
X2708189Y286654D02*
X2708189Y243346D01*
X2731811Y243346D02*
X2731811Y286654D01*
X2708189Y286654D01*
X2708189Y243346D02*
X2731811Y243346D01*
X1107598Y323504D02*
X1132402Y323504D01*
X1132402Y336496D02*
X1107598Y336496D01*
X1107598Y323504D01*
X1132402Y323504D02*
X1132402Y336496D01*
X2962598Y233504D02*
X2987402Y233504D01*
X2987402Y246496D02*
X2962598Y246496D01*
X2962598Y233504D01*
X2987402Y233504D02*
X2987402Y246496D01*
X2906811Y233346D02*
X2906811Y276654D01*
X2883189Y276654D02*
X2883189Y233346D01*
X2906811Y233346D01*
X2906811Y276654D02*
X2883189Y276654D01*
X2943346Y193189D02*
X2986654Y193189D01*
X2986654Y216811D02*
X2943346Y216811D01*
X2943346Y193189D01*
X2986654Y193189D02*
X2986654Y216811D01*
X2716654Y76811D02*
X2673346Y76811D01*
X2673346Y53189D02*
X2716654Y53189D01*
X2716654Y76811D01*
X2673346Y76811D02*
X2673346Y53189D01*
G54D13*
X-10000Y-206850D02*
X-10000Y-145795D01*
X-10000Y-206850D02*
X346331Y-206850D01*
X3553307Y-206850D02*
X3196976Y-206850D01*
X3553307Y-206850D02*
X3553307Y-145795D01*
X3553307Y403701D02*
X3553307Y342646D01*
X3553307Y403701D02*
X3196976Y403701D01*
X-10000Y403701D02*
X346331Y403701D01*
X-10000Y403701D02*
X-10000Y342646D01*
X-206850Y-206850D02*
X-600551Y-206850D01*
X-403701Y-403701D02*
X-403701Y-10000D01*
X-551339Y-206850D02*
G75*
D01*
G02X-551339Y-206850I147638J0*
G01*
X3750157Y-206850D02*
X4143858Y-206850D01*
X3947008Y-403701D02*
X3947008Y-10000D01*
X3799370Y-206850D02*
G75*
D01*
G02X3799370Y-206850I147638J0*
G01*
X3897795Y-206850D02*
G75*
D01*
G02X3897795Y-206850I49213J0*
G01*
X-206850Y403701D02*
X-600551Y403701D01*
X-403701Y206850D02*
X-403701Y600551D01*
X-551339Y403701D02*
G75*
D01*
G02X-551339Y403701I147638J0*
G01*
X-502126Y403701D02*
G75*
D01*
G02X-502126Y403701I98425J0*
G01*
X-452913Y403701D02*
G75*
D01*
G02X-452913Y403701I49212J0*
G01*

M02*
