G04 Generated by Ultiboard 14.2 *
%FSLAX46Y46*%
%MOIN*%

%ADD10C,0.000001*%
%ADD11C,0.000039*%
%ADD12C,0.006124*%
%ADD13C,0.005000*%


G04 ColorRGB FF14FF for the following layer *
%LN_uc54e1d53705c425e955c42*%
%LPD*%
G54D10*
G54D11*
G36*
X3050000Y-81850D02*
X3050000Y115000D01*
X3168110Y115000D01*
X3168110Y-81850D01*
X3050000Y-81850D01*
G37*
G36*
X3050000Y120000D02*
X3050000Y395591D01*
X3168110Y395591D01*
X3168110Y120000D01*
X3050000Y120000D01*
G37*
G54D12*
X3377563Y129567D02*
X3385402Y121693D01*
X3393241Y121693D01*
X3401081Y129567D01*
X3401081Y153189D01*
X3393241Y161063D01*
X3385402Y161063D01*
X3377563Y153189D01*
X3361885Y153189D02*
X3354046Y161063D01*
X3354046Y121693D01*
X3365805Y121693D02*
X3342288Y121693D01*
X3307012Y137441D02*
X3330529Y137441D01*
X3310932Y161063D01*
X3310932Y121693D01*
X3314851Y121693D02*
X3307012Y121693D01*
X3376081Y216693D02*
X3376081Y256063D01*
X3360402Y256063D01*
X3352563Y248189D01*
X3352563Y244252D01*
X3360402Y236378D01*
X3376081Y236378D01*
X3372161Y236378D02*
X3352563Y216693D01*
X3336885Y248189D02*
X3329046Y256063D01*
X3329046Y216693D01*
X3340805Y216693D02*
X3317288Y216693D01*
X3305529Y248189D02*
X3297690Y256063D01*
X3289851Y256063D01*
X3282012Y248189D01*
X3282012Y224567D01*
X3289851Y216693D01*
X3297690Y216693D01*
X3305529Y224567D01*
X3305529Y248189D01*
X3282012Y248189D02*
X3305529Y224567D01*
X3316632Y281811D02*
X3316632Y321181D01*
X3300954Y321181D01*
X3293115Y313307D01*
X3293115Y309370D01*
X3300954Y301496D01*
X3316632Y301496D01*
X3312712Y301496D02*
X3293115Y281811D01*
X3281356Y289685D02*
X3273517Y281811D01*
X3265678Y281811D01*
X3257839Y289685D01*
X3257839Y305433D01*
X3257839Y313307D01*
X3265678Y321181D01*
X3273517Y321181D01*
X3281356Y313307D01*
X3281356Y305433D01*
X3273517Y297559D01*
X3265678Y297559D01*
X3257839Y305433D01*
G54D13*
X-10000Y-206850D02*
X-10000Y-145795D01*
X-10000Y-206850D02*
X346331Y-206850D01*
X3553307Y-206850D02*
X3196976Y-206850D01*
X3553307Y-206850D02*
X3553307Y-145795D01*
X3553307Y403701D02*
X3553307Y342646D01*
X3553307Y403701D02*
X3196976Y403701D01*
X-10000Y403701D02*
X346331Y403701D01*
X-10000Y403701D02*
X-10000Y342646D01*
X-206850Y-206850D02*
X-600551Y-206850D01*
X-403701Y-403701D02*
X-403701Y-10000D01*
X-551339Y-206850D02*
G75*
D01*
G02X-551339Y-206850I147638J0*
G01*
X3750157Y-206850D02*
X4143858Y-206850D01*
X3947008Y-403701D02*
X3947008Y-10000D01*
X3799370Y-206850D02*
G75*
D01*
G02X3799370Y-206850I147638J0*
G01*
X3897795Y-206850D02*
G75*
D01*
G02X3897795Y-206850I49213J0*
G01*
X-206850Y403701D02*
X-600551Y403701D01*
X-403701Y206850D02*
X-403701Y600551D01*
X-551339Y403701D02*
G75*
D01*
G02X-551339Y403701I147638J0*
G01*
X-502126Y403701D02*
G75*
D01*
G02X-502126Y403701I98425J0*
G01*
X-452913Y403701D02*
G75*
D01*
G02X-452913Y403701I49212J0*
G01*

M02*
