G04 Generated by Ultiboard 14.2 *
%FSLAX46Y46*%
%MOIN*%

%ADD10C,0.000001*%
%ADD11C,0.005000*%
%ADD12R,0.039370X0.037402*%
%ADD13R,0.059055X0.013780*%
%ADD14C,0.003937*%
%ADD15R,0.025984X0.022835*%
%ADD16R,0.016535X0.018110*%
%ADD17R,0.022835X0.025984*%
%ADD18R,0.031496X0.011811*%
%ADD19R,0.106299X0.122047*%
%ADD20R,0.018110X0.016535*%
%ADD21R,0.074803X0.015748*%
%ADD22C,0.070866*%
%ADD23R,0.059055X0.039370*%
%ADD24R,0.003150X0.011811*%
%ADD25R,0.011811X0.011221*%
%ADD26R,0.011811X0.011220*%
%ADD27P,0.032293X4*%
%ADD28C,0.007874*%
%ADD29R,0.080709X0.037402*%
%ADD30C,0.009843*%
%ADD31R,0.037402X0.041339*%


G04 ColorRGB 006666 for the following layer *
%LN_uc552a9710a5c4298765c42*%
%LPD*%
G54D10*
G54D11*
X-10000Y-206850D02*
X-10000Y-145795D01*
X-10000Y-206850D02*
X346331Y-206850D01*
X3553307Y-206850D02*
X3196976Y-206850D01*
X3553307Y-206850D02*
X3553307Y-145795D01*
X3553307Y403701D02*
X3553307Y342646D01*
X3553307Y403701D02*
X3196976Y403701D01*
X-10000Y403701D02*
X346331Y403701D01*
X-10000Y403701D02*
X-10000Y342646D01*
X-206850Y-206850D02*
X-600551Y-206850D01*
X-403701Y-403701D02*
X-403701Y-10000D01*
X-551339Y-206850D02*
G75*
D01*
G02X-551339Y-206850I147638J0*
G01*
X3750157Y-206850D02*
X4143858Y-206850D01*
X3947008Y-403701D02*
X3947008Y-10000D01*
X3799370Y-206850D02*
G75*
D01*
G02X3799370Y-206850I147638J0*
G01*
X3897795Y-206850D02*
G75*
D01*
G02X3897795Y-206850I49213J0*
G01*
X-206850Y403701D02*
X-600551Y403701D01*
X-403701Y206850D02*
X-403701Y600551D01*
X-551339Y403701D02*
G75*
D01*
G02X-551339Y403701I147638J0*
G01*
X-502126Y403701D02*
G75*
D01*
G02X-502126Y403701I98425J0*
G01*
X-452913Y403701D02*
G75*
D01*
G02X-452913Y403701I49212J0*
G01*
G54D12*
X590000Y158504D03*
X590000Y221496D03*
X2245000Y68504D03*
X2245000Y131496D03*
X1530000Y148504D03*
X1530000Y211496D03*
X1705000Y138504D03*
X1705000Y201496D03*
X2655000Y218504D03*
X2655000Y281496D03*
G54D13*
X820827Y147283D03*
X820827Y121693D03*
X820827Y96102D03*
X1049173Y96102D03*
X1049173Y121693D03*
X1049173Y147283D03*
X820827Y249646D03*
X820827Y224055D03*
X820827Y172874D03*
X820827Y198465D03*
X1049173Y172874D03*
X1049173Y198465D03*
X1049173Y249646D03*
X1049173Y224055D03*
X820827Y326417D03*
X820827Y275236D03*
X820827Y300827D03*
X1049173Y326417D03*
X1049173Y275236D03*
X1049173Y300827D03*
G54D14*
X791300Y140393D02*
X850354Y140393D01*
X850354Y154173D01*
X791300Y154173D01*
X791300Y140393D01*D02*
X791300Y114803D02*
X850354Y114803D01*
X850354Y128583D01*
X791300Y128583D01*
X791300Y114803D01*D02*
X791300Y89212D02*
X850354Y89212D01*
X850354Y102992D01*
X791300Y102992D01*
X791300Y89212D01*D02*
X1019646Y89212D02*
X1078700Y89212D01*
X1078700Y102992D01*
X1019646Y102992D01*
X1019646Y89212D01*D02*
X1019646Y114803D02*
X1078700Y114803D01*
X1078700Y128583D01*
X1019646Y128583D01*
X1019646Y114803D01*D02*
X1019646Y140393D02*
X1078700Y140393D01*
X1078700Y154173D01*
X1019646Y154173D01*
X1019646Y140393D01*D02*
X791300Y242756D02*
X850354Y242756D01*
X850354Y256536D01*
X791300Y256536D01*
X791300Y242756D01*D02*
X791300Y217165D02*
X850354Y217165D01*
X850354Y230945D01*
X791300Y230945D01*
X791300Y217165D01*D02*
X791300Y165984D02*
X850354Y165984D01*
X850354Y179764D01*
X791300Y179764D01*
X791300Y165984D01*D02*
X791300Y191575D02*
X850354Y191575D01*
X850354Y205355D01*
X791300Y205355D01*
X791300Y191575D01*D02*
X1019646Y165984D02*
X1078700Y165984D01*
X1078700Y179764D01*
X1019646Y179764D01*
X1019646Y165984D01*D02*
X1019646Y191575D02*
X1078700Y191575D01*
X1078700Y205355D01*
X1019646Y205355D01*
X1019646Y191575D01*D02*
X1019646Y242756D02*
X1078700Y242756D01*
X1078700Y256536D01*
X1019646Y256536D01*
X1019646Y242756D01*D02*
X1019646Y217165D02*
X1078700Y217165D01*
X1078700Y230945D01*
X1019646Y230945D01*
X1019646Y217165D01*D02*
X791300Y319527D02*
X850354Y319527D01*
X850354Y333307D01*
X791300Y333307D01*
X791300Y319527D01*D02*
X791300Y268346D02*
X850354Y268346D01*
X850354Y282126D01*
X791300Y282126D01*
X791300Y268346D01*D02*
X791300Y293937D02*
X850354Y293937D01*
X850354Y307717D01*
X791300Y307717D01*
X791300Y293937D01*D02*
X1019646Y319527D02*
X1078700Y319527D01*
X1078700Y333307D01*
X1019646Y333307D01*
X1019646Y319527D01*D02*
X1019646Y268346D02*
X1078700Y268346D01*
X1078700Y282126D01*
X1019646Y282126D01*
X1019646Y268346D01*D02*
X1019646Y293937D02*
X1078700Y293937D01*
X1078700Y307717D01*
X1019646Y307717D01*
X1019646Y293937D01*D02*
X2904705Y74075D02*
X2907855Y74075D01*
X2907855Y85885D01*
X2904705Y85885D01*
X2904705Y74075D01*D02*
X2918484Y74075D02*
X2921634Y74075D01*
X2921634Y85885D01*
X2918484Y85885D01*
X2918484Y74075D01*D02*
X2932264Y74075D02*
X2935414Y74075D01*
X2935414Y85885D01*
X2932264Y85885D01*
X2932264Y74075D01*D02*
X2946043Y74075D02*
X2949193Y74075D01*
X2949193Y85885D01*
X2946043Y85885D01*
X2946043Y74075D01*D02*
X2959823Y74075D02*
X2962973Y74075D01*
X2962973Y85885D01*
X2959823Y85885D01*
X2959823Y74075D01*D02*
X2973602Y74075D02*
X2976752Y74075D01*
X2976752Y85885D01*
X2973602Y85885D01*
X2973602Y74075D01*D02*
X2987382Y74075D02*
X2990532Y74075D01*
X2990532Y85885D01*
X2987382Y85885D01*
X2987382Y74075D01*D02*
X2904705Y148878D02*
X2907855Y148878D01*
X2907855Y160688D01*
X2904705Y160688D01*
X2904705Y148878D01*D02*
X2849981Y130768D02*
X2861791Y130768D01*
X2861791Y141988D01*
X2849981Y141988D01*
X2849981Y130768D01*D02*
X2849981Y92776D02*
X2861791Y92776D01*
X2861791Y103996D01*
X2849981Y103996D01*
X2849981Y92776D01*D02*
X2918484Y148878D02*
X2921634Y148878D01*
X2921634Y160688D01*
X2918484Y160688D01*
X2918484Y148878D01*D02*
X2932264Y148878D02*
X2935414Y148878D01*
X2935414Y160688D01*
X2932264Y160688D01*
X2932264Y148878D01*D02*
X2946043Y148878D02*
X2949193Y148878D01*
X2949193Y160688D01*
X2946043Y160688D01*
X2946043Y148878D01*D02*
X2959823Y148878D02*
X2962973Y148878D01*
X2962973Y160688D01*
X2959823Y160688D01*
X2959823Y148878D01*D02*
X2973602Y148878D02*
X2976752Y148878D01*
X2976752Y160688D01*
X2973602Y160688D01*
X2973602Y148878D01*D02*
X2987382Y148878D02*
X2990532Y148878D01*
X2990532Y160688D01*
X2987382Y160688D01*
X2987382Y148878D01*D02*
X3033445Y130768D02*
X3045255Y130768D01*
X3045255Y141988D01*
X3033445Y141988D01*
X3033445Y130768D01*D02*
X3033445Y92776D02*
X3045255Y92776D01*
X3045255Y103996D01*
X3033445Y103996D01*
X3033445Y92776D01*D02*
G54D15*
X1110000Y80709D03*
X1110000Y119291D03*
X2810000Y144291D03*
X2810000Y105709D03*
X2370000Y225709D03*
X2370000Y264291D03*
X2720000Y245709D03*
X2720000Y284291D03*
X2895000Y235709D03*
X2895000Y274291D03*
G54D16*
X1175000Y82008D03*
X1175000Y107992D03*
X1520000Y72008D03*
X1520000Y97992D03*
X1775000Y72992D03*
X1775000Y47008D03*
X2375000Y117008D03*
X2375000Y142992D03*
G54D17*
X1249291Y120000D03*
X1210709Y120000D03*
X2335709Y175000D03*
X2374291Y175000D03*
X1300709Y225000D03*
X1339291Y225000D03*
X2984291Y205000D03*
X2945709Y205000D03*
X2675709Y65000D03*
X2714291Y65000D03*
G54D18*
X1300610Y75138D03*
X1458091Y75138D03*
X1300610Y153878D03*
X1300610Y134193D03*
X1300610Y94823D03*
X1300610Y114508D03*
X1458091Y153878D03*
X1458091Y94823D03*
X1458091Y114508D03*
X1458091Y134193D03*
X1300610Y173563D03*
X1458091Y173563D03*
X2430610Y130138D03*
X2430610Y149823D03*
X2430610Y169508D03*
X2588091Y130138D03*
X2588091Y149823D03*
X2588091Y169508D03*
X2430610Y208878D03*
X2430610Y228563D03*
X2430610Y189193D03*
X2588091Y208878D03*
X2588091Y228563D03*
X2588091Y189193D03*
G54D19*
X1379350Y124350D03*
X2509350Y179350D03*
G54D20*
X1567008Y75000D03*
X1592992Y75000D03*
X1692008Y85000D03*
X1717992Y85000D03*
X1792992Y105000D03*
X1767008Y105000D03*
X2637008Y155000D03*
X2662992Y155000D03*
X1107008Y330000D03*
X1132992Y330000D03*
X2962008Y240000D03*
X2987992Y240000D03*
G54D21*
X2060866Y130000D03*
G54D22*
X2023465Y122126D02*
X2098267Y122126D01*
X2098267Y137874D01*
X2023465Y137874D01*
X2023465Y122126D01*D02*
G54D23*
X2169134Y70945D03*
X2169134Y130000D03*
X2169134Y189055D03*
G54D24*
X2906280Y79980D03*
X2920059Y79980D03*
X2933839Y79980D03*
X2947618Y79980D03*
X2961398Y79980D03*
X2975177Y79980D03*
X2988957Y79980D03*
X2906280Y154783D03*
X2920059Y154783D03*
X2933839Y154783D03*
X2947618Y154783D03*
X2961398Y154783D03*
X2975177Y154783D03*
X2988957Y154783D03*
G54D25*
X2855886Y136378D03*
X3039350Y136378D03*
X3039350Y98386D03*
G54D26*
X2855886Y98386D03*
G54D27*
X722473Y169755D03*
X720245Y167527D03*
X749755Y142473D03*
X747527Y140245D03*
G54D28*
X1772126Y165866D03*
X1787874Y165866D03*
X1787874Y150118D03*
X1772126Y150118D03*
X1772126Y197362D03*
X1772126Y181614D03*
X1787874Y181614D03*
X1787874Y197362D03*
G54D29*
X1915000Y120787D03*
X1915000Y219213D03*
G54D30*
X1874646Y102086D02*
X1955354Y102086D01*
X1955354Y139488D01*
X1874646Y139488D01*
X1874646Y102086D01*D02*
X1874646Y200512D02*
X1955354Y200512D01*
X1955354Y237914D01*
X1874646Y237914D01*
X1874646Y200512D01*D02*
G54D31*
X2776457Y208583D03*
X2833543Y208583D03*
X2776457Y281417D03*
X2833543Y281417D03*

M02*
